G04*
G04 #@! TF.GenerationSoftware,Altium Limited,Altium Designer,21.4.1 (30)*
G04*
G04 Layer_Color=16711935*
%FSLAX25Y25*%
%MOIN*%
G70*
G04*
G04 #@! TF.SameCoordinates,ABD127B9-61DE-435D-9B50-71DF74D21850*
G04*
G04*
G04 #@! TF.FilePolarity,Positive*
G04*
G01*
G75*
%ADD170C,0.00000*%
%ADD176C,0.15748*%
%ADD177C,0.15354*%
%ADD178C,0.14000*%
D170*
X0Y3937D02*
G03*
X3937Y0I3937J0D01*
G01*
X625984D02*
G03*
X629921Y3937I0J3937D01*
G01*
Y468504D02*
G03*
X625984Y472441I-3937J0D01*
G01*
X3937D02*
G03*
X0Y468504I0J-3937D01*
G01*
X629921Y3937D02*
Y468504D01*
X3937Y472441D02*
X625984D01*
X0Y3937D02*
Y468504D01*
X3937Y0D02*
X625984D01*
D176*
X515000Y266620D02*
X621600D01*
X435000Y256191D02*
Y334941D01*
X233091Y336191D02*
X275000D01*
X162500Y76191D02*
Y256200D01*
X515000Y266620D02*
Y334941D01*
X275000Y256191D02*
X330000D01*
X162500Y76191D02*
X206887D01*
X281875Y8600D02*
Y104900D01*
X275000Y256191D02*
Y336191D01*
X207168Y104900D02*
X281875D01*
X330000Y256191D02*
Y336816D01*
X372500Y256191D02*
X435000D01*
X330000Y336816D02*
X372500D01*
X206887Y76191D02*
X207168Y76472D01*
X372500Y256191D02*
Y336816D01*
D177*
X207168Y76472D02*
Y104900D01*
X162500Y256200D02*
X232466D01*
X162500Y256191D02*
Y323691D01*
X435000Y334941D02*
X515000D01*
D178*
X232466Y256200D02*
X233091Y336191D01*
M02*
