G04*
G04 #@! TF.GenerationSoftware,Altium Limited,Altium Designer,21.4.1 (30)*
G04*
G04 Layer_Physical_Order=4*
G04 Layer_Color=16711680*
%FSLAX25Y25*%
%MOIN*%
G70*
G04*
G04 #@! TF.SameCoordinates,ABD127B9-61DE-435D-9B50-71DF74D21850*
G04*
G04*
G04 #@! TF.FilePolarity,Positive*
G04*
G01*
G75*
%ADD17C,0.01000*%
%ADD147C,0.03937*%
%ADD150C,0.00600*%
%ADD153C,0.00800*%
%ADD155C,0.02400*%
%ADD156C,0.00400*%
%ADD157C,0.03543*%
%ADD158C,0.05512*%
%ADD159R,0.05512X0.05512*%
%ADD160C,0.06890*%
%ADD161C,0.05906*%
%ADD162C,0.07874*%
%ADD163C,0.03543*%
%ADD164C,0.06000*%
%ADD165C,0.27559*%
%ADD166C,0.02165*%
%ADD167C,0.02559*%
%ADD169C,0.05000*%
G36*
X621305Y470065D02*
X621999Y469371D01*
X622375Y468463D01*
Y467972D01*
Y427566D01*
X468941D01*
Y431828D01*
X469194Y431997D01*
X469522Y432487D01*
X469637Y433066D01*
X469522Y433644D01*
X469194Y434135D01*
X468704Y434463D01*
X468125Y434578D01*
X467547Y434463D01*
X467056Y434135D01*
X466728Y433644D01*
X466613Y433066D01*
X466728Y432487D01*
X467056Y431997D01*
X467309Y431828D01*
Y427566D01*
X364875D01*
Y425706D01*
X364489Y425389D01*
X364375Y425412D01*
X363796Y425297D01*
X363306Y424969D01*
X362978Y424478D01*
X362863Y423900D01*
X362978Y423321D01*
X363306Y422831D01*
X363796Y422503D01*
X364375Y422388D01*
X364388Y422391D01*
X364875Y421982D01*
Y401316D01*
X332625D01*
Y428191D01*
X231750D01*
Y358359D01*
X226170D01*
X226069Y358510D01*
X225578Y358838D01*
X225000Y358953D01*
X224422Y358838D01*
X223931Y358510D01*
X223603Y358019D01*
X223488Y357441D01*
X223603Y356862D01*
X223931Y356372D01*
X224422Y356044D01*
X225000Y355929D01*
X225578Y356044D01*
X226069Y356372D01*
X226170Y356523D01*
X231750D01*
Y344441D01*
X170477D01*
X170124Y344796D01*
X170301Y376112D01*
X170304Y376601D01*
X170682Y377503D01*
X171376Y378193D01*
X172280Y378566D01*
X199282D01*
X199568Y378594D01*
X200098Y378813D01*
X200503Y379218D01*
X200722Y379748D01*
X200750Y380034D01*
Y407348D01*
X200722Y407634D01*
X200503Y408164D01*
X200098Y408569D01*
X199568Y408788D01*
X199282Y408816D01*
X178352D01*
X177445Y409192D01*
X176751Y409886D01*
X176375Y410793D01*
Y411284D01*
Y458127D01*
X176875Y458306D01*
X177272Y457823D01*
X178261Y457011D01*
X179391Y456407D01*
X180616Y456035D01*
X181890Y455910D01*
X183164Y456035D01*
X184389Y456407D01*
X185519Y457011D01*
X186508Y457823D01*
X187320Y458813D01*
X187924Y459942D01*
X188296Y461167D01*
X188421Y462441D01*
X188296Y463715D01*
X187924Y464940D01*
X187320Y466070D01*
X186508Y467059D01*
X185519Y467871D01*
X184389Y468475D01*
X183164Y468847D01*
X181890Y468972D01*
X180616Y468847D01*
X179391Y468475D01*
X178261Y467871D01*
X177272Y467059D01*
X176875Y466576D01*
X176375Y466754D01*
Y470441D01*
X620397D01*
X621305Y470065D01*
D02*
G37*
G36*
X621750Y361316D02*
X585125D01*
Y377316D01*
X621750D01*
Y361316D01*
D02*
G37*
G36*
X303125Y67441D02*
X301905D01*
X301794Y67446D01*
X301697Y67450D01*
X301610Y67459D01*
X301536Y67469D01*
X301476Y67478D01*
X301430Y67483D01*
X301402Y67492D01*
X301393D01*
X301314Y67515D01*
X301249Y67538D01*
X301189Y67566D01*
X301138Y67593D01*
X301097Y67612D01*
X301064Y67630D01*
X301046Y67644D01*
X301041Y67649D01*
X300991Y67690D01*
X300944Y67741D01*
X300907Y67792D01*
X300870Y67838D01*
X300843Y67884D01*
X300824Y67917D01*
X300810Y67940D01*
X300806Y67949D01*
X300773Y68023D01*
X300750Y68097D01*
X300732Y68166D01*
X300723Y68231D01*
X300713Y68287D01*
X300709Y68333D01*
Y68360D01*
Y68365D01*
Y68370D01*
X300713Y68471D01*
X300732Y68564D01*
X300760Y68642D01*
X300787Y68716D01*
X300815Y68772D01*
X300843Y68813D01*
X300861Y68841D01*
X300866Y68850D01*
X300931Y68924D01*
X301000Y68984D01*
X301078Y69035D01*
X301148Y69077D01*
X301212Y69109D01*
X301268Y69127D01*
X301286Y69137D01*
X301300Y69141D01*
X301309Y69146D01*
X301314D01*
X301235Y69192D01*
X301166Y69238D01*
X301111Y69289D01*
X301064Y69335D01*
X301027Y69372D01*
X301000Y69409D01*
X300986Y69428D01*
X300981Y69437D01*
X300944Y69506D01*
X300917Y69571D01*
X300893Y69635D01*
X300880Y69696D01*
X300870Y69746D01*
X300866Y69788D01*
Y69811D01*
Y69820D01*
X300870Y69899D01*
X300884Y69977D01*
X300907Y70047D01*
X300931Y70111D01*
X300954Y70167D01*
X300977Y70204D01*
X300991Y70231D01*
X300995Y70241D01*
X301046Y70310D01*
X301101Y70375D01*
X301162Y70425D01*
X301217Y70467D01*
X301263Y70499D01*
X301305Y70522D01*
X301332Y70536D01*
X301337Y70541D01*
X301342D01*
X301430Y70573D01*
X301526Y70596D01*
X301624Y70615D01*
X301716Y70624D01*
X301799Y70633D01*
X301836D01*
X301868Y70638D01*
X303125D01*
Y67441D01*
D02*
G37*
G36*
X296893Y70259D02*
X295839D01*
Y67441D01*
X295414D01*
Y70259D01*
X294361D01*
Y70638D01*
X296893D01*
Y70259D01*
D02*
G37*
G36*
X298851Y70689D02*
X298967Y70675D01*
X299078Y70652D01*
X299184Y70624D01*
X299281Y70587D01*
X299374Y70550D01*
X299457Y70509D01*
X299531Y70467D01*
X299600Y70425D01*
X299660Y70384D01*
X299711Y70347D01*
X299752Y70310D01*
X299785Y70282D01*
X299813Y70259D01*
X299826Y70245D01*
X299831Y70241D01*
X299905Y70153D01*
X299970Y70060D01*
X300030Y69959D01*
X300076Y69857D01*
X300117Y69751D01*
X300154Y69649D01*
X300182Y69548D01*
X300201Y69451D01*
X300219Y69358D01*
X300233Y69270D01*
X300242Y69192D01*
X300251Y69127D01*
Y69072D01*
X300256Y69030D01*
Y69003D01*
Y68998D01*
Y68993D01*
X300247Y68836D01*
X300228Y68693D01*
X300201Y68554D01*
X300182Y68494D01*
X300164Y68434D01*
X300150Y68384D01*
X300131Y68337D01*
X300117Y68296D01*
X300103Y68259D01*
X300094Y68231D01*
X300085Y68212D01*
X300076Y68199D01*
Y68194D01*
X299997Y68060D01*
X299914Y67945D01*
X299822Y67843D01*
X299734Y67760D01*
X299655Y67690D01*
X299623Y67663D01*
X299595Y67644D01*
X299568Y67626D01*
X299549Y67612D01*
X299540Y67607D01*
X299535Y67603D01*
X299466Y67566D01*
X299397Y67533D01*
X299258Y67478D01*
X299124Y67441D01*
X298999Y67413D01*
X298939Y67404D01*
X298888Y67399D01*
X298842Y67390D01*
X298801D01*
X298773Y67386D01*
X298727D01*
X298574Y67395D01*
X298431Y67418D01*
X298297Y67446D01*
X298237Y67464D01*
X298182Y67483D01*
X298131Y67501D01*
X298085Y67519D01*
X298048Y67533D01*
X298015Y67547D01*
X297988Y67561D01*
X297965Y67570D01*
X297955Y67580D01*
X297951D01*
X297821Y67663D01*
X297710Y67755D01*
X297618Y67852D01*
X297539Y67945D01*
X297475Y68032D01*
X297452Y68065D01*
X297433Y68097D01*
X297415Y68125D01*
X297405Y68143D01*
X297396Y68157D01*
Y68162D01*
X297359Y68236D01*
X297332Y68310D01*
X297281Y68457D01*
X297244Y68605D01*
X297221Y68739D01*
X297216Y68799D01*
X297207Y68855D01*
X297202Y68906D01*
Y68947D01*
X297198Y68984D01*
Y69007D01*
Y69026D01*
Y69030D01*
X297207Y69206D01*
X297225Y69367D01*
X297239Y69441D01*
X297258Y69515D01*
X297276Y69580D01*
X297290Y69640D01*
X297308Y69696D01*
X297327Y69746D01*
X297341Y69788D01*
X297359Y69825D01*
X297369Y69853D01*
X297378Y69871D01*
X297387Y69885D01*
Y69890D01*
X297461Y70024D01*
X297549Y70144D01*
X297641Y70245D01*
X297724Y70328D01*
X297803Y70393D01*
X297840Y70421D01*
X297867Y70444D01*
X297895Y70458D01*
X297914Y70472D01*
X297923Y70476D01*
X297927Y70481D01*
X297997Y70518D01*
X298066Y70550D01*
X298200Y70606D01*
X298339Y70643D01*
X298459Y70666D01*
X298514Y70675D01*
X298570Y70684D01*
X298611Y70689D01*
X298653D01*
X298685Y70693D01*
X298727D01*
X298851Y70689D01*
D02*
G37*
%LPC*%
G36*
X562500Y458953D02*
X561922Y458838D01*
X561431Y458510D01*
X561103Y458019D01*
X560988Y457441D01*
X561103Y456862D01*
X561431Y456372D01*
X561922Y456044D01*
X562500Y455929D01*
X563078Y456044D01*
X563569Y456372D01*
X563897Y456862D01*
X564012Y457441D01*
X563897Y458019D01*
X563569Y458510D01*
X563078Y458838D01*
X562500Y458953D01*
D02*
G37*
G36*
X595000Y468972D02*
X593726Y468847D01*
X592501Y468475D01*
X591371Y467871D01*
X590382Y467059D01*
X589570Y466070D01*
X588966Y464940D01*
X588594Y463715D01*
X588469Y462441D01*
X588594Y461167D01*
X588966Y459942D01*
X589570Y458813D01*
X590382Y457823D01*
X591371Y457011D01*
X592501Y456407D01*
X593726Y456035D01*
X595000Y455910D01*
X596274Y456035D01*
X597499Y456407D01*
X598629Y457011D01*
X599618Y457823D01*
X600430Y458813D01*
X601034Y459942D01*
X601406Y461167D01*
X601531Y462441D01*
X601406Y463715D01*
X601034Y464940D01*
X600430Y466070D01*
X599618Y467059D01*
X598629Y467871D01*
X597499Y468475D01*
X596274Y468847D01*
X595000Y468972D01*
D02*
G37*
G36*
X547500D02*
X546226Y468847D01*
X545001Y468475D01*
X543871Y467871D01*
X542882Y467059D01*
X542070Y466070D01*
X541466Y464940D01*
X541094Y463715D01*
X540969Y462441D01*
X541094Y461167D01*
X541466Y459942D01*
X542070Y458813D01*
X542882Y457823D01*
X543871Y457011D01*
X545001Y456407D01*
X546226Y456035D01*
X547500Y455910D01*
X548774Y456035D01*
X549999Y456407D01*
X551128Y457011D01*
X552118Y457823D01*
X552930Y458813D01*
X553534Y459942D01*
X553906Y461167D01*
X554031Y462441D01*
X553906Y463715D01*
X553534Y464940D01*
X552930Y466070D01*
X552118Y467059D01*
X551128Y467871D01*
X549999Y468475D01*
X548774Y468847D01*
X547500Y468972D01*
D02*
G37*
G36*
X506250D02*
X504976Y468847D01*
X503751Y468475D01*
X502622Y467871D01*
X501632Y467059D01*
X500820Y466070D01*
X500216Y464940D01*
X499844Y463715D01*
X499719Y462441D01*
X499844Y461167D01*
X500216Y459942D01*
X500820Y458813D01*
X501632Y457823D01*
X502622Y457011D01*
X503751Y456407D01*
X504976Y456035D01*
X506250Y455910D01*
X507524Y456035D01*
X508749Y456407D01*
X509878Y457011D01*
X510868Y457823D01*
X511680Y458813D01*
X512284Y459942D01*
X512656Y461167D01*
X512781Y462441D01*
X512656Y463715D01*
X512284Y464940D01*
X511680Y466070D01*
X510868Y467059D01*
X509878Y467871D01*
X508749Y468475D01*
X507524Y468847D01*
X506250Y468972D01*
D02*
G37*
G36*
X423750D02*
X422476Y468847D01*
X421251Y468475D01*
X420121Y467871D01*
X419132Y467059D01*
X418320Y466070D01*
X417716Y464940D01*
X417344Y463715D01*
X417219Y462441D01*
X417344Y461167D01*
X417716Y459942D01*
X418320Y458813D01*
X419132Y457823D01*
X420121Y457011D01*
X421251Y456407D01*
X422476Y456035D01*
X423750Y455910D01*
X425024Y456035D01*
X426249Y456407D01*
X427379Y457011D01*
X428368Y457823D01*
X429180Y458813D01*
X429784Y459942D01*
X430156Y461167D01*
X430281Y462441D01*
X430156Y463715D01*
X429784Y464940D01*
X429180Y466070D01*
X428368Y467059D01*
X427379Y467871D01*
X426249Y468475D01*
X425024Y468847D01*
X423750Y468972D01*
D02*
G37*
G36*
X382500D02*
X381226Y468847D01*
X380001Y468475D01*
X378871Y467871D01*
X377882Y467059D01*
X377070Y466070D01*
X376466Y464940D01*
X376094Y463715D01*
X375969Y462441D01*
X376094Y461167D01*
X376466Y459942D01*
X377070Y458813D01*
X377882Y457823D01*
X378871Y457011D01*
X380001Y456407D01*
X381226Y456035D01*
X382500Y455910D01*
X383774Y456035D01*
X384999Y456407D01*
X386128Y457011D01*
X387118Y457823D01*
X387930Y458813D01*
X388534Y459942D01*
X388906Y461167D01*
X389031Y462441D01*
X388906Y463715D01*
X388534Y464940D01*
X387930Y466070D01*
X387118Y467059D01*
X386128Y467871D01*
X384999Y468475D01*
X383774Y468847D01*
X382500Y468972D01*
D02*
G37*
G36*
X341250D02*
X339976Y468847D01*
X338751Y468475D01*
X337621Y467871D01*
X336632Y467059D01*
X335820Y466070D01*
X335216Y464940D01*
X334844Y463715D01*
X334719Y462441D01*
X334844Y461167D01*
X335216Y459942D01*
X335820Y458813D01*
X336632Y457823D01*
X337621Y457011D01*
X338751Y456407D01*
X339976Y456035D01*
X341250Y455910D01*
X342524Y456035D01*
X343749Y456407D01*
X344879Y457011D01*
X345868Y457823D01*
X346680Y458813D01*
X347284Y459942D01*
X347656Y461167D01*
X347781Y462441D01*
X347656Y463715D01*
X347284Y464940D01*
X346680Y466070D01*
X345868Y467059D01*
X344879Y467871D01*
X343749Y468475D01*
X342524Y468847D01*
X341250Y468972D01*
D02*
G37*
G36*
X300000D02*
X298726Y468847D01*
X297501Y468475D01*
X296372Y467871D01*
X295382Y467059D01*
X294570Y466070D01*
X293966Y464940D01*
X293594Y463715D01*
X293469Y462441D01*
X293594Y461167D01*
X293966Y459942D01*
X294570Y458813D01*
X295382Y457823D01*
X296372Y457011D01*
X297501Y456407D01*
X298726Y456035D01*
X300000Y455910D01*
X301274Y456035D01*
X302499Y456407D01*
X303628Y457011D01*
X304618Y457823D01*
X305430Y458813D01*
X306034Y459942D01*
X306406Y461167D01*
X306531Y462441D01*
X306406Y463715D01*
X306034Y464940D01*
X305430Y466070D01*
X304618Y467059D01*
X303628Y467871D01*
X302499Y468475D01*
X301274Y468847D01*
X300000Y468972D01*
D02*
G37*
G36*
X258750D02*
X257476Y468847D01*
X256251Y468475D01*
X255121Y467871D01*
X254132Y467059D01*
X253320Y466070D01*
X252716Y464940D01*
X252344Y463715D01*
X252219Y462441D01*
X252344Y461167D01*
X252716Y459942D01*
X253320Y458813D01*
X254132Y457823D01*
X255121Y457011D01*
X256251Y456407D01*
X257476Y456035D01*
X258750Y455910D01*
X260024Y456035D01*
X261249Y456407D01*
X262379Y457011D01*
X263368Y457823D01*
X264180Y458813D01*
X264784Y459942D01*
X265156Y461167D01*
X265281Y462441D01*
X265156Y463715D01*
X264784Y464940D01*
X264180Y466070D01*
X263368Y467059D01*
X262379Y467871D01*
X261249Y468475D01*
X260024Y468847D01*
X258750Y468972D01*
D02*
G37*
G36*
X217500D02*
X216226Y468847D01*
X215001Y468475D01*
X213872Y467871D01*
X212882Y467059D01*
X212070Y466070D01*
X211466Y464940D01*
X211094Y463715D01*
X210969Y462441D01*
X211094Y461167D01*
X211466Y459942D01*
X212070Y458813D01*
X212882Y457823D01*
X213872Y457011D01*
X215001Y456407D01*
X216226Y456035D01*
X217500Y455910D01*
X218774Y456035D01*
X219999Y456407D01*
X221129Y457011D01*
X222118Y457823D01*
X222930Y458813D01*
X223534Y459942D01*
X223906Y461167D01*
X224031Y462441D01*
X223906Y463715D01*
X223534Y464940D01*
X222930Y466070D01*
X222118Y467059D01*
X221129Y467871D01*
X219999Y468475D01*
X218774Y468847D01*
X217500Y468972D01*
D02*
G37*
G36*
X473700Y458118D02*
X472775Y457934D01*
X471990Y457410D01*
X471466Y456625D01*
X471282Y455700D01*
X471466Y454775D01*
X471990Y453990D01*
X472775Y453466D01*
X473700Y453282D01*
X474625Y453466D01*
X475410Y453990D01*
X475934Y454775D01*
X476118Y455700D01*
X475934Y456625D01*
X475410Y457410D01*
X474625Y457934D01*
X473700Y458118D01*
D02*
G37*
G36*
X456377D02*
X455452Y457934D01*
X454667Y457410D01*
X454143Y456625D01*
X453959Y455700D01*
X454143Y454775D01*
X454667Y453990D01*
X455452Y453466D01*
X456377Y453282D01*
X457303Y453466D01*
X458087Y453990D01*
X458611Y454775D01*
X458795Y455700D01*
X458611Y456625D01*
X458087Y457410D01*
X457303Y457934D01*
X456377Y458118D01*
D02*
G37*
G36*
X562500Y455203D02*
X561922Y455088D01*
X561431Y454760D01*
X561103Y454270D01*
X560988Y453691D01*
X561103Y453113D01*
X561431Y452622D01*
X561922Y452294D01*
X562500Y452179D01*
X563078Y452294D01*
X563569Y452622D01*
X563897Y453113D01*
X564012Y453691D01*
X563897Y454270D01*
X563569Y454760D01*
X563078Y455088D01*
X562500Y455203D01*
D02*
G37*
G36*
X595000Y448870D02*
X594112Y448753D01*
X593285Y448411D01*
X592575Y447866D01*
X592030Y447156D01*
X591687Y446329D01*
X591571Y445441D01*
X591687Y444553D01*
X592030Y443726D01*
X592575Y443016D01*
X593285Y442471D01*
X594112Y442129D01*
X595000Y442012D01*
X595888Y442129D01*
X596715Y442471D01*
X597425Y443016D01*
X597970Y443726D01*
X598313Y444553D01*
X598429Y445441D01*
X598313Y446329D01*
X597970Y447156D01*
X597425Y447866D01*
X596715Y448411D01*
X595888Y448753D01*
X595000Y448870D01*
D02*
G37*
G36*
X583252D02*
X582364Y448753D01*
X581537Y448411D01*
X580827Y447866D01*
X580282Y447156D01*
X579940Y446329D01*
X579823Y445441D01*
X579940Y444553D01*
X580282Y443726D01*
X580827Y443016D01*
X581537Y442471D01*
X582364Y442129D01*
X583252Y442012D01*
X584139Y442129D01*
X584967Y442471D01*
X585677Y443016D01*
X586222Y443726D01*
X586564Y444553D01*
X586681Y445441D01*
X586564Y446329D01*
X586222Y447156D01*
X585677Y447866D01*
X584967Y448411D01*
X584139Y448753D01*
X583252Y448870D01*
D02*
G37*
G36*
X553402D02*
X552514Y448753D01*
X551687Y448411D01*
X550977Y447866D01*
X550432Y447156D01*
X550089Y446329D01*
X549972Y445441D01*
X550089Y444553D01*
X550432Y443726D01*
X550977Y443016D01*
X551687Y442471D01*
X552514Y442129D01*
X553402Y442012D01*
X554289Y442129D01*
X555116Y442471D01*
X555827Y443016D01*
X556371Y443726D01*
X556714Y444553D01*
X556831Y445441D01*
X556714Y446329D01*
X556371Y447156D01*
X555827Y447866D01*
X555116Y448411D01*
X554289Y448753D01*
X553402Y448870D01*
D02*
G37*
G36*
X541598D02*
X540711Y448753D01*
X539884Y448411D01*
X539174Y447866D01*
X538628Y447156D01*
X538286Y446329D01*
X538169Y445441D01*
X538286Y444553D01*
X538628Y443726D01*
X539174Y443016D01*
X539884Y442471D01*
X540711Y442129D01*
X541598Y442012D01*
X542486Y442129D01*
X543313Y442471D01*
X544023Y443016D01*
X544568Y443726D01*
X544911Y444553D01*
X545028Y445441D01*
X544911Y446329D01*
X544568Y447156D01*
X544023Y447866D01*
X543313Y448411D01*
X542486Y448753D01*
X541598Y448870D01*
D02*
G37*
G36*
X512152D02*
X511264Y448753D01*
X510437Y448411D01*
X509727Y447866D01*
X509182Y447156D01*
X508839Y446329D01*
X508722Y445441D01*
X508839Y444553D01*
X509182Y443726D01*
X509727Y443016D01*
X510437Y442471D01*
X511264Y442129D01*
X512152Y442012D01*
X513039Y442129D01*
X513866Y442471D01*
X514576Y443016D01*
X515122Y443726D01*
X515464Y444553D01*
X515581Y445441D01*
X515464Y446329D01*
X515122Y447156D01*
X514576Y447866D01*
X513866Y448411D01*
X513039Y448753D01*
X512152Y448870D01*
D02*
G37*
G36*
X500348D02*
X499461Y448753D01*
X498634Y448411D01*
X497924Y447866D01*
X497378Y447156D01*
X497036Y446329D01*
X496919Y445441D01*
X497036Y444553D01*
X497378Y443726D01*
X497924Y443016D01*
X498634Y442471D01*
X499461Y442129D01*
X500348Y442012D01*
X501236Y442129D01*
X502063Y442471D01*
X502773Y443016D01*
X503318Y443726D01*
X503661Y444553D01*
X503778Y445441D01*
X503661Y446329D01*
X503318Y447156D01*
X502773Y447866D01*
X502063Y448411D01*
X501236Y448753D01*
X500348Y448870D01*
D02*
G37*
G36*
X429652D02*
X428764Y448753D01*
X427937Y448411D01*
X427227Y447866D01*
X426682Y447156D01*
X426339Y446329D01*
X426222Y445441D01*
X426339Y444553D01*
X426682Y443726D01*
X427227Y443016D01*
X427937Y442471D01*
X428764Y442129D01*
X429652Y442012D01*
X430539Y442129D01*
X431366Y442471D01*
X432077Y443016D01*
X432621Y443726D01*
X432964Y444553D01*
X433081Y445441D01*
X432964Y446329D01*
X432621Y447156D01*
X432077Y447866D01*
X431366Y448411D01*
X430539Y448753D01*
X429652Y448870D01*
D02*
G37*
G36*
X417848D02*
X416961Y448753D01*
X416134Y448411D01*
X415423Y447866D01*
X414879Y447156D01*
X414536Y446329D01*
X414419Y445441D01*
X414536Y444553D01*
X414879Y443726D01*
X415423Y443016D01*
X416134Y442471D01*
X416961Y442129D01*
X417848Y442012D01*
X418736Y442129D01*
X419563Y442471D01*
X420273Y443016D01*
X420818Y443726D01*
X421161Y444553D01*
X421278Y445441D01*
X421161Y446329D01*
X420818Y447156D01*
X420273Y447866D01*
X419563Y448411D01*
X418736Y448753D01*
X417848Y448870D01*
D02*
G37*
G36*
X388402D02*
X387514Y448753D01*
X386687Y448411D01*
X385977Y447866D01*
X385432Y447156D01*
X385089Y446329D01*
X384972Y445441D01*
X385089Y444553D01*
X385432Y443726D01*
X385977Y443016D01*
X386687Y442471D01*
X387514Y442129D01*
X388402Y442012D01*
X389289Y442129D01*
X390116Y442471D01*
X390827Y443016D01*
X391371Y443726D01*
X391714Y444553D01*
X391831Y445441D01*
X391714Y446329D01*
X391371Y447156D01*
X390827Y447866D01*
X390116Y448411D01*
X389289Y448753D01*
X388402Y448870D01*
D02*
G37*
G36*
X376598D02*
X375711Y448753D01*
X374884Y448411D01*
X374173Y447866D01*
X373628Y447156D01*
X373286Y446329D01*
X373169Y445441D01*
X373286Y444553D01*
X373628Y443726D01*
X374173Y443016D01*
X374884Y442471D01*
X375711Y442129D01*
X376598Y442012D01*
X377486Y442129D01*
X378313Y442471D01*
X379023Y443016D01*
X379568Y443726D01*
X379911Y444553D01*
X380028Y445441D01*
X379911Y446329D01*
X379568Y447156D01*
X379023Y447866D01*
X378313Y448411D01*
X377486Y448753D01*
X376598Y448870D01*
D02*
G37*
G36*
X347152D02*
X346264Y448753D01*
X345437Y448411D01*
X344727Y447866D01*
X344182Y447156D01*
X343839Y446329D01*
X343722Y445441D01*
X343839Y444553D01*
X344182Y443726D01*
X344727Y443016D01*
X345437Y442471D01*
X346264Y442129D01*
X347152Y442012D01*
X348039Y442129D01*
X348866Y442471D01*
X349576Y443016D01*
X350121Y443726D01*
X350464Y444553D01*
X350581Y445441D01*
X350464Y446329D01*
X350121Y447156D01*
X349576Y447866D01*
X348866Y448411D01*
X348039Y448753D01*
X347152Y448870D01*
D02*
G37*
G36*
X335348D02*
X334461Y448753D01*
X333634Y448411D01*
X332924Y447866D01*
X332379Y447156D01*
X332036Y446329D01*
X331919Y445441D01*
X332036Y444553D01*
X332379Y443726D01*
X332924Y443016D01*
X333634Y442471D01*
X334461Y442129D01*
X335348Y442012D01*
X336236Y442129D01*
X337063Y442471D01*
X337773Y443016D01*
X338318Y443726D01*
X338661Y444553D01*
X338778Y445441D01*
X338661Y446329D01*
X338318Y447156D01*
X337773Y447866D01*
X337063Y448411D01*
X336236Y448753D01*
X335348Y448870D01*
D02*
G37*
G36*
X305902D02*
X305014Y448753D01*
X304187Y448411D01*
X303477Y447866D01*
X302932Y447156D01*
X302589Y446329D01*
X302472Y445441D01*
X302589Y444553D01*
X302932Y443726D01*
X303477Y443016D01*
X304187Y442471D01*
X305014Y442129D01*
X305902Y442012D01*
X306789Y442129D01*
X307616Y442471D01*
X308327Y443016D01*
X308872Y443726D01*
X309214Y444553D01*
X309331Y445441D01*
X309214Y446329D01*
X308872Y447156D01*
X308327Y447866D01*
X307616Y448411D01*
X306789Y448753D01*
X305902Y448870D01*
D02*
G37*
G36*
X294098D02*
X293211Y448753D01*
X292384Y448411D01*
X291673Y447866D01*
X291128Y447156D01*
X290786Y446329D01*
X290669Y445441D01*
X290786Y444553D01*
X291128Y443726D01*
X291673Y443016D01*
X292384Y442471D01*
X293211Y442129D01*
X294098Y442012D01*
X294986Y442129D01*
X295813Y442471D01*
X296523Y443016D01*
X297068Y443726D01*
X297411Y444553D01*
X297528Y445441D01*
X297411Y446329D01*
X297068Y447156D01*
X296523Y447866D01*
X295813Y448411D01*
X294986Y448753D01*
X294098Y448870D01*
D02*
G37*
G36*
X264652D02*
X263764Y448753D01*
X262937Y448411D01*
X262227Y447866D01*
X261682Y447156D01*
X261339Y446329D01*
X261222Y445441D01*
X261339Y444553D01*
X261682Y443726D01*
X262227Y443016D01*
X262937Y442471D01*
X263764Y442129D01*
X264652Y442012D01*
X265539Y442129D01*
X266366Y442471D01*
X267076Y443016D01*
X267621Y443726D01*
X267964Y444553D01*
X268081Y445441D01*
X267964Y446329D01*
X267621Y447156D01*
X267076Y447866D01*
X266366Y448411D01*
X265539Y448753D01*
X264652Y448870D01*
D02*
G37*
G36*
X252848D02*
X251961Y448753D01*
X251134Y448411D01*
X250424Y447866D01*
X249879Y447156D01*
X249536Y446329D01*
X249419Y445441D01*
X249536Y444553D01*
X249879Y443726D01*
X250424Y443016D01*
X251134Y442471D01*
X251961Y442129D01*
X252848Y442012D01*
X253736Y442129D01*
X254563Y442471D01*
X255273Y443016D01*
X255818Y443726D01*
X256161Y444553D01*
X256278Y445441D01*
X256161Y446329D01*
X255818Y447156D01*
X255273Y447866D01*
X254563Y448411D01*
X253736Y448753D01*
X252848Y448870D01*
D02*
G37*
G36*
X223402D02*
X222514Y448753D01*
X221687Y448411D01*
X220977Y447866D01*
X220432Y447156D01*
X220089Y446329D01*
X219972Y445441D01*
X220089Y444553D01*
X220432Y443726D01*
X220977Y443016D01*
X221687Y442471D01*
X222514Y442129D01*
X223402Y442012D01*
X224289Y442129D01*
X225116Y442471D01*
X225827Y443016D01*
X226372Y443726D01*
X226714Y444553D01*
X226831Y445441D01*
X226714Y446329D01*
X226372Y447156D01*
X225827Y447866D01*
X225116Y448411D01*
X224289Y448753D01*
X223402Y448870D01*
D02*
G37*
G36*
X211598D02*
X210711Y448753D01*
X209884Y448411D01*
X209173Y447866D01*
X208629Y447156D01*
X208286Y446329D01*
X208169Y445441D01*
X208286Y444553D01*
X208629Y443726D01*
X209173Y443016D01*
X209884Y442471D01*
X210711Y442129D01*
X211598Y442012D01*
X212486Y442129D01*
X213313Y442471D01*
X214023Y443016D01*
X214568Y443726D01*
X214911Y444553D01*
X215028Y445441D01*
X214911Y446329D01*
X214568Y447156D01*
X214023Y447866D01*
X213313Y448411D01*
X212486Y448753D01*
X211598Y448870D01*
D02*
G37*
G36*
X181890D02*
X181002Y448753D01*
X180175Y448411D01*
X179465Y447866D01*
X178920Y447156D01*
X178577Y446329D01*
X178461Y445441D01*
X178577Y444553D01*
X178920Y443726D01*
X179465Y443016D01*
X180175Y442471D01*
X181002Y442129D01*
X181890Y442012D01*
X182778Y442129D01*
X183605Y442471D01*
X184315Y443016D01*
X184860Y443726D01*
X185203Y444553D01*
X185319Y445441D01*
X185203Y446329D01*
X184860Y447156D01*
X184315Y447866D01*
X183605Y448411D01*
X182778Y448753D01*
X181890Y448870D01*
D02*
G37*
G36*
X450000Y439512D02*
X449422Y439397D01*
X448931Y439069D01*
X448603Y438579D01*
X448488Y438000D01*
X448603Y437422D01*
X448931Y436931D01*
X449422Y436603D01*
X450000Y436488D01*
X450578Y436603D01*
X451069Y436931D01*
X451397Y437422D01*
X451512Y438000D01*
X451397Y438579D01*
X451069Y439069D01*
X450578Y439397D01*
X450000Y439512D01*
D02*
G37*
G36*
X405625Y435828D02*
X405047Y435713D01*
X404556Y435385D01*
X404228Y434895D01*
X404113Y434316D01*
X404228Y433738D01*
X404556Y433247D01*
X405047Y432919D01*
X405625Y432804D01*
X406204Y432919D01*
X406694Y433247D01*
X407022Y433738D01*
X407137Y434316D01*
X407022Y434895D01*
X406694Y435385D01*
X406204Y435713D01*
X405625Y435828D01*
D02*
G37*
G36*
X364375D02*
X363796Y435713D01*
X363306Y435385D01*
X362978Y434895D01*
X362863Y434316D01*
X362978Y433738D01*
X363306Y433247D01*
X363796Y432919D01*
X364375Y432804D01*
X364953Y432919D01*
X365444Y433247D01*
X365772Y433738D01*
X365887Y434316D01*
X365772Y434895D01*
X365444Y435385D01*
X364953Y435713D01*
X364375Y435828D01*
D02*
G37*
G36*
X323125D02*
X322547Y435713D01*
X322056Y435385D01*
X321728Y434895D01*
X321613Y434316D01*
X321728Y433738D01*
X322056Y433247D01*
X322547Y432919D01*
X323125Y432804D01*
X323704Y432919D01*
X324194Y433247D01*
X324522Y433738D01*
X324637Y434316D01*
X324522Y434895D01*
X324194Y435385D01*
X323704Y435713D01*
X323125Y435828D01*
D02*
G37*
G36*
X281875D02*
X281296Y435713D01*
X280806Y435385D01*
X280478Y434895D01*
X280363Y434316D01*
X280478Y433738D01*
X280806Y433247D01*
X281296Y432919D01*
X281875Y432804D01*
X282453Y432919D01*
X282944Y433247D01*
X283272Y433738D01*
X283387Y434316D01*
X283272Y434895D01*
X282944Y435385D01*
X282453Y435713D01*
X281875Y435828D01*
D02*
G37*
G36*
X240625D02*
X240047Y435713D01*
X239556Y435385D01*
X239228Y434895D01*
X239113Y434316D01*
X239228Y433738D01*
X239556Y433247D01*
X240047Y432919D01*
X240625Y432804D01*
X241203Y432919D01*
X241694Y433247D01*
X242022Y433738D01*
X242137Y434316D01*
X242022Y434895D01*
X241694Y435385D01*
X241203Y435713D01*
X240625Y435828D01*
D02*
G37*
G36*
X533750Y435515D02*
X533172Y435400D01*
X532681Y435072D01*
X532353Y434582D01*
X532238Y434003D01*
X532353Y433425D01*
X532681Y432934D01*
X533172Y432606D01*
X533750Y432491D01*
X534329Y432606D01*
X534819Y432934D01*
X535147Y433425D01*
X535262Y434003D01*
X535147Y434582D01*
X534819Y435072D01*
X534329Y435400D01*
X533750Y435515D01*
D02*
G37*
G36*
X482500Y433312D02*
X481921Y433197D01*
X481431Y432869D01*
X481103Y432378D01*
X480988Y431800D01*
X481103Y431221D01*
X481431Y430731D01*
X481921Y430403D01*
X482500Y430288D01*
X483078Y430403D01*
X483569Y430731D01*
X483897Y431221D01*
X484012Y431800D01*
X483897Y432378D01*
X483569Y432869D01*
X483078Y433197D01*
X482500Y433312D01*
D02*
G37*
G36*
X595000Y437071D02*
X594112Y436954D01*
X593285Y436612D01*
X592575Y436067D01*
X592030Y435357D01*
X591687Y434529D01*
X591571Y433642D01*
X591687Y432754D01*
X592030Y431927D01*
X592575Y431217D01*
X593285Y430672D01*
X594112Y430329D01*
X595000Y430212D01*
X595888Y430329D01*
X596715Y430672D01*
X597425Y431217D01*
X597970Y431927D01*
X598313Y432754D01*
X598429Y433642D01*
X598313Y434529D01*
X597970Y435357D01*
X597425Y436067D01*
X596715Y436612D01*
X595888Y436954D01*
X595000Y437071D01*
D02*
G37*
G36*
X583252D02*
X582364Y436954D01*
X581537Y436612D01*
X580827Y436067D01*
X580282Y435357D01*
X579940Y434529D01*
X579823Y433642D01*
X579940Y432754D01*
X580282Y431927D01*
X580827Y431217D01*
X581537Y430672D01*
X582364Y430329D01*
X583252Y430212D01*
X584139Y430329D01*
X584967Y430672D01*
X585677Y431217D01*
X586222Y431927D01*
X586564Y432754D01*
X586681Y433642D01*
X586564Y434529D01*
X586222Y435357D01*
X585677Y436067D01*
X584967Y436612D01*
X584139Y436954D01*
X583252Y437071D01*
D02*
G37*
G36*
X553402D02*
X552514Y436954D01*
X551687Y436612D01*
X550977Y436067D01*
X550432Y435357D01*
X550089Y434529D01*
X549972Y433642D01*
X550089Y432754D01*
X550432Y431927D01*
X550977Y431217D01*
X551687Y430672D01*
X552514Y430329D01*
X553402Y430212D01*
X554289Y430329D01*
X555116Y430672D01*
X555827Y431217D01*
X556371Y431927D01*
X556714Y432754D01*
X556831Y433642D01*
X556714Y434529D01*
X556371Y435357D01*
X555827Y436067D01*
X555116Y436612D01*
X554289Y436954D01*
X553402Y437071D01*
D02*
G37*
G36*
X541598D02*
X540711Y436954D01*
X539884Y436612D01*
X539174Y436067D01*
X538628Y435357D01*
X538286Y434529D01*
X538169Y433642D01*
X538286Y432754D01*
X538628Y431927D01*
X539174Y431217D01*
X539884Y430672D01*
X540711Y430329D01*
X541598Y430212D01*
X542486Y430329D01*
X543313Y430672D01*
X544023Y431217D01*
X544568Y431927D01*
X544911Y432754D01*
X545028Y433642D01*
X544911Y434529D01*
X544568Y435357D01*
X544023Y436067D01*
X543313Y436612D01*
X542486Y436954D01*
X541598Y437071D01*
D02*
G37*
G36*
X512152D02*
X511264Y436954D01*
X510437Y436612D01*
X509727Y436067D01*
X509182Y435357D01*
X508839Y434529D01*
X508722Y433642D01*
X508839Y432754D01*
X509182Y431927D01*
X509727Y431217D01*
X510437Y430672D01*
X511264Y430329D01*
X512152Y430212D01*
X513039Y430329D01*
X513866Y430672D01*
X514576Y431217D01*
X515122Y431927D01*
X515464Y432754D01*
X515581Y433642D01*
X515464Y434529D01*
X515122Y435357D01*
X514576Y436067D01*
X513866Y436612D01*
X513039Y436954D01*
X512152Y437071D01*
D02*
G37*
G36*
X500348D02*
X499461Y436954D01*
X498634Y436612D01*
X497924Y436067D01*
X497378Y435357D01*
X497036Y434529D01*
X496919Y433642D01*
X497036Y432754D01*
X497378Y431927D01*
X497924Y431217D01*
X498634Y430672D01*
X499461Y430329D01*
X500348Y430212D01*
X501236Y430329D01*
X502063Y430672D01*
X502773Y431217D01*
X503318Y431927D01*
X503661Y432754D01*
X503778Y433642D01*
X503661Y434529D01*
X503318Y435357D01*
X502773Y436067D01*
X502063Y436612D01*
X501236Y436954D01*
X500348Y437071D01*
D02*
G37*
G36*
X429652D02*
X428764Y436954D01*
X427937Y436612D01*
X427227Y436067D01*
X426682Y435357D01*
X426339Y434529D01*
X426222Y433642D01*
X426339Y432754D01*
X426682Y431927D01*
X427227Y431217D01*
X427937Y430672D01*
X428764Y430329D01*
X429652Y430212D01*
X430539Y430329D01*
X431366Y430672D01*
X432077Y431217D01*
X432621Y431927D01*
X432964Y432754D01*
X433081Y433642D01*
X432964Y434529D01*
X432621Y435357D01*
X432077Y436067D01*
X431366Y436612D01*
X430539Y436954D01*
X429652Y437071D01*
D02*
G37*
G36*
X417848D02*
X416961Y436954D01*
X416134Y436612D01*
X415423Y436067D01*
X414879Y435357D01*
X414536Y434529D01*
X414419Y433642D01*
X414536Y432754D01*
X414879Y431927D01*
X415423Y431217D01*
X416134Y430672D01*
X416961Y430329D01*
X417848Y430212D01*
X418736Y430329D01*
X419563Y430672D01*
X420273Y431217D01*
X420818Y431927D01*
X421161Y432754D01*
X421278Y433642D01*
X421161Y434529D01*
X420818Y435357D01*
X420273Y436067D01*
X419563Y436612D01*
X418736Y436954D01*
X417848Y437071D01*
D02*
G37*
G36*
X388402D02*
X387514Y436954D01*
X386687Y436612D01*
X385977Y436067D01*
X385432Y435357D01*
X385089Y434529D01*
X384972Y433642D01*
X385089Y432754D01*
X385432Y431927D01*
X385977Y431217D01*
X386687Y430672D01*
X387514Y430329D01*
X388402Y430212D01*
X389289Y430329D01*
X390116Y430672D01*
X390827Y431217D01*
X391371Y431927D01*
X391714Y432754D01*
X391831Y433642D01*
X391714Y434529D01*
X391371Y435357D01*
X390827Y436067D01*
X390116Y436612D01*
X389289Y436954D01*
X388402Y437071D01*
D02*
G37*
G36*
X376598D02*
X375711Y436954D01*
X374884Y436612D01*
X374173Y436067D01*
X373628Y435357D01*
X373286Y434529D01*
X373169Y433642D01*
X373286Y432754D01*
X373628Y431927D01*
X374173Y431217D01*
X374884Y430672D01*
X375711Y430329D01*
X376598Y430212D01*
X377486Y430329D01*
X378313Y430672D01*
X379023Y431217D01*
X379568Y431927D01*
X379911Y432754D01*
X380028Y433642D01*
X379911Y434529D01*
X379568Y435357D01*
X379023Y436067D01*
X378313Y436612D01*
X377486Y436954D01*
X376598Y437071D01*
D02*
G37*
G36*
X347152D02*
X346264Y436954D01*
X345437Y436612D01*
X344727Y436067D01*
X344182Y435357D01*
X343839Y434529D01*
X343722Y433642D01*
X343839Y432754D01*
X344182Y431927D01*
X344727Y431217D01*
X345437Y430672D01*
X346264Y430329D01*
X347152Y430212D01*
X348039Y430329D01*
X348866Y430672D01*
X349576Y431217D01*
X350121Y431927D01*
X350464Y432754D01*
X350581Y433642D01*
X350464Y434529D01*
X350121Y435357D01*
X349576Y436067D01*
X348866Y436612D01*
X348039Y436954D01*
X347152Y437071D01*
D02*
G37*
G36*
X335348D02*
X334461Y436954D01*
X333634Y436612D01*
X332924Y436067D01*
X332379Y435357D01*
X332036Y434529D01*
X331919Y433642D01*
X332036Y432754D01*
X332379Y431927D01*
X332924Y431217D01*
X333634Y430672D01*
X334461Y430329D01*
X335348Y430212D01*
X336236Y430329D01*
X337063Y430672D01*
X337773Y431217D01*
X338318Y431927D01*
X338661Y432754D01*
X338778Y433642D01*
X338661Y434529D01*
X338318Y435357D01*
X337773Y436067D01*
X337063Y436612D01*
X336236Y436954D01*
X335348Y437071D01*
D02*
G37*
G36*
X305902D02*
X305014Y436954D01*
X304187Y436612D01*
X303477Y436067D01*
X302932Y435357D01*
X302589Y434529D01*
X302472Y433642D01*
X302589Y432754D01*
X302932Y431927D01*
X303477Y431217D01*
X304187Y430672D01*
X305014Y430329D01*
X305902Y430212D01*
X306789Y430329D01*
X307616Y430672D01*
X308327Y431217D01*
X308872Y431927D01*
X309214Y432754D01*
X309331Y433642D01*
X309214Y434529D01*
X308872Y435357D01*
X308327Y436067D01*
X307616Y436612D01*
X306789Y436954D01*
X305902Y437071D01*
D02*
G37*
G36*
X294098D02*
X293211Y436954D01*
X292384Y436612D01*
X291673Y436067D01*
X291128Y435357D01*
X290786Y434529D01*
X290669Y433642D01*
X290786Y432754D01*
X291128Y431927D01*
X291673Y431217D01*
X292384Y430672D01*
X293211Y430329D01*
X294098Y430212D01*
X294986Y430329D01*
X295813Y430672D01*
X296523Y431217D01*
X297068Y431927D01*
X297411Y432754D01*
X297528Y433642D01*
X297411Y434529D01*
X297068Y435357D01*
X296523Y436067D01*
X295813Y436612D01*
X294986Y436954D01*
X294098Y437071D01*
D02*
G37*
G36*
X264652D02*
X263764Y436954D01*
X262937Y436612D01*
X262227Y436067D01*
X261682Y435357D01*
X261339Y434529D01*
X261222Y433642D01*
X261339Y432754D01*
X261682Y431927D01*
X262227Y431217D01*
X262937Y430672D01*
X263764Y430329D01*
X264652Y430212D01*
X265539Y430329D01*
X266366Y430672D01*
X267076Y431217D01*
X267621Y431927D01*
X267964Y432754D01*
X268081Y433642D01*
X267964Y434529D01*
X267621Y435357D01*
X267076Y436067D01*
X266366Y436612D01*
X265539Y436954D01*
X264652Y437071D01*
D02*
G37*
G36*
X252848D02*
X251961Y436954D01*
X251134Y436612D01*
X250424Y436067D01*
X249879Y435357D01*
X249536Y434529D01*
X249419Y433642D01*
X249536Y432754D01*
X249879Y431927D01*
X250424Y431217D01*
X251134Y430672D01*
X251961Y430329D01*
X252848Y430212D01*
X253736Y430329D01*
X254563Y430672D01*
X255273Y431217D01*
X255818Y431927D01*
X256161Y432754D01*
X256278Y433642D01*
X256161Y434529D01*
X255818Y435357D01*
X255273Y436067D01*
X254563Y436612D01*
X253736Y436954D01*
X252848Y437071D01*
D02*
G37*
G36*
X223402D02*
X222514Y436954D01*
X221687Y436612D01*
X220977Y436067D01*
X220432Y435357D01*
X220089Y434529D01*
X219972Y433642D01*
X220089Y432754D01*
X220432Y431927D01*
X220977Y431217D01*
X221687Y430672D01*
X222514Y430329D01*
X223402Y430212D01*
X224289Y430329D01*
X225116Y430672D01*
X225827Y431217D01*
X226372Y431927D01*
X226714Y432754D01*
X226831Y433642D01*
X226714Y434529D01*
X226372Y435357D01*
X225827Y436067D01*
X225116Y436612D01*
X224289Y436954D01*
X223402Y437071D01*
D02*
G37*
G36*
X211598D02*
X210711Y436954D01*
X209884Y436612D01*
X209173Y436067D01*
X208629Y435357D01*
X208286Y434529D01*
X208169Y433642D01*
X208286Y432754D01*
X208629Y431927D01*
X209173Y431217D01*
X209884Y430672D01*
X210711Y430329D01*
X211598Y430212D01*
X212486Y430329D01*
X213313Y430672D01*
X214023Y431217D01*
X214568Y431927D01*
X214911Y432754D01*
X215028Y433642D01*
X214911Y434529D01*
X214568Y435357D01*
X214023Y436067D01*
X213313Y436612D01*
X212486Y436954D01*
X211598Y437071D01*
D02*
G37*
G36*
X181890D02*
X181002Y436954D01*
X180175Y436612D01*
X179465Y436067D01*
X178920Y435357D01*
X178577Y434529D01*
X178461Y433642D01*
X178577Y432754D01*
X178920Y431927D01*
X179465Y431217D01*
X180175Y430672D01*
X181002Y430329D01*
X181890Y430212D01*
X182778Y430329D01*
X183605Y430672D01*
X184315Y431217D01*
X184860Y431927D01*
X185203Y432754D01*
X185319Y433642D01*
X185203Y434529D01*
X184860Y435357D01*
X184315Y436067D01*
X183605Y436612D01*
X182778Y436954D01*
X181890Y437071D01*
D02*
G37*
G36*
X177500Y375828D02*
X176921Y375713D01*
X176431Y375385D01*
X176103Y374894D01*
X175988Y374316D01*
X176103Y373738D01*
X176431Y373247D01*
X176921Y372919D01*
X177500Y372804D01*
X178078Y372919D01*
X178569Y373247D01*
X178897Y373738D01*
X179012Y374316D01*
X178897Y374894D01*
X178569Y375385D01*
X178078Y375713D01*
X177500Y375828D01*
D02*
G37*
G36*
X173750D02*
X173171Y375713D01*
X172681Y375385D01*
X172353Y374894D01*
X172238Y374316D01*
X172353Y373738D01*
X172681Y373247D01*
X173171Y372919D01*
X173750Y372804D01*
X174328Y372919D01*
X174819Y373247D01*
X175147Y373738D01*
X175262Y374316D01*
X175147Y374894D01*
X174819Y375385D01*
X174328Y375713D01*
X173750Y375828D01*
D02*
G37*
G36*
X177500Y368953D02*
X176921Y368838D01*
X176431Y368510D01*
X176103Y368020D01*
X175988Y367441D01*
X176103Y366863D01*
X176431Y366372D01*
X176921Y366044D01*
X177500Y365929D01*
X178078Y366044D01*
X178569Y366372D01*
X178897Y366863D01*
X179012Y367441D01*
X178897Y368020D01*
X178569Y368510D01*
X178078Y368838D01*
X177500Y368953D01*
D02*
G37*
G36*
X173750D02*
X173171Y368838D01*
X172681Y368510D01*
X172353Y368020D01*
X172238Y367441D01*
X172353Y366863D01*
X172681Y366372D01*
X173171Y366044D01*
X173750Y365929D01*
X174328Y366044D01*
X174819Y366372D01*
X175147Y366863D01*
X175262Y367441D01*
X175147Y368020D01*
X174819Y368510D01*
X174328Y368838D01*
X173750Y368953D01*
D02*
G37*
G36*
X186250Y362078D02*
X185671Y361963D01*
X185181Y361635D01*
X184853Y361144D01*
X184738Y360566D01*
X184853Y359987D01*
X185181Y359497D01*
X185671Y359169D01*
X186250Y359054D01*
X186828Y359169D01*
X187319Y359497D01*
X187647Y359987D01*
X187762Y360566D01*
X187647Y361144D01*
X187319Y361635D01*
X186828Y361963D01*
X186250Y362078D01*
D02*
G37*
G36*
X302700Y70259D02*
X301942D01*
X301841Y70250D01*
X301762Y70245D01*
X301693Y70236D01*
X301642Y70227D01*
X301610Y70222D01*
X301587Y70213D01*
X301582D01*
X301531Y70195D01*
X301485Y70167D01*
X301448Y70139D01*
X301416Y70111D01*
X301393Y70088D01*
X301374Y70065D01*
X301365Y70051D01*
X301360Y70047D01*
X301332Y70000D01*
X301314Y69954D01*
X301300Y69908D01*
X301291Y69862D01*
X301286Y69825D01*
X301282Y69797D01*
Y69779D01*
Y69770D01*
X301286Y69709D01*
X301295Y69654D01*
X301309Y69608D01*
X301323Y69571D01*
X301337Y69538D01*
X301351Y69511D01*
X301360Y69497D01*
X301365Y69492D01*
X301397Y69455D01*
X301439Y69418D01*
X301480Y69391D01*
X301517Y69372D01*
X301554Y69354D01*
X301582Y69340D01*
X301600Y69335D01*
X301610Y69331D01*
X301660Y69321D01*
X301725Y69312D01*
X301790Y69308D01*
X301854Y69303D01*
X301915Y69298D01*
X302700D01*
Y70259D01*
D02*
G37*
G36*
Y68919D02*
X301859D01*
X301762Y68910D01*
X301684Y68901D01*
X301619Y68892D01*
X301568Y68882D01*
X301526Y68873D01*
X301508Y68869D01*
X301499Y68864D01*
X301439Y68841D01*
X301388Y68813D01*
X301342Y68781D01*
X301305Y68748D01*
X301277Y68721D01*
X301258Y68698D01*
X301245Y68679D01*
X301240Y68674D01*
X301208Y68624D01*
X301185Y68573D01*
X301166Y68522D01*
X301157Y68476D01*
X301148Y68434D01*
X301143Y68397D01*
Y68379D01*
Y68370D01*
X301148Y68314D01*
X301152Y68259D01*
X301162Y68212D01*
X301175Y68176D01*
X301189Y68143D01*
X301199Y68116D01*
X301203Y68102D01*
X301208Y68097D01*
X301235Y68055D01*
X301258Y68019D01*
X301291Y67991D01*
X301314Y67963D01*
X301337Y67945D01*
X301356Y67931D01*
X301369Y67922D01*
X301374Y67917D01*
X301453Y67880D01*
X301531Y67852D01*
X301563Y67843D01*
X301591Y67838D01*
X301610Y67834D01*
X301614D01*
X301651Y67829D01*
X301693Y67825D01*
X301790Y67820D01*
X302700D01*
Y68919D01*
D02*
G37*
G36*
X298768Y70328D02*
X298727D01*
X298611Y70324D01*
X298500Y70305D01*
X298403Y70278D01*
X298320Y70250D01*
X298251Y70218D01*
X298223Y70204D01*
X298200Y70195D01*
X298177Y70181D01*
X298163Y70176D01*
X298159Y70167D01*
X298154D01*
X298066Y70102D01*
X297988Y70028D01*
X297918Y69954D01*
X297863Y69880D01*
X297821Y69816D01*
X297789Y69760D01*
X297780Y69742D01*
X297770Y69728D01*
X297766Y69719D01*
Y69714D01*
X297720Y69603D01*
X297687Y69483D01*
X297664Y69372D01*
X297650Y69266D01*
X297641Y69215D01*
X297636Y69174D01*
Y69132D01*
X297632Y69100D01*
Y69072D01*
Y69053D01*
Y69039D01*
Y69035D01*
X297636Y68924D01*
X297646Y68818D01*
X297659Y68716D01*
X297678Y68624D01*
X297706Y68541D01*
X297729Y68462D01*
X297757Y68388D01*
X297784Y68323D01*
X297817Y68268D01*
X297844Y68217D01*
X297867Y68176D01*
X297890Y68143D01*
X297914Y68116D01*
X297927Y68092D01*
X297937Y68083D01*
X297941Y68079D01*
X298001Y68019D01*
X298066Y67968D01*
X298131Y67926D01*
X298196Y67884D01*
X298260Y67852D01*
X298329Y67829D01*
X298390Y67806D01*
X298454Y67787D01*
X298510Y67774D01*
X298565Y67764D01*
X298611Y67755D01*
X298653Y67751D01*
X298685D01*
X298708Y67746D01*
X298731D01*
X298819Y67751D01*
X298902Y67760D01*
X298976Y67778D01*
X299050Y67797D01*
X299119Y67825D01*
X299184Y67852D01*
X299244Y67880D01*
X299300Y67912D01*
X299346Y67945D01*
X299387Y67972D01*
X299424Y68000D01*
X299457Y68028D01*
X299480Y68046D01*
X299498Y68065D01*
X299507Y68074D01*
X299512Y68079D01*
X299568Y68143D01*
X299614Y68212D01*
X299655Y68287D01*
X299692Y68360D01*
X299720Y68439D01*
X299748Y68513D01*
X299785Y68661D01*
X299794Y68725D01*
X299803Y68790D01*
X299813Y68845D01*
X299817Y68892D01*
X299822Y68933D01*
Y68966D01*
Y68984D01*
Y68989D01*
X299817Y69118D01*
X299808Y69238D01*
X299794Y69354D01*
X299771Y69455D01*
X299748Y69548D01*
X299720Y69631D01*
X299688Y69709D01*
X299660Y69774D01*
X299628Y69834D01*
X299600Y69885D01*
X299572Y69927D01*
X299549Y69959D01*
X299526Y69987D01*
X299512Y70005D01*
X299503Y70014D01*
X299498Y70019D01*
X299438Y70074D01*
X299374Y70121D01*
X299309Y70162D01*
X299240Y70199D01*
X299175Y70227D01*
X299110Y70255D01*
X298990Y70292D01*
X298935Y70301D01*
X298884Y70310D01*
X298842Y70319D01*
X298801Y70324D01*
X298768Y70328D01*
D02*
G37*
%LPD*%
D17*
X585177Y61816D02*
Y66816D01*
X580177Y56816D02*
X585177D01*
X580177Y66816D02*
X585177D01*
X580177Y61816D02*
Y66816D01*
Y61816D02*
X585177D01*
Y66816D02*
Y71816D01*
Y56816D02*
Y61816D01*
Y51816D02*
Y56816D01*
X580177Y66816D02*
Y71816D01*
Y56816D02*
Y61816D01*
Y51816D02*
Y56816D01*
Y51816D02*
X585177D01*
X580177Y71816D02*
X585177D01*
X189500Y286500D02*
X189798D01*
X202488Y273810D01*
X364632Y423900D02*
X374216Y414316D01*
X391250D01*
X181250Y276287D02*
X190097Y267441D01*
X210625D01*
X178000Y283391D02*
X179518Y284909D01*
X178000Y270000D02*
Y283391D01*
Y270000D02*
X180921Y267079D01*
X183317D01*
X183750Y281810D02*
X187500Y278060D01*
Y272775D02*
Y278060D01*
Y272775D02*
X190345Y269931D01*
X382500Y275000D02*
X382750Y274750D01*
X401250D01*
X202488Y273810D02*
X202713D01*
X190345Y269931D02*
X194055D01*
X179518Y284909D02*
Y286783D01*
X446875Y419316D02*
Y423691D01*
X443125Y414941D02*
X446875Y419316D01*
X398750Y414941D02*
X443125D01*
X397500Y413691D02*
X398750Y414941D01*
X397500Y327441D02*
Y413691D01*
X405625Y418066D02*
Y424941D01*
X404375Y416816D02*
X405625Y418066D01*
X397500Y416816D02*
X404375D01*
X395625Y414941D02*
X397500Y416816D01*
X395625Y335566D02*
Y414941D01*
X394375Y334316D02*
X395625Y335566D01*
X394375Y325566D02*
Y334316D01*
Y325566D02*
X397500Y322441D01*
X391250Y414316D02*
X393750Y411816D01*
Y339941D02*
Y411816D01*
X393125Y339316D02*
X393750Y339941D01*
X296875Y378066D02*
X297500Y377441D01*
X285000Y378066D02*
X296875D01*
X283750Y379316D02*
X285000Y378066D01*
X283750Y379316D02*
Y421816D01*
X287500Y425566D01*
X323125D01*
X297500Y325566D02*
X300625Y322441D01*
X297500Y325566D02*
Y334316D01*
X295625Y374316D02*
X300625D01*
X293750Y376191D02*
X295625Y374316D01*
X283750Y376191D02*
X293750D01*
X281875Y378066D02*
X283750Y376191D01*
X281875Y378066D02*
Y424941D01*
X295000Y371816D02*
X303125D01*
X292500Y374316D02*
X295000Y371816D01*
X282500Y374316D02*
X292500D01*
X280000Y376816D02*
X282500Y374316D01*
X280000Y376816D02*
Y421816D01*
X276250Y425566D02*
X280000Y421816D01*
X240625Y425566D02*
X276250D01*
X369375Y358066D02*
X370000D01*
X366250Y354941D02*
X369375Y358066D01*
X285625Y274316D02*
X286250Y273691D01*
X303750D01*
X293750Y354941D02*
X366250D01*
X225000Y357441D02*
X296875D01*
X298125Y358691D01*
X315625Y376816D01*
X365000D01*
X369375Y381191D01*
Y396531D01*
X183750Y281810D02*
Y296191D01*
D147*
X143086Y462441D02*
D03*
X77386D02*
D03*
X595000D02*
D03*
X423750D02*
D03*
X181890D02*
D03*
X506250D02*
D03*
X547500D02*
D03*
X217500D02*
D03*
X258750D02*
D03*
X300000D02*
D03*
X341250D02*
D03*
X382500D02*
D03*
D150*
X101597Y139500D02*
X108288Y146191D01*
X54500Y139500D02*
X101597D01*
X52500Y137500D02*
X54500Y139500D01*
X108183Y136183D02*
X113183D01*
X106000Y134000D02*
X108183Y136183D01*
X458375Y44956D02*
Y79625D01*
X454692Y83308D02*
X458375Y79625D01*
X454692Y83308D02*
Y86508D01*
X456875Y88691D01*
X146875Y86191D02*
X147808Y87124D01*
Y103032D01*
X128091Y122749D02*
X147808Y103032D01*
X109749Y122749D02*
X128091D01*
X109500Y122500D02*
X109749Y122749D01*
X111697Y131697D02*
X112784D01*
X110000Y130000D02*
X111697Y131697D01*
X125625Y144538D02*
Y169316D01*
X112784Y131697D02*
X125625Y144538D01*
X113183Y136183D02*
X120500Y143500D01*
X110007Y134000D02*
X112000D01*
X109507Y133500D02*
X110007Y134000D01*
X67500Y137000D02*
X67683Y136817D01*
Y98096D02*
Y136817D01*
X66500Y137000D02*
X67500D01*
X38125Y114941D02*
X49559D01*
X65500Y99000D01*
X60153Y90566D02*
X67683Y98096D01*
X51250Y90566D02*
X60153D01*
X85317Y77749D02*
X89375Y73691D01*
X67183Y77749D02*
X85317D01*
X65625Y76191D02*
X67183Y77749D01*
X66500Y79941D02*
X102500D01*
X525625Y181816D02*
X527000Y180441D01*
Y165000D02*
Y180441D01*
X507192Y167394D02*
X510625Y163962D01*
X507808Y200287D02*
Y202749D01*
X508125Y203066D01*
X507192Y199672D02*
X507808Y200287D01*
X507192Y167394D02*
Y199672D01*
X446500Y133441D02*
X448433Y131508D01*
X446500Y133441D02*
Y137000D01*
X371500Y121441D02*
Y126087D01*
X369087Y128500D02*
X371500Y126087D01*
X368543Y128500D02*
X369087D01*
X372941Y187000D02*
X376875Y183066D01*
X351500Y187000D02*
X372941D01*
X348500Y188441D02*
Y189000D01*
X345000Y184941D02*
X348500Y188441D01*
X368316Y201000D02*
X371250Y198066D01*
X330434Y201000D02*
X368316D01*
X325625Y196191D02*
X330434Y201000D01*
X329731Y202172D02*
X370894D01*
X323125Y195566D02*
X329731Y202172D01*
X370894D02*
X376250Y196816D01*
X340000Y207000D02*
X367941D01*
X336383Y203383D02*
X340000Y207000D01*
X327192Y203383D02*
X336383D01*
X367941Y207000D02*
X375625Y199316D01*
X365942Y209633D02*
X366250Y209941D01*
X359058Y209633D02*
X365942D01*
X358125Y210566D02*
X359058Y209633D01*
X356175Y208316D02*
X366039D01*
X354375Y210566D02*
X356175Y208316D01*
X366039D02*
X366414Y208691D01*
X323125Y199316D02*
X327192Y203383D01*
X325625Y125566D02*
Y196191D01*
X398184Y227500D02*
X401250Y230566D01*
X336309Y227500D02*
X398184D01*
X331250Y222441D02*
X336309Y227500D01*
X399059Y226500D02*
X402125Y229566D01*
X339059Y226500D02*
X399059D01*
X335000Y222441D02*
X339059Y226500D01*
X492808Y290287D02*
Y297133D01*
X490625Y299316D02*
X492808Y297133D01*
X491625Y289104D02*
X492808Y290287D01*
X491625Y244066D02*
Y289104D01*
X486875Y239316D02*
X491625Y244066D01*
X472000Y227430D02*
X474070Y229500D01*
X472000Y204586D02*
Y227430D01*
X450849Y183435D02*
X472000Y204586D01*
X450849Y181220D02*
Y183435D01*
X445717Y179717D02*
X471000Y205000D01*
X444067Y165874D02*
Y179566D01*
X443067Y164999D02*
Y179981D01*
X444067Y179566D02*
X470000Y205499D01*
X443067Y179981D02*
X469000Y205913D01*
X443067Y164999D02*
X445000Y163066D01*
X444067Y165874D02*
X446250Y163691D01*
X471000Y205000D02*
Y229808D01*
X480508Y239316D01*
X445717Y167349D02*
Y179717D01*
X470000Y205499D02*
Y230223D01*
X469000Y205913D02*
Y230637D01*
X440375Y192778D02*
X451597Y204000D01*
X464000D01*
X466948Y186000D02*
X474146D01*
X477808Y189662D01*
Y230036D01*
X477447Y230397D02*
X477808Y230036D01*
X471867Y176811D02*
X479383D01*
X451311Y177811D02*
X481189D01*
X485000Y174000D01*
X451000Y177500D02*
X451311Y177811D01*
X479383Y176811D02*
X482500Y173694D01*
X470056Y175000D02*
X471867Y176811D01*
X429683Y50182D02*
Y195587D01*
X428500Y48999D02*
X429683Y50182D01*
X428500Y37500D02*
Y48999D01*
X476496Y10748D02*
Y10763D01*
X426317Y48230D02*
X428683Y50596D01*
X426317Y36596D02*
Y48230D01*
X428683Y50596D02*
Y195173D01*
X428913Y34000D02*
X451073D01*
X426317Y36596D02*
X428913Y34000D01*
X418000Y36979D02*
X422479Y32500D01*
X423500Y52854D02*
X424683Y54037D01*
X423500Y35000D02*
Y52854D01*
X418000Y36979D02*
Y100500D01*
X422479Y32500D02*
X450538D01*
X416750Y36336D02*
X425077Y28008D01*
X416750Y36336D02*
Y99441D01*
X425077Y28008D02*
X440653D01*
X424683Y55709D02*
X426621Y57648D01*
X424683Y54037D02*
Y55709D01*
X436625Y47691D02*
X437808Y46508D01*
Y39633D02*
Y46508D01*
Y39633D02*
X440000Y37441D01*
X433317Y42346D02*
X439222Y36441D01*
X433317Y42346D02*
Y183719D01*
X439222Y36441D02*
X451461D01*
X432317Y41932D02*
Y184133D01*
Y41932D02*
X434000Y40249D01*
X431317Y37096D02*
Y202063D01*
Y37096D02*
X433413Y35000D01*
X451488D01*
X431317Y202063D02*
X431847Y202592D01*
X434000Y37500D02*
Y40249D01*
X451073Y34000D02*
X456882Y28191D01*
X451488Y35000D02*
X457297Y29191D01*
X440653Y28008D02*
X447913Y20748D01*
X429000Y364000D02*
Y383500D01*
X424316Y359316D02*
X429000Y364000D01*
X416875Y359316D02*
X424316D01*
X482500Y139941D02*
Y173694D01*
X448000Y175000D02*
X470056D01*
X480625Y134941D02*
Y151153D01*
X460778Y171000D02*
X480625Y151153D01*
X448000Y171000D02*
X460778D01*
X470000Y230223D02*
X480093Y240316D01*
X469000Y230637D02*
X479679Y241316D01*
X440375Y190777D02*
Y192778D01*
X434375Y194316D02*
Y204316D01*
X437500Y207441D01*
X446875D01*
X426621Y57648D02*
Y191879D01*
X416250Y202250D02*
X426621Y191879D01*
X416250Y202250D02*
Y203691D01*
X441683Y216596D02*
Y218883D01*
X435028Y209941D02*
X441683Y216596D01*
X366250Y209941D02*
X435028D01*
X361875Y211816D02*
X433816D01*
X439500Y217500D01*
X440000Y220566D02*
X441683Y218883D01*
X415750Y32547D02*
X427731Y20566D01*
X415750Y32547D02*
Y98007D01*
X414404Y99353D02*
X415750Y98007D01*
X413751Y99353D02*
X414404D01*
X411250Y101854D02*
X413751Y99353D01*
X411250Y101854D02*
Y104941D01*
X418000Y100500D02*
X419000Y101500D01*
X418750Y104837D02*
X421183Y102404D01*
X419000Y98413D02*
X421183Y100596D01*
X419000Y39066D02*
Y98413D01*
X418750Y104837D02*
Y105566D01*
X419000Y39066D02*
X420625Y37441D01*
X421183Y100596D02*
Y102404D01*
X413750Y102441D02*
X416750Y99441D01*
X422500Y54941D02*
X425621Y58062D01*
Y114945D01*
X421500Y119066D02*
X425621Y114945D01*
X427621Y57233D02*
Y194820D01*
X426500Y56113D02*
X427621Y57233D01*
X420625Y201816D02*
X427621Y194820D01*
X425470Y198385D02*
X428683Y195173D01*
X428500Y196769D02*
X429683Y195587D01*
X432317Y184133D02*
X439375Y191191D01*
X433317Y183719D02*
X440375Y190777D01*
X434317Y182383D02*
X447500Y195566D01*
X434317Y54597D02*
Y182383D01*
Y54597D02*
X435625Y53289D01*
X435317Y181009D02*
X444249Y189941D01*
X435317Y55011D02*
Y181009D01*
Y55011D02*
X436625Y53703D01*
X444249Y189941D02*
X445000D01*
X436317Y180595D02*
X441913Y186191D01*
X436317Y55425D02*
Y180595D01*
Y55425D02*
X437625Y54118D01*
X441913Y186191D02*
X445000D01*
X421500Y119066D02*
Y120500D01*
X415000Y189941D02*
X417000Y187941D01*
Y122000D02*
Y187941D01*
X414375Y180566D02*
X414500Y180441D01*
Y124500D02*
Y180441D01*
X412317Y120183D02*
Y171374D01*
Y120183D02*
X415500Y117000D01*
X411875Y171816D02*
X412317Y171374D01*
X441500Y121500D02*
X446000Y117000D01*
X441500Y121500D02*
Y160816D01*
X442500Y161816D01*
X448433Y117594D02*
Y131508D01*
Y117594D02*
X451875Y114152D01*
X449433Y118008D02*
Y131922D01*
Y118008D02*
X454375Y113066D01*
X449000Y132355D02*
X449433Y131922D01*
X450000Y132769D02*
X450433Y132337D01*
Y118883D02*
Y132337D01*
Y118883D02*
X455625Y113691D01*
X38125Y367441D02*
X42741D01*
X44435Y371700D02*
X47500Y368635D01*
X42741Y367441D02*
X43800Y368500D01*
X47500Y365566D02*
Y368635D01*
X40100Y371700D02*
X44435D01*
X109000Y127000D02*
X113934D01*
X543750Y395150D02*
X544300Y395700D01*
X543750Y296191D02*
Y395150D01*
X254375Y246191D02*
X354375D01*
X252500Y248066D02*
X254375Y246191D01*
X354375D02*
X356875Y243691D01*
X220000Y36191D02*
X228750Y27441D01*
X220000Y36191D02*
Y53066D01*
X228750Y27441D02*
X230000D01*
X104375Y61191D02*
Y75566D01*
Y61191D02*
X110625Y54941D01*
X101875Y78066D02*
X104375Y75566D01*
X223125Y172441D02*
Y201189D01*
X222498Y201816D02*
X223125Y201189D01*
X218125Y201816D02*
X222498D01*
X27500Y167441D02*
Y169844D01*
X26675Y170669D02*
X27500Y169844D01*
X22559Y170669D02*
X26675D01*
X180433Y125566D02*
X197500D01*
X180039Y125172D02*
X180433Y125566D01*
X180039Y120669D02*
Y125172D01*
X447500Y195566D02*
Y196816D01*
X479679Y241316D02*
X485929D01*
X489557Y244943D02*
Y260384D01*
X485929Y241316D02*
X489557Y244943D01*
X485625Y264316D02*
X489557Y260384D01*
X490625Y244480D02*
Y291191D01*
X486461Y240316D02*
X490625Y244480D01*
X480093Y240316D02*
X486461D01*
X480508Y239316D02*
X486875D01*
X505625Y165875D02*
X507500Y164000D01*
X505625Y165875D02*
Y201191D01*
X510625Y163066D02*
Y163962D01*
X422500Y83690D02*
X423438Y84628D01*
X422500Y67441D02*
Y83690D01*
X420000Y61816D02*
X421250Y60566D01*
X420000Y86191D02*
X421250Y87441D01*
X439625Y229566D02*
X441250Y231191D01*
X402125Y229566D02*
X439625D01*
X363750Y153066D02*
X366875D01*
X355625Y144941D02*
X363750Y153066D01*
X354375Y50566D02*
Y148691D01*
Y50566D02*
X356875Y48066D01*
X354375Y148691D02*
X361684Y156000D01*
X353125Y44941D02*
Y156191D01*
Y44941D02*
X355000Y43066D01*
X351875Y25566D02*
Y151816D01*
Y25566D02*
X354375Y23066D01*
X350625Y153066D02*
X351875Y151816D01*
X350625Y22042D02*
Y151191D01*
X349331Y20748D02*
X350625Y22042D01*
X349375Y152441D02*
X350625Y151191D01*
X361684Y156000D02*
X366000D01*
X368500Y154691D02*
Y159500D01*
X366875Y153066D02*
X368500Y154691D01*
X327000Y134666D02*
X334375Y140566D01*
X327000Y125000D02*
Y134666D01*
X323816Y121816D02*
X327000Y125000D01*
X270625Y121816D02*
X323816D01*
X400992Y235933D02*
Y243324D01*
X299331Y10748D02*
X299557D01*
X32397Y120669D02*
X38125Y114941D01*
X92520Y445320D02*
X92633Y445433D01*
X104331Y445256D02*
X104508Y445433D01*
X232500Y179941D02*
X270625D01*
X228125Y184941D02*
X232500Y179941D01*
X270625D02*
X272500Y181816D01*
X52000Y137500D02*
X52500D01*
X72500Y91500D02*
X90500D01*
X453125Y15960D02*
Y29698D01*
X450538Y32500D02*
X453125Y29698D01*
X451461Y36441D02*
X457711Y30191D01*
X466309Y28191D02*
X470500Y24000D01*
X456882Y28191D02*
X466309D01*
X470500Y16759D02*
Y24000D01*
Y16759D02*
X476496Y10763D01*
X472956Y29191D02*
X486504Y15643D01*
X457297Y29191D02*
X472956D01*
X486625Y30191D02*
X491250Y25566D01*
X457711Y30191D02*
X486625D01*
X566875Y21127D02*
Y35625D01*
X558559Y43941D02*
X566875Y35625D01*
X466461Y43941D02*
X558559D01*
X556875Y21127D02*
Y28125D01*
X543059Y41941D02*
X556875Y28125D01*
X465632Y41941D02*
X543059D01*
X536875Y21127D02*
Y29625D01*
X526559Y39941D02*
X536875Y29625D01*
X464804Y39941D02*
X526559D01*
X519750Y38941D02*
X531250Y27441D01*
X464390Y38941D02*
X519750D01*
X458375Y44956D02*
X464390Y38941D01*
X459375Y45370D02*
X464804Y39941D01*
X456875Y84941D02*
X459375Y82441D01*
Y45370D02*
Y82441D01*
X533375Y40941D02*
X541875Y32441D01*
X465218Y40941D02*
X533375D01*
X460375Y45784D02*
X465218Y40941D01*
X552625Y42941D02*
X561500Y34066D01*
Y15752D02*
Y34066D01*
X556504Y10756D02*
X561500Y15752D01*
X461375Y46198D02*
X465632Y41941D01*
X466047Y42941D02*
X552625D01*
X462375Y46613D02*
X466047Y42941D01*
X463375Y47027D02*
X466461Y43941D01*
X463375Y47027D02*
Y109730D01*
X460375Y110973D02*
X461250Y111848D01*
X460375Y45784D02*
Y110973D01*
X461375Y110559D02*
X465125Y114309D01*
X461375Y46198D02*
Y110559D01*
X462375Y110144D02*
X466125Y113894D01*
X462375Y46613D02*
Y110144D01*
X463375Y109730D02*
X467125Y113480D01*
X461250Y111848D02*
Y115566D01*
X463125Y121191D02*
X465125Y119191D01*
Y114309D02*
Y119191D01*
X466125Y113894D02*
Y120691D01*
X467125Y113480D02*
Y121566D01*
X463750Y123066D02*
X466125Y120691D01*
X466250Y122441D02*
X467125Y121566D01*
X371250Y36191D02*
X372500Y34941D01*
X371250Y36191D02*
Y113691D01*
X428500Y196769D02*
Y203000D01*
X425470Y198385D02*
Y203500D01*
X441875Y54316D02*
Y55625D01*
X438500Y59000D02*
X441875Y55625D01*
X437625Y49191D02*
Y54118D01*
Y49191D02*
X440000Y46816D01*
X436625Y47691D02*
Y53703D01*
X435625Y43125D02*
Y53289D01*
X426500Y51500D02*
Y56113D01*
X451875Y100566D02*
Y114152D01*
X447500Y153691D02*
X450000Y151191D01*
Y132769D02*
Y151191D01*
X447500Y148066D02*
X449000Y146566D01*
Y132355D02*
Y146566D01*
X452500Y125566D02*
X456875Y121191D01*
X452500Y125566D02*
Y137500D01*
X485000Y161503D02*
Y174000D01*
X445717Y167349D02*
X446250Y166816D01*
X363750Y116519D02*
X367500Y120269D01*
X363750Y25566D02*
Y116519D01*
X367500Y120269D02*
Y122500D01*
X366250Y116191D02*
X371500Y121441D01*
X365000Y116355D02*
X370500Y121855D01*
X365000Y16417D02*
Y116355D01*
X370500Y121855D02*
Y124000D01*
X369000Y125500D02*
X370500Y124000D01*
X536504Y10756D02*
X541875Y16127D01*
X536496Y10748D02*
X536504Y10756D01*
Y20756D02*
X536875Y21127D01*
X536496Y20748D02*
X536504Y20756D01*
X369331Y10745D02*
Y10748D01*
Y10522D02*
Y10745D01*
X556504Y20756D02*
X556875Y21127D01*
X556496Y20748D02*
X556504Y20756D01*
X556496Y10748D02*
X556504Y10756D01*
X566504Y20756D02*
X566875Y21127D01*
X566496Y20748D02*
X566504Y20756D01*
Y10756D02*
X571875Y16127D01*
X566496Y10748D02*
X566504Y10756D01*
X526504D02*
X531250Y15502D01*
X526496Y10748D02*
X526504Y10756D01*
X108288Y146191D02*
X123125D01*
X69375Y93386D02*
X109507Y133500D01*
X69375Y89941D02*
Y93386D01*
X113934Y127000D02*
X128125Y141191D01*
Y164316D01*
X486504Y10756D02*
Y15643D01*
X395000Y242500D02*
Y243066D01*
X394375Y243691D02*
X395000Y243066D01*
X400992Y235933D02*
X401295Y236235D01*
X398125Y246191D02*
X400992Y243324D01*
X396875Y244941D02*
X398809Y243007D01*
Y240000D02*
Y243007D01*
X420000Y61816D02*
Y86191D01*
X375625Y102441D02*
X386250D01*
X387500Y101191D01*
Y73691D02*
Y101191D01*
Y73691D02*
X388750Y72441D01*
X401875D01*
X151575Y445118D02*
Y445241D01*
X139764Y445118D02*
Y445177D01*
X128125Y444941D02*
Y444946D01*
X127953Y445118D02*
X128125Y444946D01*
X116142Y445118D02*
Y445433D01*
X104331Y445118D02*
Y445256D01*
X92520Y445118D02*
Y445320D01*
X80886Y444941D02*
X81250D01*
X80709Y445118D02*
X80886Y444941D01*
X69075D02*
X69375D01*
X68898Y445118D02*
X69075Y444941D01*
X32397Y120669D02*
X32559D01*
X43125Y117441D02*
X49375D01*
X41875Y118691D02*
X43125Y117441D01*
X41875Y118691D02*
Y153691D01*
X38125Y157441D02*
X41875Y153691D01*
X38125Y157441D02*
Y164316D01*
X36875Y165566D02*
X38125Y164316D01*
X29375Y165566D02*
X36875D01*
X27500Y167441D02*
X29375Y165566D01*
X37397Y170669D02*
X39375Y168691D01*
X32559Y170669D02*
X37397D01*
X44375Y119941D02*
X46250D01*
X43125Y121191D02*
X44375Y119941D01*
X43125Y121191D02*
Y154316D01*
X39375Y158066D02*
X43125Y154316D01*
X39375Y158066D02*
Y168691D01*
X271875Y123066D02*
X323125D01*
X325625Y125566D01*
X266250Y128691D02*
X271875Y123066D01*
X200625Y128691D02*
X266250D01*
X197500Y125566D02*
X200625Y128691D01*
X268750Y123691D02*
X270625Y121816D01*
X199375Y123691D02*
X268750D01*
X196353Y120669D02*
X199375Y123691D01*
X190039Y120669D02*
X196353D01*
X375625Y199316D02*
X379375D01*
X376250Y196816D02*
X376875D01*
X46250Y233066D02*
Y234941D01*
Y233066D02*
X48750Y230566D01*
X150000D01*
X43750Y232441D02*
Y241191D01*
Y232441D02*
X46875Y229316D01*
X146875D01*
X149688Y226503D01*
X30625Y432441D02*
X37500D01*
X441250Y231191D02*
Y241191D01*
X335000Y205566D02*
Y222441D01*
X438750Y231816D02*
Y234941D01*
X437500Y230566D02*
X438750Y231816D01*
X401250Y230566D02*
X437500D01*
X331250Y205566D02*
Y222441D01*
X27500Y241191D02*
Y253691D01*
Y241191D02*
X28750Y239941D01*
X40625D01*
X41875Y238691D01*
Y159316D02*
Y238691D01*
Y159316D02*
X48750Y152441D01*
X22500Y239941D02*
Y253691D01*
Y239941D02*
X23750Y238691D01*
X39375D01*
X40625Y237441D01*
Y158691D02*
Y237441D01*
Y158691D02*
X46250Y153066D01*
Y144316D02*
Y153066D01*
X458125Y245566D02*
Y279316D01*
X460625Y281816D01*
Y284316D01*
Y241816D02*
Y278066D01*
X415625Y356191D02*
Y358066D01*
X416875Y359316D01*
X338750Y96191D02*
Y123691D01*
X275625Y171191D02*
X278125Y168691D01*
X224375Y171191D02*
X275625D01*
X223125Y172441D02*
X224375Y171191D01*
X276250Y139941D02*
X278125Y141816D01*
Y168691D01*
X80000Y65566D02*
X84375Y70566D01*
X32500Y44370D02*
X32554Y44316D01*
X37500D01*
X42500Y49316D01*
Y63691D01*
X44375Y65566D01*
X80000D01*
X76875Y66816D02*
X80000Y70566D01*
X22500Y44370D02*
X27446Y49316D01*
X36875D01*
X41250Y53691D01*
Y64316D01*
X43750Y66816D01*
X76875D01*
Y69316D02*
Y74316D01*
X75625Y68066D02*
X76875Y69316D01*
X43125Y68066D02*
X75625D01*
X40000Y64941D02*
X43125Y68066D01*
X40000Y59941D02*
Y64941D01*
X34429Y54370D02*
X40000Y59941D01*
X32500Y54370D02*
X34429D01*
X72500Y69316D02*
X74375Y71191D01*
X22500Y54370D02*
X27446Y59316D01*
X36875D01*
X38750Y61191D01*
Y65566D01*
X42500Y69316D01*
X72500D01*
X69375Y71191D02*
X70000Y71816D01*
X32500Y64370D02*
Y69941D01*
X33750Y71191D01*
X69375D01*
X65625Y72441D02*
X68750Y75566D01*
X25625Y72441D02*
X65625D01*
X22500Y69316D02*
X25625Y72441D01*
X22500Y64370D02*
Y69316D01*
X68125Y88691D02*
X69375Y89941D01*
X56250Y88691D02*
X68125D01*
X55000Y87441D02*
X56250Y88691D01*
X55000Y76191D02*
Y87441D01*
X22500Y34370D02*
X27446Y39316D01*
X38750D01*
X43750Y44316D01*
Y62441D01*
X45625Y64316D01*
X85000D01*
X88750Y68066D01*
Y70566D01*
X48750Y88066D02*
X51250Y90566D01*
X13750Y20566D02*
X15000Y19316D01*
X13750Y20566D02*
Y69941D01*
X20000Y76816D01*
X47500D01*
X48750Y78066D01*
Y88066D01*
X15000Y19316D02*
X27500D01*
X32500Y24316D01*
Y24370D01*
X86875Y63066D02*
X95000Y71191D01*
X22500Y24370D02*
X27446Y29316D01*
X37500D01*
X45000Y36816D01*
X46250Y63066D02*
X86875D01*
X45000Y36816D02*
Y61816D01*
X46250Y63066D01*
X308125Y31191D02*
X331875D01*
X304375Y27441D02*
X308125Y31191D01*
X304375Y15566D02*
Y27441D01*
X299557Y10748D02*
X304375Y15566D01*
X531250Y15502D02*
Y27441D01*
X456875Y88691D02*
Y91816D01*
X455625Y93066D02*
X456875Y91816D01*
X455625Y93066D02*
Y113691D01*
X346250Y301816D02*
Y306191D01*
X344375Y299941D02*
X346250Y301816D01*
X344375Y251816D02*
Y299941D01*
X342500Y249941D02*
X344375Y251816D01*
X371250Y113691D02*
X381875Y124316D01*
Y139941D01*
X381250Y140566D02*
X381875Y139941D01*
X123125Y67441D02*
X131250D01*
X120000Y70566D02*
X123125Y67441D01*
X120000Y70566D02*
Y83066D01*
X111875Y91191D02*
X120000Y83066D01*
X101250Y91191D02*
X111875D01*
X141875Y64941D02*
X148125Y58691D01*
X141875Y64941D02*
Y79941D01*
X135625Y86191D02*
X141875Y79941D01*
X148125Y58691D02*
X221250D01*
X224375Y55566D01*
Y49316D02*
Y55566D01*
X226250Y47441D02*
X230000D01*
X224375Y49316D02*
X226250Y47441D01*
X140625Y64316D02*
X147500Y57441D01*
X140625Y64316D02*
Y77441D01*
X135625Y82441D02*
X140625Y77441D01*
X147500Y57441D02*
X220000D01*
X222500Y54941D01*
Y44941D02*
Y54941D01*
X225000Y42441D02*
X230000D01*
X222500Y44941D02*
X225000Y42441D01*
X102500Y79941D02*
X106250Y76191D01*
Y61816D02*
Y76191D01*
Y61816D02*
X111875Y56191D01*
X218750D01*
X221250Y53691D01*
Y37441D02*
Y53691D01*
Y37441D02*
X226250Y32441D01*
X230000D01*
X91250Y76816D02*
X92500Y78066D01*
X101875D01*
X110625Y54941D02*
X218125D01*
X220000Y53066D01*
X64375Y76191D02*
X65625D01*
X89375Y73691D02*
X101250D01*
X103125Y71816D01*
Y59941D02*
Y71816D01*
Y59941D02*
X109375Y53691D01*
X217500D01*
X218750Y52441D01*
Y33691D02*
Y52441D01*
Y33691D02*
X230000Y22441D01*
X100000Y66816D02*
X101250Y65566D01*
Y59316D02*
Y65566D01*
Y59316D02*
X108125Y52441D01*
X216875D01*
X217500Y51816D01*
Y29941D02*
Y51816D01*
Y29941D02*
X230000Y17441D01*
X146875Y67441D02*
Y86191D01*
Y67441D02*
X150625Y63691D01*
X225625D01*
X241250Y66191D02*
X243750Y68691D01*
X228125Y66191D02*
X241250D01*
X225625Y63691D02*
X228125Y66191D01*
X111250Y95566D02*
Y118691D01*
Y95566D02*
X118750Y88066D01*
X271250Y176816D02*
X277500Y183066D01*
X253125Y176816D02*
X271250D01*
X352500Y183691D02*
X353750Y182441D01*
X368750D01*
X253125Y183066D02*
X270000D01*
X272500Y185566D01*
X340000Y188066D02*
X343125Y191816D01*
X366250D01*
X448125Y46816D02*
X449375Y48066D01*
Y91816D01*
X447500Y93691D02*
X449375Y91816D01*
X447500Y93691D02*
Y103691D01*
X445625Y105566D02*
X447500Y103691D01*
X571875Y16127D02*
Y38066D01*
X565000Y44941D02*
X571875Y38066D01*
X466875Y44941D02*
X565000D01*
X464375Y47441D02*
X466875Y44941D01*
X464375Y47441D02*
Y109316D01*
X468125Y113066D01*
Y136191D01*
X468750Y136816D01*
X466250Y122441D02*
Y139316D01*
X463750Y123066D02*
Y136816D01*
X456875Y121191D02*
X463125D01*
X131250Y167441D02*
X137500D01*
X420625Y316816D02*
X423125Y314316D01*
Y275566D02*
Y314316D01*
X421875Y274316D02*
X423125Y275566D01*
X410000Y274316D02*
X421875D01*
X445000Y218691D02*
X445625Y219316D01*
X445000Y210566D02*
Y218691D01*
X443125Y208691D02*
X445000Y210566D01*
X366414Y208691D02*
X443125D01*
X231250Y221191D02*
Y227441D01*
X233750Y229941D01*
X313750D01*
X316250Y227441D01*
Y178066D02*
Y227441D01*
X315000Y176816D02*
X316250Y178066D01*
X449375Y233691D02*
X451250Y235566D01*
X449375Y207441D02*
Y233691D01*
X466250Y246816D02*
X468125Y248691D01*
X466250Y239941D02*
Y246816D01*
X461875Y235566D02*
X466250Y239941D01*
X451250Y235566D02*
X461875D01*
X448125Y206191D02*
X449375Y207441D01*
X438750Y206191D02*
X448125D01*
X436875Y204316D02*
X438750Y206191D01*
X436875Y191816D02*
Y204316D01*
X486496Y10748D02*
X486504Y10756D01*
X439375Y191191D02*
Y195566D01*
X454375Y210566D01*
Y212441D01*
X491250Y15566D02*
Y25566D01*
Y15566D02*
X496068Y10748D01*
X496496D01*
X440000Y37441D02*
X451875D01*
X458125Y31191D01*
X498125D01*
X501250Y28066D01*
Y15566D02*
Y28066D01*
Y15566D02*
X506068Y10748D01*
X506496D01*
X349331D02*
X354375Y15792D01*
Y23066D01*
X350625Y153066D02*
Y158066D01*
X352500Y159941D01*
X344375Y8691D02*
Y23066D01*
Y8691D02*
X346875Y6191D01*
X365000D01*
X369331Y10522D01*
X344375Y23066D02*
X349375Y28066D01*
Y150566D01*
X348125Y151816D02*
X349375Y150566D01*
X348125Y151816D02*
Y163066D01*
X352500Y167441D01*
X353750D01*
X349375Y152441D02*
Y160566D01*
X352500Y163691D01*
X513125Y121816D02*
Y204316D01*
X511250Y119941D02*
X513125Y121816D01*
X503125Y119941D02*
X511250D01*
X501250Y201191D02*
X503750Y198691D01*
Y160566D02*
Y198691D01*
Y160566D02*
X508125Y156191D01*
Y122753D02*
Y156191D01*
X507500Y122128D02*
X508125Y122753D01*
X482500Y139941D02*
X486250Y136191D01*
Y129941D02*
Y136191D01*
X487500Y137441D02*
X490000Y134941D01*
X487500Y137441D02*
Y161191D01*
X489375Y163066D01*
X488750Y139941D02*
X493750Y134941D01*
X488750Y139941D02*
Y159316D01*
X491875Y162441D01*
Y164941D01*
X490000Y166816D02*
X491875Y164941D01*
X490000Y141816D02*
X493125Y138691D01*
X490000Y141816D02*
Y158691D01*
X493125Y161816D01*
Y168691D01*
X491875Y169941D02*
X493125Y168691D01*
X491250Y144316D02*
X496875Y138691D01*
X491250Y144316D02*
Y158066D01*
X494375Y161191D01*
Y172441D01*
X493125Y173691D02*
X494375Y172441D01*
X454375Y90566D02*
Y113066D01*
X493125Y185566D02*
X496250Y182441D01*
Y161191D02*
Y182441D01*
X492500Y157441D02*
X496250Y161191D01*
X492500Y147128D02*
Y157441D01*
Y147128D02*
X503125Y136503D01*
X500625Y197441D02*
X502500Y195566D01*
Y159316D02*
Y195566D01*
Y159316D02*
X505625Y156191D01*
Y139003D02*
Y156191D01*
X498750Y194316D02*
X500625Y192441D01*
Y158691D02*
Y192441D01*
Y158691D02*
X502500Y156816D01*
Y141191D02*
Y156816D01*
X476875Y91191D02*
X480000Y88066D01*
X476875Y91191D02*
Y139316D01*
X468750Y147441D02*
X476875Y139316D01*
X468750Y147441D02*
Y159941D01*
X567500Y81816D02*
Y106816D01*
X571250Y89316D02*
Y109941D01*
X573750Y94941D02*
Y106816D01*
X576875Y121816D02*
Y151816D01*
X563750Y108691D02*
X576875Y121816D01*
X563750Y91191D02*
Y108691D01*
X573750Y122441D02*
Y143691D01*
X559375Y108066D02*
X573750Y122441D01*
X559375Y91191D02*
Y108066D01*
X495000Y152441D02*
X497500Y154941D01*
Y186191D01*
X495625Y188066D02*
X497500Y186191D01*
X498750Y153691D02*
X500000Y152441D01*
X498750Y153691D02*
Y189941D01*
X498125Y190566D02*
X498750Y189941D01*
X529375Y180566D02*
X530000Y179941D01*
Y163691D02*
Y179941D01*
X520000Y167441D02*
Y183066D01*
X517500Y163691D02*
Y183066D01*
X516250Y184316D02*
X517500Y183066D01*
X503125Y208691D02*
X508125Y203066D01*
X509375Y175566D02*
X510625Y176816D01*
Y207441D01*
X468125Y73691D02*
Y97441D01*
X260625Y136816D02*
X262500Y138691D01*
X230000Y136816D02*
X260625D01*
X366875Y174316D02*
X367500Y173691D01*
X351250Y174316D02*
X366875D01*
X331875Y171816D02*
X332500Y172441D01*
X331875Y143066D02*
Y171816D01*
X446250Y86191D02*
Y91191D01*
Y159316D02*
Y163691D01*
X443750Y156816D02*
X446250Y159316D01*
X443750Y128066D02*
Y156816D01*
Y128066D02*
X446250Y125566D01*
X542500Y287441D02*
X543750Y286191D01*
X542500Y287441D02*
Y294941D01*
X543750Y296191D01*
X545000Y391191D02*
X549375Y395566D01*
X545000Y293691D02*
Y391191D01*
X538750Y331191D02*
Y333691D01*
X542500Y337441D01*
Y391816D01*
X540000Y394316D02*
X542500Y391816D01*
X529375Y394316D02*
X540000D01*
X526875Y396816D02*
X529375Y394316D01*
X526875Y396816D02*
Y411191D01*
X445000Y159941D02*
Y163066D01*
X442500Y157441D02*
X445000Y159941D01*
X442500Y123691D02*
Y157441D01*
Y123691D02*
X443750Y122441D01*
X541875Y16127D02*
Y32441D01*
X329331Y10748D02*
X334375Y15792D01*
Y23066D01*
X346875Y35566D01*
Y149316D01*
X345000Y151191D02*
X346875Y149316D01*
X345000Y151191D02*
Y184941D01*
X362500Y246191D02*
X398125D01*
X361250Y247441D02*
X362500Y246191D01*
X361250Y247441D02*
Y255566D01*
X359375Y257441D02*
X361250Y255566D01*
X350625Y257441D02*
X359375D01*
X350000Y258066D02*
X350625Y257441D01*
X350000Y258066D02*
Y281191D01*
X352500Y283691D01*
X362500D01*
X360000Y243691D02*
X394375D01*
X358750Y244941D02*
X360000Y243691D01*
X358750Y244941D02*
Y254316D01*
X358125Y254941D02*
X358750Y254316D01*
X348750Y254941D02*
X358125D01*
X346250Y257441D02*
X348750Y254941D01*
X346250Y257441D02*
Y286816D01*
X353125Y293691D01*
X362500D01*
X361250Y244941D02*
X396875D01*
X360000Y246191D02*
X361250Y244941D01*
X360000Y246191D02*
Y254941D01*
X358750Y256191D02*
X360000Y254941D01*
X349375Y256191D02*
X358750D01*
X348125Y257441D02*
X349375Y256191D01*
X348125Y257441D02*
Y284941D01*
X351875Y288691D01*
X362500D01*
X350000Y243691D02*
X351875Y241816D01*
Y230566D02*
Y241816D01*
X251875Y243691D02*
X350000D01*
X248750Y246816D02*
X251875Y243691D01*
X248750Y246816D02*
Y288066D01*
X255000Y293691D01*
X265000D01*
X351875Y244941D02*
X354375Y242441D01*
Y233691D02*
Y242441D01*
X253125Y244941D02*
X351875D01*
X250625Y247441D02*
X253125Y244941D01*
X250625Y247441D02*
Y285566D01*
X253750Y288691D01*
X265000D01*
X356875Y230566D02*
Y243691D01*
X252500Y248066D02*
Y282441D01*
X253750Y283691D01*
X265000D01*
X450625Y43691D02*
Y96816D01*
X339331Y20748D02*
X348125Y29542D01*
Y149941D01*
X346250Y151816D02*
X348125Y149941D01*
X346250Y151816D02*
Y180566D01*
X347500Y181816D01*
X329331Y20748D02*
X345625Y37042D01*
Y148691D01*
X343750Y150566D02*
X345625Y148691D01*
X343750Y150566D02*
Y188066D01*
X140000Y253066D02*
Y281191D01*
X137500Y250566D02*
X140000Y253066D01*
X198125Y233066D02*
X200000Y231191D01*
X315000D01*
X317500Y228691D01*
Y174316D02*
Y228691D01*
X370000Y33691D02*
Y114316D01*
X389331Y10748D02*
X394375Y15792D01*
Y26191D01*
X390625Y29941D02*
X394375Y26191D01*
X373750Y29941D02*
X390625D01*
X370000Y33691D02*
X373750Y29941D01*
X370000Y114316D02*
X378125Y122441D01*
Y138691D01*
X368750Y32441D02*
Y114941D01*
X389331Y20748D02*
X389375Y20792D01*
Y24941D01*
X386250Y28066D02*
X389375Y24941D01*
X373125Y28066D02*
X386250D01*
X368750Y32441D02*
X373125Y28066D01*
X368750Y114941D02*
X375000Y121191D01*
Y136816D01*
X367500Y30566D02*
Y115566D01*
X374375Y15704D02*
X379331Y10748D01*
X374375Y15704D02*
Y23691D01*
X367500Y30566D02*
X374375Y23691D01*
X367500Y115566D02*
X372500Y120566D01*
Y134316D01*
X371875Y134941D02*
X372500Y134316D01*
X460625Y238066D02*
X463125Y240566D01*
X445625Y238066D02*
X460625D01*
X443125Y235566D02*
X445625Y238066D01*
X443125Y235566D02*
X443199Y224390D01*
X463125Y240566D02*
Y251816D01*
X465625Y254316D01*
X468750D01*
X470000Y255566D01*
Y306191D01*
X448125Y208691D02*
Y234941D01*
X446875Y207441D02*
X448125Y208691D01*
X404375Y147441D02*
Y192441D01*
X448125Y234941D02*
X450000Y236816D01*
X461250D01*
X465000Y240566D01*
Y251191D01*
X466250Y252441D01*
X471250D01*
X472500Y253691D01*
Y303066D01*
X355625Y71816D02*
X356875Y70566D01*
Y68066D02*
Y70566D01*
X355625Y71816D02*
Y144941D01*
X356875Y46191D02*
Y48066D01*
X309331Y20748D02*
X316024Y27441D01*
X329375D01*
X125625Y169316D02*
X131250Y174941D01*
X143125Y65566D02*
X148750Y59941D01*
X143125Y65566D02*
Y82441D01*
X138125Y87441D02*
X143125Y82441D01*
X138125Y87441D02*
Y88691D01*
X148750Y59941D02*
X222500D01*
X226250Y56191D01*
Y53691D02*
Y56191D01*
Y53691D02*
X227500Y52441D01*
X230000D01*
X144375Y66191D02*
X149375Y61191D01*
X144375Y66191D02*
Y86191D01*
X142500Y88066D02*
X144375Y86191D01*
X149375Y61191D02*
X226250D01*
X230000Y57441D01*
X145625Y66816D02*
X150000Y62441D01*
X145625Y66816D02*
Y89941D01*
X150000Y62441D02*
X230000D01*
X270625Y201816D02*
X278750D01*
X280625Y199941D01*
Y139941D02*
Y199941D01*
X440000Y43066D02*
Y46816D01*
X359331Y20748D02*
X359375Y20792D01*
Y21191D01*
X363750Y25566D01*
X359331Y10748D02*
X365000Y16417D01*
X366250Y23829D02*
Y116191D01*
Y23829D02*
X369331Y20748D01*
X443750Y72441D02*
X446250Y69941D01*
X443750Y72441D02*
Y95566D01*
X228125Y184941D02*
Y201816D01*
X439375Y180566D02*
X441250Y182441D01*
X439375Y103691D02*
Y180566D01*
Y103691D02*
X440938Y102128D01*
X444375D01*
X189375Y210566D02*
Y218691D01*
Y210566D02*
X190625Y209316D01*
X306250D01*
X313125Y202441D01*
Y181816D02*
Y202441D01*
X381875Y197441D02*
Y204316D01*
X378125Y194316D02*
X381875Y197441D01*
X337500Y194316D02*
X378125D01*
X335625Y192441D02*
X337500Y194316D01*
X262500Y143691D02*
Y151191D01*
X198125Y132441D02*
X200625Y129941D01*
X269375D01*
X273125Y126191D01*
X203125Y132441D02*
X204375Y131191D01*
X271875D01*
X273125Y129941D01*
X180039Y140669D02*
X185143Y135566D01*
X206250D01*
X209375Y132441D01*
X271875D01*
X273125Y133691D01*
X190039Y140669D02*
X204897D01*
X211875Y133691D01*
X269375D01*
X273125Y137441D01*
X427731Y20566D02*
X427913Y20748D01*
X447913Y10748D02*
X453125Y15960D01*
D153*
X430000Y386500D02*
Y390000D01*
X433125Y381816D02*
Y383375D01*
X430000Y386500D02*
X433125Y383375D01*
X423500Y363941D02*
Y388000D01*
Y363941D02*
X424375Y363066D01*
X480625Y401191D02*
X503750D01*
X478125Y398691D02*
X480625Y401191D01*
X503750D02*
X504375Y401816D01*
X68898Y445418D02*
X69375Y444941D01*
X80709Y445433D02*
X80758D01*
X92520D02*
X92633D01*
X104331D02*
X104508D01*
X24375Y329941D02*
X28434Y334000D01*
X34500D01*
X151575Y416491D02*
Y433622D01*
Y416491D02*
X157500Y410566D01*
Y407776D02*
Y410566D01*
Y407776D02*
X158701Y406575D01*
X139764Y418302D02*
Y433622D01*
Y418302D02*
X147500Y410566D01*
Y407776D02*
Y410566D01*
Y407776D02*
X148701Y406575D01*
X127953Y420113D02*
Y433622D01*
Y420113D02*
X137500Y410566D01*
Y407776D02*
Y410566D01*
Y407776D02*
X138701Y406575D01*
X116142Y421924D02*
Y433622D01*
Y421924D02*
X127500Y410566D01*
Y407776D02*
Y410566D01*
Y407776D02*
X128701Y406575D01*
X151575Y445241D02*
Y445433D01*
Y445241D02*
X157500Y439316D01*
Y416191D02*
Y439316D01*
Y416191D02*
X164375Y409316D01*
Y402249D02*
Y409316D01*
X158701Y396575D02*
X164375Y402249D01*
X139764Y445177D02*
Y445433D01*
Y445177D02*
X145625Y439316D01*
Y417441D02*
Y439316D01*
Y417441D02*
X153750Y409316D01*
Y401624D02*
Y409316D01*
X148701Y396575D02*
X153750Y401624D01*
X127953Y445118D02*
Y445433D01*
Y445113D02*
Y445118D01*
Y445113D02*
X128125Y444941D01*
X133750Y439316D01*
Y419941D02*
Y439316D01*
Y419941D02*
X143750Y409941D01*
Y401624D02*
Y409941D01*
X138701Y396575D02*
X143750Y401624D01*
X116142Y445433D02*
X117008D01*
X122500Y439941D01*
Y420566D02*
Y439941D01*
Y420566D02*
X133750Y409316D01*
Y401624D02*
Y409316D01*
X128701Y396575D02*
X133750Y401624D01*
X104331Y422485D02*
Y433622D01*
Y422485D02*
X116875Y409941D01*
Y407062D02*
Y409941D01*
Y407062D02*
X117362Y406575D01*
X104508Y445433D02*
X110000Y439941D01*
Y422441D02*
Y439941D01*
Y422441D02*
X123125Y409316D01*
Y402441D02*
Y409316D01*
X122500Y401816D02*
X123125Y402441D01*
X122500Y401713D02*
Y401816D01*
X117362Y396575D02*
X122500Y401713D01*
X92520Y424296D02*
Y433622D01*
Y424296D02*
X106875Y409941D01*
Y407062D02*
Y409941D01*
Y407062D02*
X107362Y406575D01*
X92633Y445433D02*
X98750Y439316D01*
Y423066D02*
Y439316D01*
Y423066D02*
X112500Y409316D01*
Y401713D02*
Y409316D01*
X107362Y396575D02*
X112500Y401713D01*
X80709Y426107D02*
Y433622D01*
Y426107D02*
X96875Y409941D01*
Y407338D02*
Y409941D01*
Y407338D02*
X97362Y406575D01*
X80758Y445433D02*
X81250Y444941D01*
X86875Y439316D01*
Y424941D02*
Y439316D01*
Y424941D02*
X102500Y409316D01*
Y401713D02*
Y409316D01*
X97362Y396575D02*
X102500Y401713D01*
X68898Y425039D02*
Y433622D01*
Y425039D02*
X87362Y406575D01*
X68898Y445418D02*
Y445433D01*
X69375Y444941D02*
X74375Y439941D01*
Y426816D02*
Y439941D01*
Y426816D02*
X92500Y408691D01*
Y401713D02*
Y408691D01*
X87362Y396575D02*
X92500Y401713D01*
X24375Y307441D02*
Y329941D01*
X36875Y335566D02*
Y340566D01*
Y335566D02*
X38750Y333691D01*
X48750Y306816D02*
Y310566D01*
X45625Y303691D02*
X48750Y306816D01*
X18750Y303691D02*
X45625D01*
X48750Y310566D02*
Y337441D01*
X46250Y339941D02*
X48750Y337441D01*
X41250Y339941D02*
X46250D01*
X457500Y396816D02*
Y409316D01*
X468125Y420566D02*
Y433066D01*
X478125Y357441D02*
Y398691D01*
X473125Y351816D02*
X478125Y357441D01*
X509375Y401816D02*
Y404316D01*
X508750Y404941D02*
X509375Y404316D01*
X502500Y404941D02*
X508750D01*
X500625Y403066D02*
X502500Y404941D01*
X480000Y403066D02*
X500625D01*
X476250Y399316D02*
X480000Y403066D01*
X476250Y359316D02*
Y399316D01*
X468750Y351816D02*
X476250Y359316D01*
X468125Y351816D02*
X468750D01*
X369331Y396575D02*
X369375Y396531D01*
D155*
X466250Y12441D02*
Y20566D01*
X464557Y10748D02*
X466250Y12441D01*
X457913Y10748D02*
X464557D01*
D156*
X583577Y68916D02*
X581578D01*
X582577Y69916D01*
Y68583D01*
D157*
X18307Y230886D02*
D03*
X604675Y132623D02*
D03*
D158*
X496504Y10756D02*
D03*
X506504D02*
D03*
X476504D02*
D03*
X486504D02*
D03*
X476504Y20756D02*
D03*
X486504D02*
D03*
X496504D02*
D03*
X506504D02*
D03*
X546504Y10756D02*
D03*
X556504D02*
D03*
X526504D02*
D03*
X536504D02*
D03*
X566504D02*
D03*
X576504D02*
D03*
X516504Y20756D02*
D03*
Y10756D02*
D03*
X526504Y20756D02*
D03*
X546504D02*
D03*
X536504D02*
D03*
X566504D02*
D03*
X586504Y10756D02*
D03*
X556504Y20756D02*
D03*
X576504D02*
D03*
X319331Y10745D02*
D03*
X329331D02*
D03*
X299331D02*
D03*
X309331D02*
D03*
X299331Y20745D02*
D03*
X309331D02*
D03*
X319331D02*
D03*
X329331D02*
D03*
X369331Y10745D02*
D03*
X379331D02*
D03*
X349331D02*
D03*
X359331D02*
D03*
X389331D02*
D03*
X399331D02*
D03*
X339331Y20745D02*
D03*
Y10745D02*
D03*
X349331Y20745D02*
D03*
X369331D02*
D03*
X359331D02*
D03*
X389331D02*
D03*
X409331Y10745D02*
D03*
X379331Y20745D02*
D03*
X399331D02*
D03*
D159*
X586504Y20756D02*
D03*
X409331Y20745D02*
D03*
D160*
X339331Y396575D02*
D03*
Y406575D02*
D03*
X369331D02*
D03*
Y396575D02*
D03*
X359331Y406575D02*
D03*
Y396575D02*
D03*
X349331D02*
D03*
Y406575D02*
D03*
X218125Y201816D02*
D03*
X228125D02*
D03*
X238125D02*
D03*
X22559Y150669D02*
D03*
Y120669D02*
D03*
Y170669D02*
D03*
Y190669D02*
D03*
Y140669D02*
D03*
X32559Y130669D02*
D03*
Y120669D02*
D03*
X22559Y130669D02*
D03*
X32559Y140669D02*
D03*
Y150669D02*
D03*
X22559Y160669D02*
D03*
X32559D02*
D03*
X22559Y180669D02*
D03*
X32559D02*
D03*
Y170669D02*
D03*
Y190669D02*
D03*
X22500Y24370D02*
D03*
Y44370D02*
D03*
Y14370D02*
D03*
X32500Y24370D02*
D03*
Y14370D02*
D03*
X22500Y34370D02*
D03*
X32500D02*
D03*
X22500Y64370D02*
D03*
Y54370D02*
D03*
X32500D02*
D03*
Y44370D02*
D03*
Y64370D02*
D03*
X128701Y406575D02*
D03*
X158701Y396575D02*
D03*
X128701D02*
D03*
X148701D02*
D03*
X138701D02*
D03*
Y406575D02*
D03*
X148701D02*
D03*
X158701D02*
D03*
X182440Y276287D02*
D03*
X192440D02*
D03*
X427913Y20748D02*
D03*
X457913Y10748D02*
D03*
X427913D02*
D03*
X447913D02*
D03*
X437913D02*
D03*
Y20748D02*
D03*
X447913D02*
D03*
X457913D02*
D03*
X221250Y79941D02*
D03*
Y89941D02*
D03*
X270625Y201816D02*
D03*
X260625D02*
D03*
X180039Y150669D02*
D03*
Y120669D02*
D03*
Y170669D02*
D03*
Y190669D02*
D03*
Y140669D02*
D03*
X190039Y130669D02*
D03*
Y120669D02*
D03*
X180039Y130669D02*
D03*
X190039Y140669D02*
D03*
Y150669D02*
D03*
X180039Y160669D02*
D03*
X190039D02*
D03*
X180039Y180669D02*
D03*
X190039D02*
D03*
Y170669D02*
D03*
Y190669D02*
D03*
X87362Y406575D02*
D03*
X117362Y396575D02*
D03*
X87362D02*
D03*
X97362D02*
D03*
X107362D02*
D03*
X97362Y406575D02*
D03*
X107362D02*
D03*
X117362D02*
D03*
D161*
X111713Y264606D02*
D03*
Y254606D02*
D03*
Y244606D02*
D03*
Y274606D02*
D03*
Y294606D02*
D03*
Y314606D02*
D03*
Y304606D02*
D03*
D162*
X611250Y313741D02*
D03*
Y323741D02*
D03*
X551250D02*
D03*
Y313741D02*
D03*
Y233741D02*
D03*
X611250Y253741D02*
D03*
Y233741D02*
D03*
D163*
X21359Y455864D02*
D03*
X38682D02*
D03*
X456377Y455700D02*
D03*
X473700D02*
D03*
D164*
X68937Y445441D02*
D03*
X80736D02*
D03*
X92535D02*
D03*
X127937D02*
D03*
X116138D02*
D03*
X151535D02*
D03*
X68937Y433642D02*
D03*
X80736D02*
D03*
X92535D02*
D03*
X127937D02*
D03*
X116138D02*
D03*
X151535D02*
D03*
X104334Y445441D02*
D03*
X139736D02*
D03*
X104334Y433642D02*
D03*
X139736D02*
D03*
X583252D02*
D03*
X595000D02*
D03*
X606748D02*
D03*
Y445441D02*
D03*
X595000D02*
D03*
X583252D02*
D03*
X417848Y433642D02*
D03*
X429652D02*
D03*
Y445441D02*
D03*
X417848D02*
D03*
X181890Y433642D02*
D03*
Y445441D02*
D03*
X500348Y433642D02*
D03*
X512152D02*
D03*
Y445441D02*
D03*
X500348D02*
D03*
X541598Y433642D02*
D03*
X553402D02*
D03*
Y445441D02*
D03*
X541598D02*
D03*
X211598Y433642D02*
D03*
X223402D02*
D03*
Y445441D02*
D03*
X211598D02*
D03*
X252848Y433642D02*
D03*
X264652D02*
D03*
Y445441D02*
D03*
X252848D02*
D03*
X294098Y433642D02*
D03*
X305902D02*
D03*
Y445441D02*
D03*
X294098D02*
D03*
X335348Y433642D02*
D03*
X347152D02*
D03*
Y445441D02*
D03*
X335348D02*
D03*
X376598Y433642D02*
D03*
X388402D02*
D03*
Y445441D02*
D03*
X376598D02*
D03*
D165*
X602362Y393701D02*
D03*
X307087D02*
D03*
X185039D02*
D03*
X27559D02*
D03*
Y98425D02*
D03*
X185039D02*
D03*
X307087D02*
D03*
X602362D02*
D03*
D166*
X490900Y424600D02*
D03*
X69000Y208000D02*
D03*
X492500Y56500D02*
D03*
Y67500D02*
D03*
X478000Y56500D02*
D03*
Y67500D02*
D03*
X224000Y389500D02*
D03*
X521857Y365500D02*
D03*
X525429D02*
D03*
X525500Y362000D02*
D03*
X521929D02*
D03*
X529000Y365500D02*
D03*
X529072Y362000D02*
D03*
X511214D02*
D03*
X507643D02*
D03*
X514786D02*
D03*
X518357D02*
D03*
X504072D02*
D03*
X504000Y365500D02*
D03*
X106000Y134000D02*
D03*
X189500Y286500D02*
D03*
X109500Y122500D02*
D03*
X110000Y130000D02*
D03*
X112000Y134000D02*
D03*
X66500Y137000D02*
D03*
X65500Y99000D02*
D03*
X66500Y79941D02*
D03*
X527000Y165000D02*
D03*
X446500Y137000D02*
D03*
X368543Y128500D02*
D03*
X351500Y187000D02*
D03*
X348500Y189000D02*
D03*
X474070Y229500D02*
D03*
X464000Y204000D02*
D03*
X466948Y186000D02*
D03*
X451000Y177500D02*
D03*
X450000Y438000D02*
D03*
X428500Y37500D02*
D03*
X423500Y35000D02*
D03*
X434000Y37500D02*
D03*
X448000Y175000D02*
D03*
Y171000D02*
D03*
X431847Y202592D02*
D03*
X430000Y390000D02*
D03*
X423500Y388000D02*
D03*
X429000Y383500D02*
D03*
X439500Y217500D02*
D03*
X406250Y68647D02*
D03*
X419000Y101500D02*
D03*
X413750Y102441D02*
D03*
X421500Y120500D02*
D03*
X417000Y122000D02*
D03*
X414500Y124500D02*
D03*
X446000Y117000D02*
D03*
X415500D02*
D03*
X38125Y367441D02*
D03*
X43800Y368500D02*
D03*
X40100Y371700D02*
D03*
X109000Y127000D02*
D03*
X544729Y395700D02*
D03*
X482500Y431800D02*
D03*
X558600Y424400D02*
D03*
X401250Y266566D02*
D03*
X364375Y423900D02*
D03*
X263800Y72441D02*
D03*
X447500Y196816D02*
D03*
X477447Y230397D02*
D03*
X450849Y181220D02*
D03*
X507500Y164000D02*
D03*
X296875Y234316D02*
D03*
X382500Y275000D02*
D03*
X401250Y274750D02*
D03*
X368500Y159500D02*
D03*
X366000Y156000D02*
D03*
X34500Y334000D02*
D03*
X52000Y137500D02*
D03*
X90500Y91500D02*
D03*
X72500D02*
D03*
X484596Y194537D02*
D03*
X428500Y203000D02*
D03*
X438500Y59000D02*
D03*
X426500Y51500D02*
D03*
X435625Y43125D02*
D03*
X452500Y137500D02*
D03*
X367500Y122500D02*
D03*
X369000Y125500D02*
D03*
X425470Y203500D02*
D03*
X120500Y143500D02*
D03*
X182500Y418500D02*
D03*
X395000Y242500D02*
D03*
X401295Y236235D02*
D03*
X398809Y240000D02*
D03*
X151171Y290079D02*
D03*
X202713Y273810D02*
D03*
X194055Y269931D02*
D03*
X183317Y267079D02*
D03*
X179518Y286783D02*
D03*
X113266Y129515D02*
D03*
X600000Y148066D02*
D03*
X603750D02*
D03*
X607500D02*
D03*
X611250D02*
D03*
X615000D02*
D03*
X600000Y151816D02*
D03*
X603750D02*
D03*
X607500D02*
D03*
X611250D02*
D03*
X615000D02*
D03*
X591500Y370750D02*
D03*
X596500D02*
D03*
X601500D02*
D03*
X606500D02*
D03*
X611500D02*
D03*
X616500D02*
D03*
X619000Y374500D02*
D03*
X614000D02*
D03*
X609000D02*
D03*
X604000D02*
D03*
X599000D02*
D03*
X594000D02*
D03*
X589000D02*
D03*
X421250Y60566D02*
D03*
Y87441D02*
D03*
X422500Y67441D02*
D03*
X423438Y84628D02*
D03*
X375625Y102441D02*
D03*
X401875Y72441D02*
D03*
X49375Y117441D02*
D03*
X46250Y119941D02*
D03*
X371250Y198066D02*
D03*
X334375Y140566D02*
D03*
X323125Y199316D02*
D03*
X379375D02*
D03*
X323125Y195566D02*
D03*
X376875Y196816D02*
D03*
X46250Y234941D02*
D03*
X150000Y230566D02*
D03*
X43750Y241191D02*
D03*
X149688Y226503D02*
D03*
X24375Y307441D02*
D03*
X36875Y340566D02*
D03*
X38750Y333691D02*
D03*
X37500Y432441D02*
D03*
X30625D02*
D03*
X18750Y303691D02*
D03*
X48750Y310566D02*
D03*
X41250Y339941D02*
D03*
X47500Y365566D02*
D03*
X446875Y423691D02*
D03*
X397500Y327441D02*
D03*
X405625Y424941D02*
D03*
X394375Y334316D02*
D03*
X397500Y322441D02*
D03*
X393125Y339316D02*
D03*
X297500Y377441D02*
D03*
X323125Y425566D02*
D03*
X300625Y322441D02*
D03*
X297500Y334316D02*
D03*
X300625Y374316D02*
D03*
X281875Y424941D02*
D03*
X303125Y371816D02*
D03*
X240625Y425566D02*
D03*
X179375Y424941D02*
D03*
X201875Y351191D02*
D03*
X212750Y377500D02*
D03*
X216500D02*
D03*
X220250D02*
D03*
X224000D02*
D03*
X227750D02*
D03*
Y389500D02*
D03*
X220250D02*
D03*
X216500D02*
D03*
X212750D02*
D03*
X186250Y346191D02*
D03*
X187500Y353066D02*
D03*
X186250Y360566D02*
D03*
X318125Y271191D02*
D03*
Y283691D02*
D03*
Y299941D02*
D03*
Y312441D02*
D03*
X357500Y348066D02*
D03*
X345000D02*
D03*
X260000D02*
D03*
X247500D02*
D03*
X220625Y271816D02*
D03*
Y284316D02*
D03*
Y299941D02*
D03*
Y312441D02*
D03*
X441250Y241191D02*
D03*
X335000Y205566D02*
D03*
X438750Y234941D02*
D03*
X331250Y205566D02*
D03*
X27500Y253691D02*
D03*
X48750Y152441D02*
D03*
X22500Y253691D02*
D03*
X46250Y144316D02*
D03*
X458125Y245566D02*
D03*
X460625Y284316D02*
D03*
Y241816D02*
D03*
Y278066D02*
D03*
X415625Y356191D02*
D03*
X338750Y123691D02*
D03*
X276250Y139941D02*
D03*
X338750Y96191D02*
D03*
X66250Y156816D02*
D03*
X84375Y70566D02*
D03*
X80000D02*
D03*
X76875Y74316D02*
D03*
X74375Y71191D02*
D03*
X70000Y71816D02*
D03*
X68750Y75566D02*
D03*
X55000Y76191D02*
D03*
X88750Y70566D02*
D03*
X95000Y71191D02*
D03*
X331875Y31191D02*
D03*
X447500Y153691D02*
D03*
X346250Y306191D02*
D03*
X342500Y249941D02*
D03*
X372500Y34941D02*
D03*
X381250Y140566D02*
D03*
X131250Y67441D02*
D03*
X101250Y91191D02*
D03*
X135625Y86191D02*
D03*
X230000Y47441D02*
D03*
X135625Y82441D02*
D03*
X230000Y42441D02*
D03*
Y32441D02*
D03*
X91250Y76816D02*
D03*
X230000Y27441D02*
D03*
X64375Y76191D02*
D03*
X230000Y22441D02*
D03*
X100000Y66816D02*
D03*
X230000Y17441D02*
D03*
X243750Y68691D02*
D03*
X111250Y118691D02*
D03*
X118750Y88066D02*
D03*
X253125Y176816D02*
D03*
X277500Y183066D02*
D03*
X352500Y183691D02*
D03*
X368750Y182441D02*
D03*
X414375Y180566D02*
D03*
X253125Y183066D02*
D03*
X272500Y185566D02*
D03*
X340000Y188066D02*
D03*
X366250Y191816D02*
D03*
X415000Y189941D02*
D03*
X448125Y46816D02*
D03*
X445625Y105566D02*
D03*
X468750Y136816D02*
D03*
X466250Y139316D02*
D03*
X463750Y136816D02*
D03*
X123125Y146191D02*
D03*
X131250Y167441D02*
D03*
X137500D02*
D03*
X433125Y381816D02*
D03*
X420625Y316816D02*
D03*
X410000Y274316D02*
D03*
X457500Y409316D02*
D03*
Y396816D02*
D03*
X424375Y363066D02*
D03*
X440000Y220566D02*
D03*
X358125Y210566D02*
D03*
X445625Y219316D02*
D03*
X354375Y210566D02*
D03*
X231250Y221191D02*
D03*
X315000Y176816D02*
D03*
X468125Y248691D02*
D03*
X436875Y191816D02*
D03*
X454375Y212441D02*
D03*
X445000Y189941D02*
D03*
X352500Y159941D02*
D03*
X353750Y167441D02*
D03*
X352500Y163691D02*
D03*
X513125Y204316D02*
D03*
X503125Y119941D02*
D03*
X507500Y122128D02*
D03*
X501250Y201191D02*
D03*
X486250Y129941D02*
D03*
X480625Y134941D02*
D03*
X490000D02*
D03*
X489375Y163066D02*
D03*
X493750Y134941D02*
D03*
X490000Y166816D02*
D03*
X493125Y138691D02*
D03*
X491875Y169941D02*
D03*
X496875Y138691D02*
D03*
X493125Y173691D02*
D03*
X451875Y100566D02*
D03*
X454375Y90566D02*
D03*
X447500Y148066D02*
D03*
X493125Y185566D02*
D03*
X503125Y136503D02*
D03*
X500625Y197441D02*
D03*
X505625Y139003D02*
D03*
X498750Y194316D02*
D03*
X502500Y141191D02*
D03*
X480000Y88066D02*
D03*
X468750Y159941D02*
D03*
X567500Y106816D02*
D03*
Y81816D02*
D03*
X571250Y109941D02*
D03*
Y89316D02*
D03*
X573750Y106816D02*
D03*
Y94941D02*
D03*
X576875Y151816D02*
D03*
X563750Y91191D02*
D03*
X573750Y143691D02*
D03*
X559375Y91191D02*
D03*
X495000Y152441D02*
D03*
X495625Y188066D02*
D03*
X500000Y152441D02*
D03*
X498125Y190566D02*
D03*
X485000Y161503D02*
D03*
X529375Y180566D02*
D03*
X530000Y163691D02*
D03*
X525625Y181816D02*
D03*
X520000Y183066D02*
D03*
Y167441D02*
D03*
X516250Y184316D02*
D03*
X517500Y163691D02*
D03*
X503125Y208691D02*
D03*
X510625Y163066D02*
D03*
X505625Y201191D02*
D03*
X509375Y175566D02*
D03*
X510625Y207441D02*
D03*
X468125Y73691D02*
D03*
Y97441D02*
D03*
X262500Y138691D02*
D03*
X230000Y136816D02*
D03*
X411875Y171816D02*
D03*
X367500Y173691D02*
D03*
X351250Y174316D02*
D03*
X332500Y172441D02*
D03*
X331875Y143066D02*
D03*
X446250Y91191D02*
D03*
Y86191D02*
D03*
X456875Y84941D02*
D03*
X446250Y125566D02*
D03*
X490625Y291191D02*
D03*
X543750Y286191D02*
D03*
X549375Y395566D02*
D03*
X545000Y293691D02*
D03*
X538750Y331191D02*
D03*
X526875Y411191D02*
D03*
X443750Y122441D02*
D03*
X485625Y264316D02*
D03*
X442500Y161816D02*
D03*
X446250Y166816D02*
D03*
X490625Y299316D02*
D03*
X461250Y115566D02*
D03*
X362500Y283691D02*
D03*
Y293691D02*
D03*
Y288691D02*
D03*
X370000Y358066D02*
D03*
X293750Y354941D02*
D03*
X285625Y274316D02*
D03*
X303750Y273691D02*
D03*
X351875Y230566D02*
D03*
X265000Y293691D02*
D03*
X354375Y233691D02*
D03*
X265000Y288691D02*
D03*
X356875Y230566D02*
D03*
X265000Y283691D02*
D03*
X450625Y43691D02*
D03*
Y96816D02*
D03*
X347500Y181816D02*
D03*
X343750Y188066D02*
D03*
X140000Y281191D02*
D03*
X137500Y250566D02*
D03*
X128125Y164316D02*
D03*
X198125Y233066D02*
D03*
X317500Y174316D02*
D03*
X213125Y116191D02*
D03*
X378125Y138691D02*
D03*
X596875Y355566D02*
D03*
X600625D02*
D03*
X405625Y434316D02*
D03*
X364375D02*
D03*
X323125D02*
D03*
X281875D02*
D03*
X240625D02*
D03*
X293750Y312441D02*
D03*
X287500Y278691D02*
D03*
X385000D02*
D03*
X391875Y313066D02*
D03*
X486250Y352441D02*
D03*
X481250D02*
D03*
X504375Y351191D02*
D03*
X543750Y281191D02*
D03*
X177500Y374316D02*
D03*
X173750D02*
D03*
X564375Y394941D02*
D03*
X404375Y404316D02*
D03*
X304375Y266500D02*
D03*
X488750Y384941D02*
D03*
Y377441D02*
D03*
X518286Y365500D02*
D03*
X514714D02*
D03*
X507572D02*
D03*
X465000Y366191D02*
D03*
X461250D02*
D03*
X491250Y396191D02*
D03*
X480625Y378691D02*
D03*
X511143Y365500D02*
D03*
X469375Y389587D02*
D03*
X538750Y378066D02*
D03*
Y381816D02*
D03*
X556250Y378066D02*
D03*
Y381816D02*
D03*
Y385566D02*
D03*
X538750D02*
D03*
X539688Y318691D02*
D03*
X534375Y406191D02*
D03*
Y399941D02*
D03*
X539375Y424316D02*
D03*
X558125Y395566D02*
D03*
X533750Y411191D02*
D03*
Y434003D02*
D03*
X596875Y348066D02*
D03*
X600625D02*
D03*
X177500Y367441D02*
D03*
X173750D02*
D03*
X562500Y453691D02*
D03*
Y457441D02*
D03*
X410084Y404316D02*
D03*
X469375Y395295D02*
D03*
X553750Y348066D02*
D03*
X375000Y136816D02*
D03*
X371875Y134941D02*
D03*
X470000Y306191D02*
D03*
X443199Y224390D02*
D03*
X472500Y303066D02*
D03*
X404375Y147441D02*
D03*
Y192441D02*
D03*
X434375Y194316D02*
D03*
X515313Y172441D02*
D03*
X532500Y174941D02*
D03*
X591875Y128066D02*
D03*
X536000Y103000D02*
D03*
X525896Y103066D02*
D03*
X506521D02*
D03*
X491250Y119941D02*
D03*
X463125Y274316D02*
D03*
X265000Y303691D02*
D03*
X362500D02*
D03*
X200000Y245266D02*
D03*
X208000Y245266D02*
D03*
X497500Y324016D02*
D03*
X493125Y306191D02*
D03*
X303125Y204316D02*
D03*
X465625Y304941D02*
D03*
X220000Y120566D02*
D03*
X253125Y189316D02*
D03*
X191250Y238691D02*
D03*
X466250Y20566D02*
D03*
X310000Y28691D02*
D03*
X356875Y51191D02*
D03*
X453529Y50345D02*
D03*
X440404Y92845D02*
D03*
X394729Y44316D02*
D03*
X370625Y223962D02*
D03*
X446875Y314941D02*
D03*
X345625Y324941D02*
D03*
X341250Y299941D02*
D03*
Y271191D02*
D03*
X256250Y262441D02*
D03*
X243750Y272441D02*
D03*
X247500Y324316D02*
D03*
X243750Y300566D02*
D03*
X502500Y261816D02*
D03*
X353750Y262441D02*
D03*
X237500Y168066D02*
D03*
X326250Y62441D02*
D03*
X475625Y190566D02*
D03*
X485000Y150295D02*
D03*
X413500Y97170D02*
D03*
X455625Y223691D02*
D03*
X472771Y174628D02*
D03*
X474375Y123066D02*
D03*
X390625Y100295D02*
D03*
X343125Y122441D02*
D03*
X340625Y149316D02*
D03*
Y164587D02*
D03*
X341500Y198646D02*
D03*
X404021Y226191D02*
D03*
X421250D02*
D03*
X408125Y116191D02*
D03*
X391875D02*
D03*
X470625Y117441D02*
D03*
X230000Y121191D02*
D03*
Y126191D02*
D03*
Y141191D02*
D03*
Y151191D02*
D03*
Y156191D02*
D03*
X539375Y163066D02*
D03*
X495313Y157128D02*
D03*
X591875Y134316D02*
D03*
X510625Y172128D02*
D03*
X523125Y174941D02*
D03*
X531604Y103066D02*
D03*
X523125Y98691D02*
D03*
X512229Y103066D02*
D03*
X495625Y108066D02*
D03*
X310000Y41191D02*
D03*
X453125Y265566D02*
D03*
X265000Y308691D02*
D03*
Y278691D02*
D03*
X362500Y308691D02*
D03*
Y278691D02*
D03*
X481250Y314941D02*
D03*
X486250D02*
D03*
X493125Y311191D02*
D03*
X186250Y203066D02*
D03*
X206250Y144941D02*
D03*
X480625Y117441D02*
D03*
X383750Y73691D02*
D03*
X470625Y101816D02*
D03*
Y108066D02*
D03*
X334000Y132416D02*
D03*
X551875Y210566D02*
D03*
X548750D02*
D03*
Y206816D02*
D03*
X551875D02*
D03*
X523125Y244941D02*
D03*
Y248691D02*
D03*
X225625Y189316D02*
D03*
X519375Y244941D02*
D03*
Y248691D02*
D03*
X444375Y28066D02*
D03*
X483125Y26816D02*
D03*
X570625Y210566D02*
D03*
X567500D02*
D03*
X570625Y206816D02*
D03*
X567500D02*
D03*
X564375D02*
D03*
X561250D02*
D03*
X558125D02*
D03*
X555000D02*
D03*
X564375Y210566D02*
D03*
X561250D02*
D03*
X558125D02*
D03*
X441875Y54316D02*
D03*
X453750Y69941D02*
D03*
X213125Y120566D02*
D03*
X388750Y44316D02*
D03*
X440625Y85566D02*
D03*
X381875Y230566D02*
D03*
X589375Y158066D02*
D03*
Y164941D02*
D03*
X555000Y210566D02*
D03*
X479119Y277441D02*
D03*
X461250Y294316D02*
D03*
Y313691D02*
D03*
X495625Y261816D02*
D03*
X191250Y232441D02*
D03*
X286250Y234316D02*
D03*
X266875D02*
D03*
X247500D02*
D03*
X228125D02*
D03*
X344375D02*
D03*
X325000D02*
D03*
X305625D02*
D03*
X255000Y168066D02*
D03*
X335625Y234316D02*
D03*
X316250D02*
D03*
X277500D02*
D03*
X258125D02*
D03*
X238750D02*
D03*
X219375D02*
D03*
X208750Y238691D02*
D03*
X263750Y262441D02*
D03*
X361250D02*
D03*
X481875Y259316D02*
D03*
X358997Y93757D02*
D03*
Y78757D02*
D03*
X225625Y183066D02*
D03*
X213125Y126191D02*
D03*
X341250Y62441D02*
D03*
X225625Y176816D02*
D03*
X375000Y234941D02*
D03*
X428750Y226191D02*
D03*
X455625Y216816D02*
D03*
X475625Y196816D02*
D03*
X478479Y174628D02*
D03*
X485000Y144587D02*
D03*
X474375Y130566D02*
D03*
X440625Y99316D02*
D03*
X413500Y91462D02*
D03*
X395000Y89316D02*
D03*
X339375Y127441D02*
D03*
X341500Y204354D02*
D03*
X340625Y170295D02*
D03*
Y156816D02*
D03*
X409729Y226191D02*
D03*
X262500Y37441D02*
D03*
Y62441D02*
D03*
Y57441D02*
D03*
Y52441D02*
D03*
Y47441D02*
D03*
Y42441D02*
D03*
Y27441D02*
D03*
Y22441D02*
D03*
X143125Y129316D02*
D03*
X134375Y126816D02*
D03*
X12500Y253691D02*
D03*
X142926Y199316D02*
D03*
X69000Y211000D02*
D03*
X66000D02*
D03*
X41875Y247441D02*
D03*
X215000Y40566D02*
D03*
X83750Y156816D02*
D03*
X108750Y67441D02*
D03*
X72000Y208000D02*
D03*
X263800Y84941D02*
D03*
X137500Y110253D02*
D03*
X237500Y9941D02*
D03*
X128750Y221816D02*
D03*
X66000Y208000D02*
D03*
X72000Y211000D02*
D03*
X14375Y119316D02*
D03*
X48125Y126191D02*
D03*
X128750Y206191D02*
D03*
X137500Y254941D02*
D03*
X145625Y281816D02*
D03*
X147500Y249941D02*
D03*
X263800Y78691D02*
D03*
X73750Y156816D02*
D03*
X145625Y142441D02*
D03*
X148750Y138691D02*
D03*
X109375Y74316D02*
D03*
X51250Y78066D02*
D03*
X133750Y103378D02*
D03*
X111875Y69941D02*
D03*
X126250Y120566D02*
D03*
X116250Y153066D02*
D03*
X53750Y151191D02*
D03*
X46250Y84316D02*
D03*
X17500Y253691D02*
D03*
X151550Y275864D02*
D03*
X147500Y199316D02*
D03*
X48750Y247441D02*
D03*
X131875Y77128D02*
D03*
X111875Y60566D02*
D03*
X115625Y222441D02*
D03*
Y226191D02*
D03*
X119375Y222441D02*
D03*
X239375Y84941D02*
D03*
X255000Y9941D02*
D03*
X123125Y222441D02*
D03*
Y226191D02*
D03*
X119375D02*
D03*
X141250Y249941D02*
D03*
X60000Y151191D02*
D03*
X58750Y78066D02*
D03*
X115625Y74316D02*
D03*
X126250Y135566D02*
D03*
X134375Y99003D02*
D03*
X133750Y110566D02*
D03*
X116250Y159316D02*
D03*
X210625Y267116D02*
D03*
X355000Y43066D02*
D03*
X353125Y156191D02*
D03*
X356875Y68066D02*
D03*
Y46191D02*
D03*
X329375Y27441D02*
D03*
X422500Y54941D02*
D03*
X468125Y420566D02*
D03*
Y433066D02*
D03*
X473125Y351816D02*
D03*
X504375Y401816D02*
D03*
X468125Y351816D02*
D03*
X509375Y401816D02*
D03*
X131250Y174941D02*
D03*
X225000Y357441D02*
D03*
X183750Y296191D02*
D03*
X138125Y88691D02*
D03*
X230000Y52441D02*
D03*
X142500Y88066D02*
D03*
X230000Y57441D02*
D03*
X145625Y89941D02*
D03*
X230000Y62441D02*
D03*
X280625Y139941D02*
D03*
X440000Y43066D02*
D03*
X445000Y186191D02*
D03*
X446250Y69941D02*
D03*
X443750Y95566D02*
D03*
X272500Y181816D02*
D03*
X376875Y183066D02*
D03*
X441250Y182441D02*
D03*
X444375Y102128D02*
D03*
X313125Y181816D02*
D03*
X189375Y218691D02*
D03*
X361875Y211816D02*
D03*
X381875Y204316D02*
D03*
X335625Y192441D02*
D03*
X262500Y143691D02*
D03*
Y151191D02*
D03*
X198125Y132441D02*
D03*
X273125Y126191D02*
D03*
X203125Y132441D02*
D03*
X273125Y129941D02*
D03*
Y133691D02*
D03*
Y137441D02*
D03*
X420625Y201816D02*
D03*
X411250Y104941D02*
D03*
X420625Y37441D02*
D03*
X418750Y105566D02*
D03*
X416250Y203691D02*
D03*
D167*
X581250Y377441D02*
D03*
X573750D02*
D03*
X577500D02*
D03*
D169*
X359331Y406575D02*
X359375D01*
M02*
