M48
;Layer_Color=9474304
;FILE_FORMAT=2:5
INCH,LZ
;TYPE=PLATED
T1F00S00C0.01181
T2F00S00C0.01575
T3F00S00C0.01968
T4F00S00C0.03386
T5F00S00C0.03937
T6F00S00C0.03937
T7F00S00C0.04000
T8F00S00C0.12598
;TYPE=NON_PLATED
T9F00S00C0.03543
T10F00S00C0.11799
%
T01
X023Y0017441
Y0022441
Y0027441
Y0032441
Y0042441
Y0047441
Y0052441
X0215Y0040566
X02625Y0042441
Y0037441
Y0047441
Y0052441
Y0027441
Y0022441
X0255Y0009941
X02375
X031Y0028691
Y0041191
X0331875Y0031191
X0329375Y0027441
X0355Y0043066
X0356875Y0046191
Y0051191
X03725Y0034941
X038875Y0044316
X0394729
X0420625Y0037441
X04235Y0035
X04285Y00375
X0434
X0435625Y0043125
X044Y0043066
X0450625Y0043691
X0448125Y0046816
X0453529Y0050345
X0441875Y0054316
X04265Y00515
X04225Y0054941
X0444375Y0028066
X046625Y0020566
X0483125Y0026816
X0525896Y0103066
X0531604
X0536Y0103
X0559375Y0091191
X056375
X057125Y0089316
X057375Y0094941
Y0106816
X057125Y0109941
X05675Y0106816
Y0081816
X057375Y0143691
X0576875Y0151816
X0589375Y0158066
Y0164941
X06Y0151816
Y0148066
X060375
X06075
X061125
X0615
Y0151816
X061125
X06075
X060375
X0591875Y0134316
Y0128066
X0539375Y0163066
X053Y0163691
X0527Y0165
X05325Y0174941
X0529375Y0180566
X0525625Y0181816
X054875Y0206816
X0551875
X0555
X0558125
X056125
X0564375
X05675
X0570625
Y0210566
X05675
X0564375
X056125
X0558125
X0555
X0551875
X054875
X0510625Y0207441
X0513125Y0204316
X0505625Y0201191
X050125
X0500625Y0197441
X049875Y0194316
X0498125Y0190566
X0495625Y0188066
X0493125Y0185566
Y0173691
X0491875Y0169941
X049Y0166816
X0489375Y0163066
X0485Y0161503
Y0150295
Y0144587
X0480625Y0134941
X049
X049375
X0493125Y0138691
X0496875
X05025Y0141191
X0503125Y0136503
X0505625Y0139003
X05075Y0122128
X0503125Y0119941
X049125
X0480625Y0117441
X0470625
X0474375Y0123066
Y0130566
X046875Y0136816
X046625Y0139316
X046375Y0136816
X04525Y01375
X04465Y0137
X044625Y0125566
X044375Y0122441
X0446Y0117
X0445625Y0105566
X0444375Y0102128
X0440625Y0099316
X0440404Y0092845
X044375Y0095566
X044625Y0091191
Y0086191
X0440625Y0085566
X0456875Y0084941
X0454375Y0090566
X0450625Y0096816
X0451875Y0100566
X0468125Y0097441
X0470625Y0101816
Y0108066
X046125Y0115566
X048625Y0129941
X0495Y0152441
X05
X0495313Y0157128
X05075Y0164
X0510625Y0163066
X05175Y0163691
X052Y0167441
X0515313Y0172441
X0510625Y0172128
X0509375Y0175566
X0523125Y0174941
X052Y0183066
X051625Y0184316
X0503125Y0208691
X0484596Y0194537
X0475625Y0196816
Y0190566
X0466948Y0186
X0472771Y0174628
X0478479
X046875Y0159941
X04475Y0153691
Y0148066
X04425Y0161816
X044625Y0166816
X0448Y0171
Y0175
X0451Y01775
X0450849Y018122
X0445Y0186191
Y0189941
X04475Y0196816
X0436875Y0191816
X0434375Y0194316
X0431847Y0202592
X04285Y0203
X042547Y02035
X0420625Y0201816
X041625Y0203691
X0415Y0189941
X0414375Y0180566
X0411875Y0171816
X0404375Y0192441
X0379375Y0199316
X0376875Y0196816
X037125Y0198066
X0381875Y0204316
X0376875Y0183066
X036875Y0182441
X0371875Y0134941
X0375Y0136816
X0378125Y0138691
X038125Y0140566
X0369Y01255
X0375625Y0102441
X0390625Y0100295
X0395Y0089316
X04135Y0091462
Y009717
X041375Y0102441
X041125Y0104941
X041875Y0105566
X0419Y01015
X042125Y0087441
X0423438Y0084628
X04225Y0067441
X042125Y0060566
X04385Y0059
X044625Y0069941
X045375
X0468125Y0073691
X0478Y00675
Y00565
X04925
Y00675
X048Y0088066
X0495625Y0108066
X0506521Y0103066
X0512229
X0523125Y0098691
X04215Y01205
X0417Y0122
X04145Y01245
X04155Y0117
X0408125Y0116191
X0391875
X0404375Y0147441
X044125Y0182441
X0454375Y0212441
X0464Y0204
X040625Y0068647
X0401875Y0072441
X038375Y0073691
X0358997Y0078757
X0356875Y0068066
X034125Y0062441
X032625
X033875Y0096191
X0358997Y0093757
X03675Y01225
X0368543Y01285
X0366Y0156
X03685Y01595
X03675Y0173691
X035125Y0174316
X035375Y0167441
X03525Y0163691
Y0159941
X0353125Y0156191
X0340625Y0156816
Y0149316
X0334375Y0140566
X0331875Y0143066
X0334Y0132416
X0339375Y0127441
X033875Y0123691
X0343125Y0122441
X0340625Y0164587
Y0170295
X03325Y0172441
X03175Y0174316
X0315Y0176816
X0313125Y0181816
X0323125Y0195566
Y0199316
X033125Y0205566
X0335
X03415Y0204354
Y0198646
X034Y0188066
X034375
X03485Y0189
X03515Y0187
X03525Y0183691
X03475Y0181816
X0335625Y0192441
X036625Y0191816
X0361875Y0211816
X0358125Y0210566
X0354375
X0303125Y0204316
X02775Y0183066
X02725Y0181816
Y0185566
X0253125Y0183066
Y0176816
X0255Y0168066
X02375
X023Y0156191
Y0151191
Y0141191
Y0136816
Y0126191
Y0121191
X022Y0120566
X0213125
Y0116191
Y0126191
X0273125
Y0129941
Y0133691
Y0137441
X027625Y0139941
X0280625
X02625Y0138691
Y0143691
Y0151191
X0253125Y0189316
X0225625
Y0183066
Y0176816
X0239375Y0084941
X024375Y0068691
X023Y0062441
Y0057441
X02625
Y0062441
X02638Y0072441
Y0078691
Y0084941
X0203125Y0132441
X0198125
X020625Y0144941
X0145625Y0142441
X014875Y0138691
X0143125Y0129316
X0134375Y0126816
X012625Y0120566
Y0135566
X01205Y01435
X0123125Y0146191
X011625Y0153066
Y0159316
X0128125Y0164316
X013125Y0167441
X01375
X013125Y0174941
X012875Y0206191
X0142926Y0199316
X01475
X018625Y0203066
X0072Y0208
X0069
Y0211
X0066
Y0208
X0072Y0211
X007375Y0156816
X006625
X006Y0151191
X00665Y0137
X008375Y0156816
X0106Y0134
X0112
X0113266Y0129515
X011Y013
X0109Y0127
X01095Y01225
X011125Y0118691
X013375Y0110566
X01375Y0110253
X013375Y0103378
X0134375Y0099003
X0135625Y0086191
Y0082441
X0138125Y0088691
X01425Y0088066
X0145625Y0089941
X0131875Y0077128
X013125Y0067441
X0111875Y0069941
X010875Y0067441
X0109375Y0074316
X0115625
X011875Y0088066
X010125Y0091191
X00905Y00915
X009125Y0076816
X008875Y0070566
X0084375
X008
X0074375Y0071191
X007Y0071816
X006875Y0075566
X0064375Y0076191
X00665Y0079941
X005875Y0078066
X0076875Y0074316
X0095Y0071191
X01Y0066816
X0111875Y0060566
X00725Y00915
X00655Y0099
X0055Y0076191
X005125Y0078066
X004625Y0084316
Y0119941
X0049375Y0117441
X0048125Y0126191
X0052Y01375
X004625Y0144316
X004875Y0152441
X005375Y0151191
X0014375Y0119316
X00125Y0253691
X00175
X00225
X00275
X0041875Y0247441
X004875
X004375Y0241191
X004625Y0234941
X004875Y0310566
X0024375Y0307441
X001875Y0303691
X00345Y0334
X003875Y0333691
X0036875Y0340566
X004125Y0339941
X0038125Y0367441
X00438Y03685
X00475Y0365566
X017375Y0367441
X01775
X018625Y0360566
X01875Y0353066
X018625Y0346191
X0201875Y0351191
X018375Y0296191
X0179518Y0286783
X01895Y02865
X0194055Y0269931
X0202713Y027381
X0210625Y0267116
X0208Y0245266
X020875Y0238691
X02Y0245266
X0198125Y0233066
X019125Y0232441
Y0238691
X0189375Y0218691
X0149688Y0226503
X015Y0230566
X01475Y0249941
X014125
X01375Y0250566
Y0254941
X014Y0281191
X0145625Y0281816
X015155Y0275864
X0151171Y0290079
X0183317Y0267079
X012875Y0221816
X0123125Y0222441
X0119375
X0115625
Y0226191
X0119375
X0123125
X0219375Y0234316
X0228125
X023875
X02475
X0258125
X0266875
X02775
X028625
X0296875
X0305625
X031625
X0325
X0335625
X0344375
X0354375Y0233691
X0351875Y0230566
X0356875
X03425Y0249941
X034125Y0271191
X035375Y0262441
X036125
X03625Y0278691
Y0283691
Y0288691
Y0293691
Y0303691
Y0308691
X034625Y0306191
X034125Y0299941
X0318125
Y0312441
X029375
X0300625Y0322441
X02975Y0334316
X029375Y0354941
X026Y0348066
X02475
Y0324316
X024375Y0300566
X0220625Y0299941
Y0312441
Y0284316
Y0271816
X024375Y0272441
X025625Y0262441
X026375
X0265Y0278691
Y0283691
Y0288691
Y0293691
Y0303691
Y0308691
X02875Y0278691
X0285625Y0274316
X030375Y0273691
X0304375Y02665
X0318125Y0271191
Y0283691
X0345625Y0324941
X0345Y0348066
X03575
X0225Y0357441
X023125Y0221191
X0370625Y0223962
X0375Y0234941
X0381875Y0230566
X0395Y02425
X0398809Y024
X0401295Y0236235
X0404021Y0226191
X0409729
X042125
X042875
X0443199Y022439
X044Y0220566
X04395Y02175
X0445625Y0219316
X0455625Y0216816
Y0223691
X0460625Y0241816
X0458125Y0245566
X0468125Y0248691
X0481875Y0259316
X0485625Y0264316
X0495625Y0261816
X05025
X0519375Y0248691
X0523125
Y0244941
X0519375
X0477447Y0230397
X047407Y02295
X043875Y0234941
X044125Y0241191
X0453125Y0265566
X0463125Y0274316
X0460625Y0278066
Y0284316
X046125Y0294316
X0465625Y0304941
X047Y0306191
X04725Y0303066
X048125Y0314941
X048625
X0493125Y0311191
Y0306191
X0490625Y0299316
Y0291191
X0479119Y0277441
X046125Y0313691
X0446875Y0314941
X0420625Y0316816
X03975Y0322441
Y0327441
X0394375Y0334316
X0393125Y0339316
X0391875Y0313066
X0385Y0278691
X03825Y0275
X040125Y027475
Y0266566
X041Y0274316
X0415625Y0356191
X0424375Y0363066
X046125Y0366191
X0465
X0468125Y0351816
X0473125
X048125Y0352441
X048625
X0504375Y0351191
X0504072Y0362
X0507643
X0511214
X0514786
X0518357
X0521929
X0521857Y03655
X0518286
X0514714
X0511143
X0507572
X0504
X04975Y0324016
X037Y0358066
X05255Y0362
X0529072
X0529Y03655
X0525429
X055375Y0348066
X053875Y0331191
X0539688Y0318691
X0545Y0293691
X054375Y0286191
Y0281191
X0596875Y0348066
X0600625
Y0355566
X0596875
X05965Y037075
X05915
X0594Y03745
X0599
X0604
X0609
X0614
X0619
X06165Y037075
X06115
X06065
X06015
X0589Y03745
X055625Y0378066
Y0381816
Y0385566
X0558125Y0395566
X0564375Y0394941
X0549375Y0395566
X0544729Y03957
X0534375Y0399941
Y0406191
X053375Y0411191
X0526875
X0539375Y0424316
X053375Y0434003
X05586Y04244
X05625Y0453691
Y0457441
X053875Y0385566
Y0381816
Y0378066
X048875Y0377441
Y0384941
X049125Y0396191
X0504375Y0401816
X0509375
X04909Y04246
X04825Y04318
X0468125Y0433066
Y0420566
X04575Y0409316
Y0396816
X0469375Y0395295
Y0389587
X0480625Y0378691
X0433125Y0381816
X0429Y03835
X043Y039
X04235Y0388
X0410084Y0404316
X0404375
X0405625Y0424941
Y0434316
X045Y0438
X0446875Y0423691
X0364375Y04239
Y0434316
X0323125
Y0425566
X0281875Y0424941
Y0434316
X0240625
Y0425566
X022775Y03895
X0224
X022025
X02165
X021275
Y03775
X02165
X022025
X0224
X022775
X02975Y0377441
X0300625Y0374316
X0303125Y0371816
X01775Y0374316
X017375
X01825Y04185
X0179375Y0424941
X00375Y0432441
X0030625
X00401Y03717
T02
X057375Y0377441
X05775
X058125
T03
X0604675Y0132623
X0018307Y0230886
T04
X0299331Y0010745
X0309331
X0319331
X0329331
Y0020745
X0319331
X0309331
X0299331
X0339331
Y0010745
X0349331
X0359331
Y0020745
X0349331
X0369331
Y0010745
X0379331
X0389331
X0399331
X0409331
Y0020745
X0399331
X0389331
X0379331
X0476504Y0020756
Y0010756
X0486504
X0496504
X0506504
Y0020756
X0496504
X0486504
X0516504
Y0010756
X0526504
X0536504
X0546504
X0556504
X0566504
X0576504
X0586504
Y0020756
X0576504
X0566504
X0556504
X0546504
X0536504
X0526504
T05
X0111713Y0244606
Y0254606
Y0264606
Y0274606
Y0294606
Y0304606
Y0314606
T06
X00225Y001437
Y002437
X00325
Y001437
Y003437
X00225
Y004437
Y005437
X00325
Y004437
X0427913Y0020748
Y0010748
X0437913
X0447913
X0457913
Y0020748
X0447913
X0437913
X022125Y0079941
Y0089941
X0218125Y0201816
X0228125
X0238125
X0260625
X0270625
X0190039Y0190669
X0180039
Y0180669
Y0170669
Y0160669
Y0150669
Y0140669
Y0130669
Y0120669
X0190039
Y0130669
Y0140669
Y0150669
Y0160669
Y0170669
Y0180669
X0032559
X0022559
Y0170669
Y0160669
Y0150669
Y0140669
Y0130669
Y0120669
X0032559
Y0130669
Y0140669
Y0150669
Y0160669
Y0170669
Y0190669
X0022559
X00225Y006437
X00325
X018244Y0276287
X019244
X055125Y0313741
Y0323741
X061125
Y0313741
Y0253741
Y0233741
X055125
X0369331Y0396575
Y0406575
X0359331
Y0396575
X0349331
X0339331
Y0406575
X0349331
X0158701
Y0396575
X0148701
X0138701
X0128701
Y0406575
X0138701
X0148701
X0117362
Y0396575
X0107362
X0097362
X0087362
Y0406575
X0097362
X0107362
T07
X0541598Y0433642
Y0445441
X0553402
Y0433642
X0583252
X0595
X0606748
Y0445441
X0595
X0583252
X0512152
Y0433642
X0500348
Y0445441
X0429652
Y0433642
X0417848
Y0445441
X0388402
Y0433642
X0376598
Y0445441
X0347152
Y0433642
X0335348
Y0445441
X0305902
Y0433642
X0294098
Y0445441
X0264652
Y0433642
X0252848
Y0445441
X0223402
Y0433642
X0211598
Y0445441
X018189
Y0433642
X0151535
Y0445441
X0139736
X0127937
Y0433642
X0139736
X0116138
Y0445441
X0104334
Y0433642
X0092535
Y0445441
X0080736
X0068937
Y0433642
X0080736
T08
X0602362Y0098425
X0307087
X0185039
X0027559
X0602362Y0393701
X0307087
X0185039
X0027559
T09
X0456377Y04557
X04737
X0038682Y0455864
X0021359
T10
X05475Y0462441
X0595
X050625
X042375
X03825
X034125
X03
X025875
X02175
X018189
X0143086
X0077386
M30
