G04*
G04 #@! TF.GenerationSoftware,Altium Limited,Altium Designer,21.4.1 (30)*
G04*
G04 Layer_Color=8388736*
%FSLAX25Y25*%
%MOIN*%
G70*
G04*
G04 #@! TF.SameCoordinates,ABD127B9-61DE-435D-9B50-71DF74D21850*
G04*
G04*
G04 #@! TF.FilePolarity,Positive*
G04*
G01*
G75*
G36*
X186738Y281893D02*
X184137D01*
Y282174D01*
X186738D01*
Y281893D01*
D02*
G37*
G36*
X197956Y281334D02*
X197988D01*
X198025Y281329D01*
X198108Y281315D01*
X198200Y281292D01*
X198302Y281260D01*
X198394Y281213D01*
X198477Y281153D01*
X198487Y281144D01*
X198510Y281121D01*
X198542Y281080D01*
X198579Y281024D01*
X198616Y280955D01*
X198649Y280876D01*
X198672Y280779D01*
X198676Y280733D01*
X198681Y280678D01*
Y280668D01*
Y280650D01*
X198676Y280617D01*
X198672Y280576D01*
X198662Y280525D01*
X198649Y280474D01*
X198630Y280419D01*
X198607Y280368D01*
X198602Y280363D01*
X198593Y280345D01*
X198575Y280317D01*
X198551Y280285D01*
X198524Y280248D01*
X198487Y280211D01*
X198450Y280174D01*
X198404Y280142D01*
X198399Y280137D01*
X198380Y280128D01*
X198357Y280109D01*
X198320Y280091D01*
X198279Y280072D01*
X198228Y280049D01*
X198177Y280031D01*
X198117Y280012D01*
X198113D01*
X198094Y280008D01*
X198066Y279998D01*
X198029Y279994D01*
X197983Y279985D01*
X197923Y279975D01*
X197854Y279961D01*
X197771Y279952D01*
X197766D01*
X197748Y279948D01*
X197724D01*
X197692Y279943D01*
X197655Y279938D01*
X197609Y279929D01*
X197558Y279925D01*
X197503Y279915D01*
X197392Y279892D01*
X197272Y279869D01*
X197166Y279841D01*
X197115Y279827D01*
X197068Y279814D01*
Y279809D01*
Y279800D01*
X197064Y279772D01*
Y279740D01*
Y279721D01*
Y279712D01*
Y279707D01*
Y279703D01*
Y279675D01*
X197068Y279629D01*
X197078Y279578D01*
X197091Y279523D01*
X197115Y279467D01*
X197142Y279416D01*
X197179Y279375D01*
X197184Y279370D01*
X197207Y279352D01*
X197244Y279333D01*
X197290Y279305D01*
X197355Y279282D01*
X197429Y279259D01*
X197521Y279245D01*
X197627Y279241D01*
X197674D01*
X197720Y279245D01*
X197784Y279255D01*
X197849Y279264D01*
X197918Y279282D01*
X197983Y279305D01*
X198039Y279338D01*
X198043Y279342D01*
X198062Y279356D01*
X198085Y279379D01*
X198113Y279416D01*
X198140Y279463D01*
X198173Y279523D01*
X198200Y279596D01*
X198228Y279680D01*
X198611Y279629D01*
Y279624D01*
X198607Y279620D01*
Y279606D01*
X198602Y279587D01*
X198588Y279546D01*
X198570Y279486D01*
X198547Y279426D01*
X198519Y279361D01*
X198482Y279296D01*
X198441Y279236D01*
X198436Y279232D01*
X198417Y279213D01*
X198390Y279185D01*
X198353Y279148D01*
X198302Y279111D01*
X198242Y279074D01*
X198173Y279033D01*
X198094Y279000D01*
X198090D01*
X198085Y278996D01*
X198071Y278991D01*
X198053Y278987D01*
X198006Y278973D01*
X197942Y278959D01*
X197868Y278945D01*
X197775Y278931D01*
X197678Y278922D01*
X197567Y278917D01*
X197517D01*
X197466Y278922D01*
X197397Y278927D01*
X197318Y278936D01*
X197239Y278950D01*
X197161Y278968D01*
X197087Y278991D01*
X197078Y278996D01*
X197055Y279005D01*
X197022Y279019D01*
X196981Y279037D01*
X196934Y279065D01*
X196888Y279093D01*
X196847Y279130D01*
X196810Y279167D01*
X196805Y279171D01*
X196796Y279185D01*
X196782Y279208D01*
X196764Y279236D01*
X196740Y279278D01*
X196722Y279319D01*
X196704Y279370D01*
X196690Y279430D01*
Y279435D01*
X196685Y279449D01*
X196680Y279476D01*
X196676Y279513D01*
Y279564D01*
X196671Y279624D01*
X196667Y279703D01*
Y279790D01*
Y280317D01*
Y280322D01*
Y280340D01*
Y280368D01*
Y280405D01*
Y280447D01*
Y280497D01*
X196662Y280608D01*
Y280724D01*
X196657Y280839D01*
X196653Y280890D01*
Y280936D01*
X196648Y280978D01*
X196643Y281010D01*
Y281015D01*
X196639Y281033D01*
X196634Y281061D01*
X196620Y281098D01*
X196611Y281140D01*
X196593Y281186D01*
X196570Y281237D01*
X196546Y281287D01*
X196958D01*
X196962Y281283D01*
X196967Y281264D01*
X196976Y281241D01*
X196990Y281204D01*
X197004Y281163D01*
X197013Y281112D01*
X197022Y281056D01*
X197031Y280996D01*
X197036D01*
X197041Y281006D01*
X197068Y281029D01*
X197110Y281061D01*
X197166Y281103D01*
X197235Y281144D01*
X197304Y281190D01*
X197378Y281232D01*
X197457Y281264D01*
X197466Y281269D01*
X197494Y281274D01*
X197535Y281287D01*
X197586Y281301D01*
X197651Y281315D01*
X197724Y281324D01*
X197808Y281334D01*
X197891Y281338D01*
X197928D01*
X197956Y281334D01*
D02*
G37*
G36*
X200025D02*
X200062D01*
X200108Y281329D01*
X200155Y281324D01*
X200205Y281315D01*
X200316Y281292D01*
X200432Y281260D01*
X200543Y281213D01*
X200593Y281186D01*
X200640Y281153D01*
X200644Y281149D01*
X200649Y281144D01*
X200677Y281117D01*
X200718Y281075D01*
X200764Y281010D01*
X200815Y280932D01*
X200866Y280839D01*
X200908Y280724D01*
X200940Y280594D01*
X200552Y280534D01*
Y280539D01*
Y280544D01*
X200543Y280571D01*
X200533Y280617D01*
X200515Y280668D01*
X200492Y280724D01*
X200464Y280784D01*
X200423Y280844D01*
X200372Y280895D01*
X200362Y280899D01*
X200344Y280913D01*
X200307Y280932D01*
X200261Y280955D01*
X200201Y280978D01*
X200132Y280996D01*
X200048Y281010D01*
X199951Y281015D01*
X199905D01*
X199859Y281010D01*
X199799Y281001D01*
X199734Y280987D01*
X199665Y280969D01*
X199605Y280945D01*
X199549Y280909D01*
X199545Y280904D01*
X199526Y280890D01*
X199508Y280867D01*
X199480Y280835D01*
X199457Y280798D01*
X199434Y280751D01*
X199420Y280705D01*
X199415Y280650D01*
Y280645D01*
Y280627D01*
X199420Y280604D01*
X199429Y280571D01*
X199443Y280539D01*
X199466Y280507D01*
X199494Y280470D01*
X199536Y280442D01*
X199540Y280437D01*
X199554Y280433D01*
X199577Y280419D01*
X199614Y280405D01*
X199670Y280386D01*
X199702Y280373D01*
X199739Y280363D01*
X199780Y280349D01*
X199827Y280336D01*
X199877Y280322D01*
X199937Y280308D01*
X199942D01*
X199956Y280303D01*
X199979Y280299D01*
X200007Y280290D01*
X200044Y280280D01*
X200085Y280266D01*
X200173Y280243D01*
X200275Y280211D01*
X200372Y280183D01*
X200464Y280151D01*
X200506Y280132D01*
X200538Y280118D01*
X200547Y280114D01*
X200566Y280105D01*
X200593Y280086D01*
X200630Y280063D01*
X200672Y280031D01*
X200714Y279994D01*
X200755Y279952D01*
X200792Y279901D01*
X200797Y279897D01*
X200806Y279878D01*
X200820Y279846D01*
X200834Y279809D01*
X200848Y279763D01*
X200862Y279707D01*
X200871Y279652D01*
X200875Y279587D01*
Y279578D01*
Y279559D01*
X200871Y279532D01*
X200866Y279490D01*
X200857Y279449D01*
X200848Y279398D01*
X200829Y279352D01*
X200806Y279301D01*
X200801Y279296D01*
X200792Y279278D01*
X200778Y279255D01*
X200755Y279222D01*
X200728Y279190D01*
X200695Y279148D01*
X200658Y279111D01*
X200612Y279079D01*
X200607Y279074D01*
X200593Y279070D01*
X200575Y279056D01*
X200547Y279042D01*
X200510Y279024D01*
X200469Y279005D01*
X200418Y278987D01*
X200362Y278968D01*
X200353Y278963D01*
X200335Y278959D01*
X200302Y278950D01*
X200261Y278940D01*
X200210Y278931D01*
X200155Y278927D01*
X200090Y278917D01*
X199979D01*
X199928Y278922D01*
X199859Y278927D01*
X199785Y278936D01*
X199706Y278954D01*
X199623Y278973D01*
X199545Y279000D01*
X199540D01*
X199536Y279005D01*
X199512Y279014D01*
X199476Y279033D01*
X199429Y279056D01*
X199378Y279088D01*
X199328Y279125D01*
X199281Y279167D01*
X199240Y279213D01*
X199235Y279218D01*
X199226Y279236D01*
X199207Y279269D01*
X199184Y279305D01*
X199161Y279361D01*
X199138Y279421D01*
X199120Y279490D01*
X199101Y279569D01*
X199485Y279620D01*
Y279610D01*
X199489Y279592D01*
X199499Y279559D01*
X199512Y279518D01*
X199536Y279476D01*
X199563Y279430D01*
X199596Y279384D01*
X199642Y279342D01*
X199646Y279338D01*
X199665Y279328D01*
X199693Y279310D01*
X199734Y279292D01*
X199780Y279273D01*
X199840Y279255D01*
X199914Y279245D01*
X199993Y279241D01*
X200039D01*
X200085Y279245D01*
X200145Y279250D01*
X200205Y279264D01*
X200270Y279278D01*
X200330Y279301D01*
X200381Y279333D01*
X200386Y279338D01*
X200399Y279347D01*
X200418Y279365D01*
X200436Y279393D01*
X200460Y279421D01*
X200478Y279458D01*
X200492Y279500D01*
X200497Y279541D01*
Y279546D01*
Y279555D01*
X200492Y279569D01*
Y279587D01*
X200478Y279633D01*
X200450Y279680D01*
X200446Y279684D01*
X200441Y279689D01*
X200432Y279703D01*
X200413Y279717D01*
X200395Y279731D01*
X200367Y279749D01*
X200335Y279763D01*
X200298Y279781D01*
X200293D01*
X200284Y279786D01*
X200266Y279790D01*
X200233Y279804D01*
X200187Y279818D01*
X200127Y279832D01*
X200090Y279846D01*
X200048Y279855D01*
X200002Y279869D01*
X199951Y279883D01*
X199947D01*
X199933Y279888D01*
X199910Y279892D01*
X199882Y279901D01*
X199850Y279911D01*
X199808Y279920D01*
X199720Y279948D01*
X199623Y279975D01*
X199526Y280008D01*
X199439Y280040D01*
X199401Y280054D01*
X199369Y280068D01*
X199360Y280072D01*
X199341Y280082D01*
X199314Y280095D01*
X199272Y280118D01*
X199231Y280146D01*
X199189Y280183D01*
X199147Y280225D01*
X199110Y280271D01*
X199106Y280276D01*
X199097Y280294D01*
X199078Y280322D01*
X199060Y280363D01*
X199046Y280414D01*
X199027Y280470D01*
X199018Y280534D01*
X199013Y280608D01*
Y280617D01*
Y280641D01*
X199018Y280678D01*
X199027Y280728D01*
X199041Y280784D01*
X199064Y280844D01*
X199092Y280913D01*
X199129Y280978D01*
X199134Y280987D01*
X199152Y281006D01*
X199175Y281038D01*
X199212Y281075D01*
X199263Y281117D01*
X199318Y281163D01*
X199383Y281204D01*
X199462Y281246D01*
X199466D01*
X199471Y281250D01*
X199499Y281260D01*
X199545Y281274D01*
X199605Y281292D01*
X199679Y281311D01*
X199762Y281324D01*
X199850Y281334D01*
X199951Y281338D01*
X199993D01*
X200025Y281334D01*
D02*
G37*
G36*
X180002Y281338D02*
X180044D01*
X180090Y281334D01*
X180145Y281329D01*
X180261Y281311D01*
X180381Y281292D01*
X180501Y281260D01*
X180617Y281218D01*
X180621D01*
X180631Y281213D01*
X180644Y281204D01*
X180663Y281195D01*
X180718Y281167D01*
X180783Y281126D01*
X180857Y281070D01*
X180935Y281006D01*
X181009Y280927D01*
X181079Y280839D01*
Y280835D01*
X181088Y280825D01*
X181093Y280812D01*
X181106Y280793D01*
X181116Y280770D01*
X181129Y280742D01*
X181162Y280673D01*
X181194Y280585D01*
X181222Y280488D01*
X181240Y280377D01*
X181250Y280262D01*
X180852Y280225D01*
Y280229D01*
Y280234D01*
X180848Y280248D01*
Y280266D01*
X180838Y280308D01*
X180824Y280368D01*
X180806Y280428D01*
X180788Y280497D01*
X180755Y280562D01*
X180723Y280622D01*
X180718Y280627D01*
X180704Y280645D01*
X180681Y280678D01*
X180644Y280710D01*
X180598Y280751D01*
X180547Y280793D01*
X180478Y280835D01*
X180404Y280872D01*
X180400D01*
X180395Y280876D01*
X180381Y280881D01*
X180367Y280886D01*
X180321Y280899D01*
X180261Y280918D01*
X180187Y280936D01*
X180104Y280950D01*
X180011Y280959D01*
X179910Y280964D01*
X179868D01*
X179822Y280959D01*
X179766Y280955D01*
X179702Y280945D01*
X179628Y280936D01*
X179554Y280918D01*
X179485Y280895D01*
X179475Y280890D01*
X179452Y280881D01*
X179420Y280862D01*
X179378Y280844D01*
X179337Y280812D01*
X179291Y280779D01*
X179244Y280742D01*
X179208Y280696D01*
X179203Y280691D01*
X179194Y280673D01*
X179180Y280650D01*
X179161Y280613D01*
X179143Y280576D01*
X179129Y280530D01*
X179120Y280479D01*
X179115Y280423D01*
Y280419D01*
Y280396D01*
X179120Y280368D01*
X179124Y280331D01*
X179138Y280294D01*
X179152Y280248D01*
X179175Y280202D01*
X179208Y280160D01*
X179212Y280155D01*
X179226Y280142D01*
X179244Y280123D01*
X179277Y280095D01*
X179314Y280068D01*
X179365Y280035D01*
X179425Y280003D01*
X179494Y279975D01*
X179499Y279971D01*
X179522Y279966D01*
X179559Y279952D01*
X179582Y279948D01*
X179614Y279938D01*
X179646Y279925D01*
X179688Y279915D01*
X179734Y279901D01*
X179790Y279888D01*
X179845Y279874D01*
X179910Y279855D01*
X179984Y279837D01*
X180062Y279818D01*
X180067D01*
X180081Y279814D01*
X180104Y279809D01*
X180131Y279800D01*
X180168Y279790D01*
X180210Y279781D01*
X180303Y279754D01*
X180404Y279721D01*
X180510Y279689D01*
X180603Y279657D01*
X180644Y279638D01*
X180681Y279620D01*
X180686D01*
X180691Y279615D01*
X180718Y279596D01*
X180760Y279573D01*
X180806Y279536D01*
X180861Y279495D01*
X180917Y279444D01*
X180972Y279384D01*
X181019Y279319D01*
X181023Y279310D01*
X181037Y279287D01*
X181055Y279250D01*
X181074Y279204D01*
X181093Y279144D01*
X181111Y279074D01*
X181125Y279000D01*
X181129Y278922D01*
Y278917D01*
Y278913D01*
Y278899D01*
Y278880D01*
X181120Y278834D01*
X181111Y278774D01*
X181097Y278705D01*
X181074Y278626D01*
X181042Y278548D01*
X180996Y278469D01*
Y278465D01*
X180991Y278460D01*
X180968Y278432D01*
X180935Y278395D01*
X180894Y278349D01*
X180838Y278298D01*
X180769Y278243D01*
X180686Y278192D01*
X180594Y278146D01*
X180589D01*
X180580Y278141D01*
X180566Y278137D01*
X180547Y278127D01*
X180524Y278118D01*
X180492Y278109D01*
X180423Y278090D01*
X180335Y278072D01*
X180233Y278053D01*
X180127Y278040D01*
X180007Y278035D01*
X179947D01*
X179914Y278040D01*
X179882D01*
X179794Y278049D01*
X179697Y278063D01*
X179596Y278086D01*
X179485Y278114D01*
X179383Y278150D01*
X179378D01*
X179369Y278155D01*
X179355Y278164D01*
X179337Y278173D01*
X179291Y278197D01*
X179231Y278238D01*
X179161Y278284D01*
X179092Y278344D01*
X179027Y278414D01*
X178967Y278492D01*
Y278497D01*
X178963Y278502D01*
X178953Y278515D01*
X178944Y278529D01*
X178921Y278575D01*
X178893Y278636D01*
X178861Y278709D01*
X178838Y278797D01*
X178815Y278890D01*
X178806Y278991D01*
X179212Y279024D01*
Y279019D01*
Y279010D01*
X179217Y278996D01*
X179221Y278973D01*
X179235Y278922D01*
X179254Y278853D01*
X179281Y278779D01*
X179323Y278705D01*
X179374Y278636D01*
X179438Y278571D01*
X179448Y278566D01*
X179471Y278548D01*
X179517Y278520D01*
X179577Y278492D01*
X179656Y278465D01*
X179748Y278437D01*
X179864Y278418D01*
X179993Y278414D01*
X180058D01*
X180085Y278418D01*
X180122Y278423D01*
X180205Y278432D01*
X180298Y278451D01*
X180390Y278474D01*
X180478Y278511D01*
X180515Y278534D01*
X180552Y278557D01*
X180561Y278562D01*
X180580Y278580D01*
X180607Y278612D01*
X180635Y278649D01*
X180667Y278700D01*
X180695Y278756D01*
X180714Y278820D01*
X180723Y278894D01*
Y278904D01*
Y278922D01*
X180718Y278954D01*
X180709Y278991D01*
X180695Y279037D01*
X180672Y279084D01*
X180644Y279130D01*
X180603Y279176D01*
X180598Y279181D01*
X180575Y279194D01*
X180557Y279208D01*
X180538Y279218D01*
X180510Y279232D01*
X180478Y279250D01*
X180436Y279264D01*
X180390Y279282D01*
X180339Y279301D01*
X180279Y279324D01*
X180215Y279342D01*
X180141Y279365D01*
X180058Y279384D01*
X179965Y279407D01*
X179961D01*
X179942Y279412D01*
X179914Y279416D01*
X179882Y279426D01*
X179841Y279435D01*
X179790Y279449D01*
X179739Y279463D01*
X179683Y279476D01*
X179563Y279509D01*
X179448Y279541D01*
X179392Y279559D01*
X179341Y279578D01*
X179295Y279592D01*
X179258Y279610D01*
X179254D01*
X179244Y279615D01*
X179231Y279624D01*
X179212Y279633D01*
X179161Y279661D01*
X179101Y279698D01*
X179032Y279749D01*
X178963Y279804D01*
X178898Y279869D01*
X178842Y279938D01*
X178838Y279948D01*
X178819Y279971D01*
X178801Y280012D01*
X178773Y280068D01*
X178750Y280132D01*
X178727Y280211D01*
X178713Y280299D01*
X178709Y280391D01*
Y280396D01*
Y280400D01*
Y280414D01*
Y280433D01*
X178718Y280484D01*
X178727Y280548D01*
X178745Y280622D01*
X178769Y280701D01*
X178806Y280784D01*
X178856Y280872D01*
Y280876D01*
X178861Y280881D01*
X178884Y280909D01*
X178917Y280950D01*
X178963Y280996D01*
X179023Y281052D01*
X179097Y281112D01*
X179180Y281167D01*
X179277Y281218D01*
X179281D01*
X179291Y281223D01*
X179305Y281227D01*
X179323Y281237D01*
X179351Y281246D01*
X179383Y281260D01*
X179457Y281278D01*
X179545Y281301D01*
X179651Y281324D01*
X179766Y281338D01*
X179891Y281343D01*
X179965D01*
X180002Y281338D01*
D02*
G37*
G36*
X150952D02*
X150993D01*
X151039Y281334D01*
X151095Y281329D01*
X151210Y281311D01*
X151330Y281292D01*
X151451Y281260D01*
X151566Y281218D01*
X151571D01*
X151580Y281213D01*
X151594Y281204D01*
X151612Y281195D01*
X151668Y281167D01*
X151732Y281126D01*
X151806Y281070D01*
X151885Y281006D01*
X151959Y280927D01*
X152028Y280839D01*
Y280835D01*
X152037Y280825D01*
X152042Y280812D01*
X152056Y280793D01*
X152065Y280770D01*
X152079Y280742D01*
X152111Y280673D01*
X152144Y280585D01*
X152171Y280488D01*
X152190Y280377D01*
X152199Y280262D01*
X151802Y280225D01*
Y280229D01*
Y280234D01*
X151797Y280248D01*
Y280266D01*
X151788Y280308D01*
X151774Y280368D01*
X151755Y280428D01*
X151737Y280497D01*
X151705Y280562D01*
X151672Y280622D01*
X151668Y280627D01*
X151654Y280645D01*
X151631Y280678D01*
X151594Y280710D01*
X151548Y280751D01*
X151497Y280793D01*
X151427Y280835D01*
X151354Y280872D01*
X151349D01*
X151344Y280876D01*
X151330Y280881D01*
X151317Y280886D01*
X151270Y280899D01*
X151210Y280918D01*
X151136Y280936D01*
X151053Y280950D01*
X150961Y280959D01*
X150859Y280964D01*
X150818D01*
X150771Y280959D01*
X150716Y280955D01*
X150651Y280945D01*
X150577Y280936D01*
X150504Y280918D01*
X150434Y280895D01*
X150425Y280890D01*
X150402Y280881D01*
X150370Y280862D01*
X150328Y280844D01*
X150286Y280812D01*
X150240Y280779D01*
X150194Y280742D01*
X150157Y280696D01*
X150152Y280691D01*
X150143Y280673D01*
X150129Y280650D01*
X150111Y280613D01*
X150092Y280576D01*
X150078Y280530D01*
X150069Y280479D01*
X150065Y280423D01*
Y280419D01*
Y280396D01*
X150069Y280368D01*
X150074Y280331D01*
X150088Y280294D01*
X150101Y280248D01*
X150125Y280202D01*
X150157Y280160D01*
X150162Y280155D01*
X150175Y280142D01*
X150194Y280123D01*
X150226Y280095D01*
X150263Y280068D01*
X150314Y280035D01*
X150374Y280003D01*
X150443Y279975D01*
X150448Y279971D01*
X150471Y279966D01*
X150508Y279952D01*
X150531Y279948D01*
X150564Y279938D01*
X150596Y279925D01*
X150637Y279915D01*
X150684Y279901D01*
X150739Y279888D01*
X150794Y279874D01*
X150859Y279855D01*
X150933Y279837D01*
X151012Y279818D01*
X151016D01*
X151030Y279814D01*
X151053Y279809D01*
X151081Y279800D01*
X151118Y279790D01*
X151160Y279781D01*
X151252Y279754D01*
X151354Y279721D01*
X151460Y279689D01*
X151552Y279657D01*
X151594Y279638D01*
X151631Y279620D01*
X151635D01*
X151640Y279615D01*
X151668Y279596D01*
X151709Y279573D01*
X151755Y279536D01*
X151811Y279495D01*
X151866Y279444D01*
X151922Y279384D01*
X151968Y279319D01*
X151973Y279310D01*
X151987Y279287D01*
X152005Y279250D01*
X152023Y279204D01*
X152042Y279144D01*
X152060Y279074D01*
X152074Y279000D01*
X152079Y278922D01*
Y278917D01*
Y278913D01*
Y278899D01*
Y278880D01*
X152070Y278834D01*
X152060Y278774D01*
X152047Y278705D01*
X152023Y278626D01*
X151991Y278548D01*
X151945Y278469D01*
Y278465D01*
X151940Y278460D01*
X151917Y278432D01*
X151885Y278395D01*
X151843Y278349D01*
X151788Y278298D01*
X151718Y278243D01*
X151635Y278192D01*
X151543Y278146D01*
X151538D01*
X151529Y278141D01*
X151515Y278137D01*
X151497Y278127D01*
X151474Y278118D01*
X151441Y278109D01*
X151372Y278090D01*
X151284Y278072D01*
X151183Y278053D01*
X151076Y278040D01*
X150956Y278035D01*
X150896D01*
X150864Y278040D01*
X150831D01*
X150744Y278049D01*
X150647Y278063D01*
X150545Y278086D01*
X150434Y278114D01*
X150332Y278150D01*
X150328D01*
X150319Y278155D01*
X150305Y278164D01*
X150286Y278173D01*
X150240Y278197D01*
X150180Y278238D01*
X150111Y278284D01*
X150041Y278344D01*
X149977Y278414D01*
X149917Y278492D01*
Y278497D01*
X149912Y278502D01*
X149903Y278515D01*
X149894Y278529D01*
X149871Y278575D01*
X149843Y278636D01*
X149811Y278709D01*
X149787Y278797D01*
X149764Y278890D01*
X149755Y278991D01*
X150162Y279024D01*
Y279019D01*
Y279010D01*
X150166Y278996D01*
X150171Y278973D01*
X150185Y278922D01*
X150203Y278853D01*
X150231Y278779D01*
X150273Y278705D01*
X150323Y278636D01*
X150388Y278571D01*
X150397Y278566D01*
X150420Y278548D01*
X150467Y278520D01*
X150527Y278492D01*
X150605Y278465D01*
X150698Y278437D01*
X150813Y278418D01*
X150942Y278414D01*
X151007D01*
X151035Y278418D01*
X151072Y278423D01*
X151155Y278432D01*
X151247Y278451D01*
X151340Y278474D01*
X151427Y278511D01*
X151464Y278534D01*
X151501Y278557D01*
X151511Y278562D01*
X151529Y278580D01*
X151557Y278612D01*
X151584Y278649D01*
X151617Y278700D01*
X151645Y278756D01*
X151663Y278820D01*
X151672Y278894D01*
Y278904D01*
Y278922D01*
X151668Y278954D01*
X151658Y278991D01*
X151645Y279037D01*
X151621Y279084D01*
X151594Y279130D01*
X151552Y279176D01*
X151548Y279181D01*
X151524Y279194D01*
X151506Y279208D01*
X151488Y279218D01*
X151460Y279232D01*
X151427Y279250D01*
X151386Y279264D01*
X151340Y279282D01*
X151289Y279301D01*
X151229Y279324D01*
X151164Y279342D01*
X151090Y279365D01*
X151007Y279384D01*
X150915Y279407D01*
X150910D01*
X150891Y279412D01*
X150864Y279416D01*
X150831Y279426D01*
X150790Y279435D01*
X150739Y279449D01*
X150688Y279463D01*
X150633Y279476D01*
X150513Y279509D01*
X150397Y279541D01*
X150342Y279559D01*
X150291Y279578D01*
X150245Y279592D01*
X150208Y279610D01*
X150203D01*
X150194Y279615D01*
X150180Y279624D01*
X150162Y279633D01*
X150111Y279661D01*
X150051Y279698D01*
X149981Y279749D01*
X149912Y279804D01*
X149847Y279869D01*
X149792Y279938D01*
X149787Y279948D01*
X149769Y279971D01*
X149750Y280012D01*
X149723Y280068D01*
X149700Y280132D01*
X149677Y280211D01*
X149663Y280299D01*
X149658Y280391D01*
Y280396D01*
Y280400D01*
Y280414D01*
Y280433D01*
X149667Y280484D01*
X149677Y280548D01*
X149695Y280622D01*
X149718Y280701D01*
X149755Y280784D01*
X149806Y280872D01*
Y280876D01*
X149811Y280881D01*
X149834Y280909D01*
X149866Y280950D01*
X149912Y280996D01*
X149972Y281052D01*
X150046Y281112D01*
X150129Y281167D01*
X150226Y281218D01*
X150231D01*
X150240Y281223D01*
X150254Y281227D01*
X150273Y281237D01*
X150300Y281246D01*
X150332Y281260D01*
X150406Y281278D01*
X150494Y281301D01*
X150601Y281324D01*
X150716Y281338D01*
X150841Y281343D01*
X150915D01*
X150952Y281338D01*
D02*
G37*
G36*
X174116Y279934D02*
X172901D01*
Y280326D01*
X174116D01*
Y279934D01*
D02*
G37*
G36*
X165172D02*
X163957D01*
Y280326D01*
X165172D01*
Y279934D01*
D02*
G37*
G36*
X158713D02*
X157498D01*
Y280326D01*
X158713D01*
Y279934D01*
D02*
G37*
G36*
X153751D02*
X152536D01*
Y280326D01*
X153751D01*
Y279934D01*
D02*
G37*
G36*
X196066Y278968D02*
X195715D01*
Y279301D01*
X195710Y279292D01*
X195696Y279273D01*
X195669Y279241D01*
X195636Y279204D01*
X195595Y279158D01*
X195544Y279111D01*
X195488Y279065D01*
X195424Y279024D01*
X195414Y279019D01*
X195391Y279005D01*
X195354Y278991D01*
X195304Y278968D01*
X195244Y278950D01*
X195174Y278936D01*
X195096Y278922D01*
X195012Y278917D01*
X194971D01*
X194920Y278922D01*
X194865Y278931D01*
X194795Y278945D01*
X194726Y278963D01*
X194657Y278991D01*
X194592Y279028D01*
X194583Y279033D01*
X194564Y279047D01*
X194537Y279070D01*
X194500Y279107D01*
X194463Y279148D01*
X194421Y279199D01*
X194384Y279259D01*
X194357Y279328D01*
X194352Y279324D01*
X194343Y279310D01*
X194329Y279292D01*
X194306Y279264D01*
X194278Y279232D01*
X194246Y279199D01*
X194209Y279162D01*
X194162Y279121D01*
X194112Y279084D01*
X194061Y279047D01*
X194001Y279014D01*
X193936Y278982D01*
X193867Y278954D01*
X193793Y278936D01*
X193719Y278922D01*
X193636Y278917D01*
X193603D01*
X193580Y278922D01*
X193548D01*
X193516Y278927D01*
X193437Y278940D01*
X193354Y278963D01*
X193266Y279000D01*
X193178Y279047D01*
X193105Y279111D01*
X193095Y279121D01*
X193077Y279148D01*
X193044Y279190D01*
X193031Y279222D01*
X193012Y279255D01*
X192994Y279296D01*
X192980Y279338D01*
X192961Y279384D01*
X192947Y279439D01*
X192938Y279495D01*
X192929Y279559D01*
X192920Y279624D01*
Y279698D01*
Y281287D01*
X193312D01*
Y279832D01*
Y279827D01*
Y279823D01*
Y279795D01*
Y279754D01*
X193317Y279703D01*
X193322Y279647D01*
X193326Y279592D01*
X193335Y279536D01*
X193349Y279495D01*
Y279490D01*
X193359Y279476D01*
X193368Y279458D01*
X193382Y279435D01*
X193400Y279407D01*
X193423Y279379D01*
X193451Y279352D01*
X193488Y279324D01*
X193493Y279319D01*
X193506Y279315D01*
X193525Y279305D01*
X193557Y279292D01*
X193590Y279278D01*
X193631Y279269D01*
X193673Y279264D01*
X193724Y279259D01*
X193747D01*
X193765Y279264D01*
X193811Y279269D01*
X193867Y279278D01*
X193931Y279301D01*
X194001Y279328D01*
X194070Y279370D01*
X194135Y279426D01*
X194139Y279435D01*
X194158Y279458D01*
X194186Y279495D01*
X194213Y279550D01*
X194246Y279624D01*
X194269Y279712D01*
X194287Y279818D01*
X194296Y279943D01*
Y281287D01*
X194689D01*
Y279786D01*
Y279781D01*
Y279772D01*
Y279763D01*
Y279744D01*
X194694Y279694D01*
X194703Y279638D01*
X194712Y279573D01*
X194731Y279509D01*
X194754Y279449D01*
X194786Y279393D01*
X194791Y279389D01*
X194805Y279370D01*
X194828Y279352D01*
X194860Y279324D01*
X194902Y279301D01*
X194957Y279278D01*
X195022Y279264D01*
X195100Y279259D01*
X195128D01*
X195160Y279264D01*
X195197Y279269D01*
X195244Y279282D01*
X195299Y279296D01*
X195350Y279319D01*
X195405Y279347D01*
X195410Y279352D01*
X195428Y279365D01*
X195451Y279384D01*
X195484Y279412D01*
X195516Y279449D01*
X195548Y279495D01*
X195581Y279546D01*
X195608Y279606D01*
X195613Y279615D01*
X195618Y279638D01*
X195627Y279675D01*
X195641Y279726D01*
X195655Y279795D01*
X195664Y279878D01*
X195669Y279975D01*
X195673Y280086D01*
Y281287D01*
X196066D01*
Y278968D01*
D02*
G37*
G36*
X187754Y281334D02*
X187796Y281329D01*
X187842Y281320D01*
X187893Y281311D01*
X187949Y281301D01*
X188073Y281264D01*
X188133Y281237D01*
X188198Y281209D01*
X188263Y281172D01*
X188323Y281130D01*
X188383Y281084D01*
X188438Y281029D01*
X188443Y281024D01*
X188452Y281015D01*
X188466Y280996D01*
X188485Y280973D01*
X188503Y280941D01*
X188531Y280899D01*
X188554Y280853D01*
X188582Y280802D01*
X188609Y280742D01*
X188632Y280673D01*
X188660Y280604D01*
X188679Y280521D01*
X188697Y280437D01*
X188711Y280340D01*
X188720Y280243D01*
X188725Y280137D01*
Y280132D01*
Y280118D01*
Y280100D01*
Y280072D01*
X188720Y280040D01*
Y280003D01*
X188716Y279961D01*
X188711Y279915D01*
X188697Y279814D01*
X188674Y279703D01*
X188646Y279592D01*
X188605Y279481D01*
Y279476D01*
X188600Y279467D01*
X188591Y279453D01*
X188582Y279435D01*
X188554Y279384D01*
X188512Y279324D01*
X188457Y279255D01*
X188392Y279185D01*
X188313Y279116D01*
X188226Y279061D01*
X188221D01*
X188212Y279056D01*
X188198Y279047D01*
X188180Y279037D01*
X188156Y279028D01*
X188129Y279014D01*
X188059Y278987D01*
X187981Y278963D01*
X187884Y278940D01*
X187782Y278922D01*
X187671Y278917D01*
X187634D01*
X187607Y278922D01*
X187579D01*
X187542Y278927D01*
X187454Y278940D01*
X187357Y278963D01*
X187256Y279000D01*
X187154Y279047D01*
X187057Y279111D01*
X187052D01*
X187048Y279121D01*
X187020Y279148D01*
X186978Y279190D01*
X186927Y279250D01*
X186877Y279324D01*
X186826Y279416D01*
X186780Y279523D01*
X186747Y279647D01*
X187131Y279707D01*
Y279703D01*
X187135Y279698D01*
X187140Y279670D01*
X187154Y279629D01*
X187177Y279578D01*
X187200Y279523D01*
X187237Y279463D01*
X187279Y279407D01*
X187325Y279361D01*
X187329Y279356D01*
X187348Y279342D01*
X187380Y279324D01*
X187417Y279301D01*
X187468Y279278D01*
X187523Y279259D01*
X187588Y279245D01*
X187657Y279241D01*
X187685D01*
X187708Y279245D01*
X187759Y279250D01*
X187828Y279269D01*
X187902Y279292D01*
X187986Y279328D01*
X188064Y279384D01*
X188101Y279416D01*
X188138Y279453D01*
Y279458D01*
X188147Y279463D01*
X188156Y279476D01*
X188166Y279495D01*
X188180Y279518D01*
X188198Y279546D01*
X188212Y279578D01*
X188230Y279615D01*
X188249Y279661D01*
X188263Y279712D01*
X188281Y279767D01*
X188295Y279827D01*
X188304Y279892D01*
X188313Y279966D01*
X188323Y280045D01*
Y280128D01*
Y280132D01*
Y280146D01*
Y280174D01*
X188318Y280202D01*
Y280243D01*
X188313Y280285D01*
X188300Y280386D01*
X188281Y280497D01*
X188249Y280613D01*
X188207Y280715D01*
X188180Y280765D01*
X188147Y280807D01*
X188138Y280816D01*
X188115Y280839D01*
X188073Y280872D01*
X188022Y280909D01*
X187953Y280950D01*
X187875Y280982D01*
X187782Y281006D01*
X187731Y281010D01*
X187681Y281015D01*
X187671D01*
X187644Y281010D01*
X187597Y281006D01*
X187547Y280996D01*
X187487Y280982D01*
X187422Y280955D01*
X187357Y280922D01*
X187297Y280876D01*
X187288Y280872D01*
X187274Y280849D01*
X187246Y280816D01*
X187214Y280765D01*
X187182Y280705D01*
X187145Y280631D01*
X187117Y280539D01*
X187099Y280437D01*
X186710Y280488D01*
Y280493D01*
X186715Y280507D01*
X186720Y280525D01*
X186724Y280553D01*
X186733Y280590D01*
X186743Y280627D01*
X186775Y280719D01*
X186817Y280816D01*
X186877Y280922D01*
X186951Y281024D01*
X186992Y281070D01*
X187038Y281117D01*
X187043Y281121D01*
X187052Y281126D01*
X187066Y281135D01*
X187085Y281149D01*
X187108Y281167D01*
X187140Y281186D01*
X187177Y281204D01*
X187214Y281227D01*
X187306Y281269D01*
X187417Y281301D01*
X187537Y281329D01*
X187607Y281334D01*
X187676Y281338D01*
X187722D01*
X187754Y281334D01*
D02*
G37*
G36*
X190208D02*
X190249Y281329D01*
X190300Y281320D01*
X190356Y281311D01*
X190416Y281301D01*
X190545Y281264D01*
X190614Y281237D01*
X190679Y281209D01*
X190748Y281172D01*
X190813Y281130D01*
X190873Y281084D01*
X190933Y281029D01*
X190938Y281024D01*
X190947Y281015D01*
X190961Y280996D01*
X190979Y280969D01*
X191002Y280936D01*
X191025Y280899D01*
X191053Y280853D01*
X191081Y280802D01*
X191109Y280742D01*
X191136Y280678D01*
X191159Y280604D01*
X191183Y280525D01*
X191201Y280442D01*
X191215Y280349D01*
X191224Y280253D01*
X191229Y280151D01*
Y280146D01*
Y280123D01*
Y280095D01*
X191224Y280054D01*
X191219Y280003D01*
X191215Y279948D01*
X191206Y279883D01*
X191192Y279818D01*
X191155Y279670D01*
X191132Y279596D01*
X191104Y279518D01*
X191067Y279444D01*
X191025Y279375D01*
X190979Y279305D01*
X190928Y279241D01*
X190924Y279236D01*
X190915Y279227D01*
X190896Y279213D01*
X190873Y279190D01*
X190845Y279167D01*
X190808Y279139D01*
X190767Y279107D01*
X190716Y279079D01*
X190665Y279047D01*
X190605Y279019D01*
X190540Y278991D01*
X190471Y278968D01*
X190397Y278945D01*
X190319Y278931D01*
X190235Y278922D01*
X190148Y278917D01*
X190102D01*
X190069Y278922D01*
X190032Y278927D01*
X189986Y278936D01*
X189935Y278945D01*
X189875Y278959D01*
X189820Y278973D01*
X189755Y278996D01*
X189695Y279019D01*
X189630Y279051D01*
X189566Y279088D01*
X189501Y279130D01*
X189441Y279181D01*
X189385Y279236D01*
X189381Y279241D01*
X189372Y279250D01*
X189358Y279269D01*
X189339Y279296D01*
X189316Y279328D01*
X189293Y279365D01*
X189265Y279412D01*
X189237Y279467D01*
X189210Y279527D01*
X189182Y279592D01*
X189159Y279666D01*
X189136Y279744D01*
X189117Y279832D01*
X189104Y279925D01*
X189094Y280022D01*
X189090Y280128D01*
Y280132D01*
Y280151D01*
Y280183D01*
X189094Y280229D01*
X190827D01*
Y280234D01*
Y280248D01*
X190822Y280266D01*
Y280294D01*
X190818Y280326D01*
X190808Y280363D01*
X190795Y280447D01*
X190767Y280539D01*
X190730Y280641D01*
X190679Y280733D01*
X190614Y280816D01*
X190610D01*
X190605Y280825D01*
X190577Y280849D01*
X190536Y280881D01*
X190480Y280913D01*
X190406Y280950D01*
X190323Y280982D01*
X190231Y281006D01*
X190180Y281010D01*
X190125Y281015D01*
X190088D01*
X190046Y281010D01*
X189995Y281001D01*
X189940Y280987D01*
X189875Y280969D01*
X189815Y280941D01*
X189755Y280904D01*
X189750Y280899D01*
X189727Y280881D01*
X189699Y280853D01*
X189667Y280816D01*
X189630Y280765D01*
X189589Y280701D01*
X189547Y280627D01*
X189510Y280539D01*
X189104Y280590D01*
Y280594D01*
X189108Y280604D01*
X189113Y280622D01*
X189122Y280650D01*
X189136Y280678D01*
X189150Y280715D01*
X189187Y280793D01*
X189233Y280881D01*
X189298Y280973D01*
X189372Y281061D01*
X189464Y281144D01*
X189469D01*
X189478Y281153D01*
X189492Y281163D01*
X189510Y281176D01*
X189538Y281190D01*
X189566Y281204D01*
X189602Y281223D01*
X189644Y281241D01*
X189690Y281260D01*
X189736Y281278D01*
X189852Y281306D01*
X189981Y281329D01*
X190125Y281338D01*
X190175D01*
X190208Y281334D01*
D02*
G37*
G36*
X178422Y278090D02*
X177983D01*
X177507Y280188D01*
Y280192D01*
X177503Y280202D01*
X177498Y280220D01*
X177494Y280243D01*
X177489Y280276D01*
X177480Y280308D01*
X177470Y280349D01*
X177461Y280396D01*
X177438Y280493D01*
X177415Y280604D01*
X177392Y280724D01*
X177369Y280844D01*
Y280839D01*
X177364Y280821D01*
X177355Y280798D01*
X177350Y280761D01*
X177341Y280724D01*
X177327Y280678D01*
X177304Y280576D01*
X177276Y280474D01*
X177267Y280423D01*
X177253Y280377D01*
X177244Y280336D01*
X177235Y280299D01*
X177225Y280271D01*
X177221Y280253D01*
X176616Y278090D01*
X176103D01*
X175650Y279712D01*
Y279717D01*
X175641Y279740D01*
X175632Y279772D01*
X175622Y279814D01*
X175609Y279869D01*
X175590Y279929D01*
X175572Y279998D01*
X175553Y280077D01*
X175530Y280165D01*
X175512Y280253D01*
X175470Y280442D01*
X175428Y280641D01*
X175396Y280844D01*
Y280839D01*
X175391Y280830D01*
Y280812D01*
X175382Y280788D01*
X175378Y280761D01*
X175368Y280728D01*
X175364Y280687D01*
X175350Y280641D01*
X175327Y280539D01*
X175299Y280419D01*
X175271Y280290D01*
X175234Y280146D01*
X174735Y278090D01*
X174306D01*
X175183Y281287D01*
X175599D01*
X176269Y278853D01*
Y278848D01*
X176274Y278839D01*
X176278Y278825D01*
X176283Y278802D01*
X176297Y278751D01*
X176311Y278691D01*
X176329Y278626D01*
X176348Y278566D01*
X176362Y278515D01*
X176366Y278492D01*
X176371Y278478D01*
Y278483D01*
X176375Y278488D01*
X176380Y278515D01*
X176389Y278557D01*
X176403Y278608D01*
X176417Y278663D01*
X176435Y278728D01*
X176449Y278793D01*
X176468Y278853D01*
X177142Y281287D01*
X177586D01*
X178422Y278090D01*
D02*
G37*
G36*
X155572Y281338D02*
X155613D01*
X155664Y281334D01*
X155719Y281324D01*
X155780Y281320D01*
X155913Y281292D01*
X156057Y281260D01*
X156204Y281209D01*
X156279Y281181D01*
X156352Y281144D01*
X156357Y281140D01*
X156371Y281135D01*
X156389Y281121D01*
X156417Y281107D01*
X156449Y281084D01*
X156482Y281061D01*
X156570Y280996D01*
X156662Y280913D01*
X156759Y280812D01*
X156851Y280696D01*
X156934Y280562D01*
Y280557D01*
X156944Y280544D01*
X156953Y280525D01*
X156967Y280493D01*
X156981Y280460D01*
X156995Y280414D01*
X157013Y280368D01*
X157032Y280313D01*
X157050Y280253D01*
X157069Y280183D01*
X157082Y280114D01*
X157096Y280040D01*
X157119Y279878D01*
X157129Y279707D01*
Y279703D01*
Y279684D01*
Y279661D01*
X157124Y279629D01*
Y279587D01*
X157119Y279536D01*
X157110Y279486D01*
X157105Y279426D01*
X157092Y279361D01*
X157082Y279292D01*
X157045Y279144D01*
X156999Y278991D01*
X156934Y278839D01*
X156930Y278834D01*
X156925Y278820D01*
X156916Y278802D01*
X156897Y278774D01*
X156879Y278737D01*
X156856Y278700D01*
X156791Y278612D01*
X156713Y278511D01*
X156616Y278414D01*
X156505Y278317D01*
X156440Y278275D01*
X156376Y278234D01*
X156371Y278229D01*
X156357Y278224D01*
X156339Y278215D01*
X156311Y278201D01*
X156274Y278187D01*
X156232Y278169D01*
X156186Y278150D01*
X156131Y278132D01*
X156071Y278114D01*
X156006Y278100D01*
X155937Y278081D01*
X155863Y278067D01*
X155701Y278044D01*
X155618Y278035D01*
X155470D01*
X155442Y278040D01*
X155405D01*
X155317Y278049D01*
X155220Y278063D01*
X155119Y278086D01*
X155008Y278114D01*
X154902Y278150D01*
X154897D01*
X154888Y278155D01*
X154874Y278160D01*
X154856Y278169D01*
X154805Y278197D01*
X154740Y278229D01*
X154671Y278275D01*
X154597Y278331D01*
X154527Y278391D01*
X154463Y278465D01*
X154454Y278474D01*
X154435Y278502D01*
X154407Y278543D01*
X154370Y278603D01*
X154333Y278677D01*
X154292Y278769D01*
X154250Y278871D01*
X154218Y278987D01*
X154601Y279088D01*
Y279084D01*
X154606Y279079D01*
X154611Y279065D01*
X154615Y279047D01*
X154629Y279005D01*
X154648Y278950D01*
X154675Y278885D01*
X154708Y278825D01*
X154740Y278760D01*
X154782Y278705D01*
X154786Y278700D01*
X154800Y278682D01*
X154828Y278659D01*
X154860Y278626D01*
X154902Y278589D01*
X154957Y278552D01*
X155017Y278515D01*
X155087Y278483D01*
X155096Y278478D01*
X155119Y278469D01*
X155160Y278455D01*
X155216Y278437D01*
X155280Y278423D01*
X155354Y278409D01*
X155438Y278400D01*
X155525Y278395D01*
X155576D01*
X155599Y278400D01*
X155627D01*
X155696Y278404D01*
X155775Y278418D01*
X155863Y278432D01*
X155946Y278455D01*
X156029Y278488D01*
X156038Y278492D01*
X156066Y278502D01*
X156103Y278525D01*
X156149Y278548D01*
X156204Y278585D01*
X156265Y278622D01*
X156320Y278668D01*
X156371Y278719D01*
X156376Y278723D01*
X156394Y278742D01*
X156417Y278774D01*
X156445Y278811D01*
X156477Y278857D01*
X156509Y278913D01*
X156542Y278973D01*
X156574Y279037D01*
Y279042D01*
X156579Y279051D01*
X156583Y279065D01*
X156593Y279088D01*
X156602Y279116D01*
X156611Y279148D01*
X156625Y279185D01*
X156634Y279227D01*
X156657Y279324D01*
X156676Y279435D01*
X156690Y279550D01*
X156694Y279680D01*
Y279684D01*
Y279698D01*
Y279721D01*
X156690Y279749D01*
Y279786D01*
X156685Y279832D01*
X156680Y279878D01*
X156676Y279929D01*
X156657Y280045D01*
X156634Y280165D01*
X156597Y280285D01*
X156551Y280400D01*
Y280405D01*
X156542Y280414D01*
X156537Y280428D01*
X156523Y280447D01*
X156491Y280497D01*
X156440Y280562D01*
X156380Y280631D01*
X156306Y280701D01*
X156218Y280765D01*
X156121Y280825D01*
X156117D01*
X156107Y280830D01*
X156094Y280839D01*
X156071Y280849D01*
X156047Y280858D01*
X156015Y280867D01*
X155941Y280895D01*
X155849Y280918D01*
X155747Y280941D01*
X155636Y280959D01*
X155521Y280964D01*
X155475D01*
X155447Y280959D01*
X155419D01*
X155350Y280950D01*
X155267Y280941D01*
X155179Y280922D01*
X155082Y280895D01*
X154985Y280862D01*
X154980D01*
X154971Y280858D01*
X154962Y280853D01*
X154943Y280844D01*
X154893Y280821D01*
X154837Y280793D01*
X154772Y280761D01*
X154703Y280724D01*
X154638Y280682D01*
X154583Y280636D01*
Y280035D01*
X155525D01*
Y279657D01*
X154167D01*
Y280844D01*
X154172Y280849D01*
X154181Y280853D01*
X154200Y280867D01*
X154223Y280886D01*
X154250Y280904D01*
X154283Y280927D01*
X154324Y280955D01*
X154366Y280982D01*
X154463Y281043D01*
X154574Y281107D01*
X154689Y281167D01*
X154814Y281218D01*
X154818D01*
X154828Y281223D01*
X154846Y281227D01*
X154869Y281237D01*
X154902Y281246D01*
X154939Y281260D01*
X154980Y281269D01*
X155022Y281278D01*
X155123Y281301D01*
X155239Y281324D01*
X155364Y281338D01*
X155493Y281343D01*
X155539D01*
X155572Y281338D01*
D02*
G37*
G36*
X191806Y281315D02*
X191852Y281311D01*
X191908Y281306D01*
X191963Y281292D01*
X192014Y281278D01*
X192065Y281255D01*
X192070Y281250D01*
X192084Y281241D01*
X192102Y281227D01*
X192130Y281204D01*
X192153Y281181D01*
X192181Y281149D01*
X192208Y281117D01*
X192227Y281075D01*
Y281070D01*
X192236Y281052D01*
X192241Y281019D01*
X192250Y280973D01*
X192259Y280913D01*
X192264Y280876D01*
Y280835D01*
X192268Y280784D01*
X192273Y280733D01*
Y280678D01*
Y280613D01*
Y279273D01*
X192564D01*
Y278968D01*
X192273D01*
Y278395D01*
X191880Y278160D01*
Y278968D01*
X191483D01*
Y279273D01*
X191880D01*
Y280636D01*
Y280645D01*
Y280664D01*
Y280691D01*
X191876Y280724D01*
X191871Y280798D01*
X191866Y280830D01*
X191862Y280853D01*
X191857Y280862D01*
X191843Y280881D01*
X191825Y280904D01*
X191792Y280927D01*
X191783Y280932D01*
X191760Y280941D01*
X191718Y280950D01*
X191658Y280955D01*
X191612D01*
X191589Y280950D01*
X191557D01*
X191520Y280945D01*
X191483Y280941D01*
X191432Y281287D01*
X191441D01*
X191460Y281292D01*
X191492Y281297D01*
X191534Y281301D01*
X191580Y281311D01*
X191631Y281315D01*
X191732Y281320D01*
X191769D01*
X191806Y281315D01*
D02*
G37*
G36*
X160677Y281283D02*
Y281269D01*
Y281250D01*
X160672Y281223D01*
Y281186D01*
X160668Y281140D01*
X160663Y281089D01*
X160658Y281033D01*
X160649Y280969D01*
X160640Y280904D01*
X160626Y280825D01*
X160612Y280747D01*
X160598Y280664D01*
X160580Y280571D01*
X160533Y280382D01*
Y280377D01*
X160529Y280359D01*
X160520Y280331D01*
X160506Y280290D01*
X160492Y280243D01*
X160473Y280188D01*
X160455Y280123D01*
X160427Y280054D01*
X160399Y279975D01*
X160372Y279897D01*
X160302Y279721D01*
X160219Y279536D01*
X160127Y279352D01*
X160122Y279347D01*
X160113Y279328D01*
X160099Y279305D01*
X160081Y279269D01*
X160058Y279227D01*
X160025Y279176D01*
X159993Y279121D01*
X159956Y279061D01*
X159868Y278927D01*
X159776Y278788D01*
X159669Y278645D01*
X159559Y278511D01*
X161125D01*
Y278132D01*
X159055D01*
Y278442D01*
X159060Y278446D01*
X159069Y278455D01*
X159087Y278474D01*
X159106Y278502D01*
X159134Y278534D01*
X159171Y278571D01*
X159207Y278617D01*
X159249Y278673D01*
X159291Y278728D01*
X159342Y278793D01*
X159392Y278867D01*
X159443Y278940D01*
X159499Y279024D01*
X159554Y279111D01*
X159609Y279208D01*
X159665Y279305D01*
X159669Y279310D01*
X159679Y279328D01*
X159693Y279356D01*
X159716Y279398D01*
X159739Y279449D01*
X159767Y279504D01*
X159799Y279569D01*
X159831Y279643D01*
X159868Y279726D01*
X159910Y279809D01*
X159947Y279901D01*
X159984Y279998D01*
X160058Y280197D01*
X160127Y280410D01*
Y280414D01*
X160132Y280428D01*
X160136Y280451D01*
X160145Y280479D01*
X160155Y280516D01*
X160164Y280562D01*
X160178Y280613D01*
X160187Y280668D01*
X160201Y280733D01*
X160215Y280802D01*
X160238Y280950D01*
X160261Y281112D01*
X160275Y281287D01*
X160677D01*
Y281283D01*
D02*
G37*
G36*
X183024Y278469D02*
X184077D01*
Y278090D01*
X181545D01*
Y278469D01*
X182599D01*
Y281287D01*
X183024D01*
Y278469D01*
D02*
G37*
G36*
X171497Y278788D02*
X171501Y278793D01*
X171525Y278811D01*
X171552Y278839D01*
X171598Y278871D01*
X171649Y278913D01*
X171714Y278959D01*
X171788Y279010D01*
X171871Y279061D01*
X171876D01*
X171880Y279065D01*
X171908Y279084D01*
X171954Y279107D01*
X172010Y279134D01*
X172074Y279167D01*
X172143Y279199D01*
X172213Y279232D01*
X172282Y279259D01*
Y278880D01*
X172277D01*
X172268Y278871D01*
X172250Y278867D01*
X172227Y278853D01*
X172199Y278839D01*
X172167Y278820D01*
X172088Y278774D01*
X171996Y278723D01*
X171903Y278659D01*
X171806Y278585D01*
X171709Y278506D01*
X171705Y278502D01*
X171700Y278497D01*
X171686Y278483D01*
X171668Y278469D01*
X171626Y278423D01*
X171571Y278368D01*
X171515Y278303D01*
X171455Y278229D01*
X171404Y278155D01*
X171358Y278077D01*
X171104D01*
Y281287D01*
X171497D01*
Y278788D01*
D02*
G37*
G36*
X169131Y281338D02*
X169168Y281334D01*
X169214Y281324D01*
X169265Y281315D01*
X169321Y281301D01*
X169376Y281283D01*
X169436Y281264D01*
X169496Y281237D01*
X169556Y281204D01*
X169616Y281167D01*
X169676Y281121D01*
X169732Y281070D01*
X169783Y281015D01*
X169787Y281010D01*
X169797Y280996D01*
X169810Y280973D01*
X169834Y280936D01*
X169857Y280895D01*
X169880Y280839D01*
X169912Y280775D01*
X169940Y280701D01*
X169967Y280617D01*
X169995Y280521D01*
X170023Y280414D01*
X170046Y280294D01*
X170069Y280165D01*
X170083Y280026D01*
X170092Y279874D01*
X170097Y279712D01*
Y279707D01*
Y279689D01*
Y279657D01*
Y279620D01*
X170092Y279569D01*
Y279513D01*
X170088Y279453D01*
X170083Y279384D01*
X170069Y279241D01*
X170046Y279088D01*
X170018Y278936D01*
X170000Y278867D01*
X169981Y278797D01*
Y278793D01*
X169977Y278783D01*
X169967Y278765D01*
X169958Y278742D01*
X169949Y278709D01*
X169931Y278677D01*
X169894Y278599D01*
X169847Y278515D01*
X169787Y278428D01*
X169718Y278340D01*
X169635Y278266D01*
X169630D01*
X169626Y278257D01*
X169612Y278247D01*
X169593Y278238D01*
X169570Y278220D01*
X169543Y278206D01*
X169473Y278169D01*
X169390Y278137D01*
X169293Y278104D01*
X169177Y278086D01*
X169053Y278077D01*
X169011D01*
X168960Y278081D01*
X168900Y278090D01*
X168831Y278104D01*
X168757Y278123D01*
X168678Y278146D01*
X168605Y278183D01*
X168600D01*
X168595Y278187D01*
X168572Y278201D01*
X168535Y278224D01*
X168489Y278257D01*
X168438Y278303D01*
X168383Y278354D01*
X168332Y278414D01*
X168281Y278483D01*
X168277Y278492D01*
X168258Y278515D01*
X168240Y278557D01*
X168207Y278617D01*
X168180Y278686D01*
X168143Y278765D01*
X168110Y278857D01*
X168083Y278959D01*
Y278963D01*
X168078Y278973D01*
X168073Y278987D01*
X168069Y279010D01*
X168064Y279037D01*
X168060Y279070D01*
X168050Y279111D01*
X168046Y279158D01*
X168036Y279208D01*
X168032Y279264D01*
X168027Y279328D01*
X168018Y279393D01*
X168013Y279467D01*
Y279541D01*
X168009Y279624D01*
Y279712D01*
Y279717D01*
Y279735D01*
Y279767D01*
Y279804D01*
X168013Y279855D01*
Y279911D01*
X168018Y279971D01*
X168023Y280035D01*
X168036Y280183D01*
X168060Y280336D01*
X168087Y280484D01*
X168106Y280553D01*
X168129Y280622D01*
Y280627D01*
X168133Y280636D01*
X168143Y280655D01*
X168152Y280678D01*
X168161Y280710D01*
X168180Y280742D01*
X168217Y280821D01*
X168263Y280904D01*
X168323Y280996D01*
X168392Y281080D01*
X168475Y281158D01*
X168480D01*
X168484Y281167D01*
X168498Y281176D01*
X168517Y281186D01*
X168540Y281200D01*
X168563Y281218D01*
X168632Y281250D01*
X168716Y281283D01*
X168813Y281315D01*
X168928Y281334D01*
X169053Y281343D01*
X169099D01*
X169131Y281338D01*
D02*
G37*
G36*
X167667Y281283D02*
Y281264D01*
Y281237D01*
X167662Y281200D01*
X167657Y281158D01*
X167648Y281112D01*
X167639Y281066D01*
X167621Y281015D01*
Y281010D01*
X167616Y281006D01*
X167607Y280978D01*
X167588Y280936D01*
X167561Y280881D01*
X167524Y280816D01*
X167477Y280742D01*
X167427Y280668D01*
X167362Y280590D01*
Y280585D01*
X167353Y280580D01*
X167330Y280553D01*
X167288Y280511D01*
X167228Y280451D01*
X167159Y280382D01*
X167071Y280299D01*
X166964Y280206D01*
X166849Y280109D01*
X166844Y280105D01*
X166826Y280091D01*
X166798Y280068D01*
X166766Y280040D01*
X166724Y280003D01*
X166674Y279961D01*
X166623Y279915D01*
X166563Y279864D01*
X166447Y279754D01*
X166332Y279643D01*
X166276Y279587D01*
X166225Y279532D01*
X166179Y279481D01*
X166142Y279430D01*
Y279426D01*
X166133Y279421D01*
X166124Y279407D01*
X166114Y279389D01*
X166082Y279338D01*
X166045Y279278D01*
X166013Y279204D01*
X165981Y279125D01*
X165962Y279037D01*
X165953Y278954D01*
Y278950D01*
Y278945D01*
X165957Y278917D01*
X165962Y278871D01*
X165976Y278820D01*
X165994Y278756D01*
X166027Y278691D01*
X166068Y278626D01*
X166124Y278562D01*
X166133Y278552D01*
X166156Y278534D01*
X166188Y278511D01*
X166239Y278478D01*
X166304Y278451D01*
X166378Y278423D01*
X166466Y278404D01*
X166563Y278400D01*
X166590D01*
X166609Y278404D01*
X166664Y278409D01*
X166729Y278423D01*
X166798Y278442D01*
X166877Y278474D01*
X166951Y278515D01*
X167020Y278571D01*
X167029Y278580D01*
X167048Y278603D01*
X167075Y278640D01*
X167103Y278696D01*
X167136Y278760D01*
X167163Y278843D01*
X167182Y278936D01*
X167191Y279042D01*
X167593Y279000D01*
Y278996D01*
X167588Y278982D01*
Y278959D01*
X167584Y278927D01*
X167574Y278890D01*
X167565Y278848D01*
X167551Y278797D01*
X167537Y278746D01*
X167500Y278636D01*
X167445Y278525D01*
X167413Y278469D01*
X167371Y278414D01*
X167330Y278363D01*
X167283Y278317D01*
X167279Y278312D01*
X167269Y278308D01*
X167256Y278294D01*
X167233Y278280D01*
X167205Y278261D01*
X167172Y278243D01*
X167136Y278220D01*
X167089Y278197D01*
X167038Y278173D01*
X166983Y278150D01*
X166923Y278132D01*
X166858Y278114D01*
X166789Y278100D01*
X166715Y278086D01*
X166637Y278081D01*
X166553Y278077D01*
X166507D01*
X166475Y278081D01*
X166438Y278086D01*
X166392Y278090D01*
X166341Y278100D01*
X166290Y278109D01*
X166170Y278141D01*
X166050Y278187D01*
X165990Y278215D01*
X165930Y278247D01*
X165874Y278289D01*
X165823Y278335D01*
X165819Y278340D01*
X165810Y278344D01*
X165800Y278363D01*
X165782Y278381D01*
X165759Y278404D01*
X165736Y278437D01*
X165712Y278469D01*
X165685Y278511D01*
X165639Y278599D01*
X165592Y278709D01*
X165574Y278765D01*
X165565Y278830D01*
X165555Y278894D01*
X165551Y278963D01*
Y278973D01*
Y278996D01*
X165555Y279033D01*
X165560Y279084D01*
X165569Y279139D01*
X165588Y279204D01*
X165606Y279273D01*
X165634Y279342D01*
X165639Y279352D01*
X165648Y279375D01*
X165666Y279412D01*
X165694Y279463D01*
X165731Y279518D01*
X165777Y279587D01*
X165833Y279657D01*
X165897Y279735D01*
X165907Y279744D01*
X165930Y279772D01*
X165953Y279795D01*
X165976Y279818D01*
X166004Y279846D01*
X166041Y279883D01*
X166077Y279920D01*
X166124Y279961D01*
X166170Y280008D01*
X166225Y280059D01*
X166285Y280109D01*
X166350Y280169D01*
X166424Y280229D01*
X166498Y280294D01*
X166502Y280299D01*
X166512Y280308D01*
X166530Y280322D01*
X166553Y280340D01*
X166581Y280368D01*
X166613Y280396D01*
X166687Y280456D01*
X166766Y280525D01*
X166840Y280594D01*
X166904Y280655D01*
X166932Y280678D01*
X166955Y280701D01*
X166960Y280705D01*
X166974Y280719D01*
X166992Y280738D01*
X167015Y280765D01*
X167038Y280798D01*
X167066Y280830D01*
X167122Y280909D01*
X165546D01*
Y281287D01*
X167667D01*
Y281283D01*
D02*
G37*
G36*
X162672Y281338D02*
X162709Y281334D01*
X162756Y281324D01*
X162806Y281315D01*
X162862Y281301D01*
X162917Y281283D01*
X162978Y281264D01*
X163038Y281237D01*
X163098Y281204D01*
X163158Y281167D01*
X163218Y281121D01*
X163273Y281070D01*
X163324Y281015D01*
X163329Y281010D01*
X163338Y280996D01*
X163352Y280973D01*
X163375Y280936D01*
X163398Y280895D01*
X163421Y280839D01*
X163453Y280775D01*
X163481Y280701D01*
X163509Y280617D01*
X163537Y280521D01*
X163564Y280414D01*
X163587Y280294D01*
X163610Y280165D01*
X163624Y280026D01*
X163634Y279874D01*
X163638Y279712D01*
Y279707D01*
Y279689D01*
Y279657D01*
Y279620D01*
X163634Y279569D01*
Y279513D01*
X163629Y279453D01*
X163624Y279384D01*
X163610Y279241D01*
X163587Y279088D01*
X163560Y278936D01*
X163541Y278867D01*
X163523Y278797D01*
Y278793D01*
X163518Y278783D01*
X163509Y278765D01*
X163499Y278742D01*
X163490Y278709D01*
X163472Y278677D01*
X163435Y278599D01*
X163389Y278515D01*
X163329Y278428D01*
X163259Y278340D01*
X163176Y278266D01*
X163172D01*
X163167Y278257D01*
X163153Y278247D01*
X163135Y278238D01*
X163111Y278220D01*
X163084Y278206D01*
X163014Y278169D01*
X162931Y278137D01*
X162834Y278104D01*
X162719Y278086D01*
X162594Y278077D01*
X162552D01*
X162502Y278081D01*
X162442Y278090D01*
X162372Y278104D01*
X162298Y278123D01*
X162220Y278146D01*
X162146Y278183D01*
X162141D01*
X162137Y278187D01*
X162113Y278201D01*
X162077Y278224D01*
X162030Y278257D01*
X161979Y278303D01*
X161924Y278354D01*
X161873Y278414D01*
X161822Y278483D01*
X161818Y278492D01*
X161799Y278515D01*
X161781Y278557D01*
X161749Y278617D01*
X161721Y278686D01*
X161684Y278765D01*
X161652Y278857D01*
X161624Y278959D01*
Y278963D01*
X161619Y278973D01*
X161615Y278987D01*
X161610Y279010D01*
X161605Y279037D01*
X161601Y279070D01*
X161591Y279111D01*
X161587Y279158D01*
X161578Y279208D01*
X161573Y279264D01*
X161568Y279328D01*
X161559Y279393D01*
X161555Y279467D01*
Y279541D01*
X161550Y279624D01*
Y279712D01*
Y279717D01*
Y279735D01*
Y279767D01*
Y279804D01*
X161555Y279855D01*
Y279911D01*
X161559Y279971D01*
X161564Y280035D01*
X161578Y280183D01*
X161601Y280336D01*
X161628Y280484D01*
X161647Y280553D01*
X161670Y280622D01*
Y280627D01*
X161675Y280636D01*
X161684Y280655D01*
X161693Y280678D01*
X161702Y280710D01*
X161721Y280742D01*
X161758Y280821D01*
X161804Y280904D01*
X161864Y280996D01*
X161933Y281080D01*
X162016Y281158D01*
X162021D01*
X162026Y281167D01*
X162040Y281176D01*
X162058Y281186D01*
X162081Y281200D01*
X162104Y281218D01*
X162174Y281250D01*
X162257Y281283D01*
X162354Y281315D01*
X162469Y281334D01*
X162594Y281343D01*
X162640D01*
X162672Y281338D01*
D02*
G37*
G36*
X20768Y264127D02*
X20477D01*
X20481Y264122D01*
X20490Y264118D01*
X20509Y264104D01*
X20532Y264085D01*
X20555Y264062D01*
X20583Y264034D01*
X20615Y264002D01*
X20648Y263961D01*
X20680Y263919D01*
X20712Y263873D01*
X20740Y263817D01*
X20763Y263757D01*
X20786Y263697D01*
X20805Y263628D01*
X20814Y263554D01*
X20818Y263475D01*
Y263448D01*
X20814Y263429D01*
X20809Y263374D01*
X20800Y263309D01*
X20781Y263230D01*
X20754Y263143D01*
X20717Y263055D01*
X20666Y262967D01*
Y262963D01*
X20657Y262958D01*
X20638Y262930D01*
X20601Y262889D01*
X20555Y262838D01*
X20495Y262778D01*
X20421Y262718D01*
X20338Y262658D01*
X20241Y262607D01*
X20236D01*
X20227Y262602D01*
X20213Y262598D01*
X20195Y262588D01*
X20167Y262579D01*
X20135Y262565D01*
X20102Y262556D01*
X20061Y262547D01*
X19968Y262524D01*
X19862Y262501D01*
X19742Y262487D01*
X19613Y262482D01*
X19608D01*
X19599D01*
X19580D01*
X19553D01*
X19525Y262487D01*
X19488D01*
X19405Y262496D01*
X19308Y262510D01*
X19201Y262533D01*
X19091Y262561D01*
X18984Y262598D01*
X18980D01*
X18970Y262602D01*
X18957Y262611D01*
X18938Y262621D01*
X18887Y262648D01*
X18823Y262685D01*
X18753Y262732D01*
X18684Y262792D01*
X18610Y262861D01*
X18550Y262944D01*
Y262949D01*
X18545Y262953D01*
X18536Y262967D01*
X18527Y262986D01*
X18504Y263032D01*
X18471Y263096D01*
X18444Y263171D01*
X18421Y263258D01*
X18402Y263355D01*
X18397Y263457D01*
Y263494D01*
X18402Y263531D01*
X18407Y263582D01*
X18421Y263642D01*
X18435Y263706D01*
X18458Y263771D01*
X18490Y263831D01*
X18495Y263840D01*
X18504Y263859D01*
X18527Y263887D01*
X18550Y263924D01*
X18582Y263970D01*
X18624Y264011D01*
X18665Y264057D01*
X18716Y264099D01*
X17571D01*
Y264492D01*
X20768D01*
Y264127D01*
D02*
G37*
G36*
Y261632D02*
X19363D01*
X19358D01*
X19354D01*
X19321D01*
X19280D01*
X19229Y261627D01*
X19169Y261623D01*
X19109Y261613D01*
X19054Y261600D01*
X19003Y261586D01*
X18998D01*
X18984Y261577D01*
X18961Y261563D01*
X18933Y261549D01*
X18906Y261526D01*
X18873Y261498D01*
X18841Y261461D01*
X18813Y261420D01*
X18809Y261415D01*
X18799Y261401D01*
X18790Y261373D01*
X18776Y261341D01*
X18763Y261304D01*
X18749Y261258D01*
X18744Y261202D01*
X18739Y261147D01*
Y261124D01*
X18744Y261105D01*
X18749Y261059D01*
X18758Y260999D01*
X18781Y260934D01*
X18809Y260860D01*
X18846Y260787D01*
X18901Y260717D01*
X18910Y260708D01*
X18933Y260689D01*
X18952Y260676D01*
X18975Y260662D01*
X19003Y260643D01*
X19035Y260630D01*
X19072Y260611D01*
X19118Y260593D01*
X19169Y260579D01*
X19225Y260565D01*
X19285Y260556D01*
X19349Y260546D01*
X19428Y260537D01*
X19506D01*
X20768D01*
Y260144D01*
X18448D01*
Y260495D01*
X18781D01*
X18776Y260500D01*
X18763Y260509D01*
X18744Y260523D01*
X18721Y260542D01*
X18693Y260569D01*
X18661Y260602D01*
X18624Y260639D01*
X18587Y260685D01*
X18555Y260731D01*
X18518Y260787D01*
X18485Y260847D01*
X18458Y260911D01*
X18435Y260985D01*
X18416Y261059D01*
X18402Y261142D01*
X18397Y261230D01*
Y261267D01*
X18402Y261304D01*
X18407Y261355D01*
X18416Y261415D01*
X18430Y261479D01*
X18448Y261549D01*
X18476Y261613D01*
X18481Y261623D01*
X18490Y261641D01*
X18504Y261674D01*
X18527Y261711D01*
X18555Y261757D01*
X18592Y261798D01*
X18629Y261840D01*
X18675Y261877D01*
X18679Y261881D01*
X18698Y261891D01*
X18721Y261905D01*
X18753Y261928D01*
X18799Y261946D01*
X18846Y261965D01*
X18901Y261988D01*
X18961Y262002D01*
X18966D01*
X18984Y262006D01*
X19012Y262011D01*
X19049Y262016D01*
X19104D01*
X19169Y262020D01*
X19248Y262025D01*
X19345D01*
X20768D01*
Y261632D01*
D02*
G37*
G36*
Y259179D02*
X20430D01*
X20435Y259174D01*
X20449Y259165D01*
X20467Y259151D01*
X20490Y259128D01*
X20518Y259100D01*
X20555Y259068D01*
X20587Y259031D01*
X20624Y258985D01*
X20661Y258934D01*
X20694Y258878D01*
X20726Y258818D01*
X20758Y258754D01*
X20781Y258680D01*
X20800Y258606D01*
X20814Y258523D01*
X20818Y258440D01*
Y258407D01*
X20814Y258366D01*
X20809Y258315D01*
X20800Y258255D01*
X20786Y258190D01*
X20768Y258125D01*
X20740Y258056D01*
X20735Y258047D01*
X20726Y258028D01*
X20707Y257996D01*
X20684Y257959D01*
X20657Y257913D01*
X20624Y257871D01*
X20587Y257830D01*
X20546Y257793D01*
X20541Y257788D01*
X20523Y257779D01*
X20500Y257765D01*
X20463Y257747D01*
X20421Y257723D01*
X20370Y257705D01*
X20315Y257686D01*
X20255Y257673D01*
X20250D01*
X20232Y257668D01*
X20204Y257663D01*
X20167D01*
X20111Y257659D01*
X20052Y257654D01*
X19973Y257650D01*
X19885D01*
X18448D01*
Y258042D01*
X19737D01*
X19742D01*
X19751D01*
X19765D01*
X19788D01*
X19839D01*
X19904Y258047D01*
X19973D01*
X20042Y258051D01*
X20102Y258056D01*
X20153Y258065D01*
X20158D01*
X20176Y258075D01*
X20204Y258084D01*
X20241Y258098D01*
X20278Y258121D01*
X20319Y258149D01*
X20356Y258181D01*
X20393Y258222D01*
X20398Y258227D01*
X20407Y258245D01*
X20421Y258269D01*
X20435Y258306D01*
X20453Y258347D01*
X20467Y258398D01*
X20477Y258453D01*
X20481Y258518D01*
Y258551D01*
X20477Y258583D01*
X20472Y258624D01*
X20458Y258675D01*
X20444Y258731D01*
X20421Y258791D01*
X20393Y258851D01*
X20389Y258860D01*
X20375Y258878D01*
X20356Y258906D01*
X20329Y258939D01*
X20292Y258976D01*
X20250Y259013D01*
X20204Y259045D01*
X20148Y259072D01*
X20139Y259077D01*
X20121Y259082D01*
X20084Y259091D01*
X20033Y259105D01*
X19968Y259119D01*
X19890Y259128D01*
X19797Y259133D01*
X19691Y259137D01*
X18448D01*
Y259530D01*
X20768D01*
Y259179D01*
D02*
G37*
G36*
X19687Y257192D02*
X19733Y257188D01*
X19779D01*
X19830Y257178D01*
X19945Y257165D01*
X20061Y257137D01*
X20176Y257104D01*
X20282Y257058D01*
X20287D01*
X20292Y257054D01*
X20306Y257044D01*
X20324Y257035D01*
X20370Y257003D01*
X20426Y256961D01*
X20490Y256906D01*
X20555Y256836D01*
X20620Y256758D01*
X20680Y256665D01*
Y256661D01*
X20684Y256656D01*
X20694Y256642D01*
X20703Y256619D01*
X20712Y256596D01*
X20721Y256569D01*
X20749Y256499D01*
X20772Y256421D01*
X20795Y256324D01*
X20814Y256222D01*
X20818Y256111D01*
Y256065D01*
X20814Y256028D01*
X20809Y255986D01*
X20800Y255940D01*
X20791Y255885D01*
X20781Y255829D01*
X20744Y255704D01*
X20717Y255635D01*
X20689Y255571D01*
X20652Y255506D01*
X20610Y255441D01*
X20564Y255381D01*
X20509Y255321D01*
X20504Y255316D01*
X20495Y255307D01*
X20477Y255293D01*
X20449Y255275D01*
X20416Y255252D01*
X20380Y255229D01*
X20333Y255201D01*
X20278Y255173D01*
X20218Y255146D01*
X20148Y255118D01*
X20075Y255095D01*
X19996Y255072D01*
X19908Y255053D01*
X19816Y255039D01*
X19714Y255030D01*
X19608Y255025D01*
X19599D01*
X19580D01*
X19548Y255030D01*
X19502D01*
X19451Y255035D01*
X19386Y255044D01*
X19321Y255053D01*
X19248Y255072D01*
X19174Y255090D01*
X19095Y255113D01*
X19012Y255141D01*
X18933Y255178D01*
X18859Y255215D01*
X18786Y255266D01*
X18716Y255316D01*
X18656Y255381D01*
X18652Y255386D01*
X18647Y255395D01*
X18633Y255414D01*
X18615Y255437D01*
X18596Y255464D01*
X18573Y255501D01*
X18550Y255538D01*
X18527Y255584D01*
X18504Y255635D01*
X18481Y255691D01*
X18439Y255815D01*
X18407Y255959D01*
X18402Y256033D01*
X18397Y256111D01*
Y256157D01*
X18402Y256190D01*
X18407Y256231D01*
X18416Y256277D01*
X18425Y256328D01*
X18435Y256388D01*
X18476Y256513D01*
X18499Y256578D01*
X18531Y256642D01*
X18564Y256707D01*
X18610Y256772D01*
X18656Y256832D01*
X18712Y256892D01*
X18716Y256896D01*
X18725Y256906D01*
X18744Y256920D01*
X18767Y256938D01*
X18799Y256961D01*
X18841Y256989D01*
X18887Y257017D01*
X18938Y257044D01*
X18993Y257072D01*
X19063Y257100D01*
X19132Y257127D01*
X19211Y257151D01*
X19294Y257169D01*
X19382Y257183D01*
X19474Y257192D01*
X19576Y257197D01*
X19580D01*
X19594D01*
X19617D01*
X19649D01*
X19687Y257192D01*
D02*
G37*
G36*
X20768Y254286D02*
X20102Y253866D01*
X20098D01*
X20088Y253856D01*
X20075Y253847D01*
X20056Y253833D01*
X20005Y253801D01*
X19941Y253760D01*
X19871Y253709D01*
X19797Y253658D01*
X19728Y253607D01*
X19663Y253561D01*
X19659Y253556D01*
X19640Y253542D01*
X19613Y253519D01*
X19580Y253487D01*
X19511Y253418D01*
X19479Y253381D01*
X19451Y253344D01*
X19446Y253339D01*
X19442Y253330D01*
X19432Y253311D01*
X19419Y253284D01*
X19405Y253256D01*
X19391Y253224D01*
X19368Y253150D01*
Y253145D01*
X19363Y253136D01*
Y253117D01*
X19358Y253094D01*
X19354Y253062D01*
Y253025D01*
X19349Y252974D01*
Y252429D01*
X20768D01*
Y252004D01*
X17571D01*
Y253487D01*
X17575Y253524D01*
Y253566D01*
X17580Y253662D01*
X17594Y253764D01*
X17607Y253875D01*
X17631Y253977D01*
X17645Y254028D01*
X17658Y254069D01*
Y254074D01*
X17663Y254078D01*
X17677Y254106D01*
X17695Y254148D01*
X17728Y254198D01*
X17769Y254254D01*
X17825Y254314D01*
X17889Y254369D01*
X17963Y254425D01*
X17968D01*
X17973Y254429D01*
X18000Y254448D01*
X18046Y254466D01*
X18106Y254494D01*
X18176Y254517D01*
X18259Y254540D01*
X18347Y254554D01*
X18444Y254559D01*
X18448D01*
X18458D01*
X18476D01*
X18499Y254554D01*
X18531D01*
X18564Y254550D01*
X18642Y254531D01*
X18735Y254503D01*
X18832Y254466D01*
X18929Y254411D01*
X18975Y254374D01*
X19021Y254337D01*
X19026Y254332D01*
X19030Y254328D01*
X19044Y254314D01*
X19058Y254295D01*
X19077Y254272D01*
X19095Y254245D01*
X19118Y254208D01*
X19146Y254171D01*
X19169Y254124D01*
X19192Y254074D01*
X19220Y254018D01*
X19243Y253958D01*
X19261Y253889D01*
X19285Y253820D01*
X19298Y253741D01*
X19312Y253658D01*
X19317Y253667D01*
X19326Y253686D01*
X19345Y253713D01*
X19363Y253750D01*
X19414Y253833D01*
X19446Y253875D01*
X19474Y253912D01*
X19483Y253921D01*
X19506Y253944D01*
X19543Y253981D01*
X19590Y254028D01*
X19654Y254078D01*
X19723Y254138D01*
X19807Y254198D01*
X19899Y254263D01*
X20768Y254813D01*
Y254286D01*
D02*
G37*
G36*
X21655Y249098D02*
X21373D01*
Y251699D01*
X21655D01*
Y249098D01*
D02*
G37*
G36*
X20768Y249116D02*
X20772Y249098D01*
X20777Y249066D01*
X20781Y249024D01*
X20791Y248978D01*
X20795Y248927D01*
X20800Y248825D01*
Y248788D01*
X20795Y248751D01*
X20791Y248705D01*
X20786Y248650D01*
X20772Y248594D01*
X20758Y248544D01*
X20735Y248493D01*
X20731Y248488D01*
X20721Y248474D01*
X20707Y248456D01*
X20684Y248428D01*
X20661Y248405D01*
X20629Y248377D01*
X20597Y248349D01*
X20555Y248331D01*
X20550D01*
X20532Y248322D01*
X20500Y248317D01*
X20453Y248308D01*
X20393Y248299D01*
X20356Y248294D01*
X20315D01*
X20264Y248289D01*
X20213Y248285D01*
X20158D01*
X20093D01*
X18753D01*
Y247994D01*
X18448D01*
Y248285D01*
X17876D01*
X17640Y248677D01*
X18448D01*
Y249075D01*
X18753D01*
Y248677D01*
X20116D01*
X20125D01*
X20144D01*
X20172D01*
X20204Y248682D01*
X20278Y248687D01*
X20310Y248691D01*
X20333Y248696D01*
X20343Y248701D01*
X20361Y248714D01*
X20384Y248733D01*
X20407Y248765D01*
X20412Y248775D01*
X20421Y248798D01*
X20430Y248839D01*
X20435Y248899D01*
Y248945D01*
X20430Y248969D01*
Y249001D01*
X20426Y249038D01*
X20421Y249075D01*
X20768Y249126D01*
Y249116D01*
D02*
G37*
G36*
Y247222D02*
X19363D01*
X19358D01*
X19354D01*
X19321D01*
X19280D01*
X19229Y247218D01*
X19169Y247213D01*
X19109Y247204D01*
X19054Y247190D01*
X19003Y247176D01*
X18998D01*
X18984Y247167D01*
X18961Y247153D01*
X18933Y247139D01*
X18906Y247116D01*
X18873Y247088D01*
X18841Y247051D01*
X18813Y247010D01*
X18809Y247005D01*
X18799Y246991D01*
X18790Y246964D01*
X18776Y246931D01*
X18763Y246894D01*
X18749Y246848D01*
X18744Y246793D01*
X18739Y246737D01*
Y246714D01*
X18744Y246695D01*
X18749Y246649D01*
X18758Y246589D01*
X18781Y246525D01*
X18809Y246451D01*
X18846Y246377D01*
X18901Y246307D01*
X18910Y246298D01*
X18933Y246280D01*
X18952Y246266D01*
X18975Y246252D01*
X19003Y246234D01*
X19035Y246220D01*
X19072Y246201D01*
X19118Y246183D01*
X19169Y246169D01*
X19225Y246155D01*
X19285Y246146D01*
X19349Y246136D01*
X19428Y246127D01*
X19506D01*
X20768D01*
Y245735D01*
X18448D01*
Y246086D01*
X18781D01*
X18776Y246090D01*
X18763Y246100D01*
X18744Y246113D01*
X18721Y246132D01*
X18693Y246160D01*
X18661Y246192D01*
X18624Y246229D01*
X18587Y246275D01*
X18555Y246321D01*
X18518Y246377D01*
X18485Y246437D01*
X18458Y246501D01*
X18435Y246575D01*
X18416Y246649D01*
X18402Y246732D01*
X18397Y246820D01*
Y246857D01*
X18402Y246894D01*
X18407Y246945D01*
X18416Y247005D01*
X18430Y247070D01*
X18448Y247139D01*
X18476Y247204D01*
X18481Y247213D01*
X18490Y247232D01*
X18504Y247264D01*
X18527Y247301D01*
X18555Y247347D01*
X18592Y247389D01*
X18629Y247430D01*
X18675Y247467D01*
X18679Y247472D01*
X18698Y247481D01*
X18721Y247495D01*
X18753Y247518D01*
X18799Y247536D01*
X18846Y247555D01*
X18901Y247578D01*
X18961Y247592D01*
X18966D01*
X18984Y247596D01*
X19012Y247601D01*
X19049Y247606D01*
X19104D01*
X19169Y247610D01*
X19248Y247615D01*
X19345D01*
X20768D01*
Y247222D01*
D02*
G37*
G36*
Y244741D02*
X18448D01*
Y245134D01*
X20768D01*
Y244741D01*
D02*
G37*
G36*
X18019D02*
X17571D01*
Y245134D01*
X18019D01*
Y244741D01*
D02*
G37*
G36*
X19687Y244275D02*
X19733Y244270D01*
X19779D01*
X19830Y244261D01*
X19945Y244247D01*
X20061Y244219D01*
X20176Y244187D01*
X20282Y244141D01*
X20287D01*
X20292Y244136D01*
X20306Y244127D01*
X20324Y244118D01*
X20370Y244085D01*
X20426Y244044D01*
X20490Y243988D01*
X20555Y243919D01*
X20620Y243840D01*
X20680Y243748D01*
Y243743D01*
X20684Y243739D01*
X20694Y243725D01*
X20703Y243702D01*
X20712Y243679D01*
X20721Y243651D01*
X20749Y243582D01*
X20772Y243503D01*
X20795Y243406D01*
X20814Y243304D01*
X20818Y243194D01*
Y243147D01*
X20814Y243110D01*
X20809Y243069D01*
X20800Y243023D01*
X20791Y242967D01*
X20781Y242912D01*
X20744Y242787D01*
X20717Y242718D01*
X20689Y242653D01*
X20652Y242588D01*
X20610Y242524D01*
X20564Y242464D01*
X20509Y242404D01*
X20504Y242399D01*
X20495Y242390D01*
X20477Y242376D01*
X20449Y242357D01*
X20416Y242334D01*
X20380Y242311D01*
X20333Y242283D01*
X20278Y242256D01*
X20218Y242228D01*
X20148Y242200D01*
X20075Y242177D01*
X19996Y242154D01*
X19908Y242136D01*
X19816Y242122D01*
X19714Y242112D01*
X19608Y242108D01*
X19599D01*
X19580D01*
X19548Y242112D01*
X19502D01*
X19451Y242117D01*
X19386Y242126D01*
X19321Y242136D01*
X19248Y242154D01*
X19174Y242173D01*
X19095Y242196D01*
X19012Y242223D01*
X18933Y242260D01*
X18859Y242297D01*
X18786Y242348D01*
X18716Y242399D01*
X18656Y242464D01*
X18652Y242468D01*
X18647Y242477D01*
X18633Y242496D01*
X18615Y242519D01*
X18596Y242547D01*
X18573Y242584D01*
X18550Y242621D01*
X18527Y242667D01*
X18504Y242718D01*
X18481Y242773D01*
X18439Y242898D01*
X18407Y243041D01*
X18402Y243115D01*
X18397Y243194D01*
Y243240D01*
X18402Y243272D01*
X18407Y243314D01*
X18416Y243360D01*
X18425Y243411D01*
X18435Y243471D01*
X18476Y243596D01*
X18499Y243660D01*
X18531Y243725D01*
X18564Y243790D01*
X18610Y243854D01*
X18656Y243914D01*
X18712Y243974D01*
X18716Y243979D01*
X18725Y243988D01*
X18744Y244002D01*
X18767Y244021D01*
X18799Y244044D01*
X18841Y244071D01*
X18887Y244099D01*
X18938Y244127D01*
X18993Y244155D01*
X19063Y244182D01*
X19132Y244210D01*
X19211Y244233D01*
X19294Y244252D01*
X19382Y244265D01*
X19474Y244275D01*
X19576Y244279D01*
X19580D01*
X19594D01*
X19617D01*
X19649D01*
X19687Y244275D01*
D02*
G37*
G36*
Y241775D02*
X19723D01*
X19807Y241766D01*
X19908Y241747D01*
X20015Y241724D01*
X20125Y241692D01*
X20236Y241651D01*
X20241D01*
X20250Y241646D01*
X20264Y241637D01*
X20282Y241627D01*
X20333Y241595D01*
X20398Y241553D01*
X20467Y241503D01*
X20537Y241438D01*
X20606Y241364D01*
X20671Y241276D01*
Y241272D01*
X20675Y241267D01*
X20684Y241253D01*
X20694Y241235D01*
X20717Y241189D01*
X20744Y241124D01*
X20772Y241045D01*
X20795Y240962D01*
X20814Y240865D01*
X20818Y240768D01*
Y240736D01*
X20814Y240699D01*
X20809Y240653D01*
X20800Y240597D01*
X20786Y240537D01*
X20768Y240477D01*
X20740Y240417D01*
X20735Y240412D01*
X20726Y240389D01*
X20707Y240361D01*
X20680Y240325D01*
X20652Y240288D01*
X20615Y240241D01*
X20573Y240200D01*
X20527Y240163D01*
X21655D01*
Y239770D01*
X18448D01*
Y240126D01*
X18753D01*
X18744Y240130D01*
X18725Y240149D01*
X18693Y240172D01*
X18656Y240209D01*
X18610Y240251D01*
X18568Y240297D01*
X18527Y240352D01*
X18490Y240408D01*
X18485Y240417D01*
X18476Y240435D01*
X18462Y240472D01*
X18444Y240519D01*
X18425Y240574D01*
X18411Y240639D01*
X18402Y240713D01*
X18397Y240796D01*
Y240847D01*
X18402Y240870D01*
X18407Y240902D01*
X18416Y240971D01*
X18435Y241055D01*
X18462Y241142D01*
X18504Y241230D01*
X18555Y241318D01*
Y241322D01*
X18564Y241327D01*
X18582Y241355D01*
X18619Y241396D01*
X18665Y241447D01*
X18725Y241503D01*
X18799Y241558D01*
X18887Y241614D01*
X18984Y241660D01*
X18989D01*
X18998Y241664D01*
X19012Y241669D01*
X19030Y241678D01*
X19058Y241687D01*
X19091Y241697D01*
X19164Y241720D01*
X19257Y241743D01*
X19358Y241761D01*
X19474Y241775D01*
X19594Y241780D01*
X19599D01*
X19608D01*
X19626D01*
X19654D01*
X19687Y241775D01*
D02*
G37*
G36*
X20768Y239424D02*
X20772Y239405D01*
X20777Y239373D01*
X20781Y239331D01*
X20791Y239285D01*
X20795Y239234D01*
X20800Y239133D01*
Y239096D01*
X20795Y239059D01*
X20791Y239013D01*
X20786Y238957D01*
X20772Y238902D01*
X20758Y238851D01*
X20735Y238800D01*
X20731Y238795D01*
X20721Y238781D01*
X20707Y238763D01*
X20684Y238735D01*
X20661Y238712D01*
X20629Y238685D01*
X20597Y238657D01*
X20555Y238638D01*
X20550D01*
X20532Y238629D01*
X20500Y238624D01*
X20453Y238615D01*
X20393Y238606D01*
X20356Y238601D01*
X20315D01*
X20264Y238597D01*
X20213Y238592D01*
X20158D01*
X20093D01*
X18753D01*
Y238301D01*
X18448D01*
Y238592D01*
X17876D01*
X17640Y238985D01*
X18448D01*
Y239382D01*
X18753D01*
Y238985D01*
X20116D01*
X20125D01*
X20144D01*
X20172D01*
X20204Y238989D01*
X20278Y238994D01*
X20310Y238999D01*
X20333Y239003D01*
X20343Y239008D01*
X20361Y239022D01*
X20384Y239040D01*
X20407Y239072D01*
X20412Y239082D01*
X20421Y239105D01*
X20430Y239146D01*
X20435Y239207D01*
Y239253D01*
X20430Y239276D01*
Y239308D01*
X20426Y239345D01*
X20421Y239382D01*
X20768Y239433D01*
Y239424D01*
D02*
G37*
G36*
X20158Y238056D02*
X20209Y238047D01*
X20264Y238033D01*
X20324Y238010D01*
X20393Y237982D01*
X20458Y237945D01*
X20467Y237941D01*
X20486Y237922D01*
X20518Y237899D01*
X20555Y237862D01*
X20597Y237811D01*
X20643Y237756D01*
X20684Y237691D01*
X20726Y237613D01*
Y237608D01*
X20731Y237603D01*
X20740Y237576D01*
X20754Y237529D01*
X20772Y237469D01*
X20791Y237396D01*
X20805Y237312D01*
X20814Y237225D01*
X20818Y237123D01*
Y237081D01*
X20814Y237049D01*
Y237012D01*
X20809Y236966D01*
X20805Y236920D01*
X20795Y236869D01*
X20772Y236758D01*
X20740Y236642D01*
X20694Y236531D01*
X20666Y236481D01*
X20634Y236435D01*
X20629Y236430D01*
X20624Y236425D01*
X20597Y236398D01*
X20555Y236356D01*
X20490Y236310D01*
X20412Y236259D01*
X20319Y236208D01*
X20204Y236167D01*
X20075Y236134D01*
X20015Y236522D01*
X20019D01*
X20024D01*
X20052Y236531D01*
X20098Y236541D01*
X20148Y236559D01*
X20204Y236582D01*
X20264Y236610D01*
X20324Y236652D01*
X20375Y236702D01*
X20380Y236712D01*
X20393Y236730D01*
X20412Y236767D01*
X20435Y236813D01*
X20458Y236873D01*
X20477Y236943D01*
X20490Y237026D01*
X20495Y237123D01*
Y237169D01*
X20490Y237215D01*
X20481Y237275D01*
X20467Y237340D01*
X20449Y237409D01*
X20426Y237469D01*
X20389Y237525D01*
X20384Y237529D01*
X20370Y237548D01*
X20347Y237566D01*
X20315Y237594D01*
X20278Y237617D01*
X20232Y237640D01*
X20186Y237654D01*
X20130Y237659D01*
X20125D01*
X20107D01*
X20084Y237654D01*
X20052Y237645D01*
X20019Y237631D01*
X19987Y237608D01*
X19950Y237580D01*
X19922Y237539D01*
X19918Y237534D01*
X19913Y237520D01*
X19899Y237497D01*
X19885Y237460D01*
X19867Y237405D01*
X19853Y237372D01*
X19844Y237335D01*
X19830Y237294D01*
X19816Y237248D01*
X19802Y237197D01*
X19788Y237137D01*
Y237132D01*
X19783Y237118D01*
X19779Y237095D01*
X19770Y237068D01*
X19760Y237031D01*
X19747Y236989D01*
X19723Y236901D01*
X19691Y236800D01*
X19663Y236702D01*
X19631Y236610D01*
X19613Y236568D01*
X19599Y236536D01*
X19594Y236527D01*
X19585Y236508D01*
X19566Y236481D01*
X19543Y236444D01*
X19511Y236402D01*
X19474Y236361D01*
X19432Y236319D01*
X19382Y236282D01*
X19377Y236277D01*
X19358Y236268D01*
X19326Y236254D01*
X19289Y236241D01*
X19243Y236227D01*
X19187Y236213D01*
X19132Y236204D01*
X19067Y236199D01*
X19058D01*
X19040D01*
X19012Y236204D01*
X18970Y236208D01*
X18929Y236217D01*
X18878Y236227D01*
X18832Y236245D01*
X18781Y236268D01*
X18776Y236273D01*
X18758Y236282D01*
X18735Y236296D01*
X18702Y236319D01*
X18670Y236347D01*
X18629Y236379D01*
X18592Y236416D01*
X18559Y236462D01*
X18555Y236467D01*
X18550Y236481D01*
X18536Y236499D01*
X18522Y236527D01*
X18504Y236564D01*
X18485Y236606D01*
X18467Y236656D01*
X18448Y236712D01*
X18444Y236721D01*
X18439Y236739D01*
X18430Y236772D01*
X18421Y236813D01*
X18411Y236864D01*
X18407Y236920D01*
X18397Y236984D01*
Y237095D01*
X18402Y237146D01*
X18407Y237215D01*
X18416Y237289D01*
X18435Y237368D01*
X18453Y237451D01*
X18481Y237529D01*
Y237534D01*
X18485Y237539D01*
X18495Y237562D01*
X18513Y237599D01*
X18536Y237645D01*
X18568Y237696D01*
X18605Y237747D01*
X18647Y237793D01*
X18693Y237834D01*
X18698Y237839D01*
X18716Y237848D01*
X18749Y237867D01*
X18786Y237890D01*
X18841Y237913D01*
X18901Y237936D01*
X18970Y237954D01*
X19049Y237973D01*
X19100Y237590D01*
X19091D01*
X19072Y237585D01*
X19040Y237576D01*
X18998Y237562D01*
X18957Y237539D01*
X18910Y237511D01*
X18864Y237479D01*
X18823Y237432D01*
X18818Y237428D01*
X18809Y237409D01*
X18790Y237382D01*
X18772Y237340D01*
X18753Y237294D01*
X18735Y237234D01*
X18725Y237160D01*
X18721Y237081D01*
Y237035D01*
X18725Y236989D01*
X18730Y236929D01*
X18744Y236869D01*
X18758Y236804D01*
X18781Y236744D01*
X18813Y236693D01*
X18818Y236689D01*
X18827Y236675D01*
X18846Y236656D01*
X18873Y236638D01*
X18901Y236615D01*
X18938Y236596D01*
X18980Y236582D01*
X19021Y236578D01*
X19026D01*
X19035D01*
X19049Y236582D01*
X19067D01*
X19114Y236596D01*
X19160Y236624D01*
X19164Y236629D01*
X19169Y236633D01*
X19183Y236642D01*
X19197Y236661D01*
X19211Y236679D01*
X19229Y236707D01*
X19243Y236739D01*
X19261Y236776D01*
Y236781D01*
X19266Y236790D01*
X19271Y236809D01*
X19285Y236841D01*
X19298Y236887D01*
X19312Y236947D01*
X19326Y236984D01*
X19335Y237026D01*
X19349Y237072D01*
X19363Y237123D01*
Y237127D01*
X19368Y237141D01*
X19372Y237164D01*
X19382Y237192D01*
X19391Y237225D01*
X19400Y237266D01*
X19428Y237354D01*
X19455Y237451D01*
X19488Y237548D01*
X19520Y237636D01*
X19534Y237673D01*
X19548Y237705D01*
X19553Y237714D01*
X19562Y237733D01*
X19576Y237760D01*
X19599Y237802D01*
X19626Y237844D01*
X19663Y237885D01*
X19705Y237927D01*
X19751Y237964D01*
X19756Y237968D01*
X19774Y237978D01*
X19802Y237996D01*
X19844Y238015D01*
X19894Y238028D01*
X19950Y238047D01*
X20015Y238056D01*
X20088Y238061D01*
X20098D01*
X20121D01*
X20158Y238056D01*
D02*
G37*
G36*
X19710Y235806D02*
Y234074D01*
X19714D01*
X19728D01*
X19747Y234078D01*
X19774D01*
X19807Y234083D01*
X19844Y234092D01*
X19927Y234106D01*
X20019Y234134D01*
X20121Y234171D01*
X20213Y234222D01*
X20296Y234286D01*
Y234291D01*
X20306Y234296D01*
X20329Y234323D01*
X20361Y234365D01*
X20393Y234420D01*
X20430Y234494D01*
X20463Y234577D01*
X20486Y234670D01*
X20490Y234720D01*
X20495Y234776D01*
Y234813D01*
X20490Y234855D01*
X20481Y234905D01*
X20467Y234961D01*
X20449Y235025D01*
X20421Y235086D01*
X20384Y235145D01*
X20380Y235150D01*
X20361Y235173D01*
X20333Y235201D01*
X20296Y235233D01*
X20245Y235270D01*
X20181Y235312D01*
X20107Y235353D01*
X20019Y235390D01*
X20070Y235797D01*
X20075D01*
X20084Y235792D01*
X20102Y235788D01*
X20130Y235778D01*
X20158Y235765D01*
X20195Y235751D01*
X20273Y235714D01*
X20361Y235668D01*
X20453Y235603D01*
X20541Y235529D01*
X20624Y235437D01*
Y235432D01*
X20634Y235423D01*
X20643Y235409D01*
X20657Y235390D01*
X20671Y235363D01*
X20684Y235335D01*
X20703Y235298D01*
X20721Y235256D01*
X20740Y235210D01*
X20758Y235164D01*
X20786Y235049D01*
X20809Y234919D01*
X20818Y234776D01*
Y234725D01*
X20814Y234693D01*
X20809Y234651D01*
X20800Y234600D01*
X20791Y234545D01*
X20781Y234485D01*
X20744Y234355D01*
X20717Y234286D01*
X20689Y234222D01*
X20652Y234152D01*
X20610Y234088D01*
X20564Y234028D01*
X20509Y233967D01*
X20504Y233963D01*
X20495Y233954D01*
X20477Y233940D01*
X20449Y233921D01*
X20416Y233898D01*
X20380Y233875D01*
X20333Y233847D01*
X20282Y233820D01*
X20222Y233792D01*
X20158Y233764D01*
X20084Y233741D01*
X20005Y233718D01*
X19922Y233699D01*
X19830Y233686D01*
X19733Y233676D01*
X19631Y233672D01*
X19626D01*
X19603D01*
X19576D01*
X19534Y233676D01*
X19483Y233681D01*
X19428Y233686D01*
X19363Y233695D01*
X19298Y233709D01*
X19151Y233746D01*
X19077Y233769D01*
X18998Y233797D01*
X18924Y233834D01*
X18855Y233875D01*
X18786Y233921D01*
X18721Y233972D01*
X18716Y233977D01*
X18707Y233986D01*
X18693Y234004D01*
X18670Y234028D01*
X18647Y234055D01*
X18619Y234092D01*
X18587Y234134D01*
X18559Y234185D01*
X18527Y234235D01*
X18499Y234296D01*
X18471Y234360D01*
X18448Y234429D01*
X18425Y234503D01*
X18411Y234582D01*
X18402Y234665D01*
X18397Y234753D01*
Y234799D01*
X18402Y234831D01*
X18407Y234868D01*
X18416Y234914D01*
X18425Y234965D01*
X18439Y235025D01*
X18453Y235081D01*
X18476Y235145D01*
X18499Y235206D01*
X18531Y235270D01*
X18568Y235335D01*
X18610Y235400D01*
X18661Y235460D01*
X18716Y235515D01*
X18721Y235520D01*
X18730Y235529D01*
X18749Y235543D01*
X18776Y235561D01*
X18809Y235584D01*
X18846Y235608D01*
X18892Y235635D01*
X18947Y235663D01*
X19007Y235691D01*
X19072Y235718D01*
X19146Y235741D01*
X19225Y235765D01*
X19312Y235783D01*
X19405Y235797D01*
X19502Y235806D01*
X19608Y235811D01*
X19613D01*
X19631D01*
X19663D01*
X19710Y235806D01*
D02*
G37*
G36*
X17949Y232364D02*
X20768D01*
Y231939D01*
X17949D01*
Y230886D01*
X17571D01*
Y233418D01*
X17949D01*
Y232364D01*
D02*
G37*
%LPC*%
G36*
X197794Y281029D02*
X197757D01*
X197711Y281024D01*
X197660Y281015D01*
X197595Y281006D01*
X197530Y280987D01*
X197461Y280964D01*
X197392Y280932D01*
X197383Y280927D01*
X197364Y280913D01*
X197332Y280890D01*
X197295Y280858D01*
X197253Y280821D01*
X197207Y280775D01*
X197170Y280719D01*
X197133Y280659D01*
X197128Y280655D01*
X197124Y280636D01*
X197115Y280604D01*
X197101Y280562D01*
X197087Y280507D01*
X197078Y280442D01*
X197073Y280363D01*
X197068Y280271D01*
X197064Y280123D01*
X197068D01*
X197073Y280128D01*
X197087Y280132D01*
X197105Y280137D01*
X197128Y280146D01*
X197156Y280155D01*
X197189Y280165D01*
X197225Y280174D01*
X197267Y280188D01*
X197318Y280197D01*
X197369Y280211D01*
X197429Y280225D01*
X197494Y280239D01*
X197558Y280253D01*
X197632Y280262D01*
X197711Y280276D01*
X197720D01*
X197748Y280280D01*
X197794Y280290D01*
X197845Y280299D01*
X197900Y280308D01*
X197956Y280322D01*
X198006Y280336D01*
X198053Y280354D01*
X198057D01*
X198071Y280363D01*
X198090Y280373D01*
X198108Y280386D01*
X198163Y280423D01*
X198210Y280479D01*
Y280484D01*
X198219Y280493D01*
X198223Y280511D01*
X198233Y280534D01*
X198242Y280562D01*
X198251Y280590D01*
X198256Y280627D01*
X198260Y280664D01*
Y280668D01*
Y280691D01*
X198256Y280719D01*
X198247Y280756D01*
X198233Y280798D01*
X198210Y280839D01*
X198182Y280886D01*
X198145Y280927D01*
X198140Y280932D01*
X198122Y280941D01*
X198094Y280959D01*
X198057Y280978D01*
X198006Y280996D01*
X197946Y281015D01*
X197877Y281024D01*
X197794Y281029D01*
D02*
G37*
G36*
X190804Y279906D02*
X189506D01*
Y279901D01*
Y279892D01*
X189510Y279878D01*
Y279860D01*
X189519Y279804D01*
X189533Y279744D01*
X189556Y279670D01*
X189579Y279601D01*
X189616Y279532D01*
X189658Y279472D01*
Y279467D01*
X189667Y279463D01*
X189690Y279435D01*
X189732Y279398D01*
X189787Y279356D01*
X189857Y279315D01*
X189940Y279278D01*
X190037Y279250D01*
X190088Y279245D01*
X190143Y279241D01*
X190171D01*
X190189Y279245D01*
X190240Y279250D01*
X190300Y279264D01*
X190374Y279287D01*
X190453Y279319D01*
X190526Y279365D01*
X190600Y279426D01*
X190610Y279435D01*
X190628Y279458D01*
X190661Y279500D01*
X190693Y279555D01*
X190730Y279620D01*
X190762Y279703D01*
X190790Y279800D01*
X190804Y279906D01*
D02*
G37*
G36*
X169053Y281019D02*
X169025D01*
X169007Y281015D01*
X168960Y281006D01*
X168896Y280987D01*
X168826Y280955D01*
X168748Y280909D01*
X168711Y280881D01*
X168674Y280844D01*
X168637Y280807D01*
X168600Y280761D01*
Y280756D01*
X168591Y280747D01*
X168581Y280733D01*
X168572Y280710D01*
X168554Y280678D01*
X168540Y280636D01*
X168521Y280590D01*
X168503Y280534D01*
X168489Y280465D01*
X168471Y280391D01*
X168452Y280303D01*
X168438Y280211D01*
X168429Y280100D01*
X168420Y279985D01*
X168411Y279855D01*
Y279712D01*
Y279707D01*
Y279703D01*
Y279680D01*
Y279638D01*
X168415Y279583D01*
Y279523D01*
X168420Y279449D01*
X168424Y279370D01*
X168434Y279282D01*
X168457Y279107D01*
X168471Y279019D01*
X168489Y278936D01*
X168508Y278857D01*
X168535Y278783D01*
X168563Y278719D01*
X168595Y278663D01*
Y278659D01*
X168605Y278654D01*
X168614Y278640D01*
X168628Y278622D01*
X168669Y278580D01*
X168720Y278529D01*
X168789Y278483D01*
X168868Y278442D01*
X168910Y278423D01*
X168956Y278409D01*
X169007Y278404D01*
X169057Y278400D01*
X169085D01*
X169104Y278404D01*
X169154Y278414D01*
X169214Y278428D01*
X169284Y278455D01*
X169358Y278497D01*
X169395Y278525D01*
X169432Y278552D01*
X169464Y278589D01*
X169496Y278631D01*
Y278636D01*
X169506Y278645D01*
X169515Y278663D01*
X169529Y278686D01*
X169543Y278723D01*
X169561Y278765D01*
X169575Y278816D01*
X169593Y278876D01*
X169612Y278945D01*
X169630Y279024D01*
X169649Y279111D01*
X169663Y279208D01*
X169676Y279319D01*
X169686Y279439D01*
X169690Y279569D01*
X169695Y279712D01*
Y279721D01*
Y279744D01*
Y279786D01*
X169690Y279841D01*
Y279901D01*
X169686Y279975D01*
X169681Y280054D01*
X169672Y280137D01*
X169649Y280317D01*
X169635Y280405D01*
X169616Y280488D01*
X169598Y280567D01*
X169570Y280641D01*
X169543Y280705D01*
X169510Y280761D01*
Y280765D01*
X169501Y280770D01*
X169478Y280802D01*
X169436Y280844D01*
X169385Y280890D01*
X169316Y280936D01*
X169238Y280978D01*
X169150Y281010D01*
X169104Y281015D01*
X169053Y281019D01*
D02*
G37*
G36*
X162594D02*
X162566D01*
X162548Y281015D01*
X162502Y281006D01*
X162437Y280987D01*
X162368Y280955D01*
X162289Y280909D01*
X162252Y280881D01*
X162215Y280844D01*
X162178Y280807D01*
X162141Y280761D01*
Y280756D01*
X162132Y280747D01*
X162123Y280733D01*
X162113Y280710D01*
X162095Y280678D01*
X162081Y280636D01*
X162063Y280590D01*
X162044Y280534D01*
X162030Y280465D01*
X162012Y280391D01*
X161993Y280303D01*
X161979Y280211D01*
X161970Y280100D01*
X161961Y279985D01*
X161952Y279855D01*
Y279712D01*
Y279707D01*
Y279703D01*
Y279680D01*
Y279638D01*
X161956Y279583D01*
Y279523D01*
X161961Y279449D01*
X161966Y279370D01*
X161975Y279282D01*
X161998Y279107D01*
X162012Y279019D01*
X162030Y278936D01*
X162049Y278857D01*
X162077Y278783D01*
X162104Y278719D01*
X162137Y278663D01*
Y278659D01*
X162146Y278654D01*
X162155Y278640D01*
X162169Y278622D01*
X162211Y278580D01*
X162261Y278529D01*
X162331Y278483D01*
X162409Y278442D01*
X162451Y278423D01*
X162497Y278409D01*
X162548Y278404D01*
X162599Y278400D01*
X162626D01*
X162645Y278404D01*
X162696Y278414D01*
X162756Y278428D01*
X162825Y278455D01*
X162899Y278497D01*
X162936Y278525D01*
X162973Y278552D01*
X163005Y278589D01*
X163038Y278631D01*
Y278636D01*
X163047Y278645D01*
X163056Y278663D01*
X163070Y278686D01*
X163084Y278723D01*
X163102Y278765D01*
X163116Y278816D01*
X163135Y278876D01*
X163153Y278945D01*
X163172Y279024D01*
X163190Y279111D01*
X163204Y279208D01*
X163218Y279319D01*
X163227Y279439D01*
X163232Y279569D01*
X163236Y279712D01*
Y279721D01*
Y279744D01*
Y279786D01*
X163232Y279841D01*
Y279901D01*
X163227Y279975D01*
X163222Y280054D01*
X163213Y280137D01*
X163190Y280317D01*
X163176Y280405D01*
X163158Y280488D01*
X163139Y280567D01*
X163111Y280641D01*
X163084Y280705D01*
X163051Y280761D01*
Y280765D01*
X163042Y280770D01*
X163019Y280802D01*
X162978Y280844D01*
X162927Y280890D01*
X162857Y280936D01*
X162779Y280978D01*
X162691Y281010D01*
X162645Y281015D01*
X162594Y281019D01*
D02*
G37*
G36*
X19723Y264136D02*
X19645D01*
X19640D01*
X19622D01*
X19599D01*
X19566Y264131D01*
X19529D01*
X19483Y264127D01*
X19432Y264122D01*
X19377Y264113D01*
X19266Y264090D01*
X19151Y264057D01*
X19040Y264011D01*
X18993Y263984D01*
X18947Y263951D01*
X18943D01*
X18938Y263942D01*
X18910Y263919D01*
X18873Y263877D01*
X18832Y263826D01*
X18790Y263762D01*
X18758Y263683D01*
X18730Y263596D01*
X18725Y263549D01*
X18721Y263498D01*
Y263475D01*
X18725Y263457D01*
X18730Y263406D01*
X18749Y263346D01*
X18772Y263277D01*
X18813Y263203D01*
X18864Y263129D01*
X18901Y263092D01*
X18938Y263060D01*
X18943D01*
X18947Y263050D01*
X18961Y263046D01*
X18980Y263032D01*
X19003Y263018D01*
X19030Y263004D01*
X19063Y262990D01*
X19100Y262972D01*
X19146Y262953D01*
X19197Y262940D01*
X19252Y262926D01*
X19312Y262912D01*
X19377Y262902D01*
X19451Y262893D01*
X19529Y262884D01*
X19613D01*
X19617D01*
X19631D01*
X19654D01*
X19687Y262889D01*
X19723D01*
X19765Y262893D01*
X19862Y262907D01*
X19968Y262930D01*
X20079Y262963D01*
X20186Y263009D01*
X20232Y263036D01*
X20278Y263069D01*
Y263073D01*
X20287Y263078D01*
X20310Y263101D01*
X20347Y263143D01*
X20384Y263194D01*
X20426Y263258D01*
X20463Y263337D01*
X20486Y263420D01*
X20490Y263466D01*
X20495Y263512D01*
Y263535D01*
X20490Y263554D01*
X20486Y263605D01*
X20467Y263665D01*
X20444Y263734D01*
X20407Y263808D01*
X20356Y263882D01*
X20324Y263919D01*
X20287Y263951D01*
X20282D01*
X20278Y263961D01*
X20264Y263970D01*
X20245Y263979D01*
X20222Y263993D01*
X20199Y264011D01*
X20162Y264025D01*
X20125Y264044D01*
X20084Y264062D01*
X20038Y264076D01*
X19982Y264094D01*
X19927Y264108D01*
X19862Y264118D01*
X19797Y264127D01*
X19723Y264136D01*
D02*
G37*
G36*
X19677Y256795D02*
X19594D01*
X19590D01*
X19576D01*
X19553D01*
X19525Y256790D01*
X19488D01*
X19446Y256786D01*
X19349Y256772D01*
X19248Y256749D01*
X19137Y256712D01*
X19035Y256661D01*
X18984Y256633D01*
X18943Y256596D01*
X18938D01*
X18933Y256587D01*
X18906Y256559D01*
X18873Y256518D01*
X18832Y256462D01*
X18790Y256393D01*
X18753Y256310D01*
X18730Y256217D01*
X18725Y256167D01*
X18721Y256111D01*
Y256083D01*
X18725Y256060D01*
X18730Y256010D01*
X18749Y255940D01*
X18776Y255862D01*
X18813Y255779D01*
X18869Y255700D01*
X18906Y255658D01*
X18943Y255621D01*
X18947D01*
X18952Y255612D01*
X18966Y255603D01*
X18984Y255589D01*
X19007Y255575D01*
X19035Y255561D01*
X19072Y255543D01*
X19109Y255524D01*
X19155Y255506D01*
X19201Y255487D01*
X19257Y255473D01*
X19317Y255460D01*
X19382Y255446D01*
X19451Y255437D01*
X19529Y255432D01*
X19608Y255427D01*
X19613D01*
X19626D01*
X19649D01*
X19682Y255432D01*
X19719D01*
X19760Y255437D01*
X19857Y255450D01*
X19968Y255473D01*
X20079Y255510D01*
X20186Y255557D01*
X20232Y255589D01*
X20278Y255621D01*
Y255626D01*
X20287Y255631D01*
X20310Y255658D01*
X20347Y255700D01*
X20384Y255755D01*
X20426Y255825D01*
X20463Y255908D01*
X20486Y256005D01*
X20490Y256056D01*
X20495Y256111D01*
Y256139D01*
X20490Y256162D01*
X20481Y256213D01*
X20467Y256282D01*
X20439Y256356D01*
X20403Y256439D01*
X20347Y256518D01*
X20310Y256559D01*
X20273Y256596D01*
X20269Y256601D01*
X20264Y256605D01*
X20250Y256615D01*
X20232Y256628D01*
X20209Y256642D01*
X20181Y256661D01*
X20144Y256679D01*
X20107Y256698D01*
X20061Y256716D01*
X20010Y256730D01*
X19954Y256749D01*
X19894Y256763D01*
X19825Y256776D01*
X19756Y256786D01*
X19677Y256795D01*
D02*
G37*
G36*
X18448Y254124D02*
X18444D01*
X18439D01*
X18411Y254120D01*
X18370Y254115D01*
X18314Y254106D01*
X18259Y254083D01*
X18194Y254055D01*
X18134Y254014D01*
X18074Y253958D01*
X18069Y253949D01*
X18051Y253926D01*
X18028Y253889D01*
X18000Y253829D01*
X17973Y253760D01*
X17949Y253667D01*
X17931Y253561D01*
X17926Y253436D01*
Y252429D01*
X18984D01*
Y253381D01*
X18980Y253436D01*
X18975Y253501D01*
X18970Y253575D01*
X18961Y253649D01*
X18947Y253723D01*
X18929Y253787D01*
X18924Y253797D01*
X18915Y253815D01*
X18901Y253843D01*
X18883Y253880D01*
X18855Y253921D01*
X18823Y253963D01*
X18781Y254004D01*
X18735Y254037D01*
X18730Y254041D01*
X18712Y254051D01*
X18684Y254064D01*
X18647Y254083D01*
X18605Y254097D01*
X18559Y254111D01*
X18504Y254120D01*
X18448Y254124D01*
D02*
G37*
G36*
X19677Y243877D02*
X19594D01*
X19590D01*
X19576D01*
X19553D01*
X19525Y243873D01*
X19488D01*
X19446Y243868D01*
X19349Y243854D01*
X19248Y243831D01*
X19137Y243794D01*
X19035Y243743D01*
X18984Y243716D01*
X18943Y243679D01*
X18938D01*
X18933Y243669D01*
X18906Y243642D01*
X18873Y243600D01*
X18832Y243545D01*
X18790Y243475D01*
X18753Y243392D01*
X18730Y243300D01*
X18725Y243249D01*
X18721Y243194D01*
Y243166D01*
X18725Y243143D01*
X18730Y243092D01*
X18749Y243023D01*
X18776Y242944D01*
X18813Y242861D01*
X18869Y242782D01*
X18906Y242741D01*
X18943Y242704D01*
X18947D01*
X18952Y242695D01*
X18966Y242685D01*
X18984Y242671D01*
X19007Y242658D01*
X19035Y242644D01*
X19072Y242625D01*
X19109Y242607D01*
X19155Y242588D01*
X19201Y242570D01*
X19257Y242556D01*
X19317Y242542D01*
X19382Y242528D01*
X19451Y242519D01*
X19529Y242514D01*
X19608Y242510D01*
X19613D01*
X19626D01*
X19649D01*
X19682Y242514D01*
X19719D01*
X19760Y242519D01*
X19857Y242533D01*
X19968Y242556D01*
X20079Y242593D01*
X20186Y242639D01*
X20232Y242671D01*
X20278Y242704D01*
Y242708D01*
X20287Y242713D01*
X20310Y242741D01*
X20347Y242782D01*
X20384Y242838D01*
X20426Y242907D01*
X20463Y242990D01*
X20486Y243087D01*
X20490Y243138D01*
X20495Y243194D01*
Y243221D01*
X20490Y243244D01*
X20481Y243295D01*
X20467Y243365D01*
X20439Y243438D01*
X20403Y243522D01*
X20347Y243600D01*
X20310Y243642D01*
X20273Y243679D01*
X20269Y243683D01*
X20264Y243688D01*
X20250Y243697D01*
X20232Y243711D01*
X20209Y243725D01*
X20181Y243743D01*
X20144Y243762D01*
X20107Y243780D01*
X20061Y243799D01*
X20010Y243813D01*
X19954Y243831D01*
X19894Y243845D01*
X19825Y243859D01*
X19756Y243868D01*
X19677Y243877D01*
D02*
G37*
G36*
X19673Y241378D02*
X19590D01*
X19585D01*
X19571D01*
X19548D01*
X19515Y241373D01*
X19479D01*
X19437Y241369D01*
X19340Y241355D01*
X19234Y241332D01*
X19128Y241299D01*
X19021Y241253D01*
X18970Y241226D01*
X18929Y241193D01*
X18924D01*
X18920Y241184D01*
X18892Y241161D01*
X18859Y241124D01*
X18818Y241073D01*
X18776Y241008D01*
X18739Y240934D01*
X18716Y240851D01*
X18712Y240805D01*
X18707Y240759D01*
Y240736D01*
X18712Y240717D01*
X18721Y240671D01*
X18735Y240611D01*
X18763Y240542D01*
X18804Y240468D01*
X18832Y240426D01*
X18864Y240389D01*
X18901Y240352D01*
X18943Y240315D01*
X18947D01*
X18952Y240306D01*
X18966Y240297D01*
X18984Y240288D01*
X19012Y240274D01*
X19040Y240255D01*
X19077Y240237D01*
X19114Y240223D01*
X19160Y240204D01*
X19211Y240186D01*
X19266Y240172D01*
X19326Y240154D01*
X19395Y240144D01*
X19465Y240135D01*
X19539Y240126D01*
X19622D01*
X19626D01*
X19640D01*
X19663D01*
X19696Y240130D01*
X19733D01*
X19774Y240135D01*
X19871Y240149D01*
X19982Y240172D01*
X20088Y240200D01*
X20195Y240246D01*
X20241Y240274D01*
X20282Y240306D01*
X20292Y240315D01*
X20315Y240338D01*
X20352Y240375D01*
X20389Y240426D01*
X20426Y240491D01*
X20463Y240565D01*
X20486Y240648D01*
X20490Y240694D01*
X20495Y240740D01*
Y240768D01*
X20490Y240787D01*
X20481Y240833D01*
X20467Y240897D01*
X20439Y240967D01*
X20403Y241041D01*
X20347Y241115D01*
X20315Y241151D01*
X20278Y241189D01*
X20273D01*
X20269Y241198D01*
X20255Y241207D01*
X20236Y241216D01*
X20213Y241235D01*
X20181Y241249D01*
X20148Y241267D01*
X20107Y241285D01*
X20065Y241299D01*
X20010Y241318D01*
X19954Y241336D01*
X19894Y241350D01*
X19825Y241359D01*
X19751Y241369D01*
X19673Y241378D01*
D02*
G37*
G36*
X19386Y235395D02*
X19382D01*
X19372D01*
X19358Y235390D01*
X19340D01*
X19285Y235381D01*
X19225Y235367D01*
X19151Y235344D01*
X19081Y235321D01*
X19012Y235284D01*
X18952Y235243D01*
X18947D01*
X18943Y235233D01*
X18915Y235210D01*
X18878Y235169D01*
X18836Y235113D01*
X18795Y235044D01*
X18758Y234961D01*
X18730Y234864D01*
X18725Y234813D01*
X18721Y234757D01*
Y234730D01*
X18725Y234711D01*
X18730Y234660D01*
X18744Y234600D01*
X18767Y234526D01*
X18799Y234448D01*
X18846Y234374D01*
X18906Y234300D01*
X18915Y234291D01*
X18938Y234272D01*
X18980Y234240D01*
X19035Y234208D01*
X19100Y234171D01*
X19183Y234138D01*
X19280Y234111D01*
X19386Y234097D01*
Y235395D01*
D02*
G37*
%LPD*%
M02*
