G04*
G04 #@! TF.GenerationSoftware,Altium Limited,Altium Designer,21.4.1 (30)*
G04*
G04 Layer_Color=255*
%FSLAX25Y25*%
%MOIN*%
G70*
G04*
G04 #@! TF.SameCoordinates,ABD127B9-61DE-435D-9B50-71DF74D21850*
G04*
G04*
G04 #@! TF.FilePolarity,Positive*
G04*
G01*
G75*
%ADD20R,0.04724X0.07874*%
%ADD21O,0.01968X0.03937*%
%ADD22R,0.02165X0.04724*%
%ADD23O,0.07087X0.01181*%
%ADD24O,0.01181X0.07087*%
%ADD25O,0.01575X0.07677*%
%ADD26R,0.02362X0.03937*%
%ADD27R,0.12598X0.08268*%
%ADD28R,0.03543X0.08268*%
%ADD29R,0.02362X0.06496*%
%ADD30O,0.02165X0.05512*%
G04:AMPARAMS|DCode=31|XSize=23.62mil|YSize=59.06mil|CornerRadius=5.91mil|HoleSize=0mil|Usage=FLASHONLY|Rotation=90.000|XOffset=0mil|YOffset=0mil|HoleType=Round|Shape=RoundedRectangle|*
%AMROUNDEDRECTD31*
21,1,0.02362,0.04724,0,0,90.0*
21,1,0.01181,0.05906,0,0,90.0*
1,1,0.01181,0.02362,0.00591*
1,1,0.01181,0.02362,-0.00591*
1,1,0.01181,-0.02362,-0.00591*
1,1,0.01181,-0.02362,0.00591*
%
%ADD31ROUNDEDRECTD31*%
G04:AMPARAMS|DCode=32|XSize=17.72mil|YSize=33.47mil|CornerRadius=4.43mil|HoleSize=0mil|Usage=FLASHONLY|Rotation=180.000|XOffset=0mil|YOffset=0mil|HoleType=Round|Shape=RoundedRectangle|*
%AMROUNDEDRECTD32*
21,1,0.01772,0.02461,0,0,180.0*
21,1,0.00886,0.03347,0,0,180.0*
1,1,0.00886,-0.00443,0.01230*
1,1,0.00886,0.00443,0.01230*
1,1,0.00886,0.00443,-0.01230*
1,1,0.00886,-0.00443,-0.01230*
%
%ADD32ROUNDEDRECTD32*%
%ADD33R,0.10236X0.13780*%
%ADD34R,0.06378X0.08583*%
%ADD35R,0.07874X0.14764*%
G04:AMPARAMS|DCode=36|XSize=35.43mil|YSize=27.56mil|CornerRadius=6.89mil|HoleSize=0mil|Usage=FLASHONLY|Rotation=180.000|XOffset=0mil|YOffset=0mil|HoleType=Round|Shape=RoundedRectangle|*
%AMROUNDEDRECTD36*
21,1,0.03543,0.01378,0,0,180.0*
21,1,0.02165,0.02756,0,0,180.0*
1,1,0.01378,-0.01083,0.00689*
1,1,0.01378,0.01083,0.00689*
1,1,0.01378,0.01083,-0.00689*
1,1,0.01378,-0.01083,-0.00689*
%
%ADD36ROUNDEDRECTD36*%
G04:AMPARAMS|DCode=37|XSize=23.62mil|YSize=47.24mil|CornerRadius=2.01mil|HoleSize=0mil|Usage=FLASHONLY|Rotation=180.000|XOffset=0mil|YOffset=0mil|HoleType=Round|Shape=RoundedRectangle|*
%AMROUNDEDRECTD37*
21,1,0.02362,0.04323,0,0,180.0*
21,1,0.01961,0.04724,0,0,180.0*
1,1,0.00402,-0.00980,0.02161*
1,1,0.00402,0.00980,0.02161*
1,1,0.00402,0.00980,-0.02161*
1,1,0.00402,-0.00980,-0.02161*
%
%ADD37ROUNDEDRECTD37*%
G04:AMPARAMS|DCode=38|XSize=19.68mil|YSize=51.18mil|CornerRadius=1.97mil|HoleSize=0mil|Usage=FLASHONLY|Rotation=180.000|XOffset=0mil|YOffset=0mil|HoleType=Round|Shape=RoundedRectangle|*
%AMROUNDEDRECTD38*
21,1,0.01968,0.04724,0,0,180.0*
21,1,0.01575,0.05118,0,0,180.0*
1,1,0.00394,-0.00787,0.02362*
1,1,0.00394,0.00787,0.02362*
1,1,0.00394,0.00787,-0.02362*
1,1,0.00394,-0.00787,-0.02362*
%
%ADD38ROUNDEDRECTD38*%
%ADD39R,0.03268X0.02480*%
%ADD40R,0.17520X0.03937*%
%ADD41R,0.40158X0.41142*%
%ADD43O,0.02165X0.06693*%
%ADD44R,0.05512X0.03937*%
G04:AMPARAMS|DCode=45|XSize=137.8mil|YSize=80.71mil|CornerRadius=20.18mil|HoleSize=0mil|Usage=FLASHONLY|Rotation=90.000|XOffset=0mil|YOffset=0mil|HoleType=Round|Shape=RoundedRectangle|*
%AMROUNDEDRECTD45*
21,1,0.13780,0.04036,0,0,90.0*
21,1,0.09744,0.08071,0,0,90.0*
1,1,0.04035,0.02018,0.04872*
1,1,0.04035,0.02018,-0.04872*
1,1,0.04035,-0.02018,-0.04872*
1,1,0.04035,-0.02018,0.04872*
%
%ADD45ROUNDEDRECTD45*%
G04:AMPARAMS|DCode=46|XSize=110.24mil|YSize=19.68mil|CornerRadius=4.92mil|HoleSize=0mil|Usage=FLASHONLY|Rotation=90.000|XOffset=0mil|YOffset=0mil|HoleType=Round|Shape=RoundedRectangle|*
%AMROUNDEDRECTD46*
21,1,0.11024,0.00984,0,0,90.0*
21,1,0.10039,0.01968,0,0,90.0*
1,1,0.00984,0.00492,0.05020*
1,1,0.00984,0.00492,-0.05020*
1,1,0.00984,-0.00492,-0.05020*
1,1,0.00984,-0.00492,0.05020*
%
%ADD46ROUNDEDRECTD46*%
G04:AMPARAMS|DCode=47|XSize=157.48mil|YSize=80.71mil|CornerRadius=20.18mil|HoleSize=0mil|Usage=FLASHONLY|Rotation=90.000|XOffset=0mil|YOffset=0mil|HoleType=Round|Shape=RoundedRectangle|*
%AMROUNDEDRECTD47*
21,1,0.15748,0.04035,0,0,90.0*
21,1,0.11713,0.08071,0,0,90.0*
1,1,0.04035,0.02018,0.05856*
1,1,0.04035,0.02018,-0.05856*
1,1,0.04035,-0.02018,-0.05856*
1,1,0.04035,-0.02018,0.05856*
%
%ADD47ROUNDEDRECTD47*%
G04:AMPARAMS|DCode=48|XSize=137.8mil|YSize=80.71mil|CornerRadius=20.18mil|HoleSize=0mil|Usage=FLASHONLY|Rotation=90.000|XOffset=0mil|YOffset=0mil|HoleType=Round|Shape=RoundedRectangle|*
%AMROUNDEDRECTD48*
21,1,0.13780,0.04035,0,0,90.0*
21,1,0.09744,0.08071,0,0,90.0*
1,1,0.04035,0.02018,0.04872*
1,1,0.04035,0.02018,-0.04872*
1,1,0.04035,-0.02018,-0.04872*
1,1,0.04035,-0.02018,0.04872*
%
%ADD48ROUNDEDRECTD48*%
%ADD49R,0.07717X0.12402*%
G04:AMPARAMS|DCode=50|XSize=35.43mil|YSize=27.56mil|CornerRadius=6.89mil|HoleSize=0mil|Usage=FLASHONLY|Rotation=270.000|XOffset=0mil|YOffset=0mil|HoleType=Round|Shape=RoundedRectangle|*
%AMROUNDEDRECTD50*
21,1,0.03543,0.01378,0,0,270.0*
21,1,0.02165,0.02756,0,0,270.0*
1,1,0.01378,-0.00689,-0.01083*
1,1,0.01378,-0.00689,0.01083*
1,1,0.01378,0.00689,0.01083*
1,1,0.01378,0.00689,-0.01083*
%
%ADD50ROUNDEDRECTD50*%
%ADD51R,0.11221X0.04134*%
%ADD52R,0.28347X0.41339*%
%ADD53R,0.03937X0.03543*%
%ADD54R,0.03150X0.03150*%
%ADD55R,0.04134X0.02362*%
%ADD56R,0.27559X0.22441*%
%ADD57R,0.11417X0.04921*%
G04:AMPARAMS|DCode=58|XSize=61.02mil|YSize=96.46mil|CornerRadius=7.63mil|HoleSize=0mil|Usage=FLASHONLY|Rotation=90.000|XOffset=0mil|YOffset=0mil|HoleType=Round|Shape=RoundedRectangle|*
%AMROUNDEDRECTD58*
21,1,0.06102,0.08120,0,0,90.0*
21,1,0.04577,0.09646,0,0,90.0*
1,1,0.01526,0.04060,0.02288*
1,1,0.01526,0.04060,-0.02288*
1,1,0.01526,-0.04060,-0.02288*
1,1,0.01526,-0.04060,0.02288*
%
%ADD58ROUNDEDRECTD58*%
%ADD59R,0.11024X0.02756*%
G04:AMPARAMS|DCode=60|XSize=57.09mil|YSize=35.43mil|CornerRadius=7.09mil|HoleSize=0mil|Usage=FLASHONLY|Rotation=90.000|XOffset=0mil|YOffset=0mil|HoleType=Round|Shape=RoundedRectangle|*
%AMROUNDEDRECTD60*
21,1,0.05709,0.02126,0,0,90.0*
21,1,0.04291,0.03543,0,0,90.0*
1,1,0.01417,0.01063,0.02146*
1,1,0.01417,0.01063,-0.02146*
1,1,0.01417,-0.01063,-0.02146*
1,1,0.01417,-0.01063,0.02146*
%
%ADD60ROUNDEDRECTD60*%
G04:AMPARAMS|DCode=61|XSize=37.4mil|YSize=29.53mil|CornerRadius=7.38mil|HoleSize=0mil|Usage=FLASHONLY|Rotation=270.000|XOffset=0mil|YOffset=0mil|HoleType=Round|Shape=RoundedRectangle|*
%AMROUNDEDRECTD61*
21,1,0.03740,0.01476,0,0,270.0*
21,1,0.02264,0.02953,0,0,270.0*
1,1,0.01476,-0.00738,-0.01132*
1,1,0.01476,-0.00738,0.01132*
1,1,0.01476,0.00738,0.01132*
1,1,0.01476,0.00738,-0.01132*
%
%ADD61ROUNDEDRECTD61*%
%ADD62R,0.06693X0.07284*%
%ADD63O,0.02362X0.09055*%
%ADD64O,0.07874X0.02362*%
%ADD65R,0.04331X0.02362*%
%ADD66R,0.07480X0.04331*%
G04:AMPARAMS|DCode=67|XSize=37.4mil|YSize=29.53mil|CornerRadius=7.38mil|HoleSize=0mil|Usage=FLASHONLY|Rotation=180.000|XOffset=0mil|YOffset=0mil|HoleType=Round|Shape=RoundedRectangle|*
%AMROUNDEDRECTD67*
21,1,0.03740,0.01476,0,0,180.0*
21,1,0.02264,0.02953,0,0,180.0*
1,1,0.01476,-0.01132,0.00738*
1,1,0.01476,0.01132,0.00738*
1,1,0.01476,0.01132,-0.00738*
1,1,0.01476,-0.01132,-0.00738*
%
%ADD67ROUNDEDRECTD67*%
%ADD68R,0.06496X0.02362*%
G04:AMPARAMS|DCode=69|XSize=57.09mil|YSize=35.43mil|CornerRadius=7.09mil|HoleSize=0mil|Usage=FLASHONLY|Rotation=180.000|XOffset=0mil|YOffset=0mil|HoleType=Round|Shape=RoundedRectangle|*
%AMROUNDEDRECTD69*
21,1,0.05709,0.02126,0,0,180.0*
21,1,0.04291,0.03543,0,0,180.0*
1,1,0.01417,-0.02146,0.01063*
1,1,0.01417,0.02146,0.01063*
1,1,0.01417,0.02146,-0.01063*
1,1,0.01417,-0.02146,-0.01063*
%
%ADD69ROUNDEDRECTD69*%
%ADD70R,0.14764X0.07874*%
G04:AMPARAMS|DCode=71|XSize=17.72mil|YSize=33.47mil|CornerRadius=4.43mil|HoleSize=0mil|Usage=FLASHONLY|Rotation=270.000|XOffset=0mil|YOffset=0mil|HoleType=Round|Shape=RoundedRectangle|*
%AMROUNDEDRECTD71*
21,1,0.01772,0.02461,0,0,270.0*
21,1,0.00886,0.03347,0,0,270.0*
1,1,0.00886,-0.01230,-0.00443*
1,1,0.00886,-0.01230,0.00443*
1,1,0.00886,0.01230,0.00443*
1,1,0.00886,0.01230,-0.00443*
%
%ADD71ROUNDEDRECTD71*%
%ADD72O,0.09055X0.02362*%
%ADD73O,0.05512X0.02165*%
%ADD74O,0.03937X0.01968*%
%ADD75R,0.07874X0.04724*%
G04:AMPARAMS|DCode=146|XSize=39.37mil|YSize=39.37mil|CornerRadius=3.94mil|HoleSize=0mil|Usage=FLASHONLY|Rotation=90.000|XOffset=0mil|YOffset=0mil|HoleType=Round|Shape=RoundedRectangle|*
%AMROUNDEDRECTD146*
21,1,0.03937,0.03150,0,0,90.0*
21,1,0.03150,0.03937,0,0,90.0*
1,1,0.00787,0.01575,0.01575*
1,1,0.00787,0.01575,-0.01575*
1,1,0.00787,-0.01575,-0.01575*
1,1,0.00787,-0.01575,0.01575*
%
%ADD146ROUNDEDRECTD146*%
%ADD147C,0.03937*%
%ADD148R,0.02756X0.02362*%
%ADD157C,0.03543*%
%ADD158C,0.05512*%
%ADD159R,0.05512X0.05512*%
%ADD160C,0.06890*%
%ADD161C,0.05906*%
%ADD162C,0.07874*%
%ADD163C,0.03543*%
%ADD164C,0.06000*%
%ADD165C,0.27559*%
D20*
X134419Y120782D02*
D03*
Y135350D02*
D03*
X143081Y120782D02*
D03*
Y135350D02*
D03*
D21*
X34365Y429006D02*
D03*
X30625D02*
D03*
X26885D02*
D03*
X34365Y418376D02*
D03*
X30625D02*
D03*
X26885D02*
D03*
D22*
X498430Y114178D02*
D03*
X504729D02*
D03*
X501580D02*
D03*
X514178D02*
D03*
X507879D02*
D03*
X511028D02*
D03*
X523627D02*
D03*
X520477D02*
D03*
X517328D02*
D03*
X533076D02*
D03*
X526777D02*
D03*
X529926D02*
D03*
X498430Y159454D02*
D03*
X504729D02*
D03*
X501580D02*
D03*
X514178D02*
D03*
X507879D02*
D03*
X511028D02*
D03*
X523627D02*
D03*
X517328D02*
D03*
X529926D02*
D03*
X520477D02*
D03*
X526777D02*
D03*
X555123Y114178D02*
D03*
X551973D02*
D03*
X561422D02*
D03*
X558273D02*
D03*
X539375D02*
D03*
X536225D02*
D03*
X548824D02*
D03*
X542525D02*
D03*
X545674D02*
D03*
X567722D02*
D03*
X564572D02*
D03*
X574021D02*
D03*
X570871D02*
D03*
X580320D02*
D03*
X577170D02*
D03*
X533076Y159454D02*
D03*
X539375D02*
D03*
X542525D02*
D03*
X536225D02*
D03*
X551973D02*
D03*
X545674D02*
D03*
X548824D02*
D03*
X574021D02*
D03*
X570871D02*
D03*
X580320D02*
D03*
X577170D02*
D03*
X558273D02*
D03*
X555123D02*
D03*
X567722D02*
D03*
X561422D02*
D03*
X564572D02*
D03*
D23*
X359341Y118243D02*
D03*
Y120212D02*
D03*
Y122180D02*
D03*
Y124149D02*
D03*
Y126117D02*
D03*
Y128086D02*
D03*
Y130054D02*
D03*
Y132023D02*
D03*
Y133991D02*
D03*
Y135960D02*
D03*
Y137928D02*
D03*
Y139897D02*
D03*
Y141865D02*
D03*
Y143834D02*
D03*
Y145802D02*
D03*
Y147771D02*
D03*
Y149739D02*
D03*
Y151708D02*
D03*
Y153676D02*
D03*
Y155645D02*
D03*
Y157613D02*
D03*
Y159582D02*
D03*
Y161550D02*
D03*
Y163519D02*
D03*
Y165487D02*
D03*
Y167456D02*
D03*
Y169424D02*
D03*
Y171393D02*
D03*
Y173361D02*
D03*
Y175330D02*
D03*
Y177298D02*
D03*
Y179267D02*
D03*
Y181235D02*
D03*
Y183204D02*
D03*
Y185172D02*
D03*
Y187141D02*
D03*
Y189109D02*
D03*
Y191078D02*
D03*
Y193046D02*
D03*
Y195015D02*
D03*
Y196983D02*
D03*
Y198952D02*
D03*
Y200920D02*
D03*
Y202889D02*
D03*
X458159D02*
D03*
Y200920D02*
D03*
Y198952D02*
D03*
Y196983D02*
D03*
Y195015D02*
D03*
Y193046D02*
D03*
Y191078D02*
D03*
Y189109D02*
D03*
Y187141D02*
D03*
Y185172D02*
D03*
Y183204D02*
D03*
Y181235D02*
D03*
Y179267D02*
D03*
Y177298D02*
D03*
Y175330D02*
D03*
Y173361D02*
D03*
Y171393D02*
D03*
Y169424D02*
D03*
Y167456D02*
D03*
Y165487D02*
D03*
Y163519D02*
D03*
Y161550D02*
D03*
Y159582D02*
D03*
Y157613D02*
D03*
Y155645D02*
D03*
Y153676D02*
D03*
Y151708D02*
D03*
Y149739D02*
D03*
Y147771D02*
D03*
Y145802D02*
D03*
Y143834D02*
D03*
Y141865D02*
D03*
Y139897D02*
D03*
Y137928D02*
D03*
Y135960D02*
D03*
Y133991D02*
D03*
Y132023D02*
D03*
Y130054D02*
D03*
Y128086D02*
D03*
Y126117D02*
D03*
Y124149D02*
D03*
Y122180D02*
D03*
Y120212D02*
D03*
Y118243D02*
D03*
X59026Y97850D02*
D03*
Y101786D02*
D03*
Y99818D02*
D03*
Y91944D02*
D03*
Y95881D02*
D03*
Y93913D02*
D03*
Y107692D02*
D03*
Y105724D02*
D03*
Y109660D02*
D03*
Y103755D02*
D03*
Y119503D02*
D03*
Y123440D02*
D03*
Y121472D02*
D03*
Y113598D02*
D03*
Y111629D02*
D03*
Y117534D02*
D03*
Y115566D02*
D03*
Y135251D02*
D03*
Y133282D02*
D03*
Y139188D02*
D03*
Y137220D02*
D03*
Y127377D02*
D03*
Y125408D02*
D03*
Y131314D02*
D03*
Y129346D02*
D03*
X118474Y93913D02*
D03*
Y91944D02*
D03*
Y95881D02*
D03*
Y99818D02*
D03*
Y97850D02*
D03*
Y101786D02*
D03*
Y105724D02*
D03*
Y103755D02*
D03*
Y109660D02*
D03*
Y107692D02*
D03*
Y119503D02*
D03*
Y123440D02*
D03*
Y121472D02*
D03*
Y113598D02*
D03*
Y111629D02*
D03*
Y117534D02*
D03*
Y115566D02*
D03*
Y135251D02*
D03*
Y133282D02*
D03*
Y139188D02*
D03*
Y137220D02*
D03*
Y127377D02*
D03*
Y125408D02*
D03*
Y131314D02*
D03*
Y129346D02*
D03*
D24*
X366427Y209976D02*
D03*
X368396D02*
D03*
X370364D02*
D03*
X372333D02*
D03*
X374301D02*
D03*
X376270D02*
D03*
X378238D02*
D03*
X380207D02*
D03*
X382175D02*
D03*
X384144D02*
D03*
X386112D02*
D03*
X388081D02*
D03*
X390049D02*
D03*
X392018D02*
D03*
X393986D02*
D03*
X395955D02*
D03*
X397923D02*
D03*
X399892D02*
D03*
X401860D02*
D03*
X403829D02*
D03*
X405797D02*
D03*
X407766D02*
D03*
X409734D02*
D03*
X411703D02*
D03*
X413671D02*
D03*
X415640D02*
D03*
X417608D02*
D03*
X419577D02*
D03*
X421545D02*
D03*
X423514D02*
D03*
X425482D02*
D03*
X427451D02*
D03*
X429419D02*
D03*
X431388D02*
D03*
X433356D02*
D03*
X435325D02*
D03*
X437293D02*
D03*
X439262D02*
D03*
X441230D02*
D03*
X443199D02*
D03*
X445167D02*
D03*
X447136D02*
D03*
X449104D02*
D03*
X451073D02*
D03*
Y111156D02*
D03*
X449104D02*
D03*
X447136D02*
D03*
X445167D02*
D03*
X443199D02*
D03*
X441230D02*
D03*
X439262D02*
D03*
X437293D02*
D03*
X435325D02*
D03*
X433356D02*
D03*
X431388D02*
D03*
X429419D02*
D03*
X427451D02*
D03*
X425482D02*
D03*
X423514D02*
D03*
X421545D02*
D03*
X419577D02*
D03*
X417608D02*
D03*
X415640D02*
D03*
X413671D02*
D03*
X411703D02*
D03*
X409734D02*
D03*
X407766D02*
D03*
X405797D02*
D03*
X403829D02*
D03*
X401860D02*
D03*
X399892D02*
D03*
X397923D02*
D03*
X395955D02*
D03*
X393986D02*
D03*
X392018D02*
D03*
X390049D02*
D03*
X388081D02*
D03*
X386112D02*
D03*
X384144D02*
D03*
X382175D02*
D03*
X380207D02*
D03*
X378238D02*
D03*
X376270D02*
D03*
X374301D02*
D03*
X372333D02*
D03*
X370364D02*
D03*
X368396D02*
D03*
X366427D02*
D03*
X65128Y85842D02*
D03*
X67097D02*
D03*
X74971D02*
D03*
X76939D02*
D03*
X69065D02*
D03*
X73002D02*
D03*
X71034D02*
D03*
X78908D02*
D03*
X84813D02*
D03*
X86782D02*
D03*
X80876D02*
D03*
X82845D02*
D03*
X65128Y145290D02*
D03*
X73002D02*
D03*
X74971D02*
D03*
X67097D02*
D03*
X71034D02*
D03*
X76939D02*
D03*
X78908D02*
D03*
X69065D02*
D03*
X84813D02*
D03*
X86782D02*
D03*
X80876D02*
D03*
X82845D02*
D03*
X92687Y85842D02*
D03*
X88750D02*
D03*
X90719D02*
D03*
X98593D02*
D03*
X100561D02*
D03*
X94656D02*
D03*
X96624D02*
D03*
X106466D02*
D03*
X102530D02*
D03*
X104498D02*
D03*
X110404D02*
D03*
X112372D02*
D03*
X108435D02*
D03*
X88750Y145290D02*
D03*
X94656D02*
D03*
X96624D02*
D03*
X90719D02*
D03*
X92687D02*
D03*
X102530D02*
D03*
X104498D02*
D03*
X98593D02*
D03*
X100561D02*
D03*
X110404D02*
D03*
X112372D02*
D03*
X106466D02*
D03*
X108435D02*
D03*
D25*
X44375Y345970D02*
D03*
X46875D02*
D03*
X41875D02*
D03*
X49375D02*
D03*
X36875D02*
D03*
X39375D02*
D03*
X34375D02*
D03*
X49375Y327662D02*
D03*
X46875D02*
D03*
X44375D02*
D03*
X36875D02*
D03*
X34375D02*
D03*
X41875D02*
D03*
X39375D02*
D03*
X31875Y345970D02*
D03*
X26875D02*
D03*
X29375D02*
D03*
Y327662D02*
D03*
X31875D02*
D03*
X26875D02*
D03*
X420625Y377038D02*
D03*
X423125D02*
D03*
X425625D02*
D03*
X428125D02*
D03*
X430625D02*
D03*
X433125D02*
D03*
X435625D02*
D03*
X438125D02*
D03*
X440625D02*
D03*
X443125D02*
D03*
X420625Y395344D02*
D03*
X423125D02*
D03*
X425625D02*
D03*
X428125D02*
D03*
X430625D02*
D03*
X433125D02*
D03*
X435625D02*
D03*
X438125D02*
D03*
X440625D02*
D03*
X443125D02*
D03*
D26*
X533740Y428967D02*
D03*
X526260D02*
D03*
X530000Y438415D02*
D03*
X141875Y253967D02*
D03*
X138135Y263415D02*
D03*
X145615D02*
D03*
X246865Y226467D02*
D03*
X239385D02*
D03*
X243125Y235915D02*
D03*
X227490Y226467D02*
D03*
X220010D02*
D03*
X223750Y235915D02*
D03*
X478115Y265217D02*
D03*
X470635D02*
D03*
X474375Y274665D02*
D03*
X266240Y226467D02*
D03*
X258760D02*
D03*
X262500Y235915D02*
D03*
X285615Y226467D02*
D03*
X278135D02*
D03*
X281875Y235915D02*
D03*
X304990Y226467D02*
D03*
X297510D02*
D03*
X301250Y235915D02*
D03*
X324365Y226467D02*
D03*
X316885D02*
D03*
X320625Y235915D02*
D03*
X343740Y226467D02*
D03*
X336260D02*
D03*
X340000Y235915D02*
D03*
D27*
X183750Y313327D02*
D03*
D28*
Y336555D02*
D03*
X174695D02*
D03*
X192805D02*
D03*
D29*
X361250Y323888D02*
D03*
X341250D02*
D03*
X351250D02*
D03*
X341250Y348494D02*
D03*
X351250D02*
D03*
X361250D02*
D03*
X263750Y323888D02*
D03*
X243750D02*
D03*
X253750D02*
D03*
X243750Y348494D02*
D03*
X253750D02*
D03*
X263750D02*
D03*
D30*
X214500Y245266D02*
D03*
X204500D02*
D03*
Y267116D02*
D03*
X214500D02*
D03*
X504375Y324016D02*
D03*
X494375D02*
D03*
Y345866D02*
D03*
X504375D02*
D03*
X186500Y245266D02*
D03*
X196500D02*
D03*
X186500Y267116D02*
D03*
X196500D02*
D03*
D31*
X314995Y41191D02*
D03*
Y51191D02*
D03*
Y56191D02*
D03*
Y46191D02*
D03*
X336255Y41191D02*
D03*
Y51191D02*
D03*
Y46191D02*
D03*
Y56191D02*
D03*
D32*
X446875Y436245D02*
D03*
Y427387D02*
D03*
X240625Y429262D02*
D03*
Y438120D02*
D03*
X364375Y429262D02*
D03*
Y438120D02*
D03*
X281875Y429262D02*
D03*
Y438120D02*
D03*
X405625Y429262D02*
D03*
Y438120D02*
D03*
X323125Y429262D02*
D03*
Y438120D02*
D03*
D33*
X485340Y61816D02*
D03*
X568410D02*
D03*
D34*
X577500Y386634D02*
D03*
Y403248D02*
D03*
X611250Y347884D02*
D03*
Y364498D02*
D03*
D35*
X328268Y381816D02*
D03*
X361732D02*
D03*
X252268Y360500D02*
D03*
X285732D02*
D03*
X328268Y364316D02*
D03*
X361732D02*
D03*
D36*
X146250Y69685D02*
D03*
Y75197D02*
D03*
X197500Y351560D02*
D03*
Y357072D02*
D03*
X151250Y255310D02*
D03*
Y260822D02*
D03*
X494375Y353435D02*
D03*
Y358947D02*
D03*
X464114Y409160D02*
D03*
Y414672D02*
D03*
X214375Y227810D02*
D03*
Y233322D02*
D03*
X188750Y296560D02*
D03*
Y302072D02*
D03*
X145625Y287185D02*
D03*
Y292697D02*
D03*
X233750Y227810D02*
D03*
Y233322D02*
D03*
X253125Y227810D02*
D03*
Y233322D02*
D03*
X272500Y227810D02*
D03*
Y233322D02*
D03*
X291875Y227810D02*
D03*
Y233322D02*
D03*
X311250Y227810D02*
D03*
Y233322D02*
D03*
X330625Y227810D02*
D03*
Y233322D02*
D03*
X303750Y278435D02*
D03*
Y283947D02*
D03*
X401250Y278435D02*
D03*
Y283947D02*
D03*
X545700Y411801D02*
D03*
Y417313D02*
D03*
X526875Y417185D02*
D03*
Y422697D02*
D03*
X533750Y417185D02*
D03*
Y422697D02*
D03*
X550900Y411810D02*
D03*
Y417322D02*
D03*
X328750Y132416D02*
D03*
Y137928D02*
D03*
X100625Y72185D02*
D03*
Y77697D02*
D03*
X220000Y125935D02*
D03*
Y131447D02*
D03*
X480625Y122810D02*
D03*
Y128322D02*
D03*
X400000Y430935D02*
D03*
Y436447D02*
D03*
X298125Y198435D02*
D03*
Y203947D02*
D03*
X453125Y383435D02*
D03*
Y388947D02*
D03*
X235000Y430935D02*
D03*
Y436447D02*
D03*
X276250Y430935D02*
D03*
Y436447D02*
D03*
X317500Y430935D02*
D03*
Y436447D02*
D03*
X358750Y430935D02*
D03*
Y436447D02*
D03*
X440938Y430935D02*
D03*
Y436447D02*
D03*
X206250Y150310D02*
D03*
Y155822D02*
D03*
X216250Y29685D02*
D03*
Y35197D02*
D03*
X564375Y400310D02*
D03*
Y405822D02*
D03*
X47500Y355935D02*
D03*
Y361447D02*
D03*
X53125Y355935D02*
D03*
Y361447D02*
D03*
X58750Y331560D02*
D03*
Y337072D02*
D03*
X148750Y150310D02*
D03*
Y155822D02*
D03*
Y162185D02*
D03*
Y167697D02*
D03*
D37*
X398469Y371373D02*
D03*
X410281D02*
D03*
X553406Y367623D02*
D03*
X541595D02*
D03*
D38*
X404375Y371570D02*
D03*
X547500Y367820D02*
D03*
D39*
X558600Y420590D02*
D03*
Y411810D02*
D03*
X539375Y420581D02*
D03*
Y411801D02*
D03*
D40*
X220197Y403500D02*
D03*
Y383500D02*
D03*
D41*
X258780Y393500D02*
D03*
D43*
X451250Y321634D02*
D03*
X456250D02*
D03*
X451250Y358248D02*
D03*
X456250D02*
D03*
X471250Y321634D02*
D03*
X476250D02*
D03*
X461250D02*
D03*
X466250D02*
D03*
X481250D02*
D03*
X486250D02*
D03*
X461250Y358248D02*
D03*
X466250D02*
D03*
X486250D02*
D03*
X471250D02*
D03*
X481250D02*
D03*
X476250D02*
D03*
D44*
X444882Y59941D02*
D03*
X455118D02*
D03*
D45*
X10630Y446612D02*
D03*
X445649Y446448D02*
D03*
D46*
X23721Y446710D02*
D03*
X30020D02*
D03*
X33170D02*
D03*
X36319D02*
D03*
X26871D02*
D03*
X458739Y446547D02*
D03*
X465039D02*
D03*
X468188D02*
D03*
X471338D02*
D03*
X461889D02*
D03*
D47*
X10630Y463344D02*
D03*
X49410D02*
D03*
X445649Y463180D02*
D03*
X484428D02*
D03*
D48*
X49410Y446612D02*
D03*
X484428Y446448D02*
D03*
D49*
X575354Y418691D02*
D03*
X594646D02*
D03*
D50*
X243307Y84941D02*
D03*
X248819D02*
D03*
X139119Y276191D02*
D03*
X144631D02*
D03*
X139119Y269316D02*
D03*
X144631D02*
D03*
X488544Y419900D02*
D03*
X494056D02*
D03*
X488494Y414300D02*
D03*
X494006D02*
D03*
X477244Y308066D02*
D03*
X482756D02*
D03*
X470057Y428066D02*
D03*
X475569D02*
D03*
X342869Y51191D02*
D03*
X348381D02*
D03*
X310369Y33691D02*
D03*
X315881D02*
D03*
X220994Y221191D02*
D03*
X226506D02*
D03*
X220994Y241191D02*
D03*
X226506D02*
D03*
X471619Y259316D02*
D03*
X477131D02*
D03*
X471619Y253066D02*
D03*
X477131D02*
D03*
X198494Y238691D02*
D03*
X204006D02*
D03*
X240369Y241191D02*
D03*
X245881D02*
D03*
X240369Y221191D02*
D03*
X245881D02*
D03*
X259744Y241191D02*
D03*
X265256D02*
D03*
X259744Y221191D02*
D03*
X265256D02*
D03*
X279119Y241191D02*
D03*
X284631D02*
D03*
X279119Y221191D02*
D03*
X284631D02*
D03*
X298494Y241191D02*
D03*
X304006D02*
D03*
X298494Y221191D02*
D03*
X304006D02*
D03*
X317869Y241191D02*
D03*
X323381D02*
D03*
X317869Y221191D02*
D03*
X323381D02*
D03*
X337244Y241191D02*
D03*
X342756D02*
D03*
X337244Y221191D02*
D03*
X342756D02*
D03*
X289744Y322441D02*
D03*
X295256D02*
D03*
X289744Y329316D02*
D03*
X295256D02*
D03*
X386619Y322441D02*
D03*
X392131D02*
D03*
X386619Y329316D02*
D03*
X392131D02*
D03*
X539119Y406191D02*
D03*
X544631D02*
D03*
X479119Y299316D02*
D03*
X484631D02*
D03*
X479119Y291191D02*
D03*
X484631D02*
D03*
X479119Y283066D02*
D03*
X484631D02*
D03*
X550900Y406191D02*
D03*
X556412D02*
D03*
X243307Y183066D02*
D03*
X248819D02*
D03*
X243307Y176816D02*
D03*
X248819D02*
D03*
X243307Y78691D02*
D03*
X248819D02*
D03*
X243307Y72441D02*
D03*
X248819D02*
D03*
X230994Y183066D02*
D03*
X236506D02*
D03*
X230994Y176816D02*
D03*
X236506D02*
D03*
X255369Y78691D02*
D03*
X260881D02*
D03*
X255369Y72441D02*
D03*
X260881D02*
D03*
X228884Y409000D02*
D03*
X223372D02*
D03*
X243307Y189316D02*
D03*
X248819D02*
D03*
X255369Y84941D02*
D03*
X260881D02*
D03*
X230994Y189316D02*
D03*
X236506D02*
D03*
X116619Y60566D02*
D03*
X122131D02*
D03*
X84744Y152441D02*
D03*
X90256D02*
D03*
X175369Y360566D02*
D03*
X180881D02*
D03*
X213494Y163691D02*
D03*
X219006D02*
D03*
X432869Y362441D02*
D03*
X438381D02*
D03*
X213494Y169941D02*
D03*
X219006D02*
D03*
X44744Y318691D02*
D03*
X50256D02*
D03*
D51*
X61840Y183066D02*
D03*
Y203066D02*
D03*
Y193066D02*
D03*
X561215Y179941D02*
D03*
Y199941D02*
D03*
Y189941D02*
D03*
D52*
X101998Y193066D02*
D03*
X601373Y189941D02*
D03*
D53*
X216225Y6870D02*
D03*
Y23012D02*
D03*
X222525Y6870D02*
D03*
Y23012D02*
D03*
X213100Y140620D02*
D03*
Y156762D02*
D03*
X219400Y140620D02*
D03*
Y156762D02*
D03*
D54*
X222918Y14941D02*
D03*
X219793Y148691D02*
D03*
D55*
X131722Y72441D02*
D03*
X140778Y68701D02*
D03*
Y76181D02*
D03*
X283597Y201191D02*
D03*
X292653Y197451D02*
D03*
Y204931D02*
D03*
D56*
X506890Y381191D02*
D03*
D57*
X485039Y372215D02*
D03*
Y390167D02*
D03*
D58*
X419326Y423691D02*
D03*
X431826D02*
D03*
X213076D02*
D03*
X225576D02*
D03*
X266826D02*
D03*
X254326D02*
D03*
X295576D02*
D03*
X308076D02*
D03*
X336826D02*
D03*
X349326D02*
D03*
X378076D02*
D03*
X390576D02*
D03*
D59*
X254075Y17441D02*
D03*
Y22441D02*
D03*
Y27441D02*
D03*
Y32441D02*
D03*
Y37441D02*
D03*
Y42441D02*
D03*
Y47441D02*
D03*
Y52441D02*
D03*
Y57441D02*
D03*
Y62441D02*
D03*
X238051Y17441D02*
D03*
Y22441D02*
D03*
Y27441D02*
D03*
Y32441D02*
D03*
Y37441D02*
D03*
Y42441D02*
D03*
Y47441D02*
D03*
Y52441D02*
D03*
Y57441D02*
D03*
Y62441D02*
D03*
X238051Y161191D02*
D03*
Y156191D02*
D03*
Y151191D02*
D03*
Y146191D02*
D03*
Y141191D02*
D03*
Y136191D02*
D03*
Y131191D02*
D03*
Y126191D02*
D03*
Y121191D02*
D03*
Y116191D02*
D03*
X254075Y161191D02*
D03*
Y156191D02*
D03*
Y151191D02*
D03*
Y146191D02*
D03*
Y141191D02*
D03*
Y136191D02*
D03*
Y131191D02*
D03*
Y126191D02*
D03*
Y121191D02*
D03*
Y116191D02*
D03*
D60*
X174715Y353066D02*
D03*
X182785D02*
D03*
X111590Y328691D02*
D03*
X119660D02*
D03*
X111590Y337441D02*
D03*
X119660D02*
D03*
X111590Y346191D02*
D03*
X119660D02*
D03*
D61*
X42771Y306191D02*
D03*
X48479D02*
D03*
X478746Y399500D02*
D03*
X484454D02*
D03*
X488498Y408400D02*
D03*
X494206D02*
D03*
X451521Y314941D02*
D03*
X457229D02*
D03*
X330896Y62441D02*
D03*
X336604D02*
D03*
X404375Y400300D02*
D03*
X410084D02*
D03*
X404375Y361816D02*
D03*
X398666D02*
D03*
X262854Y267441D02*
D03*
X257146D02*
D03*
X293946Y266500D02*
D03*
X299654D02*
D03*
X360354Y267441D02*
D03*
X354646D02*
D03*
X397175Y266566D02*
D03*
X391466D02*
D03*
X495896Y266191D02*
D03*
X501604D02*
D03*
X535042Y318691D02*
D03*
X529334D02*
D03*
X547146Y353066D02*
D03*
X552854D02*
D03*
X539021Y399941D02*
D03*
X544729D02*
D03*
X550900Y400000D02*
D03*
X556609D02*
D03*
X109646Y78691D02*
D03*
X115354D02*
D03*
X52146Y82441D02*
D03*
X57854D02*
D03*
X54021Y146816D02*
D03*
X59729D02*
D03*
X478479Y170566D02*
D03*
X472771D02*
D03*
X427854Y221816D02*
D03*
X422146D02*
D03*
X344646Y127441D02*
D03*
X350354D02*
D03*
X409729Y221816D02*
D03*
X404021D02*
D03*
X594646Y164941D02*
D03*
X600354D02*
D03*
X141521Y245566D02*
D03*
X147229D02*
D03*
X202146Y120566D02*
D03*
X207854D02*
D03*
Y126191D02*
D03*
X202146D02*
D03*
X47854Y130566D02*
D03*
X42146D02*
D03*
X67146Y152441D02*
D03*
X72854D02*
D03*
X116521Y69941D02*
D03*
X122229D02*
D03*
X428396Y85566D02*
D03*
X434104D02*
D03*
X525271Y170566D02*
D03*
X530979D02*
D03*
X512229Y107441D02*
D03*
X506521D02*
D03*
X531604D02*
D03*
X525896D02*
D03*
X529021Y98691D02*
D03*
X534729D02*
D03*
X447146Y409316D02*
D03*
X452854D02*
D03*
X447146Y414941D02*
D03*
X452854D02*
D03*
X362910Y78757D02*
D03*
X368618D02*
D03*
X362910Y93757D02*
D03*
X368618D02*
D03*
X134646Y142441D02*
D03*
X140354D02*
D03*
X389021Y49316D02*
D03*
X394729D02*
D03*
X446521Y54316D02*
D03*
X452229D02*
D03*
X446521Y65566D02*
D03*
X452229D02*
D03*
X451521Y28691D02*
D03*
X457229D02*
D03*
X467146D02*
D03*
X472854D02*
D03*
X594646Y158066D02*
D03*
X600354D02*
D03*
X547146Y359316D02*
D03*
X552854D02*
D03*
X404375Y394100D02*
D03*
X410084D02*
D03*
X389021Y54941D02*
D03*
X394729D02*
D03*
X58479Y209941D02*
D03*
X52771D02*
D03*
X122771Y216816D02*
D03*
X128479D02*
D03*
X122771Y210566D02*
D03*
X128479D02*
D03*
X180979Y346191D02*
D03*
X175271D02*
D03*
X243396Y9941D02*
D03*
X249104D02*
D03*
X248479Y168066D02*
D03*
X242771D02*
D03*
X58479Y222441D02*
D03*
X52771D02*
D03*
Y216191D02*
D03*
X58479D02*
D03*
X451521Y366191D02*
D03*
X457229D02*
D03*
X475354D02*
D03*
X469646D02*
D03*
X507771Y168066D02*
D03*
X513479D02*
D03*
X389021Y73691D02*
D03*
X394729D02*
D03*
X465354Y108066D02*
D03*
X459646D02*
D03*
Y101816D02*
D03*
X465354D02*
D03*
X426521Y368066D02*
D03*
X432229D02*
D03*
X416988Y312700D02*
D03*
X422697D02*
D03*
X35271Y361816D02*
D03*
X40979D02*
D03*
X35271Y356191D02*
D03*
X40979D02*
D03*
X42146Y252441D02*
D03*
X47854D02*
D03*
X32771Y318691D02*
D03*
X38479D02*
D03*
D62*
X511028Y423972D02*
D03*
X501972D02*
D03*
X511028Y408028D02*
D03*
X501972D02*
D03*
D63*
X12500Y260679D02*
D03*
X17500D02*
D03*
X22500D02*
D03*
X27500D02*
D03*
X12500Y296703D02*
D03*
X17500D02*
D03*
X22500D02*
D03*
X37500Y260679D02*
D03*
X42500D02*
D03*
X32500D02*
D03*
X47500D02*
D03*
X27500Y296703D02*
D03*
X32500D02*
D03*
X37500D02*
D03*
X42500D02*
D03*
X47500D02*
D03*
D64*
X356033Y273691D02*
D03*
Y283691D02*
D03*
Y278691D02*
D03*
Y293691D02*
D03*
Y288691D02*
D03*
Y303691D02*
D03*
Y298691D02*
D03*
Y308691D02*
D03*
X391466Y273691D02*
D03*
Y278691D02*
D03*
Y283691D02*
D03*
Y293691D02*
D03*
Y288691D02*
D03*
Y308691D02*
D03*
Y298691D02*
D03*
Y303691D02*
D03*
X258534Y273691D02*
D03*
Y283691D02*
D03*
Y278691D02*
D03*
Y293691D02*
D03*
Y288691D02*
D03*
Y303691D02*
D03*
Y298691D02*
D03*
Y308691D02*
D03*
X293967Y273691D02*
D03*
Y278691D02*
D03*
Y283691D02*
D03*
Y293691D02*
D03*
Y288691D02*
D03*
Y308691D02*
D03*
Y298691D02*
D03*
Y303691D02*
D03*
D65*
X386526Y63691D02*
D03*
Y67431D02*
D03*
Y59951D02*
D03*
X395974D02*
D03*
Y67431D02*
D03*
Y63691D02*
D03*
D66*
X376207Y81275D02*
D03*
Y91118D02*
D03*
D67*
X473750Y395295D02*
D03*
Y389587D02*
D03*
X475000Y372712D02*
D03*
Y378420D02*
D03*
X540000Y352712D02*
D03*
Y358420D02*
D03*
X111875Y153337D02*
D03*
Y159045D02*
D03*
X129375Y103962D02*
D03*
Y109670D02*
D03*
X126250Y125212D02*
D03*
Y130920D02*
D03*
X345000Y155920D02*
D03*
Y150212D02*
D03*
X480625Y144587D02*
D03*
Y150295D02*
D03*
X451250Y217087D02*
D03*
Y222795D02*
D03*
X409375Y91462D02*
D03*
Y97170D02*
D03*
X346000Y204354D02*
D03*
Y198646D02*
D03*
X375000Y229670D02*
D03*
Y223962D02*
D03*
X395000Y94587D02*
D03*
Y100295D02*
D03*
X345000Y170295D02*
D03*
Y164587D02*
D03*
X435000Y99045D02*
D03*
Y93337D02*
D03*
X471250Y195920D02*
D03*
Y190212D02*
D03*
X470000Y129670D02*
D03*
Y123962D02*
D03*
X536250Y244670D02*
D03*
Y238962D02*
D03*
X527500D02*
D03*
Y244670D02*
D03*
X550000Y197795D02*
D03*
Y192087D02*
D03*
X186875Y238420D02*
D03*
Y232712D02*
D03*
X14375Y124587D02*
D03*
Y130295D02*
D03*
X480625Y188337D02*
D03*
Y194045D02*
D03*
X381875Y219587D02*
D03*
Y225295D02*
D03*
X47500Y89587D02*
D03*
Y95295D02*
D03*
X491250Y108962D02*
D03*
Y114670D02*
D03*
X587500Y134045D02*
D03*
Y128337D02*
D03*
X138750Y104982D02*
D03*
Y99274D02*
D03*
X461250Y298962D02*
D03*
Y304670D02*
D03*
X436250Y62712D02*
D03*
Y68420D02*
D03*
X406250Y60212D02*
D03*
Y65920D02*
D03*
X148750Y129546D02*
D03*
Y135254D02*
D03*
D68*
X220197Y268066D02*
D03*
Y288066D02*
D03*
Y278066D02*
D03*
X244803Y268066D02*
D03*
Y278066D02*
D03*
Y288066D02*
D03*
X220197Y296191D02*
D03*
Y316191D02*
D03*
Y306191D02*
D03*
X244803Y296191D02*
D03*
Y306191D02*
D03*
Y316191D02*
D03*
X317697Y296191D02*
D03*
Y316191D02*
D03*
Y306191D02*
D03*
X342303Y296191D02*
D03*
Y306191D02*
D03*
Y316191D02*
D03*
X317697Y267441D02*
D03*
Y287441D02*
D03*
Y277441D02*
D03*
X342303Y267441D02*
D03*
Y277441D02*
D03*
Y287441D02*
D03*
D69*
X590625Y347781D02*
D03*
Y355851D02*
D03*
X573125Y347781D02*
D03*
Y355851D02*
D03*
X581875Y347781D02*
D03*
Y355851D02*
D03*
D70*
X208000Y331768D02*
D03*
Y365232D02*
D03*
Y284768D02*
D03*
Y318232D02*
D03*
X385625Y350709D02*
D03*
Y384173D02*
D03*
D71*
X186071Y418500D02*
D03*
X194929D02*
D03*
X183071Y424941D02*
D03*
X191929D02*
D03*
D72*
X142926Y213066D02*
D03*
Y203066D02*
D03*
Y208066D02*
D03*
Y233066D02*
D03*
Y228066D02*
D03*
Y238066D02*
D03*
Y223066D02*
D03*
Y218066D02*
D03*
X178950Y208066D02*
D03*
Y203066D02*
D03*
Y213066D02*
D03*
Y223066D02*
D03*
Y218066D02*
D03*
Y238066D02*
D03*
Y228066D02*
D03*
Y233066D02*
D03*
X499488Y276191D02*
D03*
Y286191D02*
D03*
Y281191D02*
D03*
Y296191D02*
D03*
Y291191D02*
D03*
Y306191D02*
D03*
Y301191D02*
D03*
Y311191D02*
D03*
X535512Y276191D02*
D03*
Y281191D02*
D03*
Y286191D02*
D03*
Y296191D02*
D03*
Y291191D02*
D03*
Y311191D02*
D03*
Y301191D02*
D03*
Y306191D02*
D03*
X416988Y279316D02*
D03*
Y269316D02*
D03*
Y274316D02*
D03*
Y299316D02*
D03*
Y294316D02*
D03*
Y304316D02*
D03*
Y289316D02*
D03*
Y284316D02*
D03*
X453012Y274316D02*
D03*
Y269316D02*
D03*
Y279316D02*
D03*
Y289316D02*
D03*
Y284316D02*
D03*
Y304316D02*
D03*
Y294316D02*
D03*
Y299316D02*
D03*
D73*
X151619Y286823D02*
D03*
Y296823D02*
D03*
X173470Y286823D02*
D03*
Y296823D02*
D03*
X151562Y268808D02*
D03*
Y278808D02*
D03*
X173413Y268808D02*
D03*
Y278808D02*
D03*
D74*
X454060Y428056D02*
D03*
Y424316D02*
D03*
Y420576D02*
D03*
X464690Y428056D02*
D03*
Y424316D02*
D03*
Y420576D02*
D03*
D75*
X413967Y59985D02*
D03*
Y68647D02*
D03*
X428534Y59985D02*
D03*
Y68647D02*
D03*
D146*
X17500Y313000D02*
D03*
X453000Y397000D02*
D03*
X57000Y379500D02*
D03*
X432869Y351500D02*
D03*
D147*
X18307Y230886D02*
D03*
X604675Y132623D02*
D03*
X143086Y462441D02*
D03*
X77386D02*
D03*
X595000D02*
D03*
X423750D02*
D03*
X181890D02*
D03*
X506250D02*
D03*
X547500D02*
D03*
X217500D02*
D03*
X258750D02*
D03*
X300000D02*
D03*
X341250D02*
D03*
X382500D02*
D03*
D148*
X485663Y431800D02*
D03*
X493537Y428060D02*
D03*
Y435540D02*
D03*
D157*
X18307Y230886D02*
D03*
X604675Y132623D02*
D03*
D158*
X496504Y10756D02*
D03*
X506504D02*
D03*
X476504D02*
D03*
X486504D02*
D03*
X476504Y20756D02*
D03*
X486504D02*
D03*
X496504D02*
D03*
X506504D02*
D03*
X546504Y10756D02*
D03*
X556504D02*
D03*
X526504D02*
D03*
X536504D02*
D03*
X566504D02*
D03*
X576504D02*
D03*
X516504Y20756D02*
D03*
Y10756D02*
D03*
X526504Y20756D02*
D03*
X546504D02*
D03*
X536504D02*
D03*
X566504D02*
D03*
X586504Y10756D02*
D03*
X556504Y20756D02*
D03*
X576504D02*
D03*
X319331Y10745D02*
D03*
X329331D02*
D03*
X299331D02*
D03*
X309331D02*
D03*
X299331Y20745D02*
D03*
X309331D02*
D03*
X319331D02*
D03*
X329331D02*
D03*
X369331Y10745D02*
D03*
X379331D02*
D03*
X349331D02*
D03*
X359331D02*
D03*
X389331D02*
D03*
X399331D02*
D03*
X339331Y20745D02*
D03*
Y10745D02*
D03*
X349331Y20745D02*
D03*
X369331D02*
D03*
X359331D02*
D03*
X389331D02*
D03*
X409331Y10745D02*
D03*
X379331Y20745D02*
D03*
X399331D02*
D03*
D159*
X586504Y20756D02*
D03*
X409331Y20745D02*
D03*
D160*
X339331Y396575D02*
D03*
Y406575D02*
D03*
X369331D02*
D03*
Y396575D02*
D03*
X359331Y406575D02*
D03*
Y396575D02*
D03*
X349331D02*
D03*
Y406575D02*
D03*
X218125Y201816D02*
D03*
X228125D02*
D03*
X238125D02*
D03*
X22559Y150669D02*
D03*
Y120669D02*
D03*
Y170669D02*
D03*
Y190669D02*
D03*
Y140669D02*
D03*
X32559Y130669D02*
D03*
Y120669D02*
D03*
X22559Y130669D02*
D03*
X32559Y140669D02*
D03*
Y150669D02*
D03*
X22559Y160669D02*
D03*
X32559D02*
D03*
X22559Y180669D02*
D03*
X32559D02*
D03*
Y170669D02*
D03*
Y190669D02*
D03*
X22500Y24370D02*
D03*
Y44370D02*
D03*
Y14370D02*
D03*
X32500Y24370D02*
D03*
Y14370D02*
D03*
X22500Y34370D02*
D03*
X32500D02*
D03*
X22500Y64370D02*
D03*
Y54370D02*
D03*
X32500D02*
D03*
Y44370D02*
D03*
Y64370D02*
D03*
X128701Y406575D02*
D03*
X158701Y396575D02*
D03*
X128701D02*
D03*
X148701D02*
D03*
X138701D02*
D03*
Y406575D02*
D03*
X148701D02*
D03*
X158701D02*
D03*
X182440Y276287D02*
D03*
X192440D02*
D03*
X427913Y20748D02*
D03*
X457913Y10748D02*
D03*
X427913D02*
D03*
X447913D02*
D03*
X437913D02*
D03*
Y20748D02*
D03*
X447913D02*
D03*
X457913D02*
D03*
X221250Y79941D02*
D03*
Y89941D02*
D03*
X270625Y201816D02*
D03*
X260625D02*
D03*
X180039Y150669D02*
D03*
Y120669D02*
D03*
Y170669D02*
D03*
Y190669D02*
D03*
Y140669D02*
D03*
X190039Y130669D02*
D03*
Y120669D02*
D03*
X180039Y130669D02*
D03*
X190039Y140669D02*
D03*
Y150669D02*
D03*
X180039Y160669D02*
D03*
X190039D02*
D03*
X180039Y180669D02*
D03*
X190039D02*
D03*
Y170669D02*
D03*
Y190669D02*
D03*
X87362Y406575D02*
D03*
X117362Y396575D02*
D03*
X87362D02*
D03*
X97362D02*
D03*
X107362D02*
D03*
X97362Y406575D02*
D03*
X107362D02*
D03*
X117362D02*
D03*
D161*
X111713Y264606D02*
D03*
Y254606D02*
D03*
Y244606D02*
D03*
Y274606D02*
D03*
Y294606D02*
D03*
Y314606D02*
D03*
Y304606D02*
D03*
D162*
X611250Y313741D02*
D03*
Y323741D02*
D03*
X551250D02*
D03*
Y313741D02*
D03*
Y233741D02*
D03*
X611250Y253741D02*
D03*
Y233741D02*
D03*
D163*
X21359Y455864D02*
D03*
X38682D02*
D03*
X456377Y455700D02*
D03*
X473700D02*
D03*
D164*
X68937Y445441D02*
D03*
X80736D02*
D03*
X92535D02*
D03*
X127937D02*
D03*
X116138D02*
D03*
X151535D02*
D03*
X68937Y433642D02*
D03*
X80736D02*
D03*
X92535D02*
D03*
X127937D02*
D03*
X116138D02*
D03*
X151535D02*
D03*
X104334Y445441D02*
D03*
X139736D02*
D03*
X104334Y433642D02*
D03*
X139736D02*
D03*
X583252D02*
D03*
X595000D02*
D03*
X606748D02*
D03*
Y445441D02*
D03*
X595000D02*
D03*
X583252D02*
D03*
X417848Y433642D02*
D03*
X429652D02*
D03*
Y445441D02*
D03*
X417848D02*
D03*
X181890Y433642D02*
D03*
Y445441D02*
D03*
X500348Y433642D02*
D03*
X512152D02*
D03*
Y445441D02*
D03*
X500348D02*
D03*
X541598Y433642D02*
D03*
X553402D02*
D03*
Y445441D02*
D03*
X541598D02*
D03*
X211598Y433642D02*
D03*
X223402D02*
D03*
Y445441D02*
D03*
X211598D02*
D03*
X252848Y433642D02*
D03*
X264652D02*
D03*
Y445441D02*
D03*
X252848D02*
D03*
X294098Y433642D02*
D03*
X305902D02*
D03*
Y445441D02*
D03*
X294098D02*
D03*
X335348Y433642D02*
D03*
X347152D02*
D03*
Y445441D02*
D03*
X335348D02*
D03*
X376598Y433642D02*
D03*
X388402D02*
D03*
Y445441D02*
D03*
X376598D02*
D03*
D165*
X602362Y393701D02*
D03*
X307087D02*
D03*
X185039D02*
D03*
X27559D02*
D03*
Y98425D02*
D03*
X185039D02*
D03*
X307087D02*
D03*
X602362D02*
D03*
M02*
