G04*
G04 #@! TF.GenerationSoftware,Altium Limited,Altium Designer,21.4.1 (30)*
G04*
G04 Layer_Color=16711935*
%FSLAX25Y25*%
%MOIN*%
G70*
G04*
G04 #@! TF.SameCoordinates,ABD127B9-61DE-435D-9B50-71DF74D21850*
G04*
G04*
G04 #@! TF.FilePolarity,Positive*
G04*
G01*
G75*
%ADD14C,0.00394*%
%ADD172R,0.02436X0.11417*%
D14*
X500792Y120084D02*
G03*
X500792Y120084I-1969J0D01*
G01*
X367018Y116865D02*
G03*
X367018Y116865I-1969J0D01*
G01*
X114734Y91550D02*
G03*
X114734Y91550I-1969J0D01*
G01*
X26432Y332505D02*
G03*
X26432Y332505I-1969J0D01*
G01*
X343967Y330679D02*
G03*
X343967Y330679I-1969J0D01*
G01*
X206547Y252057D02*
G03*
X206547Y252057I-1969J0D01*
G01*
X323460Y54793D02*
G03*
X323460Y54793I-1969J0D01*
G01*
X583701Y400453D02*
G03*
X583701Y400453I-1969J0D01*
G01*
X401028Y377082D02*
G03*
X401028Y377082I-1969J0D01*
G01*
X453592Y328524D02*
G03*
X453592Y328524I-1969J0D01*
G01*
X49095Y290108D02*
G03*
X49095Y290108I-1969J0D01*
G01*
X387136Y274065D02*
G03*
X387136Y274065I-1969J0D01*
G01*
X239980Y268814D02*
G03*
X239980Y268814I-1969J0D01*
G01*
Y296939D02*
G03*
X239980Y296939I-1969J0D01*
G01*
X246466Y330679D02*
G03*
X246466Y330679I-1969J0D01*
G01*
X337480Y296939D02*
G03*
X337480Y296939I-1969J0D01*
G01*
Y268189D02*
G03*
X337480Y268189I-1969J0D01*
G01*
X608986Y350679D02*
G03*
X608986Y350679I-1969J0D01*
G01*
X420182Y381880D02*
G03*
X420182Y381880I-1969J0D01*
G01*
X151489Y237692D02*
G03*
X151489Y237692I-1969J0D01*
G01*
X544153Y373332D02*
G03*
X544153Y373332I-1969J0D01*
G01*
X530886Y276565D02*
G03*
X530886Y276565I-1969J0D01*
G01*
X496422Y330807D02*
G03*
X496422Y330807I-1969J0D01*
G01*
X198390Y260325D02*
G03*
X198390Y260325I-1969J0D01*
G01*
X168647Y286902D02*
G03*
X168647Y286902I-1969J0D01*
G01*
X160322Y278730D02*
G03*
X160322Y278730I-1969J0D01*
G01*
X289636Y274065D02*
G03*
X289636Y274065I-1969J0D01*
G01*
X425551Y303942D02*
G03*
X425551Y303942I-1969J0D01*
G01*
X132451Y118224D02*
Y137908D01*
Y118224D02*
X145049D01*
X132451Y137908D02*
X145049D01*
Y118224D02*
Y137908D01*
X36727Y420344D02*
Y427037D01*
X24523Y420344D02*
Y427037D01*
X36727D01*
X24523Y420344D02*
X36727D01*
X495281Y116540D02*
Y157092D01*
Y116540D02*
X583469D01*
X495281Y157092D02*
X583469D01*
Y116540D02*
Y157092D01*
X455994Y113322D02*
Y207810D01*
X361506Y113322D02*
Y207810D01*
X455994D01*
X361506Y113322D02*
X455994D01*
X61191Y88007D02*
Y143125D01*
Y88007D02*
X116309D01*
X61191Y143125D02*
X116309D01*
Y88007D02*
Y143125D01*
X55330Y328962D02*
Y344670D01*
X20920D02*
X55330D01*
X20920Y328962D02*
X55330D01*
X20920D02*
Y344670D01*
X524016Y430935D02*
Y436447D01*
Y430935D02*
X535984D01*
X524016Y436447D02*
X535984D01*
Y430935D02*
Y436447D01*
X170561Y317657D02*
Y332224D01*
Y317657D02*
X196939D01*
X170561Y332224D02*
X196939D01*
Y317657D02*
Y332224D01*
X338455Y327136D02*
Y345246D01*
Y327136D02*
X364045D01*
X338455Y345246D02*
X364045D01*
Y327136D02*
Y345246D01*
X201035Y248514D02*
X217965D01*
X201035Y263868D02*
X217965D01*
X201035Y248514D02*
Y263868D01*
X217965Y248514D02*
Y263868D01*
X317948Y39045D02*
Y58337D01*
Y39045D02*
X333302D01*
X317948Y58337D02*
X333302D01*
Y39045D02*
Y58337D01*
X449533Y428273D02*
Y435359D01*
X444217Y428273D02*
Y435359D01*
X449533D01*
X444217Y428273D02*
X449533D01*
X471012Y6012D02*
Y25500D01*
Y6012D02*
X591996D01*
X471012Y25500D02*
X591996D01*
Y6012D02*
Y25500D01*
X569724Y385886D02*
Y403996D01*
Y385886D02*
X585276D01*
X569724Y403996D02*
X585276D01*
Y385886D02*
Y403996D01*
X335394Y391851D02*
X373268D01*
X335394Y411299D02*
X373268D01*
X334607Y410512D02*
X335394Y411299D01*
X334607Y392638D02*
X335394Y391851D01*
X334607Y392638D02*
Y410512D01*
X374055Y392638D02*
Y410512D01*
X373268Y391851D02*
X374055Y392638D01*
X373268Y411299D02*
X374055Y410512D01*
X325118Y375910D02*
X364882D01*
X325118D02*
Y387721D01*
X364882D01*
Y375910D02*
Y387721D01*
X144478Y69095D02*
Y75788D01*
Y69095D02*
X148022D01*
X144478Y75788D02*
X148022D01*
Y69095D02*
Y75788D01*
X124091Y236480D02*
Y322480D01*
X88090Y236480D02*
Y322480D01*
Y236480D02*
X124091D01*
X88090Y322480D02*
X124091D01*
X395320Y373342D02*
Y383578D01*
Y373342D02*
X413430D01*
X395320Y383578D02*
X413430D01*
Y373342D02*
Y383578D01*
X213401Y197879D02*
X214188Y197092D01*
X213401Y197879D02*
Y205753D01*
X214188Y206540D01*
X242062D01*
X214188Y197092D02*
X242062D01*
X242849Y197879D01*
Y205753D01*
X242062Y206540D02*
X242849Y205753D01*
X17835Y116732D02*
Y194606D01*
Y116732D02*
X18622Y115945D01*
X36496D01*
X17835Y194606D02*
X18622Y195393D01*
X36496D01*
Y115945D02*
X37283Y116732D01*
Y194606D01*
X36496Y195393D02*
X37283Y194606D01*
X17776Y10433D02*
X18563Y9646D01*
X36437D01*
X17776Y10433D02*
Y68307D01*
X18563Y69094D01*
X36437D01*
Y9646D02*
X37224Y10433D01*
Y68307D01*
X36437Y69094D02*
X37224Y68307D01*
X123977Y392638D02*
X124764Y391851D01*
X162638D01*
X123977Y392638D02*
Y410512D01*
X124764Y411299D01*
X162638D01*
Y391851D02*
X163425Y392638D01*
Y410512D01*
X162638Y411299D02*
X163425Y410512D01*
X177716Y280224D02*
X178503Y281012D01*
X196377D02*
X197164Y280224D01*
X178503Y281012D02*
X196377D01*
X178503Y271563D02*
X196377D01*
X197164Y272350D01*
Y280224D01*
X177716Y272350D02*
X178503Y271563D01*
X177716Y272350D02*
Y280224D01*
X556139Y412853D02*
Y419547D01*
Y412853D02*
X561061D01*
Y419547D01*
X556139D02*
X561061D01*
X232402Y373224D02*
X270984D01*
Y413776D01*
X232402Y373224D02*
Y413776D01*
X270984D01*
X487041Y426091D02*
X492159D01*
X487041Y437509D02*
X492159D01*
X487041Y426091D02*
Y437509D01*
X492159Y426091D02*
Y437509D01*
X448081Y324980D02*
Y354902D01*
Y324980D02*
X489419D01*
X448081Y354902D02*
X489419D01*
Y324980D02*
Y354902D01*
X446063Y57480D02*
X453937D01*
X446063Y62402D02*
X453937D01*
X446063Y57480D02*
Y62402D01*
X453937Y57480D02*
Y62402D01*
X572598Y412904D02*
X597402D01*
X572598D02*
Y424478D01*
X597402D01*
Y412904D02*
Y424478D01*
X242717Y83169D02*
X249410D01*
X242717D02*
Y86713D01*
X249410D01*
Y83169D02*
Y86713D01*
X109439Y172594D02*
Y213538D01*
X74439Y172594D02*
X109439D01*
X74439D02*
Y213538D01*
X109439D01*
X133494Y66536D02*
Y78347D01*
Y66536D02*
X139006D01*
Y78347D01*
X133494D02*
X139006D01*
X490354Y367805D02*
X515158D01*
X490354Y394577D02*
X515158D01*
Y367805D02*
Y394577D01*
X490354Y367805D02*
Y394577D01*
X434680Y417982D02*
Y429400D01*
X416570Y417982D02*
Y429400D01*
Y417982D02*
X434680D01*
X416570Y429400D02*
X434680D01*
X252756Y14941D02*
Y64941D01*
X239370Y14941D02*
Y64941D01*
Y14941D02*
X252756D01*
X239370Y64941D02*
X252756D01*
X174419Y350212D02*
X183081D01*
X174419D02*
Y355920D01*
X183081D01*
Y350212D02*
Y355920D01*
X42279Y304419D02*
X48972D01*
X42279Y307963D02*
X48972D01*
X42279Y304419D02*
Y307963D01*
X48972Y304419D02*
Y307963D01*
X9331Y263730D02*
Y293652D01*
Y263730D02*
X50669D01*
X9331Y293652D02*
X50669D01*
Y263730D02*
Y293652D01*
X358789Y270522D02*
Y311860D01*
Y270522D02*
X388711D01*
X358789Y311860D02*
X388711D01*
Y270522D02*
Y311860D01*
X387903Y57785D02*
Y69596D01*
Y57785D02*
X394597D01*
X387903Y69596D02*
X394597D01*
Y57785D02*
Y69596D01*
X373254Y79897D02*
X379160D01*
X373254D02*
Y92496D01*
X379160Y79897D02*
Y92496D01*
X373254D02*
X379160D01*
X135891Y255935D02*
Y261447D01*
Y255935D02*
X147859D01*
X135891Y261447D02*
X147859D01*
Y255935D02*
Y261447D01*
X138529Y274419D02*
Y277963D01*
Y274419D02*
X145221D01*
X138529Y277963D02*
X145221D01*
Y274419D02*
Y277963D01*
X138529Y267544D02*
X145221D01*
X138529Y271088D02*
X145221D01*
X138529Y267544D02*
Y271088D01*
X145221Y267544D02*
Y271088D01*
X195728Y350970D02*
Y357662D01*
Y350970D02*
X199272D01*
X195728Y357662D02*
X199272D01*
Y350970D02*
Y357662D01*
X149478Y254719D02*
Y261412D01*
Y254719D02*
X153022D01*
X149478Y261412D02*
X153022D01*
Y254719D02*
Y261412D01*
X475522Y389094D02*
Y395788D01*
X471978Y389094D02*
Y395788D01*
X475522D01*
X471978Y389094D02*
X475522D01*
X473228Y372219D02*
Y378912D01*
X476772Y372219D02*
Y378912D01*
X473228Y372219D02*
X476772D01*
X473228Y378912D02*
X476772D01*
X478254Y401272D02*
X484946D01*
X478254Y397728D02*
X484946D01*
X478254D02*
Y401272D01*
X484946Y397728D02*
Y401272D01*
X487954Y418128D02*
Y421672D01*
Y418128D02*
X494647D01*
X487954Y421672D02*
X494647D01*
Y418128D02*
Y421672D01*
X487903Y412528D02*
Y416072D01*
Y412528D02*
X494596D01*
X487903Y416072D02*
X494596D01*
Y412528D02*
Y416072D01*
X488005Y406628D02*
Y410172D01*
Y406628D02*
X494698D01*
X488005Y410172D02*
X494698D01*
Y406628D02*
Y410172D01*
X492603Y352845D02*
Y359538D01*
X496147Y352845D02*
Y359538D01*
X492603Y352845D02*
X496147D01*
X492603Y359538D02*
X496147D01*
X476653Y306294D02*
Y309838D01*
Y306294D02*
X483347D01*
X476653Y309838D02*
X483347D01*
Y306294D02*
Y309838D01*
X451028Y316713D02*
X457722D01*
X451028Y313169D02*
X457722D01*
X451028D02*
Y316713D01*
X457722Y313169D02*
Y316713D01*
X462342Y408569D02*
Y415262D01*
Y408569D02*
X465886D01*
X462342Y415262D02*
X465886D01*
Y408569D02*
Y415262D01*
X469467Y426294D02*
Y429838D01*
Y426294D02*
X476159D01*
X469467Y429838D02*
X476159D01*
Y426294D02*
Y429838D01*
X330403Y64213D02*
X337097D01*
X330403Y60669D02*
X337097D01*
X330403D02*
Y64213D01*
X337097Y60669D02*
Y64213D01*
X342279Y49419D02*
Y52963D01*
Y49419D02*
X348972D01*
X342279Y52963D02*
X348972D01*
Y49419D02*
Y52963D01*
X309778Y31919D02*
Y35463D01*
Y31919D02*
X316472D01*
X309778Y35463D02*
X316472D01*
Y31919D02*
Y35463D01*
X223445Y265271D02*
Y290861D01*
Y265271D02*
X241555D01*
X223445Y290861D02*
X241555D01*
Y265271D02*
Y290861D01*
X237141Y228435D02*
Y233947D01*
Y228435D02*
X249109D01*
X237141Y233947D02*
X249109D01*
Y228435D02*
Y233947D01*
X217766Y228435D02*
Y233947D01*
Y228435D02*
X229734D01*
X217766Y233947D02*
X229734D01*
Y228435D02*
Y233947D01*
X220404Y219419D02*
Y222963D01*
Y219419D02*
X227097D01*
X220404Y222963D02*
X227097D01*
Y219419D02*
Y222963D01*
X212603Y227220D02*
Y233912D01*
Y227220D02*
X216147D01*
X212603Y233912D02*
X216147D01*
Y227220D02*
Y233912D01*
X220404Y239419D02*
Y242963D01*
Y239419D02*
X227097D01*
X220404Y242963D02*
X227097D01*
Y239419D02*
Y242963D01*
X468391Y267185D02*
Y272697D01*
Y267185D02*
X480359D01*
X468391Y272697D02*
X480359D01*
Y267185D02*
Y272697D01*
X471029Y257544D02*
Y261088D01*
Y257544D02*
X477722D01*
X471029Y261088D02*
X477722D01*
Y257544D02*
Y261088D01*
X471029Y251294D02*
Y254838D01*
Y251294D02*
X477722D01*
X471029Y254838D02*
X477722D01*
Y251294D02*
Y254838D01*
X186978Y295970D02*
Y302662D01*
Y295970D02*
X190522D01*
X186978Y302662D02*
X190522D01*
Y295970D02*
Y302662D01*
X197904Y236919D02*
Y240463D01*
Y236919D02*
X204596D01*
X197904Y240463D02*
X204596D01*
Y236919D02*
Y240463D01*
X143853Y286595D02*
Y293287D01*
Y286595D02*
X147397D01*
X143853Y293287D02*
X147397D01*
Y286595D02*
Y293287D01*
X239778Y239419D02*
Y242963D01*
Y239419D02*
X246472D01*
X239778Y242963D02*
X246472D01*
Y239419D02*
Y242963D01*
X231978Y227220D02*
Y233912D01*
X235522Y227220D02*
Y233912D01*
X231978Y227220D02*
X235522D01*
X231978Y233912D02*
X235522D01*
X239778Y219419D02*
Y222963D01*
Y219419D02*
X246472D01*
X239778Y222963D02*
X246472D01*
Y219419D02*
Y222963D01*
X210320Y417982D02*
X228430D01*
X210320D02*
Y429400D01*
X228430Y417982D02*
Y429400D01*
X210320D02*
X228430D01*
X223445Y293396D02*
Y318986D01*
Y293396D02*
X241555D01*
X223445Y318986D02*
X241555D01*
Y293396D02*
Y318986D01*
X256516Y228435D02*
Y233947D01*
Y228435D02*
X268484D01*
X256516Y233947D02*
X268484D01*
Y228435D02*
Y233947D01*
X259154Y239419D02*
Y242963D01*
Y239419D02*
X265846D01*
X259154Y242963D02*
X265846D01*
Y239419D02*
Y242963D01*
X251353Y227220D02*
Y233912D01*
X254897Y227220D02*
Y233912D01*
X251353Y227220D02*
X254897D01*
X251353Y233912D02*
X254897D01*
X259154Y219419D02*
Y222963D01*
Y219419D02*
X265846D01*
X259154Y222963D02*
X265846D01*
Y219419D02*
Y222963D01*
X251570Y429400D02*
X269680D01*
Y417982D02*
Y429400D01*
X251570Y417982D02*
Y429400D01*
Y417982D02*
X269680D01*
X240955Y327136D02*
Y345246D01*
Y327136D02*
X266545D01*
X240955Y345246D02*
X266545D01*
Y327136D02*
Y345246D01*
X275891Y228435D02*
Y233947D01*
Y228435D02*
X287859D01*
X275891Y233947D02*
X287859D01*
Y228435D02*
Y233947D01*
X278528Y239419D02*
Y242963D01*
Y239419D02*
X285222D01*
X278528Y242963D02*
X285222D01*
Y239419D02*
Y242963D01*
X270728Y227220D02*
Y233912D01*
X274272Y227220D02*
Y233912D01*
X270728Y227220D02*
X274272D01*
X270728Y233912D02*
X274272D01*
X278528Y219419D02*
Y222963D01*
Y219419D02*
X285222D01*
X278528Y222963D02*
X285222D01*
Y219419D02*
Y222963D01*
X292820Y417982D02*
X310930D01*
X292820D02*
Y429400D01*
X310930Y417982D02*
Y429400D01*
X292820D02*
X310930D01*
X320945Y293396D02*
Y318986D01*
Y293396D02*
X339055D01*
X320945Y318986D02*
X339055D01*
Y293396D02*
Y318986D01*
X295266Y228435D02*
Y233947D01*
Y228435D02*
X307234D01*
X295266Y233947D02*
X307234D01*
Y228435D02*
Y233947D01*
X297903Y239419D02*
Y242963D01*
Y239419D02*
X304596D01*
X297903Y242963D02*
X304596D01*
Y239419D02*
Y242963D01*
X290103Y227220D02*
Y233912D01*
X293647Y227220D02*
Y233912D01*
X290103Y227220D02*
X293647D01*
X290103Y233912D02*
X293647D01*
X297903Y219419D02*
Y222963D01*
Y219419D02*
X304596D01*
X297903Y222963D02*
X304596D01*
Y219419D02*
Y222963D01*
X334070Y417982D02*
X352180D01*
X334070D02*
Y429400D01*
X352180Y417982D02*
Y429400D01*
X334070D02*
X352180D01*
X320945Y264646D02*
Y290236D01*
Y264646D02*
X339055D01*
X320945Y290236D02*
X339055D01*
Y264646D02*
Y290236D01*
X314641Y228435D02*
Y233947D01*
Y228435D02*
X326609D01*
X314641Y233947D02*
X326609D01*
Y228435D02*
Y233947D01*
X317279Y239419D02*
Y242963D01*
Y239419D02*
X323972D01*
X317279Y242963D02*
X323972D01*
Y239419D02*
Y242963D01*
X309478Y227220D02*
Y233912D01*
X313022Y227220D02*
Y233912D01*
X309478Y227220D02*
X313022D01*
X309478Y233912D02*
X313022D01*
X317279Y219419D02*
Y222963D01*
Y219419D02*
X323972D01*
X317279Y222963D02*
X323972D01*
Y219419D02*
Y222963D01*
X375320Y417982D02*
X393430D01*
X375320D02*
Y429400D01*
X393430Y417982D02*
Y429400D01*
X375320D02*
X393430D01*
X334016Y228435D02*
Y233947D01*
Y228435D02*
X345984D01*
X334016Y233947D02*
X345984D01*
Y228435D02*
Y233947D01*
X336653Y239419D02*
Y242963D01*
Y239419D02*
X343347D01*
X336653Y242963D02*
X343347D01*
Y239419D02*
Y242963D01*
X328853Y227220D02*
Y233912D01*
X332397Y227220D02*
Y233912D01*
X328853Y227220D02*
X332397D01*
X328853Y233912D02*
X332397D01*
X336653Y219419D02*
Y222963D01*
Y219419D02*
X343347D01*
X336653Y222963D02*
X343347D01*
Y219419D02*
Y222963D01*
X289154Y320669D02*
Y324213D01*
Y320669D02*
X295847D01*
X289154Y324213D02*
X295847D01*
Y320669D02*
Y324213D01*
X403883Y402072D02*
X410576D01*
X403883Y398528D02*
X410576D01*
X403883D02*
Y402072D01*
X410576Y398528D02*
Y402072D01*
X398174Y360044D02*
X404867D01*
X398174Y363588D02*
X404867D01*
Y360044D02*
Y363588D01*
X398174Y360044D02*
Y363588D01*
X256653Y265669D02*
X263347D01*
X256653Y269213D02*
X263347D01*
Y265669D02*
Y269213D01*
X256653Y265669D02*
Y269213D01*
X293454Y264728D02*
Y268272D01*
Y264728D02*
X300147D01*
X293454Y268272D02*
X300147D01*
Y264728D02*
Y268272D01*
X289154Y327544D02*
X295847D01*
X289154Y331088D02*
X295847D01*
X289154Y327544D02*
Y331088D01*
X295847Y327544D02*
Y331088D01*
X301978Y277845D02*
Y284538D01*
X305522Y277845D02*
Y284538D01*
X301978Y277845D02*
X305522D01*
X301978Y284538D02*
X305522D01*
X386029Y320669D02*
Y324213D01*
Y320669D02*
X392722D01*
X386029Y324213D02*
X392722D01*
Y320669D02*
Y324213D01*
X354153Y265669D02*
X360846D01*
X354153Y269213D02*
X360846D01*
Y265669D02*
Y269213D01*
X354153Y265669D02*
Y269213D01*
X390974Y264794D02*
X397667D01*
X390974Y268338D02*
X397667D01*
Y264794D02*
Y268338D01*
X390974Y264794D02*
Y268338D01*
X386029Y327544D02*
Y331088D01*
Y327544D02*
X392722D01*
X386029Y331088D02*
X392722D01*
Y327544D02*
Y331088D01*
X399478Y277845D02*
Y284538D01*
X403022Y277845D02*
Y284538D01*
X399478Y277845D02*
X403022D01*
X399478Y284538D02*
X403022D01*
X543928Y411211D02*
Y417904D01*
Y411211D02*
X547472D01*
X543928Y417904D02*
X547472D01*
Y411211D02*
Y417904D01*
X495403Y267963D02*
X502097D01*
X495403Y264419D02*
X502097D01*
X495403D02*
Y267963D01*
X502097Y264419D02*
Y267963D01*
X528841Y316919D02*
X535534D01*
X528841Y320463D02*
X535534D01*
Y316919D02*
Y320463D01*
X528841Y316919D02*
Y320463D01*
X538528Y404419D02*
Y407963D01*
Y404419D02*
X545222D01*
X538528Y407963D02*
X545222D01*
Y404419D02*
Y407963D01*
X546654Y354838D02*
X553346D01*
X546654Y351294D02*
X553346D01*
X546654D02*
Y354838D01*
X553346Y351294D02*
Y354838D01*
X538228Y352220D02*
Y358912D01*
X541772Y352220D02*
Y358912D01*
X538228Y352220D02*
X541772D01*
X538228Y358912D02*
X541772D01*
X478528Y297544D02*
Y301088D01*
Y297544D02*
X485221D01*
X478528Y301088D02*
X485221D01*
Y297544D02*
Y301088D01*
X478528Y289419D02*
Y292963D01*
Y289419D02*
X485221D01*
X478528Y292963D02*
X485221D01*
Y289419D02*
Y292963D01*
X478528Y281294D02*
Y284838D01*
Y281294D02*
X485221D01*
X478528Y284838D02*
X485221D01*
Y281294D02*
Y284838D01*
X525103Y416595D02*
Y423287D01*
Y416595D02*
X528647D01*
X525103Y423287D02*
X528647D01*
Y416595D02*
Y423287D01*
X531978Y416595D02*
Y423287D01*
X535522Y416595D02*
Y423287D01*
X531978Y416595D02*
X535522D01*
X531978Y423287D02*
X535522D01*
X536914Y412845D02*
Y419537D01*
Y412845D02*
X541836D01*
Y419537D01*
X536914D02*
X541836D01*
X549128Y411220D02*
Y417913D01*
Y411220D02*
X552672D01*
X549128Y417913D02*
X552672D01*
Y411220D02*
Y417913D01*
X550310Y404419D02*
Y407963D01*
Y404419D02*
X557002D01*
X550310Y407963D02*
X557002D01*
Y404419D02*
Y407963D01*
X538528Y401713D02*
X545222D01*
X538528Y398169D02*
X545222D01*
X538528D02*
Y401713D01*
X545222Y398169D02*
Y401713D01*
X550408Y398228D02*
Y401772D01*
Y398228D02*
X557101D01*
X550408Y401772D02*
X557101D01*
Y398228D02*
Y401772D01*
X109153Y80463D02*
X115847D01*
X109153Y76919D02*
X115847D01*
X109153D02*
Y80463D01*
X115847Y76919D02*
Y80463D01*
X51653Y84213D02*
X58346D01*
X51653Y80669D02*
X58346D01*
X51653D02*
Y84213D01*
X58346Y80669D02*
Y84213D01*
X110103Y152845D02*
Y159537D01*
X113647Y152845D02*
Y159537D01*
X110103Y152845D02*
X113647D01*
X110103Y159537D02*
X113647D01*
X127603Y103470D02*
Y110162D01*
X131147Y103470D02*
Y110162D01*
X127603Y103470D02*
X131147D01*
X127603Y110162D02*
X131147D01*
X53528Y148588D02*
X60221D01*
X53528Y145044D02*
X60221D01*
X53528D02*
Y148588D01*
X60221Y145044D02*
Y148588D01*
X124478Y124720D02*
Y131412D01*
X128022Y124720D02*
Y131412D01*
X124478Y124720D02*
X128022D01*
X124478Y131412D02*
X128022D01*
X346772Y149720D02*
Y156412D01*
X343228Y149720D02*
Y156412D01*
X346772D01*
X343228Y149720D02*
X346772D01*
X478853Y144095D02*
Y150787D01*
X482397Y144095D02*
Y150787D01*
X478853Y144095D02*
X482397D01*
X478853Y150787D02*
X482397D01*
X449478Y216595D02*
Y223288D01*
X453022Y216595D02*
Y223288D01*
X449478Y216595D02*
X453022D01*
X449478Y223288D02*
X453022D01*
X472278Y168794D02*
X478971D01*
X472278Y172338D02*
X478971D01*
Y168794D02*
Y172338D01*
X472278Y168794D02*
Y172338D01*
X407603Y90970D02*
Y97663D01*
X411147Y90970D02*
Y97663D01*
X407603Y90970D02*
X411147D01*
X407603Y97663D02*
X411147D01*
X421654Y220044D02*
X428346D01*
X421654Y223588D02*
X428346D01*
Y220044D02*
Y223588D01*
X421654Y220044D02*
Y223588D01*
X347772Y198153D02*
Y204847D01*
X344228Y198153D02*
Y204847D01*
X347772D01*
X344228Y198153D02*
X347772D01*
X376772Y223469D02*
Y230163D01*
X373228Y223469D02*
Y230163D01*
X376772D01*
X373228Y223469D02*
X376772D01*
X393228Y94095D02*
Y100787D01*
X396772Y94095D02*
Y100787D01*
X393228Y94095D02*
X396772D01*
X393228Y100787D02*
X396772D01*
X346772Y164094D02*
Y170788D01*
X343228Y164094D02*
Y170788D01*
X346772D01*
X343228Y164094D02*
X346772D01*
X344153Y129213D02*
X350847D01*
X344153Y125669D02*
X350847D01*
X344153D02*
Y129213D01*
X350847Y125669D02*
Y129213D01*
X436772Y92844D02*
Y99537D01*
X433228Y92844D02*
Y99537D01*
X436772D01*
X433228Y92844D02*
X436772D01*
X473022Y189719D02*
Y196413D01*
X469478Y189719D02*
Y196413D01*
X473022D01*
X469478Y189719D02*
X473022D01*
X471772Y123469D02*
Y130163D01*
X468228Y123469D02*
Y130163D01*
X471772D01*
X468228Y123469D02*
X471772D01*
X403528Y220044D02*
X410221D01*
X403528Y223588D02*
X410221D01*
Y220044D02*
Y223588D01*
X403528Y220044D02*
Y223588D01*
X587771Y347485D02*
X593479D01*
X587771Y356147D02*
X593479D01*
X587771Y347485D02*
Y356147D01*
X593479Y347485D02*
Y356147D01*
X538022Y238470D02*
Y245163D01*
X534478Y238470D02*
Y245163D01*
X538022D01*
X534478Y238470D02*
X538022D01*
X525728D02*
Y245163D01*
Y238470D02*
X529272D01*
X525728Y245163D02*
X529272D01*
Y238470D02*
Y245163D01*
X551772Y191595D02*
Y198287D01*
X548228Y191595D02*
Y198287D01*
X551772D01*
X548228Y191595D02*
X551772D01*
X594153Y166713D02*
X600846D01*
X594153Y163169D02*
X600846D01*
X594153D02*
Y166713D01*
X600846Y163169D02*
Y166713D01*
X188647Y232220D02*
Y238913D01*
X185103Y232220D02*
Y238913D01*
X188647D01*
X185103Y232220D02*
X188647D01*
X141028Y243794D02*
Y247338D01*
X147722Y243794D02*
Y247338D01*
X141028D02*
X147722D01*
X141028Y243794D02*
X147722D01*
X201654Y118794D02*
Y122338D01*
Y118794D02*
X208347D01*
X201654Y122338D02*
X208347D01*
Y118794D02*
Y122338D01*
X201654Y124419D02*
X208347D01*
X201654Y127963D02*
X208347D01*
Y124419D02*
Y127963D01*
X201654Y124419D02*
Y127963D01*
X12603Y124094D02*
Y130788D01*
X16147Y124094D02*
Y130788D01*
X12603Y124094D02*
X16147D01*
X12603Y130788D02*
X16147D01*
X41653Y128794D02*
X48346D01*
X41653Y132338D02*
X48346D01*
Y128794D02*
Y132338D01*
X41653Y128794D02*
Y132338D01*
X478853Y187845D02*
Y194537D01*
Y187845D02*
X482397D01*
X478853Y194537D02*
X482397D01*
Y187845D02*
Y194537D01*
X380103Y219094D02*
Y225787D01*
Y219094D02*
X383647D01*
X380103Y225787D02*
X383647D01*
Y219094D02*
Y225787D01*
X66654Y150669D02*
Y154213D01*
Y150669D02*
X73347D01*
X66654Y154213D02*
X73347D01*
Y150669D02*
Y154213D01*
X45728Y89095D02*
Y95788D01*
X49272Y89095D02*
Y95788D01*
X45728Y89095D02*
X49272D01*
X45728Y95788D02*
X49272D01*
X116028Y71713D02*
X122722D01*
X116028Y68169D02*
X122722D01*
X116028D02*
Y71713D01*
X122722Y68169D02*
Y71713D01*
X427904Y83794D02*
Y87338D01*
Y83794D02*
X434596D01*
X427904Y87338D02*
X434596D01*
Y83794D02*
Y87338D01*
X524779Y172338D02*
X531471D01*
X524779Y168794D02*
X531471D01*
X524779D02*
Y172338D01*
X531471Y168794D02*
Y172338D01*
X506029Y105669D02*
X512721D01*
X506029Y109213D02*
X512721D01*
Y105669D02*
Y109213D01*
X506029Y105669D02*
Y109213D01*
X489478Y108469D02*
Y115163D01*
X493022Y108469D02*
Y115163D01*
X489478Y108469D02*
X493022D01*
X489478Y115163D02*
X493022D01*
X525403Y105669D02*
X532096D01*
X525403Y109213D02*
X532096D01*
Y105669D02*
Y109213D01*
X525403Y105669D02*
Y109213D01*
X528528Y100463D02*
X535221D01*
X528528Y96919D02*
X535221D01*
X528528D02*
Y100463D01*
X535221Y96919D02*
Y100463D01*
X589272Y127845D02*
Y134537D01*
X585728Y127845D02*
Y134537D01*
X589272D01*
X585728Y127845D02*
X589272D01*
X140522Y98782D02*
Y105474D01*
X136978Y98782D02*
Y105474D01*
X140522D01*
X136978Y98782D02*
X140522D01*
X446654Y411088D02*
X453346D01*
X446654Y407544D02*
X453346D01*
X446654D02*
Y411088D01*
X453346Y407544D02*
Y411088D01*
X446654Y416713D02*
X453346D01*
X446654Y413169D02*
X453346D01*
X446654D02*
Y416713D01*
X453346Y413169D02*
Y416713D01*
X459478Y298469D02*
Y305163D01*
X463022Y298469D02*
Y305163D01*
X459478Y298469D02*
X463022D01*
X459478Y305163D02*
X463022D01*
X362418Y76985D02*
Y80528D01*
Y76985D02*
X369111D01*
X362418Y80528D02*
X369111D01*
Y76985D02*
Y80528D01*
X362418Y91985D02*
Y95528D01*
Y91985D02*
X369111D01*
X362418Y95528D02*
X369111D01*
Y91985D02*
Y95528D01*
X434478Y62220D02*
Y68913D01*
X438022Y62220D02*
Y68913D01*
X434478Y62220D02*
X438022D01*
X434478Y68913D02*
X438022D01*
X404478Y59720D02*
Y66413D01*
X408022Y59720D02*
Y66413D01*
X404478Y59720D02*
X408022D01*
X404478Y66413D02*
X408022D01*
X134153Y140669D02*
X140847D01*
X134153Y144213D02*
X140847D01*
X134153Y140669D02*
Y144213D01*
X140847Y140669D02*
Y144213D01*
X146978Y129053D02*
Y135747D01*
Y129053D02*
X150522D01*
X146978Y135747D02*
X150522D01*
Y129053D02*
Y135747D01*
X388528Y51088D02*
X395221D01*
X388528Y47544D02*
X395221D01*
X388528D02*
Y51088D01*
X395221Y47544D02*
Y51088D01*
X446029Y56088D02*
X452722D01*
X446029Y52544D02*
X452722D01*
X446029D02*
Y56088D01*
X452722Y52544D02*
Y56088D01*
X446029Y63794D02*
Y67338D01*
Y63794D02*
X452722D01*
X446029Y67338D02*
X452722D01*
Y63794D02*
Y67338D01*
X242717Y181294D02*
X249410D01*
X242717Y184838D02*
X249410D01*
X242717Y181294D02*
Y184838D01*
X249410Y181294D02*
Y184838D01*
X242717Y175044D02*
X249410D01*
X242717Y178588D02*
X249410D01*
X242717Y175044D02*
Y178588D01*
X249410Y175044D02*
Y178588D01*
X242717Y76919D02*
X249410D01*
X242717D02*
Y80463D01*
X249410D01*
Y76919D02*
Y80463D01*
X242717Y70669D02*
X249410D01*
X242717D02*
Y74213D01*
X249410D01*
Y70669D02*
Y74213D01*
X423189Y6811D02*
X423976Y6024D01*
X461850D01*
X423189Y6811D02*
Y24685D01*
X423976Y25472D01*
X461850D01*
Y6024D02*
X462637Y6811D01*
Y24685D01*
X461850Y25472D02*
X462637Y24685D01*
X451028Y30463D02*
X457722D01*
X451028Y26919D02*
X457722D01*
X451028D02*
Y30463D01*
X457722Y26919D02*
Y30463D01*
X466653D02*
X473347D01*
X466653Y26919D02*
X473347D01*
X466653D02*
Y30463D01*
X473347Y26919D02*
Y30463D01*
X594153Y159838D02*
X600846D01*
X594153Y156294D02*
X600846D01*
X594153D02*
Y159838D01*
X600846Y156294D02*
Y159838D01*
X546654Y361088D02*
X553346D01*
X546654Y357544D02*
X553346D01*
X546654D02*
Y361088D01*
X553346Y357544D02*
Y361088D01*
X403883Y395872D02*
X410576D01*
X403883Y392328D02*
X410576D01*
X403883D02*
Y395872D01*
X410576Y392328D02*
Y395872D01*
X388528Y56713D02*
X395221D01*
X388528Y53169D02*
X395221D01*
X388528D02*
Y56713D01*
X395221Y53169D02*
Y56713D01*
X52279Y208169D02*
X58972D01*
X52279Y211713D02*
X58972D01*
Y208169D02*
Y211713D01*
X52279Y208169D02*
Y211713D01*
X122278Y215044D02*
Y218588D01*
X128972Y215044D02*
Y218588D01*
X122278D02*
X128972D01*
X122278Y215044D02*
X128972D01*
X122278Y208794D02*
Y212338D01*
X128972Y208794D02*
Y212338D01*
X122278D02*
X128972D01*
X122278Y208794D02*
X128972D01*
X603474Y347136D02*
Y365246D01*
Y347136D02*
X619026D01*
X603474Y365246D02*
X619026D01*
Y347136D02*
Y365246D01*
X230403Y181294D02*
Y184838D01*
Y181294D02*
X237097D01*
X230403Y184838D02*
X237097D01*
Y181294D02*
Y184838D01*
X230403Y175044D02*
Y178588D01*
Y175044D02*
X237097D01*
X230403Y178588D02*
X237097D01*
Y175044D02*
Y178588D01*
X254779Y76919D02*
X261472D01*
X254779Y80463D02*
X261472D01*
X254779Y76919D02*
Y80463D01*
X261472Y76919D02*
Y80463D01*
X254779Y70669D02*
X261472D01*
X254779Y74213D02*
X261472D01*
X254779Y70669D02*
Y74213D01*
X261472Y70669D02*
Y74213D01*
X174778Y344419D02*
X181472D01*
X174778Y347963D02*
X181472D01*
Y344419D02*
Y347963D01*
X174778Y344419D02*
Y347963D01*
X242903Y11713D02*
X249597D01*
X242903Y8169D02*
X249597D01*
X242903D02*
Y11713D01*
X249597Y8169D02*
Y11713D01*
X242279Y166294D02*
X248972D01*
X242279Y169838D02*
X248972D01*
Y166294D02*
Y169838D01*
X242279Y166294D02*
Y169838D01*
X229474Y407228D02*
Y410772D01*
X222781Y407228D02*
Y410772D01*
X229474D01*
X222781Y407228D02*
X229474D01*
X111294Y325837D02*
X119956D01*
X111294D02*
Y331545D01*
X119956D01*
Y325837D02*
Y331545D01*
X52279Y220669D02*
X58972D01*
X52279Y224213D02*
X58972D01*
Y220669D02*
Y224213D01*
X52279Y220669D02*
Y224213D01*
Y214419D02*
Y217963D01*
Y214419D02*
X58972D01*
X52279Y217963D02*
X58972D01*
Y214419D02*
Y217963D01*
X216526Y76004D02*
X217313Y75217D01*
X216526Y93878D02*
X217313Y94665D01*
X216526Y76004D02*
Y93878D01*
X225974Y76004D02*
Y93878D01*
X225187Y94665D02*
X225974Y93878D01*
X217313Y94665D02*
X225187D01*
Y75217D02*
X225974Y76004D01*
X217313Y75217D02*
X225187D01*
X274562Y197092D02*
X275349Y197879D01*
X255901D02*
X256688Y197092D01*
X274562D01*
X256688Y206540D02*
X274562D01*
X255901Y205753D02*
X256688Y206540D01*
X255901Y197879D02*
Y205753D01*
X274562Y206540D02*
X275349Y205753D01*
Y197879D02*
Y205753D01*
X570271Y347485D02*
X575979D01*
X570271Y356147D02*
X575979D01*
X570271Y347485D02*
Y356147D01*
X575979Y347485D02*
Y356147D01*
X579021Y347485D02*
X584729D01*
X579021Y356147D02*
X584729D01*
X579021Y347485D02*
Y356147D01*
X584729Y347485D02*
Y356147D01*
X111294Y334587D02*
X119956D01*
X111294D02*
Y340295D01*
X119956D01*
Y334587D02*
Y340295D01*
X111294Y349045D02*
X119956D01*
X111294Y343337D02*
X119956D01*
X111294D02*
Y349045D01*
X119956Y343337D02*
Y349045D01*
X451028Y367963D02*
X457722D01*
X451028Y364419D02*
X457722D01*
X451028D02*
Y367963D01*
X457722Y364419D02*
Y367963D01*
X469153Y364419D02*
X475846D01*
X469153Y367963D02*
X475846D01*
Y364419D02*
Y367963D01*
X469153Y364419D02*
Y367963D01*
X293839Y6001D02*
Y25489D01*
Y6001D02*
X414823D01*
X293839Y25489D02*
X414823D01*
Y6001D02*
Y25489D01*
X507278Y169838D02*
X513972D01*
X507278Y166294D02*
X513972D01*
X507278D02*
Y169838D01*
X513972Y166294D02*
Y169838D01*
X242717Y187544D02*
X249410D01*
X242717Y191088D02*
X249410D01*
X242717Y187544D02*
Y191088D01*
X249410Y187544D02*
Y191088D01*
X254779Y83169D02*
X261472D01*
X254779Y86713D02*
X261472D01*
X254779Y83169D02*
Y86713D01*
X261472Y83169D02*
Y86713D01*
X230403Y187544D02*
Y191088D01*
Y187544D02*
X237097D01*
X230403Y191088D02*
X237097D01*
Y187544D02*
Y191088D01*
X326978Y131826D02*
Y138519D01*
Y131826D02*
X330522D01*
X326978Y138519D02*
X330522D01*
Y131826D02*
Y138519D01*
X98853Y71595D02*
Y78288D01*
Y71595D02*
X102397D01*
X98853Y78288D02*
X102397D01*
Y71595D02*
Y78288D01*
X388528Y75463D02*
X395221D01*
X388528Y71919D02*
X395221D01*
X388528D02*
Y75463D01*
X395221Y71919D02*
Y75463D01*
X459154Y106294D02*
X465846D01*
X459154Y109838D02*
X465846D01*
Y106294D02*
Y109838D01*
X459154Y106294D02*
Y109838D01*
Y100044D02*
Y103588D01*
Y100044D02*
X465846D01*
X459154Y103588D02*
X465846D01*
Y100044D02*
Y103588D01*
X218228Y125345D02*
Y132037D01*
X221772Y125345D02*
Y132037D01*
X218228Y125345D02*
X221772D01*
X218228Y132037D02*
X221772D01*
X116028Y58794D02*
Y62338D01*
Y58794D02*
X122722D01*
X116028Y62338D02*
X122722D01*
Y58794D02*
Y62338D01*
X84153Y150669D02*
Y154213D01*
Y150669D02*
X90847D01*
X84153Y154213D02*
X90847D01*
Y150669D02*
Y154213D01*
X478853Y122220D02*
Y128912D01*
Y122220D02*
X482397D01*
X478853Y128912D02*
X482397D01*
Y122220D02*
Y128912D01*
X426028Y366294D02*
Y369838D01*
Y366294D02*
X432722D01*
X426028Y369838D02*
X432722D01*
Y366294D02*
Y369838D01*
X416496Y310928D02*
Y314472D01*
Y310928D02*
X423189D01*
X416496Y314472D02*
X423189D01*
Y310928D02*
Y314472D01*
X414670Y378337D02*
X449080D01*
X414670Y394045D02*
X449080D01*
X414670Y378337D02*
Y394045D01*
X449080Y378337D02*
Y394045D01*
X202095Y328618D02*
Y368382D01*
X213906Y328618D02*
Y368382D01*
X202095Y328618D02*
X213906D01*
X202095Y368382D02*
X213906D01*
X202095Y281618D02*
Y321382D01*
X213906Y281618D02*
Y321382D01*
X202095Y281618D02*
X213906D01*
X202095Y321382D02*
X213906D01*
X249118Y354594D02*
X288882D01*
X249118D02*
Y366406D01*
X288882D01*
Y354594D02*
Y366406D01*
X379719Y347559D02*
Y387323D01*
X391530Y347559D02*
Y387323D01*
X379719Y347559D02*
X391530D01*
X379719Y387323D02*
X391530D01*
X325118Y358411D02*
X364882D01*
X325118D02*
Y370221D01*
X364882D01*
Y358411D02*
Y370221D01*
X174778Y358794D02*
Y362338D01*
Y358794D02*
X181472D01*
X174778Y362338D02*
X181472D01*
Y358794D02*
Y362338D01*
X186957Y421158D02*
X194043D01*
X186957Y415842D02*
X194043D01*
X186957D02*
Y421158D01*
X194043Y415842D02*
Y421158D01*
X398228Y430344D02*
Y437037D01*
Y430344D02*
X401772D01*
X398228Y437037D02*
X401772D01*
Y430344D02*
Y437037D01*
X285369Y195285D02*
Y207097D01*
Y195285D02*
X290881D01*
Y207097D01*
X285369D02*
X290881D01*
X296353Y197845D02*
Y204537D01*
Y197845D02*
X299897D01*
X296353Y204537D02*
X299897D01*
Y197845D02*
Y204537D01*
X212903Y161919D02*
Y165463D01*
Y161919D02*
X219597D01*
X212903Y165463D02*
X219597D01*
Y161919D02*
Y165463D01*
X451353Y382844D02*
Y389537D01*
Y382844D02*
X454897D01*
X451353Y389537D02*
X454897D01*
Y382844D02*
Y389537D01*
X432278Y360669D02*
Y364213D01*
Y360669D02*
X438972D01*
X432278Y364213D02*
X438972D01*
Y360669D02*
Y364213D01*
X183957Y427598D02*
X191043D01*
X183957Y422284D02*
X191043D01*
X183957D02*
Y427598D01*
X191043Y422284D02*
Y427598D01*
X233228Y430344D02*
Y437038D01*
X236772Y430344D02*
Y437038D01*
X233228Y430344D02*
X236772D01*
X233228Y437038D02*
X236772D01*
X274478Y430344D02*
Y437038D01*
X278022Y430344D02*
Y437038D01*
X274478Y430344D02*
X278022D01*
X274478Y437038D02*
X278022D01*
X315728Y430344D02*
Y437038D01*
X319272Y430344D02*
Y437038D01*
X315728Y430344D02*
X319272D01*
X315728Y437038D02*
X319272D01*
X356978Y430344D02*
Y437037D01*
Y430344D02*
X360522D01*
X356978Y437037D02*
X360522D01*
Y430344D02*
Y437037D01*
X439166Y430344D02*
Y437037D01*
Y430344D02*
X442710D01*
X439166Y437037D02*
X442710D01*
Y430344D02*
Y437037D01*
X204478Y149720D02*
Y156412D01*
Y149720D02*
X208022D01*
X204478Y156412D02*
X208022D01*
Y149720D02*
Y156412D01*
X212903Y168169D02*
Y171713D01*
Y168169D02*
X219597D01*
X212903Y171713D02*
X219597D01*
Y168169D02*
Y171713D01*
X214478Y29094D02*
Y35787D01*
Y29094D02*
X218022D01*
X214478Y35787D02*
X218022D01*
Y29094D02*
Y35787D01*
X562603Y399720D02*
Y406412D01*
Y399720D02*
X566147D01*
X562603Y406412D02*
X566147D01*
Y399720D02*
Y406412D01*
X175315Y116732D02*
Y194606D01*
Y116732D02*
X176102Y115945D01*
X193976D01*
X175315Y194606D02*
X176102Y195393D01*
X193976D01*
Y115945D02*
X194763Y116732D01*
Y194606D01*
X193976Y195393D02*
X194763Y194606D01*
X82638Y392638D02*
X83425Y391851D01*
X121299D01*
X82638Y392638D02*
Y410512D01*
X83425Y411299D01*
X121299D01*
Y391851D02*
X122086Y392638D01*
Y410512D01*
X121299Y411299D02*
X122086Y410512D01*
X45728Y355345D02*
Y362037D01*
Y355345D02*
X49272D01*
X45728Y362037D02*
X49272D01*
Y355345D02*
Y362037D01*
X51353Y355345D02*
Y362037D01*
Y355345D02*
X54897D01*
X51353Y362037D02*
X54897D01*
Y355345D02*
Y362037D01*
X34778Y363588D02*
X41471D01*
X34778Y360044D02*
X41471D01*
X34778D02*
Y363588D01*
X41471Y360044D02*
Y363588D01*
X34778Y357963D02*
X41471D01*
X34778Y354419D02*
X41471D01*
X34778D02*
Y357963D01*
X41471Y354419D02*
Y357963D01*
X41653Y254213D02*
X48346D01*
X41653Y250669D02*
X48346D01*
X41653D02*
Y254213D01*
X48346Y250669D02*
Y254213D01*
X32278Y316919D02*
Y320463D01*
Y316919D02*
X38971D01*
X32278Y320463D02*
X38971D01*
Y316919D02*
Y320463D01*
X56978Y330970D02*
Y337662D01*
Y330970D02*
X60522D01*
X56978Y337662D02*
X60522D01*
Y330970D02*
Y337662D01*
X44154Y316919D02*
Y320463D01*
Y316919D02*
X50846D01*
X44154Y320463D02*
X50846D01*
Y316919D02*
Y320463D01*
X146978Y149720D02*
Y156412D01*
Y149720D02*
X150522D01*
X146978Y156412D02*
X150522D01*
Y149720D02*
Y156412D01*
X146978Y161594D02*
Y168287D01*
Y161594D02*
X150522D01*
X146978Y168287D02*
X150522D01*
Y161594D02*
Y168287D01*
X145977Y199897D02*
Y241235D01*
Y199897D02*
X175899D01*
X145977Y241235D02*
X175899D01*
Y199897D02*
Y241235D01*
X556555Y369592D02*
Y379828D01*
X538445Y369592D02*
Y379828D01*
X556555D01*
X538445Y369592D02*
X556555D01*
X502539Y273022D02*
Y314360D01*
Y273022D02*
X532461D01*
X502539Y314360D02*
X532461D01*
Y273022D02*
Y314360D01*
X490910Y327264D02*
X507840D01*
X490910Y342618D02*
X507840D01*
X490910Y327264D02*
Y342618D01*
X507840Y327264D02*
Y342618D01*
X183035Y248514D02*
X199965D01*
X183035Y263868D02*
X199965D01*
X183035Y248514D02*
Y263868D01*
X199965Y248514D02*
Y263868D01*
X154867Y283358D02*
Y300288D01*
Y283358D02*
X170222D01*
X154867Y300288D02*
X170222D01*
Y283358D02*
Y300288D01*
X154810Y265344D02*
Y282273D01*
Y265344D02*
X170165D01*
X154810Y282273D02*
X170165D01*
Y265344D02*
Y282273D01*
X261289Y270522D02*
Y311860D01*
Y270522D02*
X291211D01*
X261289Y311860D02*
X291211D01*
Y270522D02*
Y311860D01*
X456029Y418214D02*
Y430418D01*
X462721Y418214D02*
Y430418D01*
X456029D02*
X462721D01*
X456029Y418214D02*
X462721D01*
X420039Y266147D02*
Y307485D01*
Y266147D02*
X449961D01*
X420039Y307485D02*
X449961D01*
Y266147D02*
Y307485D01*
X411408Y58017D02*
Y70615D01*
Y58017D02*
X431093D01*
X411408Y70615D02*
X431093D01*
Y58017D02*
Y70615D01*
X239370Y113691D02*
Y163691D01*
X252756Y113691D02*
Y163691D01*
X239370D02*
X252756D01*
X239370Y113691D02*
X252756D01*
X608814Y169469D02*
Y210413D01*
X573814Y169469D02*
X608814D01*
X573814D02*
Y210413D01*
X608814D01*
X237967Y430148D02*
X243283D01*
X237967Y437234D02*
X243283D01*
X237967Y430148D02*
Y437234D01*
X243283Y430148D02*
Y437234D01*
X361718Y430148D02*
X367033D01*
X361718Y437234D02*
X367033D01*
X361718Y430148D02*
Y437234D01*
X367033Y430148D02*
Y437234D01*
X279218Y430148D02*
X284532D01*
X279218Y437234D02*
X284532D01*
X279218Y430148D02*
Y437234D01*
X284532Y430148D02*
Y437234D01*
X402968Y430148D02*
X408283D01*
X402968Y437234D02*
X408283D01*
X402968Y430148D02*
Y437234D01*
X408283Y430148D02*
Y437234D01*
X320467Y430148D02*
X325782D01*
X320467Y437234D02*
X325782D01*
X320467Y430148D02*
Y437234D01*
X325782Y430148D02*
Y437234D01*
D172*
X417788Y423691D02*
D03*
X211538D02*
D03*
X252788D02*
D03*
X294038D02*
D03*
X335288D02*
D03*
X376538D02*
D03*
M02*
