G04*
G04 #@! TF.GenerationSoftware,Altium Limited,Altium Designer,21.4.1 (30)*
G04*
G04 Layer_Color=8388736*
%FSLAX25Y25*%
%MOIN*%
G70*
G04*
G04 #@! TF.SameCoordinates,ABD127B9-61DE-435D-9B50-71DF74D21850*
G04*
G04*
G04 #@! TF.FilePolarity,Positive*
G04*
G01*
G75*
%ADD17C,0.01000*%
D17*
X158502Y98000D02*
X164500D01*
Y100999D01*
X163500Y101999D01*
X159502D01*
X158502Y100999D01*
Y98000D01*
X164500Y104998D02*
Y106997D01*
X163500Y107997D01*
X161501D01*
X160501Y106997D01*
Y104998D01*
X161501Y103998D01*
X163500D01*
X164500Y104998D01*
Y115994D02*
X158502D01*
X164500Y119993D01*
X158502D01*
Y124991D02*
Y122992D01*
X159502Y121992D01*
X163500D01*
X164500Y122992D01*
Y124991D01*
X163500Y125991D01*
X159502D01*
X158502Y124991D01*
Y127990D02*
Y131989D01*
Y129990D01*
X164500D01*
Y139986D02*
X160501D01*
Y140986D01*
X161501Y141986D01*
X164500D01*
X161501D01*
X160501Y142985D01*
X161501Y143985D01*
X164500D01*
Y145984D02*
Y147984D01*
Y146984D01*
X160501D01*
Y145984D01*
X164500Y150983D02*
Y152982D01*
Y151982D01*
X158502D01*
Y150983D01*
X164500Y155981D02*
Y157981D01*
Y156981D01*
X158502D01*
Y155981D01*
X164500Y166978D02*
Y168977D01*
Y167977D01*
X160501D01*
Y166978D01*
X164500Y171976D02*
Y174975D01*
X163500Y175975D01*
X162501Y174975D01*
Y172976D01*
X161501Y171976D01*
X160501Y172976D01*
Y175975D01*
X164500Y178974D02*
Y180973D01*
X163500Y181973D01*
X161501D01*
X160501Y180973D01*
Y178974D01*
X161501Y177974D01*
X163500D01*
X164500Y178974D01*
Y183972D02*
Y185971D01*
Y184972D01*
X158502D01*
Y183972D01*
X160501Y189970D02*
Y191970D01*
X161501Y192969D01*
X164500D01*
Y189970D01*
X163500Y188971D01*
X162501Y189970D01*
Y192969D01*
X159502Y195968D02*
X160501D01*
Y194969D01*
Y196968D01*
Y195968D01*
X163500D01*
X164500Y196968D01*
Y199967D02*
Y201966D01*
Y200967D01*
X160501D01*
Y199967D01*
X164500Y205965D02*
Y207964D01*
X163500Y208964D01*
X161501D01*
X160501Y207964D01*
Y205965D01*
X161501Y204965D01*
X163500D01*
X164500Y205965D01*
Y210963D02*
X160501D01*
Y213963D01*
X161501Y214962D01*
X164500D01*
Y222960D02*
X160501D01*
Y223959D01*
X161501Y224959D01*
X164500D01*
X161501D01*
X160501Y225959D01*
X161501Y226958D01*
X164500D01*
Y231957D02*
Y229957D01*
X163500Y228958D01*
X161501D01*
X160501Y229957D01*
Y231957D01*
X161501Y232956D01*
X162501D01*
Y228958D01*
X160501Y235955D02*
Y237955D01*
X161501Y238954D01*
X164500D01*
Y235955D01*
X163500Y234956D01*
X162501Y235955D01*
Y238954D01*
X164500Y240954D02*
X160501D01*
Y243953D01*
X161501Y244952D01*
X164500D01*
X158502Y250951D02*
X164500D01*
Y247952D01*
X163500Y246952D01*
X161501D01*
X160501Y247952D01*
Y250951D01*
X164500Y255949D02*
Y253949D01*
X163500Y252950D01*
X161501D01*
X160501Y253949D01*
Y255949D01*
X161501Y256949D01*
X162501D01*
Y252950D01*
X160501Y258948D02*
X164500D01*
X162501D01*
X161501Y259948D01*
X160501Y260947D01*
Y261947D01*
X164500Y264946D02*
X163500D01*
Y265946D01*
X164500D01*
Y264946D01*
M02*
