G04*
G04 #@! TF.GenerationSoftware,Altium Limited,Altium Designer,21.4.1 (30)*
G04*
G04 Layer_Color=32768*
%FSLAX25Y25*%
%MOIN*%
G70*
G04*
G04 #@! TF.SameCoordinates,ABD127B9-61DE-435D-9B50-71DF74D21850*
G04*
G04*
G04 #@! TF.FilePolarity,Positive*
G04*
G01*
G75*
%ADD14C,0.00394*%
%ADD17C,0.01000*%
%ADD173C,0.00197*%
%ADD174C,0.00201*%
D14*
X138750Y126098D02*
Y130034D01*
X136782Y128066D02*
X140718D01*
X28657Y423691D02*
X32594D01*
X30625Y421723D02*
Y425660D01*
X537406Y136816D02*
X541343D01*
X539375Y134847D02*
Y138785D01*
X406781Y160566D02*
X410718D01*
X408750Y158598D02*
Y162534D01*
X88750Y113598D02*
Y117534D01*
X86782Y115566D02*
X90719D01*
X38125Y334847D02*
Y338785D01*
X36156Y336816D02*
X40093D01*
X530000Y431722D02*
Y435660D01*
X528031Y433691D02*
X531968D01*
X183750Y322972D02*
Y326909D01*
X181781Y324941D02*
X185719D01*
X351250Y334223D02*
Y338159D01*
X349282Y336191D02*
X353219D01*
X207531Y256191D02*
X211469D01*
X209500Y254222D02*
Y258159D01*
X323657Y48691D02*
X327593D01*
X325625Y46722D02*
Y50660D01*
X444907Y431816D02*
X448843D01*
X446875Y429847D02*
Y433784D01*
X577500Y392972D02*
Y396909D01*
X575531Y394941D02*
X579468D01*
X352362Y401575D02*
X356299D01*
X354331Y399606D02*
Y403544D01*
X343032Y381816D02*
X346969D01*
X345000Y379848D02*
Y383785D01*
X144478Y72441D02*
X148022D01*
X146250Y70669D02*
Y74213D01*
X106201Y277598D02*
Y281535D01*
X104232Y279567D02*
X108169D01*
X402407Y378460D02*
X406344D01*
X404375Y376491D02*
Y380428D01*
X226156Y201816D02*
X230094D01*
X228125Y199847D02*
Y203784D01*
X25591Y155669D02*
X29528D01*
X27559Y153700D02*
Y157638D01*
X25532Y39370D02*
X29469D01*
X27500Y37402D02*
Y41339D01*
X141733Y401575D02*
X145669D01*
X143701Y399606D02*
Y403544D01*
X187440Y274319D02*
Y278256D01*
X185471Y276287D02*
X189409D01*
X558600Y414231D02*
Y418168D01*
X556632Y416200D02*
X560569D01*
X245000Y391531D02*
Y395468D01*
X243032Y393500D02*
X246969D01*
X488616Y431800D02*
X490584D01*
X489600Y430816D02*
Y432784D01*
X466782Y339941D02*
X470718D01*
X468750Y337972D02*
Y341910D01*
X448032Y59941D02*
X451968D01*
X450000Y57973D02*
Y61910D01*
X583032Y418691D02*
X586969D01*
X585000Y416722D02*
Y420659D01*
X246063Y83169D02*
Y86713D01*
X244291Y84941D02*
X247835D01*
X86250Y191097D02*
Y195035D01*
X84281Y193066D02*
X88218D01*
X134282Y72441D02*
X138218D01*
X136250Y70473D02*
Y74410D01*
X500000Y379222D02*
Y383159D01*
X498032Y381191D02*
X501968D01*
X423657Y423691D02*
X427594D01*
X425625Y421723D02*
Y425660D01*
X244094Y39941D02*
X248031D01*
X246063Y37973D02*
Y41910D01*
X178750Y351097D02*
Y355034D01*
X176781Y353066D02*
X180719D01*
X43853Y306191D02*
X47397D01*
X45625Y304419D02*
Y307963D01*
X30000Y276723D02*
Y280660D01*
X28032Y278691D02*
X31969D01*
X371781Y291191D02*
X375718D01*
X373750Y289223D02*
Y293160D01*
X389282Y63691D02*
X393218D01*
X391250Y61722D02*
Y65659D01*
X374238Y86197D02*
X378175D01*
X376207Y84228D02*
Y88165D01*
X141875Y256722D02*
Y260660D01*
X139907Y258691D02*
X143843D01*
X141875Y274419D02*
Y277963D01*
X140103Y276191D02*
X143647D01*
X140103Y269316D02*
X143647D01*
X141875Y267544D02*
Y271088D01*
X195728Y354316D02*
X199272D01*
X197500Y352544D02*
Y356088D01*
X149478Y258066D02*
X153022D01*
X151250Y256294D02*
Y259838D01*
X471978Y392441D02*
X475522D01*
X473750Y390669D02*
Y394213D01*
X473228Y375566D02*
X476772D01*
X475000Y373794D02*
Y377338D01*
X481600Y397728D02*
Y401272D01*
X479828Y399500D02*
X483372D01*
X491300Y418128D02*
Y421672D01*
X489528Y419900D02*
X493072D01*
X491250Y412528D02*
Y416072D01*
X489478Y414300D02*
X493022D01*
X491352Y406628D02*
Y410172D01*
X489580Y408400D02*
X493124D01*
X494375Y354419D02*
Y357963D01*
X492603Y356191D02*
X496147D01*
X480000Y306294D02*
Y309838D01*
X478228Y308066D02*
X481772D01*
X454375Y313169D02*
Y316713D01*
X452603Y314941D02*
X456147D01*
X462342Y411916D02*
X465886D01*
X464114Y410144D02*
Y413688D01*
X472813Y426294D02*
Y429838D01*
X471041Y428066D02*
X474585D01*
X333750Y60669D02*
Y64213D01*
X331978Y62441D02*
X335522D01*
X345625Y49419D02*
Y52963D01*
X343853Y51191D02*
X347397D01*
X313125Y31919D02*
Y35463D01*
X311353Y33691D02*
X314897D01*
X230532Y278066D02*
X234469D01*
X232500Y276097D02*
Y280034D01*
X243125Y229222D02*
Y233159D01*
X241157Y231191D02*
X245093D01*
X223750Y229222D02*
Y233159D01*
X221781Y231191D02*
X225718D01*
X223750Y219419D02*
Y222963D01*
X221978Y221191D02*
X225522D01*
X212603Y230566D02*
X216147D01*
X214375Y228794D02*
Y232338D01*
X223750Y239419D02*
Y242963D01*
X221978Y241191D02*
X225522D01*
X474375Y267972D02*
Y271909D01*
X472406Y269941D02*
X476343D01*
X474375Y257544D02*
Y261088D01*
X472603Y259316D02*
X476147D01*
X474375Y251294D02*
Y254838D01*
X472603Y253066D02*
X476147D01*
X186978Y299316D02*
X190522D01*
X188750Y297544D02*
Y301088D01*
X201250Y236919D02*
Y240463D01*
X199478Y238691D02*
X203022D01*
X143853Y289941D02*
X147397D01*
X145625Y288169D02*
Y291713D01*
X243125Y239419D02*
Y242963D01*
X241353Y241191D02*
X244897D01*
X233750Y228794D02*
Y232338D01*
X231978Y230566D02*
X235522D01*
X243125Y219419D02*
Y222963D01*
X241353Y221191D02*
X244897D01*
X217407Y423691D02*
X221343D01*
X219375Y421723D02*
Y425660D01*
X230532Y306191D02*
X234469D01*
X232500Y304222D02*
Y308159D01*
X262500Y229222D02*
Y233159D01*
X260531Y231191D02*
X264469D01*
X262500Y239419D02*
Y242963D01*
X260728Y241191D02*
X264272D01*
X253125Y228794D02*
Y232338D01*
X251353Y230566D02*
X254897D01*
X262500Y219419D02*
Y222963D01*
X260728Y221191D02*
X264272D01*
X260625Y421723D02*
Y425660D01*
X258657Y423691D02*
X262594D01*
X253750Y334223D02*
Y338159D01*
X251782Y336191D02*
X255718D01*
X281875Y229222D02*
Y233159D01*
X279907Y231191D02*
X283843D01*
X281875Y239419D02*
Y242963D01*
X280103Y241191D02*
X283647D01*
X272500Y228794D02*
Y232338D01*
X270728Y230566D02*
X274272D01*
X281875Y219419D02*
Y222963D01*
X280103Y221191D02*
X283647D01*
X299906Y423691D02*
X303843D01*
X301875Y421723D02*
Y425660D01*
X328031Y306191D02*
X331968D01*
X330000Y304222D02*
Y308159D01*
X301250Y229222D02*
Y233159D01*
X299282Y231191D02*
X303219D01*
X301250Y239419D02*
Y242963D01*
X299478Y241191D02*
X303022D01*
X291875Y228794D02*
Y232338D01*
X290103Y230566D02*
X293647D01*
X301250Y219419D02*
Y222963D01*
X299478Y221191D02*
X303022D01*
X341157Y423691D02*
X345093D01*
X343125Y421723D02*
Y425660D01*
X328031Y277441D02*
X331968D01*
X330000Y275472D02*
Y279410D01*
X320625Y229222D02*
Y233159D01*
X318656Y231191D02*
X322593D01*
X320625Y239419D02*
Y242963D01*
X318853Y241191D02*
X322397D01*
X311250Y228794D02*
Y232338D01*
X309478Y230566D02*
X313022D01*
X320625Y219419D02*
Y222963D01*
X318853Y221191D02*
X322397D01*
X382406Y423691D02*
X386344D01*
X384375Y421723D02*
Y425660D01*
X340000Y229222D02*
Y233159D01*
X338032Y231191D02*
X341968D01*
X340000Y239419D02*
Y242963D01*
X338228Y241191D02*
X341772D01*
X330625Y228794D02*
Y232338D01*
X328853Y230566D02*
X332397D01*
X340000Y219419D02*
Y222963D01*
X338228Y221191D02*
X341772D01*
X292500Y320669D02*
Y324213D01*
X290728Y322441D02*
X294272D01*
X407229Y398528D02*
Y402072D01*
X405458Y400300D02*
X409001D01*
X401521Y360044D02*
Y363588D01*
X399749Y361816D02*
X403292D01*
X260000Y265669D02*
Y269213D01*
X258228Y267441D02*
X261772D01*
X296800Y264728D02*
Y268272D01*
X295028Y266500D02*
X298572D01*
X290728Y329316D02*
X294272D01*
X292500Y327544D02*
Y331088D01*
X303750Y279419D02*
Y282963D01*
X301978Y281191D02*
X305522D01*
X389375Y320669D02*
Y324213D01*
X387603Y322441D02*
X391147D01*
X357500Y265669D02*
Y269213D01*
X355728Y267441D02*
X359272D01*
X394321Y264794D02*
Y268338D01*
X392549Y266566D02*
X396093D01*
X389375Y327544D02*
Y331088D01*
X387603Y329316D02*
X391147D01*
X401250Y279419D02*
Y282963D01*
X399478Y281191D02*
X403022D01*
X543928Y414557D02*
X547472D01*
X545700Y412785D02*
Y416329D01*
X498750Y264419D02*
Y267963D01*
X496978Y266191D02*
X500522D01*
X532188Y316919D02*
Y320463D01*
X530416Y318691D02*
X533960D01*
X541875Y404419D02*
Y407963D01*
X540103Y406191D02*
X543647D01*
X550000Y351294D02*
Y354838D01*
X548228Y353066D02*
X551772D01*
X540000Y353794D02*
Y357338D01*
X538228Y355566D02*
X541772D01*
X481875Y297544D02*
Y301088D01*
X480103Y299316D02*
X483647D01*
X481875Y289419D02*
Y292963D01*
X480103Y291191D02*
X483647D01*
X481875Y281294D02*
Y284838D01*
X480103Y283066D02*
X483647D01*
X525103Y419941D02*
X528647D01*
X526875Y418169D02*
Y421713D01*
X533750Y418169D02*
Y421713D01*
X531978Y419941D02*
X535522D01*
X539375Y414222D02*
Y418159D01*
X537406Y416191D02*
X541343D01*
X549128Y414566D02*
X552672D01*
X550900Y412794D02*
Y416338D01*
X553656Y404419D02*
Y407963D01*
X551884Y406191D02*
X555428D01*
X541875Y398169D02*
Y401713D01*
X540103Y399941D02*
X543647D01*
X553754Y398228D02*
Y401772D01*
X551983Y400000D02*
X555526D01*
X112500Y76919D02*
Y80463D01*
X110728Y78691D02*
X114272D01*
X55000Y80669D02*
Y84213D01*
X53228Y82441D02*
X56772D01*
X110103Y156191D02*
X113647D01*
X111875Y154419D02*
Y157963D01*
X127603Y106816D02*
X131147D01*
X129375Y105044D02*
Y108588D01*
X56875Y145044D02*
Y148588D01*
X55103Y146816D02*
X58647D01*
X124478Y128066D02*
X128022D01*
X126250Y126294D02*
Y129838D01*
X343228Y153066D02*
X346772D01*
X345000Y151294D02*
Y154838D01*
X478853Y147441D02*
X482397D01*
X480625Y145669D02*
Y149213D01*
X449478Y219941D02*
X453022D01*
X451250Y218169D02*
Y221713D01*
X475625Y168794D02*
Y172338D01*
X473853Y170566D02*
X477397D01*
X407603Y94316D02*
X411147D01*
X409375Y92544D02*
Y96088D01*
X425000Y220044D02*
Y223588D01*
X423228Y221816D02*
X426772D01*
X344228Y201500D02*
X347772D01*
X346000Y199728D02*
Y203272D01*
X373228Y226816D02*
X376772D01*
X375000Y225044D02*
Y228588D01*
X393228Y97441D02*
X396772D01*
X395000Y95669D02*
Y99213D01*
X343228Y167441D02*
X346772D01*
X345000Y165669D02*
Y169213D01*
X347500Y125669D02*
Y129213D01*
X345728Y127441D02*
X349272D01*
X433228Y96191D02*
X436772D01*
X435000Y94419D02*
Y97963D01*
X469478Y193066D02*
X473022D01*
X471250Y191294D02*
Y194838D01*
X468228Y126816D02*
X471772D01*
X470000Y125044D02*
Y128588D01*
X406875Y220044D02*
Y223588D01*
X405103Y221816D02*
X408647D01*
X590625Y349848D02*
Y353784D01*
X588657Y351816D02*
X592593D01*
X534478Y241816D02*
X538022D01*
X536250Y240044D02*
Y243588D01*
X525728Y241816D02*
X529272D01*
X527500Y240044D02*
Y243588D01*
X548228Y194941D02*
X551772D01*
X550000Y193169D02*
Y196713D01*
X597500Y163169D02*
Y166713D01*
X595728Y164941D02*
X599272D01*
X185103Y235566D02*
X188647D01*
X186875Y233794D02*
Y237338D01*
X142603Y245566D02*
X146147D01*
X144375Y243794D02*
Y247338D01*
X205000Y118794D02*
Y122338D01*
X203228Y120566D02*
X206772D01*
X205000Y124419D02*
Y127963D01*
X203228Y126191D02*
X206772D01*
X12603Y127441D02*
X16147D01*
X14375Y125669D02*
Y129213D01*
X45000Y128794D02*
Y132338D01*
X43228Y130566D02*
X46772D01*
X478853Y191191D02*
X482397D01*
X480625Y189419D02*
Y192963D01*
X380103Y222441D02*
X383647D01*
X381875Y220669D02*
Y224213D01*
X70000Y150669D02*
Y154213D01*
X68228Y152441D02*
X71772D01*
X47500Y90669D02*
Y94213D01*
X45728Y92441D02*
X49272D01*
X119375Y68169D02*
Y71713D01*
X117603Y69941D02*
X121147D01*
X431250Y83794D02*
Y87338D01*
X429478Y85566D02*
X433022D01*
X528125Y168794D02*
Y172338D01*
X526353Y170566D02*
X529897D01*
X509375Y105669D02*
Y109213D01*
X507603Y107441D02*
X511147D01*
X489478Y111816D02*
X493022D01*
X491250Y110044D02*
Y113588D01*
X528750Y105669D02*
Y109213D01*
X526978Y107441D02*
X530522D01*
X531875Y96919D02*
Y100463D01*
X530103Y98691D02*
X533647D01*
X585728Y131191D02*
X589272D01*
X587500Y129419D02*
Y132963D01*
X136978Y102128D02*
X140522D01*
X138750Y100356D02*
Y103900D01*
X450000Y407544D02*
Y411088D01*
X448228Y409316D02*
X451772D01*
X450000Y413169D02*
Y416713D01*
X448228Y414941D02*
X451772D01*
X459478Y301816D02*
X463022D01*
X461250Y300044D02*
Y303588D01*
X365764Y76985D02*
Y80528D01*
X363993Y78757D02*
X367536D01*
X365764Y91985D02*
Y95528D01*
X363993Y93757D02*
X367536D01*
X436250Y63794D02*
Y67338D01*
X434478Y65566D02*
X438022D01*
X406250Y61294D02*
Y64838D01*
X404478Y63066D02*
X408022D01*
X135728Y142441D02*
X139272D01*
X137500Y140669D02*
Y144213D01*
X146978Y132400D02*
X150522D01*
X148750Y130628D02*
Y134172D01*
X391875Y47544D02*
Y51088D01*
X390103Y49316D02*
X393647D01*
X449375Y52544D02*
Y56088D01*
X447603Y54316D02*
X451147D01*
X449375Y63794D02*
Y67338D01*
X447603Y65566D02*
X451147D01*
X244291Y183066D02*
X247835D01*
X246063Y181294D02*
Y184838D01*
X244291Y176816D02*
X247835D01*
X246063Y175044D02*
Y178588D01*
Y76919D02*
Y80463D01*
X244291Y78691D02*
X247835D01*
X246063Y70669D02*
Y74213D01*
X244291Y72441D02*
X247835D01*
X440944Y15748D02*
X444881D01*
X442913Y13780D02*
Y17717D01*
X454375Y26919D02*
Y30463D01*
X452603Y28691D02*
X456147D01*
X470000Y26919D02*
Y30463D01*
X468228Y28691D02*
X471772D01*
X597500Y156294D02*
Y159838D01*
X595728Y158066D02*
X599272D01*
X550000Y357544D02*
Y361088D01*
X548228Y359316D02*
X551772D01*
X407229Y392328D02*
Y395872D01*
X405458Y394100D02*
X409001D01*
X391875Y53169D02*
Y56713D01*
X390103Y54941D02*
X393647D01*
X55625Y208169D02*
Y211713D01*
X53853Y209941D02*
X57397D01*
X123853Y216816D02*
X127397D01*
X125625Y215044D02*
Y218588D01*
X123853Y210566D02*
X127397D01*
X125625Y208794D02*
Y212338D01*
X611250Y354222D02*
Y358159D01*
X609281Y356191D02*
X613218D01*
X233750Y181294D02*
Y184838D01*
X231978Y183066D02*
X235522D01*
X233750Y175044D02*
Y178588D01*
X231978Y176816D02*
X235522D01*
X256353Y78691D02*
X259897D01*
X258125Y76919D02*
Y80463D01*
X256353Y72441D02*
X259897D01*
X258125Y70669D02*
Y74213D01*
X178125Y344419D02*
Y347963D01*
X176353Y346191D02*
X179897D01*
X246250Y8169D02*
Y11713D01*
X244478Y9941D02*
X248022D01*
X245625Y166294D02*
Y169838D01*
X243853Y168066D02*
X247397D01*
X226128Y407228D02*
Y410772D01*
X224356Y409000D02*
X227900D01*
X115625Y326723D02*
Y330660D01*
X113656Y328691D02*
X117594D01*
X55625Y220669D02*
Y224213D01*
X53853Y222441D02*
X57397D01*
X55625Y214419D02*
Y217963D01*
X53853Y216191D02*
X57397D01*
X219282Y84941D02*
X223218D01*
X221250Y82973D02*
Y86910D01*
X265625Y199847D02*
Y203784D01*
X263656Y201816D02*
X267594D01*
X573125Y349848D02*
Y353784D01*
X571157Y351816D02*
X575094D01*
X581875Y349848D02*
Y353784D01*
X579907Y351816D02*
X583844D01*
X115625Y335472D02*
Y339409D01*
X113656Y337441D02*
X117594D01*
X115625Y344222D02*
Y348160D01*
X113656Y346191D02*
X117594D01*
X454375Y364419D02*
Y367963D01*
X452603Y366191D02*
X456147D01*
X472500Y364419D02*
Y367963D01*
X470728Y366191D02*
X474272D01*
X510625Y166294D02*
Y169838D01*
X508853Y168066D02*
X512397D01*
X244291Y189316D02*
X247835D01*
X246063Y187544D02*
Y191088D01*
X256353Y84941D02*
X259897D01*
X258125Y83169D02*
Y86713D01*
X233750Y187544D02*
Y191088D01*
X231978Y189316D02*
X235522D01*
X326978Y135172D02*
X330522D01*
X328750Y133401D02*
Y136944D01*
X98853Y74941D02*
X102397D01*
X100625Y73169D02*
Y76713D01*
X391875Y71919D02*
Y75463D01*
X390103Y73691D02*
X393647D01*
X462500Y106294D02*
Y109838D01*
X460728Y108066D02*
X464272D01*
X462500Y100044D02*
Y103588D01*
X460728Y101816D02*
X464272D01*
X218228Y128691D02*
X221772D01*
X220000Y126919D02*
Y130463D01*
X119375Y58794D02*
Y62338D01*
X117603Y60566D02*
X121147D01*
X87500Y150669D02*
Y154213D01*
X85728Y152441D02*
X89272D01*
X478853Y125566D02*
X482397D01*
X480625Y123794D02*
Y127338D01*
X429375Y366294D02*
Y369838D01*
X427603Y368066D02*
X431147D01*
X419842Y310928D02*
Y314472D01*
X418071Y312700D02*
X421614D01*
X431875Y384223D02*
Y388159D01*
X429907Y386191D02*
X433844D01*
X206031Y348500D02*
X209968D01*
X208000Y346532D02*
Y350468D01*
X206031Y301500D02*
X209968D01*
X208000Y299532D02*
Y303468D01*
X267032Y360500D02*
X270969D01*
X269000Y358531D02*
Y362469D01*
X383657Y367441D02*
X387594D01*
X385625Y365473D02*
Y369409D01*
X343032Y364316D02*
X346969D01*
X345000Y362348D02*
Y366284D01*
X178125Y358794D02*
Y362338D01*
X176353Y360566D02*
X179897D01*
X190500Y416532D02*
Y420469D01*
X188531Y418500D02*
X192469D01*
X398228Y433691D02*
X401772D01*
X400000Y431919D02*
Y435463D01*
X286157Y201191D02*
X290093D01*
X288125Y199223D02*
Y203159D01*
X296353Y201191D02*
X299897D01*
X298125Y199419D02*
Y202963D01*
X216250Y161919D02*
Y165463D01*
X214478Y163691D02*
X218022D01*
X451353Y386191D02*
X454897D01*
X453125Y384419D02*
Y387963D01*
X435625Y360669D02*
Y364213D01*
X433853Y362441D02*
X437397D01*
X187500Y422972D02*
Y426909D01*
X185531Y424941D02*
X189469D01*
X235000Y431919D02*
Y435463D01*
X233228Y433691D02*
X236772D01*
X276250Y431919D02*
Y435463D01*
X274478Y433691D02*
X278022D01*
X317500Y431919D02*
Y435463D01*
X315728Y433691D02*
X319272D01*
X356978D02*
X360522D01*
X358750Y431919D02*
Y435463D01*
X439166Y433691D02*
X442710D01*
X440938Y431919D02*
Y435463D01*
X204478Y153066D02*
X208022D01*
X206250Y151294D02*
Y154838D01*
X216250Y168169D02*
Y171713D01*
X214478Y169941D02*
X218022D01*
X214478Y32441D02*
X218022D01*
X216250Y30669D02*
Y34213D01*
X562603Y403066D02*
X566147D01*
X564375Y401294D02*
Y404838D01*
X183071Y155669D02*
X187007D01*
X185039Y153700D02*
Y157638D01*
X100393Y401575D02*
X104331D01*
X102362Y399606D02*
Y403544D01*
X45728Y358691D02*
X49272D01*
X47500Y356919D02*
Y360463D01*
X51353Y358691D02*
X54897D01*
X53125Y356919D02*
Y360463D01*
X38125Y360044D02*
Y363588D01*
X36353Y361816D02*
X39897D01*
X38125Y354419D02*
Y357963D01*
X36353Y356191D02*
X39897D01*
X45000Y250669D02*
Y254213D01*
X43228Y252441D02*
X46772D01*
X35625Y316919D02*
Y320463D01*
X33853Y318691D02*
X37397D01*
X56978Y334316D02*
X60522D01*
X58750Y332544D02*
Y336088D01*
X47500Y316919D02*
Y320463D01*
X45728Y318691D02*
X49272D01*
X146978Y153066D02*
X150522D01*
X148750Y151294D02*
Y154838D01*
X146978Y164941D02*
X150522D01*
X148750Y163169D02*
Y166713D01*
X158969Y220566D02*
X162907D01*
X160938Y218598D02*
Y222534D01*
X545532Y374710D02*
X549469D01*
X547500Y372741D02*
Y376678D01*
X515531Y293691D02*
X519468D01*
X517500Y291722D02*
Y295659D01*
X497406Y334941D02*
X501343D01*
X499375Y332973D02*
Y336910D01*
X191500Y254222D02*
Y258159D01*
X189532Y256191D02*
X193468D01*
X160576Y291823D02*
X164513D01*
X162545Y289854D02*
Y293791D01*
X162488Y271840D02*
Y275777D01*
X160519Y273808D02*
X164456D01*
X274282Y291191D02*
X278219D01*
X276250Y289223D02*
Y293160D01*
X457407Y424316D02*
X461343D01*
X459375Y422347D02*
Y426285D01*
X433032Y286816D02*
X436969D01*
X435000Y284847D02*
Y288785D01*
X419281Y64316D02*
X423218D01*
X421250Y62348D02*
Y66285D01*
X244094Y138691D02*
X248031D01*
X246063Y136723D02*
Y140659D01*
X585625Y187972D02*
Y191910D01*
X583657Y189941D02*
X587594D01*
X240625Y431722D02*
Y435660D01*
X238656Y433691D02*
X242594D01*
X364375Y431722D02*
Y435660D01*
X362406Y433691D02*
X366343D01*
X281875Y431722D02*
Y435660D01*
X279907Y433691D02*
X283843D01*
X405625Y431722D02*
Y435660D01*
X403656Y433691D02*
X407593D01*
X323125Y431722D02*
Y435660D01*
X321157Y433691D02*
X325094D01*
D17*
X544592Y32288D02*
X558371Y46068D01*
X575875D01*
Y77564D01*
X558371D02*
X575875D01*
X544592Y91344D02*
X558371Y77564D01*
X509159Y91344D02*
X544592D01*
X495379Y77564D02*
X509159Y91344D01*
X477875Y77564D02*
X495379D01*
X477875Y46068D02*
Y77564D01*
Y46068D02*
X495379D01*
X509159Y32288D01*
X544592D01*
X526875Y59847D02*
Y63784D01*
X524906Y61816D02*
X528843D01*
X573376Y278465D02*
X589124D01*
X581250Y272559D02*
Y284370D01*
Y270591D02*
Y272559D01*
Y284370D02*
Y286339D01*
D173*
X131663Y116452D02*
Y139680D01*
Y116452D02*
X145837D01*
X131663Y139680D02*
X145837D01*
Y116452D02*
Y139680D01*
X37712Y415423D02*
Y431959D01*
X23538Y415423D02*
Y431959D01*
X37712D01*
X23538Y415423D02*
X37712D01*
X494099Y110832D02*
Y162800D01*
Y110832D02*
X584651D01*
X494099Y162800D02*
X584651D01*
Y110832D02*
Y162800D01*
X462687Y106629D02*
Y214503D01*
X354813Y106629D02*
Y214503D01*
X462687D01*
X354813Y106629D02*
X462687D01*
X54498Y81314D02*
Y149818D01*
Y81314D02*
X123002D01*
X54498Y149818D02*
X123002D01*
Y81314D02*
Y149818D01*
X55841Y323430D02*
Y350202D01*
X20409D02*
X55841D01*
X20409Y323430D02*
X55841D01*
X20409D02*
Y350202D01*
X523110Y426112D02*
Y441270D01*
Y426112D02*
X536890D01*
X523110Y441270D02*
X536890D01*
Y426112D02*
Y441270D01*
X169577Y308209D02*
Y341673D01*
Y308209D02*
X197923D01*
X169577Y341673D02*
X197923D01*
Y308209D02*
Y341673D01*
X337471Y319656D02*
Y352726D01*
Y319656D02*
X365030D01*
X337471Y352726D02*
X365030D01*
Y319656D02*
Y352726D01*
X200051Y241526D02*
Y270856D01*
Y241526D02*
X218949D01*
X200051Y270856D02*
X218949D01*
Y241526D02*
Y270856D01*
X311157Y38061D02*
Y59321D01*
Y38061D02*
X340093D01*
X311157Y59321D02*
X340093D01*
Y38061D02*
Y59321D01*
X450221Y425123D02*
Y438509D01*
X443529Y425123D02*
Y438509D01*
X450221D01*
X443529Y425123D02*
X450221D01*
X470126Y5126D02*
Y26386D01*
Y5126D02*
X592882D01*
X470126Y26386D02*
X592882D01*
Y5126D02*
Y26386D01*
X567658Y381555D02*
Y408327D01*
Y381555D02*
X587343D01*
X567658Y408327D02*
X587343D01*
Y381555D02*
Y408327D01*
X333465Y390551D02*
Y412599D01*
X375197Y390551D02*
Y412599D01*
X333465Y390551D02*
X375197D01*
X333465Y412599D02*
X375197D01*
X322362Y373351D02*
Y390281D01*
Y373351D02*
X367638D01*
X322362Y390281D02*
X367638D01*
Y373351D02*
Y390281D01*
X143494Y67323D02*
Y77559D01*
Y67323D02*
X149006D01*
X143494Y77559D02*
X149006D01*
Y67323D02*
Y77559D01*
X86122Y234480D02*
X126091D01*
Y324449D01*
X86122D02*
X126091D01*
X86122Y234480D02*
Y324449D01*
X394926Y368617D02*
Y387515D01*
Y368617D02*
X413824D01*
X394926Y387515D02*
X413824D01*
Y368617D02*
Y387515D01*
X212220Y195911D02*
Y207721D01*
Y195911D02*
X244030D01*
X212220Y207721D02*
X244030D01*
Y195911D02*
Y207721D01*
X16535Y114724D02*
Y196614D01*
Y114724D02*
X38583D01*
X16535Y196614D02*
X38583D01*
Y114724D02*
Y196614D01*
X16472Y70433D02*
X16500Y8268D01*
X38500D01*
X16472Y70433D02*
X38524D01*
X38500Y8268D02*
X38528Y70370D01*
X122835Y390551D02*
Y412599D01*
Y390551D02*
X164567D01*
X122835Y412599D02*
X164567D01*
Y390551D02*
Y412599D01*
X176534Y282193D02*
X198345D01*
X176534Y270382D02*
X198345D01*
Y282193D01*
X176534Y270382D02*
Y282193D01*
X555549Y410176D02*
Y422224D01*
Y410176D02*
X561651D01*
Y422224D01*
X555549D02*
X561651D01*
X209469Y370961D02*
Y416039D01*
Y370961D02*
X280532D01*
X209469Y416039D02*
X280532D01*
Y370961D02*
Y416039D01*
X483891Y425698D02*
Y437902D01*
Y425698D02*
X495309D01*
X483891Y437902D02*
X495309D01*
Y425698D02*
Y437902D01*
X447687Y317992D02*
Y361890D01*
Y317992D02*
X489813D01*
X447687Y361890D02*
X489813D01*
Y317992D02*
Y361890D01*
X441732Y57087D02*
Y62795D01*
Y57087D02*
X458268D01*
X441732Y62795D02*
X458268D01*
Y57087D02*
Y62795D01*
X570236Y411998D02*
Y425384D01*
Y411998D02*
X599764D01*
X570236Y425384D02*
X599764D01*
Y411998D02*
Y425384D01*
X240945Y82185D02*
Y87697D01*
Y82185D02*
X251181D01*
X240945Y87697D02*
X251181D01*
Y82185D02*
Y87697D01*
X55344Y171413D02*
Y214720D01*
Y171413D02*
X117156D01*
X55344Y214720D02*
X117156D01*
Y171413D02*
Y214720D01*
X128671Y65551D02*
Y79331D01*
Y65551D02*
X143829D01*
X128671Y79331D02*
X143829D01*
Y65551D02*
Y79331D01*
X478346Y366821D02*
X521654D01*
X478346Y395561D02*
X521654D01*
Y366821D02*
Y395561D01*
X478346Y366821D02*
Y395561D01*
X413617Y416998D02*
Y430384D01*
Y416998D02*
X437633D01*
X413617Y430384D02*
X437633D01*
Y416998D02*
Y430384D01*
X260236Y13957D02*
Y65925D01*
X231890Y13957D02*
Y65925D01*
Y13957D02*
X260236D01*
X231890Y65925D02*
X260236D01*
X172057Y349129D02*
Y357003D01*
Y349129D02*
X185443D01*
X172057Y357003D02*
X185443D01*
Y349129D02*
Y357003D01*
X40310Y303238D02*
Y309144D01*
Y303238D02*
X50940D01*
X40310Y309144D02*
X50940D01*
Y303238D02*
Y309144D01*
X8347Y255266D02*
Y302116D01*
Y255266D02*
X51653D01*
X8347Y302116D02*
X51653D01*
Y255266D02*
Y302116D01*
X351703Y270128D02*
Y312254D01*
Y270128D02*
X395797D01*
X351703Y312254D02*
X395797D01*
Y270128D02*
Y312254D01*
X383376Y56801D02*
Y70581D01*
Y56801D02*
X399124D01*
X383376Y70581D02*
X399124D01*
Y56801D02*
Y70581D01*
X372073Y78716D02*
Y93677D01*
Y78716D02*
X380341D01*
X372073Y93677D02*
X380341D01*
Y78716D02*
Y93677D01*
X134985Y251112D02*
Y266270D01*
Y251112D02*
X148765D01*
X134985Y266270D02*
X148765D01*
Y251112D02*
Y266270D01*
X136757Y273435D02*
Y278947D01*
Y273435D02*
X146993D01*
X136757Y278947D02*
X146993D01*
Y273435D02*
Y278947D01*
X136757Y266560D02*
Y272072D01*
Y266560D02*
X146993D01*
X136757Y272072D02*
X146993D01*
Y266560D02*
Y272072D01*
X194744Y349198D02*
Y359434D01*
Y349198D02*
X200256D01*
X194744Y359434D02*
X200256D01*
Y349198D02*
Y359434D01*
X148494Y252948D02*
Y263184D01*
Y252948D02*
X154006D01*
X148494Y263184D02*
X154006D01*
Y252948D02*
Y263184D01*
X476703Y387126D02*
Y397756D01*
X470797Y387126D02*
Y397756D01*
X476703D01*
X470797Y387126D02*
X476703D01*
X472047Y370251D02*
Y380881D01*
X477953Y370251D02*
Y380881D01*
X472047Y370251D02*
X477953D01*
X472047Y380881D02*
X477953D01*
X476285Y402453D02*
X486915D01*
X476285Y396547D02*
X486915D01*
X476285D02*
Y402453D01*
X486915Y396547D02*
Y402453D01*
X486182Y417144D02*
Y422656D01*
Y417144D02*
X496418D01*
X486182Y422656D02*
X496418D01*
Y417144D02*
Y422656D01*
X486132Y411544D02*
Y417056D01*
Y411544D02*
X496368D01*
X486132Y417056D02*
X496368D01*
Y411544D02*
Y417056D01*
X486037Y405447D02*
Y411353D01*
Y405447D02*
X496667D01*
X486037Y411353D02*
X496667D01*
Y405447D02*
Y411353D01*
X491619Y351073D02*
Y361309D01*
Y351073D02*
X497131D01*
X491619Y361309D02*
X497131D01*
Y351073D02*
Y361309D01*
X474882Y305310D02*
Y310822D01*
Y305310D02*
X485118D01*
X474882Y310822D02*
X485118D01*
Y305310D02*
Y310822D01*
X449060Y317894D02*
X459690D01*
X449060Y311988D02*
X459690D01*
X449060D02*
Y317894D01*
X459690Y311988D02*
Y317894D01*
X461358Y406798D02*
Y417034D01*
Y406798D02*
X466870D01*
X461358Y417034D02*
X466870D01*
Y406798D02*
Y417034D01*
X467695Y425310D02*
Y430822D01*
Y425310D02*
X477931D01*
X467695Y430822D02*
X477931D01*
Y425310D02*
Y430822D01*
X328435Y65394D02*
X339065D01*
X328435Y59488D02*
X339065D01*
X328435D02*
Y65394D01*
X339065Y59488D02*
Y65394D01*
X340507Y48435D02*
Y53947D01*
Y48435D02*
X350743D01*
X340507Y53947D02*
X350743D01*
Y48435D02*
Y53947D01*
X308007Y30935D02*
Y36447D01*
Y30935D02*
X318243D01*
X308007Y36447D02*
X318243D01*
Y30935D02*
Y36447D01*
X215965Y264286D02*
Y291845D01*
Y264286D02*
X249035D01*
X215965Y291845D02*
X249035D01*
Y264286D02*
Y291845D01*
X236235Y223612D02*
Y238770D01*
Y223612D02*
X250015D01*
X236235Y238770D02*
X250015D01*
Y223612D02*
Y238770D01*
X216860Y223612D02*
Y238770D01*
Y223612D02*
X230640D01*
X216860Y238770D02*
X230640D01*
Y223612D02*
Y238770D01*
X218632Y218435D02*
Y223947D01*
Y218435D02*
X228868D01*
X218632Y223947D02*
X228868D01*
Y218435D02*
Y223947D01*
X211619Y225448D02*
Y235684D01*
Y225448D02*
X217131D01*
X211619Y235684D02*
X217131D01*
Y225448D02*
Y235684D01*
X218632Y238435D02*
Y243947D01*
Y238435D02*
X228868D01*
X218632Y243947D02*
X228868D01*
Y238435D02*
Y243947D01*
X467485Y262362D02*
Y277520D01*
Y262362D02*
X481265D01*
X467485Y277520D02*
X481265D01*
Y262362D02*
Y277520D01*
X469257Y256560D02*
Y262072D01*
Y256560D02*
X479493D01*
X469257Y262072D02*
X479493D01*
Y256560D02*
Y262072D01*
X469257Y250310D02*
Y255822D01*
Y250310D02*
X479493D01*
X469257Y255822D02*
X479493D01*
Y250310D02*
Y255822D01*
X185994Y294198D02*
Y304434D01*
Y294198D02*
X191506D01*
X185994Y304434D02*
X191506D01*
Y294198D02*
Y304434D01*
X196132Y235935D02*
Y241447D01*
Y235935D02*
X206368D01*
X196132Y241447D02*
X206368D01*
Y235935D02*
Y241447D01*
X142869Y284823D02*
Y295059D01*
Y284823D02*
X148381D01*
X142869Y295059D02*
X148381D01*
Y284823D02*
Y295059D01*
X238007Y238435D02*
Y243947D01*
Y238435D02*
X248243D01*
X238007Y243947D02*
X248243D01*
Y238435D02*
Y243947D01*
X230994Y225448D02*
Y235684D01*
Y225448D02*
X236506D01*
X230994Y235684D02*
X236506D01*
Y225448D02*
Y235684D01*
X238007Y218435D02*
Y223947D01*
Y218435D02*
X248243D01*
X238007Y223947D02*
X248243D01*
Y218435D02*
Y223947D01*
X207367Y416998D02*
Y430384D01*
Y416998D02*
X231383D01*
X207367Y430384D02*
X231383D01*
Y416998D02*
Y430384D01*
X215965Y292411D02*
Y319970D01*
Y292411D02*
X249035D01*
X215965Y319970D02*
X249035D01*
Y292411D02*
Y319970D01*
X255610Y223612D02*
Y238770D01*
Y223612D02*
X269390D01*
X255610Y238770D02*
X269390D01*
Y223612D02*
Y238770D01*
X257382Y238435D02*
Y243947D01*
Y238435D02*
X267618D01*
X257382Y243947D02*
X267618D01*
Y238435D02*
Y243947D01*
X250369Y225448D02*
Y235684D01*
Y225448D02*
X255881D01*
X250369Y235684D02*
X255881D01*
Y225448D02*
Y235684D01*
X257382Y218435D02*
Y223947D01*
Y218435D02*
X267618D01*
X257382Y223947D02*
X267618D01*
Y218435D02*
Y223947D01*
X272633Y416998D02*
Y430384D01*
X248617D02*
X272633D01*
X248617Y416998D02*
X272633D01*
X248617D02*
Y430384D01*
X239970Y319656D02*
Y352726D01*
Y319656D02*
X267530D01*
X239970Y352726D02*
X267530D01*
Y319656D02*
Y352726D01*
X274985Y223612D02*
Y238770D01*
Y223612D02*
X288765D01*
X274985Y238770D02*
X288765D01*
Y223612D02*
Y238770D01*
X276757Y238435D02*
Y243947D01*
Y238435D02*
X286993D01*
X276757Y243947D02*
X286993D01*
Y238435D02*
Y243947D01*
X269744Y225448D02*
Y235684D01*
Y225448D02*
X275256D01*
X269744Y235684D02*
X275256D01*
Y225448D02*
Y235684D01*
X276757Y218435D02*
Y223947D01*
Y218435D02*
X286993D01*
X276757Y223947D02*
X286993D01*
Y218435D02*
Y223947D01*
X289867Y416998D02*
Y430384D01*
Y416998D02*
X313883D01*
X289867Y430384D02*
X313883D01*
Y416998D02*
Y430384D01*
X313465Y292411D02*
Y319970D01*
Y292411D02*
X346535D01*
X313465Y319970D02*
X346535D01*
Y292411D02*
Y319970D01*
X294360Y223612D02*
Y238770D01*
Y223612D02*
X308140D01*
X294360Y238770D02*
X308140D01*
Y223612D02*
Y238770D01*
X296132Y238435D02*
Y243947D01*
Y238435D02*
X306368D01*
X296132Y243947D02*
X306368D01*
Y238435D02*
Y243947D01*
X289119Y225448D02*
Y235684D01*
Y225448D02*
X294631D01*
X289119Y235684D02*
X294631D01*
Y225448D02*
Y235684D01*
X296132Y218435D02*
Y223947D01*
Y218435D02*
X306368D01*
X296132Y223947D02*
X306368D01*
Y218435D02*
Y223947D01*
X331117Y416998D02*
Y430384D01*
Y416998D02*
X355133D01*
X331117Y430384D02*
X355133D01*
Y416998D02*
Y430384D01*
X313465Y263662D02*
Y291220D01*
Y263662D02*
X346535D01*
X313465Y291220D02*
X346535D01*
Y263662D02*
Y291220D01*
X313735Y223612D02*
Y238770D01*
Y223612D02*
X327515D01*
X313735Y238770D02*
X327515D01*
Y223612D02*
Y238770D01*
X315507Y238435D02*
Y243947D01*
Y238435D02*
X325743D01*
X315507Y243947D02*
X325743D01*
Y238435D02*
Y243947D01*
X308494Y225448D02*
Y235684D01*
Y225448D02*
X314006D01*
X308494Y235684D02*
X314006D01*
Y225448D02*
Y235684D01*
X315507Y218435D02*
Y223947D01*
Y218435D02*
X325743D01*
X315507Y223947D02*
X325743D01*
Y218435D02*
Y223947D01*
X372367Y416998D02*
Y430384D01*
Y416998D02*
X396383D01*
X372367Y430384D02*
X396383D01*
Y416998D02*
Y430384D01*
X333110Y223612D02*
Y238770D01*
Y223612D02*
X346890D01*
X333110Y238770D02*
X346890D01*
Y223612D02*
Y238770D01*
X334882Y238435D02*
Y243947D01*
Y238435D02*
X345118D01*
X334882Y243947D02*
X345118D01*
Y238435D02*
Y243947D01*
X327869Y225448D02*
Y235684D01*
Y225448D02*
X333381D01*
X327869Y235684D02*
X333381D01*
Y225448D02*
Y235684D01*
X334882Y218435D02*
Y223947D01*
Y218435D02*
X345118D01*
X334882Y223947D02*
X345118D01*
Y218435D02*
Y223947D01*
X287382Y319685D02*
Y325197D01*
Y319685D02*
X297618D01*
X287382Y325197D02*
X297618D01*
Y319685D02*
Y325197D01*
X401914Y403253D02*
X412544D01*
X401914Y397347D02*
X412544D01*
X401914D02*
Y403253D01*
X412544Y397347D02*
Y403253D01*
X396206Y358863D02*
X406836D01*
X396206Y364769D02*
X406836D01*
Y358863D02*
Y364769D01*
X396206Y358863D02*
Y364769D01*
X254685Y264488D02*
X265315D01*
X254685Y270394D02*
X265315D01*
Y264488D02*
Y270394D01*
X254685Y264488D02*
Y270394D01*
X291485Y263547D02*
Y269453D01*
Y263547D02*
X302115D01*
X291485Y269453D02*
X302115D01*
Y263547D02*
Y269453D01*
X287382Y326560D02*
Y332072D01*
Y326560D02*
X297618D01*
X287382Y332072D02*
X297618D01*
Y326560D02*
Y332072D01*
X300994Y276073D02*
Y286309D01*
Y276073D02*
X306506D01*
X300994Y286309D02*
X306506D01*
Y276073D02*
Y286309D01*
X384257Y319685D02*
Y325197D01*
Y319685D02*
X394493D01*
X384257Y325197D02*
X394493D01*
Y319685D02*
Y325197D01*
X352185Y264488D02*
X362815D01*
X352185Y270394D02*
X362815D01*
Y264488D02*
Y270394D01*
X352185Y264488D02*
Y270394D01*
X389006Y263613D02*
X399636D01*
X389006Y269519D02*
X399636D01*
Y263613D02*
Y269519D01*
X389006Y263613D02*
Y269519D01*
X384257Y326560D02*
Y332072D01*
Y326560D02*
X394493D01*
X384257Y332072D02*
X394493D01*
Y326560D02*
Y332072D01*
X398494Y276073D02*
Y286309D01*
Y276073D02*
X404006D01*
X398494Y286309D02*
X404006D01*
Y276073D02*
Y286309D01*
X542944Y409439D02*
Y419675D01*
Y409439D02*
X548456D01*
X542944Y419675D02*
X548456D01*
Y409439D02*
Y419675D01*
X493435Y269144D02*
X504065D01*
X493435Y263238D02*
X504065D01*
X493435D02*
Y269144D01*
X504065Y263238D02*
Y269144D01*
X526873Y315738D02*
X537503D01*
X526873Y321644D02*
X537503D01*
Y315738D02*
Y321644D01*
X526873Y315738D02*
Y321644D01*
X536757Y403435D02*
Y408947D01*
Y403435D02*
X546993D01*
X536757Y408947D02*
X546993D01*
Y403435D02*
Y408947D01*
X544685Y356019D02*
X555315D01*
X544685Y350113D02*
X555315D01*
X544685D02*
Y356019D01*
X555315Y350113D02*
Y356019D01*
X537047Y350251D02*
Y360881D01*
Y350251D02*
X542953D01*
X537047Y360881D02*
X542953D01*
Y350251D02*
Y360881D01*
X476757Y296560D02*
Y302072D01*
Y296560D02*
X486993D01*
X476757Y302072D02*
X486993D01*
Y296560D02*
Y302072D01*
X476757Y288435D02*
Y293947D01*
Y288435D02*
X486993D01*
X476757Y293947D02*
X486993D01*
Y288435D02*
Y293947D01*
X476757Y280310D02*
Y285822D01*
Y280310D02*
X486993D01*
X476757Y285822D02*
X486993D01*
Y280310D02*
Y285822D01*
X524119Y414823D02*
Y425059D01*
Y414823D02*
X529631D01*
X524119Y425059D02*
X529631D01*
Y414823D02*
Y425059D01*
X530994Y414823D02*
Y425059D01*
Y414823D02*
X536506D01*
X530994Y425059D02*
X536506D01*
Y414823D02*
Y425059D01*
X536324Y410167D02*
Y422215D01*
Y410167D02*
X542426D01*
Y422215D01*
X536324D02*
X542426D01*
X548144Y409448D02*
Y419684D01*
Y409448D02*
X553656D01*
X548144Y419684D02*
X553656D01*
Y409448D02*
Y419684D01*
X548538Y403435D02*
Y408947D01*
Y403435D02*
X558774D01*
X548538Y408947D02*
X558774D01*
Y403435D02*
Y408947D01*
X536560Y402894D02*
X547190D01*
X536560Y396988D02*
X547190D01*
X536560D02*
Y402894D01*
X547190Y396988D02*
Y402894D01*
X548439Y397047D02*
Y402953D01*
Y397047D02*
X559069D01*
X548439Y402953D02*
X559069D01*
Y397047D02*
Y402953D01*
X107185Y81644D02*
X117815D01*
X107185Y75738D02*
X117815D01*
X107185D02*
Y81644D01*
X117815Y75738D02*
Y81644D01*
X49685Y85394D02*
X60315D01*
X49685Y79488D02*
X60315D01*
X49685D02*
Y85394D01*
X60315Y79488D02*
Y85394D01*
X108922Y150876D02*
Y161506D01*
X114828Y150876D02*
Y161506D01*
X108922Y150876D02*
X114828D01*
X108922Y161506D02*
X114828D01*
X126422Y101501D02*
Y112131D01*
X132328Y101501D02*
Y112131D01*
X126422Y101501D02*
X132328D01*
X126422Y112131D02*
X132328D01*
X51560Y149769D02*
X62190D01*
X51560Y143863D02*
X62190D01*
X51560D02*
Y149769D01*
X62190Y143863D02*
Y149769D01*
X123297Y122751D02*
Y133381D01*
X129203Y122751D02*
Y133381D01*
X123297Y122751D02*
X129203D01*
X123297Y133381D02*
X129203D01*
X347953Y147751D02*
Y158381D01*
X342047Y147751D02*
Y158381D01*
X347953D01*
X342047Y147751D02*
X347953D01*
X477672Y142126D02*
Y152756D01*
X483578Y142126D02*
Y152756D01*
X477672Y142126D02*
X483578D01*
X477672Y152756D02*
X483578D01*
X448297Y214626D02*
Y225256D01*
X454203Y214626D02*
Y225256D01*
X448297Y214626D02*
X454203D01*
X448297Y225256D02*
X454203D01*
X470310Y167613D02*
X480940D01*
X470310Y173519D02*
X480940D01*
Y167613D02*
Y173519D01*
X470310Y167613D02*
Y173519D01*
X406422Y89001D02*
Y99631D01*
X412328Y89001D02*
Y99631D01*
X406422Y89001D02*
X412328D01*
X406422Y99631D02*
X412328D01*
X419685Y218863D02*
X430315D01*
X419685Y224769D02*
X430315D01*
Y218863D02*
Y224769D01*
X419685Y218863D02*
Y224769D01*
X348953Y196185D02*
Y206815D01*
X343047Y196185D02*
Y206815D01*
X348953D01*
X343047Y196185D02*
X348953D01*
X377953Y221501D02*
Y232131D01*
X372047Y221501D02*
Y232131D01*
X377953D01*
X372047Y221501D02*
X377953D01*
X392047Y92126D02*
Y102756D01*
X397953Y92126D02*
Y102756D01*
X392047Y92126D02*
X397953D01*
X392047Y102756D02*
X397953D01*
X347953Y162126D02*
Y172756D01*
X342047Y162126D02*
Y172756D01*
X347953D01*
X342047Y162126D02*
X347953D01*
X342185Y130394D02*
X352815D01*
X342185Y124488D02*
X352815D01*
X342185D02*
Y130394D01*
X352815Y124488D02*
Y130394D01*
X437953Y90876D02*
Y101506D01*
X432047Y90876D02*
Y101506D01*
X437953D01*
X432047Y90876D02*
X437953D01*
X474203Y187751D02*
Y198381D01*
X468297Y187751D02*
Y198381D01*
X474203D01*
X468297Y187751D02*
X474203D01*
X472953Y121501D02*
Y132131D01*
X467047Y121501D02*
Y132131D01*
X472953D01*
X467047Y121501D02*
X472953D01*
X401560Y218863D02*
X412190D01*
X401560Y224769D02*
X412190D01*
Y218863D02*
Y224769D01*
X401560Y218863D02*
Y224769D01*
X586688Y345123D02*
X594562D01*
X586688Y358509D02*
X594562D01*
X586688Y345123D02*
Y358509D01*
X594562Y345123D02*
Y358509D01*
X539203Y236501D02*
Y247131D01*
X533297Y236501D02*
Y247131D01*
X539203D01*
X533297Y236501D02*
X539203D01*
X524547D02*
Y247131D01*
Y236501D02*
X530453D01*
X524547Y247131D02*
X530453D01*
Y236501D02*
Y247131D01*
X552953Y189626D02*
Y200256D01*
X547047Y189626D02*
Y200256D01*
X552953D01*
X547047Y189626D02*
X552953D01*
X592185Y167894D02*
X602815D01*
X592185Y161988D02*
X602815D01*
X592185D02*
Y167894D01*
X602815Y161988D02*
Y167894D01*
X189828Y230251D02*
Y240881D01*
X183922Y230251D02*
Y240881D01*
X189828D01*
X183922Y230251D02*
X189828D01*
X139060Y242613D02*
Y248519D01*
X149690Y242613D02*
Y248519D01*
X139060D02*
X149690D01*
X139060Y242613D02*
X149690D01*
X199685Y117613D02*
Y123519D01*
Y117613D02*
X210315D01*
X199685Y123519D02*
X210315D01*
Y117613D02*
Y123519D01*
X199685Y123238D02*
X210315D01*
X199685Y129144D02*
X210315D01*
Y123238D02*
Y129144D01*
X199685Y123238D02*
Y129144D01*
X11422Y122126D02*
Y132756D01*
X17328Y122126D02*
Y132756D01*
X11422Y122126D02*
X17328D01*
X11422Y132756D02*
X17328D01*
X39685Y127613D02*
X50315D01*
X39685Y133519D02*
X50315D01*
Y127613D02*
Y133519D01*
X39685Y127613D02*
Y133519D01*
X477672Y185876D02*
Y196506D01*
Y185876D02*
X483578D01*
X477672Y196506D02*
X483578D01*
Y185876D02*
Y196506D01*
X378922Y217126D02*
Y227756D01*
Y217126D02*
X384828D01*
X378922Y227756D02*
X384828D01*
Y217126D02*
Y227756D01*
X64685Y149488D02*
Y155394D01*
Y149488D02*
X75315D01*
X64685Y155394D02*
X75315D01*
Y149488D02*
Y155394D01*
X44547Y87126D02*
Y97756D01*
Y87126D02*
X50453D01*
X44547Y97756D02*
X50453D01*
Y87126D02*
Y97756D01*
X114060Y72894D02*
X124690D01*
X114060Y66988D02*
X124690D01*
X114060D02*
Y72894D01*
X124690Y66988D02*
Y72894D01*
X425935Y82613D02*
Y88519D01*
Y82613D02*
X436565D01*
X425935Y88519D02*
X436565D01*
Y82613D02*
Y88519D01*
X522810Y173519D02*
X533440D01*
X522810Y167613D02*
X533440D01*
X522810D02*
Y173519D01*
X533440Y167613D02*
Y173519D01*
X504060Y104488D02*
X514690D01*
X504060Y110394D02*
X514690D01*
Y104488D02*
Y110394D01*
X504060Y104488D02*
Y110394D01*
X488297Y106501D02*
Y117131D01*
X494203Y106501D02*
Y117131D01*
X488297Y106501D02*
X494203D01*
X488297Y117131D02*
X494203D01*
X523435Y104488D02*
X534065D01*
X523435Y110394D02*
X534065D01*
Y104488D02*
Y110394D01*
X523435Y104488D02*
Y110394D01*
X526560Y101644D02*
X537190D01*
X526560Y95738D02*
X537190D01*
X526560D02*
Y101644D01*
X537190Y95738D02*
Y101644D01*
X590453Y125876D02*
Y136506D01*
X584547Y125876D02*
Y136506D01*
X590453D01*
X584547Y125876D02*
X590453D01*
X141703Y96813D02*
Y107443D01*
X135797Y96813D02*
Y107443D01*
X141703D01*
X135797Y96813D02*
X141703D01*
X444685Y412269D02*
X455315D01*
X444685Y406363D02*
X455315D01*
X444685D02*
Y412269D01*
X455315Y406363D02*
Y412269D01*
X444685Y417894D02*
X455315D01*
X444685Y411988D02*
X455315D01*
X444685D02*
Y417894D01*
X455315Y411988D02*
Y417894D01*
X458297Y296501D02*
Y307131D01*
X464203Y296501D02*
Y307131D01*
X458297Y296501D02*
X464203D01*
X458297Y307131D02*
X464203D01*
X360449Y75804D02*
Y81710D01*
Y75804D02*
X371079D01*
X360449Y81710D02*
X371079D01*
Y75804D02*
Y81710D01*
X360449Y90804D02*
Y96710D01*
Y90804D02*
X371079D01*
X360449Y96710D02*
X371079D01*
Y90804D02*
Y96710D01*
X433297Y60251D02*
Y70881D01*
Y60251D02*
X439203D01*
X433297Y70881D02*
X439203D01*
Y60251D02*
Y70881D01*
X403297Y57751D02*
Y68381D01*
Y57751D02*
X409203D01*
X403297Y68381D02*
X409203D01*
Y57751D02*
Y68381D01*
X132185Y139488D02*
Y145394D01*
Y139488D02*
X142815D01*
X132185Y145394D02*
X142815D01*
Y139488D02*
Y145394D01*
X145797Y127085D02*
Y137715D01*
Y127085D02*
X151703D01*
X145797Y137715D02*
X151703D01*
Y127085D02*
Y137715D01*
X386560Y52269D02*
X397190D01*
X386560Y46363D02*
X397190D01*
X386560D02*
Y52269D01*
X397190Y46363D02*
Y52269D01*
X444060Y57269D02*
X454690D01*
X444060Y51363D02*
X454690D01*
X444060D02*
Y57269D01*
X454690Y51363D02*
Y57269D01*
X444060Y62613D02*
Y68519D01*
Y62613D02*
X454690D01*
X444060Y68519D02*
X454690D01*
Y62613D02*
Y68519D01*
X240945Y180310D02*
Y185822D01*
Y180310D02*
X251181D01*
X240945Y185822D02*
X251181D01*
Y180310D02*
Y185822D01*
X240945Y174060D02*
Y179572D01*
Y174060D02*
X251181D01*
X240945Y179572D02*
X251181D01*
Y174060D02*
Y179572D01*
X240945Y75935D02*
Y81447D01*
Y75935D02*
X251181D01*
X240945Y81447D02*
X251181D01*
Y75935D02*
Y81447D01*
X240945Y69685D02*
Y75197D01*
Y69685D02*
X251181D01*
X240945Y75197D02*
X251181D01*
Y69685D02*
Y75197D01*
X422047Y4724D02*
Y26772D01*
Y4724D02*
X463779D01*
X422047Y26772D02*
X463779D01*
Y4724D02*
Y26772D01*
X449060Y31644D02*
X459690D01*
X449060Y25738D02*
X459690D01*
X449060D02*
Y31644D01*
X459690Y25738D02*
Y31644D01*
X464685D02*
X475315D01*
X464685Y25738D02*
X475315D01*
X464685D02*
Y31644D01*
X475315Y25738D02*
Y31644D01*
X592185Y161019D02*
X602815D01*
X592185Y155113D02*
X602815D01*
X592185D02*
Y161019D01*
X602815Y155113D02*
Y161019D01*
X544685Y362269D02*
X555315D01*
X544685Y356363D02*
X555315D01*
X544685D02*
Y362269D01*
X555315Y356363D02*
Y362269D01*
X401914Y397053D02*
X412544D01*
X401914Y391147D02*
X412544D01*
X401914D02*
Y397053D01*
X412544Y391147D02*
Y397053D01*
X386560Y57894D02*
X397190D01*
X386560Y51988D02*
X397190D01*
X386560D02*
Y57894D01*
X397190Y51988D02*
Y57894D01*
X50310Y206988D02*
X60940D01*
X50310Y212894D02*
X60940D01*
Y206988D02*
Y212894D01*
X50310Y206988D02*
Y212894D01*
X120310Y213863D02*
Y219769D01*
X130940Y213863D02*
Y219769D01*
X120310D02*
X130940D01*
X120310Y213863D02*
X130940D01*
X120310Y207613D02*
Y213519D01*
X130940Y207613D02*
Y213519D01*
X120310D02*
X130940D01*
X120310Y207613D02*
X130940D01*
X601407Y342805D02*
Y369577D01*
Y342805D02*
X621093D01*
X601407Y369577D02*
X621093D01*
Y342805D02*
Y369577D01*
X228632Y180310D02*
Y185822D01*
Y180310D02*
X238868D01*
X228632Y185822D02*
X238868D01*
Y180310D02*
Y185822D01*
X228632Y174060D02*
Y179572D01*
Y174060D02*
X238868D01*
X228632Y179572D02*
X238868D01*
Y174060D02*
Y179572D01*
X253007Y75935D02*
Y81447D01*
Y75935D02*
X263243D01*
X253007Y81447D02*
X263243D01*
Y75935D02*
Y81447D01*
X253007Y69685D02*
Y75197D01*
Y69685D02*
X263243D01*
X253007Y75197D02*
X263243D01*
Y69685D02*
Y75197D01*
X172810Y343238D02*
X183440D01*
X172810Y349144D02*
X183440D01*
Y343238D02*
Y349144D01*
X172810Y343238D02*
Y349144D01*
X240935Y12894D02*
X251565D01*
X240935Y6988D02*
X251565D01*
X240935D02*
Y12894D01*
X251565Y6988D02*
Y12894D01*
X240310Y165113D02*
X250940D01*
X240310Y171019D02*
X250940D01*
Y165113D02*
Y171019D01*
X240310Y165113D02*
Y171019D01*
X231246Y406244D02*
Y411756D01*
X221010D02*
X231246D01*
X221010Y406244D02*
X231246D01*
X221010D02*
Y411756D01*
X108932Y324754D02*
Y332628D01*
Y324754D02*
X122318D01*
X108932Y332628D02*
X122318D01*
Y324754D02*
Y332628D01*
X50310Y219488D02*
X60940D01*
X50310Y225394D02*
X60940D01*
Y219488D02*
Y225394D01*
X50310Y219488D02*
Y225394D01*
Y213238D02*
Y219144D01*
Y213238D02*
X60940D01*
X50310Y219144D02*
X60940D01*
Y213238D02*
Y219144D01*
X215345Y74036D02*
Y95846D01*
X227155Y74036D02*
Y95846D01*
X215345D02*
X227155D01*
X215345Y74036D02*
X227155D01*
X254719Y195911D02*
X276531D01*
X254719Y207721D02*
X276531D01*
X254719Y195911D02*
Y207721D01*
X276531Y195911D02*
Y207721D01*
X569188Y345123D02*
X577062D01*
X569188Y358509D02*
X577062D01*
X569188Y345123D02*
Y358509D01*
X577062Y345123D02*
Y358509D01*
X577938Y345123D02*
X585812D01*
X577938Y358509D02*
X585812D01*
X577938Y345123D02*
Y358509D01*
X585812Y345123D02*
Y358509D01*
X108932Y333504D02*
Y341378D01*
Y333504D02*
X122318D01*
X108932Y341378D02*
X122318D01*
Y333504D02*
Y341378D01*
X108932Y350128D02*
X122318D01*
X108932Y342254D02*
X122318D01*
X108932D02*
Y350128D01*
X122318Y342254D02*
Y350128D01*
X449060Y369144D02*
X459690D01*
X449060Y363238D02*
X459690D01*
X449060D02*
Y369144D01*
X459690Y363238D02*
Y369144D01*
X467185Y363238D02*
X477815D01*
X467185Y369144D02*
X477815D01*
Y363238D02*
Y369144D01*
X467185Y363238D02*
Y369144D01*
X292953Y5115D02*
Y26375D01*
Y5115D02*
X415709D01*
X292953Y26375D02*
X415709D01*
Y5115D02*
Y26375D01*
X505310Y171019D02*
X515940D01*
X505310Y165113D02*
X515940D01*
X505310D02*
Y171019D01*
X515940Y165113D02*
Y171019D01*
X240945Y186560D02*
Y192072D01*
Y186560D02*
X251181D01*
X240945Y192072D02*
X251181D01*
Y186560D02*
Y192072D01*
X253007Y82185D02*
Y87697D01*
Y82185D02*
X263243D01*
X253007Y87697D02*
X263243D01*
Y82185D02*
Y87697D01*
X228632Y186560D02*
Y192072D01*
Y186560D02*
X238868D01*
X228632Y192072D02*
X238868D01*
Y186560D02*
Y192072D01*
X325994Y130054D02*
Y140290D01*
Y130054D02*
X331506D01*
X325994Y140290D02*
X331506D01*
Y130054D02*
Y140290D01*
X97869Y69823D02*
Y80059D01*
Y69823D02*
X103381D01*
X97869Y80059D02*
X103381D01*
Y69823D02*
Y80059D01*
X386560Y76644D02*
X397190D01*
X386560Y70738D02*
X397190D01*
X386560D02*
Y76644D01*
X397190Y70738D02*
Y76644D01*
X457185Y105113D02*
X467815D01*
X457185Y111019D02*
X467815D01*
Y105113D02*
Y111019D01*
X457185Y105113D02*
Y111019D01*
Y98863D02*
Y104769D01*
Y98863D02*
X467815D01*
X457185Y104769D02*
X467815D01*
Y98863D02*
Y104769D01*
X217244Y123573D02*
Y133809D01*
X222756Y123573D02*
Y133809D01*
X217244Y123573D02*
X222756D01*
X217244Y133809D02*
X222756D01*
X114257Y57810D02*
Y63322D01*
Y57810D02*
X124493D01*
X114257Y63322D02*
X124493D01*
Y57810D02*
Y63322D01*
X82382Y149685D02*
Y155197D01*
Y149685D02*
X92618D01*
X82382Y155197D02*
X92618D01*
Y149685D02*
Y155197D01*
X477869Y120448D02*
Y130684D01*
Y120448D02*
X483381D01*
X477869Y130684D02*
X483381D01*
Y120448D02*
Y130684D01*
X424060Y365113D02*
Y371019D01*
Y365113D02*
X434690D01*
X424060Y371019D02*
X434690D01*
Y365113D02*
Y371019D01*
X414528Y309747D02*
Y315653D01*
Y309747D02*
X425157D01*
X414528Y315653D02*
X425157D01*
Y309747D02*
Y315653D01*
X414158Y372805D02*
X449591D01*
X414158Y399577D02*
X449591D01*
X414158Y372805D02*
Y399577D01*
X449591Y372805D02*
Y399577D01*
X199535Y325862D02*
Y371138D01*
Y325862D02*
X216465D01*
X199535Y371138D02*
X216465D01*
Y325862D02*
Y371138D01*
X199535Y278862D02*
Y324138D01*
Y278862D02*
X216465D01*
X199535Y324138D02*
X216465D01*
Y278862D02*
Y324138D01*
X246362Y352035D02*
Y368965D01*
Y352035D02*
X291638D01*
X246362Y368965D02*
X291638D01*
Y352035D02*
Y368965D01*
X377160Y344803D02*
Y390079D01*
Y344803D02*
X394090D01*
X377160Y390079D02*
X394090D01*
Y344803D02*
Y390079D01*
X322362Y355851D02*
Y372781D01*
Y355851D02*
X367638D01*
X322362Y372781D02*
X367638D01*
Y355851D02*
Y372781D01*
X173007Y357810D02*
Y363322D01*
Y357810D02*
X183243D01*
X173007Y363322D02*
X183243D01*
Y357810D02*
Y363322D01*
X183807Y421846D02*
X197193D01*
X183807Y415154D02*
X197193D01*
X183807D02*
Y421846D01*
X197193Y415154D02*
Y421846D01*
X397244Y428573D02*
Y438809D01*
Y428573D02*
X402756D01*
X397244Y438809D02*
X402756D01*
Y428573D02*
Y438809D01*
X280546Y194301D02*
Y208081D01*
Y194301D02*
X295704D01*
X280546Y208081D02*
X295704D01*
Y194301D02*
Y208081D01*
X295369Y196073D02*
Y206309D01*
Y196073D02*
X300881D01*
X295369Y206309D02*
X300881D01*
Y196073D02*
Y206309D01*
X211132Y160935D02*
Y166447D01*
Y160935D02*
X221368D01*
X211132Y166447D02*
X221368D01*
Y160935D02*
Y166447D01*
X450369Y381073D02*
Y391309D01*
Y381073D02*
X455881D01*
X450369Y391309D02*
X455881D01*
Y381073D02*
Y391309D01*
X430507Y359685D02*
Y365197D01*
Y359685D02*
X440743D01*
X430507Y365197D02*
X440743D01*
Y359685D02*
Y365197D01*
X180807Y428288D02*
X194193D01*
X180807Y421594D02*
X194193D01*
X180807D02*
Y428288D01*
X194193Y421594D02*
Y428288D01*
X232244Y428573D02*
Y438809D01*
Y428573D02*
X237756D01*
X232244Y438809D02*
X237756D01*
Y428573D02*
Y438809D01*
X273494Y428573D02*
Y438809D01*
Y428573D02*
X279006D01*
X273494Y438809D02*
X279006D01*
Y428573D02*
Y438809D01*
X314744Y428573D02*
Y438809D01*
Y428573D02*
X320256D01*
X314744Y438809D02*
X320256D01*
Y428573D02*
Y438809D01*
X355994Y428573D02*
Y438809D01*
Y428573D02*
X361506D01*
X355994Y438809D02*
X361506D01*
Y428573D02*
Y438809D01*
X438182Y428573D02*
Y438809D01*
Y428573D02*
X443694D01*
X438182Y438809D02*
X443694D01*
Y428573D02*
Y438809D01*
X203494Y147948D02*
Y158184D01*
Y147948D02*
X209006D01*
X203494Y158184D02*
X209006D01*
Y147948D02*
Y158184D01*
X211132Y167185D02*
Y172697D01*
Y167185D02*
X221368D01*
X211132Y172697D02*
X221368D01*
Y167185D02*
Y172697D01*
X213494Y27323D02*
Y37559D01*
Y27323D02*
X219006D01*
X213494Y37559D02*
X219006D01*
Y27323D02*
Y37559D01*
X561619Y397948D02*
Y408184D01*
Y397948D02*
X567131D01*
X561619Y408184D02*
X567131D01*
Y397948D02*
Y408184D01*
X174015Y114724D02*
Y196614D01*
Y114724D02*
X196063D01*
X174015Y196614D02*
X196063D01*
Y114724D02*
Y196614D01*
X81496Y390551D02*
Y412599D01*
Y390551D02*
X123228D01*
X81496Y412599D02*
X123228D01*
Y390551D02*
Y412599D01*
X44744Y353573D02*
Y363809D01*
Y353573D02*
X50256D01*
X44744Y363809D02*
X50256D01*
Y353573D02*
Y363809D01*
X50369Y353573D02*
Y363809D01*
Y353573D02*
X55881D01*
X50369Y363809D02*
X55881D01*
Y353573D02*
Y363809D01*
X32810Y364769D02*
X43440D01*
X32810Y358863D02*
X43440D01*
X32810D02*
Y364769D01*
X43440Y358863D02*
Y364769D01*
X32810Y359144D02*
X43440D01*
X32810Y353238D02*
X43440D01*
X32810D02*
Y359144D01*
X43440Y353238D02*
Y359144D01*
X39685Y255394D02*
X50315D01*
X39685Y249488D02*
X50315D01*
X39685D02*
Y255394D01*
X50315Y249488D02*
Y255394D01*
X30310Y315738D02*
Y321644D01*
Y315738D02*
X40940D01*
X30310Y321644D02*
X40940D01*
Y315738D02*
Y321644D01*
X55994Y329198D02*
Y339434D01*
Y329198D02*
X61506D01*
X55994Y339434D02*
X61506D01*
Y329198D02*
Y339434D01*
X42382Y315935D02*
Y321447D01*
Y315935D02*
X52618D01*
X42382Y321447D02*
X52618D01*
Y315935D02*
Y321447D01*
X145994Y147948D02*
Y158184D01*
Y147948D02*
X151506D01*
X145994Y158184D02*
X151506D01*
Y147948D02*
Y158184D01*
X145994Y159823D02*
Y170059D01*
Y159823D02*
X151506D01*
X145994Y170059D02*
X151506D01*
Y159823D02*
Y170059D01*
X137513Y198913D02*
Y242219D01*
Y198913D02*
X184363D01*
X137513Y242219D02*
X184363D01*
Y198913D02*
Y242219D01*
X556949Y364867D02*
Y383765D01*
X538051Y364867D02*
Y383765D01*
X556949D01*
X538051Y364867D02*
X556949D01*
X494075Y272038D02*
Y315345D01*
Y272038D02*
X540925D01*
X494075Y315345D02*
X540925D01*
Y272038D02*
Y315345D01*
X489926Y320276D02*
Y349606D01*
Y320276D02*
X508824D01*
X489926Y349606D02*
X508824D01*
Y320276D02*
Y349606D01*
X182051Y241526D02*
Y270856D01*
Y241526D02*
X200949D01*
X182051Y270856D02*
X200949D01*
Y241526D02*
Y270856D01*
X147879Y282374D02*
Y301272D01*
Y282374D02*
X177210D01*
X147879Y301272D02*
X177210D01*
Y282374D02*
Y301272D01*
X147822Y264359D02*
Y283257D01*
Y264359D02*
X177153D01*
X147822Y283257D02*
X177153D01*
Y264359D02*
Y283257D01*
X254203Y270128D02*
Y312254D01*
Y270128D02*
X298297D01*
X254203Y312254D02*
X298297D01*
Y270128D02*
Y312254D01*
X451107Y417229D02*
Y431403D01*
X467643Y417229D02*
Y431403D01*
X451107D02*
X467643D01*
X451107Y417229D02*
X467643D01*
X411575Y265162D02*
Y308470D01*
Y265162D02*
X458425D01*
X411575Y308470D02*
X458425D01*
Y265162D02*
Y308470D01*
X409636Y57229D02*
Y71403D01*
Y57229D02*
X432864D01*
X409636Y71403D02*
X432864D01*
Y57229D02*
Y71403D01*
X231890Y112707D02*
Y164675D01*
X260236Y112707D02*
Y164675D01*
X231890D02*
X260236D01*
X231890Y112707D02*
X260236D01*
X554719Y168288D02*
Y211595D01*
Y168288D02*
X616531D01*
X554719Y211595D02*
X616531D01*
Y168288D02*
Y211595D01*
X237279Y426998D02*
X243971D01*
X237279Y440384D02*
X243971D01*
X237279Y426998D02*
Y440384D01*
X243971Y426998D02*
Y440384D01*
X361029Y426998D02*
X367722D01*
X361029Y440384D02*
X367722D01*
X361029Y426998D02*
Y440384D01*
X367722Y426998D02*
Y440384D01*
X278528Y426998D02*
X285222D01*
X278528Y440384D02*
X285222D01*
X278528Y426998D02*
Y440384D01*
X285222Y426998D02*
Y440384D01*
X402279Y426998D02*
X408972D01*
X402279Y440384D02*
X408972D01*
X402279Y426998D02*
Y440384D01*
X408972Y426998D02*
Y440384D01*
X319778Y426998D02*
X326471D01*
X319778Y440384D02*
X326471D01*
X319778Y426998D02*
Y440384D01*
X326471Y426998D02*
Y440384D01*
D174*
X212875Y4441D02*
Y25441D01*
Y4441D02*
X225875D01*
X212875Y25441D02*
X225875D01*
Y4441D02*
Y25441D01*
X217407Y14941D02*
X221343D01*
X219375Y12972D02*
Y16909D01*
X209750Y138191D02*
Y159191D01*
Y138191D02*
X222750D01*
X209750Y159191D02*
X222750D01*
Y138191D02*
Y159191D01*
X214282Y148691D02*
X218218D01*
X216250Y146722D02*
Y150660D01*
M02*
