M48
;Layer_Color=9474304
;FILE_FORMAT=2:5
INCH,LZ
;TYPE=PLATED
T1F00S00C0.00800
T2F00S00C0.01181
T3F00S00C0.02362
T4F00S00C0.03937
T5F00S00C0.04000
T6F00S00C0.12598
;TYPE=NON_PLATED
T7F00S00C0.11799
%
T01
X015Y027
X0424746Y0225254
T02
X0057Y004724
X0062Y004474
X00675Y005224
X00725Y004974
X00825Y004224
X0142Y005474
X03045Y003224
X03095Y003474
X0315Y003974
X03195Y002974
X03295Y003724
X04615Y005474
X0478Y005224
X0487Y004974
X0498Y004724
X05075Y004474
X05175Y004224
X0531Y003974
X05455Y003724
X0561Y003474
X05685Y003224
X0573Y002974
X05875Y012824
Y016824
X04565Y005724
X0417Y005974
X0412Y006224
X0405Y006974
X0392Y007224
X03535Y007474
X03385Y007724
X03325Y007974
X03Y007474
X029Y007724
X0266Y007474
X02605Y008224
X0251Y007724
X0246Y008474
X02475Y008974
X0231Y009274
X02255Y009224
X02195Y007724
X0231Y006724
X0236Y006474
X0271Y008724
X02755Y009274
X0209Y007474
X0199Y008224
X0181Y007474
X0171Y007724
X01645Y008474
X0154Y008724
X01525Y007724
X0137Y007474
X01285Y007724
X01225Y006974
X0117Y006224
X0127Y005724
X01325Y005974
X0107Y007224
X0102Y007724
X0097Y008474
X0092Y007974
X01095Y008474
X0081Y009224
X0078Y008974
X00455Y006724
X00425Y006474
X00305Y026474
X00235
X0024Y032524
X00305
X0049
X0055
X00725Y031899
Y030649
X0097Y032824
X0103
X013Y0322
X0151Y03215
X01555
X0167Y03205
X018Y032724
X0180125Y0332115
X0186Y0335
X01865Y032724
X019325Y032274
X019775Y0322865
X0198Y0328
X0202Y0334
X0208
X0174Y034
X0157Y0333
X017125Y036249
X017625Y036374
X0118Y0368
X0109
X0103Y0259
X0095
X00855Y026774
X00665Y026324
X005925Y027024
X0131125
X01785Y026524
X01865
X0192375Y027024
X0221Y026524
X02285
X02365Y027274
X02355Y027924
X02635
X02645Y027324
X0253375Y0263365
X02815
X02915Y027324
X02905Y027924
X0308375Y0263365
X0317Y026424
X03245
X0347
X03545
Y032824
Y033324
X03475Y032824
X0346Y034824
Y035224
X0338Y034324
X03345
X03295
X0326
X03245Y035324
X033125Y033474
X0323Y0324
X03025Y031474
X02985
X0275
X0271
X02475
X02435
X0230354Y0328
X0224646
X02175Y03325
X02125Y03315
X0217Y034024
X0221
X02285Y034174
Y034524
Y035024
Y035374
X0223Y036174
X02195
X03765Y032824
X0374Y031874
X03765Y030074
Y029074
Y027324
X04045Y026924
Y026474
X0405Y029274
Y029674
Y032024
Y032424
X04415
Y032024
Y029674
Y029274
X0442Y026924
Y026524
X0468Y02525
X04645Y023424
X04505
X0397
X0383
X047Y028124
Y029074
Y030874
X04725Y031674
X04825Y033974
X0494Y033024
X0502Y032224
X05055Y036524
X0511
X04925Y036574
X0487
X0474
X04685
X0551Y035974
X05505Y035224
X05475Y025124
X056
X05725
X0585
X0565Y03808
X05636Y03877
X05655Y039274
X05705Y039774
X05605Y039924
X0546Y040024
X054Y040324
X05285Y042624
X05622Y04195
X05842Y04192
X057925Y040549
X059675Y046299
X0538625Y046049
X0508Y0418
X0511Y039774
X05055Y0394865
X0501Y038824
X0492Y038924
X0481Y038874
X04735Y038974
X0483Y039774
X0521Y037274
X04315Y037574
X04275
X035Y044024
X01155Y040724
X01115
X01075
X0118Y040074
Y039674
X007Y040024
Y040424
X00545Y040624
X00505
X0048Y039174
Y038824
X00288Y03707
X0032125Y043199
X00315Y044574
T03
X0252717Y0379957
T04
X0035551Y0010748
Y0020748
X0045551
X0055551
Y0010748
X0045551
X0065551
Y0020748
X0075551
X0085551
X0095551
X0105551
Y0010748
X0115551
Y0020748
X0125551
Y0010748
X0135551
X0145551
Y0020748
X0135551
X0164134
X0174134
Y0010748
X0184134
Y0020748
X0194134
Y0010748
X0164134
X0095551
X0085551
X0075551
X0212717
Y0020748
X0222717
X0232717
X0242717
Y0010748
X0252717
X0262717
X0272717
X0282717
Y0020748
X0292717
Y0010748
X0302717
Y0020748
X0312717
X0322717
Y0010748
X0312717
X0272717Y0020748
X0262717
X0252717
X0232717Y0010748
X0222717
X0252717Y0396575
Y0406575
X0262717
X0272717
X0282717
Y0396575
X0272717
X0262717
T05
X0379425Y0433441
Y044524
X0391224
Y0433441
X0403028
Y044524
X0414827
X0426626
Y0433441
X0414827
X0459626
X0471425
Y044524
X0459626
X0483224
Y0433441
X0495028
Y044524
X0506827
X0518626
Y0433441
X0506827
X0367626
Y044524
X0334028
Y0433441
X0322224
Y044524
X0291528
Y0433441
X0279724
Y044524
X0249028
Y0433441
X0237224
Y044524
X0206724
Y0433441
X0194874
X0183126
X0171378
Y044524
X0183126
X0194874
X0159528
Y0433441
X0124874
X0113126
X0101378
Y044524
X0113126
X0124874
X0064028
Y0433441
X0052224
Y044524
T06
X0594488Y0098425
X0437008
X0314961
X0019685
X0594488Y0393701
X0437008
X0314961
X0019685
T07
X0376075Y046224
X0418177
X0468075
X0510177
X0328126
X0285626
X0243126
X0198276
X0167976
X0113126
X0058126
M30
