G04*
G04 #@! TF.GenerationSoftware,Altium Limited,Altium Designer,21.4.1 (30)*
G04*
G04 Layer_Physical_Order=2*
G04 Layer_Color=36540*
%FSLAX25Y25*%
%MOIN*%
G70*
G04*
G04 #@! TF.SameCoordinates,07BA8920-E91E-4FA6-B340-E2803C7595EB*
G04*
G04*
G04 #@! TF.FilePolarity,Positive*
G04*
G01*
G75*
%ADD14C,0.01000*%
%ADD102C,0.00400*%
%ADD104C,0.06890*%
%ADD106C,0.02165*%
G36*
X439400Y409918D02*
X442132Y407460D01*
X441865Y407037D01*
X441403Y407228D01*
X439233Y407749D01*
X437008Y407924D01*
X434783Y407749D01*
X432613Y407228D01*
X430551Y406374D01*
X428648Y405208D01*
X426950Y403758D01*
X425501Y402061D01*
X424335Y400158D01*
X423481Y398096D01*
X422960Y395926D01*
X422785Y393701D01*
X422960Y391476D01*
X423481Y389305D01*
X424335Y387244D01*
X425501Y385340D01*
X426950Y383643D01*
X428648Y382194D01*
X430551Y381028D01*
X432613Y380173D01*
X434783Y379653D01*
X437008Y379477D01*
X439233Y379653D01*
X441403Y380173D01*
X443465Y381028D01*
X445368Y382194D01*
X447065Y383643D01*
X448515Y385340D01*
X448970Y386083D01*
X449451Y385948D01*
X449901Y256575D01*
X448666Y255340D01*
X397834D01*
X396600Y256574D01*
Y344574D01*
X390334Y350840D01*
X362675D01*
X356898Y344582D01*
X356887Y343683D01*
X356424Y343494D01*
X354972Y344946D01*
X354666Y345073D01*
X344845D01*
X342833Y347085D01*
Y358906D01*
X342706Y359212D01*
X340476Y361442D01*
X340327Y361504D01*
X340179Y361569D01*
X317848Y362077D01*
X317843Y362075D01*
X317838Y362077D01*
X317689Y362015D01*
X317539Y361957D01*
X317537Y361952D01*
X317532Y361950D01*
X315294Y359712D01*
X315167Y359406D01*
Y305574D01*
X315294Y305268D01*
X316760Y303802D01*
X316569Y303340D01*
X231431D01*
X231240Y303802D01*
X232206Y304768D01*
X232333Y305074D01*
Y356906D01*
X232206Y357212D01*
X229972Y359446D01*
X229666Y359573D01*
X150334D01*
X150028Y359446D01*
X149062Y358480D01*
X148600Y358671D01*
Y471625D01*
X439400D01*
Y409918D01*
D02*
G37*
G36*
X611146Y471505D02*
X611715Y471270D01*
X612226Y470928D01*
X612661Y470494D01*
X613002Y469982D01*
X613237Y469415D01*
X613357Y468811D01*
Y468504D01*
Y3937D01*
Y3630D01*
X613237Y3026D01*
X613002Y2458D01*
X612661Y1947D01*
X612226Y1512D01*
X611715Y1171D01*
X611146Y936D01*
X610543Y816D01*
X3630D01*
X3026Y936D01*
X2458Y1171D01*
X1947Y1512D01*
X1512Y1947D01*
X1171Y2458D01*
X936Y3026D01*
X816Y3630D01*
Y3937D01*
Y287140D01*
X367834D01*
X372600Y291906D01*
Y317335D01*
X373100Y317558D01*
X373422Y317343D01*
X374000Y317228D01*
X374578Y317343D01*
X375069Y317671D01*
X375397Y318162D01*
X375512Y318740D01*
X375397Y319319D01*
X375069Y319809D01*
X374578Y320137D01*
X374000Y320252D01*
X373422Y320137D01*
X373100Y319922D01*
X372600Y320145D01*
Y332906D01*
X373834Y334140D01*
X379166D01*
X380400Y332906D01*
Y244406D01*
X385666Y239140D01*
X461834D01*
X466601Y243906D01*
X466970Y364461D01*
X467272Y364599D01*
X467471Y364644D01*
X467921Y364343D01*
X468500Y364228D01*
X469078Y364343D01*
X469569Y364671D01*
X469897Y365161D01*
X470012Y365740D01*
X469897Y366318D01*
X469569Y366809D01*
X469078Y367137D01*
X468500Y367252D01*
X467921Y367137D01*
X467478Y366840D01*
X467258Y366894D01*
X466978Y367031D01*
X467100Y406564D01*
X455600Y417064D01*
Y470395D01*
X456718Y471625D01*
X610543D01*
X611146Y471505D01*
D02*
G37*
G36*
X340169Y361136D02*
X342400Y358906D01*
Y346906D01*
X344666Y344640D01*
X354666D01*
X356902Y342403D01*
X356398Y306072D01*
X353666Y303340D01*
X317834D01*
X315600Y305574D01*
Y359406D01*
X317838Y361644D01*
X340169Y361136D01*
D02*
G37*
G36*
X231900Y356906D02*
Y305074D01*
X230166Y303340D01*
X150334D01*
X148600Y305074D01*
Y357406D01*
X150334Y359140D01*
X229666D01*
X231900Y356906D01*
D02*
G37*
G36*
X132400Y305074D02*
X130666Y303340D01*
X96334D01*
X94600Y305074D01*
Y471625D01*
X132400D01*
Y305074D01*
D02*
G37*
G36*
X78400D02*
X76666Y303340D01*
X816D01*
Y468504D01*
Y468811D01*
X936Y469415D01*
X1171Y469982D01*
X1512Y470494D01*
X1947Y470928D01*
X2458Y471270D01*
X3026Y471505D01*
X3630Y471625D01*
X78400D01*
Y305074D01*
D02*
G37*
%LPC*%
G36*
X418177Y468771D02*
X416903Y468646D01*
X415678Y468274D01*
X414549Y467670D01*
X413559Y466858D01*
X412747Y465869D01*
X412143Y464739D01*
X411772Y463514D01*
X411646Y462240D01*
X411772Y460966D01*
X412143Y459741D01*
X412747Y458611D01*
X413559Y457622D01*
X414549Y456810D01*
X415678Y456206D01*
X416903Y455834D01*
X418177Y455709D01*
X419451Y455834D01*
X420677Y456206D01*
X421806Y456810D01*
X422795Y457622D01*
X423607Y458611D01*
X424211Y459741D01*
X424583Y460966D01*
X424708Y462240D01*
X424583Y463514D01*
X424211Y464739D01*
X423607Y465869D01*
X422795Y466858D01*
X421806Y467670D01*
X420677Y468274D01*
X419451Y468646D01*
X418177Y468771D01*
D02*
G37*
G36*
X376075D02*
X374801Y468646D01*
X373575Y468274D01*
X372446Y467670D01*
X371457Y466858D01*
X370644Y465869D01*
X370041Y464739D01*
X369669Y463514D01*
X369544Y462240D01*
X369669Y460966D01*
X370041Y459741D01*
X370644Y458611D01*
X371457Y457622D01*
X372446Y456810D01*
X373575Y456206D01*
X374801Y455834D01*
X376075Y455709D01*
X377349Y455834D01*
X378574Y456206D01*
X379703Y456810D01*
X380693Y457622D01*
X381505Y458611D01*
X382109Y459741D01*
X382480Y460966D01*
X382606Y462240D01*
X382480Y463514D01*
X382109Y464739D01*
X381505Y465869D01*
X380693Y466858D01*
X379703Y467670D01*
X378574Y468274D01*
X377349Y468646D01*
X376075Y468771D01*
D02*
G37*
G36*
X328126D02*
X326852Y468646D01*
X325627Y468274D01*
X324498Y467670D01*
X323508Y466858D01*
X322696Y465869D01*
X322092Y464739D01*
X321720Y463514D01*
X321595Y462240D01*
X321720Y460966D01*
X322092Y459741D01*
X322696Y458611D01*
X323508Y457622D01*
X324498Y456810D01*
X325627Y456206D01*
X326852Y455834D01*
X328126Y455709D01*
X329400Y455834D01*
X330625Y456206D01*
X331754Y456810D01*
X332744Y457622D01*
X333556Y458611D01*
X334160Y459741D01*
X334532Y460966D01*
X334657Y462240D01*
X334532Y463514D01*
X334160Y464739D01*
X333556Y465869D01*
X332744Y466858D01*
X331754Y467670D01*
X330625Y468274D01*
X329400Y468646D01*
X328126Y468771D01*
D02*
G37*
G36*
X285626D02*
X284352Y468646D01*
X283127Y468274D01*
X281997Y467670D01*
X281008Y466858D01*
X280196Y465869D01*
X279592Y464739D01*
X279220Y463514D01*
X279095Y462240D01*
X279220Y460966D01*
X279592Y459741D01*
X280196Y458611D01*
X281008Y457622D01*
X281997Y456810D01*
X283127Y456206D01*
X284352Y455834D01*
X285626Y455709D01*
X286900Y455834D01*
X288125Y456206D01*
X289254Y456810D01*
X290244Y457622D01*
X291056Y458611D01*
X291660Y459741D01*
X292032Y460966D01*
X292157Y462240D01*
X292032Y463514D01*
X291660Y464739D01*
X291056Y465869D01*
X290244Y466858D01*
X289254Y467670D01*
X288125Y468274D01*
X286900Y468646D01*
X285626Y468771D01*
D02*
G37*
G36*
X243126D02*
X241852Y468646D01*
X240627Y468274D01*
X239497Y467670D01*
X238508Y466858D01*
X237696Y465869D01*
X237092Y464739D01*
X236720Y463514D01*
X236595Y462240D01*
X236720Y460966D01*
X237092Y459741D01*
X237696Y458611D01*
X238508Y457622D01*
X239497Y456810D01*
X240627Y456206D01*
X241852Y455834D01*
X243126Y455709D01*
X244400Y455834D01*
X245625Y456206D01*
X246755Y456810D01*
X247744Y457622D01*
X248556Y458611D01*
X249160Y459741D01*
X249532Y460966D01*
X249657Y462240D01*
X249532Y463514D01*
X249160Y464739D01*
X248556Y465869D01*
X247744Y466858D01*
X246755Y467670D01*
X245625Y468274D01*
X244400Y468646D01*
X243126Y468771D01*
D02*
G37*
G36*
X198276D02*
X197002Y468646D01*
X195776Y468274D01*
X194647Y467670D01*
X193658Y466858D01*
X192845Y465869D01*
X192242Y464739D01*
X191870Y463514D01*
X191745Y462240D01*
X191870Y460966D01*
X192242Y459741D01*
X192845Y458611D01*
X193658Y457622D01*
X194647Y456810D01*
X195776Y456206D01*
X197002Y455834D01*
X198276Y455709D01*
X199550Y455834D01*
X200775Y456206D01*
X201904Y456810D01*
X202894Y457622D01*
X203706Y458611D01*
X204310Y459741D01*
X204681Y460966D01*
X204807Y462240D01*
X204681Y463514D01*
X204310Y464739D01*
X203706Y465869D01*
X202894Y466858D01*
X201904Y467670D01*
X200775Y468274D01*
X199550Y468646D01*
X198276Y468771D01*
D02*
G37*
G36*
X167976D02*
X166702Y468646D01*
X165477Y468274D01*
X164348Y467670D01*
X163358Y466858D01*
X162546Y465869D01*
X161943Y464739D01*
X161571Y463514D01*
X161445Y462240D01*
X161571Y460966D01*
X161943Y459741D01*
X162546Y458611D01*
X163358Y457622D01*
X164348Y456810D01*
X165477Y456206D01*
X166702Y455834D01*
X167976Y455709D01*
X169251Y455834D01*
X170476Y456206D01*
X171605Y456810D01*
X172594Y457622D01*
X173407Y458611D01*
X174010Y459741D01*
X174382Y460966D01*
X174507Y462240D01*
X174382Y463514D01*
X174010Y464739D01*
X173407Y465869D01*
X172594Y466858D01*
X171605Y467670D01*
X170476Y468274D01*
X169251Y468646D01*
X167976Y468771D01*
D02*
G37*
G36*
X426626Y448669D02*
X425738Y448553D01*
X424911Y448210D01*
X424201Y447665D01*
X423656Y446955D01*
X423314Y446128D01*
X423197Y445240D01*
X423314Y444352D01*
X423656Y443525D01*
X424201Y442815D01*
X424911Y442270D01*
X425738Y441927D01*
X426626Y441811D01*
X427514Y441927D01*
X428341Y442270D01*
X429051Y442815D01*
X429596Y443525D01*
X429939Y444352D01*
X430055Y445240D01*
X429939Y446128D01*
X429596Y446955D01*
X429051Y447665D01*
X428341Y448210D01*
X427514Y448553D01*
X426626Y448669D01*
D02*
G37*
G36*
X414827D02*
X413939Y448553D01*
X413112Y448210D01*
X412402Y447665D01*
X411857Y446955D01*
X411514Y446128D01*
X411398Y445240D01*
X411514Y444352D01*
X411857Y443525D01*
X412402Y442815D01*
X413112Y442270D01*
X413939Y441927D01*
X414827Y441811D01*
X415714Y441927D01*
X416541Y442270D01*
X417252Y442815D01*
X417797Y443525D01*
X418139Y444352D01*
X418256Y445240D01*
X418139Y446128D01*
X417797Y446955D01*
X417252Y447665D01*
X416541Y448210D01*
X415714Y448553D01*
X414827Y448669D01*
D02*
G37*
G36*
X403028D02*
X402140Y448553D01*
X401313Y448210D01*
X400603Y447665D01*
X400058Y446955D01*
X399715Y446128D01*
X399598Y445240D01*
X399715Y444352D01*
X400058Y443525D01*
X400603Y442815D01*
X401313Y442270D01*
X402140Y441927D01*
X403028Y441811D01*
X403915Y441927D01*
X404742Y442270D01*
X405452Y442815D01*
X405998Y443525D01*
X406340Y444352D01*
X406457Y445240D01*
X406340Y446128D01*
X405998Y446955D01*
X405452Y447665D01*
X404742Y448210D01*
X403915Y448553D01*
X403028Y448669D01*
D02*
G37*
G36*
X391224D02*
X390337Y448553D01*
X389510Y448210D01*
X388800Y447665D01*
X388254Y446955D01*
X387912Y446128D01*
X387795Y445240D01*
X387912Y444352D01*
X388254Y443525D01*
X388800Y442815D01*
X389510Y442270D01*
X390337Y441927D01*
X391224Y441811D01*
X392112Y441927D01*
X392939Y442270D01*
X393649Y442815D01*
X394194Y443525D01*
X394537Y444352D01*
X394654Y445240D01*
X394537Y446128D01*
X394194Y446955D01*
X393649Y447665D01*
X392939Y448210D01*
X392112Y448553D01*
X391224Y448669D01*
D02*
G37*
G36*
X379425D02*
X378538Y448553D01*
X377711Y448210D01*
X377000Y447665D01*
X376455Y446955D01*
X376113Y446128D01*
X375996Y445240D01*
X376113Y444352D01*
X376455Y443525D01*
X377000Y442815D01*
X377711Y442270D01*
X378538Y441927D01*
X379425Y441811D01*
X380313Y441927D01*
X381140Y442270D01*
X381850Y442815D01*
X382395Y443525D01*
X382738Y444352D01*
X382855Y445240D01*
X382738Y446128D01*
X382395Y446955D01*
X381850Y447665D01*
X381140Y448210D01*
X380313Y448553D01*
X379425Y448669D01*
D02*
G37*
G36*
X367626D02*
X366738Y448553D01*
X365911Y448210D01*
X365201Y447665D01*
X364656Y446955D01*
X364314Y446128D01*
X364197Y445240D01*
X364314Y444352D01*
X364656Y443525D01*
X365201Y442815D01*
X365911Y442270D01*
X366738Y441927D01*
X367626Y441811D01*
X368514Y441927D01*
X369341Y442270D01*
X370051Y442815D01*
X370596Y443525D01*
X370938Y444352D01*
X371055Y445240D01*
X370938Y446128D01*
X370596Y446955D01*
X370051Y447665D01*
X369341Y448210D01*
X368514Y448553D01*
X367626Y448669D01*
D02*
G37*
G36*
X334028D02*
X333140Y448553D01*
X332313Y448210D01*
X331603Y447665D01*
X331058Y446955D01*
X330715Y446128D01*
X330598Y445240D01*
X330715Y444352D01*
X331058Y443525D01*
X331603Y442815D01*
X332313Y442270D01*
X333140Y441927D01*
X334028Y441811D01*
X334915Y441927D01*
X335742Y442270D01*
X336453Y442815D01*
X336998Y443525D01*
X337340Y444352D01*
X337457Y445240D01*
X337340Y446128D01*
X336998Y446955D01*
X336453Y447665D01*
X335742Y448210D01*
X334915Y448553D01*
X334028Y448669D01*
D02*
G37*
G36*
X322224D02*
X321337Y448553D01*
X320510Y448210D01*
X319799Y447665D01*
X319254Y446955D01*
X318912Y446128D01*
X318795Y445240D01*
X318912Y444352D01*
X319254Y443525D01*
X319799Y442815D01*
X320510Y442270D01*
X321337Y441927D01*
X322224Y441811D01*
X323112Y441927D01*
X323939Y442270D01*
X324649Y442815D01*
X325194Y443525D01*
X325537Y444352D01*
X325654Y445240D01*
X325537Y446128D01*
X325194Y446955D01*
X324649Y447665D01*
X323939Y448210D01*
X323112Y448553D01*
X322224Y448669D01*
D02*
G37*
G36*
X291528D02*
X290640Y448553D01*
X289813Y448210D01*
X289103Y447665D01*
X288558Y446955D01*
X288215Y446128D01*
X288098Y445240D01*
X288215Y444352D01*
X288558Y443525D01*
X289103Y442815D01*
X289813Y442270D01*
X290640Y441927D01*
X291528Y441811D01*
X292415Y441927D01*
X293242Y442270D01*
X293952Y442815D01*
X294497Y443525D01*
X294840Y444352D01*
X294957Y445240D01*
X294840Y446128D01*
X294497Y446955D01*
X293952Y447665D01*
X293242Y448210D01*
X292415Y448553D01*
X291528Y448669D01*
D02*
G37*
G36*
X279724D02*
X278837Y448553D01*
X278010Y448210D01*
X277299Y447665D01*
X276754Y446955D01*
X276412Y446128D01*
X276295Y445240D01*
X276412Y444352D01*
X276754Y443525D01*
X277299Y442815D01*
X278010Y442270D01*
X278837Y441927D01*
X279724Y441811D01*
X280612Y441927D01*
X281439Y442270D01*
X282149Y442815D01*
X282694Y443525D01*
X283037Y444352D01*
X283154Y445240D01*
X283037Y446128D01*
X282694Y446955D01*
X282149Y447665D01*
X281439Y448210D01*
X280612Y448553D01*
X279724Y448669D01*
D02*
G37*
G36*
X249028D02*
X248140Y448553D01*
X247313Y448210D01*
X246603Y447665D01*
X246058Y446955D01*
X245715Y446128D01*
X245598Y445240D01*
X245715Y444352D01*
X246058Y443525D01*
X246603Y442815D01*
X247313Y442270D01*
X248140Y441927D01*
X249028Y441811D01*
X249915Y441927D01*
X250742Y442270D01*
X251452Y442815D01*
X251997Y443525D01*
X252340Y444352D01*
X252457Y445240D01*
X252340Y446128D01*
X251997Y446955D01*
X251452Y447665D01*
X250742Y448210D01*
X249915Y448553D01*
X249028Y448669D01*
D02*
G37*
G36*
X237224D02*
X236337Y448553D01*
X235510Y448210D01*
X234800Y447665D01*
X234255Y446955D01*
X233912Y446128D01*
X233795Y445240D01*
X233912Y444352D01*
X234255Y443525D01*
X234800Y442815D01*
X235510Y442270D01*
X236337Y441927D01*
X237224Y441811D01*
X238112Y441927D01*
X238939Y442270D01*
X239649Y442815D01*
X240194Y443525D01*
X240537Y444352D01*
X240654Y445240D01*
X240537Y446128D01*
X240194Y446955D01*
X239649Y447665D01*
X238939Y448210D01*
X238112Y448553D01*
X237224Y448669D01*
D02*
G37*
G36*
X206724D02*
X205837Y448553D01*
X205010Y448210D01*
X204299Y447665D01*
X203754Y446955D01*
X203412Y446128D01*
X203295Y445240D01*
X203412Y444352D01*
X203754Y443525D01*
X204299Y442815D01*
X205010Y442270D01*
X205837Y441927D01*
X206724Y441811D01*
X207612Y441927D01*
X208439Y442270D01*
X209149Y442815D01*
X209694Y443525D01*
X210037Y444352D01*
X210154Y445240D01*
X210037Y446128D01*
X209694Y446955D01*
X209149Y447665D01*
X208439Y448210D01*
X207612Y448553D01*
X206724Y448669D01*
D02*
G37*
G36*
X194874D02*
X193986Y448553D01*
X193159Y448210D01*
X192449Y447665D01*
X191904Y446955D01*
X191561Y446128D01*
X191445Y445240D01*
X191561Y444352D01*
X191904Y443525D01*
X192449Y442815D01*
X193159Y442270D01*
X193986Y441927D01*
X194874Y441811D01*
X195762Y441927D01*
X196589Y442270D01*
X197299Y442815D01*
X197844Y443525D01*
X198187Y444352D01*
X198303Y445240D01*
X198187Y446128D01*
X197844Y446955D01*
X197299Y447665D01*
X196589Y448210D01*
X195762Y448553D01*
X194874Y448669D01*
D02*
G37*
G36*
X183126D02*
X182238Y448553D01*
X181411Y448210D01*
X180701Y447665D01*
X180156Y446955D01*
X179814Y446128D01*
X179697Y445240D01*
X179814Y444352D01*
X180156Y443525D01*
X180701Y442815D01*
X181411Y442270D01*
X182238Y441927D01*
X183126Y441811D01*
X184014Y441927D01*
X184841Y442270D01*
X185551Y442815D01*
X186096Y443525D01*
X186439Y444352D01*
X186555Y445240D01*
X186439Y446128D01*
X186096Y446955D01*
X185551Y447665D01*
X184841Y448210D01*
X184014Y448553D01*
X183126Y448669D01*
D02*
G37*
G36*
X171378D02*
X170490Y448553D01*
X169663Y448210D01*
X168953Y447665D01*
X168408Y446955D01*
X168066Y446128D01*
X167949Y445240D01*
X168066Y444352D01*
X168408Y443525D01*
X168953Y442815D01*
X169663Y442270D01*
X170490Y441927D01*
X171378Y441811D01*
X172266Y441927D01*
X173093Y442270D01*
X173803Y442815D01*
X174348Y443525D01*
X174690Y444352D01*
X174807Y445240D01*
X174690Y446128D01*
X174348Y446955D01*
X173803Y447665D01*
X173093Y448210D01*
X172266Y448553D01*
X171378Y448669D01*
D02*
G37*
G36*
X159528D02*
X158640Y448553D01*
X157813Y448210D01*
X157103Y447665D01*
X156558Y446955D01*
X156215Y446128D01*
X156098Y445240D01*
X156215Y444352D01*
X156558Y443525D01*
X157103Y442815D01*
X157813Y442270D01*
X158640Y441927D01*
X159528Y441811D01*
X160415Y441927D01*
X161242Y442270D01*
X161952Y442815D01*
X162497Y443525D01*
X162840Y444352D01*
X162957Y445240D01*
X162840Y446128D01*
X162497Y446955D01*
X161952Y447665D01*
X161242Y448210D01*
X160415Y448553D01*
X159528Y448669D01*
D02*
G37*
G36*
X350000Y441752D02*
X349422Y441637D01*
X348931Y441309D01*
X348603Y440819D01*
X348488Y440240D01*
X348603Y439662D01*
X348931Y439171D01*
X349422Y438843D01*
X350000Y438728D01*
X350578Y438843D01*
X351069Y439171D01*
X351397Y439662D01*
X351512Y440240D01*
X351397Y440819D01*
X351069Y441309D01*
X350578Y441637D01*
X350000Y441752D01*
D02*
G37*
G36*
X426626Y436870D02*
X425738Y436753D01*
X424911Y436411D01*
X424201Y435866D01*
X423656Y435155D01*
X423314Y434328D01*
X423197Y433441D01*
X423314Y432553D01*
X423656Y431726D01*
X424201Y431016D01*
X424911Y430471D01*
X425738Y430128D01*
X426626Y430011D01*
X427514Y430128D01*
X428341Y430471D01*
X429051Y431016D01*
X429596Y431726D01*
X429939Y432553D01*
X430055Y433441D01*
X429939Y434328D01*
X429596Y435155D01*
X429051Y435866D01*
X428341Y436411D01*
X427514Y436753D01*
X426626Y436870D01*
D02*
G37*
G36*
X414827D02*
X413939Y436753D01*
X413112Y436411D01*
X412402Y435866D01*
X411857Y435155D01*
X411514Y434328D01*
X411398Y433441D01*
X411514Y432553D01*
X411857Y431726D01*
X412402Y431016D01*
X413112Y430471D01*
X413939Y430128D01*
X414827Y430011D01*
X415714Y430128D01*
X416541Y430471D01*
X417252Y431016D01*
X417797Y431726D01*
X418139Y432553D01*
X418256Y433441D01*
X418139Y434328D01*
X417797Y435155D01*
X417252Y435866D01*
X416541Y436411D01*
X415714Y436753D01*
X414827Y436870D01*
D02*
G37*
G36*
X403028D02*
X402140Y436753D01*
X401313Y436411D01*
X400603Y435866D01*
X400058Y435155D01*
X399715Y434328D01*
X399598Y433441D01*
X399715Y432553D01*
X400058Y431726D01*
X400603Y431016D01*
X401313Y430471D01*
X402140Y430128D01*
X403028Y430011D01*
X403915Y430128D01*
X404742Y430471D01*
X405452Y431016D01*
X405998Y431726D01*
X406340Y432553D01*
X406457Y433441D01*
X406340Y434328D01*
X405998Y435155D01*
X405452Y435866D01*
X404742Y436411D01*
X403915Y436753D01*
X403028Y436870D01*
D02*
G37*
G36*
X391224D02*
X390337Y436753D01*
X389510Y436411D01*
X388800Y435866D01*
X388254Y435155D01*
X387912Y434328D01*
X387795Y433441D01*
X387912Y432553D01*
X388254Y431726D01*
X388800Y431016D01*
X389510Y430471D01*
X390337Y430128D01*
X391224Y430011D01*
X392112Y430128D01*
X392939Y430471D01*
X393649Y431016D01*
X394194Y431726D01*
X394537Y432553D01*
X394654Y433441D01*
X394537Y434328D01*
X394194Y435155D01*
X393649Y435866D01*
X392939Y436411D01*
X392112Y436753D01*
X391224Y436870D01*
D02*
G37*
G36*
X379425D02*
X378538Y436753D01*
X377711Y436411D01*
X377000Y435866D01*
X376455Y435155D01*
X376113Y434328D01*
X375996Y433441D01*
X376113Y432553D01*
X376455Y431726D01*
X377000Y431016D01*
X377711Y430471D01*
X378538Y430128D01*
X379425Y430011D01*
X380313Y430128D01*
X381140Y430471D01*
X381850Y431016D01*
X382395Y431726D01*
X382738Y432553D01*
X382855Y433441D01*
X382738Y434328D01*
X382395Y435155D01*
X381850Y435866D01*
X381140Y436411D01*
X380313Y436753D01*
X379425Y436870D01*
D02*
G37*
G36*
X367626D02*
X366738Y436753D01*
X365911Y436411D01*
X365201Y435866D01*
X364656Y435155D01*
X364314Y434328D01*
X364197Y433441D01*
X364314Y432553D01*
X364656Y431726D01*
X365201Y431016D01*
X365911Y430471D01*
X366738Y430128D01*
X367626Y430011D01*
X368514Y430128D01*
X369341Y430471D01*
X370051Y431016D01*
X370596Y431726D01*
X370938Y432553D01*
X371055Y433441D01*
X370938Y434328D01*
X370596Y435155D01*
X370051Y435866D01*
X369341Y436411D01*
X368514Y436753D01*
X367626Y436870D01*
D02*
G37*
G36*
X334028D02*
X333140Y436753D01*
X332313Y436411D01*
X331603Y435866D01*
X331058Y435155D01*
X330715Y434328D01*
X330598Y433441D01*
X330715Y432553D01*
X331058Y431726D01*
X331603Y431016D01*
X332313Y430471D01*
X333140Y430128D01*
X334028Y430011D01*
X334915Y430128D01*
X335742Y430471D01*
X336453Y431016D01*
X336998Y431726D01*
X337340Y432553D01*
X337457Y433441D01*
X337340Y434328D01*
X336998Y435155D01*
X336453Y435866D01*
X335742Y436411D01*
X334915Y436753D01*
X334028Y436870D01*
D02*
G37*
G36*
X322224D02*
X321337Y436753D01*
X320510Y436411D01*
X319799Y435866D01*
X319254Y435155D01*
X318912Y434328D01*
X318795Y433441D01*
X318912Y432553D01*
X319254Y431726D01*
X319799Y431016D01*
X320510Y430471D01*
X321337Y430128D01*
X322224Y430011D01*
X323112Y430128D01*
X323939Y430471D01*
X324649Y431016D01*
X325194Y431726D01*
X325537Y432553D01*
X325654Y433441D01*
X325537Y434328D01*
X325194Y435155D01*
X324649Y435866D01*
X323939Y436411D01*
X323112Y436753D01*
X322224Y436870D01*
D02*
G37*
G36*
X291528D02*
X290640Y436753D01*
X289813Y436411D01*
X289103Y435866D01*
X288558Y435155D01*
X288215Y434328D01*
X288098Y433441D01*
X288215Y432553D01*
X288558Y431726D01*
X289103Y431016D01*
X289813Y430471D01*
X290640Y430128D01*
X291528Y430011D01*
X292415Y430128D01*
X293242Y430471D01*
X293952Y431016D01*
X294497Y431726D01*
X294840Y432553D01*
X294957Y433441D01*
X294840Y434328D01*
X294497Y435155D01*
X293952Y435866D01*
X293242Y436411D01*
X292415Y436753D01*
X291528Y436870D01*
D02*
G37*
G36*
X279724D02*
X278837Y436753D01*
X278010Y436411D01*
X277299Y435866D01*
X276754Y435155D01*
X276412Y434328D01*
X276295Y433441D01*
X276412Y432553D01*
X276754Y431726D01*
X277299Y431016D01*
X278010Y430471D01*
X278837Y430128D01*
X279724Y430011D01*
X280612Y430128D01*
X281439Y430471D01*
X282149Y431016D01*
X282694Y431726D01*
X283037Y432553D01*
X283154Y433441D01*
X283037Y434328D01*
X282694Y435155D01*
X282149Y435866D01*
X281439Y436411D01*
X280612Y436753D01*
X279724Y436870D01*
D02*
G37*
G36*
X249028D02*
X248140Y436753D01*
X247313Y436411D01*
X246603Y435866D01*
X246058Y435155D01*
X245715Y434328D01*
X245598Y433441D01*
X245715Y432553D01*
X246058Y431726D01*
X246603Y431016D01*
X247313Y430471D01*
X248140Y430128D01*
X249028Y430011D01*
X249915Y430128D01*
X250742Y430471D01*
X251452Y431016D01*
X251997Y431726D01*
X252340Y432553D01*
X252457Y433441D01*
X252340Y434328D01*
X251997Y435155D01*
X251452Y435866D01*
X250742Y436411D01*
X249915Y436753D01*
X249028Y436870D01*
D02*
G37*
G36*
X237224D02*
X236337Y436753D01*
X235510Y436411D01*
X234800Y435866D01*
X234255Y435155D01*
X233912Y434328D01*
X233795Y433441D01*
X233912Y432553D01*
X234255Y431726D01*
X234800Y431016D01*
X235510Y430471D01*
X236337Y430128D01*
X237224Y430011D01*
X238112Y430128D01*
X238939Y430471D01*
X239649Y431016D01*
X240194Y431726D01*
X240537Y432553D01*
X240654Y433441D01*
X240537Y434328D01*
X240194Y435155D01*
X239649Y435866D01*
X238939Y436411D01*
X238112Y436753D01*
X237224Y436870D01*
D02*
G37*
G36*
X206724D02*
X205837Y436753D01*
X205010Y436411D01*
X204299Y435866D01*
X203754Y435155D01*
X203412Y434328D01*
X203295Y433441D01*
X203412Y432553D01*
X203754Y431726D01*
X204299Y431016D01*
X205010Y430471D01*
X205837Y430128D01*
X206724Y430011D01*
X207612Y430128D01*
X208439Y430471D01*
X209149Y431016D01*
X209694Y431726D01*
X210037Y432553D01*
X210154Y433441D01*
X210037Y434328D01*
X209694Y435155D01*
X209149Y435866D01*
X208439Y436411D01*
X207612Y436753D01*
X206724Y436870D01*
D02*
G37*
G36*
X194874D02*
X193986Y436753D01*
X193159Y436411D01*
X192449Y435866D01*
X191904Y435155D01*
X191561Y434328D01*
X191445Y433441D01*
X191561Y432553D01*
X191904Y431726D01*
X192449Y431016D01*
X193159Y430471D01*
X193986Y430128D01*
X194874Y430011D01*
X195762Y430128D01*
X196589Y430471D01*
X197299Y431016D01*
X197844Y431726D01*
X198187Y432553D01*
X198303Y433441D01*
X198187Y434328D01*
X197844Y435155D01*
X197299Y435866D01*
X196589Y436411D01*
X195762Y436753D01*
X194874Y436870D01*
D02*
G37*
G36*
X183126D02*
X182238Y436753D01*
X181411Y436411D01*
X180701Y435866D01*
X180156Y435155D01*
X179814Y434328D01*
X179697Y433441D01*
X179814Y432553D01*
X180156Y431726D01*
X180701Y431016D01*
X181411Y430471D01*
X182238Y430128D01*
X183126Y430011D01*
X184014Y430128D01*
X184841Y430471D01*
X185551Y431016D01*
X186096Y431726D01*
X186439Y432553D01*
X186555Y433441D01*
X186439Y434328D01*
X186096Y435155D01*
X185551Y435866D01*
X184841Y436411D01*
X184014Y436753D01*
X183126Y436870D01*
D02*
G37*
G36*
X171378D02*
X170490Y436753D01*
X169663Y436411D01*
X168953Y435866D01*
X168408Y435155D01*
X168066Y434328D01*
X167949Y433441D01*
X168066Y432553D01*
X168408Y431726D01*
X168953Y431016D01*
X169663Y430471D01*
X170490Y430128D01*
X171378Y430011D01*
X172266Y430128D01*
X173093Y430471D01*
X173803Y431016D01*
X174348Y431726D01*
X174690Y432553D01*
X174807Y433441D01*
X174690Y434328D01*
X174348Y435155D01*
X173803Y435866D01*
X173093Y436411D01*
X172266Y436753D01*
X171378Y436870D01*
D02*
G37*
G36*
X159528D02*
X158640Y436753D01*
X157813Y436411D01*
X157103Y435866D01*
X156558Y435155D01*
X156215Y434328D01*
X156098Y433441D01*
X156215Y432553D01*
X156558Y431726D01*
X157103Y431016D01*
X157813Y430471D01*
X158640Y430128D01*
X159528Y430011D01*
X160415Y430128D01*
X161242Y430471D01*
X161952Y431016D01*
X162497Y431726D01*
X162840Y432553D01*
X162957Y433441D01*
X162840Y434328D01*
X162497Y435155D01*
X161952Y435866D01*
X161242Y436411D01*
X160415Y436753D01*
X159528Y436870D01*
D02*
G37*
G36*
X282717Y410453D02*
X281713Y410321D01*
X280778Y409934D01*
X279975Y409317D01*
X279359Y408514D01*
X278971Y407579D01*
X278839Y406575D01*
X278971Y405571D01*
X279359Y404636D01*
X279975Y403833D01*
X280778Y403217D01*
X281713Y402829D01*
X282717Y402697D01*
X283721Y402829D01*
X284656Y403217D01*
X285459Y403833D01*
X286075Y404636D01*
X286463Y405571D01*
X286595Y406575D01*
X286463Y407579D01*
X286075Y408514D01*
X285459Y409317D01*
X284656Y409934D01*
X283721Y410321D01*
X282717Y410453D01*
D02*
G37*
G36*
X272717D02*
X271713Y410321D01*
X270778Y409934D01*
X269975Y409317D01*
X269358Y408514D01*
X268971Y407579D01*
X268839Y406575D01*
X268971Y405571D01*
X269358Y404636D01*
X269975Y403833D01*
X270778Y403217D01*
X271713Y402829D01*
X272717Y402697D01*
X273721Y402829D01*
X274656Y403217D01*
X275459Y403833D01*
X276076Y404636D01*
X276463Y405571D01*
X276595Y406575D01*
X276463Y407579D01*
X276076Y408514D01*
X275459Y409317D01*
X274656Y409934D01*
X273721Y410321D01*
X272717Y410453D01*
D02*
G37*
G36*
X262717D02*
X261713Y410321D01*
X260778Y409934D01*
X259975Y409317D01*
X259359Y408514D01*
X258971Y407579D01*
X258839Y406575D01*
X258971Y405571D01*
X259359Y404636D01*
X259975Y403833D01*
X260778Y403217D01*
X261713Y402829D01*
X262717Y402697D01*
X263721Y402829D01*
X264656Y403217D01*
X265459Y403833D01*
X266075Y404636D01*
X266463Y405571D01*
X266595Y406575D01*
X266463Y407579D01*
X266075Y408514D01*
X265459Y409317D01*
X264656Y409934D01*
X263721Y410321D01*
X262717Y410453D01*
D02*
G37*
G36*
X252717D02*
X251713Y410321D01*
X250778Y409934D01*
X249975Y409317D01*
X249359Y408514D01*
X248971Y407579D01*
X248839Y406575D01*
X248971Y405571D01*
X249359Y404636D01*
X249975Y403833D01*
X250778Y403217D01*
X251713Y402829D01*
X252717Y402697D01*
X253721Y402829D01*
X254656Y403217D01*
X255459Y403833D01*
X256076Y404636D01*
X256463Y405571D01*
X256595Y406575D01*
X256463Y407579D01*
X256076Y408514D01*
X255459Y409317D01*
X254656Y409934D01*
X253721Y410321D01*
X252717Y410453D01*
D02*
G37*
G36*
X282717Y400453D02*
X281713Y400321D01*
X280778Y399934D01*
X279975Y399317D01*
X279359Y398514D01*
X278971Y397579D01*
X278839Y396575D01*
X278971Y395571D01*
X279359Y394636D01*
X279975Y393833D01*
X280778Y393216D01*
X281713Y392829D01*
X282717Y392697D01*
X283721Y392829D01*
X284656Y393216D01*
X285459Y393833D01*
X286075Y394636D01*
X286463Y395571D01*
X286595Y396575D01*
X286463Y397579D01*
X286075Y398514D01*
X285459Y399317D01*
X284656Y399934D01*
X283721Y400321D01*
X282717Y400453D01*
D02*
G37*
G36*
X272717D02*
X271713Y400321D01*
X270778Y399934D01*
X269975Y399317D01*
X269358Y398514D01*
X268971Y397579D01*
X268839Y396575D01*
X268971Y395571D01*
X269358Y394636D01*
X269975Y393833D01*
X270778Y393216D01*
X271713Y392829D01*
X272717Y392697D01*
X273721Y392829D01*
X274656Y393216D01*
X275459Y393833D01*
X276076Y394636D01*
X276463Y395571D01*
X276595Y396575D01*
X276463Y397579D01*
X276076Y398514D01*
X275459Y399317D01*
X274656Y399934D01*
X273721Y400321D01*
X272717Y400453D01*
D02*
G37*
G36*
X252717D02*
X251713Y400321D01*
X250778Y399934D01*
X249975Y399317D01*
X249359Y398514D01*
X248971Y397579D01*
X248839Y396575D01*
X248971Y395571D01*
X249359Y394636D01*
X249975Y393833D01*
X250778Y393216D01*
X251713Y392829D01*
X252717Y392697D01*
X253721Y392829D01*
X254656Y393216D01*
X255459Y393833D01*
X256076Y394636D01*
X256463Y395571D01*
X256595Y396575D01*
X256463Y397579D01*
X256076Y398514D01*
X255459Y399317D01*
X254656Y399934D01*
X253721Y400321D01*
X252717Y400453D01*
D02*
G37*
G36*
X314961Y407924D02*
X312736Y407749D01*
X310565Y407228D01*
X308503Y406374D01*
X306600Y405208D01*
X304903Y403758D01*
X303454Y402061D01*
X302288Y400158D01*
X301433Y398096D01*
X300912Y395926D01*
X300737Y393701D01*
X300912Y391476D01*
X301433Y389305D01*
X302288Y387244D01*
X303454Y385340D01*
X304903Y383643D01*
X306600Y382194D01*
X308503Y381028D01*
X310565Y380173D01*
X312736Y379653D01*
X314961Y379477D01*
X317186Y379653D01*
X319356Y380173D01*
X321418Y381028D01*
X323321Y382194D01*
X325018Y383643D01*
X326468Y385340D01*
X327634Y387244D01*
X328488Y389305D01*
X329009Y391476D01*
X329184Y393701D01*
X329009Y395926D01*
X328488Y398096D01*
X327634Y400158D01*
X326468Y402061D01*
X325018Y403758D01*
X323321Y405208D01*
X321418Y406374D01*
X319356Y407228D01*
X317186Y407749D01*
X314961Y407924D01*
D02*
G37*
G36*
X252717Y383934D02*
X251688Y383799D01*
X250729Y383401D01*
X249905Y382769D01*
X249273Y381945D01*
X248875Y380986D01*
X248740Y379957D01*
X248875Y378928D01*
X249273Y377969D01*
X249905Y377145D01*
X250729Y376513D01*
X251688Y376115D01*
X252717Y375980D01*
X253746Y376115D01*
X254706Y376513D01*
X255529Y377145D01*
X256161Y377969D01*
X256558Y378928D01*
X256694Y379957D01*
X256558Y380986D01*
X256161Y381945D01*
X255529Y382769D01*
X254706Y383401D01*
X253746Y383799D01*
X252717Y383934D01*
D02*
G37*
G36*
X431500Y377252D02*
X430922Y377137D01*
X430431Y376809D01*
X430103Y376319D01*
X429988Y375740D01*
X430103Y375162D01*
X430431Y374671D01*
X430922Y374343D01*
X431500Y374228D01*
X432079Y374343D01*
X432569Y374671D01*
X432897Y375162D01*
X433012Y375740D01*
X432897Y376319D01*
X432569Y376809D01*
X432079Y377137D01*
X431500Y377252D01*
D02*
G37*
G36*
X427500D02*
X426922Y377137D01*
X426431Y376809D01*
X426103Y376319D01*
X425988Y375740D01*
X426103Y375162D01*
X426431Y374671D01*
X426922Y374343D01*
X427500Y374228D01*
X428079Y374343D01*
X428569Y374671D01*
X428897Y375162D01*
X429012Y375740D01*
X428897Y376319D01*
X428569Y376809D01*
X428079Y377137D01*
X427500Y377252D01*
D02*
G37*
G36*
X176250Y365252D02*
X175672Y365137D01*
X175181Y364809D01*
X174853Y364318D01*
X174738Y363740D01*
X174853Y363161D01*
X175181Y362671D01*
X175672Y362343D01*
X176250Y362228D01*
X176829Y362343D01*
X177319Y362671D01*
X177647Y363161D01*
X177762Y363740D01*
X177647Y364318D01*
X177319Y364809D01*
X176829Y365137D01*
X176250Y365252D01*
D02*
G37*
G36*
X171250Y364002D02*
X170671Y363887D01*
X170181Y363559D01*
X169853Y363069D01*
X169738Y362490D01*
X169853Y361912D01*
X170181Y361421D01*
X170671Y361093D01*
X171250Y360978D01*
X171828Y361093D01*
X172319Y361421D01*
X172647Y361912D01*
X172762Y362490D01*
X172647Y363069D01*
X172319Y363559D01*
X171828Y363887D01*
X171250Y364002D01*
D02*
G37*
G36*
X441500Y325752D02*
X440921Y325637D01*
X440431Y325309D01*
X440103Y324818D01*
X439988Y324240D01*
X440103Y323661D01*
X440431Y323171D01*
X440921Y322843D01*
X441500Y322728D01*
X442078Y322843D01*
X442569Y323171D01*
X442897Y323661D01*
X443012Y324240D01*
X442897Y324818D01*
X442569Y325309D01*
X442078Y325637D01*
X441500Y325752D01*
D02*
G37*
G36*
X405000D02*
X404422Y325637D01*
X403931Y325309D01*
X403603Y324818D01*
X403488Y324240D01*
X403603Y323661D01*
X403931Y323171D01*
X404422Y322843D01*
X405000Y322728D01*
X405579Y322843D01*
X406069Y323171D01*
X406397Y323661D01*
X406512Y324240D01*
X406397Y324818D01*
X406069Y325309D01*
X405579Y325637D01*
X405000Y325752D01*
D02*
G37*
G36*
X441500Y321752D02*
X440921Y321637D01*
X440431Y321309D01*
X440103Y320818D01*
X439988Y320240D01*
X440103Y319661D01*
X440431Y319171D01*
X440921Y318843D01*
X441500Y318728D01*
X442078Y318843D01*
X442569Y319171D01*
X442897Y319661D01*
X443012Y320240D01*
X442897Y320818D01*
X442569Y321309D01*
X442078Y321637D01*
X441500Y321752D01*
D02*
G37*
G36*
X405000D02*
X404422Y321637D01*
X403931Y321309D01*
X403603Y320818D01*
X403488Y320240D01*
X403603Y319661D01*
X403931Y319171D01*
X404422Y318843D01*
X405000Y318728D01*
X405579Y318843D01*
X406069Y319171D01*
X406397Y319661D01*
X406512Y320240D01*
X406397Y320818D01*
X406069Y321309D01*
X405579Y321637D01*
X405000Y321752D01*
D02*
G37*
G36*
X302500Y316252D02*
X301922Y316137D01*
X301431Y315809D01*
X301103Y315318D01*
X300988Y314740D01*
X301103Y314161D01*
X301431Y313671D01*
X301922Y313343D01*
X302500Y313228D01*
X303079Y313343D01*
X303569Y313671D01*
X303897Y314161D01*
X304012Y314740D01*
X303897Y315318D01*
X303569Y315809D01*
X303079Y316137D01*
X302500Y316252D01*
D02*
G37*
G36*
X298500D02*
X297921Y316137D01*
X297431Y315809D01*
X297103Y315318D01*
X296988Y314740D01*
X297103Y314161D01*
X297431Y313671D01*
X297921Y313343D01*
X298500Y313228D01*
X299078Y313343D01*
X299569Y313671D01*
X299897Y314161D01*
X300012Y314740D01*
X299897Y315318D01*
X299569Y315809D01*
X299078Y316137D01*
X298500Y316252D01*
D02*
G37*
G36*
X275000D02*
X274422Y316137D01*
X273931Y315809D01*
X273603Y315318D01*
X273488Y314740D01*
X273603Y314161D01*
X273931Y313671D01*
X274422Y313343D01*
X275000Y313228D01*
X275578Y313343D01*
X276069Y313671D01*
X276397Y314161D01*
X276512Y314740D01*
X276397Y315318D01*
X276069Y315809D01*
X275578Y316137D01*
X275000Y316252D01*
D02*
G37*
G36*
X271000D02*
X270422Y316137D01*
X269931Y315809D01*
X269603Y315318D01*
X269488Y314740D01*
X269603Y314161D01*
X269931Y313671D01*
X270422Y313343D01*
X271000Y313228D01*
X271579Y313343D01*
X272069Y313671D01*
X272397Y314161D01*
X272512Y314740D01*
X272397Y315318D01*
X272069Y315809D01*
X271579Y316137D01*
X271000Y316252D01*
D02*
G37*
G36*
X247500D02*
X246921Y316137D01*
X246431Y315809D01*
X246103Y315318D01*
X245988Y314740D01*
X246103Y314161D01*
X246431Y313671D01*
X246921Y313343D01*
X247500Y313228D01*
X248078Y313343D01*
X248569Y313671D01*
X248897Y314161D01*
X249012Y314740D01*
X248897Y315318D01*
X248569Y315809D01*
X248078Y316137D01*
X247500Y316252D01*
D02*
G37*
G36*
X243500D02*
X242921Y316137D01*
X242431Y315809D01*
X242103Y315318D01*
X241988Y314740D01*
X242103Y314161D01*
X242431Y313671D01*
X242921Y313343D01*
X243500Y313228D01*
X244078Y313343D01*
X244569Y313671D01*
X244897Y314161D01*
X245012Y314740D01*
X244897Y315318D01*
X244569Y315809D01*
X244078Y316137D01*
X243500Y316252D01*
D02*
G37*
G36*
X441500Y298252D02*
X440921Y298137D01*
X440431Y297809D01*
X440103Y297319D01*
X439988Y296740D01*
X440103Y296162D01*
X440431Y295671D01*
X440921Y295343D01*
X441500Y295228D01*
X442078Y295343D01*
X442569Y295671D01*
X442897Y296162D01*
X443012Y296740D01*
X442897Y297319D01*
X442569Y297809D01*
X442078Y298137D01*
X441500Y298252D01*
D02*
G37*
G36*
X405000D02*
X404422Y298137D01*
X403931Y297809D01*
X403603Y297319D01*
X403488Y296740D01*
X403603Y296162D01*
X403931Y295671D01*
X404422Y295343D01*
X405000Y295228D01*
X405579Y295343D01*
X406069Y295671D01*
X406397Y296162D01*
X406512Y296740D01*
X406397Y297319D01*
X406069Y297809D01*
X405579Y298137D01*
X405000Y298252D01*
D02*
G37*
G36*
X441500Y294252D02*
X440921Y294137D01*
X440431Y293809D01*
X440103Y293319D01*
X439988Y292740D01*
X440103Y292161D01*
X440431Y291671D01*
X440921Y291343D01*
X441500Y291228D01*
X442078Y291343D01*
X442569Y291671D01*
X442897Y292161D01*
X443012Y292740D01*
X442897Y293319D01*
X442569Y293809D01*
X442078Y294137D01*
X441500Y294252D01*
D02*
G37*
G36*
X405000D02*
X404422Y294137D01*
X403931Y293809D01*
X403603Y293319D01*
X403488Y292740D01*
X403603Y292161D01*
X403931Y291671D01*
X404422Y291343D01*
X405000Y291228D01*
X405579Y291343D01*
X406069Y291671D01*
X406397Y292161D01*
X406512Y292740D01*
X406397Y293319D01*
X406069Y293809D01*
X405579Y294137D01*
X405000Y294252D01*
D02*
G37*
G36*
X442000Y270752D02*
X441422Y270637D01*
X440931Y270309D01*
X440603Y269818D01*
X440488Y269240D01*
X440603Y268661D01*
X440931Y268171D01*
X441422Y267843D01*
X442000Y267728D01*
X442579Y267843D01*
X443069Y268171D01*
X443397Y268661D01*
X443512Y269240D01*
X443397Y269818D01*
X443069Y270309D01*
X442579Y270637D01*
X442000Y270752D01*
D02*
G37*
G36*
X404500D02*
X403922Y270637D01*
X403431Y270309D01*
X403103Y269818D01*
X402988Y269240D01*
X403103Y268661D01*
X403431Y268171D01*
X403922Y267843D01*
X404500Y267728D01*
X405079Y267843D01*
X405569Y268171D01*
X405897Y268661D01*
X406012Y269240D01*
X405897Y269818D01*
X405569Y270309D01*
X405079Y270637D01*
X404500Y270752D01*
D02*
G37*
G36*
X442000Y266752D02*
X441422Y266637D01*
X440931Y266309D01*
X440603Y265819D01*
X440488Y265240D01*
X440603Y264662D01*
X440931Y264171D01*
X441422Y263843D01*
X442000Y263728D01*
X442579Y263843D01*
X443069Y264171D01*
X443397Y264662D01*
X443512Y265240D01*
X443397Y265819D01*
X443069Y266309D01*
X442579Y266637D01*
X442000Y266752D01*
D02*
G37*
G36*
X404500Y266252D02*
X403922Y266137D01*
X403431Y265809D01*
X403103Y265318D01*
X402988Y264740D01*
X403103Y264161D01*
X403431Y263671D01*
X403922Y263343D01*
X404500Y263228D01*
X405079Y263343D01*
X405569Y263671D01*
X405897Y264161D01*
X406012Y264740D01*
X405897Y265318D01*
X405569Y265809D01*
X405079Y266137D01*
X404500Y266252D01*
D02*
G37*
G36*
X596750Y464502D02*
X596172Y464387D01*
X595681Y464059D01*
X595353Y463568D01*
X595238Y462990D01*
X595353Y462411D01*
X595681Y461921D01*
X596172Y461593D01*
X596750Y461478D01*
X597329Y461593D01*
X597819Y461921D01*
X598147Y462411D01*
X598262Y462990D01*
X598147Y463568D01*
X597819Y464059D01*
X597329Y464387D01*
X596750Y464502D01*
D02*
G37*
G36*
X538625Y462002D02*
X538047Y461887D01*
X537556Y461559D01*
X537228Y461068D01*
X537113Y460490D01*
X537228Y459911D01*
X537556Y459421D01*
X538047Y459093D01*
X538625Y458978D01*
X539204Y459093D01*
X539694Y459421D01*
X540022Y459911D01*
X540137Y460490D01*
X540022Y461068D01*
X539694Y461559D01*
X539204Y461887D01*
X538625Y462002D01*
D02*
G37*
G36*
X510177Y468771D02*
X508903Y468646D01*
X507678Y468274D01*
X506549Y467670D01*
X505559Y466858D01*
X504747Y465869D01*
X504143Y464739D01*
X503772Y463514D01*
X503646Y462240D01*
X503772Y460966D01*
X504143Y459741D01*
X504747Y458611D01*
X505559Y457622D01*
X506549Y456810D01*
X507678Y456206D01*
X508903Y455834D01*
X510177Y455709D01*
X511451Y455834D01*
X512676Y456206D01*
X513806Y456810D01*
X514795Y457622D01*
X515608Y458611D01*
X516211Y459741D01*
X516583Y460966D01*
X516708Y462240D01*
X516583Y463514D01*
X516211Y464739D01*
X515608Y465869D01*
X514795Y466858D01*
X513806Y467670D01*
X512676Y468274D01*
X511451Y468646D01*
X510177Y468771D01*
D02*
G37*
G36*
X468075D02*
X466801Y468646D01*
X465576Y468274D01*
X464446Y467670D01*
X463457Y466858D01*
X462644Y465869D01*
X462041Y464739D01*
X461669Y463514D01*
X461544Y462240D01*
X461669Y460966D01*
X462041Y459741D01*
X462644Y458611D01*
X463457Y457622D01*
X464446Y456810D01*
X465576Y456206D01*
X466801Y455834D01*
X468075Y455709D01*
X469349Y455834D01*
X470574Y456206D01*
X471703Y456810D01*
X472693Y457622D01*
X473505Y458611D01*
X474109Y459741D01*
X474480Y460966D01*
X474606Y462240D01*
X474480Y463514D01*
X474109Y464739D01*
X473505Y465869D01*
X472693Y466858D01*
X471703Y467670D01*
X470574Y468274D01*
X469349Y468646D01*
X468075Y468771D01*
D02*
G37*
G36*
X518626Y448669D02*
X517738Y448553D01*
X516911Y448210D01*
X516201Y447665D01*
X515656Y446955D01*
X515313Y446128D01*
X515197Y445240D01*
X515313Y444352D01*
X515656Y443525D01*
X516201Y442815D01*
X516911Y442270D01*
X517738Y441927D01*
X518626Y441811D01*
X519514Y441927D01*
X520341Y442270D01*
X521051Y442815D01*
X521596Y443525D01*
X521939Y444352D01*
X522055Y445240D01*
X521939Y446128D01*
X521596Y446955D01*
X521051Y447665D01*
X520341Y448210D01*
X519514Y448553D01*
X518626Y448669D01*
D02*
G37*
G36*
X506827D02*
X505939Y448553D01*
X505112Y448210D01*
X504402Y447665D01*
X503857Y446955D01*
X503514Y446128D01*
X503398Y445240D01*
X503514Y444352D01*
X503857Y443525D01*
X504402Y442815D01*
X505112Y442270D01*
X505939Y441927D01*
X506827Y441811D01*
X507714Y441927D01*
X508541Y442270D01*
X509252Y442815D01*
X509797Y443525D01*
X510139Y444352D01*
X510256Y445240D01*
X510139Y446128D01*
X509797Y446955D01*
X509252Y447665D01*
X508541Y448210D01*
X507714Y448553D01*
X506827Y448669D01*
D02*
G37*
G36*
X495028D02*
X494140Y448553D01*
X493313Y448210D01*
X492603Y447665D01*
X492058Y446955D01*
X491715Y446128D01*
X491598Y445240D01*
X491715Y444352D01*
X492058Y443525D01*
X492603Y442815D01*
X493313Y442270D01*
X494140Y441927D01*
X495028Y441811D01*
X495915Y441927D01*
X496742Y442270D01*
X497452Y442815D01*
X497998Y443525D01*
X498340Y444352D01*
X498457Y445240D01*
X498340Y446128D01*
X497998Y446955D01*
X497452Y447665D01*
X496742Y448210D01*
X495915Y448553D01*
X495028Y448669D01*
D02*
G37*
G36*
X483224D02*
X482337Y448553D01*
X481510Y448210D01*
X480799Y447665D01*
X480255Y446955D01*
X479912Y446128D01*
X479795Y445240D01*
X479912Y444352D01*
X480255Y443525D01*
X480799Y442815D01*
X481510Y442270D01*
X482337Y441927D01*
X483224Y441811D01*
X484112Y441927D01*
X484939Y442270D01*
X485649Y442815D01*
X486194Y443525D01*
X486537Y444352D01*
X486654Y445240D01*
X486537Y446128D01*
X486194Y446955D01*
X485649Y447665D01*
X484939Y448210D01*
X484112Y448553D01*
X483224Y448669D01*
D02*
G37*
G36*
X471425D02*
X470538Y448553D01*
X469710Y448210D01*
X469000Y447665D01*
X468455Y446955D01*
X468113Y446128D01*
X467996Y445240D01*
X468113Y444352D01*
X468455Y443525D01*
X469000Y442815D01*
X469710Y442270D01*
X470538Y441927D01*
X471425Y441811D01*
X472313Y441927D01*
X473140Y442270D01*
X473850Y442815D01*
X474395Y443525D01*
X474738Y444352D01*
X474855Y445240D01*
X474738Y446128D01*
X474395Y446955D01*
X473850Y447665D01*
X473140Y448210D01*
X472313Y448553D01*
X471425Y448669D01*
D02*
G37*
G36*
X459626D02*
X458738Y448553D01*
X457911Y448210D01*
X457201Y447665D01*
X456656Y446955D01*
X456314Y446128D01*
X456197Y445240D01*
X456314Y444352D01*
X456656Y443525D01*
X457201Y442815D01*
X457911Y442270D01*
X458738Y441927D01*
X459626Y441811D01*
X460514Y441927D01*
X461341Y442270D01*
X462051Y442815D01*
X462596Y443525D01*
X462938Y444352D01*
X463055Y445240D01*
X462938Y446128D01*
X462596Y446955D01*
X462051Y447665D01*
X461341Y448210D01*
X460514Y448553D01*
X459626Y448669D01*
D02*
G37*
G36*
X518626Y436870D02*
X517738Y436753D01*
X516911Y436411D01*
X516201Y435866D01*
X515656Y435155D01*
X515313Y434328D01*
X515197Y433441D01*
X515313Y432553D01*
X515656Y431726D01*
X516201Y431016D01*
X516911Y430471D01*
X517738Y430128D01*
X518626Y430011D01*
X519514Y430128D01*
X520341Y430471D01*
X521051Y431016D01*
X521596Y431726D01*
X521939Y432553D01*
X522055Y433441D01*
X521939Y434328D01*
X521596Y435155D01*
X521051Y435866D01*
X520341Y436411D01*
X519514Y436753D01*
X518626Y436870D01*
D02*
G37*
G36*
X506827D02*
X505939Y436753D01*
X505112Y436411D01*
X504402Y435866D01*
X503857Y435155D01*
X503514Y434328D01*
X503398Y433441D01*
X503514Y432553D01*
X503857Y431726D01*
X504402Y431016D01*
X505112Y430471D01*
X505939Y430128D01*
X506827Y430011D01*
X507714Y430128D01*
X508541Y430471D01*
X509252Y431016D01*
X509797Y431726D01*
X510139Y432553D01*
X510256Y433441D01*
X510139Y434328D01*
X509797Y435155D01*
X509252Y435866D01*
X508541Y436411D01*
X507714Y436753D01*
X506827Y436870D01*
D02*
G37*
G36*
X495028D02*
X494140Y436753D01*
X493313Y436411D01*
X492603Y435866D01*
X492058Y435155D01*
X491715Y434328D01*
X491598Y433441D01*
X491715Y432553D01*
X492058Y431726D01*
X492603Y431016D01*
X493313Y430471D01*
X494140Y430128D01*
X495028Y430011D01*
X495915Y430128D01*
X496742Y430471D01*
X497452Y431016D01*
X497998Y431726D01*
X498340Y432553D01*
X498457Y433441D01*
X498340Y434328D01*
X497998Y435155D01*
X497452Y435866D01*
X496742Y436411D01*
X495915Y436753D01*
X495028Y436870D01*
D02*
G37*
G36*
X483224D02*
X482337Y436753D01*
X481510Y436411D01*
X480799Y435866D01*
X480255Y435155D01*
X479912Y434328D01*
X479795Y433441D01*
X479912Y432553D01*
X480255Y431726D01*
X480799Y431016D01*
X481510Y430471D01*
X482337Y430128D01*
X483224Y430011D01*
X484112Y430128D01*
X484939Y430471D01*
X485649Y431016D01*
X486194Y431726D01*
X486537Y432553D01*
X486654Y433441D01*
X486537Y434328D01*
X486194Y435155D01*
X485649Y435866D01*
X484939Y436411D01*
X484112Y436753D01*
X483224Y436870D01*
D02*
G37*
G36*
X471425D02*
X470538Y436753D01*
X469710Y436411D01*
X469000Y435866D01*
X468455Y435155D01*
X468113Y434328D01*
X467996Y433441D01*
X468113Y432553D01*
X468455Y431726D01*
X469000Y431016D01*
X469710Y430471D01*
X470538Y430128D01*
X471425Y430011D01*
X472313Y430128D01*
X473140Y430471D01*
X473850Y431016D01*
X474395Y431726D01*
X474738Y432553D01*
X474855Y433441D01*
X474738Y434328D01*
X474395Y435155D01*
X473850Y435866D01*
X473140Y436411D01*
X472313Y436753D01*
X471425Y436870D01*
D02*
G37*
G36*
X459626D02*
X458738Y436753D01*
X457911Y436411D01*
X457201Y435866D01*
X456656Y435155D01*
X456314Y434328D01*
X456197Y433441D01*
X456314Y432553D01*
X456656Y431726D01*
X457201Y431016D01*
X457911Y430471D01*
X458738Y430128D01*
X459626Y430011D01*
X460514Y430128D01*
X461341Y430471D01*
X462051Y431016D01*
X462596Y431726D01*
X462938Y432553D01*
X463055Y433441D01*
X462938Y434328D01*
X462596Y435155D01*
X462051Y435866D01*
X461341Y436411D01*
X460514Y436753D01*
X459626Y436870D01*
D02*
G37*
G36*
X528500Y427752D02*
X527921Y427637D01*
X527431Y427309D01*
X527103Y426819D01*
X526988Y426240D01*
X527103Y425662D01*
X527431Y425171D01*
X527921Y424843D01*
X528500Y424728D01*
X529078Y424843D01*
X529569Y425171D01*
X529897Y425662D01*
X530012Y426240D01*
X529897Y426819D01*
X529569Y427309D01*
X529078Y427637D01*
X528500Y427752D01*
D02*
G37*
G36*
X562200Y421012D02*
X561622Y420897D01*
X561131Y420569D01*
X560803Y420079D01*
X560688Y419500D01*
X560803Y418922D01*
X561131Y418431D01*
X561622Y418103D01*
X562200Y417988D01*
X562779Y418103D01*
X563269Y418431D01*
X563597Y418922D01*
X563712Y419500D01*
X563597Y420079D01*
X563269Y420569D01*
X562779Y420897D01*
X562200Y421012D01*
D02*
G37*
G36*
X584200Y420712D02*
X583622Y420597D01*
X583131Y420269D01*
X582803Y419778D01*
X582688Y419200D01*
X582803Y418621D01*
X583131Y418131D01*
X583622Y417803D01*
X584200Y417688D01*
X584778Y417803D01*
X585269Y418131D01*
X585597Y418621D01*
X585712Y419200D01*
X585597Y419778D01*
X585269Y420269D01*
X584778Y420597D01*
X584200Y420712D01*
D02*
G37*
G36*
X508000Y419512D02*
X507421Y419397D01*
X506931Y419069D01*
X506603Y418578D01*
X506488Y418000D01*
X506603Y417421D01*
X506931Y416931D01*
X507421Y416603D01*
X508000Y416488D01*
X508578Y416603D01*
X509069Y416931D01*
X509397Y417421D01*
X509512Y418000D01*
X509397Y418578D01*
X509069Y419069D01*
X508578Y419397D01*
X508000Y419512D01*
D02*
G37*
G36*
X579250Y407002D02*
X578672Y406887D01*
X578181Y406559D01*
X577853Y406069D01*
X577738Y405490D01*
X577853Y404912D01*
X578181Y404421D01*
X578672Y404093D01*
X579250Y403978D01*
X579829Y404093D01*
X580319Y404421D01*
X580647Y404912D01*
X580762Y405490D01*
X580647Y406069D01*
X580319Y406559D01*
X579829Y406887D01*
X579250Y407002D01*
D02*
G37*
G36*
X540000Y404752D02*
X539422Y404637D01*
X538931Y404309D01*
X538603Y403819D01*
X538488Y403240D01*
X538603Y402662D01*
X538931Y402171D01*
X539422Y401843D01*
X540000Y401728D01*
X540579Y401843D01*
X541069Y402171D01*
X541397Y402662D01*
X541512Y403240D01*
X541397Y403819D01*
X541069Y404309D01*
X540579Y404637D01*
X540000Y404752D01*
D02*
G37*
G36*
X546000Y401752D02*
X545422Y401637D01*
X544931Y401309D01*
X544603Y400818D01*
X544488Y400240D01*
X544603Y399661D01*
X544931Y399171D01*
X545422Y398843D01*
X546000Y398728D01*
X546579Y398843D01*
X547069Y399171D01*
X547397Y399661D01*
X547512Y400240D01*
X547397Y400818D01*
X547069Y401309D01*
X546579Y401637D01*
X546000Y401752D01*
D02*
G37*
G36*
X560500Y400752D02*
X559922Y400637D01*
X559431Y400309D01*
X559103Y399818D01*
X558988Y399240D01*
X559103Y398661D01*
X559431Y398171D01*
X559922Y397843D01*
X560500Y397728D01*
X561079Y397843D01*
X561569Y398171D01*
X561897Y398661D01*
X562012Y399240D01*
X561897Y399818D01*
X561569Y400309D01*
X561079Y400637D01*
X560500Y400752D01*
D02*
G37*
G36*
X570500Y399252D02*
X569921Y399137D01*
X569431Y398809D01*
X569103Y398319D01*
X568988Y397740D01*
X569103Y397162D01*
X569431Y396671D01*
X569921Y396343D01*
X570500Y396228D01*
X571078Y396343D01*
X571569Y396671D01*
X571897Y397162D01*
X572012Y397740D01*
X571897Y398319D01*
X571569Y398809D01*
X571078Y399137D01*
X570500Y399252D01*
D02*
G37*
G36*
X483000D02*
X482421Y399137D01*
X481931Y398809D01*
X481603Y398319D01*
X481488Y397740D01*
X481603Y397162D01*
X481931Y396671D01*
X482421Y396343D01*
X483000Y396228D01*
X483578Y396343D01*
X484069Y396671D01*
X484397Y397162D01*
X484512Y397740D01*
X484397Y398319D01*
X484069Y398809D01*
X483578Y399137D01*
X483000Y399252D01*
D02*
G37*
G36*
X505500Y396377D02*
X504921Y396262D01*
X504431Y395934D01*
X504103Y395444D01*
X503988Y394865D01*
X504103Y394286D01*
X504431Y393796D01*
X504921Y393468D01*
X505500Y393353D01*
X506078Y393468D01*
X506569Y393796D01*
X506897Y394286D01*
X507012Y394865D01*
X506897Y395444D01*
X506569Y395934D01*
X506078Y396262D01*
X505500Y396377D01*
D02*
G37*
G36*
X565500Y394252D02*
X564922Y394137D01*
X564431Y393809D01*
X564103Y393319D01*
X563988Y392740D01*
X564103Y392161D01*
X564431Y391671D01*
X564922Y391343D01*
X565500Y391228D01*
X566079Y391343D01*
X566569Y391671D01*
X566897Y392161D01*
X567012Y392740D01*
X566897Y393319D01*
X566569Y393809D01*
X566079Y394137D01*
X565500Y394252D01*
D02*
G37*
G36*
X473500Y391252D02*
X472922Y391137D01*
X472431Y390809D01*
X472103Y390318D01*
X471988Y389740D01*
X472103Y389161D01*
X472431Y388671D01*
X472922Y388343D01*
X473500Y388228D01*
X474079Y388343D01*
X474569Y388671D01*
X474897Y389161D01*
X475012Y389740D01*
X474897Y390318D01*
X474569Y390809D01*
X474079Y391137D01*
X473500Y391252D01*
D02*
G37*
G36*
X492000Y390752D02*
X491422Y390637D01*
X490931Y390309D01*
X490603Y389819D01*
X490488Y389240D01*
X490603Y388662D01*
X490931Y388171D01*
X491422Y387843D01*
X492000Y387728D01*
X492579Y387843D01*
X493069Y388171D01*
X493397Y388662D01*
X493512Y389240D01*
X493397Y389819D01*
X493069Y390309D01*
X492579Y390637D01*
X492000Y390752D01*
D02*
G37*
G36*
X481000Y390252D02*
X480421Y390137D01*
X479931Y389809D01*
X479603Y389318D01*
X479488Y388740D01*
X479603Y388161D01*
X479931Y387671D01*
X480421Y387343D01*
X481000Y387228D01*
X481578Y387343D01*
X482069Y387671D01*
X482397Y388161D01*
X482512Y388740D01*
X482397Y389318D01*
X482069Y389809D01*
X481578Y390137D01*
X481000Y390252D01*
D02*
G37*
G36*
X501000Y389752D02*
X500421Y389637D01*
X499931Y389309D01*
X499603Y388819D01*
X499488Y388240D01*
X499603Y387662D01*
X499931Y387171D01*
X500421Y386843D01*
X501000Y386728D01*
X501579Y386843D01*
X502069Y387171D01*
X502397Y387662D01*
X502512Y388240D01*
X502397Y388819D01*
X502069Y389309D01*
X501579Y389637D01*
X501000Y389752D01*
D02*
G37*
G36*
X563600Y389212D02*
X563022Y389097D01*
X562531Y388769D01*
X562203Y388279D01*
X562088Y387700D01*
X562203Y387122D01*
X562531Y386631D01*
X563022Y386303D01*
X563600Y386188D01*
X564179Y386303D01*
X564669Y386631D01*
X564997Y387122D01*
X565112Y387700D01*
X564997Y388279D01*
X564669Y388769D01*
X564179Y389097D01*
X563600Y389212D01*
D02*
G37*
G36*
X594488Y407924D02*
X592263Y407749D01*
X590093Y407228D01*
X588031Y406374D01*
X586128Y405208D01*
X584431Y403758D01*
X582981Y402061D01*
X581815Y400158D01*
X580961Y398096D01*
X580440Y395926D01*
X580265Y393701D01*
X580440Y391476D01*
X580961Y389305D01*
X581815Y387244D01*
X582981Y385340D01*
X584431Y383643D01*
X586128Y382194D01*
X588031Y381028D01*
X590093Y380173D01*
X592263Y379653D01*
X594488Y379477D01*
X596713Y379653D01*
X598883Y380173D01*
X600946Y381028D01*
X602848Y382194D01*
X604546Y383643D01*
X605995Y385340D01*
X607161Y387244D01*
X608015Y389305D01*
X608536Y391476D01*
X608712Y393701D01*
X608536Y395926D01*
X608015Y398096D01*
X607161Y400158D01*
X605995Y402061D01*
X604546Y403758D01*
X602848Y405208D01*
X600946Y406374D01*
X598883Y407228D01*
X596713Y407749D01*
X594488Y407924D01*
D02*
G37*
G36*
X565000Y382312D02*
X564422Y382197D01*
X563931Y381869D01*
X563603Y381379D01*
X563488Y380800D01*
X563603Y380222D01*
X563931Y379731D01*
X564422Y379403D01*
X565000Y379288D01*
X565579Y379403D01*
X566069Y379731D01*
X566397Y380222D01*
X566512Y380800D01*
X566397Y381379D01*
X566069Y381869D01*
X565579Y382197D01*
X565000Y382312D01*
D02*
G37*
G36*
X521000Y374252D02*
X520422Y374137D01*
X519931Y373809D01*
X519603Y373319D01*
X519488Y372740D01*
X519603Y372162D01*
X519931Y371671D01*
X520422Y371343D01*
X521000Y371228D01*
X521579Y371343D01*
X522069Y371671D01*
X522397Y372162D01*
X522512Y372740D01*
X522397Y373319D01*
X522069Y373809D01*
X521579Y374137D01*
X521000Y374252D01*
D02*
G37*
G36*
X492500Y367252D02*
X491922Y367137D01*
X491431Y366809D01*
X491103Y366318D01*
X490988Y365740D01*
X491103Y365161D01*
X491431Y364671D01*
X491922Y364343D01*
X492500Y364228D01*
X493079Y364343D01*
X493569Y364671D01*
X493897Y365161D01*
X494012Y365740D01*
X493897Y366318D01*
X493569Y366809D01*
X493079Y367137D01*
X492500Y367252D01*
D02*
G37*
G36*
X487000D02*
X486421Y367137D01*
X485931Y366809D01*
X485603Y366318D01*
X485488Y365740D01*
X485603Y365161D01*
X485931Y364671D01*
X486421Y364343D01*
X487000Y364228D01*
X487578Y364343D01*
X488069Y364671D01*
X488397Y365161D01*
X488512Y365740D01*
X488397Y366318D01*
X488069Y366809D01*
X487578Y367137D01*
X487000Y367252D01*
D02*
G37*
G36*
X474000D02*
X473421Y367137D01*
X472931Y366809D01*
X472603Y366318D01*
X472488Y365740D01*
X472603Y365161D01*
X472931Y364671D01*
X473421Y364343D01*
X474000Y364228D01*
X474579Y364343D01*
X475069Y364671D01*
X475397Y365161D01*
X475512Y365740D01*
X475397Y366318D01*
X475069Y366809D01*
X474579Y367137D01*
X474000Y367252D01*
D02*
G37*
G36*
X511000Y366752D02*
X510422Y366637D01*
X509931Y366309D01*
X509603Y365819D01*
X509488Y365240D01*
X509603Y364662D01*
X509931Y364171D01*
X510422Y363843D01*
X511000Y363728D01*
X511579Y363843D01*
X512069Y364171D01*
X512397Y364662D01*
X512512Y365240D01*
X512397Y365819D01*
X512069Y366309D01*
X511579Y366637D01*
X511000Y366752D01*
D02*
G37*
G36*
X505500D02*
X504921Y366637D01*
X504431Y366309D01*
X504103Y365819D01*
X503988Y365240D01*
X504103Y364662D01*
X504431Y364171D01*
X504921Y363843D01*
X505500Y363728D01*
X506078Y363843D01*
X506569Y364171D01*
X506897Y364662D01*
X507012Y365240D01*
X506897Y365819D01*
X506569Y366309D01*
X506078Y366637D01*
X505500Y366752D01*
D02*
G37*
G36*
X482500Y341252D02*
X481921Y341137D01*
X481431Y340809D01*
X481103Y340318D01*
X480988Y339740D01*
X481103Y339161D01*
X481431Y338671D01*
X481921Y338343D01*
X482500Y338228D01*
X483078Y338343D01*
X483569Y338671D01*
X483897Y339161D01*
X484012Y339740D01*
X483897Y340318D01*
X483569Y340809D01*
X483078Y341137D01*
X482500Y341252D01*
D02*
G37*
G36*
X494000Y331752D02*
X493422Y331637D01*
X492931Y331309D01*
X492603Y330819D01*
X492488Y330240D01*
X492603Y329661D01*
X492931Y329171D01*
X493422Y328843D01*
X494000Y328728D01*
X494579Y328843D01*
X495069Y329171D01*
X495397Y329661D01*
X495512Y330240D01*
X495397Y330819D01*
X495069Y331309D01*
X494579Y331637D01*
X494000Y331752D01*
D02*
G37*
G36*
X502000Y323752D02*
X501421Y323637D01*
X500931Y323309D01*
X500603Y322818D01*
X500488Y322240D01*
X500603Y321661D01*
X500931Y321171D01*
X501421Y320843D01*
X502000Y320728D01*
X502578Y320843D01*
X503069Y321171D01*
X503397Y321661D01*
X503512Y322240D01*
X503397Y322818D01*
X503069Y323309D01*
X502578Y323637D01*
X502000Y323752D01*
D02*
G37*
G36*
X472500Y318252D02*
X471921Y318137D01*
X471431Y317809D01*
X471103Y317319D01*
X470988Y316740D01*
X471103Y316161D01*
X471431Y315671D01*
X471921Y315343D01*
X472500Y315228D01*
X473078Y315343D01*
X473569Y315671D01*
X473897Y316161D01*
X474012Y316740D01*
X473897Y317319D01*
X473569Y317809D01*
X473078Y318137D01*
X472500Y318252D01*
D02*
G37*
G36*
X470000Y292252D02*
X469421Y292137D01*
X468931Y291809D01*
X468603Y291318D01*
X468488Y290740D01*
X468603Y290161D01*
X468931Y289671D01*
X469421Y289343D01*
X470000Y289228D01*
X470578Y289343D01*
X471069Y289671D01*
X471397Y290161D01*
X471512Y290740D01*
X471397Y291318D01*
X471069Y291809D01*
X470578Y292137D01*
X470000Y292252D01*
D02*
G37*
G36*
X376500D02*
X375922Y292137D01*
X375431Y291809D01*
X375103Y291318D01*
X374988Y290740D01*
X375103Y290161D01*
X375431Y289671D01*
X375922Y289343D01*
X376500Y289228D01*
X377079Y289343D01*
X377569Y289671D01*
X377897Y290161D01*
X378012Y290740D01*
X377897Y291318D01*
X377569Y291809D01*
X377079Y292137D01*
X376500Y292252D01*
D02*
G37*
G36*
X291500Y274752D02*
X290921Y274637D01*
X290431Y274309D01*
X290103Y273818D01*
X289988Y273240D01*
X290103Y272661D01*
X290431Y272171D01*
X290921Y271843D01*
X291500Y271728D01*
X292078Y271843D01*
X292569Y272171D01*
X292897Y272661D01*
X293012Y273240D01*
X292897Y273818D01*
X292569Y274309D01*
X292078Y274637D01*
X291500Y274752D01*
D02*
G37*
G36*
X264500D02*
X263921Y274637D01*
X263431Y274309D01*
X263103Y273818D01*
X262988Y273240D01*
X263103Y272661D01*
X263431Y272171D01*
X263921Y271843D01*
X264500Y271728D01*
X265078Y271843D01*
X265569Y272171D01*
X265897Y272661D01*
X266012Y273240D01*
X265897Y273818D01*
X265569Y274309D01*
X265078Y274637D01*
X264500Y274752D01*
D02*
G37*
G36*
X236500Y274252D02*
X235922Y274137D01*
X235431Y273809D01*
X235103Y273319D01*
X234988Y272740D01*
X235103Y272162D01*
X235431Y271671D01*
X235922Y271343D01*
X236500Y271228D01*
X237078Y271343D01*
X237569Y271671D01*
X237897Y272162D01*
X238012Y272740D01*
X237897Y273319D01*
X237569Y273809D01*
X237078Y274137D01*
X236500Y274252D01*
D02*
G37*
G36*
X192375Y271752D02*
X191797Y271637D01*
X191306Y271309D01*
X190978Y270818D01*
X190863Y270240D01*
X190978Y269661D01*
X191306Y269171D01*
X191797Y268843D01*
X192375Y268728D01*
X192954Y268843D01*
X193444Y269171D01*
X193772Y269661D01*
X193887Y270240D01*
X193772Y270818D01*
X193444Y271309D01*
X192954Y271637D01*
X192375Y271752D01*
D02*
G37*
G36*
X131125D02*
X130546Y271637D01*
X130056Y271309D01*
X129728Y270818D01*
X129613Y270240D01*
X129728Y269661D01*
X130056Y269171D01*
X130546Y268843D01*
X131125Y268728D01*
X131703Y268843D01*
X132194Y269171D01*
X132522Y269661D01*
X132637Y270240D01*
X132522Y270818D01*
X132194Y271309D01*
X131703Y271637D01*
X131125Y271752D01*
D02*
G37*
G36*
X59250D02*
X58671Y271637D01*
X58181Y271309D01*
X57853Y270818D01*
X57738Y270240D01*
X57853Y269661D01*
X58181Y269171D01*
X58671Y268843D01*
X59250Y268728D01*
X59829Y268843D01*
X60319Y269171D01*
X60647Y269661D01*
X60762Y270240D01*
X60647Y270818D01*
X60319Y271309D01*
X59829Y271637D01*
X59250Y271752D01*
D02*
G37*
G36*
X150000Y271311D02*
X149498Y271211D01*
X149073Y270927D01*
X148789Y270502D01*
X148689Y270000D01*
X148789Y269498D01*
X149073Y269073D01*
X149498Y268789D01*
X150000Y268689D01*
X150502Y268789D01*
X150927Y269073D01*
X151211Y269498D01*
X151311Y270000D01*
X151211Y270502D01*
X150927Y270927D01*
X150502Y271211D01*
X150000Y271311D01*
D02*
G37*
G36*
X85500Y269252D02*
X84921Y269137D01*
X84431Y268809D01*
X84103Y268319D01*
X83988Y267740D01*
X84103Y267161D01*
X84431Y266671D01*
X84921Y266343D01*
X85500Y266228D01*
X86079Y266343D01*
X86569Y266671D01*
X86897Y267161D01*
X87012Y267740D01*
X86897Y268319D01*
X86569Y268809D01*
X86079Y269137D01*
X85500Y269252D01*
D02*
G37*
G36*
X221000Y266752D02*
X220422Y266637D01*
X219931Y266309D01*
X219603Y265819D01*
X219488Y265240D01*
X219603Y264662D01*
X219931Y264171D01*
X220422Y263843D01*
X221000Y263728D01*
X221579Y263843D01*
X222069Y264171D01*
X222397Y264662D01*
X222512Y265240D01*
X222397Y265819D01*
X222069Y266309D01*
X221579Y266637D01*
X221000Y266752D01*
D02*
G37*
G36*
X178500D02*
X177921Y266637D01*
X177431Y266309D01*
X177103Y265819D01*
X176988Y265240D01*
X177103Y264662D01*
X177431Y264171D01*
X177921Y263843D01*
X178500Y263728D01*
X179078Y263843D01*
X179569Y264171D01*
X179897Y264662D01*
X180012Y265240D01*
X179897Y265819D01*
X179569Y266309D01*
X179078Y266637D01*
X178500Y266752D01*
D02*
G37*
G36*
X30500Y266252D02*
X29921Y266137D01*
X29431Y265809D01*
X29103Y265318D01*
X28988Y264740D01*
X29103Y264161D01*
X29431Y263671D01*
X29921Y263343D01*
X30500Y263228D01*
X31078Y263343D01*
X31569Y263671D01*
X31897Y264161D01*
X32012Y264740D01*
X31897Y265318D01*
X31569Y265809D01*
X31078Y266137D01*
X30500Y266252D01*
D02*
G37*
G36*
X347000Y265752D02*
X346422Y265637D01*
X345931Y265309D01*
X345603Y264819D01*
X345488Y264240D01*
X345603Y263662D01*
X345931Y263171D01*
X346422Y262843D01*
X347000Y262728D01*
X347579Y262843D01*
X348069Y263171D01*
X348397Y263662D01*
X348512Y264240D01*
X348397Y264819D01*
X348069Y265309D01*
X347579Y265637D01*
X347000Y265752D01*
D02*
G37*
G36*
X317000D02*
X316422Y265637D01*
X315931Y265309D01*
X315603Y264819D01*
X315488Y264240D01*
X315603Y263662D01*
X315931Y263171D01*
X316422Y262843D01*
X317000Y262728D01*
X317579Y262843D01*
X318069Y263171D01*
X318397Y263662D01*
X318512Y264240D01*
X318397Y264819D01*
X318069Y265309D01*
X317579Y265637D01*
X317000Y265752D01*
D02*
G37*
G36*
X308375Y264877D02*
X307797Y264762D01*
X307306Y264434D01*
X306978Y263944D01*
X306863Y263365D01*
X306978Y262787D01*
X307306Y262296D01*
X307797Y261968D01*
X308375Y261853D01*
X308953Y261968D01*
X309444Y262296D01*
X309772Y262787D01*
X309887Y263365D01*
X309772Y263944D01*
X309444Y264434D01*
X308953Y264762D01*
X308375Y264877D01*
D02*
G37*
G36*
X281500D02*
X280922Y264762D01*
X280431Y264434D01*
X280103Y263944D01*
X279988Y263365D01*
X280103Y262787D01*
X280431Y262296D01*
X280922Y261968D01*
X281500Y261853D01*
X282079Y261968D01*
X282569Y262296D01*
X282897Y262787D01*
X283012Y263365D01*
X282897Y263944D01*
X282569Y264434D01*
X282079Y264762D01*
X281500Y264877D01*
D02*
G37*
G36*
X253375D02*
X252797Y264762D01*
X252306Y264434D01*
X251978Y263944D01*
X251863Y263365D01*
X251978Y262787D01*
X252306Y262296D01*
X252797Y261968D01*
X253375Y261853D01*
X253954Y261968D01*
X254444Y262296D01*
X254772Y262787D01*
X254887Y263365D01*
X254772Y263944D01*
X254444Y264434D01*
X253954Y264762D01*
X253375Y264877D01*
D02*
G37*
G36*
X103000Y260512D02*
X102421Y260397D01*
X101931Y260069D01*
X101603Y259578D01*
X101488Y259000D01*
X101603Y258421D01*
X101931Y257931D01*
X102421Y257603D01*
X103000Y257488D01*
X103578Y257603D01*
X104069Y257931D01*
X104397Y258421D01*
X104512Y259000D01*
X104397Y259578D01*
X104069Y260069D01*
X103578Y260397D01*
X103000Y260512D01*
D02*
G37*
G36*
X585000Y252752D02*
X584421Y252637D01*
X583931Y252309D01*
X583603Y251818D01*
X583488Y251240D01*
X583603Y250661D01*
X583931Y250171D01*
X584421Y249843D01*
X585000Y249728D01*
X585578Y249843D01*
X586069Y250171D01*
X586397Y250661D01*
X586512Y251240D01*
X586397Y251818D01*
X586069Y252309D01*
X585578Y252637D01*
X585000Y252752D01*
D02*
G37*
G36*
X572500D02*
X571921Y252637D01*
X571431Y252309D01*
X571103Y251818D01*
X570988Y251240D01*
X571103Y250661D01*
X571431Y250171D01*
X571921Y249843D01*
X572500Y249728D01*
X573078Y249843D01*
X573569Y250171D01*
X573897Y250661D01*
X574012Y251240D01*
X573897Y251818D01*
X573569Y252309D01*
X573078Y252637D01*
X572500Y252752D01*
D02*
G37*
G36*
X560000D02*
X559421Y252637D01*
X558931Y252309D01*
X558603Y251818D01*
X558488Y251240D01*
X558603Y250661D01*
X558931Y250171D01*
X559421Y249843D01*
X560000Y249728D01*
X560578Y249843D01*
X561069Y250171D01*
X561397Y250661D01*
X561512Y251240D01*
X561397Y251818D01*
X561069Y252309D01*
X560578Y252637D01*
X560000Y252752D01*
D02*
G37*
G36*
X547500D02*
X546921Y252637D01*
X546431Y252309D01*
X546103Y251818D01*
X545988Y251240D01*
X546103Y250661D01*
X546431Y250171D01*
X546921Y249843D01*
X547500Y249728D01*
X548078Y249843D01*
X548569Y250171D01*
X548897Y250661D01*
X549012Y251240D01*
X548897Y251818D01*
X548569Y252309D01*
X548078Y252637D01*
X547500Y252752D01*
D02*
G37*
G36*
X464500Y235752D02*
X463921Y235637D01*
X463431Y235309D01*
X463103Y234819D01*
X462988Y234240D01*
X463103Y233662D01*
X463431Y233171D01*
X463921Y232843D01*
X464500Y232728D01*
X465078Y232843D01*
X465569Y233171D01*
X465897Y233662D01*
X466012Y234240D01*
X465897Y234819D01*
X465569Y235309D01*
X465078Y235637D01*
X464500Y235752D01*
D02*
G37*
G36*
X450500D02*
X449922Y235637D01*
X449431Y235309D01*
X449103Y234819D01*
X448988Y234240D01*
X449103Y233662D01*
X449431Y233171D01*
X449922Y232843D01*
X450500Y232728D01*
X451079Y232843D01*
X451569Y233171D01*
X451897Y233662D01*
X452012Y234240D01*
X451897Y234819D01*
X451569Y235309D01*
X451079Y235637D01*
X450500Y235752D01*
D02*
G37*
G36*
X397000D02*
X396422Y235637D01*
X395931Y235309D01*
X395603Y234819D01*
X395488Y234240D01*
X395603Y233662D01*
X395931Y233171D01*
X396422Y232843D01*
X397000Y232728D01*
X397579Y232843D01*
X398069Y233171D01*
X398397Y233662D01*
X398512Y234240D01*
X398397Y234819D01*
X398069Y235309D01*
X397579Y235637D01*
X397000Y235752D01*
D02*
G37*
G36*
X383000D02*
X382421Y235637D01*
X381931Y235309D01*
X381603Y234819D01*
X381488Y234240D01*
X381603Y233662D01*
X381931Y233171D01*
X382421Y232843D01*
X383000Y232728D01*
X383578Y232843D01*
X384069Y233171D01*
X384397Y233662D01*
X384512Y234240D01*
X384397Y234819D01*
X384069Y235309D01*
X383578Y235637D01*
X383000Y235752D01*
D02*
G37*
G36*
X424746Y226565D02*
X424245Y226465D01*
X423819Y226181D01*
X423535Y225755D01*
X423435Y225254D01*
X423535Y224752D01*
X423819Y224327D01*
X424245Y224042D01*
X424746Y223943D01*
X425248Y224042D01*
X425673Y224327D01*
X425958Y224752D01*
X426057Y225254D01*
X425958Y225755D01*
X425673Y226181D01*
X425248Y226465D01*
X424746Y226565D01*
D02*
G37*
G36*
X587500Y129752D02*
X586922Y129637D01*
X586431Y129309D01*
X586103Y128819D01*
X585988Y128240D01*
X586103Y127662D01*
X586431Y127171D01*
X586922Y126843D01*
X587500Y126728D01*
X588078Y126843D01*
X588569Y127171D01*
X588897Y127662D01*
X589012Y128240D01*
X588897Y128819D01*
X588569Y129309D01*
X588078Y129637D01*
X587500Y129752D01*
D02*
G37*
G36*
X275500Y94252D02*
X274921Y94137D01*
X274431Y93809D01*
X274103Y93318D01*
X273988Y92740D01*
X274103Y92162D01*
X274431Y91671D01*
X274921Y91343D01*
X275500Y91228D01*
X276079Y91343D01*
X276569Y91671D01*
X276897Y92162D01*
X277012Y92740D01*
X276897Y93318D01*
X276569Y93809D01*
X276079Y94137D01*
X275500Y94252D01*
D02*
G37*
G36*
X231000D02*
X230421Y94137D01*
X229931Y93809D01*
X229603Y93318D01*
X229488Y92740D01*
X229603Y92162D01*
X229931Y91671D01*
X230421Y91343D01*
X231000Y91228D01*
X231578Y91343D01*
X232069Y91671D01*
X232397Y92162D01*
X232512Y92740D01*
X232397Y93318D01*
X232069Y93809D01*
X231578Y94137D01*
X231000Y94252D01*
D02*
G37*
G36*
X225500Y93752D02*
X224921Y93637D01*
X224431Y93309D01*
X224103Y92818D01*
X223988Y92240D01*
X224103Y91662D01*
X224431Y91171D01*
X224921Y90843D01*
X225500Y90728D01*
X226079Y90843D01*
X226569Y91171D01*
X226897Y91662D01*
X227012Y92240D01*
X226897Y92818D01*
X226569Y93309D01*
X226079Y93637D01*
X225500Y93752D01*
D02*
G37*
G36*
X81000D02*
X80422Y93637D01*
X79931Y93309D01*
X79603Y92818D01*
X79488Y92240D01*
X79603Y91662D01*
X79931Y91171D01*
X80422Y90843D01*
X81000Y90728D01*
X81578Y90843D01*
X82069Y91171D01*
X82397Y91662D01*
X82512Y92240D01*
X82397Y92818D01*
X82069Y93309D01*
X81578Y93637D01*
X81000Y93752D01*
D02*
G37*
G36*
X247500Y91252D02*
X246921Y91137D01*
X246431Y90809D01*
X246103Y90319D01*
X245988Y89740D01*
X246103Y89161D01*
X246431Y88671D01*
X246921Y88343D01*
X247500Y88228D01*
X248078Y88343D01*
X248569Y88671D01*
X248897Y89161D01*
X249012Y89740D01*
X248897Y90319D01*
X248569Y90809D01*
X248078Y91137D01*
X247500Y91252D01*
D02*
G37*
G36*
X78000D02*
X77421Y91137D01*
X76931Y90809D01*
X76603Y90319D01*
X76488Y89740D01*
X76603Y89161D01*
X76931Y88671D01*
X77421Y88343D01*
X78000Y88228D01*
X78579Y88343D01*
X79069Y88671D01*
X79397Y89161D01*
X79512Y89740D01*
X79397Y90319D01*
X79069Y90809D01*
X78579Y91137D01*
X78000Y91252D01*
D02*
G37*
G36*
X271000Y88752D02*
X270422Y88637D01*
X269931Y88309D01*
X269603Y87818D01*
X269488Y87240D01*
X269603Y86661D01*
X269931Y86171D01*
X270422Y85843D01*
X271000Y85728D01*
X271579Y85843D01*
X272069Y86171D01*
X272397Y86661D01*
X272512Y87240D01*
X272397Y87818D01*
X272069Y88309D01*
X271579Y88637D01*
X271000Y88752D01*
D02*
G37*
G36*
X154000D02*
X153421Y88637D01*
X152931Y88309D01*
X152603Y87818D01*
X152488Y87240D01*
X152603Y86661D01*
X152931Y86171D01*
X153421Y85843D01*
X154000Y85728D01*
X154578Y85843D01*
X155069Y86171D01*
X155397Y86661D01*
X155512Y87240D01*
X155397Y87818D01*
X155069Y88309D01*
X154578Y88637D01*
X154000Y88752D01*
D02*
G37*
G36*
X594488Y112649D02*
X592263Y112473D01*
X590093Y111952D01*
X588031Y111098D01*
X586128Y109932D01*
X584431Y108483D01*
X582981Y106786D01*
X581815Y104883D01*
X580961Y102821D01*
X580440Y100650D01*
X580265Y98425D01*
X580440Y96200D01*
X580961Y94030D01*
X581815Y91968D01*
X582981Y90065D01*
X584431Y88368D01*
X586128Y86918D01*
X588031Y85752D01*
X590093Y84898D01*
X592263Y84377D01*
X594488Y84202D01*
X596713Y84377D01*
X598883Y84898D01*
X600946Y85752D01*
X602848Y86918D01*
X604546Y88368D01*
X605995Y90065D01*
X607161Y91968D01*
X608015Y94030D01*
X608536Y96200D01*
X608712Y98425D01*
X608536Y100650D01*
X608015Y102821D01*
X607161Y104883D01*
X605995Y106786D01*
X604546Y108483D01*
X602848Y109932D01*
X600946Y111098D01*
X598883Y111952D01*
X596713Y112473D01*
X594488Y112649D01*
D02*
G37*
G36*
X437008D02*
X434783Y112473D01*
X432613Y111952D01*
X430551Y111098D01*
X428648Y109932D01*
X426950Y108483D01*
X425501Y106786D01*
X424335Y104883D01*
X423481Y102821D01*
X422960Y100650D01*
X422785Y98425D01*
X422960Y96200D01*
X423481Y94030D01*
X424335Y91968D01*
X425501Y90065D01*
X426950Y88368D01*
X428648Y86918D01*
X430551Y85752D01*
X432613Y84898D01*
X434783Y84377D01*
X437008Y84202D01*
X439233Y84377D01*
X441403Y84898D01*
X443465Y85752D01*
X445368Y86918D01*
X447065Y88368D01*
X448515Y90065D01*
X449681Y91968D01*
X450535Y94030D01*
X451056Y96200D01*
X451231Y98425D01*
X451056Y100650D01*
X450535Y102821D01*
X449681Y104883D01*
X448515Y106786D01*
X447065Y108483D01*
X445368Y109932D01*
X443465Y111098D01*
X441403Y111952D01*
X439233Y112473D01*
X437008Y112649D01*
D02*
G37*
G36*
X314961D02*
X312736Y112473D01*
X310565Y111952D01*
X308503Y111098D01*
X306600Y109932D01*
X304903Y108483D01*
X303454Y106786D01*
X302288Y104883D01*
X301433Y102821D01*
X300912Y100650D01*
X300737Y98425D01*
X300912Y96200D01*
X301433Y94030D01*
X302288Y91968D01*
X303454Y90065D01*
X304903Y88368D01*
X306600Y86918D01*
X308503Y85752D01*
X310565Y84898D01*
X312736Y84377D01*
X314961Y84202D01*
X317186Y84377D01*
X319356Y84898D01*
X321418Y85752D01*
X323321Y86918D01*
X325018Y88368D01*
X326468Y90065D01*
X327634Y91968D01*
X328488Y94030D01*
X329009Y96200D01*
X329184Y98425D01*
X329009Y100650D01*
X328488Y102821D01*
X327634Y104883D01*
X326468Y106786D01*
X325018Y108483D01*
X323321Y109932D01*
X321418Y111098D01*
X319356Y111952D01*
X317186Y112473D01*
X314961Y112649D01*
D02*
G37*
G36*
X19685D02*
X17460Y112473D01*
X15290Y111952D01*
X13228Y111098D01*
X11325Y109932D01*
X9628Y108483D01*
X8178Y106786D01*
X7012Y104883D01*
X6158Y102821D01*
X5637Y100650D01*
X5462Y98425D01*
X5637Y96200D01*
X6158Y94030D01*
X7012Y91968D01*
X8178Y90065D01*
X9628Y88368D01*
X11325Y86918D01*
X13228Y85752D01*
X15290Y84898D01*
X17460Y84377D01*
X19685Y84202D01*
X21910Y84377D01*
X24080Y84898D01*
X26142Y85752D01*
X28045Y86918D01*
X29743Y88368D01*
X31192Y90065D01*
X32358Y91968D01*
X33212Y94030D01*
X33733Y96200D01*
X33908Y98425D01*
X33733Y100650D01*
X33212Y102821D01*
X32358Y104883D01*
X31192Y106786D01*
X29743Y108483D01*
X28045Y109932D01*
X26142Y111098D01*
X24080Y111952D01*
X21910Y112473D01*
X19685Y112649D01*
D02*
G37*
G36*
X246000Y86252D02*
X245422Y86137D01*
X244931Y85809D01*
X244603Y85318D01*
X244488Y84740D01*
X244603Y84162D01*
X244931Y83671D01*
X245422Y83343D01*
X246000Y83228D01*
X246579Y83343D01*
X247069Y83671D01*
X247397Y84162D01*
X247512Y84740D01*
X247397Y85318D01*
X247069Y85809D01*
X246579Y86137D01*
X246000Y86252D01*
D02*
G37*
G36*
X164500D02*
X163921Y86137D01*
X163431Y85809D01*
X163103Y85318D01*
X162988Y84740D01*
X163103Y84162D01*
X163431Y83671D01*
X163921Y83343D01*
X164500Y83228D01*
X165078Y83343D01*
X165569Y83671D01*
X165897Y84162D01*
X166012Y84740D01*
X165897Y85318D01*
X165569Y85809D01*
X165078Y86137D01*
X164500Y86252D01*
D02*
G37*
G36*
X109500D02*
X108922Y86137D01*
X108431Y85809D01*
X108103Y85318D01*
X107988Y84740D01*
X108103Y84162D01*
X108431Y83671D01*
X108922Y83343D01*
X109500Y83228D01*
X110079Y83343D01*
X110569Y83671D01*
X110897Y84162D01*
X111012Y84740D01*
X110897Y85318D01*
X110569Y85809D01*
X110079Y86137D01*
X109500Y86252D01*
D02*
G37*
G36*
X97000D02*
X96421Y86137D01*
X95931Y85809D01*
X95603Y85318D01*
X95488Y84740D01*
X95603Y84162D01*
X95931Y83671D01*
X96421Y83343D01*
X97000Y83228D01*
X97579Y83343D01*
X98069Y83671D01*
X98397Y84162D01*
X98512Y84740D01*
X98397Y85318D01*
X98069Y85809D01*
X97579Y86137D01*
X97000Y86252D01*
D02*
G37*
G36*
X260500Y83752D02*
X259922Y83637D01*
X259431Y83309D01*
X259103Y82819D01*
X258988Y82240D01*
X259103Y81661D01*
X259431Y81171D01*
X259922Y80843D01*
X260500Y80728D01*
X261079Y80843D01*
X261569Y81171D01*
X261897Y81661D01*
X262012Y82240D01*
X261897Y82819D01*
X261569Y83309D01*
X261079Y83637D01*
X260500Y83752D01*
D02*
G37*
G36*
X199000D02*
X198422Y83637D01*
X197931Y83309D01*
X197603Y82819D01*
X197488Y82240D01*
X197603Y81661D01*
X197931Y81171D01*
X198422Y80843D01*
X199000Y80728D01*
X199578Y80843D01*
X200069Y81171D01*
X200397Y81661D01*
X200512Y82240D01*
X200397Y82819D01*
X200069Y83309D01*
X199578Y83637D01*
X199000Y83752D01*
D02*
G37*
G36*
X332500Y81252D02*
X331922Y81137D01*
X331431Y80809D01*
X331103Y80318D01*
X330988Y79740D01*
X331103Y79162D01*
X331431Y78671D01*
X331922Y78343D01*
X332500Y78228D01*
X333079Y78343D01*
X333569Y78671D01*
X333897Y79162D01*
X334012Y79740D01*
X333897Y80318D01*
X333569Y80809D01*
X333079Y81137D01*
X332500Y81252D01*
D02*
G37*
G36*
X92000D02*
X91422Y81137D01*
X90931Y80809D01*
X90603Y80318D01*
X90488Y79740D01*
X90603Y79162D01*
X90931Y78671D01*
X91422Y78343D01*
X92000Y78228D01*
X92579Y78343D01*
X93069Y78671D01*
X93397Y79162D01*
X93512Y79740D01*
X93397Y80318D01*
X93069Y80809D01*
X92579Y81137D01*
X92000Y81252D01*
D02*
G37*
G36*
X338500Y78752D02*
X337922Y78637D01*
X337431Y78309D01*
X337103Y77819D01*
X336988Y77240D01*
X337103Y76661D01*
X337431Y76171D01*
X337922Y75843D01*
X338500Y75728D01*
X339078Y75843D01*
X339569Y76171D01*
X339897Y76661D01*
X340012Y77240D01*
X339897Y77819D01*
X339569Y78309D01*
X339078Y78637D01*
X338500Y78752D01*
D02*
G37*
G36*
X290000D02*
X289422Y78637D01*
X288931Y78309D01*
X288603Y77819D01*
X288488Y77240D01*
X288603Y76661D01*
X288931Y76171D01*
X289422Y75843D01*
X290000Y75728D01*
X290579Y75843D01*
X291069Y76171D01*
X291397Y76661D01*
X291512Y77240D01*
X291397Y77819D01*
X291069Y78309D01*
X290579Y78637D01*
X290000Y78752D01*
D02*
G37*
G36*
X251000D02*
X250422Y78637D01*
X249931Y78309D01*
X249603Y77819D01*
X249488Y77240D01*
X249603Y76661D01*
X249931Y76171D01*
X250422Y75843D01*
X251000Y75728D01*
X251578Y75843D01*
X252069Y76171D01*
X252397Y76661D01*
X252512Y77240D01*
X252397Y77819D01*
X252069Y78309D01*
X251578Y78637D01*
X251000Y78752D01*
D02*
G37*
G36*
X219500D02*
X218921Y78637D01*
X218431Y78309D01*
X218103Y77819D01*
X217988Y77240D01*
X218103Y76661D01*
X218431Y76171D01*
X218921Y75843D01*
X219500Y75728D01*
X220078Y75843D01*
X220569Y76171D01*
X220897Y76661D01*
X221012Y77240D01*
X220897Y77819D01*
X220569Y78309D01*
X220078Y78637D01*
X219500Y78752D01*
D02*
G37*
G36*
X171000D02*
X170422Y78637D01*
X169931Y78309D01*
X169603Y77819D01*
X169488Y77240D01*
X169603Y76661D01*
X169931Y76171D01*
X170422Y75843D01*
X171000Y75728D01*
X171579Y75843D01*
X172069Y76171D01*
X172397Y76661D01*
X172512Y77240D01*
X172397Y77819D01*
X172069Y78309D01*
X171579Y78637D01*
X171000Y78752D01*
D02*
G37*
G36*
X152500D02*
X151921Y78637D01*
X151431Y78309D01*
X151103Y77819D01*
X150988Y77240D01*
X151103Y76661D01*
X151431Y76171D01*
X151921Y75843D01*
X152500Y75728D01*
X153078Y75843D01*
X153569Y76171D01*
X153897Y76661D01*
X154012Y77240D01*
X153897Y77819D01*
X153569Y78309D01*
X153078Y78637D01*
X152500Y78752D01*
D02*
G37*
G36*
X128500D02*
X127921Y78637D01*
X127431Y78309D01*
X127103Y77819D01*
X126988Y77240D01*
X127103Y76661D01*
X127431Y76171D01*
X127921Y75843D01*
X128500Y75728D01*
X129078Y75843D01*
X129569Y76171D01*
X129897Y76661D01*
X130012Y77240D01*
X129897Y77819D01*
X129569Y78309D01*
X129078Y78637D01*
X128500Y78752D01*
D02*
G37*
G36*
X102000D02*
X101421Y78637D01*
X100931Y78309D01*
X100603Y77819D01*
X100488Y77240D01*
X100603Y76661D01*
X100931Y76171D01*
X101421Y75843D01*
X102000Y75728D01*
X102578Y75843D01*
X103069Y76171D01*
X103397Y76661D01*
X103512Y77240D01*
X103397Y77819D01*
X103069Y78309D01*
X102578Y78637D01*
X102000Y78752D01*
D02*
G37*
G36*
X353500Y76252D02*
X352922Y76137D01*
X352431Y75809D01*
X352103Y75318D01*
X351988Y74740D01*
X352103Y74161D01*
X352431Y73671D01*
X352922Y73343D01*
X353500Y73228D01*
X354079Y73343D01*
X354569Y73671D01*
X354897Y74161D01*
X355012Y74740D01*
X354897Y75318D01*
X354569Y75809D01*
X354079Y76137D01*
X353500Y76252D01*
D02*
G37*
G36*
X300000D02*
X299422Y76137D01*
X298931Y75809D01*
X298603Y75318D01*
X298488Y74740D01*
X298603Y74161D01*
X298931Y73671D01*
X299422Y73343D01*
X300000Y73228D01*
X300578Y73343D01*
X301069Y73671D01*
X301397Y74161D01*
X301512Y74740D01*
X301397Y75318D01*
X301069Y75809D01*
X300578Y76137D01*
X300000Y76252D01*
D02*
G37*
G36*
X266000D02*
X265422Y76137D01*
X264931Y75809D01*
X264603Y75318D01*
X264488Y74740D01*
X264603Y74161D01*
X264931Y73671D01*
X265422Y73343D01*
X266000Y73228D01*
X266579Y73343D01*
X267069Y73671D01*
X267397Y74161D01*
X267512Y74740D01*
X267397Y75318D01*
X267069Y75809D01*
X266579Y76137D01*
X266000Y76252D01*
D02*
G37*
G36*
X209000D02*
X208421Y76137D01*
X207931Y75809D01*
X207603Y75318D01*
X207488Y74740D01*
X207603Y74161D01*
X207931Y73671D01*
X208421Y73343D01*
X209000Y73228D01*
X209578Y73343D01*
X210069Y73671D01*
X210397Y74161D01*
X210512Y74740D01*
X210397Y75318D01*
X210069Y75809D01*
X209578Y76137D01*
X209000Y76252D01*
D02*
G37*
G36*
X181000D02*
X180421Y76137D01*
X179931Y75809D01*
X179603Y75318D01*
X179488Y74740D01*
X179603Y74161D01*
X179931Y73671D01*
X180421Y73343D01*
X181000Y73228D01*
X181579Y73343D01*
X182069Y73671D01*
X182397Y74161D01*
X182512Y74740D01*
X182397Y75318D01*
X182069Y75809D01*
X181579Y76137D01*
X181000Y76252D01*
D02*
G37*
G36*
X137000D02*
X136422Y76137D01*
X135931Y75809D01*
X135603Y75318D01*
X135488Y74740D01*
X135603Y74161D01*
X135931Y73671D01*
X136422Y73343D01*
X137000Y73228D01*
X137578Y73343D01*
X138069Y73671D01*
X138397Y74161D01*
X138512Y74740D01*
X138397Y75318D01*
X138069Y75809D01*
X137578Y76137D01*
X137000Y76252D01*
D02*
G37*
G36*
X392000Y73752D02*
X391422Y73637D01*
X390931Y73309D01*
X390603Y72818D01*
X390488Y72240D01*
X390603Y71662D01*
X390931Y71171D01*
X391422Y70843D01*
X392000Y70728D01*
X392579Y70843D01*
X393069Y71171D01*
X393397Y71662D01*
X393512Y72240D01*
X393397Y72818D01*
X393069Y73309D01*
X392579Y73637D01*
X392000Y73752D01*
D02*
G37*
G36*
X107000D02*
X106421Y73637D01*
X105931Y73309D01*
X105603Y72818D01*
X105488Y72240D01*
X105603Y71662D01*
X105931Y71171D01*
X106421Y70843D01*
X107000Y70728D01*
X107579Y70843D01*
X108069Y71171D01*
X108397Y71662D01*
X108512Y72240D01*
X108397Y72818D01*
X108069Y73309D01*
X107579Y73637D01*
X107000Y73752D01*
D02*
G37*
G36*
X405000Y71252D02*
X404422Y71137D01*
X403931Y70809D01*
X403603Y70319D01*
X403488Y69740D01*
X403603Y69161D01*
X403931Y68671D01*
X404422Y68343D01*
X405000Y68228D01*
X405579Y68343D01*
X406069Y68671D01*
X406397Y69161D01*
X406512Y69740D01*
X406397Y70319D01*
X406069Y70809D01*
X405579Y71137D01*
X405000Y71252D01*
D02*
G37*
G36*
X122500D02*
X121922Y71137D01*
X121431Y70809D01*
X121103Y70319D01*
X120988Y69740D01*
X121103Y69161D01*
X121431Y68671D01*
X121922Y68343D01*
X122500Y68228D01*
X123079Y68343D01*
X123569Y68671D01*
X123897Y69161D01*
X124012Y69740D01*
X123897Y70319D01*
X123569Y70809D01*
X123079Y71137D01*
X122500Y71252D01*
D02*
G37*
G36*
X231000Y68752D02*
X230421Y68637D01*
X229931Y68309D01*
X229603Y67818D01*
X229488Y67240D01*
X229603Y66662D01*
X229931Y66171D01*
X230421Y65843D01*
X231000Y65728D01*
X231578Y65843D01*
X232069Y66171D01*
X232397Y66662D01*
X232512Y67240D01*
X232397Y67818D01*
X232069Y68309D01*
X231578Y68637D01*
X231000Y68752D01*
D02*
G37*
G36*
X45500D02*
X44921Y68637D01*
X44431Y68309D01*
X44103Y67818D01*
X43988Y67240D01*
X44103Y66662D01*
X44431Y66171D01*
X44921Y65843D01*
X45500Y65728D01*
X46079Y65843D01*
X46569Y66171D01*
X46897Y66662D01*
X47012Y67240D01*
X46897Y67818D01*
X46569Y68309D01*
X46079Y68637D01*
X45500Y68752D01*
D02*
G37*
G36*
X236000Y66252D02*
X235421Y66137D01*
X234931Y65809D01*
X234603Y65319D01*
X234488Y64740D01*
X234603Y64161D01*
X234931Y63671D01*
X235421Y63343D01*
X236000Y63228D01*
X236578Y63343D01*
X237069Y63671D01*
X237397Y64161D01*
X237512Y64740D01*
X237397Y65319D01*
X237069Y65809D01*
X236578Y66137D01*
X236000Y66252D01*
D02*
G37*
G36*
X42500D02*
X41921Y66137D01*
X41431Y65809D01*
X41103Y65319D01*
X40988Y64740D01*
X41103Y64161D01*
X41431Y63671D01*
X41921Y63343D01*
X42500Y63228D01*
X43079Y63343D01*
X43569Y63671D01*
X43897Y64161D01*
X44012Y64740D01*
X43897Y65319D01*
X43569Y65809D01*
X43079Y66137D01*
X42500Y66252D01*
D02*
G37*
G36*
X412000Y63752D02*
X411421Y63637D01*
X410931Y63309D01*
X410603Y62818D01*
X410488Y62240D01*
X410603Y61661D01*
X410931Y61171D01*
X411421Y60843D01*
X412000Y60728D01*
X412578Y60843D01*
X413069Y61171D01*
X413397Y61661D01*
X413512Y62240D01*
X413397Y62818D01*
X413069Y63309D01*
X412578Y63637D01*
X412000Y63752D01*
D02*
G37*
G36*
X117000D02*
X116421Y63637D01*
X115931Y63309D01*
X115603Y62818D01*
X115488Y62240D01*
X115603Y61661D01*
X115931Y61171D01*
X116421Y60843D01*
X117000Y60728D01*
X117578Y60843D01*
X118069Y61171D01*
X118397Y61661D01*
X118512Y62240D01*
X118397Y62818D01*
X118069Y63309D01*
X117578Y63637D01*
X117000Y63752D01*
D02*
G37*
G36*
X417000Y61252D02*
X416422Y61137D01*
X415931Y60809D01*
X415603Y60318D01*
X415488Y59740D01*
X415603Y59162D01*
X415931Y58671D01*
X416422Y58343D01*
X417000Y58228D01*
X417579Y58343D01*
X418069Y58671D01*
X418397Y59162D01*
X418512Y59740D01*
X418397Y60318D01*
X418069Y60809D01*
X417579Y61137D01*
X417000Y61252D01*
D02*
G37*
G36*
X132500D02*
X131922Y61137D01*
X131431Y60809D01*
X131103Y60318D01*
X130988Y59740D01*
X131103Y59162D01*
X131431Y58671D01*
X131922Y58343D01*
X132500Y58228D01*
X133079Y58343D01*
X133569Y58671D01*
X133897Y59162D01*
X134012Y59740D01*
X133897Y60318D01*
X133569Y60809D01*
X133079Y61137D01*
X132500Y61252D01*
D02*
G37*
G36*
X456500Y58752D02*
X455922Y58637D01*
X455431Y58309D01*
X455103Y57819D01*
X454988Y57240D01*
X455103Y56661D01*
X455431Y56171D01*
X455922Y55843D01*
X456500Y55728D01*
X457079Y55843D01*
X457569Y56171D01*
X457897Y56661D01*
X458012Y57240D01*
X457897Y57819D01*
X457569Y58309D01*
X457079Y58637D01*
X456500Y58752D01*
D02*
G37*
G36*
X127000D02*
X126421Y58637D01*
X125931Y58309D01*
X125603Y57819D01*
X125488Y57240D01*
X125603Y56661D01*
X125931Y56171D01*
X126421Y55843D01*
X127000Y55728D01*
X127578Y55843D01*
X128069Y56171D01*
X128397Y56661D01*
X128512Y57240D01*
X128397Y57819D01*
X128069Y58309D01*
X127578Y58637D01*
X127000Y58752D01*
D02*
G37*
G36*
X461500Y56252D02*
X460921Y56137D01*
X460431Y55809D01*
X460103Y55318D01*
X459988Y54740D01*
X460103Y54162D01*
X460431Y53671D01*
X460921Y53343D01*
X461500Y53228D01*
X462079Y53343D01*
X462569Y53671D01*
X462897Y54162D01*
X463012Y54740D01*
X462897Y55318D01*
X462569Y55809D01*
X462079Y56137D01*
X461500Y56252D01*
D02*
G37*
G36*
X142000D02*
X141421Y56137D01*
X140931Y55809D01*
X140603Y55318D01*
X140488Y54740D01*
X140603Y54162D01*
X140931Y53671D01*
X141421Y53343D01*
X142000Y53228D01*
X142578Y53343D01*
X143069Y53671D01*
X143397Y54162D01*
X143512Y54740D01*
X143397Y55318D01*
X143069Y55809D01*
X142578Y56137D01*
X142000Y56252D01*
D02*
G37*
G36*
X478000Y53752D02*
X477422Y53637D01*
X476931Y53309D01*
X476603Y52819D01*
X476488Y52240D01*
X476603Y51661D01*
X476931Y51171D01*
X477422Y50843D01*
X478000Y50728D01*
X478579Y50843D01*
X479069Y51171D01*
X479397Y51661D01*
X479512Y52240D01*
X479397Y52819D01*
X479069Y53309D01*
X478579Y53637D01*
X478000Y53752D01*
D02*
G37*
G36*
X67500D02*
X66922Y53637D01*
X66431Y53309D01*
X66103Y52819D01*
X65988Y52240D01*
X66103Y51661D01*
X66431Y51171D01*
X66922Y50843D01*
X67500Y50728D01*
X68079Y50843D01*
X68569Y51171D01*
X68897Y51661D01*
X69012Y52240D01*
X68897Y52819D01*
X68569Y53309D01*
X68079Y53637D01*
X67500Y53752D01*
D02*
G37*
G36*
X487000Y51252D02*
X486421Y51137D01*
X485931Y50809D01*
X485603Y50318D01*
X485488Y49740D01*
X485603Y49161D01*
X485931Y48671D01*
X486421Y48343D01*
X487000Y48228D01*
X487578Y48343D01*
X488069Y48671D01*
X488397Y49161D01*
X488512Y49740D01*
X488397Y50318D01*
X488069Y50809D01*
X487578Y51137D01*
X487000Y51252D01*
D02*
G37*
G36*
X72500D02*
X71921Y51137D01*
X71431Y50809D01*
X71103Y50318D01*
X70988Y49740D01*
X71103Y49161D01*
X71431Y48671D01*
X71921Y48343D01*
X72500Y48228D01*
X73079Y48343D01*
X73569Y48671D01*
X73897Y49161D01*
X74012Y49740D01*
X73897Y50318D01*
X73569Y50809D01*
X73079Y51137D01*
X72500Y51252D01*
D02*
G37*
G36*
X498000Y48752D02*
X497422Y48637D01*
X496931Y48309D01*
X496603Y47818D01*
X496488Y47240D01*
X496603Y46661D01*
X496931Y46171D01*
X497422Y45843D01*
X498000Y45728D01*
X498579Y45843D01*
X499069Y46171D01*
X499397Y46661D01*
X499512Y47240D01*
X499397Y47818D01*
X499069Y48309D01*
X498579Y48637D01*
X498000Y48752D01*
D02*
G37*
G36*
X57000D02*
X56422Y48637D01*
X55931Y48309D01*
X55603Y47818D01*
X55488Y47240D01*
X55603Y46661D01*
X55931Y46171D01*
X56422Y45843D01*
X57000Y45728D01*
X57578Y45843D01*
X58069Y46171D01*
X58397Y46661D01*
X58512Y47240D01*
X58397Y47818D01*
X58069Y48309D01*
X57578Y48637D01*
X57000Y48752D01*
D02*
G37*
G36*
X507500Y46252D02*
X506921Y46137D01*
X506431Y45809D01*
X506103Y45318D01*
X505988Y44740D01*
X506103Y44161D01*
X506431Y43671D01*
X506921Y43343D01*
X507500Y43228D01*
X508078Y43343D01*
X508569Y43671D01*
X508897Y44161D01*
X509012Y44740D01*
X508897Y45318D01*
X508569Y45809D01*
X508078Y46137D01*
X507500Y46252D01*
D02*
G37*
G36*
X62000D02*
X61422Y46137D01*
X60931Y45809D01*
X60603Y45318D01*
X60488Y44740D01*
X60603Y44161D01*
X60931Y43671D01*
X61422Y43343D01*
X62000Y43228D01*
X62578Y43343D01*
X63069Y43671D01*
X63397Y44161D01*
X63512Y44740D01*
X63397Y45318D01*
X63069Y45809D01*
X62578Y46137D01*
X62000Y46252D01*
D02*
G37*
G36*
X517500Y43752D02*
X516922Y43637D01*
X516431Y43309D01*
X516103Y42818D01*
X515988Y42240D01*
X516103Y41662D01*
X516431Y41171D01*
X516922Y40843D01*
X517500Y40728D01*
X518079Y40843D01*
X518569Y41171D01*
X518897Y41662D01*
X519012Y42240D01*
X518897Y42818D01*
X518569Y43309D01*
X518079Y43637D01*
X517500Y43752D01*
D02*
G37*
G36*
X82500D02*
X81921Y43637D01*
X81431Y43309D01*
X81103Y42818D01*
X80988Y42240D01*
X81103Y41662D01*
X81431Y41171D01*
X81921Y40843D01*
X82500Y40728D01*
X83078Y40843D01*
X83569Y41171D01*
X83897Y41662D01*
X84012Y42240D01*
X83897Y42818D01*
X83569Y43309D01*
X83078Y43637D01*
X82500Y43752D01*
D02*
G37*
G36*
X531000Y41252D02*
X530421Y41137D01*
X529931Y40809D01*
X529603Y40319D01*
X529488Y39740D01*
X529603Y39162D01*
X529931Y38671D01*
X530421Y38343D01*
X531000Y38228D01*
X531578Y38343D01*
X532069Y38671D01*
X532397Y39162D01*
X532512Y39740D01*
X532397Y40319D01*
X532069Y40809D01*
X531578Y41137D01*
X531000Y41252D01*
D02*
G37*
G36*
X315000D02*
X314422Y41137D01*
X313931Y40809D01*
X313603Y40319D01*
X313488Y39740D01*
X313603Y39162D01*
X313931Y38671D01*
X314422Y38343D01*
X315000Y38228D01*
X315579Y38343D01*
X316069Y38671D01*
X316397Y39162D01*
X316512Y39740D01*
X316397Y40319D01*
X316069Y40809D01*
X315579Y41137D01*
X315000Y41252D01*
D02*
G37*
G36*
X595500Y59418D02*
X590500D01*
X590149Y59348D01*
X589851Y59149D01*
X589652Y58851D01*
X589582Y58500D01*
Y53500D01*
Y48500D01*
Y43500D01*
Y38500D01*
X589652Y38149D01*
X589851Y37851D01*
X590149Y37652D01*
X590500Y37582D01*
X595500D01*
X595851Y37652D01*
X596149Y37851D01*
X596348Y38149D01*
X596418Y38500D01*
Y43500D01*
Y48500D01*
Y53500D01*
Y58500D01*
X596348Y58851D01*
X596149Y59149D01*
X595851Y59348D01*
X595500Y59418D01*
D02*
G37*
G36*
X545500Y38752D02*
X544921Y38637D01*
X544431Y38309D01*
X544103Y37819D01*
X543988Y37240D01*
X544103Y36661D01*
X544431Y36171D01*
X544921Y35843D01*
X545500Y35728D01*
X546078Y35843D01*
X546569Y36171D01*
X546897Y36661D01*
X547012Y37240D01*
X546897Y37819D01*
X546569Y38309D01*
X546078Y38637D01*
X545500Y38752D01*
D02*
G37*
G36*
X329500D02*
X328922Y38637D01*
X328431Y38309D01*
X328103Y37819D01*
X327988Y37240D01*
X328103Y36661D01*
X328431Y36171D01*
X328922Y35843D01*
X329500Y35728D01*
X330079Y35843D01*
X330569Y36171D01*
X330897Y36661D01*
X331012Y37240D01*
X330897Y37819D01*
X330569Y38309D01*
X330079Y38637D01*
X329500Y38752D01*
D02*
G37*
G36*
X561000Y36252D02*
X560422Y36137D01*
X559931Y35809D01*
X559603Y35318D01*
X559488Y34740D01*
X559603Y34161D01*
X559931Y33671D01*
X560422Y33343D01*
X561000Y33228D01*
X561579Y33343D01*
X562069Y33671D01*
X562397Y34161D01*
X562512Y34740D01*
X562397Y35318D01*
X562069Y35809D01*
X561579Y36137D01*
X561000Y36252D01*
D02*
G37*
G36*
X309500D02*
X308922Y36137D01*
X308431Y35809D01*
X308103Y35318D01*
X307988Y34740D01*
X308103Y34161D01*
X308431Y33671D01*
X308922Y33343D01*
X309500Y33228D01*
X310079Y33343D01*
X310569Y33671D01*
X310897Y34161D01*
X311012Y34740D01*
X310897Y35318D01*
X310569Y35809D01*
X310079Y36137D01*
X309500Y36252D01*
D02*
G37*
G36*
X568500Y33752D02*
X567921Y33637D01*
X567431Y33309D01*
X567103Y32818D01*
X566988Y32240D01*
X567103Y31661D01*
X567431Y31171D01*
X567921Y30843D01*
X568500Y30728D01*
X569078Y30843D01*
X569569Y31171D01*
X569897Y31661D01*
X570012Y32240D01*
X569897Y32818D01*
X569569Y33309D01*
X569078Y33637D01*
X568500Y33752D01*
D02*
G37*
G36*
X304500D02*
X303922Y33637D01*
X303431Y33309D01*
X303103Y32818D01*
X302988Y32240D01*
X303103Y31661D01*
X303431Y31171D01*
X303922Y30843D01*
X304500Y30728D01*
X305079Y30843D01*
X305569Y31171D01*
X305897Y31661D01*
X306012Y32240D01*
X305897Y32818D01*
X305569Y33309D01*
X305079Y33637D01*
X304500Y33752D01*
D02*
G37*
G36*
X573000Y31252D02*
X572422Y31137D01*
X571931Y30809D01*
X571603Y30318D01*
X571488Y29740D01*
X571603Y29162D01*
X571931Y28671D01*
X572422Y28343D01*
X573000Y28228D01*
X573579Y28343D01*
X574069Y28671D01*
X574397Y29162D01*
X574512Y29740D01*
X574397Y30318D01*
X574069Y30809D01*
X573579Y31137D01*
X573000Y31252D01*
D02*
G37*
G36*
X319500D02*
X318921Y31137D01*
X318431Y30809D01*
X318103Y30318D01*
X317988Y29740D01*
X318103Y29162D01*
X318431Y28671D01*
X318921Y28343D01*
X319500Y28228D01*
X320078Y28343D01*
X320569Y28671D01*
X320897Y29162D01*
X321012Y29740D01*
X320897Y30318D01*
X320569Y30809D01*
X320078Y31137D01*
X319500Y31252D01*
D02*
G37*
G36*
X322717Y24626D02*
X321713Y24494D01*
X320778Y24106D01*
X319975Y23490D01*
X319358Y22687D01*
X318971Y21752D01*
X318839Y20748D01*
X318971Y19744D01*
X319358Y18809D01*
X319975Y18006D01*
X320778Y17390D01*
X321713Y17002D01*
X322717Y16870D01*
X323721Y17002D01*
X324656Y17390D01*
X325459Y18006D01*
X326076Y18809D01*
X326463Y19744D01*
X326595Y20748D01*
X326463Y21752D01*
X326076Y22687D01*
X325459Y23490D01*
X324656Y24106D01*
X323721Y24494D01*
X322717Y24626D01*
D02*
G37*
G36*
X312717D02*
X311713Y24494D01*
X310778Y24106D01*
X309975Y23490D01*
X309359Y22687D01*
X308971Y21752D01*
X308839Y20748D01*
X308971Y19744D01*
X309359Y18809D01*
X309975Y18006D01*
X310778Y17390D01*
X311713Y17002D01*
X312717Y16870D01*
X313721Y17002D01*
X314656Y17390D01*
X315459Y18006D01*
X316075Y18809D01*
X316463Y19744D01*
X316595Y20748D01*
X316463Y21752D01*
X316075Y22687D01*
X315459Y23490D01*
X314656Y24106D01*
X313721Y24494D01*
X312717Y24626D01*
D02*
G37*
G36*
X302717D02*
X301713Y24494D01*
X300778Y24106D01*
X299975Y23490D01*
X299359Y22687D01*
X298971Y21752D01*
X298839Y20748D01*
X298971Y19744D01*
X299359Y18809D01*
X299975Y18006D01*
X300778Y17390D01*
X301713Y17002D01*
X302717Y16870D01*
X303721Y17002D01*
X304656Y17390D01*
X305459Y18006D01*
X306076Y18809D01*
X306463Y19744D01*
X306595Y20748D01*
X306463Y21752D01*
X306076Y22687D01*
X305459Y23490D01*
X304656Y24106D01*
X303721Y24494D01*
X302717Y24626D01*
D02*
G37*
G36*
X292717D02*
X291713Y24494D01*
X290778Y24106D01*
X289975Y23490D01*
X289358Y22687D01*
X288971Y21752D01*
X288839Y20748D01*
X288971Y19744D01*
X289358Y18809D01*
X289975Y18006D01*
X290778Y17390D01*
X291713Y17002D01*
X292717Y16870D01*
X293721Y17002D01*
X294656Y17390D01*
X295459Y18006D01*
X296076Y18809D01*
X296463Y19744D01*
X296595Y20748D01*
X296463Y21752D01*
X296076Y22687D01*
X295459Y23490D01*
X294656Y24106D01*
X293721Y24494D01*
X292717Y24626D01*
D02*
G37*
G36*
X282717D02*
X281713Y24494D01*
X280778Y24106D01*
X279975Y23490D01*
X279359Y22687D01*
X278971Y21752D01*
X278839Y20748D01*
X278971Y19744D01*
X279359Y18809D01*
X279975Y18006D01*
X280778Y17390D01*
X281713Y17002D01*
X282717Y16870D01*
X283721Y17002D01*
X284656Y17390D01*
X285459Y18006D01*
X286075Y18809D01*
X286463Y19744D01*
X286595Y20748D01*
X286463Y21752D01*
X286075Y22687D01*
X285459Y23490D01*
X284656Y24106D01*
X283721Y24494D01*
X282717Y24626D01*
D02*
G37*
G36*
X272717D02*
X271713Y24494D01*
X270778Y24106D01*
X269975Y23490D01*
X269358Y22687D01*
X268971Y21752D01*
X268839Y20748D01*
X268971Y19744D01*
X269358Y18809D01*
X269975Y18006D01*
X270778Y17390D01*
X271713Y17002D01*
X272717Y16870D01*
X273721Y17002D01*
X274656Y17390D01*
X275459Y18006D01*
X276076Y18809D01*
X276463Y19744D01*
X276595Y20748D01*
X276463Y21752D01*
X276076Y22687D01*
X275459Y23490D01*
X274656Y24106D01*
X273721Y24494D01*
X272717Y24626D01*
D02*
G37*
G36*
X262717D02*
X261713Y24494D01*
X260778Y24106D01*
X259975Y23490D01*
X259359Y22687D01*
X258971Y21752D01*
X258839Y20748D01*
X258971Y19744D01*
X259359Y18809D01*
X259975Y18006D01*
X260778Y17390D01*
X261713Y17002D01*
X262717Y16870D01*
X263721Y17002D01*
X264656Y17390D01*
X265459Y18006D01*
X266075Y18809D01*
X266463Y19744D01*
X266595Y20748D01*
X266463Y21752D01*
X266075Y22687D01*
X265459Y23490D01*
X264656Y24106D01*
X263721Y24494D01*
X262717Y24626D01*
D02*
G37*
G36*
X252717D02*
X251713Y24494D01*
X250778Y24106D01*
X249975Y23490D01*
X249359Y22687D01*
X248971Y21752D01*
X248839Y20748D01*
X248971Y19744D01*
X249359Y18809D01*
X249975Y18006D01*
X250778Y17390D01*
X251713Y17002D01*
X252717Y16870D01*
X253721Y17002D01*
X254656Y17390D01*
X255459Y18006D01*
X256076Y18809D01*
X256463Y19744D01*
X256595Y20748D01*
X256463Y21752D01*
X256076Y22687D01*
X255459Y23490D01*
X254656Y24106D01*
X253721Y24494D01*
X252717Y24626D01*
D02*
G37*
G36*
X242717D02*
X241713Y24494D01*
X240778Y24106D01*
X239975Y23490D01*
X239358Y22687D01*
X238971Y21752D01*
X238839Y20748D01*
X238971Y19744D01*
X239358Y18809D01*
X239975Y18006D01*
X240778Y17390D01*
X241713Y17002D01*
X242717Y16870D01*
X243721Y17002D01*
X244656Y17390D01*
X245459Y18006D01*
X246076Y18809D01*
X246463Y19744D01*
X246595Y20748D01*
X246463Y21752D01*
X246076Y22687D01*
X245459Y23490D01*
X244656Y24106D01*
X243721Y24494D01*
X242717Y24626D01*
D02*
G37*
G36*
X232717D02*
X231713Y24494D01*
X230778Y24106D01*
X229975Y23490D01*
X229359Y22687D01*
X228971Y21752D01*
X228839Y20748D01*
X228971Y19744D01*
X229359Y18809D01*
X229975Y18006D01*
X230778Y17390D01*
X231713Y17002D01*
X232717Y16870D01*
X233721Y17002D01*
X234656Y17390D01*
X235459Y18006D01*
X236075Y18809D01*
X236463Y19744D01*
X236595Y20748D01*
X236463Y21752D01*
X236075Y22687D01*
X235459Y23490D01*
X234656Y24106D01*
X233721Y24494D01*
X232717Y24626D01*
D02*
G37*
G36*
X222717D02*
X221713Y24494D01*
X220778Y24106D01*
X219975Y23490D01*
X219358Y22687D01*
X218971Y21752D01*
X218839Y20748D01*
X218971Y19744D01*
X219358Y18809D01*
X219975Y18006D01*
X220778Y17390D01*
X221713Y17002D01*
X222717Y16870D01*
X223721Y17002D01*
X224656Y17390D01*
X225459Y18006D01*
X226076Y18809D01*
X226463Y19744D01*
X226595Y20748D01*
X226463Y21752D01*
X226076Y22687D01*
X225459Y23490D01*
X224656Y24106D01*
X223721Y24494D01*
X222717Y24626D01*
D02*
G37*
G36*
X212717D02*
X211713Y24494D01*
X210778Y24106D01*
X209975Y23490D01*
X209359Y22687D01*
X208971Y21752D01*
X208839Y20748D01*
X208971Y19744D01*
X209359Y18809D01*
X209975Y18006D01*
X210778Y17390D01*
X211713Y17002D01*
X212717Y16870D01*
X213721Y17002D01*
X214656Y17390D01*
X215459Y18006D01*
X216075Y18809D01*
X216463Y19744D01*
X216595Y20748D01*
X216463Y21752D01*
X216075Y22687D01*
X215459Y23490D01*
X214656Y24106D01*
X213721Y24494D01*
X212717Y24626D01*
D02*
G37*
G36*
X194134D02*
X193130Y24494D01*
X192195Y24106D01*
X191392Y23490D01*
X190776Y22687D01*
X190388Y21752D01*
X190256Y20748D01*
X190388Y19744D01*
X190776Y18809D01*
X191392Y18006D01*
X192195Y17390D01*
X193130Y17002D01*
X194134Y16870D01*
X195138Y17002D01*
X196073Y17390D01*
X196876Y18006D01*
X197493Y18809D01*
X197880Y19744D01*
X198012Y20748D01*
X197880Y21752D01*
X197493Y22687D01*
X196876Y23490D01*
X196073Y24106D01*
X195138Y24494D01*
X194134Y24626D01*
D02*
G37*
G36*
X184134D02*
X183130Y24494D01*
X182195Y24106D01*
X181392Y23490D01*
X180775Y22687D01*
X180388Y21752D01*
X180256Y20748D01*
X180388Y19744D01*
X180775Y18809D01*
X181392Y18006D01*
X182195Y17390D01*
X183130Y17002D01*
X184134Y16870D01*
X185138Y17002D01*
X186073Y17390D01*
X186876Y18006D01*
X187493Y18809D01*
X187880Y19744D01*
X188012Y20748D01*
X187880Y21752D01*
X187493Y22687D01*
X186876Y23490D01*
X186073Y24106D01*
X185138Y24494D01*
X184134Y24626D01*
D02*
G37*
G36*
X174134D02*
X173130Y24494D01*
X172195Y24106D01*
X171392Y23490D01*
X170775Y22687D01*
X170388Y21752D01*
X170256Y20748D01*
X170388Y19744D01*
X170775Y18809D01*
X171392Y18006D01*
X172195Y17390D01*
X173130Y17002D01*
X174134Y16870D01*
X175138Y17002D01*
X176073Y17390D01*
X176876Y18006D01*
X177492Y18809D01*
X177880Y19744D01*
X178012Y20748D01*
X177880Y21752D01*
X177492Y22687D01*
X176876Y23490D01*
X176073Y24106D01*
X175138Y24494D01*
X174134Y24626D01*
D02*
G37*
G36*
X164134D02*
X163130Y24494D01*
X162195Y24106D01*
X161392Y23490D01*
X160775Y22687D01*
X160388Y21752D01*
X160256Y20748D01*
X160388Y19744D01*
X160775Y18809D01*
X161392Y18006D01*
X162195Y17390D01*
X163130Y17002D01*
X164134Y16870D01*
X165138Y17002D01*
X166073Y17390D01*
X166876Y18006D01*
X167492Y18809D01*
X167880Y19744D01*
X168012Y20748D01*
X167880Y21752D01*
X167492Y22687D01*
X166876Y23490D01*
X166073Y24106D01*
X165138Y24494D01*
X164134Y24626D01*
D02*
G37*
G36*
X145551D02*
X144547Y24494D01*
X143612Y24106D01*
X142809Y23490D01*
X142192Y22687D01*
X141805Y21752D01*
X141673Y20748D01*
X141805Y19744D01*
X142192Y18809D01*
X142809Y18006D01*
X143612Y17390D01*
X144547Y17002D01*
X145551Y16870D01*
X146555Y17002D01*
X147490Y17390D01*
X148293Y18006D01*
X148909Y18809D01*
X149297Y19744D01*
X149429Y20748D01*
X149297Y21752D01*
X148909Y22687D01*
X148293Y23490D01*
X147490Y24106D01*
X146555Y24494D01*
X145551Y24626D01*
D02*
G37*
G36*
X135551D02*
X134547Y24494D01*
X133612Y24106D01*
X132809Y23490D01*
X132193Y22687D01*
X131805Y21752D01*
X131673Y20748D01*
X131805Y19744D01*
X132193Y18809D01*
X132809Y18006D01*
X133612Y17390D01*
X134547Y17002D01*
X135551Y16870D01*
X136555Y17002D01*
X137490Y17390D01*
X138293Y18006D01*
X138909Y18809D01*
X139297Y19744D01*
X139429Y20748D01*
X139297Y21752D01*
X138909Y22687D01*
X138293Y23490D01*
X137490Y24106D01*
X136555Y24494D01*
X135551Y24626D01*
D02*
G37*
G36*
X125551D02*
X124547Y24494D01*
X123612Y24106D01*
X122809Y23490D01*
X122193Y22687D01*
X121805Y21752D01*
X121673Y20748D01*
X121805Y19744D01*
X122193Y18809D01*
X122809Y18006D01*
X123612Y17390D01*
X124547Y17002D01*
X125551Y16870D01*
X126555Y17002D01*
X127490Y17390D01*
X128293Y18006D01*
X128910Y18809D01*
X129297Y19744D01*
X129429Y20748D01*
X129297Y21752D01*
X128910Y22687D01*
X128293Y23490D01*
X127490Y24106D01*
X126555Y24494D01*
X125551Y24626D01*
D02*
G37*
G36*
X115551D02*
X114547Y24494D01*
X113612Y24106D01*
X112809Y23490D01*
X112192Y22687D01*
X111805Y21752D01*
X111673Y20748D01*
X111805Y19744D01*
X112192Y18809D01*
X112809Y18006D01*
X113612Y17390D01*
X114547Y17002D01*
X115551Y16870D01*
X116555Y17002D01*
X117490Y17390D01*
X118293Y18006D01*
X118910Y18809D01*
X119297Y19744D01*
X119429Y20748D01*
X119297Y21752D01*
X118910Y22687D01*
X118293Y23490D01*
X117490Y24106D01*
X116555Y24494D01*
X115551Y24626D01*
D02*
G37*
G36*
X105551D02*
X104547Y24494D01*
X103612Y24106D01*
X102809Y23490D01*
X102192Y22687D01*
X101805Y21752D01*
X101673Y20748D01*
X101805Y19744D01*
X102192Y18809D01*
X102809Y18006D01*
X103612Y17390D01*
X104547Y17002D01*
X105551Y16870D01*
X106555Y17002D01*
X107490Y17390D01*
X108293Y18006D01*
X108909Y18809D01*
X109297Y19744D01*
X109429Y20748D01*
X109297Y21752D01*
X108909Y22687D01*
X108293Y23490D01*
X107490Y24106D01*
X106555Y24494D01*
X105551Y24626D01*
D02*
G37*
G36*
X95551D02*
X94547Y24494D01*
X93612Y24106D01*
X92809Y23490D01*
X92193Y22687D01*
X91805Y21752D01*
X91673Y20748D01*
X91805Y19744D01*
X92193Y18809D01*
X92809Y18006D01*
X93612Y17390D01*
X94547Y17002D01*
X95551Y16870D01*
X96555Y17002D01*
X97490Y17390D01*
X98293Y18006D01*
X98909Y18809D01*
X99297Y19744D01*
X99429Y20748D01*
X99297Y21752D01*
X98909Y22687D01*
X98293Y23490D01*
X97490Y24106D01*
X96555Y24494D01*
X95551Y24626D01*
D02*
G37*
G36*
X85551D02*
X84547Y24494D01*
X83612Y24106D01*
X82809Y23490D01*
X82192Y22687D01*
X81805Y21752D01*
X81673Y20748D01*
X81805Y19744D01*
X82192Y18809D01*
X82809Y18006D01*
X83612Y17390D01*
X84547Y17002D01*
X85551Y16870D01*
X86555Y17002D01*
X87490Y17390D01*
X88293Y18006D01*
X88910Y18809D01*
X89297Y19744D01*
X89429Y20748D01*
X89297Y21752D01*
X88910Y22687D01*
X88293Y23490D01*
X87490Y24106D01*
X86555Y24494D01*
X85551Y24626D01*
D02*
G37*
G36*
X75551D02*
X74547Y24494D01*
X73612Y24106D01*
X72809Y23490D01*
X72193Y22687D01*
X71805Y21752D01*
X71673Y20748D01*
X71805Y19744D01*
X72193Y18809D01*
X72809Y18006D01*
X73612Y17390D01*
X74547Y17002D01*
X75551Y16870D01*
X76555Y17002D01*
X77490Y17390D01*
X78293Y18006D01*
X78909Y18809D01*
X79297Y19744D01*
X79429Y20748D01*
X79297Y21752D01*
X78909Y22687D01*
X78293Y23490D01*
X77490Y24106D01*
X76555Y24494D01*
X75551Y24626D01*
D02*
G37*
G36*
X65551D02*
X64547Y24494D01*
X63612Y24106D01*
X62809Y23490D01*
X62192Y22687D01*
X61805Y21752D01*
X61673Y20748D01*
X61805Y19744D01*
X62192Y18809D01*
X62809Y18006D01*
X63612Y17390D01*
X64547Y17002D01*
X65551Y16870D01*
X66555Y17002D01*
X67490Y17390D01*
X68293Y18006D01*
X68910Y18809D01*
X69297Y19744D01*
X69429Y20748D01*
X69297Y21752D01*
X68910Y22687D01*
X68293Y23490D01*
X67490Y24106D01*
X66555Y24494D01*
X65551Y24626D01*
D02*
G37*
G36*
X55551D02*
X54547Y24494D01*
X53612Y24106D01*
X52809Y23490D01*
X52192Y22687D01*
X51805Y21752D01*
X51673Y20748D01*
X51805Y19744D01*
X52192Y18809D01*
X52809Y18006D01*
X53612Y17390D01*
X54547Y17002D01*
X55551Y16870D01*
X56555Y17002D01*
X57490Y17390D01*
X58293Y18006D01*
X58909Y18809D01*
X59297Y19744D01*
X59429Y20748D01*
X59297Y21752D01*
X58909Y22687D01*
X58293Y23490D01*
X57490Y24106D01*
X56555Y24494D01*
X55551Y24626D01*
D02*
G37*
G36*
X45551D02*
X44547Y24494D01*
X43612Y24106D01*
X42809Y23490D01*
X42193Y22687D01*
X41805Y21752D01*
X41673Y20748D01*
X41805Y19744D01*
X42193Y18809D01*
X42809Y18006D01*
X43612Y17390D01*
X44547Y17002D01*
X45551Y16870D01*
X46555Y17002D01*
X47490Y17390D01*
X48293Y18006D01*
X48910Y18809D01*
X49297Y19744D01*
X49429Y20748D01*
X49297Y21752D01*
X48910Y22687D01*
X48293Y23490D01*
X47490Y24106D01*
X46555Y24494D01*
X45551Y24626D01*
D02*
G37*
G36*
X35551D02*
X34547Y24494D01*
X33612Y24106D01*
X32809Y23490D01*
X32193Y22687D01*
X31805Y21752D01*
X31673Y20748D01*
X31805Y19744D01*
X32193Y18809D01*
X32809Y18006D01*
X33612Y17390D01*
X34547Y17002D01*
X35551Y16870D01*
X36555Y17002D01*
X37490Y17390D01*
X38293Y18006D01*
X38910Y18809D01*
X39297Y19744D01*
X39429Y20748D01*
X39297Y21752D01*
X38910Y22687D01*
X38293Y23490D01*
X37490Y24106D01*
X36555Y24494D01*
X35551Y24626D01*
D02*
G37*
G36*
X322717Y14626D02*
X321713Y14494D01*
X320778Y14107D01*
X319975Y13490D01*
X319358Y12687D01*
X318971Y11752D01*
X318839Y10748D01*
X318971Y9744D01*
X319358Y8809D01*
X319975Y8006D01*
X320778Y7389D01*
X321713Y7002D01*
X322717Y6870D01*
X323721Y7002D01*
X324656Y7389D01*
X325459Y8006D01*
X326076Y8809D01*
X326463Y9744D01*
X326595Y10748D01*
X326463Y11752D01*
X326076Y12687D01*
X325459Y13490D01*
X324656Y14107D01*
X323721Y14494D01*
X322717Y14626D01*
D02*
G37*
G36*
X312717D02*
X311713Y14494D01*
X310778Y14107D01*
X309975Y13490D01*
X309359Y12687D01*
X308971Y11752D01*
X308839Y10748D01*
X308971Y9744D01*
X309359Y8809D01*
X309975Y8006D01*
X310778Y7389D01*
X311713Y7002D01*
X312717Y6870D01*
X313721Y7002D01*
X314656Y7389D01*
X315459Y8006D01*
X316075Y8809D01*
X316463Y9744D01*
X316595Y10748D01*
X316463Y11752D01*
X316075Y12687D01*
X315459Y13490D01*
X314656Y14107D01*
X313721Y14494D01*
X312717Y14626D01*
D02*
G37*
G36*
X302717D02*
X301713Y14494D01*
X300778Y14107D01*
X299975Y13490D01*
X299359Y12687D01*
X298971Y11752D01*
X298839Y10748D01*
X298971Y9744D01*
X299359Y8809D01*
X299975Y8006D01*
X300778Y7389D01*
X301713Y7002D01*
X302717Y6870D01*
X303721Y7002D01*
X304656Y7389D01*
X305459Y8006D01*
X306076Y8809D01*
X306463Y9744D01*
X306595Y10748D01*
X306463Y11752D01*
X306076Y12687D01*
X305459Y13490D01*
X304656Y14107D01*
X303721Y14494D01*
X302717Y14626D01*
D02*
G37*
G36*
X292717D02*
X291713Y14494D01*
X290778Y14107D01*
X289975Y13490D01*
X289358Y12687D01*
X288971Y11752D01*
X288839Y10748D01*
X288971Y9744D01*
X289358Y8809D01*
X289975Y8006D01*
X290778Y7389D01*
X291713Y7002D01*
X292717Y6870D01*
X293721Y7002D01*
X294656Y7389D01*
X295459Y8006D01*
X296076Y8809D01*
X296463Y9744D01*
X296595Y10748D01*
X296463Y11752D01*
X296076Y12687D01*
X295459Y13490D01*
X294656Y14107D01*
X293721Y14494D01*
X292717Y14626D01*
D02*
G37*
G36*
X282717D02*
X281713Y14494D01*
X280778Y14107D01*
X279975Y13490D01*
X279359Y12687D01*
X278971Y11752D01*
X278839Y10748D01*
X278971Y9744D01*
X279359Y8809D01*
X279975Y8006D01*
X280778Y7389D01*
X281713Y7002D01*
X282717Y6870D01*
X283721Y7002D01*
X284656Y7389D01*
X285459Y8006D01*
X286075Y8809D01*
X286463Y9744D01*
X286595Y10748D01*
X286463Y11752D01*
X286075Y12687D01*
X285459Y13490D01*
X284656Y14107D01*
X283721Y14494D01*
X282717Y14626D01*
D02*
G37*
G36*
X272717D02*
X271713Y14494D01*
X270778Y14107D01*
X269975Y13490D01*
X269358Y12687D01*
X268971Y11752D01*
X268839Y10748D01*
X268971Y9744D01*
X269358Y8809D01*
X269975Y8006D01*
X270778Y7389D01*
X271713Y7002D01*
X272717Y6870D01*
X273721Y7002D01*
X274656Y7389D01*
X275459Y8006D01*
X276076Y8809D01*
X276463Y9744D01*
X276595Y10748D01*
X276463Y11752D01*
X276076Y12687D01*
X275459Y13490D01*
X274656Y14107D01*
X273721Y14494D01*
X272717Y14626D01*
D02*
G37*
G36*
X262717D02*
X261713Y14494D01*
X260778Y14107D01*
X259975Y13490D01*
X259359Y12687D01*
X258971Y11752D01*
X258839Y10748D01*
X258971Y9744D01*
X259359Y8809D01*
X259975Y8006D01*
X260778Y7389D01*
X261713Y7002D01*
X262717Y6870D01*
X263721Y7002D01*
X264656Y7389D01*
X265459Y8006D01*
X266075Y8809D01*
X266463Y9744D01*
X266595Y10748D01*
X266463Y11752D01*
X266075Y12687D01*
X265459Y13490D01*
X264656Y14107D01*
X263721Y14494D01*
X262717Y14626D01*
D02*
G37*
G36*
X252717D02*
X251713Y14494D01*
X250778Y14107D01*
X249975Y13490D01*
X249359Y12687D01*
X248971Y11752D01*
X248839Y10748D01*
X248971Y9744D01*
X249359Y8809D01*
X249975Y8006D01*
X250778Y7389D01*
X251713Y7002D01*
X252717Y6870D01*
X253721Y7002D01*
X254656Y7389D01*
X255459Y8006D01*
X256076Y8809D01*
X256463Y9744D01*
X256595Y10748D01*
X256463Y11752D01*
X256076Y12687D01*
X255459Y13490D01*
X254656Y14107D01*
X253721Y14494D01*
X252717Y14626D01*
D02*
G37*
G36*
X242717D02*
X241713Y14494D01*
X240778Y14107D01*
X239975Y13490D01*
X239358Y12687D01*
X238971Y11752D01*
X238839Y10748D01*
X238971Y9744D01*
X239358Y8809D01*
X239975Y8006D01*
X240778Y7389D01*
X241713Y7002D01*
X242717Y6870D01*
X243721Y7002D01*
X244656Y7389D01*
X245459Y8006D01*
X246076Y8809D01*
X246463Y9744D01*
X246595Y10748D01*
X246463Y11752D01*
X246076Y12687D01*
X245459Y13490D01*
X244656Y14107D01*
X243721Y14494D01*
X242717Y14626D01*
D02*
G37*
G36*
X232717D02*
X231713Y14494D01*
X230778Y14107D01*
X229975Y13490D01*
X229359Y12687D01*
X228971Y11752D01*
X228839Y10748D01*
X228971Y9744D01*
X229359Y8809D01*
X229975Y8006D01*
X230778Y7389D01*
X231713Y7002D01*
X232717Y6870D01*
X233721Y7002D01*
X234656Y7389D01*
X235459Y8006D01*
X236075Y8809D01*
X236463Y9744D01*
X236595Y10748D01*
X236463Y11752D01*
X236075Y12687D01*
X235459Y13490D01*
X234656Y14107D01*
X233721Y14494D01*
X232717Y14626D01*
D02*
G37*
G36*
X194134D02*
X193130Y14494D01*
X192195Y14107D01*
X191392Y13490D01*
X190776Y12687D01*
X190388Y11752D01*
X190256Y10748D01*
X190388Y9744D01*
X190776Y8809D01*
X191392Y8006D01*
X192195Y7389D01*
X193130Y7002D01*
X194134Y6870D01*
X195138Y7002D01*
X196073Y7389D01*
X196876Y8006D01*
X197493Y8809D01*
X197880Y9744D01*
X198012Y10748D01*
X197880Y11752D01*
X197493Y12687D01*
X196876Y13490D01*
X196073Y14107D01*
X195138Y14494D01*
X194134Y14626D01*
D02*
G37*
G36*
X184134D02*
X183130Y14494D01*
X182195Y14107D01*
X181392Y13490D01*
X180775Y12687D01*
X180388Y11752D01*
X180256Y10748D01*
X180388Y9744D01*
X180775Y8809D01*
X181392Y8006D01*
X182195Y7389D01*
X183130Y7002D01*
X184134Y6870D01*
X185138Y7002D01*
X186073Y7389D01*
X186876Y8006D01*
X187493Y8809D01*
X187880Y9744D01*
X188012Y10748D01*
X187880Y11752D01*
X187493Y12687D01*
X186876Y13490D01*
X186073Y14107D01*
X185138Y14494D01*
X184134Y14626D01*
D02*
G37*
G36*
X174134D02*
X173130Y14494D01*
X172195Y14107D01*
X171392Y13490D01*
X170775Y12687D01*
X170388Y11752D01*
X170256Y10748D01*
X170388Y9744D01*
X170775Y8809D01*
X171392Y8006D01*
X172195Y7389D01*
X173130Y7002D01*
X174134Y6870D01*
X175138Y7002D01*
X176073Y7389D01*
X176876Y8006D01*
X177492Y8809D01*
X177880Y9744D01*
X178012Y10748D01*
X177880Y11752D01*
X177492Y12687D01*
X176876Y13490D01*
X176073Y14107D01*
X175138Y14494D01*
X174134Y14626D01*
D02*
G37*
G36*
X145551D02*
X144547Y14494D01*
X143612Y14107D01*
X142809Y13490D01*
X142192Y12687D01*
X141805Y11752D01*
X141673Y10748D01*
X141805Y9744D01*
X142192Y8809D01*
X142809Y8006D01*
X143612Y7389D01*
X144547Y7002D01*
X145551Y6870D01*
X146555Y7002D01*
X147490Y7389D01*
X148293Y8006D01*
X148909Y8809D01*
X149297Y9744D01*
X149429Y10748D01*
X149297Y11752D01*
X148909Y12687D01*
X148293Y13490D01*
X147490Y14107D01*
X146555Y14494D01*
X145551Y14626D01*
D02*
G37*
G36*
X135551D02*
X134547Y14494D01*
X133612Y14107D01*
X132809Y13490D01*
X132193Y12687D01*
X131805Y11752D01*
X131673Y10748D01*
X131805Y9744D01*
X132193Y8809D01*
X132809Y8006D01*
X133612Y7389D01*
X134547Y7002D01*
X135551Y6870D01*
X136555Y7002D01*
X137490Y7389D01*
X138293Y8006D01*
X138909Y8809D01*
X139297Y9744D01*
X139429Y10748D01*
X139297Y11752D01*
X138909Y12687D01*
X138293Y13490D01*
X137490Y14107D01*
X136555Y14494D01*
X135551Y14626D01*
D02*
G37*
G36*
X125551D02*
X124547Y14494D01*
X123612Y14107D01*
X122809Y13490D01*
X122193Y12687D01*
X121805Y11752D01*
X121673Y10748D01*
X121805Y9744D01*
X122193Y8809D01*
X122809Y8006D01*
X123612Y7389D01*
X124547Y7002D01*
X125551Y6870D01*
X126555Y7002D01*
X127490Y7389D01*
X128293Y8006D01*
X128910Y8809D01*
X129297Y9744D01*
X129429Y10748D01*
X129297Y11752D01*
X128910Y12687D01*
X128293Y13490D01*
X127490Y14107D01*
X126555Y14494D01*
X125551Y14626D01*
D02*
G37*
G36*
X115551D02*
X114547Y14494D01*
X113612Y14107D01*
X112809Y13490D01*
X112192Y12687D01*
X111805Y11752D01*
X111673Y10748D01*
X111805Y9744D01*
X112192Y8809D01*
X112809Y8006D01*
X113612Y7389D01*
X114547Y7002D01*
X115551Y6870D01*
X116555Y7002D01*
X117490Y7389D01*
X118293Y8006D01*
X118910Y8809D01*
X119297Y9744D01*
X119429Y10748D01*
X119297Y11752D01*
X118910Y12687D01*
X118293Y13490D01*
X117490Y14107D01*
X116555Y14494D01*
X115551Y14626D01*
D02*
G37*
G36*
X105551D02*
X104547Y14494D01*
X103612Y14107D01*
X102809Y13490D01*
X102192Y12687D01*
X101805Y11752D01*
X101673Y10748D01*
X101805Y9744D01*
X102192Y8809D01*
X102809Y8006D01*
X103612Y7389D01*
X104547Y7002D01*
X105551Y6870D01*
X106555Y7002D01*
X107490Y7389D01*
X108293Y8006D01*
X108909Y8809D01*
X109297Y9744D01*
X109429Y10748D01*
X109297Y11752D01*
X108909Y12687D01*
X108293Y13490D01*
X107490Y14107D01*
X106555Y14494D01*
X105551Y14626D01*
D02*
G37*
G36*
X95551D02*
X94547Y14494D01*
X93612Y14107D01*
X92809Y13490D01*
X92193Y12687D01*
X91805Y11752D01*
X91673Y10748D01*
X91805Y9744D01*
X92193Y8809D01*
X92809Y8006D01*
X93612Y7389D01*
X94547Y7002D01*
X95551Y6870D01*
X96555Y7002D01*
X97490Y7389D01*
X98293Y8006D01*
X98909Y8809D01*
X99297Y9744D01*
X99429Y10748D01*
X99297Y11752D01*
X98909Y12687D01*
X98293Y13490D01*
X97490Y14107D01*
X96555Y14494D01*
X95551Y14626D01*
D02*
G37*
G36*
X85551D02*
X84547Y14494D01*
X83612Y14107D01*
X82809Y13490D01*
X82192Y12687D01*
X81805Y11752D01*
X81673Y10748D01*
X81805Y9744D01*
X82192Y8809D01*
X82809Y8006D01*
X83612Y7389D01*
X84547Y7002D01*
X85551Y6870D01*
X86555Y7002D01*
X87490Y7389D01*
X88293Y8006D01*
X88910Y8809D01*
X89297Y9744D01*
X89429Y10748D01*
X89297Y11752D01*
X88910Y12687D01*
X88293Y13490D01*
X87490Y14107D01*
X86555Y14494D01*
X85551Y14626D01*
D02*
G37*
G36*
X75551D02*
X74547Y14494D01*
X73612Y14107D01*
X72809Y13490D01*
X72193Y12687D01*
X71805Y11752D01*
X71673Y10748D01*
X71805Y9744D01*
X72193Y8809D01*
X72809Y8006D01*
X73612Y7389D01*
X74547Y7002D01*
X75551Y6870D01*
X76555Y7002D01*
X77490Y7389D01*
X78293Y8006D01*
X78909Y8809D01*
X79297Y9744D01*
X79429Y10748D01*
X79297Y11752D01*
X78909Y12687D01*
X78293Y13490D01*
X77490Y14107D01*
X76555Y14494D01*
X75551Y14626D01*
D02*
G37*
G36*
X65551D02*
X64547Y14494D01*
X63612Y14107D01*
X62809Y13490D01*
X62192Y12687D01*
X61805Y11752D01*
X61673Y10748D01*
X61805Y9744D01*
X62192Y8809D01*
X62809Y8006D01*
X63612Y7389D01*
X64547Y7002D01*
X65551Y6870D01*
X66555Y7002D01*
X67490Y7389D01*
X68293Y8006D01*
X68910Y8809D01*
X69297Y9744D01*
X69429Y10748D01*
X69297Y11752D01*
X68910Y12687D01*
X68293Y13490D01*
X67490Y14107D01*
X66555Y14494D01*
X65551Y14626D01*
D02*
G37*
G36*
X55551D02*
X54547Y14494D01*
X53612Y14107D01*
X52809Y13490D01*
X52192Y12687D01*
X51805Y11752D01*
X51673Y10748D01*
X51805Y9744D01*
X52192Y8809D01*
X52809Y8006D01*
X53612Y7389D01*
X54547Y7002D01*
X55551Y6870D01*
X56555Y7002D01*
X57490Y7389D01*
X58293Y8006D01*
X58909Y8809D01*
X59297Y9744D01*
X59429Y10748D01*
X59297Y11752D01*
X58909Y12687D01*
X58293Y13490D01*
X57490Y14107D01*
X56555Y14494D01*
X55551Y14626D01*
D02*
G37*
G36*
X338000Y344752D02*
X337421Y344637D01*
X336931Y344309D01*
X336603Y343818D01*
X336488Y343240D01*
X336603Y342661D01*
X336931Y342171D01*
X337421Y341843D01*
X338000Y341728D01*
X338579Y341843D01*
X339069Y342171D01*
X339397Y342661D01*
X339512Y343240D01*
X339397Y343818D01*
X339069Y344309D01*
X338579Y344637D01*
X338000Y344752D01*
D02*
G37*
G36*
X334500D02*
X333922Y344637D01*
X333431Y344309D01*
X333103Y343818D01*
X332988Y343240D01*
X333103Y342661D01*
X333431Y342171D01*
X333922Y341843D01*
X334500Y341728D01*
X335079Y341843D01*
X335569Y342171D01*
X335897Y342661D01*
X336012Y343240D01*
X335897Y343818D01*
X335569Y344309D01*
X335079Y344637D01*
X334500Y344752D01*
D02*
G37*
G36*
X329500D02*
X328922Y344637D01*
X328431Y344309D01*
X328103Y343818D01*
X327988Y343240D01*
X328103Y342661D01*
X328431Y342171D01*
X328922Y341843D01*
X329500Y341728D01*
X330079Y341843D01*
X330569Y342171D01*
X330897Y342661D01*
X331012Y343240D01*
X330897Y343818D01*
X330569Y344309D01*
X330079Y344637D01*
X329500Y344752D01*
D02*
G37*
G36*
X326000D02*
X325422Y344637D01*
X324931Y344309D01*
X324603Y343818D01*
X324488Y343240D01*
X324603Y342661D01*
X324931Y342171D01*
X325422Y341843D01*
X326000Y341728D01*
X326578Y341843D01*
X327069Y342171D01*
X327397Y342661D01*
X327512Y343240D01*
X327397Y343818D01*
X327069Y344309D01*
X326578Y344637D01*
X326000Y344752D01*
D02*
G37*
G36*
X347500Y329752D02*
X346921Y329637D01*
X346431Y329309D01*
X346103Y328818D01*
X345988Y328240D01*
X346103Y327661D01*
X346431Y327171D01*
X346921Y326843D01*
X347500Y326728D01*
X348078Y326843D01*
X348569Y327171D01*
X348897Y327661D01*
X349012Y328240D01*
X348897Y328818D01*
X348569Y329309D01*
X348078Y329637D01*
X347500Y329752D01*
D02*
G37*
G36*
X228500Y355252D02*
X227922Y355137D01*
X227431Y354809D01*
X227103Y354318D01*
X226988Y353740D01*
X227103Y353162D01*
X227431Y352671D01*
X227922Y352343D01*
X228500Y352228D01*
X229079Y352343D01*
X229569Y352671D01*
X229897Y353162D01*
X230012Y353740D01*
X229897Y354318D01*
X229569Y354809D01*
X229079Y355137D01*
X228500Y355252D01*
D02*
G37*
G36*
Y351752D02*
X227922Y351637D01*
X227431Y351309D01*
X227103Y350818D01*
X226988Y350240D01*
X227103Y349661D01*
X227431Y349171D01*
X227922Y348843D01*
X228500Y348728D01*
X229079Y348843D01*
X229569Y349171D01*
X229897Y349661D01*
X230012Y350240D01*
X229897Y350818D01*
X229569Y351309D01*
X229079Y351637D01*
X228500Y351752D01*
D02*
G37*
G36*
Y346752D02*
X227922Y346637D01*
X227431Y346309D01*
X227103Y345818D01*
X226988Y345240D01*
X227103Y344661D01*
X227431Y344171D01*
X227922Y343843D01*
X228500Y343728D01*
X229079Y343843D01*
X229569Y344171D01*
X229897Y344661D01*
X230012Y345240D01*
X229897Y345818D01*
X229569Y346309D01*
X229079Y346637D01*
X228500Y346752D01*
D02*
G37*
G36*
Y343252D02*
X227922Y343137D01*
X227431Y342809D01*
X227103Y342319D01*
X226988Y341740D01*
X227103Y341161D01*
X227431Y340671D01*
X227922Y340343D01*
X228500Y340228D01*
X229079Y340343D01*
X229569Y340671D01*
X229897Y341161D01*
X230012Y341740D01*
X229897Y342319D01*
X229569Y342809D01*
X229079Y343137D01*
X228500Y343252D01*
D02*
G37*
G36*
X174000Y341512D02*
X173422Y341397D01*
X172931Y341069D01*
X172603Y340579D01*
X172488Y340000D01*
X172603Y339422D01*
X172931Y338931D01*
X173422Y338603D01*
X174000Y338488D01*
X174578Y338603D01*
X175069Y338931D01*
X175397Y339422D01*
X175512Y340000D01*
X175397Y340579D01*
X175069Y341069D01*
X174578Y341397D01*
X174000Y341512D01*
D02*
G37*
G36*
X186000Y336512D02*
X185422Y336397D01*
X184931Y336069D01*
X184603Y335578D01*
X184488Y335000D01*
X184603Y334421D01*
X184931Y333931D01*
X185422Y333603D01*
X186000Y333488D01*
X186579Y333603D01*
X187069Y333931D01*
X187397Y334421D01*
X187512Y335000D01*
X187397Y335578D01*
X187069Y336069D01*
X186579Y336397D01*
X186000Y336512D01*
D02*
G37*
G36*
X208000Y335512D02*
X207421Y335397D01*
X206931Y335069D01*
X206603Y334578D01*
X206488Y334000D01*
X206603Y333421D01*
X206931Y332931D01*
X207421Y332603D01*
X208000Y332488D01*
X208578Y332603D01*
X209069Y332931D01*
X209397Y333421D01*
X209512Y334000D01*
X209397Y334578D01*
X209069Y335069D01*
X208578Y335397D01*
X208000Y335512D01*
D02*
G37*
G36*
X202000D02*
X201421Y335397D01*
X200931Y335069D01*
X200603Y334578D01*
X200488Y334000D01*
X200603Y333421D01*
X200931Y332931D01*
X201421Y332603D01*
X202000Y332488D01*
X202578Y332603D01*
X203069Y332931D01*
X203397Y333421D01*
X203512Y334000D01*
X203397Y334578D01*
X203069Y335069D01*
X202578Y335397D01*
X202000Y335512D01*
D02*
G37*
G36*
X157000Y334512D02*
X156421Y334397D01*
X155931Y334069D01*
X155603Y333578D01*
X155488Y333000D01*
X155603Y332421D01*
X155931Y331931D01*
X156421Y331603D01*
X157000Y331488D01*
X157579Y331603D01*
X158069Y331931D01*
X158397Y332421D01*
X158512Y333000D01*
X158397Y333578D01*
X158069Y334069D01*
X157579Y334397D01*
X157000Y334512D01*
D02*
G37*
G36*
X217500Y334012D02*
X216921Y333897D01*
X216431Y333569D01*
X216103Y333079D01*
X215988Y332500D01*
X216103Y331922D01*
X216431Y331431D01*
X216921Y331103D01*
X217500Y330988D01*
X218078Y331103D01*
X218569Y331431D01*
X218897Y331922D01*
X219012Y332500D01*
X218897Y333079D01*
X218569Y333569D01*
X218078Y333897D01*
X217500Y334012D01*
D02*
G37*
G36*
X180125Y333627D02*
X179546Y333512D01*
X179056Y333184D01*
X178728Y332694D01*
X178613Y332115D01*
X178728Y331537D01*
X179056Y331046D01*
X179546Y330718D01*
X180125Y330603D01*
X180703Y330718D01*
X181194Y331046D01*
X181522Y331537D01*
X181637Y332115D01*
X181522Y332694D01*
X181194Y333184D01*
X180703Y333512D01*
X180125Y333627D01*
D02*
G37*
G36*
X212500Y333012D02*
X211922Y332897D01*
X211431Y332569D01*
X211103Y332079D01*
X210988Y331500D01*
X211103Y330922D01*
X211431Y330431D01*
X211922Y330103D01*
X212500Y329988D01*
X213078Y330103D01*
X213569Y330431D01*
X213897Y330922D01*
X214012Y331500D01*
X213897Y332079D01*
X213569Y332569D01*
X213078Y332897D01*
X212500Y333012D01*
D02*
G37*
G36*
X224646Y329512D02*
X224067Y329397D01*
X223577Y329069D01*
X223249Y328578D01*
X223134Y328000D01*
X223249Y327421D01*
X223577Y326931D01*
X224067Y326603D01*
X224646Y326488D01*
X225224Y326603D01*
X225715Y326931D01*
X226042Y327421D01*
X226157Y328000D01*
X226042Y328578D01*
X225715Y329069D01*
X225224Y329397D01*
X224646Y329512D01*
D02*
G37*
G36*
X198000D02*
X197422Y329397D01*
X196931Y329069D01*
X196603Y328578D01*
X196488Y328000D01*
X196603Y327421D01*
X196931Y326931D01*
X197422Y326603D01*
X198000Y326488D01*
X198579Y326603D01*
X199069Y326931D01*
X199397Y327421D01*
X199512Y328000D01*
X199397Y328578D01*
X199069Y329069D01*
X198579Y329397D01*
X198000Y329512D01*
D02*
G37*
G36*
X180000Y328752D02*
X179421Y328637D01*
X178931Y328309D01*
X178603Y327818D01*
X178488Y327240D01*
X178603Y326661D01*
X178931Y326171D01*
X179421Y325843D01*
X180000Y325728D01*
X180578Y325843D01*
X181069Y326171D01*
X181397Y326661D01*
X181512Y327240D01*
X181397Y327818D01*
X181069Y328309D01*
X180578Y328637D01*
X180000Y328752D01*
D02*
G37*
G36*
X193250Y324252D02*
X192672Y324137D01*
X192181Y323809D01*
X191853Y323319D01*
X191738Y322740D01*
X191853Y322162D01*
X192181Y321671D01*
X192672Y321343D01*
X193250Y321228D01*
X193828Y321343D01*
X194319Y321671D01*
X194647Y322162D01*
X194762Y322740D01*
X194647Y323319D01*
X194319Y323809D01*
X193828Y324137D01*
X193250Y324252D01*
D02*
G37*
G36*
X151000Y323012D02*
X150422Y322897D01*
X149931Y322569D01*
X149603Y322078D01*
X149488Y321500D01*
X149603Y320921D01*
X149931Y320431D01*
X150422Y320103D01*
X151000Y319988D01*
X151578Y320103D01*
X152069Y320431D01*
X152397Y320921D01*
X152512Y321500D01*
X152397Y322078D01*
X152069Y322569D01*
X151578Y322897D01*
X151000Y323012D01*
D02*
G37*
G36*
X167000Y322012D02*
X166421Y321897D01*
X165931Y321569D01*
X165603Y321078D01*
X165488Y320500D01*
X165603Y319921D01*
X165931Y319431D01*
X166421Y319103D01*
X167000Y318988D01*
X167578Y319103D01*
X168069Y319431D01*
X168397Y319921D01*
X168512Y320500D01*
X168397Y321078D01*
X168069Y321569D01*
X167578Y321897D01*
X167000Y322012D01*
D02*
G37*
G36*
X113126Y468771D02*
X111852Y468646D01*
X110627Y468274D01*
X109497Y467670D01*
X108508Y466858D01*
X107696Y465869D01*
X107092Y464739D01*
X106720Y463514D01*
X106595Y462240D01*
X106720Y460966D01*
X107092Y459741D01*
X107696Y458611D01*
X108508Y457622D01*
X109497Y456810D01*
X110627Y456206D01*
X111852Y455834D01*
X113126Y455709D01*
X114400Y455834D01*
X115625Y456206D01*
X116754Y456810D01*
X117744Y457622D01*
X118556Y458611D01*
X119160Y459741D01*
X119532Y460966D01*
X119657Y462240D01*
X119532Y463514D01*
X119160Y464739D01*
X118556Y465869D01*
X117744Y466858D01*
X116754Y467670D01*
X115625Y468274D01*
X114400Y468646D01*
X113126Y468771D01*
D02*
G37*
G36*
X124874Y448669D02*
X123986Y448553D01*
X123159Y448210D01*
X122449Y447665D01*
X121904Y446955D01*
X121562Y446128D01*
X121445Y445240D01*
X121562Y444352D01*
X121904Y443525D01*
X122449Y442815D01*
X123159Y442270D01*
X123986Y441927D01*
X124874Y441811D01*
X125762Y441927D01*
X126589Y442270D01*
X127299Y442815D01*
X127844Y443525D01*
X128187Y444352D01*
X128303Y445240D01*
X128187Y446128D01*
X127844Y446955D01*
X127299Y447665D01*
X126589Y448210D01*
X125762Y448553D01*
X124874Y448669D01*
D02*
G37*
G36*
X113126D02*
X112238Y448553D01*
X111411Y448210D01*
X110701Y447665D01*
X110156Y446955D01*
X109813Y446128D01*
X109697Y445240D01*
X109813Y444352D01*
X110156Y443525D01*
X110701Y442815D01*
X111411Y442270D01*
X112238Y441927D01*
X113126Y441811D01*
X114014Y441927D01*
X114841Y442270D01*
X115551Y442815D01*
X116096Y443525D01*
X116438Y444352D01*
X116555Y445240D01*
X116438Y446128D01*
X116096Y446955D01*
X115551Y447665D01*
X114841Y448210D01*
X114014Y448553D01*
X113126Y448669D01*
D02*
G37*
G36*
X101378D02*
X100490Y448553D01*
X99663Y448210D01*
X98953Y447665D01*
X98408Y446955D01*
X98066Y446128D01*
X97949Y445240D01*
X98066Y444352D01*
X98408Y443525D01*
X98953Y442815D01*
X99663Y442270D01*
X100490Y441927D01*
X101378Y441811D01*
X102266Y441927D01*
X103093Y442270D01*
X103803Y442815D01*
X104348Y443525D01*
X104691Y444352D01*
X104807Y445240D01*
X104691Y446128D01*
X104348Y446955D01*
X103803Y447665D01*
X103093Y448210D01*
X102266Y448553D01*
X101378Y448669D01*
D02*
G37*
G36*
X124874Y436870D02*
X123986Y436753D01*
X123159Y436411D01*
X122449Y435866D01*
X121904Y435155D01*
X121562Y434328D01*
X121445Y433441D01*
X121562Y432553D01*
X121904Y431726D01*
X122449Y431016D01*
X123159Y430471D01*
X123986Y430128D01*
X124874Y430011D01*
X125762Y430128D01*
X126589Y430471D01*
X127299Y431016D01*
X127844Y431726D01*
X128187Y432553D01*
X128303Y433441D01*
X128187Y434328D01*
X127844Y435155D01*
X127299Y435866D01*
X126589Y436411D01*
X125762Y436753D01*
X124874Y436870D01*
D02*
G37*
G36*
X113126D02*
X112238Y436753D01*
X111411Y436411D01*
X110701Y435866D01*
X110156Y435155D01*
X109813Y434328D01*
X109697Y433441D01*
X109813Y432553D01*
X110156Y431726D01*
X110701Y431016D01*
X111411Y430471D01*
X112238Y430128D01*
X113126Y430011D01*
X114014Y430128D01*
X114841Y430471D01*
X115551Y431016D01*
X116096Y431726D01*
X116438Y432553D01*
X116555Y433441D01*
X116438Y434328D01*
X116096Y435155D01*
X115551Y435866D01*
X114841Y436411D01*
X114014Y436753D01*
X113126Y436870D01*
D02*
G37*
G36*
X101378D02*
X100490Y436753D01*
X99663Y436411D01*
X98953Y435866D01*
X98408Y435155D01*
X98066Y434328D01*
X97949Y433441D01*
X98066Y432553D01*
X98408Y431726D01*
X98953Y431016D01*
X99663Y430471D01*
X100490Y430128D01*
X101378Y430011D01*
X102266Y430128D01*
X103093Y430471D01*
X103803Y431016D01*
X104348Y431726D01*
X104691Y432553D01*
X104807Y433441D01*
X104691Y434328D01*
X104348Y435155D01*
X103803Y435866D01*
X103093Y436411D01*
X102266Y436753D01*
X101378Y436870D01*
D02*
G37*
G36*
X115500Y408752D02*
X114921Y408637D01*
X114431Y408309D01*
X114103Y407819D01*
X113988Y407240D01*
X114103Y406662D01*
X114431Y406171D01*
X114921Y405843D01*
X115500Y405728D01*
X116078Y405843D01*
X116569Y406171D01*
X116897Y406662D01*
X117012Y407240D01*
X116897Y407819D01*
X116569Y408309D01*
X116078Y408637D01*
X115500Y408752D01*
D02*
G37*
G36*
X111500D02*
X110922Y408637D01*
X110431Y408309D01*
X110103Y407819D01*
X109988Y407240D01*
X110103Y406662D01*
X110431Y406171D01*
X110922Y405843D01*
X111500Y405728D01*
X112078Y405843D01*
X112569Y406171D01*
X112897Y406662D01*
X113012Y407240D01*
X112897Y407819D01*
X112569Y408309D01*
X112078Y408637D01*
X111500Y408752D01*
D02*
G37*
G36*
X107500D02*
X106922Y408637D01*
X106431Y408309D01*
X106103Y407819D01*
X105988Y407240D01*
X106103Y406662D01*
X106431Y406171D01*
X106922Y405843D01*
X107500Y405728D01*
X108079Y405843D01*
X108569Y406171D01*
X108897Y406662D01*
X109012Y407240D01*
X108897Y407819D01*
X108569Y408309D01*
X108079Y408637D01*
X107500Y408752D01*
D02*
G37*
G36*
X118000Y369512D02*
X117421Y369397D01*
X116931Y369069D01*
X116603Y368579D01*
X116488Y368000D01*
X116603Y367422D01*
X116931Y366931D01*
X117421Y366603D01*
X118000Y366488D01*
X118579Y366603D01*
X119069Y366931D01*
X119397Y367422D01*
X119512Y368000D01*
X119397Y368579D01*
X119069Y369069D01*
X118579Y369397D01*
X118000Y369512D01*
D02*
G37*
G36*
X103000Y329752D02*
X102421Y329637D01*
X101931Y329309D01*
X101603Y328818D01*
X101488Y328240D01*
X101603Y327661D01*
X101931Y327171D01*
X102421Y326843D01*
X103000Y326728D01*
X103578Y326843D01*
X104069Y327171D01*
X104397Y327661D01*
X104512Y328240D01*
X104397Y328818D01*
X104069Y329309D01*
X103578Y329637D01*
X103000Y329752D01*
D02*
G37*
G36*
X130000Y323512D02*
X129421Y323397D01*
X128931Y323069D01*
X128603Y322579D01*
X128488Y322000D01*
X128603Y321422D01*
X128931Y320931D01*
X129421Y320603D01*
X130000Y320488D01*
X130578Y320603D01*
X131069Y320931D01*
X131397Y321422D01*
X131512Y322000D01*
X131397Y322579D01*
X131069Y323069D01*
X130578Y323397D01*
X130000Y323512D01*
D02*
G37*
G36*
X58126Y468771D02*
X56852Y468646D01*
X55627Y468274D01*
X54497Y467670D01*
X53508Y466858D01*
X52696Y465869D01*
X52092Y464739D01*
X51720Y463514D01*
X51595Y462240D01*
X51720Y460966D01*
X52092Y459741D01*
X52696Y458611D01*
X53508Y457622D01*
X54497Y456810D01*
X55627Y456206D01*
X56852Y455834D01*
X58126Y455709D01*
X59400Y455834D01*
X60625Y456206D01*
X61755Y456810D01*
X62744Y457622D01*
X63556Y458611D01*
X64160Y459741D01*
X64532Y460966D01*
X64657Y462240D01*
X64532Y463514D01*
X64160Y464739D01*
X63556Y465869D01*
X62744Y466858D01*
X61755Y467670D01*
X60625Y468274D01*
X59400Y468646D01*
X58126Y468771D01*
D02*
G37*
G36*
X31500Y447252D02*
X30922Y447137D01*
X30431Y446809D01*
X30103Y446318D01*
X29988Y445740D01*
X30103Y445161D01*
X30431Y444671D01*
X30922Y444343D01*
X31500Y444228D01*
X32078Y444343D01*
X32569Y444671D01*
X32897Y445161D01*
X33012Y445740D01*
X32897Y446318D01*
X32569Y446809D01*
X32078Y447137D01*
X31500Y447252D01*
D02*
G37*
G36*
X64028Y448669D02*
X63140Y448553D01*
X62313Y448210D01*
X61603Y447665D01*
X61058Y446955D01*
X60715Y446128D01*
X60598Y445240D01*
X60715Y444352D01*
X61058Y443525D01*
X61603Y442815D01*
X62313Y442270D01*
X63140Y441927D01*
X64028Y441811D01*
X64915Y441927D01*
X65742Y442270D01*
X66452Y442815D01*
X66997Y443525D01*
X67340Y444352D01*
X67457Y445240D01*
X67340Y446128D01*
X66997Y446955D01*
X66452Y447665D01*
X65742Y448210D01*
X64915Y448553D01*
X64028Y448669D01*
D02*
G37*
G36*
X52224D02*
X51337Y448553D01*
X50510Y448210D01*
X49799Y447665D01*
X49255Y446955D01*
X48912Y446128D01*
X48795Y445240D01*
X48912Y444352D01*
X49255Y443525D01*
X49799Y442815D01*
X50510Y442270D01*
X51337Y441927D01*
X52224Y441811D01*
X53112Y441927D01*
X53939Y442270D01*
X54649Y442815D01*
X55194Y443525D01*
X55537Y444352D01*
X55654Y445240D01*
X55537Y446128D01*
X55194Y446955D01*
X54649Y447665D01*
X53939Y448210D01*
X53112Y448553D01*
X52224Y448669D01*
D02*
G37*
G36*
X32125Y433502D02*
X31547Y433387D01*
X31056Y433059D01*
X30728Y432569D01*
X30613Y431990D01*
X30728Y431412D01*
X31056Y430921D01*
X31547Y430593D01*
X32125Y430478D01*
X32704Y430593D01*
X33194Y430921D01*
X33522Y431412D01*
X33637Y431990D01*
X33522Y432569D01*
X33194Y433059D01*
X32704Y433387D01*
X32125Y433502D01*
D02*
G37*
G36*
X64028Y436870D02*
X63140Y436753D01*
X62313Y436411D01*
X61603Y435866D01*
X61058Y435155D01*
X60715Y434328D01*
X60598Y433441D01*
X60715Y432553D01*
X61058Y431726D01*
X61603Y431016D01*
X62313Y430471D01*
X63140Y430128D01*
X64028Y430011D01*
X64915Y430128D01*
X65742Y430471D01*
X66452Y431016D01*
X66997Y431726D01*
X67340Y432553D01*
X67457Y433441D01*
X67340Y434328D01*
X66997Y435155D01*
X66452Y435866D01*
X65742Y436411D01*
X64915Y436753D01*
X64028Y436870D01*
D02*
G37*
G36*
X52224D02*
X51337Y436753D01*
X50510Y436411D01*
X49799Y435866D01*
X49255Y435155D01*
X48912Y434328D01*
X48795Y433441D01*
X48912Y432553D01*
X49255Y431726D01*
X49799Y431016D01*
X50510Y430471D01*
X51337Y430128D01*
X52224Y430011D01*
X53112Y430128D01*
X53939Y430471D01*
X54649Y431016D01*
X55194Y431726D01*
X55537Y432553D01*
X55654Y433441D01*
X55537Y434328D01*
X55194Y435155D01*
X54649Y435866D01*
X53939Y436411D01*
X53112Y436753D01*
X52224Y436870D01*
D02*
G37*
G36*
X54500Y407752D02*
X53922Y407637D01*
X53431Y407309D01*
X53103Y406818D01*
X52988Y406240D01*
X53103Y405661D01*
X53431Y405171D01*
X53922Y404843D01*
X54500Y404728D01*
X55079Y404843D01*
X55569Y405171D01*
X55897Y405661D01*
X56012Y406240D01*
X55897Y406818D01*
X55569Y407309D01*
X55079Y407637D01*
X54500Y407752D01*
D02*
G37*
G36*
X50500D02*
X49922Y407637D01*
X49431Y407309D01*
X49103Y406818D01*
X48988Y406240D01*
X49103Y405661D01*
X49431Y405171D01*
X49922Y404843D01*
X50500Y404728D01*
X51078Y404843D01*
X51569Y405171D01*
X51897Y405661D01*
X52012Y406240D01*
X51897Y406818D01*
X51569Y407309D01*
X51078Y407637D01*
X50500Y407752D01*
D02*
G37*
G36*
X70000Y405752D02*
X69421Y405637D01*
X68931Y405309D01*
X68603Y404818D01*
X68488Y404240D01*
X68603Y403661D01*
X68931Y403171D01*
X69421Y402843D01*
X70000Y402728D01*
X70578Y402843D01*
X71069Y403171D01*
X71397Y403661D01*
X71512Y404240D01*
X71397Y404818D01*
X71069Y405309D01*
X70578Y405637D01*
X70000Y405752D01*
D02*
G37*
G36*
Y401752D02*
X69421Y401637D01*
X68931Y401309D01*
X68603Y400818D01*
X68488Y400240D01*
X68603Y399661D01*
X68931Y399171D01*
X69421Y398843D01*
X70000Y398728D01*
X70578Y398843D01*
X71069Y399171D01*
X71397Y399661D01*
X71512Y400240D01*
X71397Y400818D01*
X71069Y401309D01*
X70578Y401637D01*
X70000Y401752D01*
D02*
G37*
G36*
X19685Y407924D02*
X17460Y407749D01*
X15290Y407228D01*
X13228Y406374D01*
X11325Y405208D01*
X9628Y403758D01*
X8178Y402061D01*
X7012Y400158D01*
X6158Y398096D01*
X5637Y395926D01*
X5462Y393701D01*
X5637Y391476D01*
X6158Y389305D01*
X7012Y387244D01*
X8178Y385340D01*
X9628Y383643D01*
X11325Y382194D01*
X13228Y381028D01*
X15290Y380173D01*
X17460Y379653D01*
X19685Y379477D01*
X21910Y379653D01*
X24080Y380173D01*
X26142Y381028D01*
X28045Y382194D01*
X29743Y383643D01*
X31192Y385340D01*
X32358Y387244D01*
X33212Y389305D01*
X33733Y391476D01*
X33908Y393701D01*
X33733Y395926D01*
X33212Y398096D01*
X32358Y400158D01*
X31192Y402061D01*
X29743Y403758D01*
X28045Y405208D01*
X26142Y406374D01*
X24080Y407228D01*
X21910Y407749D01*
X19685Y407924D01*
D02*
G37*
G36*
X28800Y372212D02*
X28221Y372097D01*
X27731Y371769D01*
X27403Y371279D01*
X27288Y370700D01*
X27403Y370122D01*
X27731Y369631D01*
X28221Y369303D01*
X28800Y369188D01*
X29379Y369303D01*
X29869Y369631D01*
X30197Y370122D01*
X30312Y370700D01*
X30197Y371279D01*
X29869Y371769D01*
X29379Y372097D01*
X28800Y372212D01*
D02*
G37*
G36*
X55000Y326752D02*
X54422Y326637D01*
X53931Y326309D01*
X53603Y325818D01*
X53488Y325240D01*
X53603Y324661D01*
X53931Y324171D01*
X54422Y323843D01*
X55000Y323728D01*
X55579Y323843D01*
X56069Y324171D01*
X56397Y324661D01*
X56512Y325240D01*
X56397Y325818D01*
X56069Y326309D01*
X55579Y326637D01*
X55000Y326752D01*
D02*
G37*
G36*
X30500D02*
X29921Y326637D01*
X29431Y326309D01*
X29103Y325818D01*
X28988Y325240D01*
X29103Y324661D01*
X29431Y324171D01*
X29921Y323843D01*
X30500Y323728D01*
X31078Y323843D01*
X31569Y324171D01*
X31897Y324661D01*
X32012Y325240D01*
X31897Y325818D01*
X31569Y326309D01*
X31078Y326637D01*
X30500Y326752D01*
D02*
G37*
G36*
X72500Y308002D02*
X71921Y307887D01*
X71431Y307559D01*
X71103Y307068D01*
X70988Y306490D01*
X71103Y305911D01*
X71431Y305421D01*
X71921Y305093D01*
X72500Y304978D01*
X73079Y305093D01*
X73569Y305421D01*
X73897Y305911D01*
X74012Y306490D01*
X73897Y307068D01*
X73569Y307559D01*
X73079Y307887D01*
X72500Y308002D01*
D02*
G37*
%LPD*%
D14*
X595500Y48500D02*
Y53500D01*
X590500Y48500D02*
Y53500D01*
Y43500D02*
X595500D01*
X590500Y48500D02*
X595500D01*
X590500Y53500D02*
X595500D01*
X590500Y58500D02*
X595500D01*
Y38500D02*
Y43500D01*
Y48500D01*
Y53500D02*
Y58500D01*
X590500Y38500D02*
Y43500D01*
Y48500D01*
Y53500D02*
Y58500D01*
Y38500D02*
X595500D01*
D102*
X593900Y46633D02*
Y45300D01*
X592567Y46633D01*
X592234D01*
X591901Y46300D01*
Y45633D01*
X592234Y45300D01*
D104*
X164134Y10748D02*
D03*
X262717Y396575D02*
D03*
X35551Y10748D02*
D03*
X45551D02*
D03*
X212717D02*
D03*
X222717D02*
D03*
D106*
X468000Y252500D02*
D03*
X230354Y328000D02*
D03*
X155500Y321500D02*
D03*
X95000Y259000D02*
D03*
X109000Y368000D02*
D03*
X186500Y327240D02*
D03*
X197750Y322865D02*
D03*
X217000Y340240D02*
D03*
X221000D02*
D03*
X118000Y400740D02*
D03*
Y396740D02*
D03*
X97000Y328240D02*
D03*
X354500Y333240D02*
D03*
X331250Y334740D02*
D03*
X323000Y324000D02*
D03*
X354500Y328240D02*
D03*
X324500Y353240D02*
D03*
X346000Y348240D02*
D03*
Y352240D02*
D03*
X223000Y361740D02*
D03*
X219500D02*
D03*
X48000Y388240D02*
D03*
X49000Y325240D02*
D03*
X72500Y318990D02*
D03*
X24000Y325240D02*
D03*
X48000Y391740D02*
D03*
X587500Y168240D02*
D03*
X551000Y359740D02*
D03*
X550500Y352240D02*
D03*
X511000Y397740D02*
D03*
X470000Y281240D02*
D03*
Y308740D02*
D03*
X376500Y273240D02*
D03*
Y300740D02*
D03*
Y328240D02*
D03*
X354500Y264240D02*
D03*
X324500D02*
D03*
X290500Y279240D02*
D03*
X263500D02*
D03*
X235500D02*
D03*
X228500Y265240D02*
D03*
X186500D02*
D03*
X66500Y263240D02*
D03*
X23500Y264740D02*
D03*
M02*
