G04*
G04 #@! TF.GenerationSoftware,Altium Limited,Altium Designer,21.4.1 (30)*
G04*
G04 Layer_Color=2752767*
%FSLAX25Y25*%
%MOIN*%
G70*
G04*
G04 #@! TF.SameCoordinates,07BA8920-E91E-4FA6-B340-E2803C7595EB*
G04*
G04*
G04 #@! TF.FilePolarity,Positive*
G04*
G01*
G75*
%ADD113C,0.00200*%
%ADD114C,0.00267*%
D113*
X425826Y432641D02*
Y434241D01*
X427426D01*
Y432641D01*
X425826D01*
X390424D02*
Y434241D01*
X392024D01*
Y432641D01*
X390424D01*
X425826Y444440D02*
Y446040D01*
X427426D01*
Y444440D01*
X425826D01*
X390424D02*
Y446040D01*
X392024D01*
Y444440D01*
X390424D01*
X402228Y432641D02*
Y434241D01*
X403828D01*
Y432641D01*
X402228D01*
X414027D02*
Y434241D01*
X415627D01*
Y432641D01*
X414027D01*
X378625D02*
Y434241D01*
X380225D01*
Y432641D01*
X378625D01*
X366826D02*
Y434241D01*
X368426D01*
Y432641D01*
X366826D01*
X402228Y444440D02*
Y446040D01*
X403828D01*
Y444440D01*
X402228D01*
X414027D02*
Y446040D01*
X415627D01*
Y444440D01*
X414027D01*
X378625D02*
Y446040D01*
X380225D01*
Y444440D01*
X378625D01*
X366826D02*
Y446040D01*
X368426D01*
Y444440D01*
X366826D01*
X205924Y432641D02*
Y434241D01*
X207524D01*
Y432641D01*
X205924D01*
X182326D02*
Y434241D01*
X183926D01*
Y432641D01*
X182326D01*
X158728D02*
Y434241D01*
X160328D01*
Y432641D01*
X158728D01*
X205924Y444440D02*
Y446040D01*
X207524D01*
Y444440D01*
X205924D01*
X182326D02*
Y446040D01*
X183926D01*
Y444440D01*
X182326D01*
X158728D02*
Y446040D01*
X160328D01*
Y444440D01*
X158728D01*
X194074Y432641D02*
Y434241D01*
X195674D01*
Y432641D01*
X194074D01*
X170578D02*
Y434241D01*
X172178D01*
Y432641D01*
X170578D01*
X194074Y444440D02*
Y446040D01*
X195674D01*
Y444440D01*
X194074D01*
X170578D02*
Y446040D01*
X172178D01*
Y444440D01*
X170578D01*
X517826Y432641D02*
Y434241D01*
X519426D01*
Y432641D01*
X517826D01*
X482424D02*
Y434241D01*
X484024D01*
Y432641D01*
X482424D01*
X517826Y444440D02*
Y446040D01*
X519426D01*
Y444440D01*
X517826D01*
X482424D02*
Y446040D01*
X484024D01*
Y444440D01*
X482424D01*
X494228Y432641D02*
Y434241D01*
X495828D01*
Y432641D01*
X494228D01*
X506027D02*
Y434241D01*
X507627D01*
Y432641D01*
X506027D01*
X470625D02*
Y434241D01*
X472225D01*
Y432641D01*
X470625D01*
X458826D02*
Y434241D01*
X460426D01*
Y432641D01*
X458826D01*
X494228Y444440D02*
Y446040D01*
X495828D01*
Y444440D01*
X494228D01*
X506027D02*
Y446040D01*
X507627D01*
Y444440D01*
X506027D01*
X470625D02*
Y446040D01*
X472225D01*
Y444440D01*
X470625D01*
X458826D02*
Y446040D01*
X460426D01*
Y444440D01*
X458826D01*
X100578Y432641D02*
Y434241D01*
X102178D01*
Y432641D01*
X100578D01*
X112326D02*
Y434241D01*
X113926D01*
Y432641D01*
X112326D01*
X124074D02*
Y434241D01*
X125674D01*
Y432641D01*
X124074D01*
Y444440D02*
Y446040D01*
X125674D01*
Y444440D01*
X124074D01*
X112326D02*
Y446040D01*
X113926D01*
Y444440D01*
X112326D01*
X100578D02*
Y446040D01*
X102178D01*
Y444440D01*
X100578D01*
X236424Y432641D02*
Y434241D01*
X238024D01*
Y432641D01*
X236424D01*
X248228D02*
Y434241D01*
X249828D01*
Y432641D01*
X248228D01*
Y444440D02*
Y446040D01*
X249828D01*
Y444440D01*
X248228D01*
X236424D02*
Y446040D01*
X238024D01*
Y444440D01*
X236424D01*
X278924Y432641D02*
Y434241D01*
X280524D01*
Y432641D01*
X278924D01*
X290728D02*
Y434241D01*
X292328D01*
Y432641D01*
X290728D01*
Y444440D02*
Y446040D01*
X292328D01*
Y444440D01*
X290728D01*
X278924D02*
Y446040D01*
X280524D01*
Y444440D01*
X278924D01*
X321424Y432641D02*
Y434241D01*
X323024D01*
Y432641D01*
X321424D01*
X333228D02*
Y434241D01*
X334828D01*
Y432641D01*
X333228D01*
Y444440D02*
Y446040D01*
X334828D01*
Y444440D01*
X333228D01*
X321424D02*
Y446040D01*
X323024D01*
Y444440D01*
X321424D01*
X51424Y432641D02*
Y434241D01*
X53024D01*
Y432641D01*
X51424D01*
X63228D02*
Y434241D01*
X64828D01*
Y432641D01*
X63228D01*
Y444440D02*
Y446040D01*
X64828D01*
Y444440D01*
X63228D01*
X51424D02*
Y446040D01*
X53024D01*
Y444440D01*
X51424D01*
X174134Y19948D02*
X173334Y21548D01*
X174934D01*
X174134Y19948D01*
Y9948D02*
X173334Y11548D01*
X174934D01*
X174134Y9948D01*
X184134D02*
X183334Y11548D01*
X184934D01*
X184134Y9948D01*
Y19948D02*
X183334Y21548D01*
X184934D01*
X184134Y19948D01*
X194134Y9948D02*
X193334Y11548D01*
X194934D01*
X194134Y9948D01*
Y19948D02*
X193334Y21548D01*
X194934D01*
X194134Y19948D01*
X164134D02*
X163334Y21548D01*
X164934D01*
X164134Y19948D01*
Y9948D02*
X163334Y11548D01*
X164934D01*
X164134Y9948D01*
X314961Y392901D02*
X315361Y393301D01*
X315761D01*
X315361Y393701D01*
X315761Y394101D01*
X315361D01*
X314961Y394501D01*
X314561Y394101D01*
X314161D01*
X314561Y393701D01*
X314161Y393301D01*
X314561D01*
X314961Y392901D01*
X437008D02*
X437408Y393301D01*
X437808D01*
X437408Y393701D01*
X437808Y394101D01*
X437408D01*
X437008Y394501D01*
X436608Y394101D01*
X436208D01*
X436608Y393701D01*
X436208Y393301D01*
X436608D01*
X437008Y392901D01*
X594488D02*
X594888Y393301D01*
X595288D01*
X594888Y393701D01*
X595288Y394101D01*
X594888D01*
X594488Y394501D01*
X594088Y394101D01*
X593688D01*
X594088Y393701D01*
X593688Y393301D01*
X594088D01*
X594488Y392901D01*
Y97625D02*
X594888Y98025D01*
X595288D01*
X594888Y98425D01*
X595288Y98825D01*
X594888D01*
X594488Y99225D01*
X594088Y98825D01*
X593688D01*
X594088Y98425D01*
X593688Y98025D01*
X594088D01*
X594488Y97625D01*
X437008D02*
X437408Y98025D01*
X437808D01*
X437408Y98425D01*
X437808Y98825D01*
X437408D01*
X437008Y99225D01*
X436608Y98825D01*
X436208D01*
X436608Y98425D01*
X436208Y98025D01*
X436608D01*
X437008Y97625D01*
X314961D02*
X315361Y98025D01*
X315761D01*
X315361Y98425D01*
X315761Y98825D01*
X315361D01*
X314961Y99225D01*
X314561Y98825D01*
X314161D01*
X314561Y98425D01*
X314161Y98025D01*
X314561D01*
X314961Y97625D01*
X19685D02*
X20085Y98025D01*
X20485D01*
X20085Y98425D01*
X20485Y98825D01*
X20085D01*
X19685Y99225D01*
X19285Y98825D01*
X18885D01*
X19285Y98425D01*
X18885Y98025D01*
X19285D01*
X19685Y97625D01*
Y392901D02*
X20085Y393301D01*
X20485D01*
X20085Y393701D01*
X20485Y394101D01*
X20085D01*
X19685Y394501D01*
X19285Y394101D01*
X18885D01*
X19285Y393701D01*
X18885Y393301D01*
X19285D01*
X19685Y392901D01*
X252717Y395775D02*
X251917Y397375D01*
X253517D01*
X252717Y395775D01*
Y405775D02*
X251917Y407375D01*
X253517D01*
X252717Y405775D01*
X282717D02*
X281917Y407375D01*
X283517D01*
X282717Y405775D01*
Y395775D02*
X281917Y397375D01*
X283517D01*
X282717Y395775D01*
X272717Y405775D02*
X271917Y407375D01*
X273517D01*
X272717Y405775D01*
Y395775D02*
X271917Y397375D01*
X273517D01*
X272717Y395775D01*
X262717D02*
X261917Y397375D01*
X263517D01*
X262717Y395775D01*
Y405775D02*
X261917Y407375D01*
X263517D01*
X262717Y405775D01*
X65551Y9948D02*
X64751Y11548D01*
X66351D01*
X65551Y9948D01*
Y19948D02*
X64751Y21548D01*
X66351D01*
X65551Y19948D01*
X105551D02*
X104751Y21548D01*
X106351D01*
X105551Y19948D01*
Y9948D02*
X104751Y11548D01*
X106351D01*
X105551Y9948D01*
X115551D02*
X114751Y11548D01*
X116351D01*
X115551Y9948D01*
Y19948D02*
X114751Y21548D01*
X116351D01*
X115551Y19948D01*
X125551Y9948D02*
X124751Y11548D01*
X126351D01*
X125551Y9948D01*
Y19948D02*
X124751Y21548D01*
X126351D01*
X125551Y19948D01*
X95551D02*
X94751Y21548D01*
X96351D01*
X95551Y19948D01*
Y9948D02*
X94751Y11548D01*
X96351D01*
X95551Y9948D01*
X85551D02*
X84751Y11548D01*
X86351D01*
X85551Y9948D01*
Y19948D02*
X84751Y21548D01*
X86351D01*
X85551Y19948D01*
X75551D02*
X74751Y21548D01*
X76351D01*
X75551Y19948D01*
Y9948D02*
X74751Y11548D01*
X76351D01*
X75551Y9948D01*
X55551Y19948D02*
X54751Y21548D01*
X56351D01*
X55551Y19948D01*
Y9948D02*
X54751Y11548D01*
X56351D01*
X55551Y9948D01*
X145551Y19948D02*
X144751Y21548D01*
X146351D01*
X145551Y19948D01*
Y9948D02*
X144751Y11548D01*
X146351D01*
X145551Y9948D01*
X135551Y19948D02*
X134751Y21548D01*
X136351D01*
X135551Y19948D01*
Y9948D02*
X134751Y11548D01*
X136351D01*
X135551Y9948D01*
X35551D02*
X34751Y11548D01*
X36351D01*
X35551Y9948D01*
Y19948D02*
X34751Y21548D01*
X36351D01*
X35551Y19948D01*
X45551D02*
X44751Y21548D01*
X46351D01*
X45551Y19948D01*
Y9948D02*
X44751Y11548D01*
X46351D01*
X45551Y9948D01*
X242717D02*
X241917Y11548D01*
X243517D01*
X242717Y9948D01*
Y19948D02*
X241917Y21548D01*
X243517D01*
X242717Y19948D01*
X282717D02*
X281917Y21548D01*
X283517D01*
X282717Y19948D01*
Y9948D02*
X281917Y11548D01*
X283517D01*
X282717Y9948D01*
X292717D02*
X291917Y11548D01*
X293517D01*
X292717Y9948D01*
Y19948D02*
X291917Y21548D01*
X293517D01*
X292717Y19948D01*
X302717Y9948D02*
X301917Y11548D01*
X303517D01*
X302717Y9948D01*
Y19948D02*
X301917Y21548D01*
X303517D01*
X302717Y19948D01*
X272717D02*
X271917Y21548D01*
X273517D01*
X272717Y19948D01*
Y9948D02*
X271917Y11548D01*
X273517D01*
X272717Y9948D01*
X262717D02*
X261917Y11548D01*
X263517D01*
X262717Y9948D01*
Y19948D02*
X261917Y21548D01*
X263517D01*
X262717Y19948D01*
X252717D02*
X251917Y21548D01*
X253517D01*
X252717Y19948D01*
Y9948D02*
X251917Y11548D01*
X253517D01*
X252717Y9948D01*
X232717Y19948D02*
X231917Y21548D01*
X233517D01*
X232717Y19948D01*
Y9948D02*
X231917Y11548D01*
X233517D01*
X232717Y9948D01*
X322717Y19948D02*
X321917Y21548D01*
X323517D01*
X322717Y19948D01*
Y9948D02*
X321917Y11548D01*
X323517D01*
X322717Y9948D01*
X312717Y19948D02*
X311917Y21548D01*
X313517D01*
X312717Y19948D01*
Y9948D02*
X311917Y11548D01*
X313517D01*
X312717Y9948D01*
X212717D02*
X211917Y11548D01*
X213517D01*
X212717Y9948D01*
Y19948D02*
X211917Y21548D01*
X213517D01*
X212717Y19948D01*
X222717D02*
X221917Y21548D01*
X223517D01*
X222717Y19948D01*
Y9948D02*
X221917Y11548D01*
X223517D01*
X222717Y9948D01*
X179325Y331315D02*
X179725Y332115D01*
X179325Y332915D01*
X180125Y332515D01*
X180925Y332915D01*
X180525Y332115D01*
X180925Y331315D01*
X180125Y331715D01*
X179325Y331315D01*
X467200Y251700D02*
X467600Y252500D01*
X467200Y253300D01*
X468000Y252900D01*
X468800Y253300D01*
X468400Y252500D01*
X468800Y251700D01*
X468000Y252100D01*
X467200Y251700D01*
X223846Y327200D02*
X224246Y328000D01*
X223846Y328800D01*
X224646Y328400D01*
X225446Y328800D01*
X225046Y328000D01*
X225446Y327200D01*
X224646Y327600D01*
X223846Y327200D01*
X229554D02*
X229954Y328000D01*
X229554Y328800D01*
X230354Y328400D01*
X231154Y328800D01*
X230754Y328000D01*
X231154Y327200D01*
X230354Y327600D01*
X229554Y327200D01*
X80200Y91440D02*
X80600Y92240D01*
X80200Y93040D01*
X81000Y92640D01*
X81800Y93040D01*
X81400Y92240D01*
X81800Y91440D01*
X81000Y91840D01*
X80200Y91440D01*
X166200Y319700D02*
X166600Y320500D01*
X166200Y321300D01*
X167000Y320900D01*
X167800Y321300D01*
X167400Y320500D01*
X167800Y319700D01*
X167000Y320100D01*
X166200Y319700D01*
X156200Y332200D02*
X156600Y333000D01*
X156200Y333800D01*
X157000Y333400D01*
X157800Y333800D01*
X157400Y333000D01*
X157800Y332200D01*
X157000Y332600D01*
X156200Y332200D01*
X150200Y320700D02*
X150600Y321500D01*
X150200Y322300D01*
X151000Y321900D01*
X151800Y322300D01*
X151400Y321500D01*
X151800Y320700D01*
X151000Y321100D01*
X150200Y320700D01*
X154700D02*
X155100Y321500D01*
X154700Y322300D01*
X155500Y321900D01*
X156300Y322300D01*
X155900Y321500D01*
X156300Y320700D01*
X155500Y321100D01*
X154700Y320700D01*
X507200Y417200D02*
X507600Y418000D01*
X507200Y418800D01*
X508000Y418400D01*
X508800Y418800D01*
X508400Y418000D01*
X508800Y417200D01*
X508000Y417600D01*
X507200Y417200D01*
X102200Y258200D02*
X102600Y259000D01*
X102200Y259800D01*
X103000Y259400D01*
X103800Y259800D01*
X103400Y259000D01*
X103800Y258200D01*
X103000Y258600D01*
X102200Y258200D01*
X94200D02*
X94600Y259000D01*
X94200Y259800D01*
X95000Y259400D01*
X95800Y259800D01*
X95400Y259000D01*
X95800Y258200D01*
X95000Y258600D01*
X94200Y258200D01*
X117200Y367200D02*
X117600Y368000D01*
X117200Y368800D01*
X118000Y368400D01*
X118800Y368800D01*
X118400Y368000D01*
X118800Y367200D01*
X118000Y367600D01*
X117200Y367200D01*
X108200D02*
X108600Y368000D01*
X108200Y368800D01*
X109000Y368400D01*
X109800Y368800D01*
X109400Y368000D01*
X109800Y367200D01*
X109000Y367600D01*
X108200Y367200D01*
X424346Y224854D02*
Y224454D01*
X425146D01*
Y224854D01*
X425546D01*
Y225654D01*
X425146D01*
Y226054D01*
X424346D01*
Y225654D01*
X423946D01*
Y224854D01*
X424346D01*
X230200Y91940D02*
X230600Y92740D01*
X230200Y93540D01*
X231000Y93140D01*
X231800Y93540D01*
X231400Y92740D01*
X231800Y91940D01*
X231000Y92340D01*
X230200Y91940D01*
X185200Y334200D02*
X185600Y335000D01*
X185200Y335800D01*
X186000Y335400D01*
X186800Y335800D01*
X186400Y335000D01*
X186800Y334200D01*
X186000Y334600D01*
X185200Y334200D01*
X149600Y269600D02*
Y269200D01*
X150400D01*
Y269600D01*
X150800D01*
Y270400D01*
X150400D01*
Y270800D01*
X149600D01*
Y270400D01*
X149200D01*
Y269600D01*
X149600D01*
X251917Y379157D02*
X252317D01*
X252717Y379557D01*
X253117Y379157D01*
X253517D01*
Y379557D01*
X253117Y379957D01*
X253517Y380357D01*
Y380757D01*
X253117D01*
X252717Y380357D01*
X252317Y380757D01*
X251917D01*
Y380357D01*
X252317Y379957D01*
X251917Y379557D01*
Y379157D01*
X583400Y418400D02*
X583800Y419200D01*
X583400Y420000D01*
X584200Y419600D01*
X585000Y420000D01*
X584600Y419200D01*
X585000Y418400D01*
X584200Y418800D01*
X583400Y418400D01*
X561400Y418700D02*
X561800Y419500D01*
X561400Y420300D01*
X562200Y419900D01*
X563000Y420300D01*
X562600Y419500D01*
X563000Y418700D01*
X562200Y419100D01*
X561400Y418700D01*
X440700Y295940D02*
X441100Y296740D01*
X440700Y297540D01*
X441500Y297140D01*
X442300Y297540D01*
X441900Y296740D01*
X442300Y295940D01*
X441500Y296340D01*
X440700Y295940D01*
X129200Y321200D02*
X129600Y322000D01*
X129200Y322800D01*
X130000Y322400D01*
X130800Y322800D01*
X130400Y322000D01*
X130800Y321200D01*
X130000Y321600D01*
X129200Y321200D01*
X201200Y333200D02*
X201600Y334000D01*
X201200Y334800D01*
X202000Y334400D01*
X202800Y334800D01*
X202400Y334000D01*
X202800Y333200D01*
X202000Y333600D01*
X201200Y333200D01*
X207200D02*
X207600Y334000D01*
X207200Y334800D01*
X208000Y334400D01*
X208800Y334800D01*
X208400Y334000D01*
X208800Y333200D01*
X208000Y333600D01*
X207200Y333200D01*
X197200Y327200D02*
X197600Y328000D01*
X197200Y328800D01*
X198000Y328400D01*
X198800Y328800D01*
X198400Y328000D01*
X198800Y327200D01*
X198000Y327600D01*
X197200Y327200D01*
X185700Y326440D02*
X186100Y327240D01*
X185700Y328040D01*
X186500Y327640D01*
X187300Y328040D01*
X186900Y327240D01*
X187300Y326440D01*
X186500Y326840D01*
X185700Y326440D01*
X216700Y331700D02*
X217100Y332500D01*
X216700Y333300D01*
X217500Y332900D01*
X218300Y333300D01*
X217900Y332500D01*
X218300Y331700D01*
X217500Y332100D01*
X216700Y331700D01*
X173200Y339200D02*
X173600Y340000D01*
X173200Y340800D01*
X174000Y340400D01*
X174800Y340800D01*
X174400Y340000D01*
X174800Y339200D01*
X174000Y339600D01*
X173200Y339200D01*
X211700Y330700D02*
X212100Y331500D01*
X211700Y332300D01*
X212500Y331900D01*
X213300Y332300D01*
X212900Y331500D01*
X213300Y330700D01*
X212500Y331100D01*
X211700Y330700D01*
X130325Y269440D02*
X130725Y270240D01*
X130325Y271040D01*
X131125Y270640D01*
X131925Y271040D01*
X131525Y270240D01*
X131925Y269440D01*
X131125Y269840D01*
X130325Y269440D01*
X544700Y36440D02*
X545100Y37240D01*
X544700Y38040D01*
X545500Y37640D01*
X546300Y38040D01*
X545900Y37240D01*
X546300Y36440D01*
X545500Y36840D01*
X544700Y36440D01*
X328700D02*
X329100Y37240D01*
X328700Y38040D01*
X329500Y37640D01*
X330300Y38040D01*
X329900Y37240D01*
X330300Y36440D01*
X329500Y36840D01*
X328700Y36440D01*
X546700Y250440D02*
X547100Y251240D01*
X546700Y252040D01*
X547500Y251640D01*
X548300Y252040D01*
X547900Y251240D01*
X548300Y250440D01*
X547500Y250840D01*
X546700Y250440D01*
X539200Y402440D02*
X539600Y403240D01*
X539200Y404040D01*
X540000Y403640D01*
X540800Y404040D01*
X540400Y403240D01*
X540800Y402440D01*
X540000Y402840D01*
X539200Y402440D01*
X108700Y83940D02*
X109100Y84740D01*
X108700Y85540D01*
X109500Y85140D01*
X110300Y85540D01*
X109900Y84740D01*
X110300Y83940D01*
X109500Y84340D01*
X108700Y83940D01*
X96200D02*
X96600Y84740D01*
X96200Y85540D01*
X97000Y85140D01*
X97800Y85540D01*
X97400Y84740D01*
X97800Y83940D01*
X97000Y84340D01*
X96200Y83940D01*
X463700Y233440D02*
X464100Y234240D01*
X463700Y235040D01*
X464500Y234640D01*
X465300Y235040D01*
X464900Y234240D01*
X465300Y233440D01*
X464500Y233840D01*
X463700Y233440D01*
X471700Y315940D02*
X472100Y316740D01*
X471700Y317540D01*
X472500Y317140D01*
X473300Y317540D01*
X472900Y316740D01*
X473300Y315940D01*
X472500Y316340D01*
X471700Y315940D01*
X449700Y233440D02*
X450100Y234240D01*
X449700Y235040D01*
X450500Y234640D01*
X451300Y235040D01*
X450900Y234240D01*
X451300Y233440D01*
X450500Y233840D01*
X449700Y233440D01*
X469200Y289940D02*
X469600Y290740D01*
X469200Y291540D01*
X470000Y291140D01*
X470800Y291540D01*
X470400Y290740D01*
X470800Y289940D01*
X470000Y290340D01*
X469200Y289940D01*
X396200Y233440D02*
X396600Y234240D01*
X396200Y235040D01*
X397000Y234640D01*
X397800Y235040D01*
X397400Y234240D01*
X397800Y233440D01*
X397000Y233840D01*
X396200Y233440D01*
X375700Y289940D02*
X376100Y290740D01*
X375700Y291540D01*
X376500Y291140D01*
X377300Y291540D01*
X376900Y290740D01*
X377300Y289940D01*
X376500Y290340D01*
X375700Y289940D01*
X516700Y41440D02*
X517100Y42240D01*
X516700Y43040D01*
X517500Y42640D01*
X518300Y43040D01*
X517900Y42240D01*
X518300Y41440D01*
X517500Y41840D01*
X516700Y41440D01*
X81700D02*
X82100Y42240D01*
X81700Y43040D01*
X82500Y42640D01*
X83300Y43040D01*
X82900Y42240D01*
X83300Y41440D01*
X82500Y41840D01*
X81700Y41440D01*
X506700Y43940D02*
X507100Y44740D01*
X506700Y45540D01*
X507500Y45140D01*
X508300Y45540D01*
X507900Y44740D01*
X508300Y43940D01*
X507500Y44340D01*
X506700Y43940D01*
X61200D02*
X61600Y44740D01*
X61200Y45540D01*
X62000Y45140D01*
X62800Y45540D01*
X62400Y44740D01*
X62800Y43940D01*
X62000Y44340D01*
X61200Y43940D01*
X497200Y46440D02*
X497600Y47240D01*
X497200Y48040D01*
X498000Y47640D01*
X498800Y48040D01*
X498400Y47240D01*
X498800Y46440D01*
X498000Y46840D01*
X497200Y46440D01*
X56200D02*
X56600Y47240D01*
X56200Y48040D01*
X57000Y47640D01*
X57800Y48040D01*
X57400Y47240D01*
X57800Y46440D01*
X57000Y46840D01*
X56200Y46440D01*
X520200Y371940D02*
X520600Y372740D01*
X520200Y373540D01*
X521000Y373140D01*
X521800Y373540D01*
X521400Y372740D01*
X521800Y371940D01*
X521000Y372340D01*
X520200Y371940D01*
X501200Y321440D02*
X501600Y322240D01*
X501200Y323040D01*
X502000Y322640D01*
X502800Y323040D01*
X502400Y322240D01*
X502800Y321440D01*
X502000Y321840D01*
X501200Y321440D01*
X486200Y48940D02*
X486600Y49740D01*
X486200Y50540D01*
X487000Y50140D01*
X487800Y50540D01*
X487400Y49740D01*
X487800Y48940D01*
X487000Y49340D01*
X486200Y48940D01*
X71700D02*
X72100Y49740D01*
X71700Y50540D01*
X72500Y50140D01*
X73300Y50540D01*
X72900Y49740D01*
X73300Y48940D01*
X72500Y49340D01*
X71700Y48940D01*
X504700Y394065D02*
X505100Y394865D01*
X504700Y395665D01*
X505500Y395265D01*
X506300Y395665D01*
X505900Y394865D01*
X506300Y394065D01*
X505500Y394465D01*
X504700Y394065D01*
X493200Y329440D02*
X493600Y330240D01*
X493200Y331040D01*
X494000Y330640D01*
X494800Y331040D01*
X494400Y330240D01*
X494800Y329440D01*
X494000Y329840D01*
X493200Y329440D01*
X477200Y51440D02*
X477600Y52240D01*
X477200Y53040D01*
X478000Y52640D01*
X478800Y53040D01*
X478400Y52240D01*
X478800Y51440D01*
X478000Y51840D01*
X477200Y51440D01*
X66700D02*
X67100Y52240D01*
X66700Y53040D01*
X67500Y52640D01*
X68300Y53040D01*
X67900Y52240D01*
X68300Y51440D01*
X67500Y51840D01*
X66700Y51440D01*
X482200Y396940D02*
X482600Y397740D01*
X482200Y398540D01*
X483000Y398140D01*
X483800Y398540D01*
X483400Y397740D01*
X483800Y396940D01*
X483000Y397340D01*
X482200Y396940D01*
X481700Y338940D02*
X482100Y339740D01*
X481700Y340540D01*
X482500Y340140D01*
X483300Y340540D01*
X482900Y339740D01*
X483300Y338940D01*
X482500Y339340D01*
X481700Y338940D01*
X426700Y374940D02*
X427100Y375740D01*
X426700Y376540D01*
X427500Y376140D01*
X428300Y376540D01*
X427900Y375740D01*
X428300Y374940D01*
X427500Y375340D01*
X426700Y374940D01*
X430700D02*
X431100Y375740D01*
X430700Y376540D01*
X431500Y376140D01*
X432300Y376540D01*
X431900Y375740D01*
X432300Y374940D01*
X431500Y375340D01*
X430700Y374940D01*
X440700Y323440D02*
X441100Y324240D01*
X440700Y325040D01*
X441500Y324640D01*
X442300Y325040D01*
X441900Y324240D01*
X442300Y323440D01*
X441500Y323840D01*
X440700Y323440D01*
Y319440D02*
X441100Y320240D01*
X440700Y321040D01*
X441500Y320640D01*
X442300Y321040D01*
X441900Y320240D01*
X442300Y319440D01*
X441500Y319840D01*
X440700Y319440D01*
X460700Y53940D02*
X461100Y54740D01*
X460700Y55540D01*
X461500Y55140D01*
X462300Y55540D01*
X461900Y54740D01*
X462300Y53940D01*
X461500Y54340D01*
X460700Y53940D01*
X141200D02*
X141600Y54740D01*
X141200Y55540D01*
X142000Y55140D01*
X142800Y55540D01*
X142400Y54740D01*
X142800Y53940D01*
X142000Y54340D01*
X141200Y53940D01*
X440700Y291940D02*
X441100Y292740D01*
X440700Y293540D01*
X441500Y293140D01*
X442300Y293540D01*
X441900Y292740D01*
X442300Y291940D01*
X441500Y292340D01*
X440700Y291940D01*
X455700Y56440D02*
X456100Y57240D01*
X455700Y58040D01*
X456500Y57640D01*
X457300Y58040D01*
X456900Y57240D01*
X457300Y56440D01*
X456500Y56840D01*
X455700Y56440D01*
X126200D02*
X126600Y57240D01*
X126200Y58040D01*
X127000Y57640D01*
X127800Y58040D01*
X127400Y57240D01*
X127800Y56440D01*
X127000Y56840D01*
X126200Y56440D01*
X441200Y264440D02*
X441600Y265240D01*
X441200Y266040D01*
X442000Y265640D01*
X442800Y266040D01*
X442400Y265240D01*
X442800Y264440D01*
X442000Y264840D01*
X441200Y264440D01*
Y268440D02*
X441600Y269240D01*
X441200Y270040D01*
X442000Y269640D01*
X442800Y270040D01*
X442400Y269240D01*
X442800Y268440D01*
X442000Y268840D01*
X441200Y268440D01*
X416200Y58940D02*
X416600Y59740D01*
X416200Y60540D01*
X417000Y60140D01*
X417800Y60540D01*
X417400Y59740D01*
X417800Y58940D01*
X417000Y59340D01*
X416200Y58940D01*
X131700D02*
X132100Y59740D01*
X131700Y60540D01*
X132500Y60140D01*
X133300Y60540D01*
X132900Y59740D01*
X133300Y58940D01*
X132500Y59340D01*
X131700Y58940D01*
X403700Y263940D02*
X404100Y264740D01*
X403700Y265540D01*
X404500Y265140D01*
X405300Y265540D01*
X404900Y264740D01*
X405300Y263940D01*
X404500Y264340D01*
X403700Y263940D01*
Y268440D02*
X404100Y269240D01*
X403700Y270040D01*
X404500Y269640D01*
X405300Y270040D01*
X404900Y269240D01*
X405300Y268440D01*
X404500Y268840D01*
X403700Y268440D01*
X411200Y61440D02*
X411600Y62240D01*
X411200Y63040D01*
X412000Y62640D01*
X412800Y63040D01*
X412400Y62240D01*
X412800Y61440D01*
X412000Y61840D01*
X411200Y61440D01*
X116200D02*
X116600Y62240D01*
X116200Y63040D01*
X117000Y62640D01*
X117800Y63040D01*
X117400Y62240D01*
X117800Y61440D01*
X117000Y61840D01*
X116200Y61440D01*
X404200Y291940D02*
X404600Y292740D01*
X404200Y293540D01*
X405000Y293140D01*
X405800Y293540D01*
X405400Y292740D01*
X405800Y291940D01*
X405000Y292340D01*
X404200Y291940D01*
Y295940D02*
X404600Y296740D01*
X404200Y297540D01*
X405000Y297140D01*
X405800Y297540D01*
X405400Y296740D01*
X405800Y295940D01*
X405000Y296340D01*
X404200Y295940D01*
Y68940D02*
X404600Y69740D01*
X404200Y70540D01*
X405000Y70140D01*
X405800Y70540D01*
X405400Y69740D01*
X405800Y68940D01*
X405000Y69340D01*
X404200Y68940D01*
X121700D02*
X122100Y69740D01*
X121700Y70540D01*
X122500Y70140D01*
X123300Y70540D01*
X122900Y69740D01*
X123300Y68940D01*
X122500Y69340D01*
X121700Y68940D01*
X198200Y81440D02*
X198600Y82240D01*
X198200Y83040D01*
X199000Y82640D01*
X199800Y83040D01*
X199400Y82240D01*
X199800Y81440D01*
X199000Y81840D01*
X198200Y81440D01*
X259700D02*
X260100Y82240D01*
X259700Y83040D01*
X260500Y82640D01*
X261300Y83040D01*
X260900Y82240D01*
X261300Y81440D01*
X260500Y81840D01*
X259700Y81440D01*
X208200Y73940D02*
X208600Y74740D01*
X208200Y75540D01*
X209000Y75140D01*
X209800Y75540D01*
X209400Y74740D01*
X209800Y73940D01*
X209000Y74340D01*
X208200Y73940D01*
X265200D02*
X265600Y74740D01*
X265200Y75540D01*
X266000Y75140D01*
X266800Y75540D01*
X266400Y74740D01*
X266800Y73940D01*
X266000Y74340D01*
X265200Y73940D01*
X170450Y361690D02*
X170850Y362490D01*
X170450Y363290D01*
X171250Y362890D01*
X172050Y363290D01*
X171650Y362490D01*
X172050Y361690D01*
X171250Y362090D01*
X170450Y361690D01*
X218700Y76440D02*
X219100Y77240D01*
X218700Y78040D01*
X219500Y77640D01*
X220300Y78040D01*
X219900Y77240D01*
X220300Y76440D01*
X219500Y76840D01*
X218700Y76440D01*
X250200D02*
X250600Y77240D01*
X250200Y78040D01*
X251000Y77640D01*
X251800Y78040D01*
X251400Y77240D01*
X251800Y76440D01*
X251000Y76840D01*
X250200Y76440D01*
X274700Y91940D02*
X275100Y92740D01*
X274700Y93540D01*
X275500Y93140D01*
X276300Y93540D01*
X275900Y92740D01*
X276300Y91940D01*
X275500Y92340D01*
X274700Y91940D01*
X175450Y362940D02*
X175850Y363740D01*
X175450Y364540D01*
X176250Y364140D01*
X177050Y364540D01*
X176650Y363740D01*
X177050Y362940D01*
X176250Y363340D01*
X175450Y362940D01*
X196950Y322065D02*
X197350Y322865D01*
X196950Y323665D01*
X197750Y323265D01*
X198550Y323665D01*
X198150Y322865D01*
X198550Y322065D01*
X197750Y322465D01*
X196950Y322065D01*
X216200Y339440D02*
X216600Y340240D01*
X216200Y341040D01*
X217000Y340640D01*
X217800Y341040D01*
X217400Y340240D01*
X217800Y339440D01*
X217000Y339840D01*
X216200Y339440D01*
X220200D02*
X220600Y340240D01*
X220200Y341040D01*
X221000Y340640D01*
X221800Y341040D01*
X221400Y340240D01*
X221800Y339440D01*
X221000Y339840D01*
X220200Y339440D01*
X163700Y83940D02*
X164100Y84740D01*
X163700Y85540D01*
X164500Y85140D01*
X165300Y85540D01*
X164900Y84740D01*
X165300Y83940D01*
X164500Y84340D01*
X163700Y83940D01*
X245200D02*
X245600Y84740D01*
X245200Y85540D01*
X246000Y85140D01*
X246800Y85540D01*
X246400Y84740D01*
X246800Y83940D01*
X246000Y84340D01*
X245200Y83940D01*
X170200Y76440D02*
X170600Y77240D01*
X170200Y78040D01*
X171000Y77640D01*
X171800Y78040D01*
X171400Y77240D01*
X171800Y76440D01*
X171000Y76840D01*
X170200Y76440D01*
X151700D02*
X152100Y77240D01*
X151700Y78040D01*
X152500Y77640D01*
X153300Y78040D01*
X152900Y77240D01*
X153300Y76440D01*
X152500Y76840D01*
X151700Y76440D01*
X180200Y73940D02*
X180600Y74740D01*
X180200Y75540D01*
X181000Y75140D01*
X181800Y75540D01*
X181400Y74740D01*
X181800Y73940D01*
X181000Y74340D01*
X180200Y73940D01*
X136200D02*
X136600Y74740D01*
X136200Y75540D01*
X137000Y75140D01*
X137800Y75540D01*
X137400Y74740D01*
X137800Y73940D01*
X137000Y74340D01*
X136200Y73940D01*
X153200Y86440D02*
X153600Y87240D01*
X153200Y88040D01*
X154000Y87640D01*
X154800Y88040D01*
X154400Y87240D01*
X154800Y86440D01*
X154000Y86840D01*
X153200Y86440D01*
X270200D02*
X270600Y87240D01*
X270200Y88040D01*
X271000Y87640D01*
X271800Y88040D01*
X271400Y87240D01*
X271800Y86440D01*
X271000Y86840D01*
X270200Y86440D01*
X382200Y233440D02*
X382600Y234240D01*
X382200Y235040D01*
X383000Y234640D01*
X383800Y235040D01*
X383400Y234240D01*
X383800Y233440D01*
X383000Y233840D01*
X382200Y233440D01*
X373200Y317940D02*
X373600Y318740D01*
X373200Y319540D01*
X374000Y319140D01*
X374800Y319540D01*
X374400Y318740D01*
X374800Y317940D01*
X374000Y318340D01*
X373200Y317940D01*
X404200Y319440D02*
X404600Y320240D01*
X404200Y321040D01*
X405000Y320640D01*
X405800Y321040D01*
X405400Y320240D01*
X405800Y319440D01*
X405000Y319840D01*
X404200Y319440D01*
Y323440D02*
X404600Y324240D01*
X404200Y325040D01*
X405000Y324640D01*
X405800Y325040D01*
X405400Y324240D01*
X405800Y323440D01*
X405000Y323840D01*
X404200Y323440D01*
X101200Y76440D02*
X101600Y77240D01*
X101200Y78040D01*
X102000Y77640D01*
X102800Y78040D01*
X102400Y77240D01*
X102800Y76440D01*
X102000Y76840D01*
X101200Y76440D01*
X127700D02*
X128100Y77240D01*
X127700Y78040D01*
X128500Y77640D01*
X129300Y78040D01*
X128900Y77240D01*
X129300Y76440D01*
X128500Y76840D01*
X127700Y76440D01*
X117200Y399940D02*
X117600Y400740D01*
X117200Y401540D01*
X118000Y401140D01*
X118800Y401540D01*
X118400Y400740D01*
X118800Y399940D01*
X118000Y400340D01*
X117200Y399940D01*
Y395940D02*
X117600Y396740D01*
X117200Y397540D01*
X118000Y397140D01*
X118800Y397540D01*
X118400Y396740D01*
X118800Y395940D01*
X118000Y396340D01*
X117200Y395940D01*
X96200Y327440D02*
X96600Y328240D01*
X96200Y329040D01*
X97000Y328640D01*
X97800Y329040D01*
X97400Y328240D01*
X97800Y327440D01*
X97000Y327840D01*
X96200Y327440D01*
X114700Y406440D02*
X115100Y407240D01*
X114700Y408040D01*
X115500Y407640D01*
X116300Y408040D01*
X115900Y407240D01*
X116300Y406440D01*
X115500Y406840D01*
X114700Y406440D01*
X110700D02*
X111100Y407240D01*
X110700Y408040D01*
X111500Y407640D01*
X112300Y408040D01*
X111900Y407240D01*
X112300Y406440D01*
X111500Y406840D01*
X110700Y406440D01*
X106700D02*
X107100Y407240D01*
X106700Y408040D01*
X107500Y407640D01*
X108300Y408040D01*
X107900Y407240D01*
X108300Y406440D01*
X107500Y406840D01*
X106700Y406440D01*
X102200Y327440D02*
X102600Y328240D01*
X102200Y329040D01*
X103000Y328640D01*
X103800Y329040D01*
X103400Y328240D01*
X103800Y327440D01*
X103000Y327840D01*
X102200Y327440D01*
X331700Y78940D02*
X332100Y79740D01*
X331700Y80540D01*
X332500Y80140D01*
X333300Y80540D01*
X332900Y79740D01*
X333300Y78940D01*
X332500Y79340D01*
X331700Y78940D01*
X91200D02*
X91600Y79740D01*
X91200Y80540D01*
X92000Y80140D01*
X92800Y80540D01*
X92400Y79740D01*
X92800Y78940D01*
X92000Y79340D01*
X91200Y78940D01*
X337700Y76440D02*
X338100Y77240D01*
X337700Y78040D01*
X338500Y77640D01*
X339300Y78040D01*
X338900Y77240D01*
X339300Y76440D01*
X338500Y76840D01*
X337700Y76440D01*
X289200D02*
X289600Y77240D01*
X289200Y78040D01*
X290000Y77640D01*
X290800Y78040D01*
X290400Y77240D01*
X290800Y76440D01*
X290000Y76840D01*
X289200Y76440D01*
X352700Y73940D02*
X353100Y74740D01*
X352700Y75540D01*
X353500Y75140D01*
X354300Y75540D01*
X353900Y74740D01*
X354300Y73940D01*
X353500Y74340D01*
X352700Y73940D01*
X299200D02*
X299600Y74740D01*
X299200Y75540D01*
X300000Y75140D01*
X300800Y75540D01*
X300400Y74740D01*
X300800Y73940D01*
X300000Y74340D01*
X299200Y73940D01*
X349200Y439440D02*
X349600Y440240D01*
X349200Y441040D01*
X350000Y440640D01*
X350800Y441040D01*
X350400Y440240D01*
X350800Y439440D01*
X350000Y439840D01*
X349200Y439440D01*
X353700Y332440D02*
X354100Y333240D01*
X353700Y334040D01*
X354500Y333640D01*
X355300Y334040D01*
X354900Y333240D01*
X355300Y332440D01*
X354500Y332840D01*
X353700Y332440D01*
X330450Y333940D02*
X330850Y334740D01*
X330450Y335540D01*
X331250Y335140D01*
X332050Y335540D01*
X331650Y334740D01*
X332050Y333940D01*
X331250Y334340D01*
X330450Y333940D01*
X322200Y323200D02*
X322600Y324000D01*
X322200Y324800D01*
X323000Y324400D01*
X323800Y324800D01*
X323400Y324000D01*
X323800Y323200D01*
X323000Y323600D01*
X322200Y323200D01*
X353700Y327440D02*
X354100Y328240D01*
X353700Y329040D01*
X354500Y328640D01*
X355300Y329040D01*
X354900Y328240D01*
X355300Y327440D01*
X354500Y327840D01*
X353700Y327440D01*
X323700Y352440D02*
X324100Y353240D01*
X323700Y354040D01*
X324500Y353640D01*
X325300Y354040D01*
X324900Y353240D01*
X325300Y352440D01*
X324500Y352840D01*
X323700Y352440D01*
X246700Y88940D02*
X247100Y89740D01*
X246700Y90540D01*
X247500Y90140D01*
X248300Y90540D01*
X247900Y89740D01*
X248300Y88940D01*
X247500Y89340D01*
X246700Y88940D01*
X77200D02*
X77600Y89740D01*
X77200Y90540D01*
X78000Y90140D01*
X78800Y90540D01*
X78400Y89740D01*
X78800Y88940D01*
X78000Y89340D01*
X77200Y88940D01*
X246700Y313940D02*
X247100Y314740D01*
X246700Y315540D01*
X247500Y315140D01*
X248300Y315540D01*
X247900Y314740D01*
X248300Y313940D01*
X247500Y314340D01*
X246700Y313940D01*
X242700D02*
X243100Y314740D01*
X242700Y315540D01*
X243500Y315140D01*
X244300Y315540D01*
X243900Y314740D01*
X244300Y313940D01*
X243500Y314340D01*
X242700Y313940D01*
X274200D02*
X274600Y314740D01*
X274200Y315540D01*
X275000Y315140D01*
X275800Y315540D01*
X275400Y314740D01*
X275800Y313940D01*
X275000Y314340D01*
X274200Y313940D01*
X270200D02*
X270600Y314740D01*
X270200Y315540D01*
X271000Y315140D01*
X271800Y315540D01*
X271400Y314740D01*
X271800Y313940D01*
X271000Y314340D01*
X270200Y313940D01*
X301700D02*
X302100Y314740D01*
X301700Y315540D01*
X302500Y315140D01*
X303300Y315540D01*
X302900Y314740D01*
X303300Y313940D01*
X302500Y314340D01*
X301700Y313940D01*
X297700D02*
X298100Y314740D01*
X297700Y315540D01*
X298500Y315140D01*
X299300Y315540D01*
X298900Y314740D01*
X299300Y313940D01*
X298500Y314340D01*
X297700Y313940D01*
X224700Y91440D02*
X225100Y92240D01*
X224700Y93040D01*
X225500Y92640D01*
X226300Y93040D01*
X225900Y92240D01*
X226300Y91440D01*
X225500Y91840D01*
X224700Y91440D01*
X31325Y431190D02*
X31725Y431990D01*
X31325Y432790D01*
X32125Y432390D01*
X32925Y432790D01*
X32525Y431990D01*
X32925Y431190D01*
X32125Y431590D01*
X31325Y431190D01*
X71700Y305690D02*
X72100Y306490D01*
X71700Y307290D01*
X72500Y306890D01*
X73300Y307290D01*
X72900Y306490D01*
X73300Y305690D01*
X72500Y306090D01*
X71700Y305690D01*
X30700Y444940D02*
X31100Y445740D01*
X30700Y446540D01*
X31500Y446140D01*
X32300Y446540D01*
X31900Y445740D01*
X32300Y444940D01*
X31500Y445340D01*
X30700Y444940D01*
X54200Y324440D02*
X54600Y325240D01*
X54200Y326040D01*
X55000Y325640D01*
X55800Y326040D01*
X55400Y325240D01*
X55800Y324440D01*
X55000Y324840D01*
X54200Y324440D01*
X29700D02*
X30100Y325240D01*
X29700Y326040D01*
X30500Y325640D01*
X31300Y326040D01*
X30900Y325240D01*
X31300Y324440D01*
X30500Y324840D01*
X29700Y324440D01*
X69200Y399440D02*
X69600Y400240D01*
X69200Y401040D01*
X70000Y400640D01*
X70800Y401040D01*
X70400Y400240D01*
X70800Y399440D01*
X70000Y399840D01*
X69200Y399440D01*
Y403440D02*
X69600Y404240D01*
X69200Y405040D01*
X70000Y404640D01*
X70800Y405040D01*
X70400Y404240D01*
X70800Y403440D01*
X70000Y403840D01*
X69200Y403440D01*
X49700Y405440D02*
X50100Y406240D01*
X49700Y407040D01*
X50500Y406640D01*
X51300Y407040D01*
X50900Y406240D01*
X51300Y405440D01*
X50500Y405840D01*
X49700Y405440D01*
X53700D02*
X54100Y406240D01*
X53700Y407040D01*
X54500Y406640D01*
X55300Y407040D01*
X54900Y406240D01*
X55300Y405440D01*
X54500Y405840D01*
X53700Y405440D01*
X28000Y369900D02*
X28400Y370700D01*
X28000Y371500D01*
X28800Y371100D01*
X29600Y371500D01*
X29200Y370700D01*
X29600Y369900D01*
X28800Y370300D01*
X28000Y369900D01*
X192450Y321940D02*
X192850Y322740D01*
X192450Y323540D01*
X193250Y323140D01*
X194050Y323540D01*
X193650Y322740D01*
X194050Y321940D01*
X193250Y322340D01*
X192450Y321940D01*
X346700Y327440D02*
X347100Y328240D01*
X346700Y329040D01*
X347500Y328640D01*
X348300Y329040D01*
X347900Y328240D01*
X348300Y327440D01*
X347500Y327840D01*
X346700Y327440D01*
X337200Y342440D02*
X337600Y343240D01*
X337200Y344040D01*
X338000Y343640D01*
X338800Y344040D01*
X338400Y343240D01*
X338800Y342440D01*
X338000Y342840D01*
X337200Y342440D01*
X333700D02*
X334100Y343240D01*
X333700Y344040D01*
X334500Y343640D01*
X335300Y344040D01*
X334900Y343240D01*
X335300Y342440D01*
X334500Y342840D01*
X333700Y342440D01*
X328700D02*
X329100Y343240D01*
X328700Y344040D01*
X329500Y343640D01*
X330300Y344040D01*
X329900Y343240D01*
X330300Y342440D01*
X329500Y342840D01*
X328700Y342440D01*
X325200D02*
X325600Y343240D01*
X325200Y344040D01*
X326000Y343640D01*
X326800Y344040D01*
X326400Y343240D01*
X326800Y342440D01*
X326000Y342840D01*
X325200Y342440D01*
X227700Y352940D02*
X228100Y353740D01*
X227700Y354540D01*
X228500Y354140D01*
X229300Y354540D01*
X228900Y353740D01*
X229300Y352940D01*
X228500Y353340D01*
X227700Y352940D01*
Y349440D02*
X228100Y350240D01*
X227700Y351040D01*
X228500Y350640D01*
X229300Y351040D01*
X228900Y350240D01*
X229300Y349440D01*
X228500Y349840D01*
X227700Y349440D01*
Y344440D02*
X228100Y345240D01*
X227700Y346040D01*
X228500Y345640D01*
X229300Y346040D01*
X228900Y345240D01*
X229300Y344440D01*
X228500Y344840D01*
X227700Y344440D01*
Y340940D02*
X228100Y341740D01*
X227700Y342540D01*
X228500Y342140D01*
X229300Y342540D01*
X228900Y341740D01*
X229300Y340940D01*
X228500Y341340D01*
X227700Y340940D01*
X179200Y326440D02*
X179600Y327240D01*
X179200Y328040D01*
X180000Y327640D01*
X180800Y328040D01*
X180400Y327240D01*
X180800Y326440D01*
X180000Y326840D01*
X179200Y326440D01*
X345200Y347440D02*
X345600Y348240D01*
X345200Y349040D01*
X346000Y348640D01*
X346800Y349040D01*
X346400Y348240D01*
X346800Y347440D01*
X346000Y347840D01*
X345200Y347440D01*
Y351440D02*
X345600Y352240D01*
X345200Y353040D01*
X346000Y352640D01*
X346800Y353040D01*
X346400Y352240D01*
X346800Y351440D01*
X346000Y351840D01*
X345200Y351440D01*
X222200Y360940D02*
X222600Y361740D01*
X222200Y362540D01*
X223000Y362140D01*
X223800Y362540D01*
X223400Y361740D01*
X223800Y360940D01*
X223000Y361340D01*
X222200Y360940D01*
X218700D02*
X219100Y361740D01*
X218700Y362540D01*
X219500Y362140D01*
X220300Y362540D01*
X219900Y361740D01*
X220300Y360940D01*
X219500Y361340D01*
X218700Y360940D01*
X44700Y66440D02*
X45100Y67240D01*
X44700Y68040D01*
X45500Y67640D01*
X46300Y68040D01*
X45900Y67240D01*
X46300Y66440D01*
X45500Y66840D01*
X44700Y66440D01*
X230200D02*
X230600Y67240D01*
X230200Y68040D01*
X231000Y67640D01*
X231800Y68040D01*
X231400Y67240D01*
X231800Y66440D01*
X231000Y66840D01*
X230200Y66440D01*
X41700Y63940D02*
X42100Y64740D01*
X41700Y65540D01*
X42500Y65140D01*
X43300Y65540D01*
X42900Y64740D01*
X43300Y63940D01*
X42500Y64340D01*
X41700Y63940D01*
X235200D02*
X235600Y64740D01*
X235200Y65540D01*
X236000Y65140D01*
X236800Y65540D01*
X236400Y64740D01*
X236800Y63940D01*
X236000Y64340D01*
X235200Y63940D01*
X47200Y387440D02*
X47600Y388240D01*
X47200Y389040D01*
X48000Y388640D01*
X48800Y389040D01*
X48400Y388240D01*
X48800Y387440D01*
X48000Y387840D01*
X47200Y387440D01*
X48200Y324440D02*
X48600Y325240D01*
X48200Y326040D01*
X49000Y325640D01*
X49800Y326040D01*
X49400Y325240D01*
X49800Y324440D01*
X49000Y324840D01*
X48200Y324440D01*
X71700Y318190D02*
X72100Y318990D01*
X71700Y319790D01*
X72500Y319390D01*
X73300Y319790D01*
X72900Y318990D01*
X73300Y318190D01*
X72500Y318590D01*
X71700Y318190D01*
X23200Y324440D02*
X23600Y325240D01*
X23200Y326040D01*
X24000Y325640D01*
X24800Y326040D01*
X24400Y325240D01*
X24800Y324440D01*
X24000Y324840D01*
X23200Y324440D01*
X47200Y390940D02*
X47600Y391740D01*
X47200Y392540D01*
X48000Y392140D01*
X48800Y392540D01*
X48400Y391740D01*
X48800Y390940D01*
X48000Y391340D01*
X47200Y390940D01*
X586700Y167440D02*
X587100Y168240D01*
X586700Y169040D01*
X587500Y168640D01*
X588300Y169040D01*
X587900Y168240D01*
X588300Y167440D01*
X587500Y167840D01*
X586700Y167440D01*
X550200Y358940D02*
X550600Y359740D01*
X550200Y360540D01*
X551000Y360140D01*
X551800Y360540D01*
X551400Y359740D01*
X551800Y358940D01*
X551000Y359340D01*
X550200Y358940D01*
X549700Y351440D02*
X550100Y352240D01*
X549700Y353040D01*
X550500Y352640D01*
X551300Y353040D01*
X550900Y352240D01*
X551300Y351440D01*
X550500Y351840D01*
X549700Y351440D01*
X510200Y396940D02*
X510600Y397740D01*
X510200Y398540D01*
X511000Y398140D01*
X511800Y398540D01*
X511400Y397740D01*
X511800Y396940D01*
X511000Y397340D01*
X510200Y396940D01*
X469200Y280440D02*
X469600Y281240D01*
X469200Y282040D01*
X470000Y281640D01*
X470800Y282040D01*
X470400Y281240D01*
X470800Y280440D01*
X470000Y280840D01*
X469200Y280440D01*
Y307940D02*
X469600Y308740D01*
X469200Y309540D01*
X470000Y309140D01*
X470800Y309540D01*
X470400Y308740D01*
X470800Y307940D01*
X470000Y308340D01*
X469200Y307940D01*
X375700Y272440D02*
X376100Y273240D01*
X375700Y274040D01*
X376500Y273640D01*
X377300Y274040D01*
X376900Y273240D01*
X377300Y272440D01*
X376500Y272840D01*
X375700Y272440D01*
Y299940D02*
X376100Y300740D01*
X375700Y301540D01*
X376500Y301140D01*
X377300Y301540D01*
X376900Y300740D01*
X377300Y299940D01*
X376500Y300340D01*
X375700Y299940D01*
Y327440D02*
X376100Y328240D01*
X375700Y329040D01*
X376500Y328640D01*
X377300Y329040D01*
X376900Y328240D01*
X377300Y327440D01*
X376500Y327840D01*
X375700Y327440D01*
X353700Y263440D02*
X354100Y264240D01*
X353700Y265040D01*
X354500Y264640D01*
X355300Y265040D01*
X354900Y264240D01*
X355300Y263440D01*
X354500Y263840D01*
X353700Y263440D01*
X323700D02*
X324100Y264240D01*
X323700Y265040D01*
X324500Y264640D01*
X325300Y265040D01*
X324900Y264240D01*
X325300Y263440D01*
X324500Y263840D01*
X323700Y263440D01*
X289700Y278440D02*
X290100Y279240D01*
X289700Y280040D01*
X290500Y279640D01*
X291300Y280040D01*
X290900Y279240D01*
X291300Y278440D01*
X290500Y278840D01*
X289700Y278440D01*
X262700D02*
X263100Y279240D01*
X262700Y280040D01*
X263500Y279640D01*
X264300Y280040D01*
X263900Y279240D01*
X264300Y278440D01*
X263500Y278840D01*
X262700Y278440D01*
X234700D02*
X235100Y279240D01*
X234700Y280040D01*
X235500Y279640D01*
X236300Y280040D01*
X235900Y279240D01*
X236300Y278440D01*
X235500Y278840D01*
X234700Y278440D01*
X227700Y264440D02*
X228100Y265240D01*
X227700Y266040D01*
X228500Y265640D01*
X229300Y266040D01*
X228900Y265240D01*
X229300Y264440D01*
X228500Y264840D01*
X227700Y264440D01*
X185700D02*
X186100Y265240D01*
X185700Y266040D01*
X186500Y265640D01*
X187300Y266040D01*
X186900Y265240D01*
X187300Y264440D01*
X186500Y264840D01*
X185700Y264440D01*
X65700Y262440D02*
X66100Y263240D01*
X65700Y264040D01*
X66500Y263640D01*
X67300Y264040D01*
X66900Y263240D01*
X67300Y262440D01*
X66500Y262840D01*
X65700Y262440D01*
X22700Y263940D02*
X23100Y264740D01*
X22700Y265540D01*
X23500Y265140D01*
X24300Y265540D01*
X23900Y264740D01*
X24300Y263940D01*
X23500Y264340D01*
X22700Y263940D01*
X537825Y459690D02*
X538225Y460490D01*
X537825Y461290D01*
X538625Y460890D01*
X539425Y461290D01*
X539025Y460490D01*
X539425Y459690D01*
X538625Y460090D01*
X537825Y459690D01*
X595950Y462190D02*
X596350Y462990D01*
X595950Y463790D01*
X596750Y463390D01*
X597550Y463790D01*
X597150Y462990D01*
X597550Y462190D01*
X596750Y462590D01*
X595950Y462190D01*
X578450Y404690D02*
X578850Y405490D01*
X578450Y406290D01*
X579250Y405890D01*
X580050Y406290D01*
X579650Y405490D01*
X580050Y404690D01*
X579250Y405090D01*
X578450Y404690D01*
X191575Y269440D02*
X191975Y270240D01*
X191575Y271040D01*
X192375Y270640D01*
X193175Y271040D01*
X192775Y270240D01*
X193175Y269440D01*
X192375Y269840D01*
X191575Y269440D01*
X307575Y262565D02*
X307975Y263365D01*
X307575Y264165D01*
X308375Y263765D01*
X309175Y264165D01*
X308775Y263365D01*
X309175Y262565D01*
X308375Y262965D01*
X307575Y262565D01*
X280700D02*
X281100Y263365D01*
X280700Y264165D01*
X281500Y263765D01*
X282300Y264165D01*
X281900Y263365D01*
X282300Y262565D01*
X281500Y262965D01*
X280700Y262565D01*
X252575D02*
X252975Y263365D01*
X252575Y264165D01*
X253375Y263765D01*
X254175Y264165D01*
X253775Y263365D01*
X254175Y262565D01*
X253375Y262965D01*
X252575Y262565D01*
X58450Y269440D02*
X58850Y270240D01*
X58450Y271040D01*
X59250Y270640D01*
X60050Y271040D01*
X59650Y270240D01*
X60050Y269440D01*
X59250Y269840D01*
X58450Y269440D01*
X84700Y266940D02*
X85100Y267740D01*
X84700Y268540D01*
X85500Y268140D01*
X86300Y268540D01*
X85900Y267740D01*
X86300Y266940D01*
X85500Y267340D01*
X84700Y266940D01*
X586700Y127440D02*
X587100Y128240D01*
X586700Y129040D01*
X587500Y128640D01*
X588300Y129040D01*
X587900Y128240D01*
X588300Y127440D01*
X587500Y127840D01*
X586700Y127440D01*
X559700Y398440D02*
X560100Y399240D01*
X559700Y400040D01*
X560500Y399640D01*
X561300Y400040D01*
X560900Y399240D01*
X561300Y398440D01*
X560500Y398840D01*
X559700Y398440D01*
X564200Y380000D02*
X564600Y380800D01*
X564200Y381600D01*
X565000Y381200D01*
X565800Y381600D01*
X565400Y380800D01*
X565800Y380000D01*
X565000Y380400D01*
X564200Y380000D01*
X562800Y386900D02*
X563200Y387700D01*
X562800Y388500D01*
X563600Y388100D01*
X564400Y388500D01*
X564000Y387700D01*
X564400Y386900D01*
X563600Y387300D01*
X562800Y386900D01*
X527700Y425440D02*
X528100Y426240D01*
X527700Y427040D01*
X528500Y426640D01*
X529300Y427040D01*
X528900Y426240D01*
X529300Y425440D01*
X528500Y425840D01*
X527700Y425440D01*
X500200Y387440D02*
X500600Y388240D01*
X500200Y389040D01*
X501000Y388640D01*
X501800Y389040D01*
X501400Y388240D01*
X501800Y387440D01*
X501000Y387840D01*
X500200Y387440D01*
X480200Y387940D02*
X480600Y388740D01*
X480200Y389540D01*
X481000Y389140D01*
X481800Y389540D01*
X481400Y388740D01*
X481800Y387940D01*
X481000Y388340D01*
X480200Y387940D01*
X491200Y388440D02*
X491600Y389240D01*
X491200Y390040D01*
X492000Y389640D01*
X492800Y390040D01*
X492400Y389240D01*
X492800Y388440D01*
X492000Y388840D01*
X491200Y388440D01*
X472700Y388940D02*
X473100Y389740D01*
X472700Y390540D01*
X473500Y390140D01*
X474300Y390540D01*
X473900Y389740D01*
X474300Y388940D01*
X473500Y389340D01*
X472700Y388940D01*
X510200Y364440D02*
X510600Y365240D01*
X510200Y366040D01*
X511000Y365640D01*
X511800Y366040D01*
X511400Y365240D01*
X511800Y364440D01*
X511000Y364840D01*
X510200Y364440D01*
X504700D02*
X505100Y365240D01*
X504700Y366040D01*
X505500Y365640D01*
X506300Y366040D01*
X505900Y365240D01*
X506300Y364440D01*
X505500Y364840D01*
X504700Y364440D01*
X491700Y364940D02*
X492100Y365740D01*
X491700Y366540D01*
X492500Y366140D01*
X493300Y366540D01*
X492900Y365740D01*
X493300Y364940D01*
X492500Y365340D01*
X491700Y364940D01*
X486200D02*
X486600Y365740D01*
X486200Y366540D01*
X487000Y366140D01*
X487800Y366540D01*
X487400Y365740D01*
X487800Y364940D01*
X487000Y365340D01*
X486200Y364940D01*
X473200D02*
X473600Y365740D01*
X473200Y366540D01*
X474000Y366140D01*
X474800Y366540D01*
X474400Y365740D01*
X474800Y364940D01*
X474000Y365340D01*
X473200Y364940D01*
X467700D02*
X468100Y365740D01*
X467700Y366540D01*
X468500Y366140D01*
X469300Y366540D01*
X468900Y365740D01*
X469300Y364940D01*
X468500Y365340D01*
X467700Y364940D01*
X346200Y263440D02*
X346600Y264240D01*
X346200Y265040D01*
X347000Y264640D01*
X347800Y265040D01*
X347400Y264240D01*
X347800Y263440D01*
X347000Y263840D01*
X346200Y263440D01*
X316200D02*
X316600Y264240D01*
X316200Y265040D01*
X317000Y264640D01*
X317800Y265040D01*
X317400Y264240D01*
X317800Y263440D01*
X317000Y263840D01*
X316200Y263440D01*
X290700Y272440D02*
X291100Y273240D01*
X290700Y274040D01*
X291500Y273640D01*
X292300Y274040D01*
X291900Y273240D01*
X292300Y272440D01*
X291500Y272840D01*
X290700Y272440D01*
X263700D02*
X264100Y273240D01*
X263700Y274040D01*
X264500Y273640D01*
X265300Y274040D01*
X264900Y273240D01*
X265300Y272440D01*
X264500Y272840D01*
X263700Y272440D01*
X235700Y271940D02*
X236100Y272740D01*
X235700Y273540D01*
X236500Y273140D01*
X237300Y273540D01*
X236900Y272740D01*
X237300Y271940D01*
X236500Y272340D01*
X235700Y271940D01*
X220200Y264440D02*
X220600Y265240D01*
X220200Y266040D01*
X221000Y265640D01*
X221800Y266040D01*
X221400Y265240D01*
X221800Y264440D01*
X221000Y264840D01*
X220200Y264440D01*
X177700D02*
X178100Y265240D01*
X177700Y266040D01*
X178500Y265640D01*
X179300Y266040D01*
X178900Y265240D01*
X179300Y264440D01*
X178500Y264840D01*
X177700Y264440D01*
X29700Y263940D02*
X30100Y264740D01*
X29700Y265540D01*
X30500Y265140D01*
X31300Y265540D01*
X30900Y264740D01*
X31300Y263940D01*
X30500Y264340D01*
X29700Y263940D01*
X560200Y33940D02*
X560600Y34740D01*
X560200Y35540D01*
X561000Y35140D01*
X561800Y35540D01*
X561400Y34740D01*
X561800Y33940D01*
X561000Y34340D01*
X560200Y33940D01*
X308700D02*
X309100Y34740D01*
X308700Y35540D01*
X309500Y35140D01*
X310300Y35540D01*
X309900Y34740D01*
X310300Y33940D01*
X309500Y34340D01*
X308700Y33940D01*
X559200Y250440D02*
X559600Y251240D01*
X559200Y252040D01*
X560000Y251640D01*
X560800Y252040D01*
X560400Y251240D01*
X560800Y250440D01*
X560000Y250840D01*
X559200Y250440D01*
X545200Y399440D02*
X545600Y400240D01*
X545200Y401040D01*
X546000Y400640D01*
X546800Y401040D01*
X546400Y400240D01*
X546800Y399440D01*
X546000Y399840D01*
X545200Y399440D01*
X572200Y28940D02*
X572600Y29740D01*
X572200Y30540D01*
X573000Y30140D01*
X573800Y30540D01*
X573400Y29740D01*
X573800Y28940D01*
X573000Y29340D01*
X572200Y28940D01*
X318700D02*
X319100Y29740D01*
X318700Y30540D01*
X319500Y30140D01*
X320300Y30540D01*
X319900Y29740D01*
X320300Y28940D01*
X319500Y29340D01*
X318700Y28940D01*
X584200Y250440D02*
X584600Y251240D01*
X584200Y252040D01*
X585000Y251640D01*
X585800Y252040D01*
X585400Y251240D01*
X585800Y250440D01*
X585000Y250840D01*
X584200Y250440D01*
X569700Y396940D02*
X570100Y397740D01*
X569700Y398540D01*
X570500Y398140D01*
X571300Y398540D01*
X570900Y397740D01*
X571300Y396940D01*
X570500Y397340D01*
X569700Y396940D01*
X567700Y31440D02*
X568100Y32240D01*
X567700Y33040D01*
X568500Y32640D01*
X569300Y33040D01*
X568900Y32240D01*
X569300Y31440D01*
X568500Y31840D01*
X567700Y31440D01*
X303700D02*
X304100Y32240D01*
X303700Y33040D01*
X304500Y32640D01*
X305300Y33040D01*
X304900Y32240D01*
X305300Y31440D01*
X304500Y31840D01*
X303700Y31440D01*
X571700Y250440D02*
X572100Y251240D01*
X571700Y252040D01*
X572500Y251640D01*
X573300Y252040D01*
X572900Y251240D01*
X573300Y250440D01*
X572500Y250840D01*
X571700Y250440D01*
X564700Y391940D02*
X565100Y392740D01*
X564700Y393540D01*
X565500Y393140D01*
X566300Y393540D01*
X565900Y392740D01*
X566300Y391940D01*
X565500Y392340D01*
X564700Y391940D01*
X530200Y38940D02*
X530600Y39740D01*
X530200Y40540D01*
X531000Y40140D01*
X531800Y40540D01*
X531400Y39740D01*
X531800Y38940D01*
X531000Y39340D01*
X530200Y38940D01*
X314200D02*
X314600Y39740D01*
X314200Y40540D01*
X315000Y40140D01*
X315800Y40540D01*
X315400Y39740D01*
X315800Y38940D01*
X315000Y39340D01*
X314200Y38940D01*
X391200Y71440D02*
X391600Y72240D01*
X391200Y73040D01*
X392000Y72640D01*
X392800Y73040D01*
X392400Y72240D01*
X392800Y71440D01*
X392000Y71840D01*
X391200Y71440D01*
X106200D02*
X106600Y72240D01*
X106200Y73040D01*
X107000Y72640D01*
X107800Y73040D01*
X107400Y72240D01*
X107800Y71440D01*
X107000Y71840D01*
X106200Y71440D01*
D114*
X376875Y462240D02*
G03*
X376875Y462240I-800J0D01*
G01*
X418977D02*
G03*
X418977Y462240I-800J0D01*
G01*
X168776D02*
G03*
X168776Y462240I-800J0D01*
G01*
X199076D02*
G03*
X199076Y462240I-800J0D01*
G01*
X468875D02*
G03*
X468875Y462240I-800J0D01*
G01*
X510977D02*
G03*
X510977Y462240I-800J0D01*
G01*
X113926D02*
G03*
X113926Y462240I-800J0D01*
G01*
X243926D02*
G03*
X243926Y462240I-800J0D01*
G01*
X286426D02*
G03*
X286426Y462240I-800J0D01*
G01*
X328926D02*
G03*
X328926Y462240I-800J0D01*
G01*
X58926D02*
G03*
X58926Y462240I-800J0D01*
G01*
M02*
