G04*
G04 #@! TF.GenerationSoftware,Altium Limited,Altium Designer,21.4.1 (30)*
G04*
G04 Layer_Physical_Order=1*
G04 Layer_Color=255*
%FSLAX25Y25*%
%MOIN*%
G70*
G04*
G04 #@! TF.SameCoordinates,07BA8920-E91E-4FA6-B340-E2803C7595EB*
G04*
G04*
G04 #@! TF.FilePolarity,Positive*
G04*
G01*
G75*
%ADD14C,0.01000*%
%ADD15C,0.00800*%
%ADD18R,0.02362X0.03937*%
%ADD19R,0.02362X0.04134*%
%ADD20R,0.17520X0.03937*%
%ADD21R,0.40158X0.41142*%
%ADD22R,0.05512X0.07480*%
%ADD23R,0.05118X0.05512*%
%ADD24R,0.03937X0.03740*%
%ADD25R,0.03150X0.05906*%
G04:AMPARAMS|DCode=26|XSize=35.43mil|YSize=27.56mil|CornerRadius=6.89mil|HoleSize=0mil|Usage=FLASHONLY|Rotation=90.000|XOffset=0mil|YOffset=0mil|HoleType=Round|Shape=RoundedRectangle|*
%AMROUNDEDRECTD26*
21,1,0.03543,0.01378,0,0,90.0*
21,1,0.02165,0.02756,0,0,90.0*
1,1,0.01378,0.00689,0.01083*
1,1,0.01378,0.00689,-0.01083*
1,1,0.01378,-0.00689,-0.01083*
1,1,0.01378,-0.00689,0.01083*
%
%ADD26ROUNDEDRECTD26*%
G04:AMPARAMS|DCode=27|XSize=35.43mil|YSize=27.56mil|CornerRadius=6.89mil|HoleSize=0mil|Usage=FLASHONLY|Rotation=180.000|XOffset=0mil|YOffset=0mil|HoleType=Round|Shape=RoundedRectangle|*
%AMROUNDEDRECTD27*
21,1,0.03543,0.01378,0,0,180.0*
21,1,0.02165,0.02756,0,0,180.0*
1,1,0.01378,-0.01083,0.00689*
1,1,0.01378,0.01083,0.00689*
1,1,0.01378,0.01083,-0.00689*
1,1,0.01378,-0.01083,-0.00689*
%
%ADD27ROUNDEDRECTD27*%
G04:AMPARAMS|DCode=28|XSize=23.62mil|YSize=47.24mil|CornerRadius=2.01mil|HoleSize=0mil|Usage=FLASHONLY|Rotation=270.000|XOffset=0mil|YOffset=0mil|HoleType=Round|Shape=RoundedRectangle|*
%AMROUNDEDRECTD28*
21,1,0.02362,0.04323,0,0,270.0*
21,1,0.01961,0.04724,0,0,270.0*
1,1,0.00402,-0.02161,-0.00980*
1,1,0.00402,-0.02161,0.00980*
1,1,0.00402,0.02161,0.00980*
1,1,0.00402,0.02161,-0.00980*
%
%ADD28ROUNDEDRECTD28*%
G04:AMPARAMS|DCode=29|XSize=19.68mil|YSize=51.18mil|CornerRadius=1.97mil|HoleSize=0mil|Usage=FLASHONLY|Rotation=270.000|XOffset=0mil|YOffset=0mil|HoleType=Round|Shape=RoundedRectangle|*
%AMROUNDEDRECTD29*
21,1,0.01968,0.04724,0,0,270.0*
21,1,0.01575,0.05118,0,0,270.0*
1,1,0.00394,-0.02362,-0.00787*
1,1,0.00394,-0.02362,0.00787*
1,1,0.00394,0.02362,0.00787*
1,1,0.00394,0.02362,-0.00787*
%
%ADD29ROUNDEDRECTD29*%
%ADD30R,0.04331X0.02362*%
%ADD31O,0.02362X0.09055*%
G04:AMPARAMS|DCode=32|XSize=23.62mil|YSize=59.06mil|CornerRadius=5.91mil|HoleSize=0mil|Usage=FLASHONLY|Rotation=180.000|XOffset=0mil|YOffset=0mil|HoleType=Round|Shape=RoundedRectangle|*
%AMROUNDEDRECTD32*
21,1,0.02362,0.04724,0,0,180.0*
21,1,0.01181,0.05906,0,0,180.0*
1,1,0.01181,-0.00591,0.02362*
1,1,0.01181,0.00591,0.02362*
1,1,0.01181,0.00591,-0.02362*
1,1,0.01181,-0.00591,-0.02362*
%
%ADD32ROUNDEDRECTD32*%
G04:AMPARAMS|DCode=33|XSize=23.62mil|YSize=47.24mil|CornerRadius=2.01mil|HoleSize=0mil|Usage=FLASHONLY|Rotation=0.000|XOffset=0mil|YOffset=0mil|HoleType=Round|Shape=RoundedRectangle|*
%AMROUNDEDRECTD33*
21,1,0.02362,0.04323,0,0,0.0*
21,1,0.01961,0.04724,0,0,0.0*
1,1,0.00402,0.00980,-0.02161*
1,1,0.00402,-0.00980,-0.02161*
1,1,0.00402,-0.00980,0.02161*
1,1,0.00402,0.00980,0.02161*
%
%ADD33ROUNDEDRECTD33*%
G04:AMPARAMS|DCode=34|XSize=19.68mil|YSize=51.18mil|CornerRadius=1.97mil|HoleSize=0mil|Usage=FLASHONLY|Rotation=0.000|XOffset=0mil|YOffset=0mil|HoleType=Round|Shape=RoundedRectangle|*
%AMROUNDEDRECTD34*
21,1,0.01968,0.04724,0,0,0.0*
21,1,0.01575,0.05118,0,0,0.0*
1,1,0.00394,0.00787,-0.02362*
1,1,0.00394,-0.00787,-0.02362*
1,1,0.00394,-0.00787,0.02362*
1,1,0.00394,0.00787,0.02362*
%
%ADD34ROUNDEDRECTD34*%
%ADD35O,0.02362X0.07874*%
%ADD36R,0.14764X0.07874*%
G04:AMPARAMS|DCode=37|XSize=61.02mil|YSize=96.46mil|CornerRadius=7.63mil|HoleSize=0mil|Usage=FLASHONLY|Rotation=180.000|XOffset=0mil|YOffset=0mil|HoleType=Round|Shape=RoundedRectangle|*
%AMROUNDEDRECTD37*
21,1,0.06102,0.08120,0,0,180.0*
21,1,0.04577,0.09646,0,0,180.0*
1,1,0.01526,-0.02288,0.04060*
1,1,0.01526,0.02288,0.04060*
1,1,0.01526,0.02288,-0.04060*
1,1,0.01526,-0.02288,-0.04060*
%
%ADD37ROUNDEDRECTD37*%
G04:AMPARAMS|DCode=38|XSize=37.4mil|YSize=29.53mil|CornerRadius=7.38mil|HoleSize=0mil|Usage=FLASHONLY|Rotation=270.000|XOffset=0mil|YOffset=0mil|HoleType=Round|Shape=RoundedRectangle|*
%AMROUNDEDRECTD38*
21,1,0.03740,0.01476,0,0,270.0*
21,1,0.02264,0.02953,0,0,270.0*
1,1,0.01476,-0.00738,-0.01132*
1,1,0.01476,-0.00738,0.01132*
1,1,0.01476,0.00738,0.01132*
1,1,0.01476,0.00738,-0.01132*
%
%ADD38ROUNDEDRECTD38*%
%ADD39R,0.06693X0.07284*%
%ADD40R,0.05512X0.03937*%
%ADD41R,0.06496X0.02362*%
%ADD42R,0.02362X0.06496*%
%ADD43O,0.02165X0.06693*%
%ADD44O,0.02165X0.05512*%
%ADD45R,0.22441X0.27559*%
%ADD46R,0.04921X0.11417*%
G04:AMPARAMS|DCode=47|XSize=17.72mil|YSize=33.47mil|CornerRadius=4.43mil|HoleSize=0mil|Usage=FLASHONLY|Rotation=0.000|XOffset=0mil|YOffset=0mil|HoleType=Round|Shape=RoundedRectangle|*
%AMROUNDEDRECTD47*
21,1,0.01772,0.02461,0,0,0.0*
21,1,0.00886,0.03347,0,0,0.0*
1,1,0.00886,0.00443,-0.01230*
1,1,0.00886,-0.00443,-0.01230*
1,1,0.00886,-0.00443,0.01230*
1,1,0.00886,0.00443,0.01230*
%
%ADD47ROUNDEDRECTD47*%
%ADD48R,0.03268X0.02480*%
G04:AMPARAMS|DCode=50|XSize=37.4mil|YSize=29.53mil|CornerRadius=7.38mil|HoleSize=0mil|Usage=FLASHONLY|Rotation=0.000|XOffset=0mil|YOffset=0mil|HoleType=Round|Shape=RoundedRectangle|*
%AMROUNDEDRECTD50*
21,1,0.03740,0.01476,0,0,0.0*
21,1,0.02264,0.02953,0,0,0.0*
1,1,0.01476,0.01132,-0.00738*
1,1,0.01476,-0.01132,-0.00738*
1,1,0.01476,-0.01132,0.00738*
1,1,0.01476,0.01132,0.00738*
%
%ADD50ROUNDEDRECTD50*%
G04:AMPARAMS|DCode=91|XSize=39.37mil|YSize=39.37mil|CornerRadius=3.94mil|HoleSize=0mil|Usage=FLASHONLY|Rotation=270.000|XOffset=0mil|YOffset=0mil|HoleType=Round|Shape=RoundedRectangle|*
%AMROUNDEDRECTD91*
21,1,0.03937,0.03150,0,0,270.0*
21,1,0.03150,0.03937,0,0,270.0*
1,1,0.00787,-0.01575,-0.01575*
1,1,0.00787,-0.01575,0.01575*
1,1,0.00787,0.01575,0.01575*
1,1,0.00787,0.01575,-0.01575*
%
%ADD91ROUNDEDRECTD91*%
%ADD92C,0.03937*%
G04:AMPARAMS|DCode=93|XSize=39.37mil|YSize=39.37mil|CornerRadius=3.94mil|HoleSize=0mil|Usage=FLASHONLY|Rotation=0.000|XOffset=0mil|YOffset=0mil|HoleType=Round|Shape=RoundedRectangle|*
%AMROUNDEDRECTD93*
21,1,0.03937,0.03150,0,0,0.0*
21,1,0.03150,0.03937,0,0,0.0*
1,1,0.00787,0.01575,-0.01575*
1,1,0.00787,-0.01575,-0.01575*
1,1,0.00787,-0.01575,0.01575*
1,1,0.00787,0.01575,0.01575*
%
%ADD93ROUNDEDRECTD93*%
%ADD94R,0.02362X0.02756*%
%ADD95C,0.01800*%
%ADD96C,0.03200*%
%ADD97C,0.04000*%
%ADD98C,0.00600*%
%ADD99C,0.02400*%
%ADD100C,0.02600*%
%ADD101C,0.01600*%
%ADD102C,0.00400*%
%ADD103C,0.06000*%
%ADD104C,0.06890*%
%ADD105C,0.27559*%
%ADD106C,0.02165*%
%ADD107C,0.01772*%
%ADD108C,0.03543*%
G36*
X287900Y408906D02*
Y404574D01*
X285166Y401840D01*
X270166D01*
X267900Y399574D01*
Y390074D01*
X266166Y388340D01*
X240570D01*
Y389273D01*
X240718Y389372D01*
X240959Y389732D01*
X241043Y390157D01*
Y392323D01*
X240959Y392748D01*
X240718Y393108D01*
X240358Y393349D01*
X239933Y393433D01*
X238555D01*
X238130Y393349D01*
X237770Y393108D01*
X237529Y392748D01*
X237445Y392323D01*
Y390157D01*
X237529Y389732D01*
X237770Y389372D01*
X237919Y389273D01*
Y388340D01*
X224834D01*
X222100Y391074D01*
Y408906D01*
X224834Y411640D01*
X285166D01*
X287900Y408906D01*
D02*
G37*
G36*
X127900Y406406D02*
Y373574D01*
X125166Y370840D01*
X97334D01*
X94600Y373574D01*
Y406406D01*
X97334Y409140D01*
X99480D01*
Y402240D01*
Y396240D01*
Y393970D01*
X99555Y393594D01*
Y388558D01*
X99711Y387778D01*
X99964Y387398D01*
Y386397D01*
X100154Y385937D01*
X100614Y385746D01*
X102575D01*
X103035Y385937D01*
X103225Y386397D01*
Y387398D01*
X103478Y387778D01*
X103634Y388558D01*
Y393895D01*
X103559Y394271D01*
Y396240D01*
Y402240D01*
Y409140D01*
X125166D01*
X127900Y406406D01*
D02*
G37*
G36*
X434400Y377406D02*
Y374074D01*
X433166Y372840D01*
X425834D01*
X424600Y374074D01*
Y377406D01*
X425834Y378640D01*
X433166D01*
X434400Y377406D01*
D02*
G37*
G36*
X348684Y436902D02*
Y418078D01*
X346446Y415840D01*
X335184D01*
X332184Y412340D01*
X242666D01*
X242399Y412073D01*
X224834D01*
X224528Y411946D01*
X221794Y409212D01*
X221667Y408906D01*
Y391074D01*
X221794Y390768D01*
X224528Y388034D01*
X224834Y387907D01*
X237386D01*
X237636Y387407D01*
X237529Y387248D01*
X237445Y386823D01*
Y385421D01*
X237236Y385213D01*
X235707D01*
X235200Y385112D01*
X234770Y384825D01*
X232616Y382671D01*
X232329Y382241D01*
X232228Y381733D01*
X224393D01*
Y376996D01*
X240400D01*
Y370673D01*
X238293D01*
X237987Y370546D01*
X235694Y368253D01*
X235567Y367947D01*
Y365840D01*
X158334D01*
X156100Y368074D01*
Y424406D01*
X158334Y426640D01*
X209834D01*
X212100Y428906D01*
Y436906D01*
X214334Y439140D01*
X346446D01*
X348684Y436902D01*
D02*
G37*
G36*
X288000Y397447D02*
Y389974D01*
X290681Y387740D01*
X295181D01*
X310500Y374974D01*
Y362033D01*
X307707Y359240D01*
X238293D01*
X236000Y361533D01*
Y367947D01*
X238293Y370240D01*
X264793D01*
X267500Y372947D01*
Y389062D01*
X268206Y389768D01*
X268333Y390074D01*
Y398280D01*
X270293Y400240D01*
X285207D01*
X288000Y397447D01*
D02*
G37*
G36*
X231900Y361406D02*
Y340574D01*
X229166Y337840D01*
X223485D01*
X223278Y338340D01*
X223706Y338768D01*
X223833Y339074D01*
Y341406D01*
X223706Y341712D01*
X222972Y342446D01*
X222666Y342573D01*
X219845D01*
X219833Y342585D01*
Y345906D01*
X219706Y346212D01*
X219416Y346502D01*
X219204Y346818D01*
X218828Y347070D01*
X218384Y347158D01*
X216908D01*
X216478Y347073D01*
X215834D01*
X215528Y346946D01*
X215025Y346443D01*
X208568D01*
X208052Y346340D01*
X206406D01*
X205947Y346150D01*
X205756Y345690D01*
Y343729D01*
X205947Y343269D01*
X206406Y343079D01*
X208052D01*
X208568Y342976D01*
X214667D01*
Y339074D01*
X214794Y338768D01*
X215222Y338340D01*
X215015Y337840D01*
X184313D01*
X181600Y340553D01*
Y361906D01*
X183834Y364140D01*
X217015D01*
X217222Y363640D01*
X216794Y363212D01*
X216667Y362906D01*
Y360574D01*
X216794Y360268D01*
X217528Y359534D01*
X217834Y359407D01*
X220655D01*
X220667Y359395D01*
Y358454D01*
X219691D01*
X219576Y358531D01*
X219132Y358619D01*
X216868D01*
X216424Y358531D01*
X216048Y358279D01*
X216031Y358254D01*
X208568D01*
X208052Y358151D01*
X206406D01*
X205947Y357961D01*
X205756Y357501D01*
Y355540D01*
X205947Y355080D01*
X206406Y354890D01*
X208052D01*
X208568Y354787D01*
X220070D01*
X220734Y354919D01*
X220835Y354987D01*
X221641D01*
X221834Y354907D01*
X221939D01*
X222368Y354822D01*
X224632D01*
X225076Y354910D01*
X225452Y355161D01*
X225704Y355538D01*
X225790Y355971D01*
X225833Y356074D01*
Y362906D01*
X225706Y363212D01*
X225278Y363640D01*
X225485Y364140D01*
X229166D01*
X231900Y361406D01*
D02*
G37*
G36*
X225400Y362906D02*
Y356074D01*
X224666Y355340D01*
X221834D01*
X221100Y356074D01*
Y359574D01*
X220834Y359840D01*
X217834D01*
X217100Y360574D01*
Y362906D01*
X217834Y363640D01*
X224666D01*
X225400Y362906D01*
D02*
G37*
G36*
X348400Y389906D02*
Y354725D01*
X347900Y354518D01*
X347472Y354946D01*
X347166Y355073D01*
X344834D01*
X344528Y354946D01*
X343879Y354297D01*
X343477Y354394D01*
X343379Y354450D01*
Y354872D01*
X343291Y355316D01*
X343039Y355693D01*
X342723Y355904D01*
X342754Y356060D01*
Y359336D01*
X342971Y359426D01*
X343161Y359886D01*
Y364209D01*
X342971Y364668D01*
X342511Y364859D01*
X340550D01*
X340090Y364668D01*
X339900Y364209D01*
Y359886D01*
X340090Y359426D01*
X340307Y359336D01*
Y356262D01*
X340257Y356010D01*
Y355917D01*
X339921Y355693D01*
X339670Y355316D01*
X339582Y354872D01*
Y352608D01*
X339670Y352164D01*
X339921Y351787D01*
X340101Y351668D01*
X340184Y351107D01*
X340098Y350978D01*
X340097Y350975D01*
X340028Y350946D01*
X339294Y350212D01*
X339167Y349906D01*
Y346574D01*
X339294Y346268D01*
X340028Y345534D01*
X340334Y345407D01*
X347166D01*
X347472Y345534D01*
X347900Y345962D01*
X348400Y345755D01*
Y342574D01*
X346166Y340340D01*
X324334D01*
X322100Y342574D01*
Y347255D01*
X322600Y347462D01*
X323028Y347034D01*
X323334Y346907D01*
X325666D01*
X325972Y347034D01*
X326706Y347768D01*
X326833Y348074D01*
Y350895D01*
X326845Y350907D01*
X331166D01*
X331472Y351034D01*
X332206Y351768D01*
X332333Y352074D01*
Y354906D01*
X332206Y355212D01*
X331472Y355946D01*
X331166Y356073D01*
X330943D01*
Y359336D01*
X331160Y359426D01*
X331350Y359886D01*
Y364209D01*
X331160Y364668D01*
X330700Y364859D01*
X328739D01*
X328279Y364668D01*
X328089Y364209D01*
Y359886D01*
X328279Y359426D01*
X328496Y359336D01*
Y356073D01*
X323334D01*
X323028Y355946D01*
X322600Y355518D01*
X322100Y355725D01*
Y378406D01*
X330600Y386906D01*
Y389906D01*
X332334Y391640D01*
X346666D01*
X348400Y389906D01*
D02*
G37*
G36*
X331900Y354906D02*
Y352074D01*
X331166Y351340D01*
X326666D01*
X326400Y351074D01*
Y348074D01*
X325666Y347340D01*
X323334D01*
X322600Y348074D01*
Y354906D01*
X323334Y355640D01*
X331166D01*
X331900Y354906D01*
D02*
G37*
G36*
X347900Y353906D02*
Y346574D01*
X347166Y345840D01*
X340334D01*
X339600Y346574D01*
Y349906D01*
X340334Y350640D01*
X343834D01*
X344100Y350906D01*
Y353906D01*
X344834Y354640D01*
X347166D01*
X347900Y353906D01*
D02*
G37*
G36*
X219400Y345906D02*
Y342406D01*
X219666Y342140D01*
X222666D01*
X223400Y341406D01*
Y339074D01*
X222666Y338340D01*
X215834D01*
X215100Y339074D01*
Y345906D01*
X215834Y346640D01*
X218666D01*
X219400Y345906D01*
D02*
G37*
G36*
X72189Y395740D02*
Y392429D01*
X72096Y392290D01*
X71941Y391510D01*
Y389240D01*
Y385658D01*
X70034Y383751D01*
X69592Y383090D01*
X69437Y382309D01*
X68616D01*
Y370092D01*
X74337D01*
Y382286D01*
X75422Y383371D01*
X75864Y384033D01*
X76020Y384813D01*
Y389240D01*
Y390839D01*
X76112Y390978D01*
X76267Y391758D01*
Y395740D01*
Y407885D01*
X76729Y408076D01*
X78400Y406406D01*
Y330574D01*
X76166Y328340D01*
X47334D01*
X44600Y331074D01*
Y406406D01*
X47334Y409140D01*
X72189D01*
Y395740D01*
D02*
G37*
G36*
X449900Y332406D02*
Y326725D01*
X449400Y326518D01*
X448472Y327446D01*
X448166Y327573D01*
X439834D01*
X439528Y327446D01*
X438294Y326212D01*
X438167Y325906D01*
Y318574D01*
X438294Y318268D01*
X439528Y317034D01*
X439834Y316907D01*
X448166D01*
X448472Y317034D01*
X449400Y317962D01*
X449900Y317755D01*
Y312074D01*
X448166Y310340D01*
X435334D01*
X433600Y312074D01*
Y332406D01*
X435334Y334140D01*
X448166D01*
X449900Y332406D01*
D02*
G37*
G36*
X449400Y325906D02*
Y318574D01*
X448166Y317340D01*
X439834D01*
X438600Y318574D01*
Y325906D01*
X439834Y327140D01*
X448166D01*
X449400Y325906D01*
D02*
G37*
G36*
X407900D02*
Y318574D01*
X406666Y317340D01*
X398334D01*
X397100Y318574D01*
Y325906D01*
X398334Y327140D01*
X406666D01*
X407900Y325906D01*
D02*
G37*
G36*
X412900Y332406D02*
Y312074D01*
X411166Y310340D01*
X397834D01*
X396600Y311574D01*
Y317755D01*
X397100Y317962D01*
X398028Y317034D01*
X398334Y316907D01*
X406666D01*
X406972Y317034D01*
X408206Y318268D01*
X408333Y318574D01*
Y325906D01*
X408206Y326212D01*
X406972Y327446D01*
X406666Y327573D01*
X398334D01*
X398028Y327446D01*
X397100Y326518D01*
X396600Y326725D01*
Y332906D01*
X397834Y334140D01*
X411166D01*
X412900Y332406D01*
D02*
G37*
G36*
X313400Y335906D02*
Y305074D01*
X311666Y303340D01*
X305431D01*
X305240Y303802D01*
X305706Y304268D01*
X305833Y304574D01*
Y316406D01*
X305706Y316712D01*
X304472Y317946D01*
X304166Y318073D01*
X296834D01*
X296528Y317946D01*
X295294Y316712D01*
X295167Y316406D01*
Y304574D01*
X295294Y304268D01*
X295760Y303802D01*
X295569Y303340D01*
X289834D01*
X288100Y305074D01*
Y335906D01*
X289834Y337640D01*
X311666D01*
X313400Y335906D01*
D02*
G37*
G36*
X305400Y316406D02*
Y304574D01*
X304166Y303340D01*
X296834D01*
X295600Y304574D01*
Y316406D01*
X296834Y317640D01*
X304166D01*
X305400Y316406D01*
D02*
G37*
G36*
X285900Y335906D02*
Y305074D01*
X284166Y303340D01*
X277931D01*
X277740Y303802D01*
X278206Y304268D01*
X278333Y304574D01*
Y316406D01*
X278206Y316712D01*
X276972Y317946D01*
X276666Y318073D01*
X269334D01*
X269028Y317946D01*
X267794Y316712D01*
X267667Y316406D01*
Y304574D01*
X267794Y304268D01*
X268260Y303802D01*
X268069Y303340D01*
X262334D01*
X260600Y305074D01*
Y335906D01*
X262334Y337640D01*
X284166D01*
X285900Y335906D01*
D02*
G37*
G36*
X277900Y316406D02*
Y304574D01*
X276666Y303340D01*
X269334D01*
X268100Y304574D01*
Y316406D01*
X269334Y317640D01*
X276666D01*
X277900Y316406D01*
D02*
G37*
G36*
X258400Y335906D02*
Y305074D01*
X256666Y303340D01*
X250431D01*
X250240Y303802D01*
X250706Y304268D01*
X250833Y304574D01*
Y316406D01*
X250706Y316712D01*
X249472Y317946D01*
X249166Y318073D01*
X241834D01*
X241528Y317946D01*
X240294Y316712D01*
X240167Y316406D01*
Y304574D01*
X240294Y304268D01*
X240760Y303802D01*
X240569Y303340D01*
X234834D01*
X233100Y305074D01*
Y335906D01*
X234834Y337640D01*
X256666D01*
X258400Y335906D01*
D02*
G37*
G36*
X250400Y316406D02*
Y304574D01*
X249166Y303340D01*
X241834D01*
X240600Y304574D01*
Y316406D01*
X241834Y317640D01*
X249166D01*
X250400Y316406D01*
D02*
G37*
G36*
X449900Y305406D02*
Y299225D01*
X449400Y299018D01*
X448472Y299946D01*
X448166Y300073D01*
X439834D01*
X439528Y299946D01*
X438294Y298712D01*
X438167Y298406D01*
Y291074D01*
X438294Y290768D01*
X439528Y289534D01*
X439834Y289407D01*
X448166D01*
X448472Y289534D01*
X449400Y290462D01*
X449900Y290255D01*
Y284074D01*
X448666Y282840D01*
X430334D01*
X428600Y284574D01*
Y304906D01*
X430334Y306640D01*
X448666D01*
X449900Y305406D01*
D02*
G37*
G36*
X449400Y298406D02*
Y291074D01*
X448166Y289840D01*
X439834D01*
X438600Y291074D01*
Y298406D01*
X439834Y299640D01*
X448166D01*
X449400Y298406D01*
D02*
G37*
G36*
X407900D02*
Y291074D01*
X406666Y289840D01*
X398334D01*
X397100Y291074D01*
Y298406D01*
X398334Y299640D01*
X406666D01*
X407900Y298406D01*
D02*
G37*
G36*
X417400Y304906D02*
Y284574D01*
X415666Y282840D01*
X397834D01*
X396600Y284074D01*
Y290255D01*
X397100Y290462D01*
X398028Y289534D01*
X398334Y289407D01*
X406666D01*
X406972Y289534D01*
X408206Y290768D01*
X408333Y291074D01*
Y298406D01*
X408206Y298712D01*
X406972Y299946D01*
X406666Y300073D01*
X398334D01*
X398028Y299946D01*
X397100Y299018D01*
X396600Y299225D01*
Y305406D01*
X397834Y306640D01*
X415666D01*
X417400Y304906D01*
D02*
G37*
G36*
X449900Y277406D02*
Y272171D01*
X449438Y271980D01*
X448972Y272446D01*
X448666Y272573D01*
X440334D01*
X440028Y272446D01*
X438794Y271212D01*
X438667Y270906D01*
Y263574D01*
X438794Y263268D01*
X440028Y262034D01*
X440334Y261907D01*
X448666D01*
X448972Y262034D01*
X449438Y262500D01*
X449900Y262309D01*
Y256574D01*
X448666Y255340D01*
X425334D01*
X424100Y256574D01*
Y277406D01*
X425331Y278636D01*
X448162Y279144D01*
X449900Y277406D01*
D02*
G37*
G36*
Y270906D02*
Y263574D01*
X448666Y262340D01*
X440334D01*
X439100Y263574D01*
Y270906D01*
X440334Y272140D01*
X448666D01*
X449900Y270906D01*
D02*
G37*
G36*
X407400D02*
Y263574D01*
X406166Y262340D01*
X397834D01*
X396600Y263574D01*
Y270906D01*
X397834Y272140D01*
X406166D01*
X407400Y270906D01*
D02*
G37*
G36*
X421900Y277906D02*
Y256574D01*
X420666Y255340D01*
X397834D01*
X396600Y256574D01*
Y262309D01*
X397062Y262500D01*
X397528Y262034D01*
X397834Y261907D01*
X406166D01*
X406472Y262034D01*
X407706Y263268D01*
X407833Y263574D01*
Y270906D01*
X407706Y271212D01*
X406472Y272446D01*
X406166Y272573D01*
X397834D01*
X397528Y272446D01*
X397062Y271980D01*
X396600Y272171D01*
Y277406D01*
X398334Y279140D01*
X420666D01*
X421900Y277906D01*
D02*
G37*
%LPC*%
G36*
X252717Y410453D02*
X251713Y410321D01*
X250778Y409934D01*
X249975Y409317D01*
X249359Y408514D01*
X248971Y407579D01*
X248839Y406575D01*
X248971Y405571D01*
X249359Y404636D01*
X249975Y403833D01*
X250778Y403217D01*
X251713Y402829D01*
X252717Y402697D01*
X253721Y402829D01*
X254656Y403217D01*
X255459Y403833D01*
X256076Y404636D01*
X256463Y405571D01*
X256595Y406575D01*
X256463Y407579D01*
X256076Y408514D01*
X255459Y409317D01*
X254656Y409934D01*
X253721Y410321D01*
X252717Y410453D01*
D02*
G37*
G36*
X262717Y400453D02*
X261713Y400321D01*
X260778Y399934D01*
X259975Y399317D01*
X259359Y398514D01*
X258971Y397579D01*
X258839Y396575D01*
X258971Y395571D01*
X259359Y394636D01*
X259975Y393833D01*
X260778Y393216D01*
X261713Y392829D01*
X262717Y392697D01*
X263721Y392829D01*
X264656Y393216D01*
X265459Y393833D01*
X266075Y394636D01*
X266463Y395571D01*
X266595Y396575D01*
X266463Y397579D01*
X266075Y398514D01*
X265459Y399317D01*
X264656Y399934D01*
X263721Y400321D01*
X262717Y400453D01*
D02*
G37*
G36*
X252717D02*
X251713Y400321D01*
X250778Y399934D01*
X249975Y399317D01*
X249359Y398514D01*
X248971Y397579D01*
X248839Y396575D01*
X248971Y395571D01*
X249359Y394636D01*
X249975Y393833D01*
X250778Y393216D01*
X251713Y392829D01*
X252717Y392697D01*
X253721Y392829D01*
X254656Y393216D01*
X255459Y393833D01*
X256076Y394636D01*
X256463Y395571D01*
X256595Y396575D01*
X256463Y397579D01*
X256076Y398514D01*
X255459Y399317D01*
X254656Y399934D01*
X253721Y400321D01*
X252717Y400453D01*
D02*
G37*
G36*
X119166Y403573D02*
X116834D01*
X116528Y403446D01*
X115794Y402712D01*
X115667Y402406D01*
Y399585D01*
X115655Y399573D01*
X112334D01*
X112028Y399446D01*
X111294Y398712D01*
X111167Y398406D01*
Y395574D01*
X111294Y395268D01*
X111461Y395101D01*
Y391795D01*
X111366Y391320D01*
Y388558D01*
X111522Y387778D01*
X111775Y387398D01*
Y386397D01*
X111965Y385937D01*
X112425Y385746D01*
X114386D01*
X114846Y385937D01*
X115036Y386397D01*
Y387398D01*
X115289Y387778D01*
X115445Y388558D01*
Y390940D01*
X115539Y391415D01*
Y394407D01*
X119166D01*
X119472Y394534D01*
X120206Y395268D01*
X120333Y395574D01*
Y402406D01*
X120206Y402712D01*
X119472Y403446D01*
X119166Y403573D01*
D02*
G37*
%LPD*%
G36*
X119900Y402406D02*
Y395574D01*
X119166Y394840D01*
X112334D01*
X111600Y395574D01*
Y398406D01*
X112334Y399140D01*
X115834D01*
X116100Y399406D01*
Y402406D01*
X116834Y403140D01*
X119166D01*
X119900Y402406D01*
D02*
G37*
%LPC*%
G36*
X309288Y436911D02*
X304712D01*
X304258Y436821D01*
X303873Y436564D01*
X303616Y436179D01*
X303526Y435725D01*
Y427605D01*
X303616Y427151D01*
X303873Y426767D01*
X304258Y426510D01*
X304712Y426420D01*
X309288D01*
X309742Y426510D01*
X310127Y426767D01*
X310384Y427151D01*
X310474Y427605D01*
Y429223D01*
X311388Y429404D01*
X312181Y429935D01*
X313240Y430994D01*
X319828D01*
X320510Y430471D01*
X321337Y430128D01*
X322224Y430011D01*
X323112Y430128D01*
X323939Y430471D01*
X324649Y431016D01*
X325194Y431726D01*
X325537Y432553D01*
X325654Y433441D01*
X325537Y434328D01*
X325194Y435155D01*
X324649Y435866D01*
X323939Y436411D01*
X323112Y436753D01*
X322224Y436870D01*
X321337Y436753D01*
X320510Y436411D01*
X319828Y435888D01*
X312227D01*
X311290Y435702D01*
X310974Y435490D01*
X310474Y435725D01*
X310384Y436179D01*
X310127Y436564D01*
X309742Y436821D01*
X309288Y436911D01*
D02*
G37*
G36*
X266788D02*
X262212D01*
X261758Y436821D01*
X261373Y436564D01*
X261116Y436179D01*
X261026Y435725D01*
Y427605D01*
X261116Y427151D01*
X261373Y426767D01*
X261758Y426510D01*
X262212Y426420D01*
X266788D01*
X267242Y426510D01*
X267627Y426767D01*
X267884Y427151D01*
X267974Y427605D01*
Y429223D01*
X268888Y429404D01*
X269682Y429935D01*
X270740Y430994D01*
X277328D01*
X278010Y430471D01*
X278837Y430128D01*
X279724Y430011D01*
X280612Y430128D01*
X281439Y430471D01*
X282149Y431016D01*
X282694Y431726D01*
X283037Y432553D01*
X283154Y433441D01*
X283037Y434328D01*
X282694Y435155D01*
X282149Y435866D01*
X281439Y436411D01*
X280612Y436753D01*
X279724Y436870D01*
X278837Y436753D01*
X278010Y436411D01*
X277328Y435888D01*
X269727D01*
X268790Y435702D01*
X268474Y435490D01*
X267974Y435725D01*
X267884Y436179D01*
X267627Y436564D01*
X267242Y436821D01*
X266788Y436911D01*
D02*
G37*
G36*
X224788Y437411D02*
X220212D01*
X219758Y437321D01*
X219373Y437064D01*
X219116Y436679D01*
X219026Y436225D01*
Y428105D01*
X219116Y427652D01*
X219373Y427267D01*
X219758Y427010D01*
X220212Y426920D01*
X224788D01*
X225242Y427010D01*
X225627Y427267D01*
X225884Y427652D01*
X225974Y428105D01*
Y429723D01*
X226888Y429905D01*
X227681Y430435D01*
X228240Y430994D01*
X234828D01*
X235510Y430471D01*
X236337Y430128D01*
X237224Y430011D01*
X238112Y430128D01*
X238939Y430471D01*
X239649Y431016D01*
X240194Y431726D01*
X240537Y432553D01*
X240654Y433441D01*
X240537Y434328D01*
X240194Y435155D01*
X239649Y435866D01*
X238939Y436411D01*
X238112Y436753D01*
X237224Y436870D01*
X236337Y436753D01*
X235510Y436411D01*
X234828Y435888D01*
X227227D01*
X226474Y435738D01*
X226438Y435737D01*
X225974Y436046D01*
Y436225D01*
X225884Y436679D01*
X225627Y437064D01*
X225242Y437321D01*
X224788Y437411D01*
D02*
G37*
G36*
X49166Y395573D02*
X46834D01*
X46528Y395446D01*
X45294Y394212D01*
X45167Y393906D01*
Y387074D01*
X45294Y386768D01*
X46528Y385534D01*
X46834Y385407D01*
X51369D01*
Y382833D01*
X51396Y382696D01*
X51079Y382309D01*
X50663D01*
Y370092D01*
X56384D01*
Y382309D01*
X55155D01*
X55031Y382934D01*
X54677Y383463D01*
X54631Y383509D01*
Y385407D01*
X54900D01*
X55206Y385534D01*
X55333Y385840D01*
Y387640D01*
X55292Y387738D01*
Y387998D01*
X55204Y388442D01*
X54953Y388818D01*
X54576Y389070D01*
X54132Y389158D01*
X51868D01*
X51424Y389070D01*
X51289Y388980D01*
X50833Y389276D01*
Y393906D01*
X50706Y394212D01*
X49472Y395446D01*
X49166Y395573D01*
D02*
G37*
%LPD*%
G36*
X50400Y393906D02*
Y388906D01*
X51666Y387640D01*
X54900D01*
Y385840D01*
X46834D01*
X45600Y387074D01*
Y393906D01*
X46834Y395140D01*
X49166D01*
X50400Y393906D01*
D02*
G37*
D14*
X590500Y58500D02*
X595500D01*
Y53500D02*
Y58500D01*
X590500Y53500D02*
Y58500D01*
Y53500D02*
X595500D01*
Y48500D02*
Y53500D01*
X590500Y48500D02*
Y53500D01*
Y48500D02*
X595500D01*
Y43500D02*
Y48500D01*
X590500Y43500D02*
Y48500D01*
Y38500D02*
Y43500D01*
Y38500D02*
X595500D01*
Y43500D01*
X590500D02*
X595500D01*
X468000Y252500D02*
X469760D01*
X470929Y253669D01*
X102980Y328220D02*
X103000Y328240D01*
X102980Y323240D02*
Y328220D01*
X101125Y318679D02*
X102980Y320535D01*
Y323240D01*
X101125Y313752D02*
Y318679D01*
X354500Y264240D02*
Y265324D01*
X353354Y266470D02*
X354500Y265324D01*
X353354Y266470D02*
Y268740D01*
X353125Y271239D02*
X353354Y271010D01*
Y268740D02*
Y271010D01*
X353125Y271239D02*
Y277274D01*
X550472Y359212D02*
X551000Y359740D01*
X546866Y359212D02*
X550472D01*
X376071Y328669D02*
X376500Y328240D01*
X376071Y328669D02*
Y332240D01*
Y301169D02*
X376500Y300740D01*
X376071Y301169D02*
Y304740D01*
X375823Y273917D02*
X376500Y273240D01*
X375823Y273917D02*
Y277240D01*
X470929Y253669D02*
Y257240D01*
X470000Y281240D02*
X470429Y281669D01*
Y284740D01*
X470000Y308740D02*
X470677Y309417D01*
Y312240D01*
X186500Y265240D02*
X195140D01*
X197500Y267600D01*
Y277603D01*
X185480Y267470D02*
X186500Y266450D01*
Y265240D02*
Y266450D01*
X185480Y267470D02*
Y269740D01*
Y272195D01*
X185000Y272676D02*
X185480Y272195D01*
X185000Y272676D02*
Y277603D01*
Y284500D01*
X183300Y286200D02*
X185000Y284500D01*
X156300Y286200D02*
X183300D01*
X155000Y284900D02*
X156300Y286200D01*
X155000Y277603D02*
Y284900D01*
X228500Y265240D02*
Y266450D01*
X227480Y267470D02*
X228500Y266450D01*
X227480Y267470D02*
Y269740D01*
Y272010D02*
X227500Y272030D01*
Y277603D01*
X227480Y269740D02*
Y272010D01*
X118550Y360422D02*
X121250Y357723D01*
X117397Y360422D02*
X118550D01*
X121250Y354370D02*
Y357723D01*
X115854Y361965D02*
X117397Y360422D01*
X115854Y361965D02*
Y362359D01*
Y362753D02*
X118000Y364898D01*
Y368000D01*
X115854Y362359D02*
Y362753D01*
D15*
X28800Y366554D02*
Y370700D01*
X42500Y313307D02*
Y324300D01*
X38928Y327872D02*
X42500Y324300D01*
X38928Y327872D02*
Y334128D01*
X29872Y330086D02*
X37500Y322458D01*
Y313307D02*
Y322458D01*
X29872Y330086D02*
Y334128D01*
X348109Y394900D02*
X353000Y390009D01*
X348069Y394900D02*
X348109D01*
X351500Y341240D02*
Y389811D01*
X347611Y393700D02*
X351500Y389811D01*
X342078Y393700D02*
X347611D01*
X340191Y395587D02*
X342078Y393700D01*
X347114Y392500D02*
X350000Y389615D01*
X336056Y392500D02*
X347114D01*
X333000Y395556D02*
X336056Y392500D01*
X347381Y395587D02*
X348069Y394900D01*
X353000Y340740D02*
Y390009D01*
X350000Y341740D02*
Y389615D01*
X347000Y401706D02*
X347381Y401325D01*
Y397660D02*
Y401325D01*
X347000Y401706D02*
Y403484D01*
X347381Y395587D02*
Y397660D01*
X340191Y395587D02*
Y397660D01*
Y399733D02*
X341000Y400543D01*
Y403484D01*
X340191Y397660D02*
Y399733D01*
X333000Y399702D02*
X335000Y401702D01*
Y403484D01*
X333000Y397629D02*
Y399702D01*
Y395556D02*
Y397629D01*
X276974Y240740D02*
X277000D01*
X282717Y235023D01*
X276974Y240740D02*
X277000Y240766D01*
X180125Y332115D02*
Y335244D01*
X179567Y335802D02*
X180125Y335244D01*
X222500Y318554D02*
X222670D01*
X224646Y320530D01*
X222500Y313627D02*
Y318554D01*
X224646Y320530D02*
Y322800D01*
Y328000D01*
X230354Y322800D02*
Y328000D01*
Y322406D02*
Y322800D01*
X227500Y319552D02*
X230354Y322406D01*
X227500Y313627D02*
Y319552D01*
X111250Y347650D02*
X115660Y343240D01*
X111250Y347650D02*
Y354370D01*
X115660Y343240D02*
X129000D01*
X116250Y348050D02*
X119060Y345240D01*
X116250Y348050D02*
Y354370D01*
X119060Y345240D02*
X128000D01*
X121125Y322525D02*
X125625Y327025D01*
X121125Y313752D02*
Y322525D01*
X106125Y308824D02*
X107749Y307200D01*
X117800D01*
X106125Y308824D02*
Y313752D01*
X117800Y307200D02*
X118700Y308100D01*
Y327207D01*
X121250Y329757D01*
Y333110D01*
X116125Y313752D02*
Y329632D01*
X116250Y329757D01*
Y333110D01*
X111125Y318679D02*
X111250Y318804D01*
Y333110D01*
X111125Y313752D02*
Y318679D01*
X126125Y306115D02*
Y313752D01*
X125625Y305615D02*
X126125Y306115D01*
X97000Y328240D02*
X97272Y327968D01*
Y323240D02*
Y327968D01*
Y319826D02*
Y323240D01*
X96125Y318679D02*
X97272Y319826D01*
X96125Y313752D02*
Y318679D01*
X222437Y272676D02*
X222500D01*
X62500Y317848D02*
X62677D01*
X52854Y323370D02*
X53130D01*
X32250Y427677D02*
Y431990D01*
X334191Y445077D02*
X334346Y445232D01*
X334032Y444917D02*
X334191Y445077D01*
X249008Y445232D02*
X254000Y440240D01*
X116126Y256114D02*
Y277914D01*
X160000Y277790D02*
X160126Y277664D01*
X175000Y277790D02*
X175126Y277664D01*
X170000Y277790D02*
X170126Y277664D01*
X165000Y277790D02*
X165126Y277664D01*
X171315Y444917D02*
Y447925D01*
X217500Y277790D02*
X217626Y277664D01*
X212500Y277790D02*
X212626Y277664D01*
X207500Y277790D02*
X207626Y277664D01*
X202500Y277790D02*
X202626Y277664D01*
X483000Y399564D02*
X483417Y399981D01*
X478270Y400220D02*
Y400308D01*
X443042Y225958D02*
X443374D01*
X440618Y228226D02*
X440774D01*
X111126Y241366D02*
Y277914D01*
X178281Y342587D02*
X178413D01*
X34500Y243740D02*
Y270947D01*
X45000Y243740D02*
Y270446D01*
X393500Y73740D02*
Y166740D01*
X340000Y243740D02*
Y247740D01*
Y78740D02*
Y243740D01*
X122000D02*
Y250240D01*
Y78240D02*
Y243740D01*
X460500Y115240D02*
Y166740D01*
X434000Y124240D02*
Y166740D01*
X447500D02*
Y194458D01*
Y121740D02*
Y166740D01*
X407000Y71740D02*
Y166740D01*
X420500D02*
Y194708D01*
Y116240D02*
Y166740D01*
X249365Y262141D02*
X252151D01*
X253375Y263365D01*
X277490Y262141D02*
X280276D01*
X281500Y263365D01*
X347000Y264240D02*
X347646Y264886D01*
Y268740D01*
Y271010D02*
X348125Y271489D01*
X347646Y268740D02*
Y271010D01*
X348125Y271489D02*
Y277274D01*
X570374Y397614D02*
X570500Y397740D01*
X570374Y391996D02*
Y397614D01*
X562040Y392740D02*
X565500D01*
X561296Y391996D02*
X562040Y392740D01*
X557126Y391996D02*
X561296D01*
X559298Y386484D02*
X560514Y387700D01*
X563600D01*
X557126Y386484D02*
X559298D01*
X562706Y384306D02*
X566024D01*
X560664Y382264D02*
X562706Y384306D01*
X552900Y382264D02*
X560664D01*
X550244Y379608D02*
Y383336D01*
Y379608D02*
X552900Y382264D01*
Y397100D01*
X550244Y377240D02*
Y379608D01*
X552900Y397100D02*
X554146Y398346D01*
Y403366D01*
X552900Y406882D02*
X554146Y405636D01*
X552900Y406882D02*
Y430600D01*
X554146Y403366D02*
Y405636D01*
X552900Y430600D02*
X570454Y448154D01*
Y455800D01*
X566024Y384306D02*
X568202Y386484D01*
X570374D01*
X575874D01*
X548874Y384706D02*
X550244Y383336D01*
X548874Y384706D02*
Y386484D01*
X542874D02*
X548874D01*
X536874D02*
X542874D01*
X553400Y377240D02*
X555040Y375600D01*
X550244Y377240D02*
X553400D01*
X555040Y375600D02*
X559291D01*
X565000D02*
Y380800D01*
X540008Y374871D02*
X543126Y371753D01*
Y368268D02*
Y371753D01*
X540008Y374871D02*
Y377240D01*
X539386Y356746D02*
X540244Y355887D01*
Y352114D02*
Y355887D01*
X539386Y356746D02*
Y359212D01*
X532500Y342198D02*
X540244Y349942D01*
X532500Y243740D02*
Y342198D01*
X540244Y349942D02*
Y352114D01*
X531000Y39740D02*
X532500Y41240D01*
Y243740D01*
X374152Y318740D02*
X376071Y320659D01*
X374000Y318740D02*
X374152D01*
X376071Y320659D02*
Y322240D01*
Y291169D02*
X376500Y290740D01*
X376071Y291169D02*
Y294740D01*
X470000Y290740D02*
X470429Y291169D01*
Y294740D01*
X470677Y318563D02*
X472500Y316740D01*
X470677Y318563D02*
Y322240D01*
X545500Y37240D02*
X547500Y39240D01*
Y243740D01*
Y251240D01*
X440618Y200172D02*
X440618Y200172D01*
X440618Y198000D02*
Y200172D01*
X440618Y200172D02*
Y204710D01*
X439634Y207866D02*
X440618Y206881D01*
X439634Y207866D02*
Y214141D01*
X440618Y204710D02*
Y206881D01*
X453993Y200172D02*
X453993Y200172D01*
X453993Y198000D02*
Y200172D01*
X453993Y200172D02*
Y204710D01*
X453009Y207866D02*
X453993Y206881D01*
X453009Y207866D02*
Y214141D01*
X453993Y204710D02*
Y206881D01*
X446130Y204710D02*
Y208830D01*
X447114Y209814D01*
Y214141D01*
X78882Y94358D02*
Y255240D01*
Y94358D02*
X81000Y92240D01*
X59000Y243740D02*
X62264D01*
X73370Y254846D01*
Y255240D01*
Y260740D01*
X72510Y263772D02*
X73370Y262912D01*
Y260740D02*
Y262912D01*
X72510Y263772D02*
Y266516D01*
X78882Y262912D02*
X79990Y264020D01*
X78882Y260740D02*
Y262912D01*
X79990Y264020D02*
Y266516D01*
X81571D02*
X82796Y267740D01*
X85500D01*
X79990Y266516D02*
X81571D01*
X100000Y243740D02*
Y249740D01*
Y96240D02*
Y243740D01*
Y249740D02*
X106125Y255865D01*
Y277728D01*
X133000Y243740D02*
Y252150D01*
Y241240D02*
Y243740D01*
X121125Y264025D02*
X133000Y252150D01*
X121125Y264025D02*
Y277728D01*
X182500Y243740D02*
Y248240D01*
Y76240D02*
Y243740D01*
X175000Y255740D02*
X182500Y248240D01*
X175000Y255740D02*
Y277603D01*
X172500Y243740D02*
Y250240D01*
Y78740D02*
Y243740D01*
X170000Y252740D02*
X172500Y250240D01*
X170000Y252740D02*
Y277603D01*
X162500Y243740D02*
Y250740D01*
Y86740D02*
Y243740D01*
Y250740D02*
X165000Y253240D01*
Y277603D01*
X152500Y243740D02*
Y253240D01*
Y88740D02*
Y243740D01*
Y253240D02*
X160000Y260740D01*
Y277603D01*
X178500Y265240D02*
X179772Y266512D01*
Y269740D01*
Y272010D02*
X180000Y272238D01*
Y277603D01*
X179772Y269740D02*
Y272010D01*
X192375Y270240D02*
X192500Y270365D01*
Y277603D01*
X242744Y277114D02*
Y282544D01*
X243637Y283437D01*
X245626D01*
X197500Y243740D02*
Y255740D01*
Y83740D02*
Y243740D01*
Y255740D02*
X202500Y260740D01*
Y277603D01*
X207500Y243740D02*
Y277603D01*
X227500Y243740D02*
Y247740D01*
Y96240D02*
Y243740D01*
X217500Y257740D02*
X227500Y247740D01*
X217500Y257740D02*
Y277603D01*
Y243740D02*
Y249240D01*
Y79240D02*
Y243740D01*
X212500Y254240D02*
X217500Y249240D01*
X212500Y254240D02*
Y277603D01*
X221000Y265240D02*
Y266698D01*
X221772Y267470D01*
Y269740D01*
Y272010D02*
X222437Y272676D01*
X221772Y269740D02*
Y272010D01*
X222500Y272676D02*
Y277603D01*
X245625Y271589D02*
Y274089D01*
X248256Y276720D01*
Y277114D01*
X273750Y271589D02*
Y274214D01*
X276256Y276720D01*
Y277114D01*
X272522D02*
X273126Y277718D01*
X270744Y277114D02*
X272522D01*
X273126Y277718D02*
Y283437D01*
X300625Y273958D02*
X302054Y275387D01*
X302297D01*
X300625Y271589D02*
Y273958D01*
X302297Y275387D02*
X303756Y276846D01*
Y277240D01*
X307151Y262141D02*
X308375Y263365D01*
X304365Y262141D02*
X307151D01*
X325000Y247500D02*
X333125Y255625D01*
Y277274D01*
X325000Y243740D02*
Y247500D01*
X323480Y265260D02*
X324500Y264240D01*
X323480Y265260D02*
Y268740D01*
Y272581D01*
X323125Y272937D02*
X323480Y272581D01*
X323125Y272937D02*
Y277274D01*
X317000Y264240D02*
X317772Y265012D01*
Y268740D01*
Y271010D02*
X318125Y271363D01*
X317772Y268740D02*
Y271010D01*
X318125Y271363D02*
Y277274D01*
X202500Y319450D02*
X203118Y320068D01*
X202500Y313627D02*
Y319450D01*
X203118Y320068D02*
Y322240D01*
X198000Y327752D02*
X203118Y322634D01*
X198000Y327752D02*
Y328000D01*
X203118Y322240D02*
Y322634D01*
X206000Y320054D02*
X207500Y318554D01*
X206000Y320054D02*
Y325800D01*
X207500Y313627D02*
Y318554D01*
X203244Y328556D02*
X206000Y325800D01*
X203244Y328556D02*
Y328950D01*
X202000Y332365D02*
X203244Y331121D01*
X202000Y332365D02*
Y334000D01*
X203244Y328950D02*
Y331121D01*
X208630Y324412D02*
X208756Y324538D01*
Y328950D01*
X208630Y322240D02*
Y324412D01*
X208000Y331877D02*
X208756Y331121D01*
X208000Y331877D02*
Y334000D01*
X208756Y328950D02*
Y331121D01*
X159744Y329606D02*
X162500Y326850D01*
Y321054D02*
Y326850D01*
X159744Y329606D02*
Y330000D01*
X155000Y321000D02*
X155500Y321500D01*
X155000Y313627D02*
Y321000D01*
X150000Y320500D02*
X151000Y321500D01*
X150000Y313627D02*
Y320500D01*
X165256Y322244D02*
X167000Y320500D01*
X165256Y322244D02*
Y325000D01*
X162500Y321054D02*
X165000Y318554D01*
X165256Y325000D02*
Y330000D01*
X163539Y332111D02*
Y333976D01*
X165256Y330000D02*
Y330394D01*
X163539Y332111D02*
X165256Y330394D01*
X162500Y335015D02*
X163539Y333976D01*
X162500Y335015D02*
Y335802D01*
X175000Y313627D02*
Y326500D01*
X167000Y334500D02*
X175000Y326500D01*
X167000Y334500D02*
Y337000D01*
X162500Y341500D02*
X167000Y337000D01*
X170000Y313627D02*
Y329500D01*
X165500Y334000D02*
X170000Y329500D01*
X165500Y334000D02*
Y336500D01*
X163500Y338500D02*
X165500Y336500D01*
X159982Y338500D02*
X163500D01*
X154609Y343873D02*
X159982Y338500D01*
X154609Y343873D02*
Y344660D01*
X156624Y333000D02*
X157000D01*
X154609Y335015D02*
X156624Y333000D01*
X154609Y345448D02*
X157500Y348338D01*
X154609Y344660D02*
Y345448D01*
X157500Y348338D02*
Y350484D01*
X165000Y313627D02*
Y318554D01*
X154609Y335015D02*
Y335802D01*
X152000Y331740D02*
X153740Y330000D01*
X159744D01*
Y322828D02*
X160000Y322572D01*
Y313627D02*
Y322572D01*
X159744Y322828D02*
Y325000D01*
X149500Y328500D02*
X153000Y325000D01*
X159744D01*
X154609Y335802D02*
X162500D01*
X178281D02*
X179567D01*
X177000Y348706D02*
X178281Y347425D01*
X177000Y348706D02*
Y350484D01*
X178281Y344660D02*
Y347425D01*
X178413Y342587D02*
X186000Y335000D01*
X178281Y342587D02*
Y344660D01*
X170391Y347097D02*
X172000Y348706D01*
X170391Y344660D02*
Y347097D01*
X172000Y348706D02*
Y350484D01*
X174000Y340000D02*
Y340264D01*
X170391Y343873D02*
Y344660D01*
Y343873D02*
X174000Y340264D01*
X471425Y421825D02*
Y433441D01*
X467500Y417900D02*
X471425Y421825D01*
X185000Y318554D02*
X185980Y319535D01*
X185000Y313627D02*
Y318554D01*
X185980Y319535D02*
Y322740D01*
Y326720D02*
X186500Y327240D01*
X185980Y322740D02*
Y326720D01*
X180000Y318554D02*
X180272Y318826D01*
X180000Y313627D02*
Y318554D01*
X180272Y318826D02*
Y322740D01*
Y326968D01*
X180000Y327240D02*
X180272Y326968D01*
X505235Y394865D02*
X505500D01*
X502250Y397850D02*
X505235Y394865D01*
X502250Y397850D02*
Y400754D01*
X498770Y399720D02*
X499803Y400754D01*
X502250D01*
X496500Y399720D02*
X498770D01*
X494080Y399870D02*
X494230Y399720D01*
X496500D01*
X491000Y399870D02*
X494080D01*
X491000D02*
Y404858D01*
Y410370D02*
X497130D01*
X470500D02*
X474130D01*
X477000Y413240D01*
X470500Y399870D02*
Y404858D01*
Y399870D02*
X473380D01*
X473730Y400220D01*
X476000D01*
X478270Y400308D02*
X479466Y401504D01*
X476000Y400220D02*
X478270D01*
X479466Y401504D02*
X481500D01*
X483000Y397740D02*
Y399564D01*
X481500Y401504D02*
X481894D01*
X483417Y399981D01*
X492000Y389240D02*
Y389905D01*
X496106Y394012D02*
X496500D01*
X492000Y389905D02*
X496106Y394012D01*
X505894Y386370D02*
X508000Y388476D01*
X505500Y386370D02*
X505894D01*
X511000Y370012D02*
X514819D01*
X516606Y368224D02*
X517000D01*
X514819Y370012D02*
X516606Y368224D01*
X511000Y365240D02*
Y370012D01*
X505500Y375370D02*
Y380858D01*
X507672Y375370D02*
X508022Y375720D01*
X505500Y375370D02*
X507672D01*
X508022Y375720D02*
X511000D01*
X513683D02*
X514966Y377004D01*
X511000Y375720D02*
X513683D01*
X514966Y377004D02*
X517000D01*
X519034D02*
X521000Y375038D01*
Y372740D02*
Y375038D01*
X517000Y377004D02*
X519034D01*
X487000Y376122D02*
Y380858D01*
Y376122D02*
X490132D01*
X490230Y376220D01*
X492500D01*
X492894D02*
X494677Y378004D01*
X492500Y376220D02*
X492894D01*
X494677Y378004D02*
X498125D01*
X500159D02*
X501500Y376663D01*
Y331740D02*
Y376663D01*
X498125Y378004D02*
X500159D01*
X494804Y370512D02*
X496091Y369224D01*
X492500Y370512D02*
X494804D01*
X496091Y369224D02*
X498125D01*
X477819Y370012D02*
X479356Y368474D01*
X474000Y370012D02*
X477819D01*
X479356Y368474D02*
X479750D01*
X474000Y365740D02*
Y370012D01*
X468500Y375370D02*
Y380358D01*
X470672Y375370D02*
X471022Y375720D01*
X474000D01*
X468500Y375370D02*
X470672D01*
X475937Y377263D02*
X475946Y377254D01*
X474000Y375720D02*
X474394D01*
X475937Y377263D01*
X475946Y377254D02*
X479750D01*
X481784D02*
X483000Y376038D01*
Y346240D02*
Y376038D01*
X479750Y377254D02*
X481784D01*
X513000Y428000D02*
Y439579D01*
X505000Y420000D02*
X513000Y428000D01*
X505000Y398740D02*
Y420000D01*
Y398740D02*
X508000Y395740D01*
X95000Y259000D02*
X96146Y260146D01*
Y268164D01*
X101854Y260146D02*
X103000Y259000D01*
X101854Y260146D02*
Y268164D01*
X101125Y271164D02*
X101854Y270434D01*
Y268164D02*
Y270434D01*
X101125Y271164D02*
Y277728D01*
X96125Y282656D02*
X99469Y286000D01*
X122781D01*
X96125Y277728D02*
Y282656D01*
X122781Y286000D02*
X126125Y282656D01*
Y277728D02*
Y282656D01*
X96125Y272801D02*
X96146Y272780D01*
Y268164D02*
Y272780D01*
X96125Y272801D02*
Y277728D01*
X293672Y262858D02*
X294389Y262141D01*
X291500Y262858D02*
X293672D01*
X294389Y262141D02*
X296885D01*
Y259772D02*
X298244Y258413D01*
Y255332D02*
Y258413D01*
X296885Y259772D02*
Y262141D01*
X303756Y253161D02*
X304000Y252917D01*
X303756Y253161D02*
Y255332D01*
X304000Y243740D02*
Y252917D01*
Y118240D02*
Y240740D01*
X303974Y239231D02*
X304000Y239257D01*
Y240766D02*
Y243740D01*
X277000Y240766D02*
Y243740D01*
Y252917D01*
X276756Y253161D02*
X277000Y252917D01*
X276756Y253161D02*
Y255332D01*
X270010Y258738D02*
X271244Y257504D01*
Y255332D02*
Y257504D01*
X270010Y258738D02*
Y262141D01*
X267711Y262858D02*
X268429Y262141D01*
X270010D01*
X264500Y262858D02*
X267711D01*
X239586D02*
X240304Y262141D01*
X236500Y262858D02*
X239586D01*
X240304Y262141D02*
X241885D01*
Y258863D02*
Y262141D01*
Y258863D02*
X243244Y257504D01*
Y255332D02*
Y257504D01*
X248756Y253161D02*
X249000Y252917D01*
Y243740D02*
Y252917D01*
X248756Y253161D02*
Y255332D01*
X249000Y91240D02*
Y243740D01*
X106250Y354370D02*
Y358070D01*
X110146Y361965D01*
Y362359D01*
X109000Y365775D02*
X110146Y364629D01*
X109000Y365775D02*
Y368000D01*
X110146Y362359D02*
Y364629D01*
X325000Y119240D02*
Y243740D01*
X355000D02*
Y248000D01*
Y76240D02*
Y243740D01*
X343126Y259874D02*
X355000Y248000D01*
X343126Y259874D02*
Y277164D01*
X424746Y216909D02*
Y225254D01*
X443915Y214141D02*
X447114D01*
X441146Y216909D02*
X443915Y214141D01*
X438121Y216909D02*
X441146D01*
X435353Y214141D02*
X438121Y216909D01*
X433739Y214141D02*
X435353D01*
X427771Y216909D02*
X430540Y214141D01*
X424746Y216909D02*
X427771D01*
X421978Y214141D02*
X424746Y216909D01*
X430540Y214141D02*
X433739D01*
X420364D02*
X421978D01*
X414396Y216909D02*
X417165Y214141D01*
X411371Y216909D02*
X414396D01*
X408603Y214141D02*
X411371Y216909D01*
X417165Y214141D02*
X420364D01*
X406989D02*
X408603D01*
X403790D02*
X406989D01*
X401021Y216909D02*
X403790Y214141D01*
X397996Y216909D02*
X401021D01*
X395228Y214141D02*
X397996Y216909D01*
X393614Y214141D02*
X395228D01*
X387118Y200172D02*
X387118Y200172D01*
X387118Y198000D02*
Y200172D01*
X387118Y200172D02*
Y204710D01*
X386134Y207866D02*
X387118Y206881D01*
X386134Y207866D02*
Y214141D01*
X387118Y204710D02*
Y206881D01*
X400493Y202538D02*
X400493Y202538D01*
X400493Y198000D02*
Y202538D01*
X400493Y202538D02*
Y204710D01*
X399509Y207866D02*
X400493Y206881D01*
X399509Y207866D02*
Y214141D01*
X400493Y204710D02*
Y206881D01*
X413868Y202538D02*
X413868Y202538D01*
X413868Y198000D02*
Y202538D01*
X413868Y202538D02*
Y204710D01*
X412884Y207866D02*
X413868Y206881D01*
X412884Y207866D02*
Y214141D01*
X413868Y204710D02*
Y206881D01*
X427243Y198000D02*
Y202538D01*
X427243Y202538D01*
Y204710D01*
X426259Y207866D02*
X427243Y206881D01*
X426259Y207866D02*
Y214141D01*
X427243Y204710D02*
Y206881D01*
X447114Y214141D02*
X448728D01*
X451496Y216909D01*
X454521D01*
X457290Y214141D01*
X460489D01*
X432755Y232569D02*
X437426Y237240D01*
X464500D01*
X432755Y230398D02*
Y232569D01*
X409197Y237240D02*
X413868Y232569D01*
X385000Y237240D02*
X409197D01*
X413868Y230398D02*
Y232569D01*
X389874Y224377D02*
X392630Y227133D01*
X389874Y223589D02*
Y224377D01*
X392630Y227133D02*
Y230398D01*
X403249Y224377D02*
X406005Y227133D01*
X403249Y223589D02*
Y224377D01*
X406005Y227133D02*
Y230398D01*
X416624Y224377D02*
X419380Y227133D01*
X416624Y223589D02*
Y224377D01*
X419380Y227133D02*
Y230398D01*
X429999Y223589D02*
Y224377D01*
X427243Y227133D02*
X429999Y224377D01*
X427243Y227133D02*
Y230398D01*
X440774Y228226D02*
X443042Y225958D01*
X443374Y223589D02*
Y225958D01*
X440618Y228226D02*
Y230398D01*
X456749Y223589D02*
Y224377D01*
X453993Y227133D02*
X456749Y224377D01*
X453993Y227133D02*
Y230398D01*
X459505Y230791D02*
X462954Y234240D01*
X464500D01*
X459505Y230398D02*
Y230791D01*
X446130D02*
X449579Y234240D01*
X450500D01*
X446130Y230398D02*
Y230791D01*
X397044Y234240D02*
X400493Y230791D01*
X397000Y234240D02*
X397044D01*
X400493Y230398D02*
Y230791D01*
X383669Y234240D02*
X387118Y230791D01*
X383000Y234240D02*
X383669D01*
X387118Y230398D02*
Y230791D01*
X459505Y204710D02*
Y207505D01*
X460489Y208489D01*
Y214141D01*
X432755Y204710D02*
Y206881D01*
X433739Y207866D01*
Y214141D01*
X419380Y204710D02*
Y207380D01*
X420364Y208364D01*
Y214141D01*
X406005Y204710D02*
Y206881D01*
X406989Y207866D01*
Y214141D01*
X392630Y204710D02*
Y206881D01*
X393614Y207866D01*
Y214141D01*
X460500Y195683D02*
X460964Y196147D01*
X460500Y166740D02*
Y195683D01*
X459505Y197606D02*
Y198000D01*
Y197606D02*
X460964Y196147D01*
X446130Y195828D02*
X447500Y194458D01*
X446130Y195828D02*
Y198000D01*
X432755Y195828D02*
X434000Y194583D01*
Y166740D02*
Y194583D01*
X432755Y195828D02*
Y198000D01*
X419380Y195828D02*
X420500Y194708D01*
X419380Y195828D02*
Y198000D01*
X406005Y195828D02*
X407000Y194833D01*
Y166740D02*
Y194833D01*
X406005Y195828D02*
Y198000D01*
X392630Y195828D02*
X393500Y194958D01*
Y166740D02*
Y194958D01*
X392630Y195828D02*
Y198000D01*
X371000Y251240D02*
X385000Y237240D01*
X227500Y96240D02*
X231000Y92740D01*
X290626Y283437D02*
Y283929D01*
Y279366D02*
Y283437D01*
X263126D02*
Y283929D01*
Y279614D02*
Y283437D01*
X235626D02*
Y283929D01*
Y279366D02*
Y283437D01*
X300626D02*
Y283929D01*
Y277866D02*
Y283437D01*
X470929Y267240D02*
X474500D01*
X470437D02*
X470929D01*
X375823D02*
X376315D01*
X372000D02*
X375823D01*
X150000Y270000D02*
Y277603D01*
X338125Y312706D02*
Y319875D01*
X337882Y320118D02*
X338125Y319875D01*
X337882Y320118D02*
Y330240D01*
X333125Y312706D02*
Y319875D01*
X332882Y320118D02*
X333125Y319875D01*
X332882Y320118D02*
Y324740D01*
Y325134D02*
X335000Y327252D01*
Y337240D01*
X332882Y324740D02*
Y325134D01*
X331250Y334740D02*
X332370Y333620D01*
Y330240D02*
Y333620D01*
X324852Y324000D02*
X325592Y324740D01*
X323000Y324000D02*
X324852D01*
X325592Y324740D02*
X327370D01*
X337882Y330240D02*
Y336122D01*
X347146Y327886D02*
X347500Y328240D01*
X347146Y324000D02*
Y327886D01*
X352854Y326270D02*
X354500Y327916D01*
Y328240D01*
X352854Y324000D02*
Y326270D01*
X353125Y312706D02*
Y319875D01*
X352854Y320146D02*
X353125Y319875D01*
X352854Y320146D02*
Y324000D01*
X347146Y321730D02*
X348125Y320751D01*
Y312706D02*
Y320751D01*
X347146Y321730D02*
Y324000D01*
X345240Y336240D02*
X348500D01*
X344744Y335744D02*
X345240Y336240D01*
X344744Y333240D02*
Y335744D01*
Y329744D02*
Y333240D01*
X343125Y328125D02*
X344744Y329744D01*
X343125Y312706D02*
Y328125D01*
X557462Y447462D02*
Y454717D01*
X536874Y426874D02*
X557462Y447462D01*
X536874Y392340D02*
Y426874D01*
X575874Y436060D02*
X587777Y447963D01*
X575874Y392340D02*
Y436060D01*
X579116Y448116D02*
Y455505D01*
X567000Y436000D02*
X579116Y448116D01*
X567000Y408000D02*
Y436000D01*
X570500Y434847D02*
X583447Y447793D01*
X570500Y397740D02*
Y434847D01*
X561793Y447793D02*
Y453142D01*
X542874Y428874D02*
X561793Y447793D01*
X542874Y402740D02*
Y428874D01*
X566124Y448124D02*
Y454717D01*
X548874Y430874D02*
X566124Y448124D01*
X548874Y400240D02*
Y430874D01*
X557126Y430296D02*
X574785Y447955D01*
X557126Y392340D02*
Y430296D01*
X562366Y403366D02*
X567000Y408000D01*
X559854Y403366D02*
X562366D01*
X538625Y460490D02*
X539313Y461178D01*
Y467867D01*
X587777Y447963D02*
Y454717D01*
X583447Y447793D02*
Y454717D01*
X574785Y447955D02*
Y454717D01*
X58293Y271197D02*
X59250Y270240D01*
X54250Y271197D02*
X58293D01*
X57500Y272947D02*
Y276693D01*
X59250Y270240D02*
Y271197D01*
X57500Y272947D02*
X59250Y271197D01*
X42500Y272947D02*
X45000Y270446D01*
X42500Y272947D02*
Y276693D01*
X45000Y67740D02*
X45500Y67240D01*
X45000Y67740D02*
Y243740D01*
X34500Y72740D02*
X42500Y64740D01*
X34500Y72740D02*
Y243740D01*
X32500Y272947D02*
X34500Y270947D01*
X32500Y272947D02*
Y276693D01*
X27854Y266631D02*
X29745Y264740D01*
X30500D01*
X27854Y266631D02*
Y268901D01*
X27500Y271525D02*
X27854Y271171D01*
Y268901D02*
Y271171D01*
X27500Y271525D02*
Y276693D01*
X22146Y266094D02*
X23500Y264740D01*
X22146Y266094D02*
Y268901D01*
Y271171D02*
X22500Y271525D01*
X22146Y268901D02*
Y271171D01*
X22500Y271525D02*
Y276693D01*
X52500Y272947D02*
X54250Y271197D01*
X52500Y272947D02*
Y276693D01*
X76250Y278333D02*
X76710Y278793D01*
X76250Y275964D02*
Y278333D01*
X76710Y278793D02*
Y284065D01*
X66626Y273496D02*
Y275274D01*
X66710Y275358D01*
Y284065D01*
X32500Y311043D02*
X37628Y305915D01*
X66710D01*
X32500Y311043D02*
Y313307D01*
X72500Y306490D02*
X73075Y305915D01*
X76710D01*
X70256Y313609D02*
Y316746D01*
X72500Y318990D01*
X62677Y317848D02*
X64744Y315781D01*
X62500Y317848D02*
Y320217D01*
X64744Y313609D02*
Y315781D01*
Y311437D02*
X66710Y309472D01*
Y305915D02*
Y309472D01*
X64744Y311437D02*
Y313609D01*
X52500Y318475D02*
X54596D01*
X57500Y315571D01*
Y313307D02*
Y315571D01*
X52500Y313307D02*
Y318475D01*
X52854Y318829D01*
Y321099D01*
X53130Y323370D02*
X55000Y325240D01*
X52854Y321099D02*
Y323370D01*
X47146Y317408D02*
X47500Y317054D01*
Y313307D02*
Y317054D01*
X47146Y317408D02*
Y321099D01*
Y323386D02*
X49000Y325240D01*
X47146Y321099D02*
Y323386D01*
X31070Y360846D02*
X31168Y360944D01*
X35706D01*
X28800Y360846D02*
X31070D01*
X26432Y360944D02*
X26530Y360846D01*
X21800Y360944D02*
X26432D01*
X26530Y360846D02*
X28800D01*
X27854Y323370D02*
X29725Y325240D01*
X30500D01*
X27854Y321099D02*
Y323370D01*
X27500Y318475D02*
X27854Y318829D01*
X27500Y313307D02*
Y318475D01*
X27854Y318829D02*
Y321099D01*
X24000Y325224D02*
Y325240D01*
X22146Y323370D02*
X24000Y325224D01*
X22146Y321099D02*
Y323370D01*
Y317408D02*
X22500Y317054D01*
X22146Y317408D02*
Y321099D01*
X22500Y313307D02*
Y317054D01*
X481500Y392724D02*
Y392734D01*
Y389240D02*
Y392724D01*
X131125Y277728D02*
Y277915D01*
Y270240D02*
Y277728D01*
X192500Y313627D02*
Y321990D01*
Y313440D02*
Y313627D01*
X130000Y322000D02*
X131125Y320875D01*
Y313752D02*
Y320875D01*
X502250Y391974D02*
Y391984D01*
Y389490D02*
Y391974D01*
X348125Y306240D02*
Y312706D01*
X318125D02*
Y312815D01*
Y306240D02*
Y312706D01*
X76250Y274724D02*
Y275964D01*
X298244Y277240D02*
X300000D01*
X297900D02*
X298244D01*
X113126Y445240D02*
Y446866D01*
Y444917D02*
Y445240D01*
X197500Y313627D02*
Y322615D01*
Y313440D02*
Y313627D01*
X170391Y335802D02*
X178281D01*
X217500Y313627D02*
Y332500D01*
X212500Y313627D02*
Y331500D01*
X162500Y341500D02*
Y344660D01*
Y350484D01*
X152000Y331740D02*
Y362990D01*
X151000Y363990D02*
X152000Y362990D01*
X149500Y328500D02*
Y447740D01*
X487000Y420240D02*
X495031Y428272D01*
X487000Y386714D02*
Y420240D01*
X335000Y337240D02*
X337000Y339240D01*
X347500D01*
X350000Y341740D01*
X337882Y336122D02*
X339500Y337740D01*
X348000D01*
X351500Y341240D01*
X348500Y336240D02*
X353000Y340740D01*
X322717Y10748D02*
X327500Y15531D01*
Y35240D02*
X329500Y37240D01*
X327500Y15531D02*
Y35240D01*
X542374Y403240D02*
X542874Y402740D01*
X540000Y403240D02*
X542374D01*
X542874Y392340D02*
Y402740D01*
X111125Y277915D02*
X111126Y277914D01*
X109500Y84740D02*
X111000Y86240D01*
Y241240D01*
X95551Y83291D02*
X97000Y84740D01*
X95551Y20748D02*
Y83291D01*
X111000Y241240D02*
X111126Y241366D01*
X474500Y267240D02*
X476000Y265740D01*
Y248740D02*
Y265740D01*
X464500Y237240D02*
X476000Y248740D01*
X371000Y251240D02*
Y266240D01*
X372000Y267240D01*
X517500Y42240D02*
X520000Y44740D01*
Y243740D01*
X80500Y40240D02*
X82500Y42240D01*
X80500Y15799D02*
Y40240D01*
X75551Y10748D02*
X80500Y15799D01*
X501500Y331740D02*
X520000Y313240D01*
Y243740D02*
Y313240D01*
X495031Y428272D02*
Y432712D01*
X479750Y377096D02*
Y377244D01*
X507500Y44740D02*
X510000Y47240D01*
Y243740D01*
X60500Y43240D02*
X62000Y44740D01*
X60500Y15740D02*
Y43240D01*
X55551Y10791D02*
X60500Y15740D01*
X55551Y10748D02*
Y10791D01*
X483000Y346240D02*
X510000Y319240D01*
Y243740D02*
Y319240D01*
X468500Y386214D02*
Y388240D01*
X467500Y389240D02*
X468500Y388240D01*
X467500Y389240D02*
Y417900D01*
X498000Y47240D02*
X500000Y49240D01*
Y243740D01*
X55500Y45740D02*
X57000Y47240D01*
X55500Y45740D02*
X55551Y22291D01*
Y20748D02*
Y22291D01*
X500000Y320240D02*
X502000Y322240D01*
X500000Y243740D02*
Y320240D01*
X513000Y439579D02*
X518654Y444917D01*
X508000Y388476D02*
Y395740D01*
X65551Y10791D02*
X70500Y15740D01*
X65551Y10748D02*
Y10791D01*
X487000Y49740D02*
X490000Y52740D01*
Y243740D01*
X70500Y47740D02*
X72500Y49740D01*
X70500Y15740D02*
Y47740D01*
X490000Y326240D02*
X494000Y330240D01*
X490000Y243740D02*
Y326240D01*
X495031Y444917D02*
X500000Y440264D01*
X491000Y410714D02*
X491026Y410740D01*
X497130Y410370D02*
X500000Y413240D01*
Y440264D01*
X471409Y444831D02*
X477000Y439240D01*
X471409Y444831D02*
Y444917D01*
X477000Y413240D02*
Y439240D01*
X478000Y52240D02*
X480000Y54240D01*
Y243740D01*
X65551Y50291D02*
X67500Y52240D01*
X65551Y20748D02*
Y50291D01*
X482500Y246240D02*
Y339740D01*
X480000Y243740D02*
X482500Y246240D01*
X461500Y54740D02*
X464000Y57240D01*
Y111740D01*
X460500Y115240D02*
X464000Y111740D01*
X140000Y52740D02*
X142000Y54740D01*
X140000Y15197D02*
Y52740D01*
X135551Y10748D02*
X140000Y15197D01*
X456500Y57240D02*
X459000Y59740D01*
Y110240D01*
X447500Y121740D02*
X459000Y110240D01*
X125500Y55740D02*
X127000Y57240D01*
X125500Y20799D02*
Y55740D01*
Y20799D02*
X125551Y20748D01*
X417000Y59740D02*
X418500Y61240D01*
Y108740D01*
X434000Y124240D01*
X131000Y58240D02*
X132500Y59740D01*
X131000Y16197D02*
Y58240D01*
X125551Y10748D02*
X131000Y16197D01*
X412000Y62240D02*
X413500Y63740D01*
Y109240D01*
X420500Y116240D01*
X115500Y60740D02*
X117000Y62240D01*
X115500Y20799D02*
Y60740D01*
Y20799D02*
X115551Y20748D01*
X405000Y69740D02*
X407000Y71740D01*
X120500Y67740D02*
X122500Y69740D01*
X120500Y15697D02*
Y67740D01*
X115551Y10748D02*
X120500Y15697D01*
X197500Y83740D02*
X199000Y82240D01*
X260500D02*
X262717Y80023D01*
Y20748D02*
Y80023D01*
X207500Y76240D02*
X209000Y74740D01*
X207500Y76240D02*
Y243740D01*
X266000Y74740D02*
X268000Y72740D01*
Y16031D02*
Y72740D01*
X262717Y10748D02*
X268000Y16031D01*
X172000Y356340D02*
Y361740D01*
X171250Y362490D02*
X172000Y361740D01*
X217500Y79240D02*
X219500Y77240D01*
X251000D02*
X253000Y75240D01*
Y21031D02*
Y75240D01*
X252717Y20748D02*
X253000Y21031D01*
X275500Y92740D02*
X277500Y90740D01*
Y15531D02*
Y90740D01*
X272717Y10748D02*
X277500Y15531D01*
X177000Y356340D02*
Y362990D01*
X176250Y363740D02*
X177000Y362990D01*
X169500Y449740D02*
X171315Y447925D01*
X151500Y449740D02*
X169500D01*
X149500Y447740D02*
X151500Y449740D01*
X153000Y438740D02*
X153012D01*
X159504Y444917D01*
X151000Y436740D02*
X153000Y438740D01*
X151000Y363990D02*
Y436740D01*
X157500Y356340D02*
Y361865D01*
X156125Y363240D02*
X157500Y361865D01*
X154000Y363240D02*
X156125D01*
X159504Y432712D02*
Y433244D01*
X152500Y426240D02*
X159504Y433244D01*
X152500Y364740D02*
Y426240D01*
Y364740D02*
X154000Y363240D01*
X162500Y356340D02*
Y363740D01*
X161500Y364740D02*
X162500Y363740D01*
X155000Y364740D02*
X161500D01*
X201500Y439984D02*
X206748Y444917D01*
X201500Y430240D02*
Y439984D01*
X199000Y427740D02*
X201500Y430240D01*
X156000Y427740D02*
X199000D01*
X154000Y425740D02*
X156000Y427740D01*
X154000Y365740D02*
Y425740D01*
Y365740D02*
X155000Y364740D01*
X197500Y322615D02*
X197750Y322865D01*
X162500Y86740D02*
X164500Y84740D01*
X246000D02*
X248000Y82740D01*
Y15464D02*
Y82740D01*
Y15464D02*
X252717Y10748D01*
X171000Y77240D02*
X172500Y78740D01*
X150500Y75240D02*
X152500Y77240D01*
X150500Y15240D02*
Y75240D01*
X146008Y10748D02*
X150500Y15240D01*
X145551Y10748D02*
X146008D01*
X181000Y74740D02*
X182500Y76240D01*
X135551Y73291D02*
X137000Y74740D01*
X135551Y20748D02*
Y73291D01*
X152500Y88740D02*
X154000Y87240D01*
X271000D02*
X272717Y85523D01*
Y20748D02*
Y85523D01*
X113126Y446866D02*
X116000Y449740D01*
X129000Y343240D02*
X131500Y345740D01*
X116000Y449740D02*
X128500D01*
X131500Y446740D01*
Y345740D02*
Y446740D01*
X85500Y20799D02*
X85551Y20748D01*
X85500Y20799D02*
Y92240D01*
X87500Y94240D01*
X98000D01*
X100000Y96240D01*
X116125Y277915D02*
X116126Y277914D01*
X112500Y76240D02*
X120000D01*
X122000Y78240D01*
X110500Y74240D02*
X112500Y76240D01*
X110500Y15697D02*
Y74240D01*
X105551Y10748D02*
X110500Y15697D01*
X116126Y256114D02*
X122000Y250240D01*
X100500Y15697D02*
Y75740D01*
X102000Y77240D01*
X128500D02*
X130000Y78740D01*
Y238240D01*
X133000Y241240D01*
X95551Y10748D02*
X100500Y15697D01*
X124937Y444917D02*
X129500Y440669D01*
X128000Y345240D02*
X129500Y346740D01*
Y440669D01*
X96875Y305615D02*
X125625D01*
X96125Y306365D02*
X96875Y305615D01*
X96125Y306365D02*
Y313752D01*
X125625Y327025D02*
Y337490D01*
X124375Y338740D02*
X125625Y337490D01*
X108125Y338740D02*
X124375D01*
X106250Y336865D02*
X108125Y338740D01*
X106250Y333740D02*
Y336865D01*
X332500Y79740D02*
X334000Y81240D01*
Y110240D01*
X325000Y119240D02*
X334000Y110240D01*
X90500Y78240D02*
X92000Y79740D01*
X90500Y15697D02*
Y78240D01*
X85551Y10748D02*
X90500Y15697D01*
X338125Y277165D02*
X338126Y277164D01*
Y249614D02*
Y277164D01*
X338500Y77240D02*
X340000Y78740D01*
X288000Y75240D02*
X290000Y77240D01*
X288000Y16031D02*
Y75240D01*
X282717Y10748D02*
X288000Y16031D01*
X338126Y249614D02*
X340000Y247740D01*
X343125Y277165D02*
X343126Y277164D01*
X353500Y74740D02*
X355000Y76240D01*
X298000Y72740D02*
X300000Y74740D01*
X298000Y16031D02*
Y72740D01*
X292717Y10748D02*
X298000Y16031D01*
X249008Y445232D02*
X249032Y444917D01*
X254000Y440240D02*
X346500D01*
X349500Y437240D01*
X335000Y409340D02*
Y413740D01*
X336000Y414740D01*
X346500D01*
X349500Y417740D01*
Y437240D01*
X341000Y409340D02*
Y412340D01*
X341900Y413240D01*
X348000D01*
X351000Y416240D01*
Y439240D01*
X350000Y440240D02*
X351000Y439240D01*
X334346Y445232D02*
X350008D01*
X352500Y442740D01*
X347000Y409340D02*
Y410740D01*
X348000Y411740D01*
X349500D01*
X352500Y414740D01*
Y442740D01*
X350600Y333240D02*
X354500D01*
X247500Y89740D02*
X249000Y91240D01*
X75551Y87291D02*
X78000Y89740D01*
X75551Y20748D02*
Y87291D01*
X282717Y20748D02*
Y235023D01*
X292717Y106957D02*
X304000Y118240D01*
X292717Y20748D02*
Y106957D01*
X303974Y239257D02*
X304000D01*
X300000Y277240D02*
X300626Y277866D01*
X225500Y92240D02*
X228000Y89740D01*
Y15464D02*
Y89740D01*
Y15464D02*
X232717Y10748D01*
X32125Y431990D02*
X32250D01*
X25500Y445740D02*
X31500D01*
X192500Y321990D02*
X193250Y322740D01*
X347500Y305615D02*
X348125Y306240D01*
X318750Y305615D02*
X347500D01*
X318125Y306240D02*
X318750Y305615D01*
X231000Y67240D02*
X232717Y65523D01*
Y20748D02*
Y65523D01*
X236000Y64740D02*
X237500Y63240D01*
Y15964D02*
Y63240D01*
Y15964D02*
X242717Y10748D01*
X587500Y168240D02*
Y173740D01*
X550374Y352114D02*
X550500Y352240D01*
X546100Y352114D02*
X550374D01*
X290500Y279240D02*
X290626Y279366D01*
X263126Y279614D02*
X263500Y279240D01*
X235500D02*
X235626Y279366D01*
X66500Y263240D02*
X66626Y263366D01*
Y267640D01*
X501000Y388240D02*
X502250Y389490D01*
X496500Y393740D02*
Y393766D01*
X481000Y388740D02*
X481500Y389240D01*
X473500Y389740D02*
X476000Y392240D01*
Y394266D01*
X587500Y128240D02*
Y133740D01*
X505500Y365240D02*
Y369514D01*
X492500Y365740D02*
Y370266D01*
X487000Y365740D02*
Y370610D01*
X468500Y365740D02*
Y369514D01*
X491000Y390240D02*
X492000Y389240D01*
X491000Y390240D02*
Y394014D01*
X471500Y389740D02*
X473500D01*
X470500Y390740D02*
X471500Y389740D01*
X470500Y390740D02*
Y394014D01*
X264500Y268714D02*
Y273240D01*
X291500Y268714D02*
Y273240D01*
X236500Y268714D02*
Y272740D01*
X561000Y34740D02*
X562500Y36240D01*
Y243740D01*
X307500Y32740D02*
X309500Y34740D01*
X307500Y15464D02*
Y32740D01*
X302717Y10748D02*
X307500Y15464D01*
X562500Y243740D02*
Y248740D01*
X560000Y251240D02*
X562500Y248740D01*
X546000Y400240D02*
X548874D01*
Y392340D02*
Y400240D01*
X574500Y31240D02*
Y183240D01*
X573000Y29740D02*
X574500Y31240D01*
Y183240D02*
X590000Y198740D01*
Y243740D01*
X317500Y27740D02*
X319500Y29740D01*
X317500Y15531D02*
Y27740D01*
X312717Y10748D02*
X317500Y15531D01*
X585000Y248740D02*
X590000Y243740D01*
X585000Y248740D02*
Y251240D01*
X568500Y32240D02*
X570000Y33740D01*
Y187740D01*
X577500Y195240D01*
Y243740D01*
X302717Y30457D02*
X304500Y32240D01*
X302717Y20748D02*
Y30457D01*
X572500Y248740D02*
X577500Y243740D01*
X572500Y248740D02*
Y251240D01*
X312717Y37457D02*
X315000Y39740D01*
X312717Y20748D02*
Y37457D01*
X392000Y72240D02*
X393500Y73740D01*
X105500Y70740D02*
X107000Y72240D01*
X105500Y20799D02*
Y70740D01*
Y20799D02*
X105551Y20748D01*
D18*
X453009Y214141D02*
D03*
X460489D02*
D03*
X456749Y223589D02*
D03*
X412884Y214141D02*
D03*
X420364D02*
D03*
X416624Y223589D02*
D03*
X439634Y214141D02*
D03*
X447114D02*
D03*
X443374Y223589D02*
D03*
X399509Y214141D02*
D03*
X406989D02*
D03*
X403249Y223589D02*
D03*
X426259Y214141D02*
D03*
X433739D02*
D03*
X429999Y223589D02*
D03*
X386134Y214141D02*
D03*
X393614D02*
D03*
X389874Y223589D02*
D03*
X241885Y262141D02*
D03*
X249365D02*
D03*
X245625Y271589D02*
D03*
X270010Y262141D02*
D03*
X277490D02*
D03*
X273750Y271589D02*
D03*
X296885Y262141D02*
D03*
X304365D02*
D03*
X300625Y271589D02*
D03*
X72510Y266516D02*
D03*
X79990D02*
D03*
X76250Y275964D02*
D03*
D19*
X543126Y368268D02*
D03*
X546866Y359212D02*
D03*
X539386D02*
D03*
D20*
X233553Y379365D02*
D03*
Y399365D02*
D03*
D21*
X194971Y389365D02*
D03*
D22*
X539313Y467867D02*
D03*
X590887Y463142D02*
D03*
D23*
X562147Y411961D02*
D03*
X584588D02*
D03*
D24*
X579116Y411076D02*
D03*
D25*
X574785Y454717D02*
D03*
X579116Y455505D02*
D03*
X583447Y454717D02*
D03*
X587777D02*
D03*
X570454Y455800D02*
D03*
X566124Y454717D02*
D03*
X561793Y453142D02*
D03*
X557462Y454717D02*
D03*
D26*
X459505Y230398D02*
D03*
X453993D02*
D03*
X413868Y230398D02*
D03*
X419380D02*
D03*
X459505Y198000D02*
D03*
X453993D02*
D03*
X419380D02*
D03*
X413868D02*
D03*
X446130Y230398D02*
D03*
X440618D02*
D03*
X400493Y230398D02*
D03*
X406005D02*
D03*
X446130Y198000D02*
D03*
X440618D02*
D03*
X406005D02*
D03*
X400493D02*
D03*
X432755Y230398D02*
D03*
X427243D02*
D03*
X387118Y230398D02*
D03*
X392630D02*
D03*
X432755Y198000D02*
D03*
X427243D02*
D03*
X392630D02*
D03*
X387118D02*
D03*
X203118Y322240D02*
D03*
X208630D02*
D03*
X203244Y328950D02*
D03*
X208756D02*
D03*
X159744Y325000D02*
D03*
X165256D02*
D03*
X159744Y330000D02*
D03*
X165256D02*
D03*
X242744Y277114D02*
D03*
X248256D02*
D03*
X248756Y255332D02*
D03*
X243244D02*
D03*
X270744Y277114D02*
D03*
X276256D02*
D03*
X276756Y255332D02*
D03*
X271244D02*
D03*
X298244Y277240D02*
D03*
X303756D02*
D03*
X303756Y255332D02*
D03*
X298244D02*
D03*
X244756Y385740D02*
D03*
X239244D02*
D03*
X78882Y255240D02*
D03*
X73370D02*
D03*
X64744Y313609D02*
D03*
X70256D02*
D03*
X453993Y204710D02*
D03*
X459505D02*
D03*
X413868D02*
D03*
X419380D02*
D03*
X440618D02*
D03*
X446130D02*
D03*
X400493D02*
D03*
X406005D02*
D03*
X427243D02*
D03*
X432755D02*
D03*
X387118D02*
D03*
X392630D02*
D03*
X545756Y352114D02*
D03*
X540244D02*
D03*
X327370Y324740D02*
D03*
X332882D02*
D03*
X332370Y330240D02*
D03*
X337882D02*
D03*
X350256Y333240D02*
D03*
X344744D02*
D03*
X244756Y391240D02*
D03*
X239244D02*
D03*
X78882Y260740D02*
D03*
X73370D02*
D03*
D27*
X172000Y355996D02*
D03*
Y350484D02*
D03*
X177000Y355996D02*
D03*
Y350484D02*
D03*
X157500Y355996D02*
D03*
Y350484D02*
D03*
X162500Y355996D02*
D03*
Y350484D02*
D03*
X505500Y369858D02*
D03*
Y375370D02*
D03*
Y380858D02*
D03*
Y386370D02*
D03*
X487000Y370610D02*
D03*
Y376122D02*
D03*
Y380858D02*
D03*
Y386370D02*
D03*
X491000Y394358D02*
D03*
Y399870D02*
D03*
Y404858D02*
D03*
Y410370D02*
D03*
X468500Y369858D02*
D03*
Y375370D02*
D03*
Y380358D02*
D03*
Y385870D02*
D03*
X470500Y394358D02*
D03*
Y399870D02*
D03*
Y404858D02*
D03*
Y410370D02*
D03*
X335000Y408996D02*
D03*
Y403484D02*
D03*
X341000Y408996D02*
D03*
Y403484D02*
D03*
X347000Y408996D02*
D03*
Y403484D02*
D03*
X66626Y273496D02*
D03*
Y267984D02*
D03*
X21800Y366456D02*
D03*
Y360944D02*
D03*
X570374Y386484D02*
D03*
Y391996D02*
D03*
X542874Y386484D02*
D03*
Y391996D02*
D03*
X557126Y391996D02*
D03*
Y386484D02*
D03*
X548874Y386484D02*
D03*
Y391996D02*
D03*
X575874Y386484D02*
D03*
Y391996D02*
D03*
X536874Y386484D02*
D03*
Y391996D02*
D03*
X236500Y262858D02*
D03*
Y268370D02*
D03*
X264500Y262858D02*
D03*
Y268370D02*
D03*
X291500Y262858D02*
D03*
Y268370D02*
D03*
X35706Y360944D02*
D03*
Y366456D02*
D03*
D28*
X208568Y356521D02*
D03*
Y344709D02*
D03*
D29*
X208371Y350615D02*
D03*
D30*
X529749Y413740D02*
D03*
Y410000D02*
D03*
Y406260D02*
D03*
X520300D02*
D03*
Y410000D02*
D03*
Y413740D02*
D03*
D31*
X96125Y277728D02*
D03*
X101125D02*
D03*
X106125D02*
D03*
X111125D02*
D03*
X116125D02*
D03*
X121125D02*
D03*
X126125D02*
D03*
X131125D02*
D03*
X96125Y313752D02*
D03*
X101125D02*
D03*
X106125D02*
D03*
X111125D02*
D03*
X116125D02*
D03*
X121125D02*
D03*
X126125D02*
D03*
X131125D02*
D03*
X227500Y313627D02*
D03*
X222500D02*
D03*
X217500D02*
D03*
X212500D02*
D03*
X207500D02*
D03*
X202500D02*
D03*
X197500D02*
D03*
X192500D02*
D03*
X227500Y277603D02*
D03*
X222500D02*
D03*
X217500D02*
D03*
X212500D02*
D03*
X207500D02*
D03*
X202500D02*
D03*
X197500D02*
D03*
X192500D02*
D03*
X185000Y313627D02*
D03*
X180000D02*
D03*
X175000D02*
D03*
X170000D02*
D03*
X165000D02*
D03*
X160000D02*
D03*
X155000D02*
D03*
X150000D02*
D03*
X185000Y277603D02*
D03*
X180000D02*
D03*
X175000D02*
D03*
X170000D02*
D03*
X165000D02*
D03*
X160000D02*
D03*
X155000D02*
D03*
X150000D02*
D03*
D32*
X121250Y354370D02*
D03*
X116250D02*
D03*
X111250D02*
D03*
X106250D02*
D03*
X121250Y333110D02*
D03*
X116250D02*
D03*
X111250D02*
D03*
X106250D02*
D03*
D33*
X101594Y388558D02*
D03*
X113406D02*
D03*
X341530Y362047D02*
D03*
X329719D02*
D03*
D34*
X107500Y388361D02*
D03*
X335625Y362244D02*
D03*
D35*
X318125Y277274D02*
D03*
X323125D02*
D03*
X328125D02*
D03*
X333125D02*
D03*
X338125D02*
D03*
X343125D02*
D03*
X348125D02*
D03*
X353125D02*
D03*
X318125Y312706D02*
D03*
X323125D02*
D03*
X328125D02*
D03*
X333125D02*
D03*
X338125D02*
D03*
X343125D02*
D03*
X348125D02*
D03*
X353125D02*
D03*
D36*
X245500Y331508D02*
D03*
Y364972D02*
D03*
X273000Y331508D02*
D03*
Y364972D02*
D03*
X300500Y331508D02*
D03*
Y364972D02*
D03*
D37*
X435000Y365941D02*
D03*
Y353441D02*
D03*
X389000Y413315D02*
D03*
Y400815D02*
D03*
X415000Y378315D02*
D03*
Y365815D02*
D03*
X376000Y413315D02*
D03*
Y400815D02*
D03*
X402000Y413441D02*
D03*
Y400941D02*
D03*
X363000Y413315D02*
D03*
Y400815D02*
D03*
X222500Y419665D02*
D03*
Y432165D02*
D03*
X264500Y419165D02*
D03*
Y431665D02*
D03*
X307000Y419165D02*
D03*
Y431665D02*
D03*
D38*
X224646Y322800D02*
D03*
X230354D02*
D03*
X565000Y375600D02*
D03*
X559291D02*
D03*
X74228Y395740D02*
D03*
X68520D02*
D03*
X221772Y269740D02*
D03*
X227480D02*
D03*
X179772D02*
D03*
X185480D02*
D03*
X223354Y344866D02*
D03*
X217646D02*
D03*
X180272Y322740D02*
D03*
X185980D02*
D03*
X554146Y403366D02*
D03*
X559854D02*
D03*
X101854Y268164D02*
D03*
X96146D02*
D03*
X102980Y323240D02*
D03*
X97272D02*
D03*
X115854Y362359D02*
D03*
X110146D02*
D03*
X107228Y402240D02*
D03*
X101520D02*
D03*
X107228Y396240D02*
D03*
X101520D02*
D03*
X347646Y268740D02*
D03*
X353354D02*
D03*
X317772D02*
D03*
X323480D02*
D03*
X347146Y324000D02*
D03*
X352854D02*
D03*
X335772Y353740D02*
D03*
X341480D02*
D03*
X335520Y348240D02*
D03*
X341228D02*
D03*
X22146Y268901D02*
D03*
X27854D02*
D03*
X22146Y321099D02*
D03*
X27854D02*
D03*
X47146D02*
D03*
X52854D02*
D03*
X73980Y389240D02*
D03*
X68272D02*
D03*
D39*
X29872Y334128D02*
D03*
X38928D02*
D03*
X29872Y350072D02*
D03*
X38928D02*
D03*
D40*
X540008Y377240D02*
D03*
X550244D02*
D03*
D41*
X470677Y312240D02*
D03*
Y322240D02*
D03*
Y332240D02*
D03*
X446071Y312240D02*
D03*
Y322240D02*
D03*
Y332240D02*
D03*
X375823Y277240D02*
D03*
Y267240D02*
D03*
Y257240D02*
D03*
X400429Y277240D02*
D03*
Y267240D02*
D03*
Y257240D02*
D03*
X470429Y284740D02*
D03*
Y294740D02*
D03*
Y304740D02*
D03*
X445823Y284740D02*
D03*
Y294740D02*
D03*
Y304740D02*
D03*
X376071D02*
D03*
Y294740D02*
D03*
Y284740D02*
D03*
X400677Y304740D02*
D03*
Y294740D02*
D03*
Y284740D02*
D03*
X470929Y257240D02*
D03*
Y267240D02*
D03*
Y277240D02*
D03*
X446323Y257240D02*
D03*
Y267240D02*
D03*
Y277240D02*
D03*
X376071Y332240D02*
D03*
Y322240D02*
D03*
Y312240D02*
D03*
X400677Y332240D02*
D03*
Y322240D02*
D03*
Y312240D02*
D03*
D42*
X235626Y283437D02*
D03*
X245626D02*
D03*
X255626D02*
D03*
X235626Y308043D02*
D03*
X245626D02*
D03*
X255626D02*
D03*
X263126Y283437D02*
D03*
X273126D02*
D03*
X283126D02*
D03*
X263126Y308043D02*
D03*
X273126D02*
D03*
X283126D02*
D03*
X290626Y283437D02*
D03*
X300626D02*
D03*
X310626D02*
D03*
X290626Y308043D02*
D03*
X300626D02*
D03*
X310626D02*
D03*
D43*
X57500Y313307D02*
D03*
X52500D02*
D03*
X47500D02*
D03*
X42500D02*
D03*
X37500D02*
D03*
X32500D02*
D03*
X27500D02*
D03*
X22500D02*
D03*
X57500Y276693D02*
D03*
X52500D02*
D03*
X47500D02*
D03*
X42500D02*
D03*
X37500D02*
D03*
X32500D02*
D03*
X27500D02*
D03*
X22500D02*
D03*
D44*
X66710Y284065D02*
D03*
X76710D02*
D03*
X66710Y305915D02*
D03*
X76710D02*
D03*
D45*
X62500Y354350D02*
D03*
D46*
X53524Y376201D02*
D03*
X71476D02*
D03*
D47*
X170391Y344660D02*
D03*
Y335802D02*
D03*
X178281Y344660D02*
D03*
Y335802D02*
D03*
X154609Y344660D02*
D03*
Y335802D02*
D03*
X162500Y344660D02*
D03*
Y335802D02*
D03*
X333000Y397629D02*
D03*
Y388771D02*
D03*
X340191Y397660D02*
D03*
Y388802D02*
D03*
X347381Y397660D02*
D03*
Y388802D02*
D03*
D48*
X517000Y368224D02*
D03*
Y377004D02*
D03*
X498125Y369224D02*
D03*
Y378004D02*
D03*
X502250Y391974D02*
D03*
Y400754D02*
D03*
X479750Y368474D02*
D03*
Y377254D02*
D03*
X481500Y392724D02*
D03*
Y401504D02*
D03*
D50*
X218000Y351012D02*
D03*
Y356720D02*
D03*
X223500Y351012D02*
D03*
Y356720D02*
D03*
X511000Y370012D02*
D03*
Y375720D02*
D03*
X528500Y431012D02*
D03*
Y436720D02*
D03*
X492500Y370512D02*
D03*
Y376220D02*
D03*
X496500Y394012D02*
D03*
Y399720D02*
D03*
X508000Y411968D02*
D03*
Y406260D02*
D03*
X513000Y411968D02*
D03*
Y406260D02*
D03*
X474000Y370012D02*
D03*
Y375720D02*
D03*
X476000Y394512D02*
D03*
Y400220D02*
D03*
X113500Y402594D02*
D03*
Y396886D02*
D03*
X329626Y347886D02*
D03*
Y353594D02*
D03*
X28800Y366554D02*
D03*
Y360846D02*
D03*
X53000Y387260D02*
D03*
Y392968D02*
D03*
D91*
X197500Y243740D02*
D03*
X217500D02*
D03*
X207500D02*
D03*
X227500D02*
D03*
X162500D02*
D03*
X182500D02*
D03*
X152500D02*
D03*
X172500D02*
D03*
X133000D02*
D03*
X111000D02*
D03*
X122000D02*
D03*
X100000D02*
D03*
X45000D02*
D03*
X34500D02*
D03*
X460500Y166740D02*
D03*
X420500D02*
D03*
X447500D02*
D03*
X407000D02*
D03*
X434000D02*
D03*
X393500D02*
D03*
X500000Y243740D02*
D03*
X490000D02*
D03*
X520000D02*
D03*
X510000D02*
D03*
X480000D02*
D03*
X590000D02*
D03*
X577500D02*
D03*
X562500D02*
D03*
X547500D02*
D03*
X532500D02*
D03*
X340000D02*
D03*
X325000D02*
D03*
X355000D02*
D03*
X249000D02*
D03*
X277000D02*
D03*
X304000D02*
D03*
X59000D02*
D03*
X62500Y320217D02*
D03*
X25500Y445740D02*
D03*
D92*
X582988Y71831D02*
D03*
X19685Y137795D02*
D03*
X594488Y354331D02*
D03*
X376075Y462240D02*
D03*
X418177D02*
D03*
X167976D02*
D03*
X198276D02*
D03*
X468075D02*
D03*
X510177D02*
D03*
X113126D02*
D03*
X243126D02*
D03*
X285626D02*
D03*
X328126D02*
D03*
X58126D02*
D03*
D93*
X587500Y133740D02*
D03*
Y173740D02*
D03*
X263000Y380000D02*
D03*
X39000Y412740D02*
D03*
X25000D02*
D03*
D94*
X32250Y427677D02*
D03*
X28510Y419803D02*
D03*
X35990D02*
D03*
D95*
X39000Y382300D02*
Y412740D01*
X35706Y379007D02*
X39000Y382300D01*
X35706Y366456D02*
Y379007D01*
X17642Y353157D02*
X20728Y350072D01*
X29872D01*
X17642Y353157D02*
Y365500D01*
X18598Y366456D01*
X21800D01*
Y368800D01*
X36800Y383800D01*
X40400Y358400D02*
Y365400D01*
X38928Y356928D02*
X40400Y358400D01*
X38928Y350072D02*
Y356928D01*
X39344Y366456D02*
X40400Y365400D01*
X35706Y366456D02*
X39344D01*
X36800Y383800D02*
Y400940D01*
X25000Y412740D02*
X36800Y400940D01*
X58468Y439000D02*
X64028Y433441D01*
X31000Y439000D02*
X58468D01*
X24510Y432510D02*
X31000Y439000D01*
X24510Y424000D02*
Y432510D01*
Y424000D02*
X28510Y420000D01*
Y419803D02*
Y420000D01*
X27046Y418142D02*
X27369Y417820D01*
Y415108D02*
Y417820D01*
X28510Y419606D02*
Y419803D01*
X27046Y418142D02*
X28510Y419606D01*
X25000Y412740D02*
X27369Y415108D01*
X39000Y412740D02*
Y416596D01*
X35990Y419606D02*
X39000Y416596D01*
X35990Y419606D02*
Y419803D01*
X38587D01*
X52224Y433441D01*
X252717Y379957D02*
X252760Y380000D01*
X263000D01*
X250145Y379957D02*
X252717D01*
X244756Y385346D02*
X250145Y379957D01*
X244756Y385346D02*
Y385740D01*
X233553Y381733D02*
X235707Y383887D01*
X237785D01*
X233553Y379365D02*
Y381733D01*
X237785Y383887D02*
X239244Y385346D01*
Y385740D01*
Y391240D01*
D96*
X376000Y375240D02*
Y400815D01*
Y375240D02*
X415700Y335540D01*
X400677Y332240D02*
X411160D01*
X363000Y380400D02*
X411160Y332240D01*
X363000Y380400D02*
Y400815D01*
X415700Y307540D02*
Y335540D01*
X412900Y304740D02*
X415700Y307540D01*
X400677Y304740D02*
X412900D01*
X414827Y433441D02*
X415000Y433268D01*
Y378315D02*
Y433268D01*
X421200Y439814D02*
X426626Y445240D01*
X421200Y363200D02*
Y439814D01*
X113406Y391320D02*
X113500Y391415D01*
Y396886D01*
X113406Y388558D02*
Y391320D01*
X101594Y388558D02*
Y393895D01*
X101520Y393970D02*
X101594Y393895D01*
X101520Y393970D02*
Y396240D01*
Y402240D01*
Y433299D01*
X101378Y433441D02*
X101520Y433299D01*
X101378Y433441D02*
X113126D01*
X414831Y365798D02*
X415000Y364043D01*
X506500Y446240D02*
X507000D01*
X506843Y444917D02*
Y446083D01*
X483220Y432712D02*
Y445960D01*
X459500Y440803D02*
Y446740D01*
X459598Y432712D02*
Y444917D01*
X402000Y364740D02*
Y400941D01*
X408900Y368464D02*
X411549Y365815D01*
X415000D01*
X408900Y368464D02*
Y439313D01*
X414827Y445240D01*
X421200Y363200D02*
X430959Y353441D01*
X435000D01*
Y341244D02*
Y353441D01*
Y341244D02*
X444004Y332240D01*
X446071D01*
X529749Y410000D02*
Y413740D01*
Y415321D02*
X533000Y418572D01*
Y434490D01*
X529749Y413740D02*
Y415321D01*
X530770Y436720D02*
X533000Y434490D01*
X528500Y436720D02*
X530770D01*
X300626Y308043D02*
Y313614D01*
Y307551D02*
Y308043D01*
X273126D02*
Y312866D01*
Y307551D02*
Y308043D01*
X245626D02*
Y314366D01*
Y307551D02*
Y308043D01*
X71476Y382309D02*
X73980Y384813D01*
X71476Y376201D02*
Y382309D01*
X73980Y384813D02*
Y389240D01*
Y391510D02*
X74228Y391758D01*
X73980Y389240D02*
Y391510D01*
X74228Y391758D02*
Y395740D01*
Y435039D01*
X64028Y445240D02*
X74228Y435039D01*
X397059Y400941D02*
X402000D01*
X395500Y402500D02*
X397059Y400941D01*
X395500Y402500D02*
Y421240D01*
X372185Y400815D02*
X376000D01*
X369500Y403500D02*
X372185Y400815D01*
X369500Y403500D02*
Y426240D01*
X402000Y413441D02*
Y421000D01*
X403028Y422028D01*
Y433441D01*
X389000Y413315D02*
Y422000D01*
X391224Y424224D01*
Y433441D01*
X376000Y413315D02*
Y424000D01*
X379425Y427425D01*
Y433441D01*
X363000Y413315D02*
Y428815D01*
X367626Y433441D01*
X395500Y421240D02*
X397000Y422740D01*
X385185Y400815D02*
X389000D01*
X382500Y403500D02*
X385185Y400815D01*
X382500Y403500D02*
Y422240D01*
X359185Y400815D02*
X363000D01*
X356500Y403500D02*
X359185Y400815D01*
X356500Y403500D02*
Y434134D01*
X400185Y332240D02*
X400677D01*
X400185Y304740D02*
X400677D01*
X400429Y277240D02*
X417000D01*
X399937D02*
X400429D01*
X446323D02*
X446815D01*
X428500D02*
X446323D01*
X445823Y304740D02*
X446315D01*
X431500D02*
X445823D01*
X389000Y369740D02*
Y400815D01*
X506843Y446083D02*
X507000Y446240D01*
X483220Y445960D02*
X483500Y446240D01*
X459500Y440803D02*
X459598Y444917D01*
X459500Y446740D02*
X464500Y451740D01*
X478500D01*
X483500Y446740D01*
Y446240D02*
Y446740D01*
Y446240D02*
X489000Y451740D01*
X501000D01*
X506500Y446240D01*
X507000D02*
X512500Y451740D01*
X526500D01*
X528500Y449740D01*
Y436966D02*
Y449740D01*
X431500Y375740D02*
X435000Y372240D01*
Y367811D02*
Y372240D01*
X415000Y358740D02*
Y364043D01*
Y358740D02*
X430500Y343240D01*
Y305740D02*
Y343240D01*
Y305740D02*
X431500Y304740D01*
X397000Y439201D02*
X403032Y444917D01*
X402000Y364740D02*
X425500Y341240D01*
X397000Y422740D02*
Y439201D01*
X425500Y280240D02*
Y341240D01*
Y280240D02*
X428500Y277240D01*
X385500Y439512D02*
X391220Y444917D01*
X389000Y369740D02*
X392000Y366740D01*
X382500Y422240D02*
X385500Y425240D01*
X392000Y366740D02*
X420500Y337740D01*
X385500Y425240D02*
Y439512D01*
X420500Y280740D02*
Y337740D01*
X417000Y277240D02*
X420500Y280740D01*
X373500Y439323D02*
X379409Y444917D01*
X369500Y426240D02*
X373500Y430240D01*
Y439323D01*
X356500Y434134D02*
X367598Y444917D01*
X528500Y426240D02*
Y430766D01*
D97*
X227227Y433441D02*
X237224D01*
X225951Y432165D02*
X227227Y433441D01*
X222500Y432165D02*
X225951D01*
X269727Y433441D02*
X279724D01*
X267951Y431665D02*
X269727Y433441D01*
X264500Y431665D02*
X267951D01*
X312227Y433441D02*
X322224D01*
X310451Y431665D02*
X312227Y433441D01*
X307000Y431665D02*
X310451D01*
D98*
X562047Y419347D02*
X562200Y419194D01*
X559854Y399886D02*
X560500Y399240D01*
X559854Y399886D02*
Y403366D01*
X579116Y405624D02*
Y411076D01*
Y405624D02*
X579250Y405490D01*
X584588Y411961D02*
Y418812D01*
X584200Y419200D02*
X584588Y418812D01*
X562047Y415218D02*
Y419347D01*
Y415218D02*
X562147Y415117D01*
Y411961D02*
Y415117D01*
X590887Y463142D02*
X596597D01*
X596750Y462990D01*
D99*
X513000Y406260D02*
X527183D01*
X53262Y386983D02*
X53293Y387014D01*
X527183Y406260D02*
X527184Y406260D01*
X529749D01*
X508000Y406260D02*
X513000D01*
X508000Y400740D02*
X511000Y397740D01*
X508000Y400740D02*
Y406260D01*
X520300Y410000D02*
Y413740D01*
X517042D02*
X520300D01*
X515270Y411968D02*
X517042Y413740D01*
X513000Y411968D02*
X515270D01*
X508000D02*
X513000D01*
X508000D02*
Y418000D01*
X53000Y382833D02*
X53524Y382309D01*
Y376201D02*
Y382309D01*
X53000Y382833D02*
Y387260D01*
X53293Y387014D02*
X53494D01*
X528500Y436966D02*
X528601Y436865D01*
X53262Y377663D02*
X53494Y377431D01*
D100*
X208568Y356521D02*
X220070D01*
X220270Y356720D02*
X223500D01*
X218000D02*
X220270D01*
X220070Y356521D02*
X220270Y356720D01*
X215613Y344709D02*
X215769Y344866D01*
X208568Y344709D02*
X215613D01*
X215769Y344866D02*
X217646D01*
D101*
X341228Y350510D02*
X341480Y350762D01*
X341228Y348240D02*
Y350510D01*
X341480Y350762D02*
Y353740D01*
Y356010D02*
X341530Y356060D01*
X341480Y353740D02*
Y356010D01*
X341530Y356060D02*
Y362047D01*
X329626Y355471D02*
X329719Y355564D01*
Y362047D01*
X329626Y353594D02*
Y355471D01*
D102*
X593900Y40700D02*
Y41366D01*
Y41033D01*
X591901D01*
X592234Y40700D01*
D103*
X426626Y433441D02*
D03*
X391224D02*
D03*
X426626Y445240D02*
D03*
X391224D02*
D03*
X403028Y433441D02*
D03*
X414827D02*
D03*
X379425D02*
D03*
X367626D02*
D03*
X403028Y445240D02*
D03*
X414827D02*
D03*
X379425D02*
D03*
X367626D02*
D03*
X206724Y433441D02*
D03*
X183126D02*
D03*
X159528D02*
D03*
X206724Y445240D02*
D03*
X183126D02*
D03*
X159528D02*
D03*
X194874Y433441D02*
D03*
X171378D02*
D03*
X194874Y445240D02*
D03*
X171378D02*
D03*
X518626Y433441D02*
D03*
X483224D02*
D03*
X518626Y445240D02*
D03*
X483224D02*
D03*
X495028Y433441D02*
D03*
X506827D02*
D03*
X471425D02*
D03*
X459626D02*
D03*
X495028Y445240D02*
D03*
X506827D02*
D03*
X471425D02*
D03*
X459626D02*
D03*
X101378Y433441D02*
D03*
X113126D02*
D03*
X124874D02*
D03*
Y445240D02*
D03*
X113126D02*
D03*
X101378D02*
D03*
X237224Y433441D02*
D03*
X249028D02*
D03*
Y445240D02*
D03*
X237224D02*
D03*
X279724Y433441D02*
D03*
X291528D02*
D03*
Y445240D02*
D03*
X279724D02*
D03*
X322224Y433441D02*
D03*
X334028D02*
D03*
Y445240D02*
D03*
X322224D02*
D03*
X52224Y433441D02*
D03*
X64028D02*
D03*
Y445240D02*
D03*
X52224D02*
D03*
D104*
X174134Y20748D02*
D03*
Y10748D02*
D03*
X184134D02*
D03*
Y20748D02*
D03*
X194134Y10748D02*
D03*
Y20748D02*
D03*
X164134D02*
D03*
Y10748D02*
D03*
X252717Y396575D02*
D03*
Y406575D02*
D03*
X282717D02*
D03*
Y396575D02*
D03*
X272717Y406575D02*
D03*
Y396575D02*
D03*
X262717D02*
D03*
Y406575D02*
D03*
X65551Y10748D02*
D03*
Y20748D02*
D03*
X105551D02*
D03*
Y10748D02*
D03*
X115551D02*
D03*
Y20748D02*
D03*
X125551Y10748D02*
D03*
Y20748D02*
D03*
X95551D02*
D03*
Y10748D02*
D03*
X85551D02*
D03*
Y20748D02*
D03*
X75551D02*
D03*
Y10748D02*
D03*
X55551Y20748D02*
D03*
Y10748D02*
D03*
X145551Y20748D02*
D03*
Y10748D02*
D03*
X135551Y20748D02*
D03*
Y10748D02*
D03*
X35551D02*
D03*
Y20748D02*
D03*
X45551D02*
D03*
Y10748D02*
D03*
X242717D02*
D03*
Y20748D02*
D03*
X282717D02*
D03*
Y10748D02*
D03*
X292717D02*
D03*
Y20748D02*
D03*
X302717Y10748D02*
D03*
Y20748D02*
D03*
X272717D02*
D03*
Y10748D02*
D03*
X262717D02*
D03*
Y20748D02*
D03*
X252717D02*
D03*
Y10748D02*
D03*
X232717Y20748D02*
D03*
Y10748D02*
D03*
X322717Y20748D02*
D03*
Y10748D02*
D03*
X312717Y20748D02*
D03*
Y10748D02*
D03*
X212717D02*
D03*
Y20748D02*
D03*
X222717D02*
D03*
Y10748D02*
D03*
D105*
X314961Y393701D02*
D03*
X437008D02*
D03*
X594488D02*
D03*
Y98425D02*
D03*
X437008D02*
D03*
X314961D02*
D03*
X19685D02*
D03*
Y393701D02*
D03*
D106*
X180125Y332115D02*
D03*
X468000Y252500D02*
D03*
X224646Y328000D02*
D03*
X230354D02*
D03*
X81000Y92240D02*
D03*
X167000Y320500D02*
D03*
X157000Y333000D02*
D03*
X151000Y321500D02*
D03*
X155500D02*
D03*
X508000Y418000D02*
D03*
X103000Y259000D02*
D03*
X95000D02*
D03*
X118000Y368000D02*
D03*
X109000D02*
D03*
X231000Y92740D02*
D03*
X186000Y335000D02*
D03*
X584200Y419200D02*
D03*
X562200Y419500D02*
D03*
X441500Y296740D02*
D03*
X130000Y322000D02*
D03*
X202000Y334000D02*
D03*
X208000D02*
D03*
X198000Y328000D02*
D03*
X186500Y327240D02*
D03*
X217500Y332500D02*
D03*
X174000Y340000D02*
D03*
X212500Y331500D02*
D03*
X131125Y270240D02*
D03*
X545500Y37240D02*
D03*
X329500D02*
D03*
X547500Y251240D02*
D03*
X540000Y403240D02*
D03*
X109500Y84740D02*
D03*
X97000D02*
D03*
X464500Y234240D02*
D03*
X472500Y316740D02*
D03*
X450500Y234240D02*
D03*
X470000Y290740D02*
D03*
X397000Y234240D02*
D03*
X376500Y290740D02*
D03*
X517500Y42240D02*
D03*
X82500D02*
D03*
X507500Y44740D02*
D03*
X62000D02*
D03*
X498000Y47240D02*
D03*
X57000D02*
D03*
X521000Y372740D02*
D03*
X502000Y322240D02*
D03*
X487000Y49740D02*
D03*
X72500D02*
D03*
X505500Y394865D02*
D03*
X494000Y330240D02*
D03*
X478000Y52240D02*
D03*
X67500D02*
D03*
X483000Y397740D02*
D03*
X482500Y339740D02*
D03*
X427500Y375740D02*
D03*
X431500D02*
D03*
X441500Y324240D02*
D03*
Y320240D02*
D03*
X461500Y54740D02*
D03*
X142000D02*
D03*
X441500Y292740D02*
D03*
X456500Y57240D02*
D03*
X127000D02*
D03*
X442000Y265240D02*
D03*
Y269240D02*
D03*
X417000Y59740D02*
D03*
X132500D02*
D03*
X404500Y264740D02*
D03*
Y269240D02*
D03*
X412000Y62240D02*
D03*
X117000D02*
D03*
X405000Y292740D02*
D03*
Y296740D02*
D03*
Y69740D02*
D03*
X122500D02*
D03*
X199000Y82240D02*
D03*
X260500D02*
D03*
X209000Y74740D02*
D03*
X266000D02*
D03*
X171250Y362490D02*
D03*
X219500Y77240D02*
D03*
X251000D02*
D03*
X275500Y92740D02*
D03*
X176250Y363740D02*
D03*
X197750Y322865D02*
D03*
X217000Y340240D02*
D03*
X221000D02*
D03*
X164500Y84740D02*
D03*
X246000D02*
D03*
X171000Y77240D02*
D03*
X152500D02*
D03*
X181000Y74740D02*
D03*
X137000D02*
D03*
X154000Y87240D02*
D03*
X271000D02*
D03*
X383000Y234240D02*
D03*
X374000Y318740D02*
D03*
X405000Y320240D02*
D03*
Y324240D02*
D03*
X102000Y77240D02*
D03*
X128500D02*
D03*
X118000Y400740D02*
D03*
Y396740D02*
D03*
X97000Y328240D02*
D03*
X115500Y407240D02*
D03*
X111500D02*
D03*
X107500D02*
D03*
X103000Y328240D02*
D03*
X332500Y79740D02*
D03*
X92000D02*
D03*
X338500Y77240D02*
D03*
X290000D02*
D03*
X353500Y74740D02*
D03*
X300000D02*
D03*
X350000Y440240D02*
D03*
X354500Y333240D02*
D03*
X331250Y334740D02*
D03*
X323000Y324000D02*
D03*
X354500Y328240D02*
D03*
X324500Y353240D02*
D03*
X247500Y89740D02*
D03*
X78000D02*
D03*
X247500Y314740D02*
D03*
X243500D02*
D03*
X275000D02*
D03*
X271000D02*
D03*
X302500D02*
D03*
X298500D02*
D03*
X225500Y92240D02*
D03*
X32125Y431990D02*
D03*
X72500Y306490D02*
D03*
X31500Y445740D02*
D03*
X55000Y325240D02*
D03*
X30500D02*
D03*
X70000Y400240D02*
D03*
Y404240D02*
D03*
X50500Y406240D02*
D03*
X54500D02*
D03*
X28800Y370700D02*
D03*
X193250Y322740D02*
D03*
X347500Y328240D02*
D03*
X338000Y343240D02*
D03*
X334500D02*
D03*
X329500D02*
D03*
X326000D02*
D03*
X228500Y353740D02*
D03*
Y350240D02*
D03*
Y345240D02*
D03*
Y341740D02*
D03*
X180000Y327240D02*
D03*
X346000Y348240D02*
D03*
Y352240D02*
D03*
X223000Y361740D02*
D03*
X219500D02*
D03*
X45500Y67240D02*
D03*
X231000D02*
D03*
X42500Y64740D02*
D03*
X236000D02*
D03*
X48000Y388240D02*
D03*
X49000Y325240D02*
D03*
X72500Y318990D02*
D03*
X24000Y325240D02*
D03*
X48000Y391740D02*
D03*
X587500Y168240D02*
D03*
X551000Y359740D02*
D03*
X550500Y352240D02*
D03*
X511000Y397740D02*
D03*
X470000Y281240D02*
D03*
Y308740D02*
D03*
X376500Y273240D02*
D03*
Y300740D02*
D03*
Y328240D02*
D03*
X354500Y264240D02*
D03*
X324500D02*
D03*
X290500Y279240D02*
D03*
X263500D02*
D03*
X235500D02*
D03*
X228500Y265240D02*
D03*
X186500D02*
D03*
X66500Y263240D02*
D03*
X23500Y264740D02*
D03*
X538625Y460490D02*
D03*
X596750Y462990D02*
D03*
X579250Y405490D02*
D03*
X192375Y270240D02*
D03*
X308375Y263365D02*
D03*
X281500D02*
D03*
X253375D02*
D03*
X59250Y270240D02*
D03*
X85500Y267740D02*
D03*
X587500Y128240D02*
D03*
X560500Y399240D02*
D03*
X565000Y380800D02*
D03*
X563600Y387700D02*
D03*
X528500Y426240D02*
D03*
X501000Y388240D02*
D03*
X481000Y388740D02*
D03*
X492000Y389240D02*
D03*
X473500Y389740D02*
D03*
X511000Y365240D02*
D03*
X505500D02*
D03*
X492500Y365740D02*
D03*
X487000D02*
D03*
X474000D02*
D03*
X468500D02*
D03*
X347000Y264240D02*
D03*
X317000D02*
D03*
X291500Y273240D02*
D03*
X264500D02*
D03*
X236500Y272740D02*
D03*
X221000Y265240D02*
D03*
X178500D02*
D03*
X30500Y264740D02*
D03*
X561000Y34740D02*
D03*
X309500D02*
D03*
X560000Y251240D02*
D03*
X546000Y400240D02*
D03*
X573000Y29740D02*
D03*
X319500D02*
D03*
X585000Y251240D02*
D03*
X570500Y397740D02*
D03*
X568500Y32240D02*
D03*
X304500D02*
D03*
X572500Y251240D02*
D03*
X565500Y392740D02*
D03*
X531000Y39740D02*
D03*
X315000D02*
D03*
X392000Y72240D02*
D03*
X107000D02*
D03*
D107*
X424746Y225254D02*
D03*
X150000Y270000D02*
D03*
D108*
X252717Y379957D02*
D03*
M02*
