G04*
G04 #@! TF.GenerationSoftware,Altium Limited,Altium Designer,21.4.1 (30)*
G04*
G04 Layer_Color=8388736*
%FSLAX25Y25*%
%MOIN*%
G70*
G04*
G04 #@! TF.SameCoordinates,07BA8920-E91E-4FA6-B340-E2803C7595EB*
G04*
G04*
G04 #@! TF.FilePolarity,Positive*
G04*
G01*
G75*
%ADD110C,0.00425*%
D110*
X267717Y385075D02*
X265593D01*
X264885Y385783D01*
X265593Y386491D01*
X267009D01*
X267717Y387199D01*
X267009Y387907D01*
X264885D01*
X262760D02*
X261344D01*
X260636Y387199D01*
Y385075D01*
X262760D01*
X263468Y385783D01*
X262760Y386491D01*
X260636D01*
X259220Y385075D02*
Y387907D01*
X258512D01*
X257804Y387199D01*
Y385075D01*
Y387199D01*
X257095Y387907D01*
X256387Y387199D01*
Y385075D01*
X254263Y388615D02*
Y387907D01*
X254971D01*
X253555D01*
X254263D01*
Y385783D01*
X253555Y385075D01*
X249306D02*
X250723D01*
X251431Y385783D01*
Y387199D01*
X250723Y387907D01*
X249306D01*
X248598Y387199D01*
Y386491D01*
X251431D01*
X244350Y387907D02*
X246474D01*
X247182Y387199D01*
Y385783D01*
X246474Y385075D01*
X244350D01*
X242933Y384367D02*
X240101D01*
X238685Y389324D02*
X235852D01*
X237268D01*
Y385075D01*
X234436Y389324D02*
Y385075D01*
X231604D01*
X230187Y389324D02*
Y385075D01*
X228771Y386491D01*
X227355Y385075D01*
Y389324D01*
X225939Y387199D02*
X223106D01*
X221690Y385075D02*
X220274D01*
X220982D01*
Y389324D01*
X221690Y388615D01*
X218150D02*
X217442Y389324D01*
X216025D01*
X215317Y388615D01*
Y385783D01*
X216025Y385075D01*
X217442D01*
X218150Y385783D01*
Y388615D01*
X211777Y385075D02*
Y389324D01*
X213901Y387199D01*
X211069D01*
X209652D02*
X206820D01*
X205404Y388615D02*
X204696Y389324D01*
X203279D01*
X202571Y388615D01*
Y385783D01*
X203279Y385075D01*
X204696D01*
X205404Y385783D01*
Y388615D01*
X198323Y389324D02*
X199739Y388615D01*
X201155Y387199D01*
Y385783D01*
X200447Y385075D01*
X199031D01*
X198323Y385783D01*
Y386491D01*
X199031Y387199D01*
X201155D01*
X196906D02*
X194074D01*
X189825Y388615D02*
X190534Y389324D01*
X191950D01*
X192658Y388615D01*
Y385783D01*
X191950Y385075D01*
X190534D01*
X189825Y385783D01*
Y387199D01*
X191242D01*
X188409D02*
X185577D01*
X184161Y389324D02*
Y385075D01*
X182036D01*
X181328Y385783D01*
Y388615D01*
X182036Y389324D01*
X184161D01*
M02*
