G04*
G04 #@! TF.GenerationSoftware,Altium Limited,Altium Designer,21.4.1 (30)*
G04*
G04 Layer_Color=32768*
%FSLAX25Y25*%
%MOIN*%
G70*
G04*
G04 #@! TF.SameCoordinates,7EEB5CCF-43E0-40BE-B5BA-AD8CC80F1960*
G04*
G04*
G04 #@! TF.FilePolarity,Positive*
G04*
G01*
G75*
%ADD12C,0.01000*%
%ADD14C,0.00600*%
%ADD49C,0.00394*%
%ADD50C,0.00197*%
D12*
X190850Y-35410D02*
X196850Y-33410D01*
X190850Y-31410D02*
X196850Y-33410D01*
X-2D02*
X5998Y-31410D01*
X-2Y-33410D02*
X5998Y-35410D01*
X109421Y-33410D02*
X196850D01*
X-2D02*
X84228D01*
X196850Y-34410D02*
Y2937D01*
X-2Y-34410D02*
Y6806D01*
X249169Y393700D02*
X251169Y387700D01*
X247169D02*
X249169Y393700D01*
X247169Y5912D02*
X249169Y-88D01*
X251169Y5912D01*
X249169Y210301D02*
Y393700D01*
Y-88D02*
Y180110D01*
X189153Y393700D02*
X250169D01*
X189148Y-88D02*
X250169D01*
X171165Y417930D02*
X177165Y419930D01*
X171165Y421930D02*
X177165Y419930D01*
X155745D02*
X161745Y421930D01*
X155745Y419930D02*
X161745Y417930D01*
X166455Y419930D02*
X177165D01*
X155745D02*
X166455D01*
X177165Y314961D02*
Y420930D01*
X155745Y391761D02*
Y420930D01*
X19685Y417240D02*
X25685Y419241D01*
X19685Y417240D02*
X25685Y415240D01*
X34142D02*
X40142Y417240D01*
X34142Y419241D02*
X40142Y417240D01*
X19685D02*
X29913D01*
X40142D01*
X19685Y314961D02*
Y418240D01*
X40142Y391761D02*
Y418240D01*
X19685Y441011D02*
X25685Y443011D01*
X19685Y441011D02*
X25685Y439011D01*
X171165D02*
X177165Y441011D01*
X171165Y443011D02*
X177165Y441011D01*
X19685D02*
X75731D01*
X117919D02*
X177165D01*
X19685Y314961D02*
Y442011D01*
X177165Y314961D02*
Y442011D01*
D14*
X89826Y-31011D02*
X85828D01*
Y-34010D01*
X87827Y-33010D01*
X88827D01*
X89826Y-34010D01*
Y-36009D01*
X88827Y-37009D01*
X86827D01*
X85828Y-36009D01*
X91826Y-32011D02*
X92825Y-31011D01*
X94825D01*
X95824Y-32011D01*
Y-36009D01*
X94825Y-37009D01*
X92825D01*
X91826Y-36009D01*
Y-32011D01*
X97824Y-37009D02*
Y-33010D01*
X98823D01*
X99823Y-34010D01*
Y-37009D01*
Y-34010D01*
X100823Y-33010D01*
X101822Y-34010D01*
Y-37009D01*
X103822D02*
Y-33010D01*
X104822D01*
X105821Y-34010D01*
Y-37009D01*
Y-34010D01*
X106821Y-33010D01*
X107820Y-34010D01*
Y-37009D01*
X252768Y181710D02*
Y183710D01*
Y182710D01*
X246770D01*
X247770Y181710D01*
Y186708D02*
X246770Y187708D01*
Y189708D01*
X247770Y190707D01*
X251768D01*
X252768Y189708D01*
Y187708D01*
X251768Y186708D01*
X247770D01*
Y192707D02*
X246770Y193706D01*
Y195706D01*
X247770Y196705D01*
X251768D01*
X252768Y195706D01*
Y193706D01*
X251768Y192707D01*
X247770D01*
X252768Y198705D02*
X248769D01*
Y199704D01*
X249769Y200704D01*
X252768D01*
X249769D01*
X248769Y201704D01*
X249769Y202703D01*
X252768D01*
Y204703D02*
X248769D01*
Y205702D01*
X249769Y206702D01*
X252768D01*
X249769D01*
X248769Y207702D01*
X249769Y208701D01*
X252768D01*
X143469Y431001D02*
X139470D01*
Y428002D01*
X141470Y429001D01*
X142469D01*
X143469Y428002D01*
Y426002D01*
X142469Y425003D01*
X140470D01*
X139470Y426002D01*
X145468Y425003D02*
Y426002D01*
X146468D01*
Y425003D01*
X145468D01*
X153466D02*
Y431001D01*
X150467Y428002D01*
X154465D01*
X159464Y425003D02*
Y431001D01*
X156465Y428002D01*
X160463D01*
X162463Y425003D02*
Y429001D01*
X163462D01*
X164462Y428002D01*
Y425003D01*
Y428002D01*
X165462Y429001D01*
X166461Y428002D01*
Y425003D01*
X168461D02*
Y429001D01*
X169460D01*
X170460Y428002D01*
Y425003D01*
Y428002D01*
X171460Y429001D01*
X172459Y428002D01*
Y425003D01*
X28962Y429149D02*
X24963D01*
Y426150D01*
X26963Y427149D01*
X27962D01*
X28962Y426150D01*
Y424150D01*
X27962Y423151D01*
X25963D01*
X24963Y424150D01*
X30962Y423151D02*
Y424150D01*
X31961D01*
Y423151D01*
X30962D01*
X39959D02*
X35960D01*
X39959Y427149D01*
Y428149D01*
X38959Y429149D01*
X36960D01*
X35960Y428149D01*
X41958D02*
X42958Y429149D01*
X44957D01*
X45957Y428149D01*
Y424150D01*
X44957Y423151D01*
X42958D01*
X41958Y424150D01*
Y428149D01*
X47956Y423151D02*
Y427149D01*
X48956D01*
X49955Y426150D01*
Y423151D01*
Y426150D01*
X50955Y427149D01*
X51955Y426150D01*
Y423151D01*
X53954D02*
Y427149D01*
X54954D01*
X55954Y426150D01*
Y423151D01*
Y426150D01*
X56953Y427149D01*
X57953Y426150D01*
Y423151D01*
X80330Y437412D02*
Y443410D01*
X77331Y440411D01*
X81330D01*
X83329Y442411D02*
X84329Y443410D01*
X86328D01*
X87328Y442411D01*
Y438412D01*
X86328Y437412D01*
X84329D01*
X83329Y438412D01*
Y442411D01*
X89327Y437412D02*
Y438412D01*
X90327D01*
Y437412D01*
X89327D01*
X94326Y442411D02*
X95325Y443410D01*
X97325D01*
X98325Y442411D01*
Y438412D01*
X97325Y437412D01*
X95325D01*
X94326Y438412D01*
Y442411D01*
X100324D02*
X101323Y443410D01*
X103323D01*
X104323Y442411D01*
Y438412D01*
X103323Y437412D01*
X101323D01*
X100324Y438412D01*
Y442411D01*
X106322Y437412D02*
Y441411D01*
X107322D01*
X108321Y440411D01*
Y437412D01*
Y440411D01*
X109321Y441411D01*
X110321Y440411D01*
Y437412D01*
X112320D02*
Y441411D01*
X113320D01*
X114319Y440411D01*
Y437412D01*
Y440411D01*
X115319Y441411D01*
X116319Y440411D01*
Y437412D01*
D49*
X102362Y320866D02*
Y324803D01*
X100394Y322835D02*
X104331D01*
X61024Y320866D02*
Y324803D01*
X59055Y322835D02*
X62992D01*
X149536Y139776D02*
Y143320D01*
X147764Y141548D02*
X151307D01*
X155244Y162641D02*
X159181D01*
X157213Y160673D02*
Y164610D01*
X20000Y196031D02*
Y199969D01*
X18032Y198000D02*
X21969D01*
X142331Y171795D02*
X145875D01*
X144103Y170023D02*
Y173567D01*
X34000Y187228D02*
Y190772D01*
X32228Y189000D02*
X35772D01*
X4000Y201839D02*
Y205382D01*
X2228Y203610D02*
X5772D01*
X4000Y190728D02*
Y194272D01*
X2228Y192500D02*
X5772D01*
X55794Y134551D02*
Y138094D01*
X54023Y136322D02*
X57566D01*
X54023Y124822D02*
X57566D01*
X55794Y123051D02*
Y126594D01*
X34000Y205228D02*
Y208772D01*
X32228Y207000D02*
X35772D01*
X67969Y56744D02*
Y60287D01*
X66197Y58515D02*
X69740D01*
X58969Y56744D02*
Y60287D01*
X57197Y58515D02*
X60740D01*
X58969Y68178D02*
Y71721D01*
X57197Y69949D02*
X60740D01*
X66197D02*
X69740D01*
X67969Y68178D02*
Y71721D01*
X51728Y106000D02*
X55272D01*
X53500Y104228D02*
Y107772D01*
X51728Y99290D02*
X55272D01*
X53500Y97519D02*
Y101062D01*
X163974Y224478D02*
Y228022D01*
X162202Y226250D02*
X165746D01*
X56785Y224478D02*
Y228022D01*
X55013Y226250D02*
X58557D01*
X56875Y214728D02*
Y218272D01*
X55103Y216500D02*
X58647D01*
X162202D02*
X165746D01*
X163974Y214728D02*
Y218272D01*
X68228Y209854D02*
X71772D01*
X70000Y208083D02*
Y211626D01*
X41000Y201839D02*
Y205382D01*
X39228Y203610D02*
X42772D01*
X41000Y190618D02*
Y194161D01*
X39228Y192390D02*
X42772D01*
X99051Y136099D02*
X102594D01*
X100822Y134327D02*
Y137870D01*
X99051Y124599D02*
X102594D01*
X100822Y122827D02*
Y126370D01*
X68287Y188100D02*
X71830D01*
X70059Y186328D02*
Y189872D01*
X109251Y56603D02*
Y60146D01*
X107479Y58374D02*
X111023D01*
X100251Y56603D02*
Y60146D01*
X98479Y58374D02*
X102023D01*
X98479Y69874D02*
X102023D01*
X100251Y68103D02*
Y71646D01*
X109251Y68103D02*
Y71646D01*
X107479Y69874D02*
X111023D01*
X111984Y106000D02*
X115527D01*
X113756Y104228D02*
Y107772D01*
Y97519D02*
Y101062D01*
X111984Y99290D02*
X115528D01*
X56000Y196031D02*
Y199969D01*
X54031Y198000D02*
X57968D01*
X33085Y224478D02*
Y228022D01*
X31313Y226250D02*
X34857D01*
X140274Y224478D02*
Y228022D01*
X138502Y226250D02*
X142046D01*
X33085Y214728D02*
Y218272D01*
X31313Y216500D02*
X34857D01*
X138502D02*
X142046D01*
X140274Y214728D02*
Y218272D01*
X148128Y189400D02*
X151672D01*
X149900Y187628D02*
Y191172D01*
X188328Y189000D02*
X191872D01*
X190100Y187228D02*
Y190772D01*
X149900Y205328D02*
Y208872D01*
X148128Y207100D02*
X151672D01*
X190100Y205228D02*
Y208772D01*
X188328Y207000D02*
X191872D01*
X23545Y171795D02*
X27088D01*
X25316Y170023D02*
Y173567D01*
X135500Y196031D02*
Y199969D01*
X133531Y198000D02*
X137469D01*
X175400Y196031D02*
Y199969D01*
X173432Y198000D02*
X177368D01*
X121015Y201839D02*
Y205382D01*
X119243Y203610D02*
X122786D01*
X160900Y201839D02*
Y205382D01*
X159128Y203610D02*
X162672D01*
X119243Y192500D02*
X122786D01*
X121015Y190728D02*
Y194272D01*
X160900Y190618D02*
Y194161D01*
X159128Y192390D02*
X162672D01*
X36270Y162641D02*
X40207D01*
X38238Y160673D02*
Y164610D01*
X11728Y162500D02*
X15272D01*
X13500Y160728D02*
Y164272D01*
X128028Y162500D02*
X131572D01*
X129800Y160728D02*
Y164272D01*
X11728Y169500D02*
X15272D01*
X13500Y167728D02*
Y171272D01*
X128028Y169500D02*
X131572D01*
X129800Y167728D02*
Y171272D01*
X37917Y138792D02*
X41461D01*
X39689Y137020D02*
Y140564D01*
X157553Y138792D02*
X161096D01*
X159324Y137020D02*
Y140564D01*
X30561Y139776D02*
Y143320D01*
X28789Y141548D02*
X32333D01*
D50*
X81496Y333858D02*
X123228D01*
X81496Y311811D02*
X123228D01*
X81496D02*
Y333858D01*
X123228Y311811D02*
Y333858D01*
X40157D02*
X81890D01*
X40157Y311811D02*
X81890D01*
X40157D02*
Y333858D01*
X81890Y311811D02*
Y333858D01*
X166535Y35039D02*
X187795D01*
Y118819D01*
X166535D02*
X187795D01*
X166535Y35039D02*
Y118819D01*
X146780Y136430D02*
X152292D01*
X146780Y146666D02*
X152292D01*
X146780Y136430D02*
Y146666D01*
X152292Y136430D02*
Y146666D01*
X169221Y145516D02*
Y179767D01*
X145205Y145516D02*
Y179767D01*
X169221D01*
X145205Y145516D02*
X169221D01*
X9764Y183925D02*
X30236D01*
X9764Y212075D02*
X30236D01*
X9764Y183925D02*
Y212075D01*
X30236Y183925D02*
Y212075D01*
X141150Y166480D02*
X147056D01*
Y177110D01*
X141150Y166480D02*
Y177110D01*
X147056D01*
X31047Y194315D02*
X36953D01*
X31047Y183685D02*
X36953D01*
Y194315D01*
X31047Y183685D02*
Y194315D01*
X1244Y198492D02*
X6756D01*
X1244Y208728D02*
X6756D01*
X1244Y198492D02*
Y208728D01*
X6756Y198492D02*
Y208728D01*
X1244Y187382D02*
X6756D01*
X1244Y197618D02*
X6756D01*
X1244Y187382D02*
Y197618D01*
X6756Y187382D02*
Y197618D01*
X50676Y133566D02*
X60913D01*
X50676Y139078D02*
X60913D01*
Y133566D02*
Y139078D01*
X50676Y133566D02*
Y139078D01*
Y122066D02*
Y127578D01*
X60913Y122066D02*
Y127578D01*
X50676D02*
X60913D01*
X50676Y122066D02*
X60913D01*
X31047Y201685D02*
X36953D01*
X31047Y212315D02*
X36953D01*
X31047Y201685D02*
Y212315D01*
X36953Y201685D02*
Y212315D01*
X65213Y53397D02*
X70724D01*
X65213Y63633D02*
X70724D01*
X65213Y53397D02*
Y63633D01*
X70724Y53397D02*
Y63633D01*
X56213D02*
X61725D01*
X56213Y53397D02*
X61725D01*
Y63633D01*
X56213Y53397D02*
Y63633D01*
Y64831D02*
X61725D01*
X56213Y75068D02*
X61725D01*
X56213Y64831D02*
Y75068D01*
X61725Y64831D02*
Y75068D01*
X65213Y64831D02*
Y75068D01*
X70724Y64831D02*
Y75068D01*
X65213Y64831D02*
X70724D01*
X65213Y75068D02*
X70724D01*
X48382Y103244D02*
Y108756D01*
X58618Y103244D02*
Y108756D01*
X48382D02*
X58618D01*
X48382Y103244D02*
X58618D01*
Y96534D02*
Y102046D01*
X48382Y96534D02*
Y102046D01*
Y96534D02*
X58618D01*
X48382Y102046D02*
X58618D01*
X161021Y220935D02*
X166927D01*
X161021Y231565D02*
X166927D01*
X161021Y220935D02*
Y231565D01*
X166927Y220935D02*
Y231565D01*
X53832Y220935D02*
X59738D01*
X53832Y231565D02*
X59738D01*
X53832Y220935D02*
Y231565D01*
X59738Y220935D02*
Y231565D01*
X51757Y213744D02*
X61993D01*
X51757Y219256D02*
X61993D01*
Y213744D02*
Y219256D01*
X51757Y213744D02*
Y219256D01*
X158856Y213744D02*
Y219256D01*
X169092Y213744D02*
Y219256D01*
X158856D02*
X169092D01*
X158856Y213744D02*
X169092D01*
X72953Y204539D02*
Y215169D01*
X67047Y204539D02*
Y215169D01*
X72953D01*
X67047Y204539D02*
X72953D01*
X38244Y198492D02*
X43756D01*
X38244Y208728D02*
X43756D01*
X38244Y198492D02*
Y208728D01*
X43756Y198492D02*
Y208728D01*
X38244Y187272D02*
X43756D01*
X38244Y197508D02*
X43756D01*
X38244Y187272D02*
Y197508D01*
X43756Y187272D02*
Y197508D01*
X95704Y133343D02*
Y138854D01*
X105941Y133343D02*
Y138854D01*
X95704D02*
X105941D01*
X95704Y133343D02*
X105941D01*
Y121843D02*
Y127354D01*
X95704Y121843D02*
Y127354D01*
Y121843D02*
X105941D01*
X95704Y127354D02*
X105941D01*
X67106Y182785D02*
Y193415D01*
X73011Y182785D02*
Y193415D01*
X67106Y182785D02*
X73011D01*
X67106Y193415D02*
X73011D01*
X106495Y53256D02*
X112007D01*
X106495Y63493D02*
X112007D01*
X106495Y53256D02*
Y63493D01*
X112007Y53256D02*
Y63493D01*
X97495D02*
X103007D01*
X97495Y53256D02*
X103007D01*
Y63493D01*
X97495Y53256D02*
Y63493D01*
X103007Y64756D02*
Y74993D01*
X97495Y64756D02*
Y74993D01*
X103007D01*
X97495Y64756D02*
X103007D01*
X106495Y74993D02*
X112007D01*
X106495Y64756D02*
X112007D01*
Y74993D01*
X106495Y64756D02*
Y74993D01*
X108638Y103244D02*
Y108756D01*
X118874Y103244D02*
Y108756D01*
X108638D02*
X118874D01*
X108638Y103244D02*
X118874D01*
X108638Y102046D02*
X118874D01*
X108638Y96534D02*
X118874D01*
X108638D02*
Y102046D01*
X118874Y96534D02*
Y102046D01*
X45764Y183925D02*
X66236D01*
X45764Y212075D02*
X66236D01*
X45764Y183925D02*
Y212075D01*
X66236Y183925D02*
Y212075D01*
X30132Y220935D02*
X36038D01*
X30132Y231565D02*
X36038D01*
X30132Y220935D02*
Y231565D01*
X36038Y220935D02*
Y231565D01*
X137321Y220935D02*
X143227D01*
X137321Y231565D02*
X143227D01*
X137321Y220935D02*
Y231565D01*
X143227Y220935D02*
Y231565D01*
X27967Y213744D02*
X38203D01*
X27967Y219256D02*
X38203D01*
Y213744D02*
Y219256D01*
X27967Y213744D02*
Y219256D01*
X135156Y213744D02*
Y219256D01*
X145392Y213744D02*
Y219256D01*
X135156D02*
X145392D01*
X135156Y213744D02*
X145392D01*
X9055Y35039D02*
X30315D01*
Y118819D01*
X9055D02*
X30315D01*
X9055Y35039D02*
Y118819D01*
X146947Y184085D02*
Y194715D01*
Y184085D02*
X152853D01*
X146947Y194715D02*
X152853D01*
Y184085D02*
Y194715D01*
X187147Y183685D02*
Y194315D01*
Y183685D02*
X193053D01*
X187147Y194315D02*
X193053D01*
Y183685D02*
Y194315D01*
X146947Y201785D02*
X152853D01*
X146947Y212415D02*
X152853D01*
X146947Y201785D02*
Y212415D01*
X152853Y201785D02*
Y212415D01*
X187147Y201685D02*
X193053D01*
X187147Y212315D02*
X193053D01*
X187147Y201685D02*
Y212315D01*
X193053Y201685D02*
Y212315D01*
X28269Y166480D02*
Y177110D01*
X22364Y166480D02*
Y177110D01*
X28269D01*
X22364Y166480D02*
X28269D01*
X125264Y183925D02*
Y212075D01*
Y183925D02*
X145736D01*
X125264Y212075D02*
X145736D01*
Y183925D02*
Y212075D01*
X165164Y183925D02*
Y212075D01*
Y183925D02*
X185636D01*
X165164Y212075D02*
X185636D01*
Y183925D02*
Y212075D01*
X118259Y198492D02*
X123771D01*
X118259Y208728D02*
X123771D01*
X118259Y198492D02*
Y208728D01*
X123771Y198492D02*
Y208728D01*
X158144Y198492D02*
X163656D01*
X158144Y208728D02*
X163656D01*
X158144Y198492D02*
Y208728D01*
X163656Y198492D02*
Y208728D01*
X118259Y187382D02*
Y197618D01*
Y187382D02*
X123771D01*
X118259Y197618D02*
X123771D01*
Y187382D02*
Y197618D01*
X158144Y187272D02*
X163656D01*
X158144Y197508D02*
X163656D01*
X158144Y187272D02*
Y197508D01*
X163656Y187272D02*
Y197508D01*
X50246Y145516D02*
Y179767D01*
X26230Y145516D02*
Y179767D01*
X50246D01*
X26230Y145516D02*
X50246D01*
X8382Y159744D02*
Y165256D01*
X18618Y159744D02*
Y165256D01*
X8382D02*
X18618D01*
X8382Y159744D02*
X18618D01*
X134918D02*
Y165256D01*
X124682Y159744D02*
Y165256D01*
Y159744D02*
X134918D01*
X124682Y165256D02*
X134918D01*
X8382Y166744D02*
Y172256D01*
X18618Y166744D02*
Y172256D01*
X8382D02*
X18618D01*
X8382Y166744D02*
X18618D01*
X134918D02*
Y172256D01*
X124682Y166744D02*
Y172256D01*
Y166744D02*
X134918D01*
X124682Y172256D02*
X134918D01*
X34571Y136036D02*
Y141548D01*
X44807Y136036D02*
Y141548D01*
X34571D02*
X44807D01*
X34571Y136036D02*
X44807D01*
X154206D02*
Y141548D01*
X164442Y136036D02*
Y141548D01*
X154206D02*
X164442D01*
X154206Y136036D02*
X164442D01*
X27805Y136430D02*
X33317D01*
X27805Y146666D02*
X33317D01*
X27805Y136430D02*
Y146666D01*
X33317Y136430D02*
Y146666D01*
M02*
