G04*
G04 #@! TF.GenerationSoftware,Altium Limited,Altium Designer,21.4.1 (30)*
G04*
G04 Layer_Color=128*
%FSLAX25Y25*%
%MOIN*%
G70*
G04*
G04 #@! TF.SameCoordinates,7EEB5CCF-43E0-40BE-B5BA-AD8CC80F1960*
G04*
G04*
G04 #@! TF.FilePolarity,Positive*
G04*
G01*
G75*
%ADD51C,0.00200*%
D51*
X105394Y327835D02*
X109331D01*
X107362Y325866D02*
Y329803D01*
X105394Y317835D02*
X109331D01*
X107362Y315866D02*
Y319803D01*
X95394Y317835D02*
X99331D01*
X97362Y315866D02*
Y319803D01*
X95394Y327835D02*
X99331D01*
X97362Y325866D02*
Y329803D01*
X85394Y317835D02*
X89331D01*
X87362Y315866D02*
Y319803D01*
X85394Y327835D02*
X89331D01*
X87362Y325866D02*
Y329803D01*
X115394Y327835D02*
X119331D01*
X117362Y325866D02*
Y329803D01*
X115394Y317835D02*
X119331D01*
X117362Y315866D02*
Y319803D01*
X64055Y327835D02*
X67992D01*
X66024Y325866D02*
Y329803D01*
X64055Y317835D02*
X67992D01*
X66024Y315866D02*
Y319803D01*
X54055Y317835D02*
X57992D01*
X56024Y315866D02*
Y319803D01*
X54055Y327835D02*
X57992D01*
X56024Y325866D02*
Y329803D01*
X44055Y317835D02*
X47992D01*
X46024Y315866D02*
Y319803D01*
X44055Y327835D02*
X47992D01*
X46024Y325866D02*
Y329803D01*
X74055Y327835D02*
X77992D01*
X76024Y325866D02*
Y329803D01*
X74055Y317835D02*
X77992D01*
X76024Y315866D02*
Y319803D01*
X170118Y51929D02*
X174212D01*
X172165Y49882D02*
Y53976D01*
X170118Y61929D02*
X174212D01*
X172165Y59882D02*
Y63976D01*
X170118Y71929D02*
X174212D01*
X172165Y69882D02*
Y73976D01*
X170118Y81929D02*
X174212D01*
X172165Y79882D02*
Y83976D01*
X170118Y91929D02*
X174212D01*
X172165Y89882D02*
Y93976D01*
X170118Y101929D02*
X174212D01*
X172165Y99882D02*
Y103976D01*
X170118Y111929D02*
X174212D01*
X172165Y109882D02*
Y113976D01*
X170118Y41929D02*
X174212D01*
X172165Y39882D02*
Y43976D01*
X180118Y41929D02*
X184212D01*
X182165Y39882D02*
Y43976D01*
X180118Y51929D02*
X184212D01*
X182165Y49882D02*
Y53976D01*
X180118Y61929D02*
X184212D01*
X182165Y59882D02*
Y63976D01*
X180118Y71929D02*
X184212D01*
X182165Y69882D02*
Y73976D01*
X180118Y81929D02*
X184212D01*
X182165Y79882D02*
Y83976D01*
X180118Y91929D02*
X184212D01*
X182165Y89882D02*
Y93976D01*
X180118Y101929D02*
X184212D01*
X182165Y99882D02*
Y103976D01*
X180118Y111929D02*
X184212D01*
X182165Y109882D02*
Y113976D01*
X106744Y383100D02*
X118543D01*
X112644Y377200D02*
Y389000D01*
X110644Y366100D02*
X114644D01*
X112644Y364100D02*
Y368100D01*
X110644Y354301D02*
X114644D01*
X112644Y352301D02*
Y356301D01*
X12638Y51929D02*
X16732D01*
X14685Y49882D02*
Y53976D01*
X12638Y61929D02*
X16732D01*
X14685Y59882D02*
Y63976D01*
X12638Y71929D02*
X16732D01*
X14685Y69882D02*
Y73976D01*
X12638Y81929D02*
X16732D01*
X14685Y79882D02*
Y83976D01*
X12638Y91929D02*
X16732D01*
X14685Y89882D02*
Y93976D01*
X12638Y101929D02*
X16732D01*
X14685Y99882D02*
Y103976D01*
X12638Y111929D02*
X16732D01*
X14685Y109882D02*
Y113976D01*
X12638Y41929D02*
X16732D01*
X14685Y39882D02*
Y43976D01*
X22638Y41929D02*
X26732D01*
X24685Y39882D02*
Y43976D01*
X22638Y51929D02*
X26732D01*
X24685Y49882D02*
Y53976D01*
X22638Y61929D02*
X26732D01*
X24685Y59882D02*
Y63976D01*
X22638Y71929D02*
X26732D01*
X24685Y69882D02*
Y73976D01*
X22638Y81929D02*
X26732D01*
X24685Y79882D02*
Y83976D01*
X22638Y91929D02*
X26732D01*
X24685Y89882D02*
Y93976D01*
X22638Y101929D02*
X26732D01*
X24685Y99882D02*
Y103976D01*
X22638Y111929D02*
X26732D01*
X24685Y109882D02*
Y113976D01*
X77343Y383100D02*
X89142D01*
X83243Y377200D02*
Y389000D01*
X81243Y366100D02*
X85243D01*
X83243Y364100D02*
Y368100D01*
X81243Y354301D02*
X85243D01*
X83243Y352301D02*
Y356301D01*
X47942Y383100D02*
X59741D01*
X53842Y377200D02*
Y389000D01*
X51842Y366100D02*
X55842D01*
X53842Y364100D02*
Y368100D01*
X51842Y354301D02*
X55842D01*
X53842Y352301D02*
Y356301D01*
X136145Y383100D02*
X147944D01*
X142045Y377200D02*
Y389000D01*
X140045Y366100D02*
X144045D01*
X142045Y364100D02*
Y368100D01*
X140045Y354301D02*
X144045D01*
X142045Y352301D02*
Y356301D01*
X13386Y314961D02*
X25984D01*
X19685Y308662D02*
Y321260D01*
X170866Y314961D02*
X183464D01*
X177165Y308662D02*
Y321260D01*
X13386Y19685D02*
X25984D01*
X19685Y13386D02*
Y25984D01*
X170866Y19685D02*
X183464D01*
X177165Y13386D02*
Y25984D01*
X45325Y138840D02*
X46506D01*
X45915Y138250D02*
Y139431D01*
X24726Y165488D02*
X25907D01*
X25316Y164898D02*
Y166079D01*
X24726Y178512D02*
X25907D01*
X25316Y177921D02*
Y179102D01*
X45325Y145516D02*
X46506D01*
X45915Y144925D02*
Y146106D01*
X143512Y178371D02*
X144694D01*
X144103Y177780D02*
Y178961D01*
X148891Y130000D02*
X150072D01*
X149482Y129409D02*
Y130591D01*
X143788Y155400D02*
X144969D01*
X144378Y154809D02*
Y155991D01*
X168630Y168000D02*
X169811D01*
X169221Y167409D02*
Y168591D01*
X164299Y145762D02*
X165480D01*
X164890Y145172D02*
Y146353D01*
X159181Y179767D02*
X160362D01*
X159772Y179177D02*
Y180358D01*
X151504Y179767D02*
X152685D01*
X152095Y179177D02*
Y180358D01*
X165088Y138792D02*
X166269D01*
X165679Y138201D02*
Y139383D01*
X143512Y166000D02*
X144694D01*
X144103Y165409D02*
Y166591D01*
X24726Y155400D02*
X25907D01*
X25316Y154809D02*
Y155991D01*
X50153Y169400D02*
X51335D01*
X50744Y168809D02*
Y169991D01*
X40207Y180403D02*
X41388D01*
X40797Y179813D02*
Y180994D01*
X32530Y180403D02*
X33711D01*
X33120Y179813D02*
Y180994D01*
X55421Y177000D02*
X56602D01*
X56012Y176409D02*
Y177591D01*
X60097Y183047D02*
X61278D01*
X60688Y182457D02*
Y183638D01*
X118268Y105958D02*
X119449D01*
X118858Y105367D02*
Y106548D01*
X10194Y157745D02*
X11375D01*
X10784Y157154D02*
Y158335D01*
X46257Y185150D02*
X47439D01*
X46848Y184560D02*
Y185741D01*
X46046Y192937D02*
X47228D01*
X46637Y192347D02*
Y193527D01*
X69410Y215854D02*
X70591D01*
X70000Y215264D02*
Y216445D01*
X69468Y182273D02*
X70649D01*
X70059Y181682D02*
Y182864D01*
X55295Y55759D02*
X56476D01*
X55886Y55169D02*
Y56350D01*
X55461Y72705D02*
X56642D01*
X56051Y72115D02*
Y73296D01*
X70333Y67194D02*
X71514D01*
X70924Y66603D02*
Y67784D01*
X57960Y133324D02*
X59141D01*
X58550Y132734D02*
Y133915D01*
X49963Y184332D02*
X51144D01*
X50554Y183741D02*
Y184922D01*
X28185Y184500D02*
X29366D01*
X28776Y183909D02*
Y185091D01*
X36509Y191854D02*
X37691D01*
X37100Y191264D02*
Y192445D01*
X24331Y184500D02*
X25512D01*
X24921Y183909D02*
Y185091D01*
X40409Y186500D02*
X41591D01*
X41000Y185909D02*
Y187091D01*
X36509Y186146D02*
X37691D01*
X37100Y185555D02*
Y186736D01*
X46228Y189524D02*
X47409D01*
X46818Y188933D02*
Y190114D01*
X64009Y175700D02*
X65191D01*
X64600Y175109D02*
Y176291D01*
X168122Y183913D02*
X169303D01*
X168713Y183322D02*
Y184503D01*
X152609Y192300D02*
X153791D01*
X153200Y191709D02*
Y192891D01*
X138709Y183900D02*
X139891D01*
X139300Y183309D02*
Y184491D01*
X124409Y186800D02*
X125591D01*
X125000Y186209D02*
Y187391D01*
X164509Y195200D02*
X165691D01*
X165100Y194609D02*
Y195791D01*
X143209Y183900D02*
X144391D01*
X143800Y183309D02*
Y184491D01*
X174509Y183000D02*
X175691D01*
X175100Y182409D02*
Y183591D01*
X171209Y182900D02*
X172391D01*
X171800Y182309D02*
Y183491D01*
X182409Y183800D02*
X183591D01*
X183000Y183209D02*
Y184391D01*
X179309Y183700D02*
X180491D01*
X179900Y183109D02*
Y184291D01*
X111760Y61174D02*
X112942D01*
X112351Y60584D02*
Y61765D01*
X111760Y67074D02*
X112942D01*
X112351Y66484D02*
Y67665D01*
X128609Y181800D02*
X129791D01*
X129200Y181209D02*
Y182391D01*
X132109Y179200D02*
X133291D01*
X132700Y178609D02*
Y179791D01*
X134709Y180800D02*
X135891D01*
X135300Y180209D02*
Y181391D01*
X152609Y209900D02*
X153791D01*
X153200Y209310D02*
Y210490D01*
X192809Y191900D02*
X193991D01*
X193400Y191309D02*
Y192491D01*
X189509Y212700D02*
X190691D01*
X190100Y212109D02*
Y213291D01*
X123109Y169400D02*
X124291D01*
X123700Y168809D02*
Y169991D01*
X123109Y162500D02*
X124291D01*
X123700Y161909D02*
Y163091D01*
X102932Y133098D02*
X104113D01*
X103523Y132508D02*
Y133689D01*
X105732Y124599D02*
X106913D01*
X106323Y124008D02*
Y125189D01*
X107209Y99200D02*
X108391D01*
X107800Y98610D02*
Y99791D01*
X107209Y106000D02*
X108391D01*
X107800Y105409D02*
Y106591D01*
X102761Y72674D02*
X103942D01*
X103351Y72084D02*
Y73265D01*
X102761Y55619D02*
X103942D01*
X103351Y55028D02*
Y56209D01*
X111760Y55574D02*
X112942D01*
X112351Y54984D02*
Y56165D01*
X111760Y72674D02*
X112942D01*
X112351Y72084D02*
Y73265D01*
X175309Y213400D02*
X176491D01*
X175900Y212809D02*
Y213990D01*
X189509Y183000D02*
X190691D01*
X190100Y182409D02*
Y183591D01*
X134309Y213700D02*
X135491D01*
X134900Y213109D02*
Y214290D01*
X130509Y213100D02*
X131691D01*
X131100Y212509D02*
Y213690D01*
X159209Y212400D02*
X160391D01*
X159800Y211809D02*
Y212990D01*
X189509Y201300D02*
X190691D01*
X190100Y200709D02*
Y201891D01*
X157043Y189634D02*
X158224D01*
X157634Y189043D02*
Y190224D01*
X56195Y220215D02*
X57376D01*
X56785Y219624D02*
Y220806D01*
X69468Y193600D02*
X70649D01*
X70059Y193009D02*
Y194191D01*
X51509Y213100D02*
X52691D01*
X52100Y212509D02*
Y213690D01*
X55309Y212800D02*
X56490D01*
X55900Y212210D02*
Y213390D01*
X163383Y219715D02*
X164565D01*
X163974Y219124D02*
Y220305D01*
X139683Y219715D02*
X140865D01*
X140274Y219124D02*
Y220305D01*
X152609Y186546D02*
X153791D01*
X153200Y185955D02*
Y187136D01*
X149309Y201200D02*
X150491D01*
X149900Y200609D02*
Y201791D01*
X120424Y187085D02*
X121605D01*
X121015Y186495D02*
Y187676D01*
X10153Y173200D02*
X11335D01*
X10744Y172609D02*
Y173791D01*
X17210Y212100D02*
X18391D01*
X17800Y211509D02*
Y212690D01*
X20410Y212300D02*
X21590D01*
X21000Y211709D02*
Y212891D01*
X33409Y201000D02*
X34591D01*
X34000Y200409D02*
Y201591D01*
X70178Y72705D02*
X71359D01*
X70769Y72115D02*
Y73296D01*
X18509Y183500D02*
X19691D01*
X19100Y182909D02*
Y184091D01*
X15665Y172900D02*
X16846D01*
X16256Y172309D02*
Y173491D01*
X70378Y61271D02*
X71559D01*
X70969Y60681D02*
Y61862D01*
X70378Y55759D02*
X71559D01*
X70969Y55169D02*
Y56350D01*
X52448Y121622D02*
X53629D01*
X53039Y121032D02*
Y122213D01*
X68110Y176100D02*
X69291D01*
X68700Y175509D02*
Y176691D01*
X36709Y209854D02*
X37891D01*
X37300Y209264D02*
Y210445D01*
X63910Y151500D02*
X65091D01*
X64500Y150909D02*
Y152091D01*
X55204Y139322D02*
X56385D01*
X55794Y138732D02*
Y139913D01*
X7909Y185000D02*
X9091D01*
X8500Y184409D02*
Y185591D01*
X43909Y106000D02*
X45091D01*
X44500Y105409D02*
Y106591D01*
X32495Y220215D02*
X33676D01*
X33085Y219624D02*
Y220806D01*
X43909Y99290D02*
X45091D01*
X44500Y98700D02*
Y99881D01*
X3409Y186000D02*
X4591D01*
X4000Y185409D02*
Y186591D01*
X69410Y204354D02*
X70591D01*
X70000Y203764D02*
Y204945D01*
M02*
