G04*
G04 #@! TF.GenerationSoftware,Altium Limited,Altium Designer,21.4.1 (30)*
G04*
G04 Layer_Physical_Order=2*
G04 Layer_Color=36540*
%FSLAX25Y25*%
%MOIN*%
G70*
G04*
G04 #@! TF.SameCoordinates,7EEB5CCF-43E0-40BE-B5BA-AD8CC80F1960*
G04*
G04*
G04 #@! TF.FilePolarity,Positive*
G04*
G01*
G75*
%ADD12C,0.01000*%
%ADD40C,0.00400*%
%ADD42C,0.06102*%
%ADD46C,0.02165*%
G36*
X73519Y1169D02*
X73165Y816D01*
X3630D01*
X3026Y936D01*
X2458Y1171D01*
X1947Y1512D01*
X1512Y1947D01*
X1171Y2458D01*
X936Y3026D01*
X816Y3630D01*
Y3937D01*
Y226009D01*
X73500D01*
X73519Y1169D01*
D02*
G37*
G36*
X196034Y226009D02*
Y3937D01*
Y3630D01*
X195914Y3026D01*
X195679Y2458D01*
X195338Y1947D01*
X194903Y1512D01*
X194392Y1171D01*
X193824Y936D01*
X193220Y816D01*
X89866D01*
X89699Y225659D01*
X90052Y226013D01*
X196034Y226009D01*
D02*
G37*
%LPC*%
G36*
X70000Y217366D02*
X69421Y217251D01*
X68931Y216923D01*
X68603Y216433D01*
X68488Y215854D01*
X68603Y215276D01*
X68931Y214785D01*
X69421Y214458D01*
X70000Y214343D01*
X70578Y214458D01*
X71069Y214785D01*
X71397Y215276D01*
X71512Y215854D01*
X71397Y216433D01*
X71069Y216923D01*
X70578Y217251D01*
X70000Y217366D01*
D02*
G37*
G36*
X21000Y213812D02*
X20422Y213697D01*
X19931Y213369D01*
X19622Y212907D01*
X19437Y212867D01*
X19086Y212843D01*
X18869Y213169D01*
X18379Y213497D01*
X17800Y213612D01*
X17221Y213497D01*
X16731Y213169D01*
X16403Y212679D01*
X16288Y212100D01*
X16403Y211522D01*
X16731Y211031D01*
X17221Y210703D01*
X17800Y210588D01*
X18379Y210703D01*
X18869Y211031D01*
X19178Y211493D01*
X19363Y211533D01*
X19714Y211557D01*
X19931Y211231D01*
X20422Y210903D01*
X21000Y210788D01*
X21578Y210903D01*
X22069Y211231D01*
X22397Y211721D01*
X22512Y212300D01*
X22397Y212878D01*
X22069Y213369D01*
X21578Y213697D01*
X21000Y213812D01*
D02*
G37*
G36*
X52100Y214612D02*
X51521Y214497D01*
X51031Y214169D01*
X50703Y213679D01*
X50588Y213100D01*
X50703Y212522D01*
X51031Y212031D01*
X51521Y211703D01*
X52100Y211588D01*
X52679Y211703D01*
X53169Y212031D01*
X53497Y212522D01*
X53612Y213100D01*
X53497Y213679D01*
X53169Y214169D01*
X52679Y214497D01*
X52100Y214612D01*
D02*
G37*
G36*
X55900Y214312D02*
X55322Y214197D01*
X54831Y213869D01*
X54503Y213379D01*
X54388Y212800D01*
X54503Y212222D01*
X54831Y211731D01*
X55322Y211403D01*
X55900Y211288D01*
X56479Y211403D01*
X56969Y211731D01*
X57297Y212222D01*
X57412Y212800D01*
X57297Y213379D01*
X56969Y213869D01*
X56479Y214197D01*
X55900Y214312D01*
D02*
G37*
G36*
X37300Y211366D02*
X36722Y211251D01*
X36231Y210923D01*
X35903Y210433D01*
X35788Y209854D01*
X35903Y209276D01*
X36231Y208785D01*
X36722Y208458D01*
X37300Y208343D01*
X37879Y208458D01*
X38369Y208785D01*
X38697Y209276D01*
X38812Y209854D01*
X38697Y210433D01*
X38369Y210923D01*
X37879Y211251D01*
X37300Y211366D01*
D02*
G37*
G36*
X46637Y194449D02*
X46058Y194334D01*
X45568Y194006D01*
X45240Y193516D01*
X45125Y192937D01*
X45240Y192359D01*
X45568Y191868D01*
X46058Y191540D01*
X46426Y191467D01*
Y190957D01*
X46240Y190920D01*
X45749Y190593D01*
X45422Y190102D01*
X45307Y189524D01*
X45422Y188945D01*
X45749Y188455D01*
X46240Y188127D01*
X46818Y188012D01*
X47397Y188127D01*
X47887Y188455D01*
X48215Y188945D01*
X48330Y189524D01*
X48215Y190102D01*
X47887Y190593D01*
X47397Y190920D01*
X47029Y190993D01*
Y191503D01*
X47216Y191540D01*
X47706Y191868D01*
X48034Y192359D01*
X48149Y192937D01*
X48034Y193516D01*
X47706Y194006D01*
X47216Y194334D01*
X46637Y194449D01*
D02*
G37*
G36*
X37100Y187657D02*
X36522Y187542D01*
X36031Y187215D01*
X35703Y186724D01*
X35588Y186146D01*
X35703Y185567D01*
X36031Y185077D01*
X36522Y184749D01*
X37100Y184634D01*
X37679Y184749D01*
X38169Y185077D01*
X38497Y185567D01*
X38612Y186146D01*
X38497Y186724D01*
X38169Y187215D01*
X37679Y187542D01*
X37100Y187657D01*
D02*
G37*
G36*
X46848Y186662D02*
X46270Y186547D01*
X45779Y186219D01*
X45451Y185729D01*
X45336Y185150D01*
X45451Y184572D01*
X45779Y184081D01*
X46270Y183754D01*
X46848Y183639D01*
X47427Y183754D01*
X47917Y184081D01*
X48245Y184572D01*
X48360Y185150D01*
X48245Y185729D01*
X47917Y186219D01*
X47427Y186547D01*
X46848Y186662D01*
D02*
G37*
G36*
X8500Y186512D02*
X7921Y186397D01*
X7431Y186069D01*
X7103Y185579D01*
X6988Y185000D01*
X7103Y184422D01*
X7431Y183931D01*
X7921Y183603D01*
X8500Y183488D01*
X9078Y183603D01*
X9569Y183931D01*
X9897Y184422D01*
X10012Y185000D01*
X9897Y185579D01*
X9569Y186069D01*
X9078Y186397D01*
X8500Y186512D01*
D02*
G37*
G36*
X28776Y186012D02*
X28197Y185897D01*
X27707Y185569D01*
X27379Y185079D01*
X27264Y184500D01*
X27379Y183922D01*
X27707Y183431D01*
X28197Y183103D01*
X28776Y182988D01*
X29354Y183103D01*
X29844Y183431D01*
X30172Y183922D01*
X30287Y184500D01*
X30172Y185079D01*
X29844Y185569D01*
X29354Y185897D01*
X28776Y186012D01*
D02*
G37*
G36*
X24921D02*
X24343Y185897D01*
X23852Y185569D01*
X23525Y185079D01*
X23410Y184500D01*
X23525Y183922D01*
X23852Y183431D01*
X24343Y183103D01*
X24921Y182988D01*
X25500Y183103D01*
X25990Y183431D01*
X26318Y183922D01*
X26433Y184500D01*
X26318Y185079D01*
X25990Y185569D01*
X25500Y185897D01*
X24921Y186012D01*
D02*
G37*
G36*
X50554Y185843D02*
X49975Y185728D01*
X49485Y185401D01*
X49157Y184910D01*
X49042Y184332D01*
X49157Y183753D01*
X49485Y183263D01*
X49975Y182935D01*
X50554Y182820D01*
X51132Y182935D01*
X51623Y183263D01*
X51951Y183753D01*
X52065Y184332D01*
X51951Y184910D01*
X51623Y185401D01*
X51132Y185728D01*
X50554Y185843D01*
D02*
G37*
G36*
X19100Y185012D02*
X18521Y184897D01*
X18031Y184569D01*
X17703Y184079D01*
X17588Y183500D01*
X17703Y182922D01*
X18031Y182431D01*
X18521Y182103D01*
X19100Y181988D01*
X19679Y182103D01*
X20169Y182431D01*
X20497Y182922D01*
X20612Y183500D01*
X20497Y184079D01*
X20169Y184569D01*
X19679Y184897D01*
X19100Y185012D01*
D02*
G37*
G36*
X60688Y184559D02*
X60109Y184444D01*
X59619Y184116D01*
X59291Y183626D01*
X59176Y183047D01*
X59291Y182469D01*
X59619Y181978D01*
X60109Y181651D01*
X60688Y181536D01*
X61266Y181651D01*
X61756Y181978D01*
X62084Y182469D01*
X62199Y183047D01*
X62084Y183626D01*
X61756Y184116D01*
X61266Y184444D01*
X60688Y184559D01*
D02*
G37*
G36*
X70059Y183785D02*
X69480Y183670D01*
X68990Y183342D01*
X68662Y182852D01*
X68547Y182273D01*
X68662Y181694D01*
X68990Y181204D01*
X69480Y180876D01*
X70059Y180761D01*
X70637Y180876D01*
X71128Y181204D01*
X71455Y181694D01*
X71570Y182273D01*
X71455Y182852D01*
X71128Y183342D01*
X70637Y183670D01*
X70059Y183785D01*
D02*
G37*
G36*
X40797Y181915D02*
X40219Y181800D01*
X39728Y181472D01*
X39401Y180982D01*
X39286Y180403D01*
X39401Y179825D01*
X39728Y179334D01*
X40219Y179007D01*
X40797Y178892D01*
X41376Y179007D01*
X41866Y179334D01*
X42194Y179825D01*
X42309Y180403D01*
X42194Y180982D01*
X41866Y181472D01*
X41376Y181800D01*
X40797Y181915D01*
D02*
G37*
G36*
X33120D02*
X32542Y181800D01*
X32051Y181472D01*
X31723Y180982D01*
X31608Y180403D01*
X31723Y179825D01*
X32051Y179334D01*
X32542Y179007D01*
X33120Y178892D01*
X33699Y179007D01*
X34189Y179334D01*
X34517Y179825D01*
X34632Y180403D01*
X34517Y180982D01*
X34189Y181472D01*
X33699Y181800D01*
X33120Y181915D01*
D02*
G37*
G36*
X25316Y180023D02*
X24738Y179908D01*
X24247Y179581D01*
X23920Y179090D01*
X23805Y178512D01*
X23920Y177933D01*
X24247Y177443D01*
X24738Y177115D01*
X25316Y177000D01*
X25895Y177115D01*
X26385Y177443D01*
X26713Y177933D01*
X26828Y178512D01*
X26713Y179090D01*
X26385Y179581D01*
X25895Y179908D01*
X25316Y180023D01*
D02*
G37*
G36*
X56012Y178512D02*
X55433Y178397D01*
X54943Y178069D01*
X54615Y177578D01*
X54500Y177000D01*
X54615Y176421D01*
X54943Y175931D01*
X55433Y175603D01*
X56012Y175488D01*
X56590Y175603D01*
X57081Y175931D01*
X57408Y176421D01*
X57523Y177000D01*
X57408Y177578D01*
X57081Y178069D01*
X56590Y178397D01*
X56012Y178512D01*
D02*
G37*
G36*
X68700Y177612D02*
X68121Y177497D01*
X67631Y177169D01*
X67303Y176679D01*
X67188Y176100D01*
X67303Y175522D01*
X67631Y175031D01*
X68121Y174703D01*
X68700Y174588D01*
X69279Y174703D01*
X69769Y175031D01*
X70097Y175522D01*
X70212Y176100D01*
X70097Y176679D01*
X69769Y177169D01*
X69279Y177497D01*
X68700Y177612D01*
D02*
G37*
G36*
X64600Y177212D02*
X64021Y177097D01*
X63531Y176769D01*
X63203Y176278D01*
X63088Y175700D01*
X63203Y175121D01*
X63531Y174631D01*
X64021Y174303D01*
X64600Y174188D01*
X65179Y174303D01*
X65669Y174631D01*
X65997Y175121D01*
X66112Y175700D01*
X65997Y176278D01*
X65669Y176769D01*
X65179Y177097D01*
X64600Y177212D01*
D02*
G37*
G36*
X10744Y174712D02*
X10166Y174597D01*
X9675Y174269D01*
X9347Y173778D01*
X9232Y173200D01*
X9347Y172622D01*
X9675Y172131D01*
X10166Y171803D01*
X10744Y171688D01*
X11323Y171803D01*
X11813Y172131D01*
X12141Y172622D01*
X12256Y173200D01*
X12141Y173778D01*
X11813Y174269D01*
X11323Y174597D01*
X10744Y174712D01*
D02*
G37*
G36*
X16256Y174412D02*
X15677Y174297D01*
X15187Y173969D01*
X14859Y173478D01*
X14744Y172900D01*
X14859Y172321D01*
X15187Y171831D01*
X15677Y171503D01*
X16256Y171388D01*
X16834Y171503D01*
X17325Y171831D01*
X17652Y172321D01*
X17768Y172900D01*
X17652Y173478D01*
X17325Y173969D01*
X16834Y174297D01*
X16256Y174412D01*
D02*
G37*
G36*
X50744Y170912D02*
X50166Y170797D01*
X49675Y170469D01*
X49347Y169978D01*
X49232Y169400D01*
X49347Y168822D01*
X49675Y168331D01*
X50166Y168003D01*
X50744Y167888D01*
X51323Y168003D01*
X51813Y168331D01*
X52141Y168822D01*
X52256Y169400D01*
X52141Y169978D01*
X51813Y170469D01*
X51323Y170797D01*
X50744Y170912D01*
D02*
G37*
G36*
X10784Y159257D02*
X10206Y159142D01*
X9715Y158814D01*
X9387Y158324D01*
X9272Y157745D01*
X9387Y157167D01*
X9715Y156676D01*
X10206Y156348D01*
X10784Y156233D01*
X11363Y156348D01*
X11853Y156676D01*
X12181Y157167D01*
X12296Y157745D01*
X12181Y158324D01*
X11853Y158814D01*
X11363Y159142D01*
X10784Y159257D01*
D02*
G37*
G36*
X25316Y156912D02*
X24738Y156797D01*
X24247Y156469D01*
X23920Y155979D01*
X23805Y155400D01*
X23920Y154822D01*
X24247Y154331D01*
X24738Y154003D01*
X25316Y153888D01*
X25895Y154003D01*
X26385Y154331D01*
X26713Y154822D01*
X26828Y155400D01*
X26713Y155979D01*
X26385Y156469D01*
X25895Y156797D01*
X25316Y156912D01*
D02*
G37*
G36*
X64500Y153012D02*
X63921Y152897D01*
X63431Y152569D01*
X63103Y152078D01*
X62988Y151500D01*
X63103Y150921D01*
X63431Y150431D01*
X63921Y150103D01*
X64500Y149988D01*
X65079Y150103D01*
X65569Y150431D01*
X65897Y150921D01*
X66012Y151500D01*
X65897Y152078D01*
X65569Y152569D01*
X65079Y152897D01*
X64500Y153012D01*
D02*
G37*
G36*
X55794Y140834D02*
X55216Y140719D01*
X54725Y140391D01*
X54398Y139901D01*
X54283Y139322D01*
X54398Y138744D01*
X54725Y138253D01*
X55216Y137926D01*
X55794Y137811D01*
X56373Y137926D01*
X56863Y138253D01*
X57191Y138744D01*
X57306Y139322D01*
X57191Y139901D01*
X56863Y140391D01*
X56373Y140719D01*
X55794Y140834D01*
D02*
G37*
G36*
X45915Y140352D02*
X45337Y140237D01*
X44846Y139909D01*
X44519Y139419D01*
X44404Y138840D01*
X44519Y138262D01*
X44846Y137771D01*
X45337Y137443D01*
X45915Y137328D01*
X46494Y137443D01*
X46984Y137771D01*
X47312Y138262D01*
X47427Y138840D01*
X47312Y139419D01*
X46984Y139909D01*
X46494Y140237D01*
X45915Y140352D01*
D02*
G37*
G36*
X58550Y134836D02*
X57972Y134721D01*
X57481Y134393D01*
X57154Y133903D01*
X57039Y133324D01*
X57154Y132746D01*
X57481Y132255D01*
X57972Y131928D01*
X58550Y131813D01*
X59129Y131928D01*
X59619Y132255D01*
X59947Y132746D01*
X60062Y133324D01*
X59947Y133903D01*
X59619Y134393D01*
X59129Y134721D01*
X58550Y134836D01*
D02*
G37*
G36*
X24685Y115410D02*
X23784Y115292D01*
X22945Y114944D01*
X22224Y114391D01*
X21670Y113670D01*
X21323Y112830D01*
X21204Y111929D01*
X21323Y111028D01*
X21670Y110189D01*
X22224Y109468D01*
X22945Y108914D01*
X23784Y108567D01*
X24685Y108448D01*
X25586Y108567D01*
X26425Y108914D01*
X27146Y109468D01*
X27700Y110189D01*
X28047Y111028D01*
X28166Y111929D01*
X28047Y112830D01*
X27700Y113670D01*
X27146Y114391D01*
X26425Y114944D01*
X25586Y115292D01*
X24685Y115410D01*
D02*
G37*
G36*
X14685D02*
X13784Y115292D01*
X12945Y114944D01*
X12224Y114391D01*
X11670Y113670D01*
X11323Y112830D01*
X11204Y111929D01*
X11323Y111028D01*
X11670Y110189D01*
X12224Y109468D01*
X12945Y108914D01*
X13784Y108567D01*
X14685Y108448D01*
X15586Y108567D01*
X16425Y108914D01*
X17146Y109468D01*
X17700Y110189D01*
X18047Y111028D01*
X18166Y111929D01*
X18047Y112830D01*
X17700Y113670D01*
X17146Y114391D01*
X16425Y114944D01*
X15586Y115292D01*
X14685Y115410D01*
D02*
G37*
G36*
X24685Y105410D02*
X23784Y105291D01*
X22945Y104944D01*
X22224Y104391D01*
X21670Y103670D01*
X21323Y102830D01*
X21204Y101929D01*
X21323Y101028D01*
X21670Y100189D01*
X22224Y99468D01*
X22945Y98914D01*
X23784Y98567D01*
X24685Y98448D01*
X25586Y98567D01*
X26425Y98914D01*
X27146Y99468D01*
X27700Y100189D01*
X28047Y101028D01*
X28166Y101929D01*
X28047Y102830D01*
X27700Y103670D01*
X27146Y104391D01*
X26425Y104944D01*
X25586Y105291D01*
X24685Y105410D01*
D02*
G37*
G36*
X14685D02*
X13784Y105291D01*
X12945Y104944D01*
X12224Y104391D01*
X11670Y103670D01*
X11323Y102830D01*
X11204Y101929D01*
X11323Y101028D01*
X11670Y100189D01*
X12224Y99468D01*
X12945Y98914D01*
X13784Y98567D01*
X14685Y98448D01*
X15586Y98567D01*
X16425Y98914D01*
X17146Y99468D01*
X17700Y100189D01*
X18047Y101028D01*
X18166Y101929D01*
X18047Y102830D01*
X17700Y103670D01*
X17146Y104391D01*
X16425Y104944D01*
X15586Y105291D01*
X14685Y105410D01*
D02*
G37*
G36*
X44500Y100802D02*
X43922Y100687D01*
X43431Y100359D01*
X43103Y99869D01*
X42988Y99290D01*
X43103Y98712D01*
X43431Y98221D01*
X43922Y97894D01*
X44500Y97779D01*
X45079Y97894D01*
X45569Y98221D01*
X45897Y98712D01*
X46012Y99290D01*
X45897Y99869D01*
X45569Y100359D01*
X45079Y100687D01*
X44500Y100802D01*
D02*
G37*
G36*
X24685Y95410D02*
X23784Y95292D01*
X22945Y94944D01*
X22224Y94390D01*
X21670Y93670D01*
X21323Y92830D01*
X21204Y91929D01*
X21323Y91028D01*
X21670Y90189D01*
X22224Y89468D01*
X22945Y88915D01*
X23784Y88567D01*
X24685Y88448D01*
X25586Y88567D01*
X26425Y88915D01*
X27146Y89468D01*
X27700Y90189D01*
X28047Y91028D01*
X28166Y91929D01*
X28047Y92830D01*
X27700Y93670D01*
X27146Y94390D01*
X26425Y94944D01*
X25586Y95292D01*
X24685Y95410D01*
D02*
G37*
G36*
X14685D02*
X13784Y95292D01*
X12945Y94944D01*
X12224Y94390D01*
X11670Y93670D01*
X11323Y92830D01*
X11204Y91929D01*
X11323Y91028D01*
X11670Y90189D01*
X12224Y89468D01*
X12945Y88915D01*
X13784Y88567D01*
X14685Y88448D01*
X15586Y88567D01*
X16425Y88915D01*
X17146Y89468D01*
X17700Y90189D01*
X18047Y91028D01*
X18166Y91929D01*
X18047Y92830D01*
X17700Y93670D01*
X17146Y94390D01*
X16425Y94944D01*
X15586Y95292D01*
X14685Y95410D01*
D02*
G37*
G36*
X56051Y74217D02*
X55473Y74102D01*
X54982Y73774D01*
X54655Y73284D01*
X54540Y72705D01*
X54655Y72127D01*
X54982Y71636D01*
X55473Y71309D01*
X56051Y71194D01*
X56630Y71309D01*
X57120Y71636D01*
X57448Y72127D01*
X57563Y72705D01*
X57448Y73284D01*
X57120Y73774D01*
X56630Y74102D01*
X56051Y74217D01*
D02*
G37*
G36*
X24685Y75410D02*
X23784Y75292D01*
X22945Y74944D01*
X22224Y74391D01*
X21670Y73670D01*
X21323Y72830D01*
X21204Y71929D01*
X21323Y71028D01*
X21670Y70189D01*
X22224Y69468D01*
X22945Y68915D01*
X23784Y68567D01*
X24685Y68448D01*
X25586Y68567D01*
X26425Y68915D01*
X27146Y69468D01*
X27700Y70189D01*
X28047Y71028D01*
X28166Y71929D01*
X28047Y72830D01*
X27700Y73670D01*
X27146Y74391D01*
X26425Y74944D01*
X25586Y75292D01*
X24685Y75410D01*
D02*
G37*
G36*
X14685D02*
X13784Y75292D01*
X12945Y74944D01*
X12224Y74391D01*
X11670Y73670D01*
X11323Y72830D01*
X11204Y71929D01*
X11323Y71028D01*
X11670Y70189D01*
X12224Y69468D01*
X12945Y68915D01*
X13784Y68567D01*
X14685Y68448D01*
X15586Y68567D01*
X16425Y68915D01*
X17146Y69468D01*
X17700Y70189D01*
X18047Y71028D01*
X18166Y71929D01*
X18047Y72830D01*
X17700Y73670D01*
X17146Y74391D01*
X16425Y74944D01*
X15586Y75292D01*
X14685Y75410D01*
D02*
G37*
G36*
X70924Y68705D02*
X70345Y68590D01*
X69854Y68262D01*
X69527Y67772D01*
X69412Y67194D01*
X69527Y66615D01*
X69854Y66124D01*
X70345Y65797D01*
X70924Y65682D01*
X71502Y65797D01*
X71992Y66124D01*
X72320Y66615D01*
X72435Y67194D01*
X72320Y67772D01*
X71992Y68262D01*
X71502Y68590D01*
X70924Y68705D01*
D02*
G37*
G36*
X70969Y62783D02*
X70390Y62668D01*
X69900Y62340D01*
X69572Y61850D01*
X69457Y61271D01*
X69572Y60693D01*
X69900Y60202D01*
X70390Y59875D01*
X70969Y59759D01*
X71547Y59875D01*
X72038Y60202D01*
X72365Y60693D01*
X72480Y61271D01*
X72365Y61850D01*
X72038Y62340D01*
X71547Y62668D01*
X70969Y62783D01*
D02*
G37*
G36*
X24685Y65410D02*
X23784Y65292D01*
X22945Y64944D01*
X22224Y64390D01*
X21670Y63670D01*
X21323Y62830D01*
X21204Y61929D01*
X21323Y61028D01*
X21670Y60189D01*
X22224Y59468D01*
X22945Y58915D01*
X23784Y58567D01*
X24685Y58448D01*
X25586Y58567D01*
X26425Y58915D01*
X27146Y59468D01*
X27700Y60189D01*
X28047Y61028D01*
X28166Y61929D01*
X28047Y62830D01*
X27700Y63670D01*
X27146Y64390D01*
X26425Y64944D01*
X25586Y65292D01*
X24685Y65410D01*
D02*
G37*
G36*
X14685D02*
X13784Y65292D01*
X12945Y64944D01*
X12224Y64390D01*
X11670Y63670D01*
X11323Y62830D01*
X11204Y61929D01*
X11323Y61028D01*
X11670Y60189D01*
X12224Y59468D01*
X12945Y58915D01*
X13784Y58567D01*
X14685Y58448D01*
X15586Y58567D01*
X16425Y58915D01*
X17146Y59468D01*
X17700Y60189D01*
X18047Y61028D01*
X18166Y61929D01*
X18047Y62830D01*
X17700Y63670D01*
X17146Y64390D01*
X16425Y64944D01*
X15586Y65292D01*
X14685Y65410D01*
D02*
G37*
G36*
X55886Y57271D02*
X55307Y57156D01*
X54817Y56828D01*
X54489Y56338D01*
X54374Y55759D01*
X54489Y55181D01*
X54817Y54690D01*
X55307Y54363D01*
X55886Y54248D01*
X56464Y54363D01*
X56955Y54690D01*
X57282Y55181D01*
X57397Y55759D01*
X57282Y56338D01*
X56955Y56828D01*
X56464Y57156D01*
X55886Y57271D01*
D02*
G37*
G36*
X24685Y55410D02*
X23784Y55291D01*
X22945Y54944D01*
X22224Y54391D01*
X21670Y53670D01*
X21323Y52830D01*
X21204Y51929D01*
X21323Y51028D01*
X21670Y50189D01*
X22224Y49468D01*
X22945Y48915D01*
X23784Y48567D01*
X24685Y48448D01*
X25586Y48567D01*
X26425Y48915D01*
X27146Y49468D01*
X27700Y50189D01*
X28047Y51028D01*
X28166Y51929D01*
X28047Y52830D01*
X27700Y53670D01*
X27146Y54391D01*
X26425Y54944D01*
X25586Y55291D01*
X24685Y55410D01*
D02*
G37*
G36*
X14685D02*
X13784Y55291D01*
X12945Y54944D01*
X12224Y54391D01*
X11670Y53670D01*
X11323Y52830D01*
X11204Y51929D01*
X11323Y51028D01*
X11670Y50189D01*
X12224Y49468D01*
X12945Y48915D01*
X13784Y48567D01*
X14685Y48448D01*
X15586Y48567D01*
X16425Y48915D01*
X17146Y49468D01*
X17700Y50189D01*
X18047Y51028D01*
X18166Y51929D01*
X18047Y52830D01*
X17700Y53670D01*
X17146Y54391D01*
X16425Y54944D01*
X15586Y55291D01*
X14685Y55410D01*
D02*
G37*
G36*
X18136Y45380D02*
X11234D01*
Y38478D01*
X18136D01*
Y45380D01*
D02*
G37*
G36*
X24685Y45410D02*
X23784Y45292D01*
X22945Y44944D01*
X22224Y44390D01*
X21670Y43670D01*
X21323Y42830D01*
X21204Y41929D01*
X21323Y41028D01*
X21670Y40189D01*
X22224Y39468D01*
X22945Y38914D01*
X23784Y38567D01*
X24685Y38448D01*
X25586Y38567D01*
X26425Y38914D01*
X27146Y39468D01*
X27700Y40189D01*
X28047Y41028D01*
X28166Y41929D01*
X28047Y42830D01*
X27700Y43670D01*
X27146Y44390D01*
X26425Y44944D01*
X25586Y45292D01*
X24685Y45410D01*
D02*
G37*
G36*
X19685Y33908D02*
X17460Y33733D01*
X15290Y33212D01*
X13228Y32358D01*
X11325Y31192D01*
X9628Y29743D01*
X8178Y28045D01*
X7012Y26142D01*
X6158Y24080D01*
X5637Y21910D01*
X5462Y19685D01*
X5637Y17460D01*
X6158Y15290D01*
X7012Y13228D01*
X8178Y11325D01*
X9628Y9628D01*
X11325Y8178D01*
X13228Y7012D01*
X15290Y6158D01*
X17460Y5637D01*
X19685Y5462D01*
X21910Y5637D01*
X24080Y6158D01*
X26142Y7012D01*
X28045Y8178D01*
X29743Y9628D01*
X31192Y11325D01*
X32358Y13228D01*
X33212Y15290D01*
X33733Y17460D01*
X33908Y19685D01*
X33733Y21910D01*
X33212Y24080D01*
X32358Y26142D01*
X31192Y28045D01*
X29743Y29743D01*
X28045Y31192D01*
X26142Y32358D01*
X24080Y33212D01*
X21910Y33733D01*
X19685Y33908D01*
D02*
G37*
G36*
X134900Y215212D02*
X134321Y215097D01*
X133831Y214769D01*
X133503Y214279D01*
X133388Y213700D01*
X133503Y213122D01*
X133831Y212631D01*
X134321Y212303D01*
X134900Y212188D01*
X135478Y212303D01*
X135969Y212631D01*
X136297Y213122D01*
X136412Y213700D01*
X136297Y214279D01*
X135969Y214769D01*
X135478Y215097D01*
X134900Y215212D01*
D02*
G37*
G36*
X175900Y214912D02*
X175321Y214797D01*
X174831Y214469D01*
X174503Y213979D01*
X174388Y213400D01*
X174503Y212822D01*
X174831Y212331D01*
X175321Y212003D01*
X175900Y211888D01*
X176479Y212003D01*
X176969Y212331D01*
X177297Y212822D01*
X177412Y213400D01*
X177297Y213979D01*
X176969Y214469D01*
X176479Y214797D01*
X175900Y214912D01*
D02*
G37*
G36*
X131100Y214612D02*
X130522Y214497D01*
X130031Y214169D01*
X129703Y213679D01*
X129588Y213100D01*
X129703Y212522D01*
X130031Y212031D01*
X130522Y211703D01*
X131100Y211588D01*
X131678Y211703D01*
X132169Y212031D01*
X132497Y212522D01*
X132612Y213100D01*
X132497Y213679D01*
X132169Y214169D01*
X131678Y214497D01*
X131100Y214612D01*
D02*
G37*
G36*
X190100Y214212D02*
X189522Y214097D01*
X189031Y213769D01*
X188703Y213279D01*
X188588Y212700D01*
X188703Y212122D01*
X189031Y211631D01*
X189522Y211303D01*
X190100Y211188D01*
X190679Y211303D01*
X191169Y211631D01*
X191497Y212122D01*
X191612Y212700D01*
X191497Y213279D01*
X191169Y213769D01*
X190679Y214097D01*
X190100Y214212D01*
D02*
G37*
G36*
X159800Y213912D02*
X159221Y213797D01*
X158731Y213469D01*
X158403Y212979D01*
X158288Y212400D01*
X158403Y211822D01*
X158731Y211331D01*
X159221Y211003D01*
X159800Y210888D01*
X160379Y211003D01*
X160869Y211331D01*
X161197Y211822D01*
X161312Y212400D01*
X161197Y212979D01*
X160869Y213469D01*
X160379Y213797D01*
X159800Y213912D01*
D02*
G37*
G36*
X153200Y211412D02*
X152621Y211297D01*
X152131Y210969D01*
X151803Y210478D01*
X151688Y209900D01*
X151803Y209321D01*
X152131Y208831D01*
X152621Y208503D01*
X153200Y208388D01*
X153779Y208503D01*
X154269Y208831D01*
X154597Y209321D01*
X154712Y209900D01*
X154597Y210478D01*
X154269Y210969D01*
X153779Y211297D01*
X153200Y211412D01*
D02*
G37*
G36*
X165100Y196712D02*
X164522Y196597D01*
X164031Y196269D01*
X163703Y195779D01*
X163588Y195200D01*
X163703Y194622D01*
X164031Y194131D01*
X164522Y193803D01*
X165100Y193688D01*
X165679Y193803D01*
X166169Y194131D01*
X166497Y194622D01*
X166612Y195200D01*
X166497Y195779D01*
X166169Y196269D01*
X165679Y196597D01*
X165100Y196712D01*
D02*
G37*
G36*
X153200Y193812D02*
X152621Y193697D01*
X152131Y193369D01*
X151803Y192878D01*
X151688Y192300D01*
X151803Y191721D01*
X152131Y191231D01*
X152621Y190903D01*
X153200Y190788D01*
X153779Y190903D01*
X154269Y191231D01*
X154597Y191721D01*
X154712Y192300D01*
X154597Y192878D01*
X154269Y193369D01*
X153779Y193697D01*
X153200Y193812D01*
D02*
G37*
G36*
X193400Y193412D02*
X192822Y193297D01*
X192331Y192969D01*
X192003Y192479D01*
X191888Y191900D01*
X192003Y191322D01*
X192331Y190831D01*
X192822Y190503D01*
X193400Y190388D01*
X193979Y190503D01*
X194469Y190831D01*
X194797Y191322D01*
X194912Y191900D01*
X194797Y192479D01*
X194469Y192969D01*
X193979Y193297D01*
X193400Y193412D01*
D02*
G37*
G36*
X125000Y188312D02*
X124422Y188197D01*
X123931Y187869D01*
X123603Y187379D01*
X123488Y186800D01*
X123603Y186222D01*
X123931Y185731D01*
X124422Y185403D01*
X125000Y185288D01*
X125578Y185403D01*
X126069Y185731D01*
X126397Y186222D01*
X126512Y186800D01*
X126397Y187379D01*
X126069Y187869D01*
X125578Y188197D01*
X125000Y188312D01*
D02*
G37*
G36*
X183000Y185312D02*
X182422Y185197D01*
X181931Y184869D01*
X181715Y184545D01*
X181204Y184496D01*
X181139Y184515D01*
X180969Y184769D01*
X180479Y185097D01*
X179900Y185212D01*
X179322Y185097D01*
X178831Y184769D01*
X178503Y184279D01*
X178388Y183700D01*
X178503Y183122D01*
X178831Y182631D01*
X179322Y182303D01*
X179900Y182188D01*
X180479Y182303D01*
X180969Y182631D01*
X181185Y182955D01*
X181696Y183004D01*
X181761Y182985D01*
X181931Y182731D01*
X182422Y182403D01*
X183000Y182288D01*
X183579Y182403D01*
X184069Y182731D01*
X184397Y183221D01*
X184512Y183800D01*
X184397Y184379D01*
X184069Y184869D01*
X183579Y185197D01*
X183000Y185312D01*
D02*
G37*
G36*
X143800Y185412D02*
X143221Y185297D01*
X142731Y184969D01*
X142403Y184478D01*
X142288Y183900D01*
X142403Y183321D01*
X142731Y182831D01*
X143221Y182503D01*
X143800Y182388D01*
X144378Y182503D01*
X144869Y182831D01*
X145197Y183321D01*
X145312Y183900D01*
X145197Y184478D01*
X144869Y184969D01*
X144378Y185297D01*
X143800Y185412D01*
D02*
G37*
G36*
X139300D02*
X138722Y185297D01*
X138231Y184969D01*
X137903Y184478D01*
X137788Y183900D01*
X137903Y183321D01*
X138231Y182831D01*
X138722Y182503D01*
X139300Y182388D01*
X139878Y182503D01*
X140369Y182831D01*
X140697Y183321D01*
X140812Y183900D01*
X140697Y184478D01*
X140369Y184969D01*
X139878Y185297D01*
X139300Y185412D01*
D02*
G37*
G36*
X168713Y185424D02*
X168134Y185309D01*
X167644Y184982D01*
X167316Y184491D01*
X167201Y183913D01*
X167316Y183334D01*
X167644Y182844D01*
X168134Y182516D01*
X168713Y182401D01*
X169291Y182516D01*
X169781Y182844D01*
X169817Y182896D01*
X170319Y182747D01*
X170403Y182322D01*
X170731Y181831D01*
X171221Y181503D01*
X171800Y181388D01*
X172379Y181503D01*
X172869Y181831D01*
X173197Y182322D01*
X173205Y182364D01*
X173607Y182410D01*
X173721Y182395D01*
X174031Y181931D01*
X174522Y181603D01*
X175100Y181488D01*
X175679Y181603D01*
X176169Y181931D01*
X176497Y182422D01*
X176612Y183000D01*
X176497Y183579D01*
X176169Y184069D01*
X175679Y184397D01*
X175100Y184512D01*
X174522Y184397D01*
X174031Y184069D01*
X173703Y183579D01*
X173695Y183536D01*
X173293Y183490D01*
X173179Y183505D01*
X172869Y183969D01*
X172379Y184297D01*
X171800Y184412D01*
X171221Y184297D01*
X170731Y183969D01*
X170696Y183917D01*
X170194Y184065D01*
X170109Y184491D01*
X169781Y184982D01*
X169291Y185309D01*
X168713Y185424D01*
D02*
G37*
G36*
X135300Y182312D02*
X134722Y182197D01*
X134231Y181869D01*
X133903Y181378D01*
X133798Y180851D01*
X133599Y180704D01*
X133325Y180566D01*
X133279Y180597D01*
X132700Y180712D01*
X132122Y180597D01*
X131631Y180269D01*
X131303Y179779D01*
X131188Y179200D01*
X131303Y178621D01*
X131631Y178131D01*
X132122Y177803D01*
X132700Y177688D01*
X133279Y177803D01*
X133769Y178131D01*
X134097Y178621D01*
X134202Y179149D01*
X134400Y179296D01*
X134675Y179435D01*
X134722Y179403D01*
X135300Y179288D01*
X135879Y179403D01*
X136369Y179731D01*
X136697Y180221D01*
X136812Y180800D01*
X136697Y181378D01*
X136369Y181869D01*
X135879Y182197D01*
X135300Y182312D01*
D02*
G37*
G36*
X129200Y183312D02*
X128621Y183197D01*
X128131Y182869D01*
X127803Y182378D01*
X127688Y181800D01*
X127803Y181221D01*
X128131Y180731D01*
X128621Y180403D01*
X129200Y180288D01*
X129779Y180403D01*
X130269Y180731D01*
X130597Y181221D01*
X130712Y181800D01*
X130597Y182378D01*
X130269Y182869D01*
X129779Y183197D01*
X129200Y183312D01*
D02*
G37*
G36*
X159772Y181279D02*
X159193Y181164D01*
X158703Y180836D01*
X158375Y180346D01*
X158260Y179767D01*
X158375Y179189D01*
X158703Y178699D01*
X159193Y178371D01*
X159772Y178256D01*
X160350Y178371D01*
X160841Y178699D01*
X161169Y179189D01*
X161284Y179767D01*
X161169Y180346D01*
X160841Y180836D01*
X160350Y181164D01*
X159772Y181279D01*
D02*
G37*
G36*
X152095D02*
X151516Y181164D01*
X151026Y180836D01*
X150698Y180346D01*
X150583Y179767D01*
X150698Y179189D01*
X151026Y178699D01*
X151516Y178371D01*
X152095Y178256D01*
X152673Y178371D01*
X153164Y178699D01*
X153491Y179189D01*
X153606Y179767D01*
X153491Y180346D01*
X153164Y180836D01*
X152673Y181164D01*
X152095Y181279D01*
D02*
G37*
G36*
X144103Y179883D02*
X143525Y179767D01*
X143034Y179440D01*
X142706Y178949D01*
X142591Y178371D01*
X142706Y177792D01*
X143034Y177302D01*
X143525Y176974D01*
X144103Y176859D01*
X144682Y176974D01*
X145172Y177302D01*
X145500Y177792D01*
X145615Y178371D01*
X145500Y178949D01*
X145172Y179440D01*
X144682Y179767D01*
X144103Y179883D01*
D02*
G37*
G36*
X123700Y170912D02*
X123122Y170797D01*
X122631Y170469D01*
X122303Y169978D01*
X122188Y169400D01*
X122303Y168822D01*
X122631Y168331D01*
X123122Y168003D01*
X123700Y167888D01*
X124278Y168003D01*
X124769Y168331D01*
X125097Y168822D01*
X125212Y169400D01*
X125097Y169978D01*
X124769Y170469D01*
X124278Y170797D01*
X123700Y170912D01*
D02*
G37*
G36*
X169221Y169512D02*
X168642Y169397D01*
X168152Y169069D01*
X167824Y168579D01*
X167709Y168000D01*
X167824Y167421D01*
X168152Y166931D01*
X168642Y166603D01*
X169221Y166488D01*
X169799Y166603D01*
X170290Y166931D01*
X170617Y167421D01*
X170732Y168000D01*
X170617Y168579D01*
X170290Y169069D01*
X169799Y169397D01*
X169221Y169512D01*
D02*
G37*
G36*
X123700Y164012D02*
X123122Y163897D01*
X122631Y163569D01*
X122303Y163078D01*
X122188Y162500D01*
X122303Y161922D01*
X122631Y161431D01*
X123122Y161103D01*
X123700Y160988D01*
X124278Y161103D01*
X124769Y161431D01*
X125097Y161922D01*
X125212Y162500D01*
X125097Y163078D01*
X124769Y163569D01*
X124278Y163897D01*
X123700Y164012D01*
D02*
G37*
G36*
X144378Y156912D02*
X143800Y156797D01*
X143310Y156469D01*
X142982Y155979D01*
X142867Y155400D01*
X142982Y154822D01*
X143310Y154331D01*
X143800Y154003D01*
X144378Y153888D01*
X144957Y154003D01*
X145448Y154331D01*
X145775Y154822D01*
X145890Y155400D01*
X145775Y155979D01*
X145448Y156469D01*
X144957Y156797D01*
X144378Y156912D01*
D02*
G37*
G36*
X165679Y140304D02*
X165100Y140189D01*
X164610Y139861D01*
X164282Y139371D01*
X164167Y138792D01*
X164282Y138214D01*
X164610Y137723D01*
X165100Y137395D01*
X165679Y137280D01*
X166257Y137395D01*
X166747Y137723D01*
X167075Y138214D01*
X167190Y138792D01*
X167075Y139371D01*
X166747Y139861D01*
X166257Y140189D01*
X165679Y140304D01*
D02*
G37*
G36*
X103523Y134610D02*
X102944Y134495D01*
X102453Y134168D01*
X102126Y133677D01*
X102011Y133098D01*
X102126Y132520D01*
X102453Y132029D01*
X102944Y131702D01*
X103523Y131587D01*
X104101Y131702D01*
X104592Y132029D01*
X104919Y132520D01*
X105034Y133098D01*
X104919Y133677D01*
X104592Y134168D01*
X104101Y134495D01*
X103523Y134610D01*
D02*
G37*
G36*
X149482Y131512D02*
X148903Y131397D01*
X148413Y131069D01*
X148085Y130578D01*
X147970Y130000D01*
X148085Y129421D01*
X148413Y128931D01*
X148903Y128603D01*
X149482Y128488D01*
X150060Y128603D01*
X150551Y128931D01*
X150878Y129421D01*
X150994Y130000D01*
X150878Y130578D01*
X150551Y131069D01*
X150060Y131397D01*
X149482Y131512D01*
D02*
G37*
G36*
X182165Y115410D02*
X181264Y115292D01*
X180424Y114944D01*
X179703Y114391D01*
X179150Y113670D01*
X178803Y112830D01*
X178684Y111929D01*
X178803Y111028D01*
X179150Y110189D01*
X179703Y109468D01*
X180424Y108914D01*
X181264Y108567D01*
X182165Y108448D01*
X183066Y108567D01*
X183905Y108914D01*
X184626Y109468D01*
X185180Y110189D01*
X185527Y111028D01*
X185646Y111929D01*
X185527Y112830D01*
X185180Y113670D01*
X184626Y114391D01*
X183905Y114944D01*
X183066Y115292D01*
X182165Y115410D01*
D02*
G37*
G36*
X172165D02*
X171264Y115292D01*
X170424Y114944D01*
X169703Y114391D01*
X169150Y113670D01*
X168803Y112830D01*
X168684Y111929D01*
X168803Y111028D01*
X169150Y110189D01*
X169703Y109468D01*
X170424Y108914D01*
X171264Y108567D01*
X172165Y108448D01*
X173066Y108567D01*
X173905Y108914D01*
X174626Y109468D01*
X175180Y110189D01*
X175527Y111028D01*
X175646Y111929D01*
X175527Y112830D01*
X175180Y113670D01*
X174626Y114391D01*
X173905Y114944D01*
X173066Y115292D01*
X172165Y115410D01*
D02*
G37*
G36*
X118858Y107469D02*
X118280Y107354D01*
X117789Y107027D01*
X117462Y106536D01*
X117347Y105958D01*
X117462Y105379D01*
X117789Y104889D01*
X118280Y104561D01*
X118858Y104446D01*
X119437Y104561D01*
X119927Y104889D01*
X120255Y105379D01*
X120370Y105958D01*
X120255Y106536D01*
X119927Y107027D01*
X119437Y107354D01*
X118858Y107469D01*
D02*
G37*
G36*
X182165Y105410D02*
X181264Y105291D01*
X180424Y104944D01*
X179703Y104391D01*
X179150Y103670D01*
X178803Y102830D01*
X178684Y101929D01*
X178803Y101028D01*
X179150Y100189D01*
X179703Y99468D01*
X180424Y98914D01*
X181264Y98567D01*
X182165Y98448D01*
X183066Y98567D01*
X183905Y98914D01*
X184626Y99468D01*
X185180Y100189D01*
X185527Y101028D01*
X185646Y101929D01*
X185527Y102830D01*
X185180Y103670D01*
X184626Y104391D01*
X183905Y104944D01*
X183066Y105291D01*
X182165Y105410D01*
D02*
G37*
G36*
X172165D02*
X171264Y105291D01*
X170424Y104944D01*
X169703Y104391D01*
X169150Y103670D01*
X168803Y102830D01*
X168684Y101929D01*
X168803Y101028D01*
X169150Y100189D01*
X169703Y99468D01*
X170424Y98914D01*
X171264Y98567D01*
X172165Y98448D01*
X173066Y98567D01*
X173905Y98914D01*
X174626Y99468D01*
X175180Y100189D01*
X175527Y101028D01*
X175646Y101929D01*
X175527Y102830D01*
X175180Y103670D01*
X174626Y104391D01*
X173905Y104944D01*
X173066Y105291D01*
X172165Y105410D01*
D02*
G37*
G36*
X107800Y100712D02*
X107221Y100597D01*
X106731Y100269D01*
X106403Y99778D01*
X106288Y99200D01*
X106403Y98621D01*
X106731Y98131D01*
X107221Y97803D01*
X107800Y97688D01*
X108379Y97803D01*
X108869Y98131D01*
X109197Y98621D01*
X109312Y99200D01*
X109197Y99778D01*
X108869Y100269D01*
X108379Y100597D01*
X107800Y100712D01*
D02*
G37*
G36*
X182165Y95410D02*
X181264Y95292D01*
X180424Y94944D01*
X179703Y94390D01*
X179150Y93670D01*
X178803Y92830D01*
X178684Y91929D01*
X178803Y91028D01*
X179150Y90189D01*
X179703Y89468D01*
X180424Y88915D01*
X181264Y88567D01*
X182165Y88448D01*
X183066Y88567D01*
X183905Y88915D01*
X184626Y89468D01*
X185180Y90189D01*
X185527Y91028D01*
X185646Y91929D01*
X185527Y92830D01*
X185180Y93670D01*
X184626Y94390D01*
X183905Y94944D01*
X183066Y95292D01*
X182165Y95410D01*
D02*
G37*
G36*
X172165D02*
X171264Y95292D01*
X170424Y94944D01*
X169703Y94390D01*
X169150Y93670D01*
X168803Y92830D01*
X168684Y91929D01*
X168803Y91028D01*
X169150Y90189D01*
X169703Y89468D01*
X170424Y88915D01*
X171264Y88567D01*
X172165Y88448D01*
X173066Y88567D01*
X173905Y88915D01*
X174626Y89468D01*
X175180Y90189D01*
X175527Y91028D01*
X175646Y91929D01*
X175527Y92830D01*
X175180Y93670D01*
X174626Y94390D01*
X173905Y94944D01*
X173066Y95292D01*
X172165Y95410D01*
D02*
G37*
G36*
X103351Y74186D02*
X102773Y74071D01*
X102282Y73743D01*
X101954Y73253D01*
X101839Y72674D01*
X101954Y72096D01*
X102282Y71605D01*
X102773Y71278D01*
X103351Y71163D01*
X103930Y71278D01*
X104420Y71605D01*
X104748Y72096D01*
X104863Y72674D01*
X104748Y73253D01*
X104420Y73743D01*
X103930Y74071D01*
X103351Y74186D01*
D02*
G37*
G36*
X182165Y75410D02*
X181264Y75292D01*
X180424Y74944D01*
X179703Y74391D01*
X179150Y73670D01*
X178803Y72830D01*
X178684Y71929D01*
X178803Y71028D01*
X179150Y70189D01*
X179703Y69468D01*
X180424Y68915D01*
X181264Y68567D01*
X182165Y68448D01*
X183066Y68567D01*
X183905Y68915D01*
X184626Y69468D01*
X185180Y70189D01*
X185527Y71028D01*
X185646Y71929D01*
X185527Y72830D01*
X185180Y73670D01*
X184626Y74391D01*
X183905Y74944D01*
X183066Y75292D01*
X182165Y75410D01*
D02*
G37*
G36*
X172165D02*
X171264Y75292D01*
X170424Y74944D01*
X169703Y74391D01*
X169150Y73670D01*
X168803Y72830D01*
X168684Y71929D01*
X168803Y71028D01*
X169150Y70189D01*
X169703Y69468D01*
X170424Y68915D01*
X171264Y68567D01*
X172165Y68448D01*
X173066Y68567D01*
X173905Y68915D01*
X174626Y69468D01*
X175180Y70189D01*
X175527Y71028D01*
X175646Y71929D01*
X175527Y72830D01*
X175180Y73670D01*
X174626Y74391D01*
X173905Y74944D01*
X173066Y75292D01*
X172165Y75410D01*
D02*
G37*
G36*
X112351Y68586D02*
X111773Y68471D01*
X111282Y68143D01*
X110954Y67653D01*
X110839Y67074D01*
X110954Y66496D01*
X111282Y66005D01*
X111773Y65678D01*
X112351Y65563D01*
X112930Y65678D01*
X113420Y66005D01*
X113748Y66496D01*
X113863Y67074D01*
X113748Y67653D01*
X113420Y68143D01*
X112930Y68471D01*
X112351Y68586D01*
D02*
G37*
G36*
Y62686D02*
X111773Y62571D01*
X111282Y62243D01*
X110954Y61753D01*
X110839Y61174D01*
X110954Y60596D01*
X111282Y60105D01*
X111773Y59778D01*
X112351Y59663D01*
X112930Y59778D01*
X113420Y60105D01*
X113748Y60596D01*
X113863Y61174D01*
X113748Y61753D01*
X113420Y62243D01*
X112930Y62571D01*
X112351Y62686D01*
D02*
G37*
G36*
X182165Y65410D02*
X181264Y65292D01*
X180424Y64944D01*
X179703Y64390D01*
X179150Y63670D01*
X178803Y62830D01*
X178684Y61929D01*
X178803Y61028D01*
X179150Y60189D01*
X179703Y59468D01*
X180424Y58915D01*
X181264Y58567D01*
X182165Y58448D01*
X183066Y58567D01*
X183905Y58915D01*
X184626Y59468D01*
X185180Y60189D01*
X185527Y61028D01*
X185646Y61929D01*
X185527Y62830D01*
X185180Y63670D01*
X184626Y64390D01*
X183905Y64944D01*
X183066Y65292D01*
X182165Y65410D01*
D02*
G37*
G36*
X172165D02*
X171264Y65292D01*
X170424Y64944D01*
X169703Y64390D01*
X169150Y63670D01*
X168803Y62830D01*
X168684Y61929D01*
X168803Y61028D01*
X169150Y60189D01*
X169703Y59468D01*
X170424Y58915D01*
X171264Y58567D01*
X172165Y58448D01*
X173066Y58567D01*
X173905Y58915D01*
X174626Y59468D01*
X175180Y60189D01*
X175527Y61028D01*
X175646Y61929D01*
X175527Y62830D01*
X175180Y63670D01*
X174626Y64390D01*
X173905Y64944D01*
X173066Y65292D01*
X172165Y65410D01*
D02*
G37*
G36*
X103351Y57130D02*
X102773Y57015D01*
X102282Y56687D01*
X101954Y56197D01*
X101839Y55619D01*
X101954Y55040D01*
X102282Y54549D01*
X102773Y54222D01*
X103351Y54107D01*
X103930Y54222D01*
X104420Y54549D01*
X104748Y55040D01*
X104863Y55619D01*
X104748Y56197D01*
X104420Y56687D01*
X103930Y57015D01*
X103351Y57130D01*
D02*
G37*
G36*
X182165Y55410D02*
X181264Y55291D01*
X180424Y54944D01*
X179703Y54391D01*
X179150Y53670D01*
X178803Y52830D01*
X178684Y51929D01*
X178803Y51028D01*
X179150Y50189D01*
X179703Y49468D01*
X180424Y48915D01*
X181264Y48567D01*
X182165Y48448D01*
X183066Y48567D01*
X183905Y48915D01*
X184626Y49468D01*
X185180Y50189D01*
X185527Y51028D01*
X185646Y51929D01*
X185527Y52830D01*
X185180Y53670D01*
X184626Y54391D01*
X183905Y54944D01*
X183066Y55291D01*
X182165Y55410D01*
D02*
G37*
G36*
X172165D02*
X171264Y55291D01*
X170424Y54944D01*
X169703Y54391D01*
X169150Y53670D01*
X168803Y52830D01*
X168684Y51929D01*
X168803Y51028D01*
X169150Y50189D01*
X169703Y49468D01*
X170424Y48915D01*
X171264Y48567D01*
X172165Y48448D01*
X173066Y48567D01*
X173905Y48915D01*
X174626Y49468D01*
X175180Y50189D01*
X175527Y51028D01*
X175646Y51929D01*
X175527Y52830D01*
X175180Y53670D01*
X174626Y54391D01*
X173905Y54944D01*
X173066Y55291D01*
X172165Y55410D01*
D02*
G37*
G36*
X175616Y45380D02*
X168714D01*
Y38478D01*
X175616D01*
Y45380D01*
D02*
G37*
G36*
X182165Y45410D02*
X181264Y45292D01*
X180424Y44944D01*
X179703Y44390D01*
X179150Y43670D01*
X178803Y42830D01*
X178684Y41929D01*
X178803Y41028D01*
X179150Y40189D01*
X179703Y39468D01*
X180424Y38914D01*
X181264Y38567D01*
X182165Y38448D01*
X183066Y38567D01*
X183905Y38914D01*
X184626Y39468D01*
X185180Y40189D01*
X185527Y41028D01*
X185646Y41929D01*
X185527Y42830D01*
X185180Y43670D01*
X184626Y44390D01*
X183905Y44944D01*
X183066Y45292D01*
X182165Y45410D01*
D02*
G37*
G36*
X177165Y33908D02*
X174940Y33733D01*
X172770Y33212D01*
X170708Y32358D01*
X168805Y31192D01*
X167107Y29743D01*
X165658Y28045D01*
X164492Y26142D01*
X163638Y24080D01*
X163117Y21910D01*
X162942Y19685D01*
X163117Y17460D01*
X163638Y15290D01*
X164492Y13228D01*
X165658Y11325D01*
X167107Y9628D01*
X168805Y8178D01*
X170708Y7012D01*
X172770Y6158D01*
X174940Y5637D01*
X177165Y5462D01*
X179390Y5637D01*
X181560Y6158D01*
X183622Y7012D01*
X185525Y8178D01*
X187223Y9628D01*
X188672Y11325D01*
X189838Y13228D01*
X190692Y15290D01*
X191213Y17460D01*
X191388Y19685D01*
X191213Y21910D01*
X190692Y24080D01*
X189838Y26142D01*
X188672Y28045D01*
X187223Y29743D01*
X185525Y31192D01*
X183622Y32358D01*
X181560Y33212D01*
X179390Y33733D01*
X177165Y33908D01*
D02*
G37*
%LPD*%
D12*
X15731Y355500D02*
Y360500D01*
X20731Y355500D02*
Y360500D01*
X15731Y365500D02*
X20731D01*
X15731Y360500D02*
X20731D01*
X15731Y355500D02*
X20731D01*
X15731Y350500D02*
X20731D01*
X15731Y365500D02*
Y370500D01*
Y360500D02*
Y365500D01*
Y350500D02*
Y355500D01*
X20731Y365500D02*
Y370500D01*
Y360500D02*
Y365500D01*
Y350500D02*
Y355500D01*
X15731Y370500D02*
X20731D01*
X190200Y201400D02*
X190300Y201300D01*
X112251Y55674D02*
X112351Y55574D01*
X154546Y186546D02*
X157634Y189634D01*
X153200Y186546D02*
X154546D01*
D40*
X17331Y362367D02*
Y363700D01*
X18664Y362367D01*
X18997D01*
X19331Y362700D01*
Y363366D01*
X18997Y363700D01*
D42*
X172165Y81929D02*
D03*
X182165D02*
D03*
X14685D02*
D03*
X24685D02*
D03*
D46*
X25316Y165488D02*
D03*
X45915Y145516D02*
D03*
X164890Y145762D02*
D03*
X144103Y166000D02*
D03*
X37100Y191854D02*
D03*
X41000Y186500D02*
D03*
X106323Y124599D02*
D03*
X107800Y106000D02*
D03*
X112351Y55574D02*
D03*
Y72674D02*
D03*
X190100Y183000D02*
D03*
Y201300D02*
D03*
X157634Y189634D02*
D03*
X56785Y220215D02*
D03*
X70059Y193600D02*
D03*
X163974Y219715D02*
D03*
X140274D02*
D03*
X153200Y186546D02*
D03*
X149900Y201200D02*
D03*
X121015Y187085D02*
D03*
X34000Y201000D02*
D03*
X70769Y72705D02*
D03*
X70969Y55759D02*
D03*
X53039Y121622D02*
D03*
X44500Y106000D02*
D03*
X33085Y220215D02*
D03*
X4000Y186000D02*
D03*
X70000Y204354D02*
D03*
M02*
