G04*
G04 #@! TF.GenerationSoftware,Altium Limited,Altium Designer,21.4.1 (30)*
G04*
G04 Layer_Color=32768*
%FSLAX25Y25*%
%MOIN*%
G70*
G04*
G04 #@! TF.SameCoordinates,7EEB5CCF-43E0-40BE-B5BA-AD8CC80F1960*
G04*
G04*
G04 #@! TF.FilePolarity,Positive*
G04*
G01*
G75*
%ADD12C,0.01000*%
%ADD14C,0.00600*%
D12*
X221500Y314961D02*
X223500Y308961D01*
X219500D02*
X221500Y314961D01*
X219500Y25685D02*
X221500Y19685D01*
X223500Y25685D01*
X221500Y186817D02*
Y314961D01*
Y19685D02*
Y144629D01*
X177165Y314961D02*
X222500D01*
X177165Y19685D02*
X222500D01*
X171165Y-22000D02*
X177165Y-20000D01*
X171165Y-18000D02*
X177165Y-20000D01*
X19685D02*
X25685Y-18000D01*
X19685Y-20000D02*
X25685Y-22000D01*
X117919Y-20000D02*
X177165D01*
X19685D02*
X75731D01*
X177165Y-21000D02*
Y19685D01*
X19685Y-21000D02*
Y19685D01*
D14*
X219101Y146229D02*
Y150228D01*
X220101D01*
X224099Y146229D01*
X225099D01*
X219101Y156226D02*
Y152227D01*
X222100D01*
X221100Y154227D01*
Y155226D01*
X222100Y156226D01*
X224099D01*
X225099Y155226D01*
Y153227D01*
X224099Y152227D01*
X225099Y158225D02*
X224099D01*
Y159225D01*
X225099D01*
Y158225D01*
X220101Y163224D02*
X219101Y164224D01*
Y166223D01*
X220101Y167222D01*
X224099D01*
X225099Y166223D01*
Y164224D01*
X224099Y163224D01*
X220101D01*
Y169222D02*
X219101Y170221D01*
Y172221D01*
X220101Y173221D01*
X224099D01*
X225099Y172221D01*
Y170221D01*
X224099Y169222D01*
X220101D01*
X225099Y175220D02*
X221100D01*
Y176220D01*
X222100Y177219D01*
X225099D01*
X222100D01*
X221100Y178219D01*
X222100Y179219D01*
X225099D01*
Y181218D02*
X221100D01*
Y182218D01*
X222100Y183217D01*
X225099D01*
X222100D01*
X221100Y184217D01*
X222100Y185217D01*
X225099D01*
X80330Y-23599D02*
Y-17601D01*
X77331Y-20600D01*
X81330D01*
X83329Y-18601D02*
X84329Y-17601D01*
X86328D01*
X87328Y-18601D01*
Y-22599D01*
X86328Y-23599D01*
X84329D01*
X83329Y-22599D01*
Y-18601D01*
X89327Y-23599D02*
Y-22599D01*
X90327D01*
Y-23599D01*
X89327D01*
X94326Y-18601D02*
X95325Y-17601D01*
X97325D01*
X98325Y-18601D01*
Y-22599D01*
X97325Y-23599D01*
X95325D01*
X94326Y-22599D01*
Y-18601D01*
X100324D02*
X101323Y-17601D01*
X103323D01*
X104323Y-18601D01*
Y-22599D01*
X103323Y-23599D01*
X101323D01*
X100324Y-22599D01*
Y-18601D01*
X106322Y-23599D02*
Y-19600D01*
X107322D01*
X108321Y-20600D01*
Y-23599D01*
Y-20600D01*
X109321Y-19600D01*
X110321Y-20600D01*
Y-23599D01*
X112320D02*
Y-19600D01*
X113320D01*
X114319Y-20600D01*
Y-23599D01*
Y-20600D01*
X115319Y-19600D01*
X116319Y-20600D01*
Y-23599D01*
M02*
