G04*
G04 #@! TF.GenerationSoftware,Altium Limited,Altium Designer,21.4.1 (30)*
G04*
G04 Layer_Physical_Order=4*
G04 Layer_Color=16711680*
%FSLAX25Y25*%
%MOIN*%
G70*
G04*
G04 #@! TF.SameCoordinates,7EEB5CCF-43E0-40BE-B5BA-AD8CC80F1960*
G04*
G04*
G04 #@! TF.FilePolarity,Positive*
G04*
G01*
G75*
%ADD12C,0.01000*%
%ADD38C,0.03937*%
%ADD40C,0.00400*%
%ADD41C,0.06890*%
%ADD42C,0.06102*%
%ADD43R,0.06102X0.06102*%
%ADD44C,0.06000*%
%ADD45C,0.27559*%
%ADD46C,0.02165*%
D12*
X15731Y355500D02*
Y360500D01*
Y365500D02*
X20731D01*
X15731Y355500D02*
X20731D01*
Y360500D01*
X15731D02*
X20731D01*
X15731Y350500D02*
Y355500D01*
Y360500D02*
Y365500D01*
Y370500D01*
X20731Y350500D02*
Y355500D01*
Y360500D02*
Y365500D01*
Y370500D01*
X15731D02*
X20731D01*
X15731Y350500D02*
X20731D01*
X140843Y180943D02*
X143800Y183900D01*
X140843Y172900D02*
Y180943D01*
X139108Y171165D02*
X140843Y172900D01*
X172470D01*
X153843Y174649D02*
X170849D01*
X146183Y182310D02*
X153843Y174649D01*
X146183Y182310D02*
Y184887D01*
X149482Y130000D02*
X149536Y129946D01*
Y64558D02*
Y129946D01*
Y64558D02*
X172165Y41929D01*
X144378Y155400D02*
X151085Y162106D01*
X163327D01*
X169221Y168000D01*
X152095Y179767D02*
X159772D01*
X144787Y186283D02*
X146183Y184887D01*
X170849Y174649D02*
X179900Y183700D01*
X172470Y172900D02*
X183000Y183430D01*
X153981Y189917D02*
X163881Y180017D01*
X139817Y189917D02*
X153981D01*
X163881Y180017D02*
X172287D01*
X135300Y185400D02*
X139817Y189917D01*
X154187Y194683D02*
X156853Y192016D01*
X158621D01*
X160017Y189239D02*
X167838Y181417D01*
X160017Y189239D02*
Y190621D01*
X142603Y194683D02*
X154187D01*
X132700Y184780D02*
X142603Y194683D01*
X154767Y196083D02*
X157433Y193417D01*
X159209D01*
X168713Y183913D01*
X142023Y196083D02*
X154767D01*
X129200Y183260D02*
X142023Y196083D01*
X135683Y197483D02*
X155347D01*
X125000Y186800D02*
X135683Y197483D01*
X157629Y195200D02*
X165100D01*
X155347Y197483D02*
X157629Y195200D01*
X158621Y192016D02*
X160017Y190621D01*
X172287Y180017D02*
X175100Y182830D01*
X167838Y181417D02*
X169587D01*
X139108Y94082D02*
Y171165D01*
X137708Y94661D02*
Y172259D01*
X112503Y69457D02*
X137708Y94661D01*
X110624Y69457D02*
X112503D01*
X112351Y67325D02*
X139108Y94082D01*
X112351Y67074D02*
Y67325D01*
X25316Y155400D02*
X27385D01*
X41385Y169400D01*
X50744D01*
X33131Y180403D02*
X40797D01*
X44465Y176899D02*
Y188257D01*
X43487Y175920D02*
X44465Y176899D01*
X22400Y175920D02*
X43487D01*
X17203Y181117D02*
X22400Y175920D01*
X44465Y188257D02*
X45732Y189524D01*
X29763Y182117D02*
X33131Y185486D01*
X23934Y182117D02*
X29763D01*
X20411Y172788D02*
X45147D01*
X10784Y163162D02*
X20411Y172788D01*
X10784Y157745D02*
Y163162D01*
X18173Y176548D02*
X20533Y174188D01*
X45147Y172788D02*
X50554Y178195D01*
Y184332D01*
X46848Y176470D02*
Y185150D01*
X44567Y174188D02*
X46848Y176470D01*
X20533Y174188D02*
X44567D01*
X12383Y181117D02*
X17203D01*
X22552Y183500D02*
X23934Y182117D01*
X8500Y185000D02*
X12383Y181117D01*
X137708Y172259D02*
X139300Y173851D01*
Y183900D01*
X25000Y184500D02*
Y186126D01*
X48731Y189524D02*
X56012Y182243D01*
Y177000D02*
Y182243D01*
X14092Y176548D02*
X18173D01*
X10744Y173200D02*
X14092Y176548D01*
X36401Y195320D02*
X47624D01*
X28959Y187877D02*
X36401Y195320D01*
X28959Y184683D02*
Y187877D01*
X35593Y196720D02*
X48204D01*
X25000Y186126D02*
X35593Y196720D01*
X60688Y183047D02*
Y184236D01*
X48204Y196720D02*
X60688Y184236D01*
X52100Y195148D02*
X64769Y182480D01*
X52100Y195148D02*
Y213100D01*
X64769Y180031D02*
Y182480D01*
X47624Y195320D02*
X55982Y186962D01*
X33131Y185486D02*
Y185547D01*
X36597Y189012D01*
X8317Y170773D02*
X10744Y173200D01*
X64769Y180031D02*
X68700Y176100D01*
X55982Y184318D02*
Y186962D01*
Y184318D02*
X64600Y175700D01*
X118632Y106184D02*
Y200632D01*
Y106184D02*
X118858Y105958D01*
X55794Y76445D02*
X70969Y61271D01*
X55794Y76445D02*
Y139322D01*
X64500Y73617D02*
X70924Y67194D01*
X64500Y73617D02*
Y151500D01*
X108709Y67542D02*
X110624Y69457D01*
X108709Y64817D02*
Y67542D01*
Y64817D02*
X112351Y61174D01*
X8317Y72709D02*
Y170773D01*
Y72709D02*
X13219Y67807D01*
X46637Y192737D02*
Y192937D01*
X42912Y189012D02*
X46637Y192737D01*
X70924Y67084D02*
Y67194D01*
X46818Y189524D02*
X48731D01*
X45732D02*
X46818D01*
X19100Y183500D02*
X22552D01*
X28776Y184500D02*
X28959Y184683D01*
X36597Y189012D02*
X42912D01*
X51785Y213100D02*
X52100D01*
X50202Y214683D02*
X51785Y213100D01*
X171070Y182900D02*
X171800D01*
X169587Y181417D02*
X171070Y182900D01*
X139300Y183900D02*
X141683Y186283D01*
X118632Y200632D02*
X131100Y213100D01*
X183000Y183430D02*
Y183800D01*
X175100Y182830D02*
Y183000D01*
X141683Y186283D02*
X144787D01*
X129200Y181800D02*
Y183260D01*
X135300Y180800D02*
Y185400D01*
X132700Y179200D02*
Y184780D01*
X129200Y181800D02*
X129300Y181700D01*
X132700Y179200D02*
X133000Y179500D01*
X143800Y184100D02*
Y184200D01*
X145747Y211317D02*
X146830Y212400D01*
X132970Y211317D02*
X145747D01*
X131100Y213100D02*
X131187D01*
X132970Y211317D01*
X146830Y212400D02*
X159800D01*
X18617Y213287D02*
X20013Y214683D01*
X17800Y212100D02*
Y212415D01*
X20013Y214683D02*
X50202D01*
X18807Y67807D02*
X24685Y61929D01*
X18617Y213233D02*
Y213287D01*
X17800Y212415D02*
X18617Y213233D01*
X13219Y67807D02*
X18807D01*
D38*
X112644Y383100D02*
D03*
X83243D02*
D03*
X53842D02*
D03*
X142045D02*
D03*
D40*
X17331Y353399D02*
X19331D01*
X18331Y352400D01*
Y353732D01*
D41*
X107362Y327835D02*
D03*
Y317835D02*
D03*
X97362D02*
D03*
Y327835D02*
D03*
X87362Y317835D02*
D03*
Y327835D02*
D03*
X117362D02*
D03*
Y317835D02*
D03*
X66024Y327835D02*
D03*
Y317835D02*
D03*
X56024D02*
D03*
Y327835D02*
D03*
X46024Y317835D02*
D03*
Y327835D02*
D03*
X76024D02*
D03*
Y317835D02*
D03*
D42*
X172165Y51929D02*
D03*
Y61929D02*
D03*
Y71929D02*
D03*
Y81929D02*
D03*
Y91929D02*
D03*
Y101929D02*
D03*
Y111929D02*
D03*
X182165Y41929D02*
D03*
Y51929D02*
D03*
Y61929D02*
D03*
Y71929D02*
D03*
Y81929D02*
D03*
Y91929D02*
D03*
Y101929D02*
D03*
Y111929D02*
D03*
X14685Y51929D02*
D03*
Y61929D02*
D03*
Y71929D02*
D03*
Y81929D02*
D03*
Y91929D02*
D03*
Y101929D02*
D03*
Y111929D02*
D03*
X24685Y41929D02*
D03*
Y51929D02*
D03*
Y61929D02*
D03*
Y71929D02*
D03*
Y81929D02*
D03*
Y91929D02*
D03*
Y101929D02*
D03*
Y111929D02*
D03*
D43*
X172165Y41929D02*
D03*
X14685D02*
D03*
D44*
X112644Y366100D02*
D03*
Y354301D02*
D03*
X83243Y366100D02*
D03*
Y354301D02*
D03*
X53842Y366100D02*
D03*
Y354301D02*
D03*
X142045Y366100D02*
D03*
Y354301D02*
D03*
D45*
X19685Y314961D02*
D03*
X177165D02*
D03*
X19685Y19685D02*
D03*
X177165D02*
D03*
D46*
X45915Y138840D02*
D03*
X25316Y165488D02*
D03*
Y178512D02*
D03*
X45915Y145516D02*
D03*
X144103Y178371D02*
D03*
X149482Y130000D02*
D03*
X144378Y155400D02*
D03*
X169221Y168000D02*
D03*
X164890Y145762D02*
D03*
X159772Y179767D02*
D03*
X152095D02*
D03*
X165679Y138792D02*
D03*
X144103Y166000D02*
D03*
X25316Y155400D02*
D03*
X50744Y169400D02*
D03*
X40797Y180403D02*
D03*
X33120D02*
D03*
X56012Y177000D02*
D03*
X60688Y183047D02*
D03*
X118858Y105958D02*
D03*
X10784Y157745D02*
D03*
X46848Y185150D02*
D03*
X46637Y192937D02*
D03*
X70000Y215854D02*
D03*
X70059Y182273D02*
D03*
X55886Y55759D02*
D03*
X56051Y72705D02*
D03*
X70924Y67194D02*
D03*
X58550Y133324D02*
D03*
X50554Y184332D02*
D03*
X28776Y184500D02*
D03*
X37100Y191854D02*
D03*
X24921Y184500D02*
D03*
X41000Y186500D02*
D03*
X37100Y186146D02*
D03*
X46818Y189524D02*
D03*
X64600Y175700D02*
D03*
X168713Y183913D02*
D03*
X153200Y192300D02*
D03*
X139300Y183900D02*
D03*
X125000Y186800D02*
D03*
X165100Y195200D02*
D03*
X143800Y183900D02*
D03*
X175100Y183000D02*
D03*
X171800Y182900D02*
D03*
X183000Y183800D02*
D03*
X179900Y183700D02*
D03*
X112351Y61174D02*
D03*
Y67074D02*
D03*
X129200Y181800D02*
D03*
X132700Y179200D02*
D03*
X135300Y180800D02*
D03*
X153200Y209900D02*
D03*
X193400Y191900D02*
D03*
X190100Y212700D02*
D03*
X123700Y169400D02*
D03*
Y162500D02*
D03*
X103523Y133098D02*
D03*
X106323Y124599D02*
D03*
X107800Y99200D02*
D03*
Y106000D02*
D03*
X103351Y72674D02*
D03*
Y55619D02*
D03*
X112351Y55574D02*
D03*
Y72674D02*
D03*
X175900Y213400D02*
D03*
X190100Y183000D02*
D03*
X134900Y213700D02*
D03*
X131100Y213100D02*
D03*
X159800Y212400D02*
D03*
X190100Y201300D02*
D03*
X157634Y189634D02*
D03*
X56785Y220215D02*
D03*
X70059Y193600D02*
D03*
X52100Y213100D02*
D03*
X55900Y212800D02*
D03*
X163974Y219715D02*
D03*
X140274D02*
D03*
X153200Y186546D02*
D03*
X149900Y201200D02*
D03*
X121015Y187085D02*
D03*
X10744Y173200D02*
D03*
X17800Y212100D02*
D03*
X21000Y212300D02*
D03*
X34000Y201000D02*
D03*
X70769Y72705D02*
D03*
X19100Y183500D02*
D03*
X16256Y172900D02*
D03*
X70969Y61271D02*
D03*
Y55759D02*
D03*
X53039Y121622D02*
D03*
X68700Y176100D02*
D03*
X37300Y209854D02*
D03*
X64500Y151500D02*
D03*
X55794Y139322D02*
D03*
X8500Y185000D02*
D03*
X44500Y106000D02*
D03*
X33085Y220215D02*
D03*
X44500Y99290D02*
D03*
X4000Y186000D02*
D03*
X70000Y204354D02*
D03*
M02*
