G04*
G04 #@! TF.GenerationSoftware,Altium Limited,Altium Designer,21.4.1 (30)*
G04*
G04 Layer_Color=16711935*
%FSLAX25Y25*%
%MOIN*%
G70*
G04*
G04 #@! TF.SameCoordinates,7EEB5CCF-43E0-40BE-B5BA-AD8CC80F1960*
G04*
G04*
G04 #@! TF.FilePolarity,Positive*
G04*
G01*
G75*
%ADD47C,0.00000*%
%ADD48C,0.00700*%
D47*
X0Y3937D02*
G03*
X3937Y0I3937J0D01*
G01*
X192913D02*
G03*
X196850Y3937I0J3937D01*
G01*
X3937Y393701D02*
G03*
X0Y389764I0J-3937D01*
G01*
X196850D02*
G03*
X192913Y393701I-3937J0D01*
G01*
X196850Y3937D02*
Y389764D01*
X3937Y0D02*
X192913D01*
X3937Y393701D02*
X192913D01*
X0Y3937D02*
Y389764D01*
D48*
X155214Y156641D02*
X158546D01*
X159213Y157308D01*
Y158641D01*
X158546Y159307D01*
X155214D01*
X159213Y163306D02*
Y160640D01*
X156547Y163306D01*
X155881D01*
X155214Y162639D01*
Y161307D01*
X155881Y160640D01*
Y164639D02*
X155214Y165305D01*
Y166638D01*
X155881Y167305D01*
X158546D01*
X159213Y166638D01*
Y165305D01*
X158546Y164639D01*
X155881D01*
Y168638D02*
X155214Y169304D01*
Y170637D01*
X155881Y171303D01*
X158546D01*
X159213Y170637D01*
Y169304D01*
X158546Y168638D01*
X155881D01*
X159879Y172636D02*
Y175302D01*
X159213Y179301D02*
Y176635D01*
X156547Y179301D01*
X155881D01*
X155214Y178634D01*
Y177301D01*
X155881Y176635D01*
X36239Y156641D02*
X39572D01*
X40238Y157308D01*
Y158641D01*
X39572Y159307D01*
X36239D01*
X40238Y163306D02*
Y160640D01*
X37572Y163306D01*
X36906D01*
X36239Y162639D01*
Y161307D01*
X36906Y160640D01*
Y164639D02*
X36239Y165305D01*
Y166638D01*
X36906Y167305D01*
X39572D01*
X40238Y166638D01*
Y165305D01*
X39572Y164639D01*
X36906D01*
Y168638D02*
X36239Y169304D01*
Y170637D01*
X36906Y171303D01*
X39572D01*
X40238Y170637D01*
Y169304D01*
X39572Y168638D01*
X36906D01*
X40905Y172636D02*
Y175302D01*
X40238Y176635D02*
Y177968D01*
Y177301D01*
X36239D01*
X36906Y176635D01*
M02*
