G04*
G04 #@! TF.GenerationSoftware,Altium Limited,Altium Designer,21.4.1 (30)*
G04*
G04 Layer_Physical_Order=1*
G04 Layer_Color=255*
%FSLAX25Y25*%
%MOIN*%
G70*
G04*
G04 #@! TF.SameCoordinates,7EEB5CCF-43E0-40BE-B5BA-AD8CC80F1960*
G04*
G04*
G04 #@! TF.FilePolarity,Positive*
G04*
G01*
G75*
%ADD12C,0.01000*%
G04:AMPARAMS|DCode=15|XSize=35.43mil|YSize=27.56mil|CornerRadius=6.89mil|HoleSize=0mil|Usage=FLASHONLY|Rotation=180.000|XOffset=0mil|YOffset=0mil|HoleType=Round|Shape=RoundedRectangle|*
%AMROUNDEDRECTD15*
21,1,0.03543,0.01378,0,0,180.0*
21,1,0.02165,0.02756,0,0,180.0*
1,1,0.01378,-0.01083,0.00689*
1,1,0.01378,0.01083,0.00689*
1,1,0.01378,0.01083,-0.00689*
1,1,0.01378,-0.01083,-0.00689*
%
%ADD15ROUNDEDRECTD15*%
G04:AMPARAMS|DCode=16|XSize=17.72mil|YSize=62.99mil|CornerRadius=1.95mil|HoleSize=0mil|Usage=FLASHONLY|Rotation=180.000|XOffset=0mil|YOffset=0mil|HoleType=Round|Shape=RoundedRectangle|*
%AMROUNDEDRECTD16*
21,1,0.01772,0.05909,0,0,180.0*
21,1,0.01382,0.06299,0,0,180.0*
1,1,0.00390,-0.00691,0.02955*
1,1,0.00390,0.00691,0.02955*
1,1,0.00390,0.00691,-0.02955*
1,1,0.00390,-0.00691,-0.02955*
%
%ADD16ROUNDEDRECTD16*%
%ADD17O,0.01181X0.07677*%
G04:AMPARAMS|DCode=18|XSize=67.5mil|YSize=40mil|CornerRadius=10mil|HoleSize=0mil|Usage=FLASHONLY|Rotation=270.000|XOffset=0mil|YOffset=0mil|HoleType=Round|Shape=RoundedRectangle|*
%AMROUNDEDRECTD18*
21,1,0.06750,0.02000,0,0,270.0*
21,1,0.04750,0.04000,0,0,270.0*
1,1,0.02000,-0.01000,-0.02375*
1,1,0.02000,-0.01000,0.02375*
1,1,0.02000,0.01000,0.02375*
1,1,0.02000,0.01000,-0.02375*
%
%ADD18ROUNDEDRECTD18*%
%ADD19R,0.04000X0.06750*%
G04:AMPARAMS|DCode=20|XSize=37.4mil|YSize=29.53mil|CornerRadius=7.38mil|HoleSize=0mil|Usage=FLASHONLY|Rotation=180.000|XOffset=0mil|YOffset=0mil|HoleType=Round|Shape=RoundedRectangle|*
%AMROUNDEDRECTD20*
21,1,0.03740,0.01476,0,0,180.0*
21,1,0.02264,0.02953,0,0,180.0*
1,1,0.01476,-0.01132,0.00738*
1,1,0.01476,0.01132,0.00738*
1,1,0.01476,0.01132,-0.00738*
1,1,0.01476,-0.01132,-0.00738*
%
%ADD20ROUNDEDRECTD20*%
G04:AMPARAMS|DCode=21|XSize=35.43mil|YSize=27.56mil|CornerRadius=6.89mil|HoleSize=0mil|Usage=FLASHONLY|Rotation=90.000|XOffset=0mil|YOffset=0mil|HoleType=Round|Shape=RoundedRectangle|*
%AMROUNDEDRECTD21*
21,1,0.03543,0.01378,0,0,90.0*
21,1,0.02165,0.02756,0,0,90.0*
1,1,0.01378,0.00689,0.01083*
1,1,0.01378,0.00689,-0.01083*
1,1,0.01378,-0.00689,-0.01083*
1,1,0.01378,-0.00689,0.01083*
%
%ADD21ROUNDEDRECTD21*%
G04:AMPARAMS|DCode=37|XSize=39.37mil|YSize=39.37mil|CornerRadius=3.94mil|HoleSize=0mil|Usage=FLASHONLY|Rotation=90.000|XOffset=0mil|YOffset=0mil|HoleType=Round|Shape=RoundedRectangle|*
%AMROUNDEDRECTD37*
21,1,0.03937,0.03150,0,0,90.0*
21,1,0.03150,0.03937,0,0,90.0*
1,1,0.00787,0.01575,0.01575*
1,1,0.00787,0.01575,-0.01575*
1,1,0.00787,-0.01575,-0.01575*
1,1,0.00787,-0.01575,0.01575*
%
%ADD37ROUNDEDRECTD37*%
%ADD38C,0.03937*%
%ADD39C,0.01500*%
%ADD40C,0.00400*%
%ADD41C,0.06890*%
%ADD42C,0.06102*%
%ADD43R,0.06102X0.06102*%
%ADD44C,0.06000*%
%ADD45C,0.27559*%
%ADD46C,0.02165*%
D12*
X15731Y350500D02*
X20731D01*
X15731D02*
Y355500D01*
X20731Y350500D02*
Y355500D01*
X15731D02*
X20731D01*
X15731D02*
Y360500D01*
X20731Y355500D02*
Y360500D01*
X15731D02*
X20731D01*
X15731D02*
Y365500D01*
X20731Y360500D02*
Y365500D01*
Y370500D01*
X15731D02*
X20731D01*
X15731Y365500D02*
Y370500D01*
Y365500D02*
X20731D01*
X40797Y180403D02*
X42035D01*
X42632Y181000D01*
X45000D01*
X35679Y161000D02*
Y174649D01*
Y150634D02*
Y161000D01*
X25000D02*
X35679D01*
X170000Y150634D02*
Y154197D01*
X162331Y161866D02*
X170000Y154197D01*
X159772Y164425D02*
X162331Y161866D01*
X154654Y156346D02*
Y174649D01*
X144000Y161000D02*
X150000D01*
X154654Y156346D01*
Y150634D02*
Y156346D01*
X48770Y174649D02*
X56984Y182864D01*
X45915Y174649D02*
X48770D01*
X46610Y184906D02*
X49567Y181949D01*
X19685Y133227D02*
X25250Y138792D01*
X30561D01*
X39689Y131905D02*
Y143226D01*
X31000Y123216D02*
X39689Y131905D01*
X31000Y78244D02*
Y123216D01*
X38238Y144677D02*
X39689Y143226D01*
X38238Y144677D02*
Y150634D01*
X40797D01*
X43356D02*
Y161735D01*
X40797Y164294D02*
X43356Y161735D01*
X40797Y164294D02*
Y174649D01*
X45867Y138792D02*
X45915Y138840D01*
X42445Y138792D02*
X45867D01*
X36933D02*
Y142624D01*
X35254Y144304D02*
X36933Y142624D01*
X30561Y144304D02*
X35254D01*
X30561D02*
Y150634D01*
X33120D01*
X25316Y152948D02*
X27630Y150634D01*
X30561D01*
X25316Y152948D02*
Y155400D01*
X45056Y169400D02*
X50744D01*
X43356Y171100D02*
X45056Y169400D01*
X43356Y171100D02*
Y174649D01*
X25316Y165488D02*
Y168941D01*
Y174649D02*
X30561D01*
X25316D02*
Y178512D01*
X33120Y174649D02*
Y180403D01*
X40797Y174649D02*
Y180403D01*
X45915Y145516D02*
Y150634D01*
X143685Y184100D02*
X143800D01*
X109251Y61130D02*
X112607D01*
X144103Y174649D02*
Y178371D01*
X159324Y134797D02*
Y142874D01*
X157213Y144985D02*
X159324Y142874D01*
X157213Y144985D02*
Y150634D01*
X159324Y134797D02*
X177165Y116956D01*
Y76929D02*
Y116956D01*
Y76929D02*
X182165Y71929D01*
X149536Y130054D02*
Y138792D01*
X149482Y130000D02*
X149536Y130054D01*
X146571Y150634D02*
X149536D01*
X144378Y152826D02*
X146571Y150634D01*
X144378Y152826D02*
Y155400D01*
X165431Y168000D02*
X169221D01*
X162331Y171100D02*
X165431Y168000D01*
X162331Y171100D02*
Y174649D01*
X164890Y145762D02*
Y150634D01*
X162331D02*
Y161866D01*
X159772Y164425D02*
Y174649D01*
Y179767D01*
X152095Y174649D02*
Y179767D01*
X157213Y174649D02*
Y179278D01*
X154340Y182150D02*
X157213Y179278D01*
X151013Y182150D02*
X154340D01*
X150380Y181517D02*
X151013Y182150D01*
X138313Y181517D02*
X150380D01*
X162080Y138792D02*
X165679D01*
X149536Y144304D02*
X154521D01*
X156568Y142257D01*
Y138792D02*
Y142257D01*
X149536Y150634D02*
X152095D01*
X149536Y144304D02*
Y150634D01*
X157213D02*
X159772D01*
X144103Y166000D02*
Y168941D01*
Y174649D02*
X149536D01*
X176384Y185085D02*
X177483Y183987D01*
Y177913D02*
Y183987D01*
X174219Y174649D02*
X177483Y177913D01*
X176384Y185085D02*
Y189634D01*
X164890Y174649D02*
X174219D01*
X136484Y183346D02*
X138313Y181517D01*
X136484Y183346D02*
Y189634D01*
X139741Y195161D02*
X146600D01*
X136484Y189634D02*
Y193884D01*
X139776Y197175D01*
X150827D01*
X176384Y189634D02*
Y195219D01*
X178340Y197175D01*
X190957D01*
X137600Y126489D02*
X153600Y110489D01*
Y90494D02*
Y110489D01*
Y90494D02*
X172165Y71929D01*
X136200Y125909D02*
X152200Y109909D01*
Y85500D02*
Y109909D01*
Y85500D02*
X171300Y66400D01*
X135300Y180800D02*
X137600Y178500D01*
Y126489D02*
Y178500D01*
X132556Y162106D02*
X134800Y159862D01*
Y125329D02*
Y159862D01*
Y125329D02*
X150800Y109329D01*
X136200Y125909D02*
Y167634D01*
X134334Y169500D02*
X136200Y167634D01*
X150800Y83294D02*
Y109329D01*
X65750Y189160D02*
Y194001D01*
X63905Y195846D02*
X65750Y194001D01*
X60927Y195846D02*
X63905D01*
X58953Y193872D02*
X60927Y195846D01*
X58953Y189634D02*
Y193872D01*
X65750Y189160D02*
X69665Y185246D01*
X70059D01*
X24685Y71929D02*
X31000Y78244D01*
X19685Y42830D02*
Y133227D01*
X18784Y41929D02*
X19685Y42830D01*
X14685Y41929D02*
X18784D01*
X56984Y182864D02*
Y189634D01*
X30431Y182786D02*
X34922D01*
X29763Y182117D02*
X30431Y182786D01*
X23934Y182117D02*
X29763D01*
X34922Y182786D02*
X38238Y179470D01*
X20984Y185067D02*
X23934Y182117D01*
X38238Y175920D02*
Y179470D01*
X20984Y185067D02*
Y189634D01*
X10744Y148244D02*
Y162500D01*
X20984Y189634D02*
Y194464D01*
X23920Y197400D01*
X29580D01*
X30051Y196929D01*
X35448D01*
X56984Y195522D02*
X59462Y198000D01*
X56984Y189634D02*
Y195522D01*
X59462Y198000D02*
X67641D01*
X66025Y205295D02*
X67730Y207000D01*
X66025Y204146D02*
Y205295D01*
X67730Y207000D02*
X70000D01*
X65825Y210804D02*
X67730Y212709D01*
X65825Y207949D02*
Y210804D01*
X67730Y212709D02*
X70000D01*
X64242Y206366D02*
X65825Y207949D01*
X52794Y121622D02*
X53039Y121867D01*
X109251Y72630D02*
X112407D01*
X70903Y61271D02*
X70969Y61205D01*
X64785Y175700D02*
Y183500D01*
X58969Y67194D02*
X70924D01*
X10784Y148284D02*
Y157745D01*
Y122184D02*
Y148284D01*
X19016Y180184D02*
Y189634D01*
X123700Y169500D02*
X127044D01*
X107590Y99290D02*
X111000D01*
X56012Y175488D02*
Y177000D01*
Y175488D02*
X60500Y171000D01*
X60921Y183281D02*
Y189634D01*
X60688Y183047D02*
X60921Y183281D01*
X60688Y173799D02*
Y183047D01*
Y173799D02*
X61900Y172587D01*
X116512Y106000D02*
X118816D01*
X118858Y105958D01*
X7000Y118400D02*
X10784Y122184D01*
X10744Y148244D02*
X10784Y148284D01*
X98067Y159867D02*
X125000Y186800D01*
X98067Y136099D02*
Y159867D01*
X116512Y101462D02*
X116512Y101462D01*
Y99290D02*
Y101462D01*
X116512Y101462D02*
Y106000D01*
X53039Y143545D02*
X60500Y151007D01*
X55794Y143842D02*
X61900Y149948D01*
X46848Y185144D02*
Y185150D01*
X46610Y184906D02*
X46848Y185144D01*
X46637Y192937D02*
X49200Y195500D01*
X55886Y55759D02*
X58969D01*
X56051Y72705D02*
X58969D01*
X50554Y184332D02*
Y184870D01*
X51079Y185395D01*
Y189634D01*
X70059Y182273D02*
Y185246D01*
X61700Y216500D02*
X62687Y215513D01*
Y212397D02*
Y215513D01*
X60921Y210631D02*
X62687Y212397D01*
X59631Y216500D02*
X61700D01*
X60921Y206366D02*
Y210631D01*
X57353Y214759D02*
X58953Y213159D01*
Y206366D02*
Y213159D01*
X61900Y149948D02*
Y172587D01*
X70000Y212709D02*
Y215854D01*
X70924Y67194D02*
X70924Y67194D01*
X58550Y133324D02*
Y136322D01*
X51945Y181949D02*
X53047Y183051D01*
X49567Y181949D02*
X51945D01*
X53047Y183051D02*
Y189634D01*
X26890Y186386D02*
X28776Y184500D01*
X37100Y191854D02*
X37146D01*
X34000D02*
X37100D01*
X37146D02*
X37200Y191800D01*
X41000Y186500D02*
Y189634D01*
X34000Y186146D02*
X37100D01*
X46818Y189524D02*
X46928Y189634D01*
X49110D01*
X64600Y151600D02*
Y175700D01*
X169427Y183897D02*
X170479Y184948D01*
X168713Y183913D02*
X169412D01*
X169427Y183897D01*
X59631Y216894D02*
X64685Y221948D01*
X59631Y216500D02*
Y216894D01*
X64685Y221948D02*
Y236665D01*
X153154Y192254D02*
X153200Y192300D01*
X149900Y192254D02*
X153154D01*
X139300Y183900D02*
Y184274D01*
X125000Y186800D02*
Y188200D01*
X126434Y189634D01*
X128610D01*
X98067Y133927D02*
X98067Y133927D01*
Y124599D02*
Y133927D01*
X98067Y133927D02*
Y136099D01*
X165100Y195200D02*
X166192D01*
X168510Y192882D01*
Y189634D02*
Y192882D01*
X175100Y183000D02*
Y183400D01*
X172447Y183547D02*
Y189634D01*
X171800Y182900D02*
X172447Y183547D01*
X182290Y184510D02*
X183000Y183800D01*
X182290Y184510D02*
Y189634D01*
X179900Y183700D02*
X180321Y184121D01*
Y189634D01*
X112607Y61130D02*
X112651Y61174D01*
X112307Y67119D02*
X112351Y67074D01*
X109251Y67119D02*
X112307D01*
X132556Y169500D02*
X134334D01*
X171300Y66400D02*
X177694D01*
X182165Y61929D01*
X150800Y83294D02*
X172165Y61929D01*
X132556Y162106D02*
Y162500D01*
X129200Y179900D02*
X129900Y179200D01*
Y165550D02*
Y179200D01*
Y165550D02*
X132556Y162894D01*
Y162500D02*
Y162894D01*
X129200Y179900D02*
Y181800D01*
X132556Y179056D02*
X132700Y179200D01*
X132556Y169500D02*
Y179056D01*
X129200Y181800D02*
X130579Y183179D01*
Y189634D01*
X132547Y179353D02*
X132700Y179200D01*
X132547Y179353D02*
Y189634D01*
X134516Y181584D02*
X135300Y180800D01*
X134516Y181584D02*
Y189634D01*
X170479Y184948D02*
Y189634D01*
X174416Y184084D02*
X175100Y183400D01*
X174416Y184084D02*
Y189634D01*
X107079Y61130D02*
X107079Y61130D01*
X109251D01*
X100251Y61130D02*
X107079D01*
X107079Y67119D02*
X107079Y67119D01*
X109251D01*
X100251Y67119D02*
X107079D01*
X153146Y209954D02*
X153200Y209900D01*
X149900Y209954D02*
X153146D01*
X193354Y191854D02*
X193400Y191900D01*
X190100Y191854D02*
X193354D01*
X190100Y209854D02*
Y212700D01*
X123700Y169400D02*
Y169500D01*
X124100Y162500D02*
X124100Y162500D01*
X127044D01*
X103578Y133154D02*
Y136099D01*
X103523Y133098D02*
X103578Y133154D01*
X103578Y124599D02*
X106323D01*
X106323Y124599D01*
X107500Y99200D02*
X107590Y99290D01*
X107800Y106000D02*
X111000D01*
X103307Y72630D02*
X103351Y72674D01*
X100251Y55619D02*
X103195D01*
X112307Y55619D02*
X112351Y55574D01*
X109251Y55619D02*
X112307D01*
X100251Y72630D02*
X103307D01*
X112407Y72630D02*
X112451Y72674D01*
X142390Y185395D02*
X143685Y184100D01*
X142390Y185395D02*
Y189634D01*
X139300Y184274D02*
X140421Y185395D01*
Y189634D01*
X168508Y216500D02*
X169291Y217283D01*
X177767D01*
X166730Y216500D02*
X168508D01*
X172930Y213800D02*
X174913Y215783D01*
X163524Y213800D02*
X172930D01*
X175113Y215783D02*
X175213Y215883D01*
X174913Y215783D02*
X175113D01*
X175213Y215883D02*
X177187D01*
X178353Y214717D01*
X175900Y213400D02*
X176300D01*
X176384Y213316D01*
X178353Y206366D02*
Y214717D01*
X180321Y206366D02*
Y214728D01*
X176384Y206366D02*
Y213316D01*
X177767Y217283D02*
X180321Y214728D01*
X174416Y206366D02*
Y210605D01*
X172620Y212400D02*
X174416Y210605D01*
X190100Y183000D02*
Y186146D01*
X136484Y206366D02*
Y211816D01*
X134900Y213400D02*
X136484Y211816D01*
X134900Y213400D02*
Y213700D01*
X132020Y213100D02*
X134516Y210605D01*
X131100Y213100D02*
X132020D01*
X159800Y212400D02*
X172620D01*
X134516Y206366D02*
Y210605D01*
X146346Y204246D02*
X149900D01*
X143000Y200900D02*
X146346Y204246D01*
X133775Y200900D02*
X143000D01*
X132547Y202128D02*
X133775Y200900D01*
X132547Y202128D02*
Y206366D01*
X183700Y201000D02*
X186846Y204146D01*
X173575Y201000D02*
X183700D01*
X172447Y202128D02*
X173575Y201000D01*
X186846Y204146D02*
X190100D01*
X172447Y202128D02*
Y206366D01*
X190100Y201300D02*
Y204146D01*
X157634Y189634D02*
X160900D01*
X161218Y216106D02*
X163524Y213800D01*
X161218Y216106D02*
Y216500D01*
X140421Y206366D02*
Y213498D01*
X143030Y216106D02*
Y216500D01*
X140421Y213498D02*
X143030Y216106D01*
X137518Y214328D02*
X138453Y213394D01*
Y206366D02*
Y213394D01*
X137518Y214328D02*
Y216500D01*
X166730Y216894D02*
X171874Y222038D01*
X166730Y216500D02*
Y216894D01*
X171874Y222038D02*
Y236665D01*
X161218Y216500D02*
Y216894D01*
X156074Y222038D02*
X161218Y216894D01*
X156074Y222038D02*
Y236665D01*
X143030Y216894D02*
X148174Y222038D01*
X143030Y216500D02*
Y216894D01*
X148174Y222038D02*
Y236665D01*
X137518Y216500D02*
Y216894D01*
X132374Y222038D02*
X137518Y216894D01*
X132374Y222038D02*
Y236665D01*
X57353Y214759D02*
Y215547D01*
X56400Y216500D02*
X57353Y215547D01*
X54119Y216500D02*
X56400D01*
X48885Y222128D02*
Y236665D01*
Y222128D02*
X54119Y216894D01*
Y216500D02*
Y216894D01*
X56785Y220215D02*
Y223396D01*
X53047Y202128D02*
X53547Y201627D01*
X53047Y202128D02*
Y206366D01*
X53547Y201627D02*
X63507D01*
X66025Y204146D01*
X70000Y204354D02*
Y207000D01*
X70059Y190954D02*
Y193600D01*
X62890Y206366D02*
X64242D01*
X55016D02*
Y210184D01*
X52100Y213100D02*
X55016Y210184D01*
X55900Y211689D02*
X56984Y210605D01*
X55900Y211689D02*
Y212800D01*
X56984Y206366D02*
Y210605D01*
X121015Y206366D02*
X128610D01*
X121015Y200854D02*
X129306D01*
X130579Y202128D01*
Y206366D01*
X121015Y199076D02*
X121015Y199076D01*
X121015Y195256D02*
Y199076D01*
X121015Y199076D02*
Y200854D01*
X169205D02*
X170479Y202128D01*
X160900Y200854D02*
X169205D01*
X170479Y202128D02*
Y206366D01*
X160900Y195146D02*
Y200854D01*
Y206366D02*
X168510D01*
X163974Y219715D02*
Y223396D01*
Y229104D02*
Y236665D01*
X140274Y229104D02*
Y236665D01*
Y219715D02*
Y223396D01*
X41000Y189634D02*
Y189744D01*
X33085Y220215D02*
Y223396D01*
Y220000D02*
Y220215D01*
X187254Y209854D02*
X190100D01*
X183766Y206366D02*
X187254Y209854D01*
X182290Y206366D02*
X183766D01*
X178353Y193872D02*
X179580Y195100D01*
X186461D01*
X178353Y189634D02*
Y193872D01*
X186461Y195100D02*
X189706Y191854D01*
X190100D01*
X149900Y186546D02*
X153200D01*
X149900Y201200D02*
Y204246D01*
X138453Y193872D02*
X139741Y195161D01*
X138453Y189634D02*
Y193872D01*
X146600Y195161D02*
X149506Y192254D01*
X149900D01*
X144042Y206366D02*
X147630Y209954D01*
X142390Y206366D02*
X144042D01*
X147630Y209954D02*
X149900D01*
X121015Y187085D02*
Y189744D01*
X29000Y196000D02*
X30800Y194200D01*
Y188952D02*
Y194200D01*
Y188952D02*
X33606Y186146D01*
X10744Y169500D02*
Y173200D01*
Y179092D01*
X17047Y185395D01*
Y189634D01*
X19100Y159500D02*
Y180069D01*
X15000Y155400D02*
X19100Y159500D01*
X15000Y123000D02*
Y155400D01*
X17800Y212100D02*
X19016Y210884D01*
X31654Y209854D02*
X34000D01*
X28166Y206366D02*
X31654Y209854D01*
X26890Y206366D02*
X28166D01*
X34000Y209854D02*
X37300D01*
X26984Y214647D02*
X28870D01*
X22953Y210616D02*
X26984Y214647D01*
X22953Y206366D02*
Y210616D01*
X30329Y216106D02*
Y216500D01*
X28870Y214647D02*
X30329Y216106D01*
X20984Y212284D02*
X21000Y212300D01*
X20984Y206366D02*
Y212284D01*
X19016Y206366D02*
Y210884D01*
X32500Y199500D02*
X34000Y201000D01*
Y204146D01*
X18094Y199500D02*
X32500D01*
X62890Y185395D02*
X64785Y183500D01*
X64500Y151500D02*
X64600Y151600D01*
X67969Y72705D02*
X70769D01*
X19000Y180168D02*
X19100Y180069D01*
Y183500D01*
X16256Y162500D02*
Y169500D01*
Y172900D01*
X19000Y180168D02*
X19016Y180184D01*
X67969Y55759D02*
X70969D01*
X67969Y61271D02*
X70903D01*
X67969Y55759D02*
X68023Y55705D01*
X53039Y121867D02*
Y124822D01*
X56256Y111256D02*
X68700Y123700D01*
Y176100D01*
X7000Y69614D02*
Y118400D01*
X4000Y195256D02*
Y200854D01*
X13805D01*
X15079Y202128D01*
Y206366D01*
X4000D02*
X13110D01*
X41000Y200854D02*
X49806D01*
X51079Y202128D01*
Y206366D01*
X41000D02*
X49110D01*
X41000Y195146D02*
Y200854D01*
X49200Y195500D02*
X53388D01*
X55794Y139322D02*
Y143842D01*
X53039Y136322D02*
Y143545D01*
X56256Y106000D02*
Y111256D01*
X60500Y151007D02*
Y171000D01*
X8500Y185000D02*
X11724D01*
X13110Y186386D01*
Y189634D01*
X62890Y185395D02*
Y189634D01*
X26890Y186386D02*
Y189634D01*
X24921Y185395D02*
Y189634D01*
X53388Y195500D02*
X55016Y193872D01*
Y189634D02*
Y193872D01*
X56256Y103828D02*
X56256Y103828D01*
Y99290D02*
Y103828D01*
X56256Y103828D02*
Y106000D01*
X44500D02*
X50744D01*
X9500Y117500D02*
X15000Y123000D01*
X9500Y77114D02*
Y117500D01*
Y77114D02*
X14685Y71929D01*
X7000Y69614D02*
X14685Y61929D01*
X58550Y124822D02*
Y128067D01*
X53039Y133578D02*
X58550Y128067D01*
X53039Y133578D02*
Y136322D01*
X65797Y61271D02*
X65797Y61271D01*
X58969Y61271D02*
X65797D01*
X65797Y61271D02*
X67969D01*
X35841Y216894D02*
X40985Y222038D01*
X30828Y213828D02*
X33563D01*
X29000Y212000D02*
X30828Y213828D01*
X25185Y222038D02*
X30329Y216894D01*
X33563Y213828D02*
X35841Y216106D01*
Y216500D01*
X26316Y212000D02*
X29000D01*
X24921Y210605D02*
X26316Y212000D01*
X24921Y206366D02*
Y210605D01*
X44790Y99290D02*
X50744D01*
X17047Y200547D02*
X18094Y199500D01*
X33606Y204146D02*
X34000D01*
X17047Y200547D02*
Y206366D01*
X4000Y186000D02*
Y189744D01*
X7500Y163966D02*
X8966Y162500D01*
X7500Y163966D02*
Y177828D01*
X8966Y162500D02*
X10744D01*
X7500Y177828D02*
X15079Y185407D01*
Y189634D01*
X24500Y196000D02*
X29000D01*
X22953Y194453D02*
X24500Y196000D01*
X22953Y189634D02*
Y194453D01*
X33606Y186146D02*
X34000D01*
X35841Y216500D02*
Y216894D01*
X40985Y222038D02*
Y236665D01*
X30329Y216500D02*
Y216894D01*
X25185Y222038D02*
Y236665D01*
X56785Y229104D02*
Y236665D01*
X33085Y229104D02*
Y236665D01*
D15*
X149536Y138792D02*
D03*
Y144304D02*
D03*
X4000Y200854D02*
D03*
Y206366D02*
D03*
Y189744D02*
D03*
Y195256D02*
D03*
X67969Y55759D02*
D03*
Y61271D02*
D03*
X58969Y61271D02*
D03*
Y55759D02*
D03*
X58969Y67194D02*
D03*
Y72705D02*
D03*
X67969Y67194D02*
D03*
Y72705D02*
D03*
X41000Y200854D02*
D03*
Y206366D02*
D03*
Y189634D02*
D03*
Y195146D02*
D03*
X109251Y55619D02*
D03*
Y61130D02*
D03*
X100251Y61130D02*
D03*
Y55619D02*
D03*
X100251Y72630D02*
D03*
Y67119D02*
D03*
X109251Y72630D02*
D03*
Y67119D02*
D03*
X121015Y200854D02*
D03*
Y206366D02*
D03*
X160900Y200854D02*
D03*
Y206366D02*
D03*
X121015Y189744D02*
D03*
Y195256D02*
D03*
X160900Y189634D02*
D03*
Y195146D02*
D03*
X30561Y138792D02*
D03*
Y144304D02*
D03*
D16*
X164890Y174649D02*
D03*
X162331D02*
D03*
X159772D02*
D03*
X157213D02*
D03*
X154654D02*
D03*
X152095D02*
D03*
X149536D02*
D03*
X164890Y150634D02*
D03*
X162331D02*
D03*
X159772D02*
D03*
X157213D02*
D03*
X154654D02*
D03*
X152095D02*
D03*
X149536D02*
D03*
X45915Y174649D02*
D03*
X43356D02*
D03*
X40797D02*
D03*
X38238D02*
D03*
X35679D02*
D03*
X33120D02*
D03*
X30561D02*
D03*
X45915Y150634D02*
D03*
X43356D02*
D03*
X40797D02*
D03*
X38238D02*
D03*
X35679D02*
D03*
X33120D02*
D03*
X30561D02*
D03*
D17*
X13110Y189634D02*
D03*
X15079D02*
D03*
X17047D02*
D03*
X19016D02*
D03*
X20984D02*
D03*
X22953D02*
D03*
X24921D02*
D03*
X26890D02*
D03*
X13110Y206366D02*
D03*
X15079D02*
D03*
X17047D02*
D03*
X19016D02*
D03*
X20984D02*
D03*
X22953D02*
D03*
X24921D02*
D03*
X26890D02*
D03*
X49110Y189634D02*
D03*
X51079D02*
D03*
X53047D02*
D03*
X55016D02*
D03*
X56984D02*
D03*
X58953D02*
D03*
X60921D02*
D03*
X62890D02*
D03*
X49110Y206366D02*
D03*
X51079D02*
D03*
X53047D02*
D03*
X55016D02*
D03*
X56984D02*
D03*
X58953D02*
D03*
X60921D02*
D03*
X62890D02*
D03*
X128610Y189634D02*
D03*
X130579D02*
D03*
X128610Y206366D02*
D03*
X130579D02*
D03*
X136484Y189634D02*
D03*
X138453D02*
D03*
X132547D02*
D03*
X134516D02*
D03*
X140421D02*
D03*
X142390D02*
D03*
X132547Y206366D02*
D03*
X134516D02*
D03*
X136484D02*
D03*
X138453D02*
D03*
X142390D02*
D03*
X140421D02*
D03*
X168510Y189634D02*
D03*
X170479D02*
D03*
X168510Y206366D02*
D03*
X170479D02*
D03*
X176384Y189634D02*
D03*
X178353D02*
D03*
X172447D02*
D03*
X174416D02*
D03*
X180321D02*
D03*
X182290D02*
D03*
X172447Y206366D02*
D03*
X174416D02*
D03*
X176384D02*
D03*
X178353D02*
D03*
X182290D02*
D03*
X180321D02*
D03*
D18*
X25185Y236665D02*
D03*
X33085D02*
D03*
X40985D02*
D03*
X48885D02*
D03*
X56785D02*
D03*
X64685D02*
D03*
X25185Y290915D02*
D03*
X33085D02*
D03*
X40985D02*
D03*
X48885D02*
D03*
X56785D02*
D03*
X132374Y236665D02*
D03*
X140274D02*
D03*
X148174D02*
D03*
X156074D02*
D03*
X163974D02*
D03*
X171874D02*
D03*
X132374Y290915D02*
D03*
X140274D02*
D03*
X148174D02*
D03*
X156074D02*
D03*
X163974D02*
D03*
D19*
X64685D02*
D03*
X171874D02*
D03*
D20*
X144103Y168941D02*
D03*
Y174649D02*
D03*
X34000Y191854D02*
D03*
Y186146D02*
D03*
X34000Y204146D02*
D03*
Y209854D02*
D03*
X163974Y223396D02*
D03*
Y229104D02*
D03*
X56785Y223396D02*
D03*
Y229104D02*
D03*
X70000Y212709D02*
D03*
Y207000D02*
D03*
X70059Y185246D02*
D03*
Y190954D02*
D03*
X33085Y223396D02*
D03*
Y229104D02*
D03*
X140274Y223396D02*
D03*
Y229104D02*
D03*
X149900Y186546D02*
D03*
Y192254D02*
D03*
X190100Y186146D02*
D03*
Y191854D02*
D03*
X149900Y204246D02*
D03*
Y209954D02*
D03*
X190100Y204146D02*
D03*
Y209854D02*
D03*
X25316Y174649D02*
D03*
Y168941D02*
D03*
D21*
X58550Y136322D02*
D03*
X53039D02*
D03*
Y124822D02*
D03*
X58550D02*
D03*
X50744Y106000D02*
D03*
X56256D02*
D03*
X56256Y99290D02*
D03*
X50744D02*
D03*
X59631Y216500D02*
D03*
X54119D02*
D03*
X161218D02*
D03*
X166730D02*
D03*
X98067Y136099D02*
D03*
X103578D02*
D03*
X103578Y124599D02*
D03*
X98067D02*
D03*
X111000Y106000D02*
D03*
X116512D02*
D03*
X111000Y99290D02*
D03*
X116512D02*
D03*
X35841Y216500D02*
D03*
X30329D02*
D03*
X137518D02*
D03*
X143030D02*
D03*
X10744Y162500D02*
D03*
X16256D02*
D03*
X132556Y162500D02*
D03*
X127044D02*
D03*
X10744Y169500D02*
D03*
X16256D02*
D03*
X132556Y169500D02*
D03*
X127044D02*
D03*
X36933Y138792D02*
D03*
X42445D02*
D03*
X156568D02*
D03*
X162080D02*
D03*
D37*
X144000Y161000D02*
D03*
X67641Y198000D02*
D03*
X190957Y197175D02*
D03*
X35448Y196929D02*
D03*
X150827Y197175D02*
D03*
X45000Y181000D02*
D03*
X170000Y150634D02*
D03*
X25000Y161000D02*
D03*
D38*
X44004Y44208D02*
D03*
X153803D02*
D03*
Y345361D02*
D03*
X112644Y383100D02*
D03*
X83243D02*
D03*
X53842D02*
D03*
X142045D02*
D03*
D39*
X92000Y321777D02*
X97362Y327139D01*
X92000Y306201D02*
Y321777D01*
Y306201D02*
X112010Y286191D01*
X97362Y317835D02*
X102767Y323240D01*
X46021Y327835D02*
X51079Y322777D01*
Y315442D02*
Y322777D01*
X40985Y305348D02*
X51079Y315442D01*
X40985Y290915D02*
Y305348D01*
X61000Y322858D02*
X66024Y317835D01*
X61000Y322858D02*
Y330000D01*
X64000Y333000D01*
X67653D01*
X66024Y327835D02*
X71000Y322858D01*
Y313311D02*
Y322858D01*
X64685Y306996D02*
X71000Y313311D01*
X64685Y290915D02*
Y306996D01*
X112644Y322553D02*
X117362Y317835D01*
X112644Y322553D02*
Y331000D01*
X115618Y333974D01*
X121041D01*
X102767Y323240D02*
Y340843D01*
X112075Y350151D01*
X141690Y327835D02*
X142045Y328190D01*
X117362Y327835D02*
X141690D01*
X171874Y290915D02*
Y298361D01*
X142045Y328190D02*
X171874Y298361D01*
X142045Y328190D02*
Y354301D01*
Y360797D02*
Y366100D01*
X137895Y356647D02*
X142045Y360797D01*
X137895Y350828D02*
Y356647D01*
X121041Y333974D02*
X137895Y350828D01*
X117362Y317835D02*
X138555D01*
X156074Y300315D01*
Y290915D02*
Y300315D01*
X97362Y327835D02*
Y339019D01*
Y327139D02*
Y327835D01*
Y339019D02*
X112644Y354301D01*
Y366100D02*
X116794Y361950D01*
Y352582D02*
Y361950D01*
X114363Y350151D02*
X116794Y352582D01*
X112075Y350151D02*
X114363D01*
X112010Y286191D02*
X144825D01*
X148174Y289540D01*
Y290915D01*
X97362Y304374D02*
Y317835D01*
Y304374D02*
X110821Y290915D01*
X132374D01*
X79000Y356120D02*
X83243Y360363D01*
X79000Y344347D02*
Y356120D01*
X67653Y333000D02*
X79000Y344347D01*
X66024Y327835D02*
X83243Y345054D01*
Y360363D02*
Y366100D01*
Y345054D02*
Y354301D01*
X46021Y327835D02*
Y346480D01*
X40797Y323059D02*
X46021Y317835D01*
X36231Y308044D02*
X46021Y317835D01*
X48885Y296775D02*
X66024Y313913D01*
X48885Y290915D02*
Y296775D01*
X66024Y313913D02*
Y317835D01*
X40797Y323059D02*
Y353056D01*
X53842Y366100D01*
X46021Y346480D02*
X53842Y354301D01*
X36231Y303336D02*
Y308044D01*
X25185Y292290D02*
X36231Y303336D01*
X25185Y290915D02*
Y292290D01*
D40*
X17331Y368300D02*
Y367633D01*
Y367966D01*
X19331D01*
X18997Y368300D01*
D41*
X107362Y327835D02*
D03*
Y317835D02*
D03*
X97362D02*
D03*
Y327835D02*
D03*
X87362Y317835D02*
D03*
Y327835D02*
D03*
X117362D02*
D03*
Y317835D02*
D03*
X66024Y327835D02*
D03*
Y317835D02*
D03*
X56024D02*
D03*
Y327835D02*
D03*
X46024Y317835D02*
D03*
Y327835D02*
D03*
X76024D02*
D03*
Y317835D02*
D03*
D42*
X172165Y51929D02*
D03*
Y61929D02*
D03*
Y71929D02*
D03*
Y81929D02*
D03*
Y91929D02*
D03*
Y101929D02*
D03*
Y111929D02*
D03*
X182165Y41929D02*
D03*
Y51929D02*
D03*
Y61929D02*
D03*
Y71929D02*
D03*
Y81929D02*
D03*
Y91929D02*
D03*
Y101929D02*
D03*
Y111929D02*
D03*
X14685Y51929D02*
D03*
Y61929D02*
D03*
Y71929D02*
D03*
Y81929D02*
D03*
Y91929D02*
D03*
Y101929D02*
D03*
Y111929D02*
D03*
X24685Y41929D02*
D03*
Y51929D02*
D03*
Y61929D02*
D03*
Y71929D02*
D03*
Y81929D02*
D03*
Y91929D02*
D03*
Y101929D02*
D03*
Y111929D02*
D03*
D43*
X172165Y41929D02*
D03*
X14685D02*
D03*
D44*
X112644Y366100D02*
D03*
Y354301D02*
D03*
X83243Y366100D02*
D03*
Y354301D02*
D03*
X53842Y366100D02*
D03*
Y354301D02*
D03*
X142045Y366100D02*
D03*
Y354301D02*
D03*
D45*
X19685Y314961D02*
D03*
X177165D02*
D03*
X19685Y19685D02*
D03*
X177165D02*
D03*
D46*
X45915Y138840D02*
D03*
X25316Y165488D02*
D03*
Y178512D02*
D03*
X45915Y145516D02*
D03*
X144103Y178371D02*
D03*
X149482Y130000D02*
D03*
X144378Y155400D02*
D03*
X169221Y168000D02*
D03*
X164890Y145762D02*
D03*
X159772Y179767D02*
D03*
X152095D02*
D03*
X165679Y138792D02*
D03*
X144103Y166000D02*
D03*
X25316Y155400D02*
D03*
X50744Y169400D02*
D03*
X40797Y180403D02*
D03*
X33120D02*
D03*
X56012Y177000D02*
D03*
X60688Y183047D02*
D03*
X118858Y105958D02*
D03*
X10784Y157745D02*
D03*
X46848Y185150D02*
D03*
X46637Y192937D02*
D03*
X70000Y215854D02*
D03*
X70059Y182273D02*
D03*
X55886Y55759D02*
D03*
X56051Y72705D02*
D03*
X70924Y67194D02*
D03*
X58550Y133324D02*
D03*
X50554Y184332D02*
D03*
X28776Y184500D02*
D03*
X37100Y191854D02*
D03*
X24921Y184500D02*
D03*
X41000Y186500D02*
D03*
X37100Y186146D02*
D03*
X46818Y189524D02*
D03*
X64600Y175700D02*
D03*
X168713Y183913D02*
D03*
X153200Y192300D02*
D03*
X139300Y183900D02*
D03*
X125000Y186800D02*
D03*
X165100Y195200D02*
D03*
X143800Y183900D02*
D03*
X175100Y183000D02*
D03*
X171800Y182900D02*
D03*
X183000Y183800D02*
D03*
X179900Y183700D02*
D03*
X112351Y61174D02*
D03*
Y67074D02*
D03*
X129200Y181800D02*
D03*
X132700Y179200D02*
D03*
X135300Y180800D02*
D03*
X153200Y209900D02*
D03*
X193400Y191900D02*
D03*
X190100Y212700D02*
D03*
X123700Y169400D02*
D03*
Y162500D02*
D03*
X103523Y133098D02*
D03*
X106323Y124599D02*
D03*
X107800Y99200D02*
D03*
Y106000D02*
D03*
X103351Y72674D02*
D03*
Y55619D02*
D03*
X112351Y55574D02*
D03*
Y72674D02*
D03*
X175900Y213400D02*
D03*
X190100Y183000D02*
D03*
X134900Y213700D02*
D03*
X131100Y213100D02*
D03*
X159800Y212400D02*
D03*
X190100Y201300D02*
D03*
X157634Y189634D02*
D03*
X56785Y220215D02*
D03*
X70059Y193600D02*
D03*
X52100Y213100D02*
D03*
X55900Y212800D02*
D03*
X163974Y219715D02*
D03*
X140274D02*
D03*
X153200Y186546D02*
D03*
X149900Y201200D02*
D03*
X121015Y187085D02*
D03*
X10744Y173200D02*
D03*
X17800Y212100D02*
D03*
X21000Y212300D02*
D03*
X34000Y201000D02*
D03*
X70769Y72705D02*
D03*
X19100Y183500D02*
D03*
X16256Y172900D02*
D03*
X70969Y61271D02*
D03*
Y55759D02*
D03*
X53039Y121622D02*
D03*
X68700Y176100D02*
D03*
X37300Y209854D02*
D03*
X64500Y151500D02*
D03*
X55794Y139322D02*
D03*
X8500Y185000D02*
D03*
X44500Y106000D02*
D03*
X33085Y220215D02*
D03*
X44500Y99290D02*
D03*
X4000Y186000D02*
D03*
X70000Y204354D02*
D03*
M02*
