G04*
G04 #@! TF.GenerationSoftware,Altium Limited,Altium Designer,21.4.1 (30)*
G04*
G04 Layer_Color=16711935*
%FSLAX25Y25*%
%MOIN*%
G70*
G04*
G04 #@! TF.SameCoordinates,7EEB5CCF-43E0-40BE-B5BA-AD8CC80F1960*
G04*
G04*
G04 #@! TF.FilePolarity,Negative*
G04*
G01*
G75*
%ADD31C,0.07290*%
%ADD32C,0.06502*%
%ADD33R,0.06502X0.06502*%
%ADD34C,0.04737*%
%ADD35C,0.06400*%
%ADD36C,0.27959*%
G36*
X20731Y370500D02*
Y350500D01*
X15731D01*
Y370500D01*
X20731D01*
D02*
G37*
D31*
X107362Y327835D02*
D03*
Y317835D02*
D03*
X97362D02*
D03*
Y327835D02*
D03*
X87362Y317835D02*
D03*
Y327835D02*
D03*
X117362D02*
D03*
Y317835D02*
D03*
X66024Y327835D02*
D03*
Y317835D02*
D03*
X56024D02*
D03*
Y327835D02*
D03*
X46024Y317835D02*
D03*
Y327835D02*
D03*
X76024D02*
D03*
Y317835D02*
D03*
D32*
X172165Y51929D02*
D03*
Y61929D02*
D03*
Y71929D02*
D03*
Y81929D02*
D03*
Y91929D02*
D03*
Y101929D02*
D03*
Y111929D02*
D03*
X182165Y41929D02*
D03*
Y51929D02*
D03*
Y61929D02*
D03*
Y71929D02*
D03*
Y81929D02*
D03*
Y91929D02*
D03*
Y101929D02*
D03*
Y111929D02*
D03*
X14685Y51929D02*
D03*
Y61929D02*
D03*
Y71929D02*
D03*
Y81929D02*
D03*
Y91929D02*
D03*
Y101929D02*
D03*
Y111929D02*
D03*
X24685Y41929D02*
D03*
Y51929D02*
D03*
Y61929D02*
D03*
Y71929D02*
D03*
Y81929D02*
D03*
Y91929D02*
D03*
Y101929D02*
D03*
Y111929D02*
D03*
D33*
X172165Y41929D02*
D03*
X14685D02*
D03*
D34*
X112644Y383100D02*
D03*
X83243D02*
D03*
X53842D02*
D03*
X142045D02*
D03*
D35*
X112644Y366100D02*
D03*
Y354301D02*
D03*
X83243Y366100D02*
D03*
Y354301D02*
D03*
X53842Y366100D02*
D03*
Y354301D02*
D03*
X142045Y366100D02*
D03*
Y354301D02*
D03*
D36*
X19685Y314961D02*
D03*
X177165D02*
D03*
X19685Y19685D02*
D03*
X177165D02*
D03*
M02*
