G04*
G04 #@! TF.GenerationSoftware,Altium Limited,Altium Designer,21.4.1 (30)*
G04*
G04 Layer_Color=16711935*
%FSLAX25Y25*%
%MOIN*%
G70*
G04*
G04 #@! TF.SameCoordinates,7EEB5CCF-43E0-40BE-B5BA-AD8CC80F1960*
G04*
G04*
G04 #@! TF.FilePolarity,Positive*
G04*
G01*
G75*
%ADD49C,0.00394*%
D49*
X152685Y157326D02*
G03*
X152685Y157326I-1969J0D01*
G01*
X17441Y195441D02*
G03*
X17441Y195441I-1969J0D01*
G01*
X53441D02*
G03*
X53441Y195441I-1969J0D01*
G01*
X132941D02*
G03*
X132941Y195441I-1969J0D01*
G01*
X172841D02*
G03*
X172841Y195441I-1969J0D01*
G01*
X33711Y157326D02*
G03*
X33711Y157326I-1969J0D01*
G01*
X82638Y331772D02*
X83425Y332559D01*
X82638Y313898D02*
X83425Y313110D01*
X82638Y313898D02*
Y331772D01*
X122087Y313898D02*
Y331772D01*
X121299Y313110D02*
X122087Y313898D01*
X121299Y332559D02*
X122087Y331772D01*
X83425Y332559D02*
X121299D01*
X83425Y313110D02*
X121299D01*
X41299Y331772D02*
X42087Y332559D01*
X41299Y313898D02*
X42087Y313110D01*
X41299Y313898D02*
Y331772D01*
X80748Y313898D02*
Y331772D01*
X79961Y313110D02*
X80748Y313898D01*
X79961Y332559D02*
X80748Y331772D01*
X42087Y332559D02*
X79961D01*
X42087Y313110D02*
X79961D01*
X167421Y35925D02*
Y117933D01*
X186909D01*
Y35925D02*
Y117933D01*
X167421Y35925D02*
X186909D01*
X147764Y138201D02*
X151307D01*
X147764Y144894D02*
X151307D01*
X147764Y138201D02*
Y144894D01*
X151307Y138201D02*
Y144894D01*
X167252Y153783D02*
Y171500D01*
X147174Y153783D02*
Y171500D01*
X167252D01*
X147174Y153783D02*
X167252D01*
X11929Y191898D02*
X28071D01*
X11929Y204102D02*
X28071D01*
X11929Y191898D02*
Y204102D01*
X28071Y191898D02*
Y204102D01*
X142331Y168448D02*
X145875D01*
Y175142D01*
X142331Y168448D02*
Y175142D01*
X145875D01*
X32228Y192347D02*
X35772D01*
X32228Y185653D02*
X35772D01*
Y192347D01*
X32228Y185653D02*
Y192347D01*
X2228Y200264D02*
X5772D01*
X2228Y206957D02*
X5772D01*
X2228Y200264D02*
Y206957D01*
X5772Y200264D02*
Y206957D01*
X2228Y189154D02*
X5772D01*
X2228Y195846D02*
X5772D01*
X2228Y189154D02*
Y195846D01*
X5772Y189154D02*
Y195846D01*
X52448Y134551D02*
X59141D01*
X52448Y138094D02*
X59141D01*
Y134551D02*
Y138094D01*
X52448Y134551D02*
Y138094D01*
Y123051D02*
Y126594D01*
X59141Y123051D02*
Y126594D01*
X52448D02*
X59141D01*
X52448Y123051D02*
X59141D01*
X32228Y203654D02*
X35772D01*
X32228Y210347D02*
X35772D01*
X32228Y203654D02*
Y210347D01*
X35772Y203654D02*
Y210347D01*
X66197Y55169D02*
X69740D01*
X66197Y61862D02*
X69740D01*
X66197Y55169D02*
Y61862D01*
X69740Y55169D02*
Y61862D01*
X57197Y61862D02*
X60740D01*
X57197Y55169D02*
X60740D01*
Y61862D01*
X57197Y55169D02*
Y61862D01*
Y66603D02*
X60740D01*
X57197Y73296D02*
X60740D01*
X57197Y66603D02*
Y73296D01*
X60740Y66603D02*
Y73296D01*
X66197Y66603D02*
Y73296D01*
X69740Y66603D02*
Y73296D01*
X66197Y66603D02*
X69740D01*
X66197Y73296D02*
X69740D01*
X50153Y104228D02*
Y107772D01*
X56846Y104228D02*
Y107772D01*
X50153D02*
X56846D01*
X50153Y104228D02*
X56846D01*
X56846Y97519D02*
Y101062D01*
X50154Y97519D02*
Y101062D01*
Y97519D02*
X56846D01*
X50154Y101062D02*
X56846D01*
X162202Y222903D02*
X165746D01*
X162202Y229596D02*
X165746D01*
X162202Y222903D02*
Y229596D01*
X165746Y222903D02*
Y229596D01*
X55013Y222903D02*
X58557D01*
X55013Y229596D02*
X58557D01*
X55013Y222903D02*
Y229596D01*
X58557Y222903D02*
Y229596D01*
X53528Y214728D02*
X60221D01*
X53528Y218272D02*
X60221D01*
Y214728D02*
Y218272D01*
X53528Y214728D02*
Y218272D01*
X160628Y214728D02*
Y218272D01*
X167321Y214728D02*
Y218272D01*
X160628D02*
X167321D01*
X160628Y214728D02*
X167321D01*
X71772Y206508D02*
Y213201D01*
X68228Y206508D02*
Y213201D01*
X71772D01*
X68228Y206508D02*
X71772D01*
X39228Y200264D02*
X42772D01*
X39228Y206957D02*
X42772D01*
X39228Y200264D02*
Y206957D01*
X42772Y200264D02*
Y206957D01*
X39228Y189043D02*
X42772D01*
X39228Y195736D02*
X42772D01*
X39228Y189043D02*
Y195736D01*
X42772Y189043D02*
Y195736D01*
X97476Y134327D02*
Y137870D01*
X104169Y134327D02*
Y137870D01*
X97476D02*
X104169D01*
X97476Y134327D02*
X104169D01*
X104169Y122827D02*
Y126370D01*
X97476Y122827D02*
Y126370D01*
Y122827D02*
X104169D01*
X97476Y126370D02*
X104169D01*
X68287Y184754D02*
Y191446D01*
X71830Y184754D02*
Y191446D01*
X68287Y184754D02*
X71830D01*
X68287Y191446D02*
X71830D01*
X107479Y55028D02*
X111023D01*
X107479Y61721D02*
X111023D01*
X107479Y55028D02*
Y61721D01*
X111023Y55028D02*
Y61721D01*
X98479Y61721D02*
X102023D01*
X98479Y55028D02*
X102023D01*
Y61721D01*
X98479Y55028D02*
Y61721D01*
X102023Y66528D02*
Y73221D01*
X98479Y66528D02*
Y73221D01*
X102023D01*
X98479Y66528D02*
X102023D01*
X107479Y73221D02*
X111023D01*
X107479Y66528D02*
X111023D01*
Y73221D01*
X107479Y66528D02*
Y73221D01*
X110409Y104228D02*
Y107772D01*
X117102Y104228D02*
Y107772D01*
X110409D02*
X117102D01*
X110409Y104228D02*
X117102D01*
X110409Y101062D02*
X117102D01*
X110409Y97519D02*
X117102D01*
X110409D02*
Y101062D01*
X117102Y97519D02*
Y101062D01*
X47929Y191898D02*
X64071D01*
X47929Y204102D02*
X64071D01*
X47929Y191898D02*
Y204102D01*
X64071Y191898D02*
Y204102D01*
X31313Y222903D02*
X34857D01*
X31313Y229596D02*
X34857D01*
X31313Y222903D02*
Y229596D01*
X34857Y222903D02*
Y229596D01*
X138502Y222903D02*
X142046D01*
X138502Y229596D02*
X142046D01*
X138502Y222903D02*
Y229596D01*
X142046Y222903D02*
Y229596D01*
X29739Y214728D02*
X36432D01*
X29739Y218272D02*
X36432D01*
Y214728D02*
Y218272D01*
X29739Y214728D02*
Y218272D01*
X136928Y214728D02*
Y218272D01*
X143621Y214728D02*
Y218272D01*
X136928D02*
X143621D01*
X136928Y214728D02*
X143621D01*
X9941Y35925D02*
Y117933D01*
X29429D01*
Y35925D02*
Y117933D01*
X9941Y35925D02*
X29429D01*
X148128Y186054D02*
Y192746D01*
Y186054D02*
X151672D01*
X148128Y192746D02*
X151672D01*
Y186054D02*
Y192746D01*
X188328Y185653D02*
Y192347D01*
Y185653D02*
X191872D01*
X188328Y192347D02*
X191872D01*
Y185653D02*
Y192347D01*
X148128Y203753D02*
X151672D01*
X148128Y210447D02*
X151672D01*
X148128Y203753D02*
Y210447D01*
X151672Y203753D02*
Y210447D01*
X188328Y203654D02*
X191872D01*
X188328Y210347D02*
X191872D01*
X188328Y203654D02*
Y210347D01*
X191872Y203654D02*
Y210347D01*
X27088Y168448D02*
Y175142D01*
X23545Y168448D02*
Y175142D01*
X27088D01*
X23545Y168448D02*
X27088D01*
X127429Y191898D02*
Y204102D01*
Y191898D02*
X143571D01*
X127429Y204102D02*
X143571D01*
Y191898D02*
Y204102D01*
X167329Y191898D02*
Y204102D01*
Y191898D02*
X183471D01*
X167329Y204102D02*
X183471D01*
Y191898D02*
Y204102D01*
X119243Y200264D02*
X122786D01*
X119243Y206957D02*
X122786D01*
X119243Y200264D02*
Y206957D01*
X122786Y200264D02*
Y206957D01*
X159128Y200264D02*
X162672D01*
X159128Y206957D02*
X162672D01*
X159128Y200264D02*
Y206957D01*
X162672Y200264D02*
Y206957D01*
X119243Y189154D02*
Y195846D01*
Y189154D02*
X122786D01*
X119243Y195846D02*
X122786D01*
Y189154D02*
Y195846D01*
X159128Y189043D02*
X162672D01*
X159128Y195736D02*
X162672D01*
X159128Y189043D02*
Y195736D01*
X162672Y189043D02*
Y195736D01*
X48278Y153783D02*
Y171500D01*
X28199Y153783D02*
Y171500D01*
X48278D01*
X28199Y153783D02*
X48278D01*
X10153Y160728D02*
Y164272D01*
X16846Y160728D02*
Y164272D01*
X10153D02*
X16846D01*
X10153Y160728D02*
X16846D01*
X133147D02*
Y164272D01*
X126453Y160728D02*
Y164272D01*
Y160728D02*
X133147D01*
X126453Y164272D02*
X133147D01*
X10153Y167728D02*
Y171272D01*
X16846Y167728D02*
Y171272D01*
X10153D02*
X16846D01*
X10153Y167728D02*
X16846D01*
X133147D02*
Y171272D01*
X126453Y167728D02*
Y171272D01*
Y167728D02*
X133147D01*
X126453Y171272D02*
X133147D01*
X36343Y137020D02*
Y140564D01*
X43036Y137020D02*
Y140564D01*
X36343D02*
X43036D01*
X36343Y137020D02*
X43036D01*
X155978D02*
Y140564D01*
X162671Y137020D02*
Y140564D01*
X155978D02*
X162671D01*
X155978Y137020D02*
X162671D01*
X28789Y138201D02*
X32333D01*
X28789Y144894D02*
X32333D01*
X28789Y138201D02*
Y144894D01*
X32333Y138201D02*
Y144894D01*
M02*
