G04*
G04 #@! TF.GenerationSoftware,Altium Limited,Altium Designer,21.4.1 (30)*
G04*
G04 Layer_Color=8388736*
%FSLAX25Y25*%
%MOIN*%
G70*
G04*
G04 #@! TF.SameCoordinates,7EEB5CCF-43E0-40BE-B5BA-AD8CC80F1960*
G04*
G04*
G04 #@! TF.FilePolarity,Negative*
G04*
G01*
G75*
G04:AMPARAMS|DCode=22|XSize=43.37mil|YSize=43.37mil|CornerRadius=5.94mil|HoleSize=0mil|Usage=FLASHONLY|Rotation=90.000|XOffset=0mil|YOffset=0mil|HoleType=Round|Shape=RoundedRectangle|*
%AMROUNDEDRECTD22*
21,1,0.04337,0.03150,0,0,90.0*
21,1,0.03150,0.04337,0,0,90.0*
1,1,0.01187,0.01575,0.01575*
1,1,0.01187,0.01575,-0.01575*
1,1,0.01187,-0.01575,-0.01575*
1,1,0.01187,-0.01575,0.01575*
%
%ADD22ROUNDEDRECTD22*%
G04:AMPARAMS|DCode=23|XSize=39.43mil|YSize=31.56mil|CornerRadius=8.89mil|HoleSize=0mil|Usage=FLASHONLY|Rotation=180.000|XOffset=0mil|YOffset=0mil|HoleType=Round|Shape=RoundedRectangle|*
%AMROUNDEDRECTD23*
21,1,0.03943,0.01378,0,0,180.0*
21,1,0.02165,0.03156,0,0,180.0*
1,1,0.01778,-0.01083,0.00689*
1,1,0.01778,0.01083,0.00689*
1,1,0.01778,0.01083,-0.00689*
1,1,0.01778,-0.01083,-0.00689*
%
%ADD23ROUNDEDRECTD23*%
G04:AMPARAMS|DCode=24|XSize=21.72mil|YSize=66.99mil|CornerRadius=3.95mil|HoleSize=0mil|Usage=FLASHONLY|Rotation=180.000|XOffset=0mil|YOffset=0mil|HoleType=Round|Shape=RoundedRectangle|*
%AMROUNDEDRECTD24*
21,1,0.02172,0.05909,0,0,180.0*
21,1,0.01382,0.06699,0,0,180.0*
1,1,0.00790,-0.00691,0.02955*
1,1,0.00790,0.00691,0.02955*
1,1,0.00790,0.00691,-0.02955*
1,1,0.00790,-0.00691,-0.02955*
%
%ADD24ROUNDEDRECTD24*%
%ADD25O,0.01581X0.08077*%
G04:AMPARAMS|DCode=26|XSize=71.5mil|YSize=44mil|CornerRadius=12mil|HoleSize=0mil|Usage=FLASHONLY|Rotation=270.000|XOffset=0mil|YOffset=0mil|HoleType=Round|Shape=RoundedRectangle|*
%AMROUNDEDRECTD26*
21,1,0.07150,0.02000,0,0,270.0*
21,1,0.04750,0.04400,0,0,270.0*
1,1,0.02400,-0.01000,-0.02375*
1,1,0.02400,-0.01000,0.02375*
1,1,0.02400,0.01000,0.02375*
1,1,0.02400,0.01000,-0.02375*
%
%ADD26ROUNDEDRECTD26*%
%ADD27R,0.04400X0.07150*%
G04:AMPARAMS|DCode=28|XSize=41.4mil|YSize=33.53mil|CornerRadius=9.38mil|HoleSize=0mil|Usage=FLASHONLY|Rotation=180.000|XOffset=0mil|YOffset=0mil|HoleType=Round|Shape=RoundedRectangle|*
%AMROUNDEDRECTD28*
21,1,0.04140,0.01476,0,0,180.0*
21,1,0.02264,0.03353,0,0,180.0*
1,1,0.01876,-0.01132,0.00738*
1,1,0.01876,0.01132,0.00738*
1,1,0.01876,0.01132,-0.00738*
1,1,0.01876,-0.01132,-0.00738*
%
%ADD28ROUNDEDRECTD28*%
G04:AMPARAMS|DCode=29|XSize=39.43mil|YSize=31.56mil|CornerRadius=8.89mil|HoleSize=0mil|Usage=FLASHONLY|Rotation=90.000|XOffset=0mil|YOffset=0mil|HoleType=Round|Shape=RoundedRectangle|*
%AMROUNDEDRECTD29*
21,1,0.03943,0.01378,0,0,90.0*
21,1,0.02165,0.03156,0,0,90.0*
1,1,0.01778,0.00689,0.01083*
1,1,0.01778,0.00689,-0.01083*
1,1,0.01778,-0.00689,-0.01083*
1,1,0.01778,-0.00689,0.01083*
%
%ADD29ROUNDEDRECTD29*%
%ADD30C,0.07874*%
%ADD31C,0.07290*%
%ADD32C,0.06502*%
%ADD33R,0.06502X0.06502*%
%ADD34C,0.04737*%
%ADD35C,0.06400*%
%ADD36C,0.27959*%
G36*
X20731Y370500D02*
Y350500D01*
X15731D01*
Y370500D01*
X20731D01*
D02*
G37*
D22*
X144000Y161000D02*
D03*
X67641Y198000D02*
D03*
X190957Y197175D02*
D03*
X35448Y196929D02*
D03*
X150827Y197175D02*
D03*
X45000Y181000D02*
D03*
X170000Y150634D02*
D03*
X25000Y161000D02*
D03*
D23*
X149536Y138792D02*
D03*
Y144304D02*
D03*
X4000Y200854D02*
D03*
Y206366D02*
D03*
Y189744D02*
D03*
Y195256D02*
D03*
X67969Y55759D02*
D03*
Y61271D02*
D03*
X58969Y61271D02*
D03*
Y55759D02*
D03*
X58969Y67194D02*
D03*
Y72705D02*
D03*
X67969Y67194D02*
D03*
Y72705D02*
D03*
X41000Y200854D02*
D03*
Y206366D02*
D03*
Y189634D02*
D03*
Y195146D02*
D03*
X109251Y55619D02*
D03*
Y61130D02*
D03*
X100251Y61130D02*
D03*
Y55619D02*
D03*
X100251Y72630D02*
D03*
Y67119D02*
D03*
X109251Y72630D02*
D03*
Y67119D02*
D03*
X121015Y200854D02*
D03*
Y206366D02*
D03*
X160900Y200854D02*
D03*
Y206366D02*
D03*
X121015Y189744D02*
D03*
Y195256D02*
D03*
X160900Y189634D02*
D03*
Y195146D02*
D03*
X30561Y138792D02*
D03*
Y144304D02*
D03*
D24*
X164890Y174649D02*
D03*
X162331D02*
D03*
X159772D02*
D03*
X157213D02*
D03*
X154654D02*
D03*
X152095D02*
D03*
X149536D02*
D03*
X164890Y150634D02*
D03*
X162331D02*
D03*
X159772D02*
D03*
X157213D02*
D03*
X154654D02*
D03*
X152095D02*
D03*
X149536D02*
D03*
X45915Y174649D02*
D03*
X43356D02*
D03*
X40797D02*
D03*
X38238D02*
D03*
X35679D02*
D03*
X33120D02*
D03*
X30561D02*
D03*
X45915Y150634D02*
D03*
X43356D02*
D03*
X40797D02*
D03*
X38238D02*
D03*
X35679D02*
D03*
X33120D02*
D03*
X30561D02*
D03*
D25*
X13110Y189634D02*
D03*
X15079D02*
D03*
X17047D02*
D03*
X19016D02*
D03*
X20984D02*
D03*
X22953D02*
D03*
X24921D02*
D03*
X26890D02*
D03*
X13110Y206366D02*
D03*
X15079D02*
D03*
X17047D02*
D03*
X19016D02*
D03*
X20984D02*
D03*
X22953D02*
D03*
X24921D02*
D03*
X26890D02*
D03*
X49110Y189634D02*
D03*
X51079D02*
D03*
X53047D02*
D03*
X55016D02*
D03*
X56984D02*
D03*
X58953D02*
D03*
X60921D02*
D03*
X62890D02*
D03*
X49110Y206366D02*
D03*
X51079D02*
D03*
X53047D02*
D03*
X55016D02*
D03*
X56984D02*
D03*
X58953D02*
D03*
X60921D02*
D03*
X62890D02*
D03*
X128610Y189634D02*
D03*
X130579D02*
D03*
X128610Y206366D02*
D03*
X130579D02*
D03*
X136484Y189634D02*
D03*
X138453D02*
D03*
X132547D02*
D03*
X134516D02*
D03*
X140421D02*
D03*
X142390D02*
D03*
X132547Y206366D02*
D03*
X134516D02*
D03*
X136484D02*
D03*
X138453D02*
D03*
X142390D02*
D03*
X140421D02*
D03*
X168510Y189634D02*
D03*
X170479D02*
D03*
X168510Y206366D02*
D03*
X170479D02*
D03*
X176384Y189634D02*
D03*
X178353D02*
D03*
X172447D02*
D03*
X174416D02*
D03*
X180321D02*
D03*
X182290D02*
D03*
X172447Y206366D02*
D03*
X174416D02*
D03*
X176384D02*
D03*
X178353D02*
D03*
X182290D02*
D03*
X180321D02*
D03*
D26*
X25185Y236665D02*
D03*
X33085D02*
D03*
X40985D02*
D03*
X48885D02*
D03*
X56785D02*
D03*
X64685D02*
D03*
X25185Y290915D02*
D03*
X33085D02*
D03*
X40985D02*
D03*
X48885D02*
D03*
X56785D02*
D03*
X132374Y236665D02*
D03*
X140274D02*
D03*
X148174D02*
D03*
X156074D02*
D03*
X163974D02*
D03*
X171874D02*
D03*
X132374Y290915D02*
D03*
X140274D02*
D03*
X148174D02*
D03*
X156074D02*
D03*
X163974D02*
D03*
D27*
X64685D02*
D03*
X171874D02*
D03*
D28*
X144103Y168941D02*
D03*
Y174649D02*
D03*
X34000Y191854D02*
D03*
Y186146D02*
D03*
X34000Y204146D02*
D03*
Y209854D02*
D03*
X163974Y223396D02*
D03*
Y229104D02*
D03*
X56785Y223396D02*
D03*
Y229104D02*
D03*
X70000Y212709D02*
D03*
Y207000D02*
D03*
X70059Y185246D02*
D03*
Y190954D02*
D03*
X33085Y223396D02*
D03*
Y229104D02*
D03*
X140274Y223396D02*
D03*
Y229104D02*
D03*
X149900Y186546D02*
D03*
Y192254D02*
D03*
X190100Y186146D02*
D03*
Y191854D02*
D03*
X149900Y204246D02*
D03*
Y209954D02*
D03*
X190100Y204146D02*
D03*
Y209854D02*
D03*
X25316Y174649D02*
D03*
Y168941D02*
D03*
D29*
X58550Y136322D02*
D03*
X53039D02*
D03*
Y124822D02*
D03*
X58550D02*
D03*
X50744Y106000D02*
D03*
X56256D02*
D03*
X56256Y99290D02*
D03*
X50744D02*
D03*
X59631Y216500D02*
D03*
X54119D02*
D03*
X161218D02*
D03*
X166730D02*
D03*
X98067Y136099D02*
D03*
X103578D02*
D03*
X103578Y124599D02*
D03*
X98067D02*
D03*
X111000Y106000D02*
D03*
X116512D02*
D03*
X111000Y99290D02*
D03*
X116512D02*
D03*
X35841Y216500D02*
D03*
X30329D02*
D03*
X137518D02*
D03*
X143030D02*
D03*
X10744Y162500D02*
D03*
X16256D02*
D03*
X132556Y162500D02*
D03*
X127044D02*
D03*
X10744Y169500D02*
D03*
X16256D02*
D03*
X132556Y169500D02*
D03*
X127044D02*
D03*
X36933Y138792D02*
D03*
X42445D02*
D03*
X156568D02*
D03*
X162080D02*
D03*
D30*
X44004Y44208D02*
D03*
X153803D02*
D03*
Y345361D02*
D03*
D31*
X107362Y327835D02*
D03*
Y317835D02*
D03*
X97362D02*
D03*
Y327835D02*
D03*
X87362Y317835D02*
D03*
Y327835D02*
D03*
X117362D02*
D03*
Y317835D02*
D03*
X66024Y327835D02*
D03*
Y317835D02*
D03*
X56024D02*
D03*
Y327835D02*
D03*
X46024Y317835D02*
D03*
Y327835D02*
D03*
X76024D02*
D03*
Y317835D02*
D03*
D32*
X172165Y51929D02*
D03*
Y61929D02*
D03*
Y71929D02*
D03*
Y81929D02*
D03*
Y91929D02*
D03*
Y101929D02*
D03*
Y111929D02*
D03*
X182165Y41929D02*
D03*
Y51929D02*
D03*
Y61929D02*
D03*
Y71929D02*
D03*
Y81929D02*
D03*
Y91929D02*
D03*
Y101929D02*
D03*
Y111929D02*
D03*
X14685Y51929D02*
D03*
Y61929D02*
D03*
Y71929D02*
D03*
Y81929D02*
D03*
Y91929D02*
D03*
Y101929D02*
D03*
Y111929D02*
D03*
X24685Y41929D02*
D03*
Y51929D02*
D03*
Y61929D02*
D03*
Y71929D02*
D03*
Y81929D02*
D03*
Y91929D02*
D03*
Y101929D02*
D03*
Y111929D02*
D03*
D33*
X172165Y41929D02*
D03*
X14685D02*
D03*
D34*
X112644Y383100D02*
D03*
X83243D02*
D03*
X53842D02*
D03*
X142045D02*
D03*
D35*
X112644Y366100D02*
D03*
Y354301D02*
D03*
X83243Y366100D02*
D03*
Y354301D02*
D03*
X53842Y366100D02*
D03*
Y354301D02*
D03*
X142045Y366100D02*
D03*
Y354301D02*
D03*
D36*
X19685Y314961D02*
D03*
X177165D02*
D03*
X19685Y19685D02*
D03*
X177165D02*
D03*
M02*
