M48
;Layer_Color=9474304
;FILE_FORMAT=2:5
INCH,LZ
;TYPE=PLATED
T1F00S00C0.01181
T2F00S00C0.03937
T3F00S00C0.04000
T4F00S00C0.04094
T5F00S00C0.12598
;TYPE=NON_PLATED
T6F00S00C0.11799
%
T01
X0055886Y0055759
X0070969Y0055759
X0103351Y0055619
X0112351Y0055574
Y0061174
Y0067074
Y0072674
X0103351
X01078Y00992
Y0106
X0118858Y0105958
X0106323Y0124599
X0103523Y0133098
X005855Y0133324
X00645Y01515
X00646Y01757
X00687Y01761
X0070059Y0182273
X0060688Y0183047
X0070059Y01936
X007Y0204354
X0121015Y0187085
X0125Y01868
X01292Y01818
X01327Y01792
X01353Y01808
X01393Y01839
X01438
X0144103Y0178371
X0152095Y0179767
X0159772
X0157634Y0189634
X01532Y01923
Y0186546
X01499Y02012
X01532Y02099
X01598Y02124
X01651Y01952
X0168713Y0183913
X01718Y01829
X01751Y0183
X01799Y01837
X0183Y01838
X01901Y0183
X01934Y01919
X01901Y02013
X0169221Y0168
X016489Y0145762
X0165679Y0138792
X0149482Y013
X0144378Y01554
X0144103Y0166
X01237Y01694
Y01625
X0070769Y0072705
X0070924Y0067194
X0070969Y0061271
X0056051Y0072705
X00445Y009929
Y0106
X0053039Y0121622
X0055794Y0139322
X0045915Y013884
Y0145516
X0050744Y01694
X0056012Y0177
X0050554Y0184332
X0046848Y018515
X0046818Y0189524
X0046637Y0192937
X00371Y0191854
Y0186146
X0041Y01865
X0040797Y0180403
X003312
X0028776Y01845
X0024921
X0025316Y0178512
X00191Y01835
X00085Y0185
X0004Y0186
X0010744Y01732
X0016256Y01729
X0025316Y0165488
Y01554
X0010784Y0157745
X00178Y02121
X0021Y02123
X00373Y0209854
X0034Y0201
X0033085Y0220215
X00521Y02131
X00559Y02128
X0056785Y0220215
X007Y0215854
X01311Y02131
X01349Y02137
X0140274Y0219715
X0163974
X01759Y02134
X01901Y02127
T02
X0046024Y0317835
X0056024
Y0327835
X0046024
X0066024
Y0317835
X0076024
Y0327835
X0087362
X0097362
X0107362
Y0317835
X0097362
X0087362
X0117362
Y0327835
T03
X0053842Y0354301
Y03661
X0083243
Y0354301
X0112644
Y03661
X0142045
Y0354301
T04
X0014685Y0041929
Y0051929
X0024685
Y0041929
X0172165
Y0051929
X0182165
Y0041929
Y0061929
X0172165
Y0071929
Y0081929
Y0091929
Y0101929
Y0111929
X0182165
Y0101929
Y0091929
Y0081929
Y0071929
X0024685
X0014685
Y0061929
X0024685
Y0081929
X0014685
Y0091929
Y0101929
Y0111929
X0024685
Y0101929
Y0091929
T05
X0019685Y0019685
X0177165
X0019685Y0314961
X0177165
T06
X0083243Y03831
X0112644
X0142045
X0053842
M30
