G04*
G04 #@! TF.GenerationSoftware,Altium Limited,Altium Designer,21.4.1 (30)*
G04*
G04 Layer_Color=32768*
%FSLAX25Y25*%
%MOIN*%
G70*
G04*
G04 #@! TF.SameCoordinates,3F7B9525-E0B4-4A28-A4E6-3C1D8492A5F8*
G04*
G04*
G04 #@! TF.FilePolarity,Positive*
G04*
G01*
G75*
%ADD12C,0.00394*%
%ADD130C,0.00500*%
%ADD133C,0.00197*%
D12*
X42406Y299375D02*
X46343D01*
X44375Y297407D02*
Y301343D01*
X39375Y316157D02*
Y320093D01*
X37407Y318125D02*
X41344D01*
X161156Y315625D02*
X165094D01*
X163125Y313656D02*
Y317594D01*
X161156Y338750D02*
X165094D01*
X163125Y336782D02*
Y340719D01*
X291353Y56250D02*
X294897D01*
X293125Y54478D02*
Y58022D01*
X285103Y56250D02*
X288647D01*
X286875Y54478D02*
Y58022D01*
X278853Y56250D02*
X282397D01*
X280625Y54478D02*
Y58022D01*
X272603Y56250D02*
X276147D01*
X274375Y54478D02*
Y58022D01*
X266353Y56250D02*
X269897D01*
X268125Y54478D02*
Y58022D01*
X260103Y56250D02*
X263647D01*
X261875Y54478D02*
Y58022D01*
X253853Y56250D02*
X257397D01*
X255625Y54478D02*
Y58022D01*
X247603Y56250D02*
X251147D01*
X249375Y54478D02*
Y58022D01*
X247603Y66875D02*
X251147D01*
X249375Y65103D02*
Y68647D01*
X253853Y66875D02*
X257397D01*
X255625Y65103D02*
Y68647D01*
X260103Y66875D02*
X263647D01*
X261875Y65103D02*
Y68647D01*
X266353Y66875D02*
X269897D01*
X268125Y65103D02*
Y68647D01*
X272603Y66875D02*
X276147D01*
X274375Y65103D02*
Y68647D01*
X278853Y66875D02*
X282397D01*
X280625Y65103D02*
Y68647D01*
X285103Y66875D02*
X288647D01*
X286875Y65103D02*
Y68647D01*
X291353Y66875D02*
X294897D01*
X293125Y65103D02*
Y68647D01*
X403853Y56250D02*
X407397D01*
X405625Y54478D02*
Y58022D01*
X397603Y56250D02*
X401147D01*
X399375Y54478D02*
Y58022D01*
X391353Y56250D02*
X394897D01*
X393125Y54478D02*
Y58022D01*
X385103Y56250D02*
X388647D01*
X386875Y54478D02*
Y58022D01*
X378853Y56250D02*
X382397D01*
X380625Y54478D02*
Y58022D01*
X372603Y56250D02*
X376147D01*
X374375Y54478D02*
Y58022D01*
X366353Y56250D02*
X369897D01*
X368125Y54478D02*
Y58022D01*
X360103Y56250D02*
X363647D01*
X361875Y54478D02*
Y58022D01*
X360103Y66875D02*
X363647D01*
X361875Y65103D02*
Y68647D01*
X366353Y66875D02*
X369897D01*
X368125Y65103D02*
Y68647D01*
X372603Y66875D02*
X376147D01*
X374375Y65103D02*
Y68647D01*
X378853Y66875D02*
X382397D01*
X380625Y65103D02*
Y68647D01*
X385103Y66875D02*
X388647D01*
X386875Y65103D02*
Y68647D01*
X391353Y66875D02*
X394897D01*
X393125Y65103D02*
Y68647D01*
X397603Y66875D02*
X401147D01*
X399375Y65103D02*
Y68647D01*
X403853Y66875D02*
X407397D01*
X405625Y65103D02*
Y68647D01*
X483032Y58750D02*
X486969D01*
X485000Y56782D02*
Y60719D01*
X468032Y58750D02*
X471969D01*
X470000Y56782D02*
Y60719D01*
X558032Y58750D02*
X561969D01*
X560000Y56782D02*
Y60719D01*
X543032Y58750D02*
X546969D01*
X545000Y56782D02*
Y60719D01*
X528031Y58750D02*
X531968D01*
X530000Y56782D02*
Y60719D01*
X513031Y58750D02*
X516968D01*
X515000Y56782D02*
Y60719D01*
X498032Y58750D02*
X501968D01*
X500000Y56782D02*
Y60719D01*
X453031Y58750D02*
X456968D01*
X455000Y56782D02*
Y60719D01*
X440452Y68701D02*
X444389D01*
X442421Y66733D02*
Y70670D01*
X543750Y275728D02*
Y279272D01*
X541978Y277500D02*
X545522D01*
X566606Y275728D02*
Y279272D01*
X564835Y277500D02*
X568378D01*
X453750Y275728D02*
Y279272D01*
X451978Y277500D02*
X455522D01*
X431250Y275728D02*
Y279272D01*
X429478Y277500D02*
X433022D01*
X421157Y81875D02*
X425094D01*
X423125Y79906D02*
Y83843D01*
X412594Y72231D02*
X416137D01*
X414365Y70459D02*
Y74002D01*
X571978Y217875D02*
X575522D01*
X573750Y216103D02*
Y219647D01*
X520000Y240103D02*
Y243647D01*
X518228Y241875D02*
X521772D01*
X471781Y238750D02*
X475718D01*
X473750Y236782D02*
Y240719D01*
X446781Y238750D02*
X450718D01*
X448750Y236782D02*
Y240719D01*
X261782Y238750D02*
X265719D01*
X263750Y236782D02*
Y240719D01*
X408750Y275728D02*
Y279272D01*
X406978Y277500D02*
X410522D01*
X386250Y275728D02*
Y279272D01*
X384478Y277500D02*
X388022D01*
X571978Y222500D02*
X575522D01*
X573750Y220728D02*
Y224272D01*
X571978Y178750D02*
X575522D01*
X573750Y176978D02*
Y180522D01*
X421781Y238750D02*
X425718D01*
X423750Y236782D02*
Y240719D01*
X571978Y240625D02*
X575522D01*
X573750Y238853D02*
Y242397D01*
X571978Y191250D02*
X575522D01*
X573750Y189478D02*
Y193022D01*
X571978Y196875D02*
X575522D01*
X573750Y195103D02*
Y198647D01*
X508032Y235000D02*
X511969D01*
X510000Y233032D02*
Y236968D01*
X483022Y236978D02*
Y240522D01*
X481250Y238750D02*
X484793D01*
X396781D02*
X400718D01*
X398750Y236782D02*
Y240719D01*
X321353Y251250D02*
X324897D01*
X323125Y249478D02*
Y253022D01*
X236782Y238750D02*
X240719D01*
X238750Y236782D02*
Y240719D01*
X567421Y115679D02*
Y119223D01*
X565649Y117451D02*
X569193D01*
X361429Y47483D02*
X364973D01*
X363201Y45711D02*
Y49255D01*
X587421Y115679D02*
Y119223D01*
X585649Y117451D02*
X589193D01*
X543282Y232500D02*
X547219D01*
X545250Y230532D02*
Y234469D01*
X273750Y275728D02*
Y279272D01*
X271978Y277500D02*
X275522D01*
X251250Y275728D02*
Y279272D01*
X249478Y277500D02*
X253022D01*
X517421Y115679D02*
Y119223D01*
X515649Y117451D02*
X519193D01*
X497421Y115679D02*
Y119223D01*
X495649Y117451D02*
X499193D01*
X318750Y36978D02*
Y40522D01*
X316978Y38750D02*
X320522D01*
X585649Y164951D02*
X589193D01*
X587421Y163179D02*
Y166723D01*
X596250Y171353D02*
Y174897D01*
X594478Y173125D02*
X598022D01*
X592421Y128179D02*
Y131723D01*
X590649Y129951D02*
X594193D01*
X565649Y164951D02*
X569193D01*
X567421Y163179D02*
Y166723D01*
X545649Y164951D02*
X549193D01*
X547421Y163179D02*
Y166723D01*
X483022Y223785D02*
Y227328D01*
X481250Y225557D02*
X484793D01*
X361978Y216875D02*
X365522D01*
X363750Y215103D02*
Y218647D01*
X328750Y229675D02*
Y233219D01*
X326978Y231447D02*
X330522D01*
X361978Y229375D02*
X365522D01*
X363750Y227603D02*
Y231147D01*
X161782Y238750D02*
X165718D01*
X163750Y236782D02*
Y240719D01*
X228750Y275728D02*
Y279272D01*
X226978Y277500D02*
X230522D01*
X206250Y275728D02*
Y279272D01*
X204478Y277500D02*
X208022D01*
X595452Y139951D02*
X599390D01*
X597421Y137982D02*
Y141920D01*
X477421Y115679D02*
Y119223D01*
X475649Y117451D02*
X479193D01*
X457500Y115728D02*
Y119272D01*
X455728Y117500D02*
X459272D01*
X362165Y88231D02*
Y91775D01*
X360393Y90003D02*
X363937D01*
X349665Y88231D02*
Y91775D01*
X347893Y90003D02*
X351437D01*
X295991Y47382D02*
X299534D01*
X297762Y45610D02*
Y49154D01*
X525649Y164951D02*
X529193D01*
X527421Y163179D02*
Y166723D01*
X485649Y164951D02*
X489193D01*
X487421Y163179D02*
Y166723D01*
X505649Y164951D02*
X509193D01*
X507421Y163179D02*
Y166723D01*
X479478Y185000D02*
X483022D01*
X481250Y183228D02*
Y186772D01*
X468228Y191250D02*
X471772D01*
X470000Y189478D02*
Y193022D01*
X295532Y235000D02*
X299468D01*
X297500Y233032D02*
Y236968D01*
X334281Y232500D02*
X338218D01*
X336250Y230532D02*
Y234469D01*
X361899Y179547D02*
X365443D01*
X363671Y177775D02*
Y181319D01*
X535453Y139951D02*
X539390D01*
X537421Y137982D02*
Y141920D01*
X462500Y128228D02*
Y131772D01*
X460728Y130000D02*
X464272D01*
X300094Y71875D02*
X303637D01*
X301865Y70103D02*
Y73647D01*
X337165Y88231D02*
Y91775D01*
X335393Y90003D02*
X338937D01*
X324665Y88231D02*
Y91775D01*
X322893Y90003D02*
X326437D01*
X272369Y47382D02*
X275912D01*
X274140Y45610D02*
Y49154D01*
X515452Y139951D02*
X519389D01*
X517421Y137982D02*
Y141920D01*
X442500Y128228D02*
Y131772D01*
X440728Y130000D02*
X444272D01*
X496781Y187500D02*
X500718D01*
X498750Y185531D02*
Y189469D01*
X461250Y205728D02*
Y209272D01*
X459478Y207500D02*
X463022D01*
X480031Y207500D02*
X483968D01*
X482000Y205532D02*
Y209469D01*
X430728Y187500D02*
X434272D01*
X432500Y185728D02*
Y189272D01*
X382766Y209791D02*
Y213335D01*
X380994Y211563D02*
X384538D01*
X28213Y210110D02*
Y214048D01*
X26245Y212079D02*
X30182D01*
X495452Y139951D02*
X499390D01*
X497421Y137982D02*
Y141920D01*
X422500Y128228D02*
Y131772D01*
X420728Y130000D02*
X424272D01*
X367421Y115679D02*
Y119223D01*
X365649Y117451D02*
X369193D01*
X361978Y235000D02*
X365522D01*
X363750Y233228D02*
Y236772D01*
X248746Y47382D02*
X252289D01*
X250517Y45610D02*
Y49154D01*
X225124Y47382D02*
X228667D01*
X226895Y45610D02*
Y49154D01*
X465452Y150000D02*
X469389D01*
X467421Y148031D02*
Y151969D01*
X409281Y208750D02*
X413218D01*
X411250Y206782D02*
Y210718D01*
X104921Y236483D02*
Y240420D01*
X102953Y238451D02*
X106889D01*
X99478Y260000D02*
X103022D01*
X101250Y258228D02*
Y261772D01*
X326250Y194281D02*
Y198219D01*
X324282Y196250D02*
X328219D01*
X99399Y231201D02*
X102943D01*
X101171Y229429D02*
Y232973D01*
X347421Y115679D02*
Y119223D01*
X345649Y117451D02*
X349193D01*
X372421Y128179D02*
Y131723D01*
X370649Y129951D02*
X374193D01*
X327421Y115679D02*
Y119223D01*
X325649Y117451D02*
X329193D01*
X445532Y150000D02*
X449469D01*
X447500Y148031D02*
Y151969D01*
X389399Y167500D02*
X392943D01*
X391171Y165728D02*
Y169272D01*
X425531Y150000D02*
X429468D01*
X427500Y148031D02*
Y151969D01*
X33031Y226250D02*
X36968D01*
X35000Y224282D02*
Y228219D01*
X352421Y128179D02*
Y131723D01*
X350649Y129951D02*
X354193D01*
X115532Y220000D02*
X119468D01*
X117500Y218032D02*
Y221969D01*
X274282Y187500D02*
X278219D01*
X276250Y185531D02*
Y189469D01*
X276782Y235000D02*
X280718D01*
X278750Y233032D02*
Y236968D01*
X315453Y149951D02*
X319390D01*
X317421Y147983D02*
Y151919D01*
X295452Y149951D02*
X299390D01*
X297421Y147983D02*
Y151919D01*
X275452Y149951D02*
X279390D01*
X277421Y147983D02*
Y151919D01*
X244531Y195250D02*
X248468D01*
X246500Y193281D02*
Y197219D01*
X116250Y195728D02*
Y199272D01*
X114478Y197500D02*
X118022D01*
X63032D02*
X66969D01*
X65000Y195531D02*
Y199469D01*
X215728Y187500D02*
X219272D01*
X217500Y185728D02*
Y189272D01*
X253228Y191250D02*
X256772D01*
X255000Y189478D02*
Y193022D01*
X63032Y167500D02*
X66969D01*
X65000Y165532D02*
Y169468D01*
X215728Y165000D02*
X219272D01*
X217500Y163228D02*
Y166772D01*
X206782Y208750D02*
X210718D01*
X208750Y206782D02*
Y210718D01*
X262500Y128228D02*
Y131772D01*
X260728Y130000D02*
X264272D01*
X242500Y128228D02*
Y131772D01*
X240728Y130000D02*
X244272D01*
X222500Y128228D02*
Y131772D01*
X220728Y130000D02*
X224272D01*
X255532Y150000D02*
X259469D01*
X257500Y148031D02*
Y151969D01*
X215531Y150000D02*
X219468D01*
X217500Y148031D02*
Y151969D01*
X235531Y150000D02*
X239469D01*
X237500Y148031D02*
Y151969D01*
X99478Y151250D02*
X103022D01*
X101250Y149478D02*
Y153022D01*
X143032Y197500D02*
X146968D01*
X145000Y195531D02*
Y199469D01*
X186782Y238750D02*
X190718D01*
X188750Y236782D02*
Y240719D01*
X211782Y238750D02*
X215719D01*
X213750Y236782D02*
Y240719D01*
X135728Y115000D02*
X139272D01*
X137500Y113228D02*
Y116772D01*
X62000Y119728D02*
Y123272D01*
X60228Y121500D02*
X63772D01*
X56500Y119728D02*
Y123272D01*
X54728Y121500D02*
X58272D01*
X588031Y58750D02*
X591968D01*
X590000Y56782D02*
Y60719D01*
X573032Y58750D02*
X576968D01*
X575000Y56782D02*
Y60719D01*
X532500Y265472D02*
Y269016D01*
X530728Y267244D02*
X534272D01*
X498750Y275728D02*
Y279272D01*
X496978Y277500D02*
X500522D01*
X476250Y275728D02*
Y279272D01*
X474478Y277500D02*
X478022D01*
X431875Y36978D02*
Y40522D01*
X430103Y38750D02*
X433647D01*
X508032Y280000D02*
X511969D01*
X510000Y278031D02*
Y281968D01*
X571978Y210000D02*
X575522D01*
X573750Y208228D02*
Y211772D01*
X532795Y251250D02*
X536338D01*
X534567Y249479D02*
Y253022D01*
X545000Y249478D02*
Y253022D01*
X543228Y251250D02*
X546772D01*
X490531Y235000D02*
X494468D01*
X492500Y233032D02*
Y236968D01*
X530581Y280000D02*
X534517D01*
X532549Y278031D02*
Y281968D01*
X577500Y265472D02*
Y269016D01*
X575728Y267244D02*
X579272D01*
X591875Y208853D02*
Y212397D01*
X590103Y210625D02*
X593647D01*
X571978Y204375D02*
X575522D01*
X573750Y202603D02*
Y206147D01*
X390689Y265472D02*
Y269016D01*
X388917Y267244D02*
X392460D01*
X352500Y265472D02*
Y269016D01*
X350728Y267244D02*
X354272D01*
X373031Y280000D02*
X376969D01*
X375000Y278031D02*
Y281968D01*
X408673Y47483D02*
X412217D01*
X410445Y45711D02*
Y49255D01*
X426250Y259429D02*
Y262973D01*
X424478Y261201D02*
X428022D01*
X406250Y259429D02*
Y262973D01*
X404478Y261201D02*
X408022D01*
X350532Y280000D02*
X354468D01*
X352500Y278031D02*
Y281968D01*
X328031Y280000D02*
X331968D01*
X330000Y278031D02*
Y281968D01*
X385051Y47483D02*
X388595D01*
X386823Y45711D02*
Y49255D01*
X333750Y249478D02*
Y253022D01*
X331978Y251250D02*
X335522D01*
X296250Y275728D02*
Y279272D01*
X294478Y277500D02*
X298022D01*
X383125Y101781D02*
Y105719D01*
X381156Y103750D02*
X385093D01*
X337807Y47483D02*
X341351D01*
X339579Y45711D02*
Y49255D01*
X598853Y167375D02*
X602397D01*
X600625Y165603D02*
Y169147D01*
X547421Y115679D02*
Y119223D01*
X545649Y117451D02*
X549193D01*
X533449Y229872D02*
Y233415D01*
X531677Y231644D02*
X535220D01*
X520000Y229478D02*
Y233022D01*
X518228Y231250D02*
X521772D01*
X216250Y259478D02*
Y263022D01*
X214478Y261250D02*
X218022D01*
X324478Y55000D02*
X328022D01*
X326250Y53228D02*
Y56772D01*
X582421Y128179D02*
Y131723D01*
X580649Y129951D02*
X584193D01*
X562421Y128179D02*
Y131723D01*
X560649Y129951D02*
X564193D01*
X535728Y158750D02*
X539272D01*
X537500Y156978D02*
Y160522D01*
X288032Y235000D02*
X291968D01*
X290000Y233032D02*
Y236968D01*
X308750Y240103D02*
Y243647D01*
X306978Y241875D02*
X310522D01*
X316250Y229675D02*
Y233219D01*
X314478Y231447D02*
X318022D01*
X361978Y222500D02*
X365522D01*
X363750Y220728D02*
Y224272D01*
X199282Y238750D02*
X203219D01*
X201250Y236782D02*
Y240719D01*
X191250Y259478D02*
Y263022D01*
X189478Y261250D02*
X193022D01*
X193031Y280000D02*
X196967D01*
X194999Y278031D02*
Y281968D01*
X542421Y128179D02*
Y131723D01*
X540649Y129951D02*
X544193D01*
X522421Y128179D02*
Y131723D01*
X520649Y129951D02*
X524193D01*
X437500Y115728D02*
Y119272D01*
X435728Y117500D02*
X439272D01*
X411353Y96875D02*
X414897D01*
X413125Y95103D02*
Y98647D01*
X575453Y139951D02*
X579389D01*
X577421Y137982D02*
Y141920D01*
X502421Y128179D02*
Y131723D01*
X500649Y129951D02*
X504193D01*
X489032Y187500D02*
X492969D01*
X491000Y185531D02*
Y189469D01*
X499031Y201000D02*
X502969D01*
X501000Y199031D02*
Y202969D01*
X174282Y238750D02*
X178218D01*
X176250Y236782D02*
Y240719D01*
X166250Y259478D02*
Y263022D01*
X164478Y261250D02*
X168022D01*
X114281Y305000D02*
X118219D01*
X116250Y303031D02*
Y306968D01*
X555452Y139951D02*
X559389D01*
X557421Y137982D02*
Y141920D01*
X482500Y128228D02*
Y131772D01*
X480728Y130000D02*
X484272D01*
X417500Y115728D02*
Y119272D01*
X415728Y117500D02*
X419272D01*
X318415Y88231D02*
Y91775D01*
X316643Y90003D02*
X320187D01*
X445728Y165000D02*
X449272D01*
X447500Y163228D02*
Y166772D01*
X465728Y165000D02*
X469272D01*
X467500Y163228D02*
Y166772D01*
X479478Y191250D02*
X483022D01*
X481250Y189478D02*
Y193022D01*
X459281Y195500D02*
X463218D01*
X461250Y193532D02*
Y197468D01*
X361978Y197500D02*
X365522D01*
X363750Y195728D02*
Y199272D01*
X421531Y208750D02*
X425468D01*
X423500Y206782D02*
Y210718D01*
X425728Y165000D02*
X429272D01*
X427500Y163228D02*
Y166772D01*
X396978Y198750D02*
X400522D01*
X398750Y196978D02*
Y200522D01*
X361978Y191875D02*
X365522D01*
X363750Y190103D02*
Y193647D01*
X377421Y115679D02*
Y119223D01*
X375649Y117451D02*
X379193D01*
X268656Y87500D02*
X272593D01*
X270625Y85532D02*
Y89468D01*
X205531Y88130D02*
Y91674D01*
X203760Y89902D02*
X207303D01*
X260558Y47382D02*
X264101D01*
X262329Y45610D02*
Y49154D01*
X218031Y88130D02*
Y91674D01*
X216260Y89902D02*
X219803D01*
X411250Y189478D02*
Y193022D01*
X409478Y191250D02*
X413022D01*
X386063Y173809D02*
X389606D01*
X387834Y172037D02*
Y175581D01*
X422500Y194478D02*
Y198022D01*
X420728Y196250D02*
X424272D01*
X385728Y158750D02*
X389272D01*
X387500Y156978D02*
Y160522D01*
X54352Y223594D02*
X58289D01*
X56321Y221625D02*
Y225562D01*
X117500Y246014D02*
Y249557D01*
X115728Y247785D02*
X119272D01*
X243031Y88130D02*
Y91674D01*
X241260Y89902D02*
X244803D01*
X230531Y88130D02*
Y91674D01*
X228760Y89902D02*
X232303D01*
X365728Y158750D02*
X369272D01*
X367500Y156978D02*
Y160522D01*
X345728Y158750D02*
X349272D01*
X347500Y156978D02*
Y160522D01*
X325728Y158750D02*
X329272D01*
X327500Y156978D02*
Y160522D01*
X73032Y256250D02*
X76968D01*
X75000Y254281D02*
Y258219D01*
X342421Y128179D02*
Y131723D01*
X340649Y129951D02*
X344193D01*
X307421Y115679D02*
Y119223D01*
X305649Y117451D02*
X309193D01*
X322421Y128179D02*
Y131723D01*
X320649Y129951D02*
X324193D01*
X287421Y115679D02*
Y119223D01*
X285649Y117451D02*
X289193D01*
X267421Y115679D02*
Y119223D01*
X265649Y117451D02*
X269193D01*
X257500Y115728D02*
Y119272D01*
X255728Y117500D02*
X259272D01*
X237500Y115728D02*
Y119272D01*
X235728Y117500D02*
X239272D01*
X217500Y115728D02*
Y119272D01*
X215728Y117500D02*
X219272D01*
X375452Y149951D02*
X379390D01*
X377421Y147983D02*
Y151919D01*
X335453Y149951D02*
X339389D01*
X337421Y147983D02*
Y151919D01*
X355452Y149951D02*
X359389D01*
X357421Y147983D02*
Y151919D01*
X305728Y158750D02*
X309272D01*
X307500Y156978D02*
Y160522D01*
X285728Y158750D02*
X289272D01*
X287500Y156978D02*
Y160522D01*
X302421Y128179D02*
Y131723D01*
X300649Y129951D02*
X304193D01*
X282421Y128179D02*
Y131723D01*
X280649Y129951D02*
X284193D01*
X265728Y158750D02*
X269272D01*
X267500Y156978D02*
Y160522D01*
X245728Y158750D02*
X249272D01*
X247500Y156978D02*
Y160522D01*
X265032Y207500D02*
X268969D01*
X267000Y205532D02*
Y209469D01*
X225728Y158750D02*
X229272D01*
X227500Y156978D02*
Y160522D01*
X191644Y188583D02*
Y192126D01*
X189872Y190354D02*
X193415D01*
X148031Y137500D02*
X151969D01*
X150000Y135531D02*
Y139469D01*
X202766Y145000D02*
X204735D01*
X203750Y144015D02*
Y145984D01*
X146250Y115728D02*
Y119272D01*
X144478Y117500D02*
X148022D01*
X123750Y129478D02*
Y133022D01*
X121978Y131250D02*
X125522D01*
X35000Y119728D02*
Y123272D01*
X33228Y121500D02*
X36772D01*
X29500Y119728D02*
Y123272D01*
X27728Y121500D02*
X31272D01*
X90000Y115728D02*
Y119272D01*
X88228Y117500D02*
X91772D01*
X24016Y87500D02*
X25985D01*
X25000Y86515D02*
Y88484D01*
X600531Y68750D02*
X604468D01*
X602500Y66782D02*
Y70718D01*
X565531Y78750D02*
X569468D01*
X567500Y76781D02*
Y80718D01*
X550531Y78750D02*
X554468D01*
X552500Y76781D02*
Y80718D01*
X535532Y78750D02*
X539468D01*
X537500Y76781D02*
Y80718D01*
X520532Y78750D02*
X524469D01*
X522500Y76781D02*
Y80718D01*
X505532Y78750D02*
X509469D01*
X507500Y76781D02*
Y80718D01*
X490531Y78750D02*
X494468D01*
X492500Y76781D02*
Y80718D01*
X475531Y78750D02*
X479468D01*
X477500Y76781D02*
Y80718D01*
X460532Y78750D02*
X464468D01*
X462500Y76781D02*
Y80718D01*
X463031Y280000D02*
X466968D01*
X465000Y278031D02*
Y281968D01*
X459281Y238750D02*
X463218D01*
X461250Y236782D02*
Y240719D01*
X440531Y280000D02*
X444468D01*
X442500Y278031D02*
Y281968D01*
X417952Y280000D02*
X421889D01*
X419921Y278031D02*
Y281968D01*
X420484Y47483D02*
X424028D01*
X422256Y45711D02*
Y49255D01*
X553031Y280000D02*
X556968D01*
X555000Y278031D02*
Y281968D01*
X575531Y280000D02*
X579468D01*
X577500Y278031D02*
Y281968D01*
X583750Y208853D02*
Y212397D01*
X581978Y210625D02*
X585522D01*
X395590Y280000D02*
X399527D01*
X397559Y278031D02*
Y281968D01*
X571978Y184705D02*
X575522D01*
X573750Y182933D02*
Y186477D01*
X434281Y238750D02*
X438218D01*
X436250Y236782D02*
Y240719D01*
X330000Y265472D02*
Y269016D01*
X328228Y267244D02*
X331772D01*
X249282Y238750D02*
X253219D01*
X251250Y236782D02*
Y240719D01*
X557597Y232500D02*
X561535D01*
X559566Y230532D02*
Y234469D01*
X571978Y229375D02*
X575522D01*
X573750Y227603D02*
Y231147D01*
X550281Y232500D02*
X554218D01*
X552250Y230532D02*
Y234469D01*
X591250Y188656D02*
Y192594D01*
X589282Y190625D02*
X593219D01*
X527500Y229872D02*
Y233415D01*
X525728Y231644D02*
X529272D01*
X409281Y238750D02*
X413218D01*
X411250Y236782D02*
Y240719D01*
X384281Y238750D02*
X388218D01*
X386250Y236782D02*
Y240719D01*
X224282Y238750D02*
X228219D01*
X226250Y236782D02*
Y240719D01*
X283032Y280000D02*
X286968D01*
X285000Y278031D02*
Y281968D01*
X557421Y115679D02*
Y119223D01*
X555649Y117451D02*
X559193D01*
X373240Y47483D02*
X376784D01*
X375012Y45711D02*
Y49255D01*
X577421Y115679D02*
Y119223D01*
X575649Y117451D02*
X579193D01*
X536250Y194281D02*
Y198219D01*
X534281Y196250D02*
X538218D01*
X260531Y280000D02*
X264469D01*
X262500Y278031D02*
Y281968D01*
X238032Y280000D02*
X241968D01*
X240000Y278031D02*
Y281968D01*
X527421Y115679D02*
Y119223D01*
X525649Y117451D02*
X529193D01*
X507421Y115679D02*
Y119223D01*
X505649Y117451D02*
X509193D01*
X307802Y47382D02*
X311345D01*
X309573Y45610D02*
Y49154D01*
X575728Y158750D02*
X579272D01*
X577500Y156978D02*
Y160522D01*
X595728Y158750D02*
X599272D01*
X597500Y156978D02*
Y160522D01*
X597421Y115679D02*
Y119223D01*
X595649Y117451D02*
X599193D01*
X555777Y158750D02*
X559321D01*
X557549Y156978D02*
Y160522D01*
X215531Y280000D02*
X219468D01*
X217500Y278031D02*
Y281968D01*
X487421Y115679D02*
Y119223D01*
X485649Y117451D02*
X489193D01*
X467500Y115728D02*
Y119272D01*
X465728Y117500D02*
X469272D01*
X447500Y115728D02*
Y119272D01*
X445728Y117500D02*
X449272D01*
X355915Y88231D02*
Y91775D01*
X354143Y90003D02*
X357687D01*
X585453Y149951D02*
X589390D01*
X587421Y147983D02*
Y151919D01*
X515728Y158750D02*
X519272D01*
X517500Y156978D02*
Y160522D01*
X495728Y158750D02*
X499272D01*
X497500Y156978D02*
Y160522D01*
X361978Y240625D02*
X365522D01*
X363750Y238853D02*
Y242397D01*
X349282Y232500D02*
X353219D01*
X351250Y230532D02*
Y234469D01*
X341781Y232500D02*
X345719D01*
X343750Y230532D02*
Y234469D01*
X361899Y184921D02*
X365443D01*
X363671Y183149D02*
Y186693D01*
X361978Y210000D02*
X365522D01*
X363750Y208228D02*
Y211772D01*
X472500Y128228D02*
Y131772D01*
X470728Y130000D02*
X474272D01*
X308657Y81875D02*
X312594D01*
X310625Y79906D02*
Y83843D01*
X343415Y88231D02*
Y91775D01*
X341643Y90003D02*
X345187D01*
X330915Y88231D02*
Y91775D01*
X329143Y90003D02*
X332687D01*
X284180Y47382D02*
X287723D01*
X285951Y45610D02*
Y49154D01*
X505452Y149951D02*
X509389D01*
X507421Y147983D02*
Y151919D01*
X525453Y149951D02*
X529389D01*
X527421Y147983D02*
Y151919D01*
X452500Y128228D02*
Y131772D01*
X450728Y130000D02*
X454272D01*
X149282Y238750D02*
X153218D01*
X151250Y236782D02*
Y240719D01*
X432500Y128228D02*
Y131772D01*
X430728Y130000D02*
X434272D01*
X298853Y96875D02*
X302397D01*
X300625Y95103D02*
Y98647D01*
X246781Y78125D02*
X250718D01*
X248750Y76157D02*
Y80093D01*
X236935Y47382D02*
X240478D01*
X238706Y45610D02*
Y49154D01*
X485453Y149951D02*
X489390D01*
X487421Y147983D02*
Y151919D01*
X395187Y214951D02*
X397155D01*
X396171Y213967D02*
Y215935D01*
X110728Y260000D02*
X114272D01*
X112500Y258228D02*
Y261772D01*
X24478Y183750D02*
X28022D01*
X26250Y181978D02*
Y185522D01*
X111899Y231201D02*
X115443D01*
X113671Y229429D02*
Y232973D01*
X357421Y115679D02*
Y119223D01*
X355649Y117451D02*
X359193D01*
X382421Y128179D02*
Y131723D01*
X380649Y129951D02*
X384193D01*
X337421Y115679D02*
Y119223D01*
X335649Y117451D02*
X339193D01*
X362421Y128179D02*
Y131723D01*
X360649Y129951D02*
X364193D01*
X24478Y153750D02*
X28022D01*
X26250Y151978D02*
Y155522D01*
X54031Y254795D02*
X57968D01*
X56000Y252827D02*
Y256764D01*
X94478Y211250D02*
X98022D01*
X96250Y209478D02*
Y213022D01*
X73032Y226250D02*
X76968D01*
X75000Y224282D02*
Y228219D01*
X282031Y187500D02*
X285968D01*
X284000Y185531D02*
Y189469D01*
X284032Y201250D02*
X287968D01*
X286000Y199282D02*
Y203219D01*
X325452Y139951D02*
X329390D01*
X327421Y137982D02*
Y141920D01*
X305452Y139951D02*
X309389D01*
X307421Y137982D02*
Y141920D01*
X285453Y139951D02*
X289389D01*
X287421Y137982D02*
Y141920D01*
X264478Y191250D02*
X268022D01*
X266250Y189478D02*
Y193022D01*
X116171Y165679D02*
Y169223D01*
X114399Y167451D02*
X117943D01*
X264478Y185000D02*
X268022D01*
X266250Y183228D02*
Y186772D01*
X246250Y205728D02*
Y209272D01*
X244478Y207500D02*
X248022D01*
X265531Y140000D02*
X269468D01*
X267500Y138031D02*
Y141969D01*
X252500Y128228D02*
Y131772D01*
X250728Y130000D02*
X254272D01*
X232500Y128228D02*
Y131772D01*
X230728Y130000D02*
X234272D01*
X212500Y128228D02*
Y131772D01*
X210728Y130000D02*
X214272D01*
X245532Y140000D02*
X249468D01*
X247500Y138031D02*
Y141969D01*
X225532Y140000D02*
X229468D01*
X227500Y138031D02*
Y141969D01*
X145000Y165532D02*
Y169468D01*
X143032Y167500D02*
X146968D01*
X207500Y194478D02*
Y198022D01*
X205728Y196250D02*
X209272D01*
X123750Y141978D02*
Y145522D01*
X121978Y143750D02*
X125522D01*
X40500Y119728D02*
Y123272D01*
X38728Y121500D02*
X42272D01*
X73228Y115000D02*
X76772D01*
X75000Y113228D02*
Y116772D01*
X580532Y78750D02*
X584469D01*
X582500Y76781D02*
Y80718D01*
X510000Y265472D02*
Y269016D01*
X508228Y267244D02*
X511772D01*
X485532Y280000D02*
X489468D01*
X487500Y278031D02*
Y281968D01*
X521250Y275728D02*
Y279272D01*
X519478Y277500D02*
X523022D01*
X555000Y265472D02*
Y269016D01*
X553228Y267244D02*
X556772D01*
X375000Y265472D02*
Y269016D01*
X373228Y267244D02*
X376772D01*
X381156Y87500D02*
X385093D01*
X383125Y85532D02*
Y89468D01*
X416250Y259429D02*
Y262973D01*
X414478Y261201D02*
X418022D01*
X396229Y259478D02*
Y263022D01*
X394457Y261250D02*
X398001D01*
X363750Y275728D02*
Y279272D01*
X361978Y277500D02*
X365522D01*
X341250Y275728D02*
Y279272D01*
X339478Y277500D02*
X343022D01*
X396862Y47483D02*
X400406D01*
X398634Y45711D02*
Y49255D01*
X500531Y235000D02*
X504468D01*
X502500Y233032D02*
Y236968D01*
X318750Y275728D02*
Y279272D01*
X316978Y277500D02*
X320522D01*
X305532Y280000D02*
X309469D01*
X307500Y278031D02*
Y281968D01*
X349618Y47483D02*
X353162D01*
X351390Y45711D02*
Y49255D01*
X537421Y115679D02*
Y119223D01*
X535649Y117451D02*
X539193D01*
X539094Y229872D02*
Y233415D01*
X537322Y231644D02*
X540866D01*
X203750Y259478D02*
Y263022D01*
X201978Y261250D02*
X205522D01*
X572421Y128179D02*
Y131723D01*
X570649Y129951D02*
X574193D01*
X308750Y229675D02*
Y233219D01*
X306978Y231447D02*
X310522D01*
X178750Y259429D02*
Y262973D01*
X176978Y261201D02*
X180522D01*
X183750Y275728D02*
Y279272D01*
X181978Y277500D02*
X185522D01*
X552421Y128179D02*
Y131723D01*
X550649Y129951D02*
X554193D01*
X532421Y128179D02*
Y131723D01*
X530649Y129951D02*
X534193D01*
X427500Y115728D02*
Y119272D01*
X425728Y117500D02*
X429272D01*
X571978Y235000D02*
X575522D01*
X573750Y233228D02*
Y236772D01*
X512421Y128179D02*
Y131723D01*
X510649Y129951D02*
X514193D01*
X565452Y149951D02*
X569389D01*
X567421Y147983D02*
Y151919D01*
X322500Y229675D02*
Y233219D01*
X320728Y231447D02*
X324272D01*
X361978Y204375D02*
X365522D01*
X363750Y202603D02*
Y206147D01*
X492421Y128179D02*
Y131723D01*
X490649Y129951D02*
X494193D01*
X545452Y149951D02*
X549390D01*
X547421Y147983D02*
Y151919D01*
X455728Y158750D02*
X459272D01*
X457500Y156978D02*
Y160522D01*
X475728Y158750D02*
X479272D01*
X477500Y156978D02*
Y160522D01*
X374547Y209778D02*
Y213322D01*
X372775Y211550D02*
X376319D01*
X26201Y240360D02*
Y244298D01*
X24232Y242329D02*
X28170D01*
X153750Y259478D02*
Y263022D01*
X151978Y261250D02*
X155522D01*
X387421Y115679D02*
Y119223D01*
X385649Y117451D02*
X389193D01*
X475531Y140000D02*
X479468D01*
X477500Y138031D02*
Y141969D01*
X211781Y88130D02*
Y91674D01*
X210010Y89902D02*
X213553D01*
X249281Y88130D02*
Y91674D01*
X247510Y89902D02*
X251053D01*
X435728Y158750D02*
X439272D01*
X437500Y156978D02*
Y160522D01*
X455532Y140000D02*
X459469D01*
X457500Y138031D02*
Y141969D01*
X382421Y189685D02*
Y193622D01*
X380452Y191654D02*
X384389D01*
X398031Y187500D02*
X401968D01*
X400000Y185531D02*
Y189469D01*
X375649Y164951D02*
X379193D01*
X377421Y163179D02*
Y166723D01*
X435532Y140000D02*
X439468D01*
X437500Y138031D02*
Y141969D01*
X224281Y88130D02*
Y91674D01*
X222510Y89902D02*
X226053D01*
X208853Y58125D02*
X212397D01*
X210625Y56353D02*
Y59897D01*
X236781Y88130D02*
Y91674D01*
X235010Y89902D02*
X238553D01*
X412766Y145000D02*
X414735D01*
X413750Y144015D02*
Y145984D01*
X355649Y164951D02*
X359193D01*
X357421Y163179D02*
Y166723D01*
X335649Y164951D02*
X339193D01*
X337421Y163179D02*
Y166723D01*
X315649Y164951D02*
X319193D01*
X317421Y163179D02*
Y166723D01*
X33031Y256250D02*
X36968D01*
X35000Y254281D02*
Y258219D01*
X317421Y115679D02*
Y119223D01*
X315649Y117451D02*
X319193D01*
X385453Y139951D02*
X389389D01*
X387421Y137982D02*
Y141920D01*
X332421Y128179D02*
Y131723D01*
X330649Y129951D02*
X334193D01*
X297421Y115679D02*
Y119223D01*
X295649Y117451D02*
X299193D01*
X277421Y115679D02*
Y119223D01*
X275649Y117451D02*
X279193D01*
X227500Y115728D02*
Y119272D01*
X225728Y117500D02*
X229272D01*
X247500Y115728D02*
Y119272D01*
X245728Y117500D02*
X249272D01*
X207500Y115728D02*
Y119272D01*
X205728Y117500D02*
X209272D01*
X365453Y139951D02*
X369390D01*
X367421Y137982D02*
Y141920D01*
X345452Y139951D02*
X349390D01*
X347421Y137982D02*
Y141920D01*
X295649Y164951D02*
X299193D01*
X297421Y163179D02*
Y166723D01*
X275649Y164951D02*
X279193D01*
X277421Y163179D02*
Y166723D01*
X312421Y128179D02*
Y131723D01*
X310649Y129951D02*
X314193D01*
X292421Y128179D02*
Y131723D01*
X290649Y129951D02*
X294193D01*
X179478Y198750D02*
X183022D01*
X181250Y196978D02*
Y200522D01*
X235728Y165000D02*
X239272D01*
X237500Y163228D02*
Y166772D01*
X255728Y165000D02*
X259272D01*
X257500Y163228D02*
Y166772D01*
X272421Y128179D02*
Y131723D01*
X270649Y129951D02*
X274193D01*
X179281Y187500D02*
X183219D01*
X181250Y185531D02*
Y189469D01*
X194281Y208750D02*
X198219D01*
X196250Y206782D02*
Y210718D01*
X152500Y115728D02*
Y119272D01*
X150728Y117500D02*
X154272D01*
X159478Y115000D02*
X163022D01*
X161250Y113228D02*
Y116772D01*
X70000Y135531D02*
Y139469D01*
X68032Y137500D02*
X71969D01*
X100295Y123750D02*
X103838D01*
X102067Y121978D02*
Y125522D01*
X96978Y115000D02*
X100522D01*
X98750Y113228D02*
Y116772D01*
X51000Y119728D02*
Y123272D01*
X49228Y121500D02*
X52772D01*
X83750Y115728D02*
Y119272D01*
X81978Y117500D02*
X85522D01*
X103032Y220000D02*
X106968D01*
X105000Y218032D02*
Y221969D01*
X103032Y248750D02*
X106968D01*
X105000Y246781D02*
Y250718D01*
X298125Y82407D02*
Y86343D01*
X296157Y84375D02*
X300094D01*
X410625Y82407D02*
Y86343D01*
X408657Y84375D02*
X412594D01*
X114281Y341250D02*
X118219D01*
X116250Y339282D02*
Y343218D01*
X302953Y357500D02*
X306890D01*
X304921Y355532D02*
Y359469D01*
X280532Y357500D02*
X284469D01*
X282500Y355532D02*
Y359469D01*
X258032Y357500D02*
X261968D01*
X260000Y355532D02*
Y359469D01*
X235531Y357500D02*
X239469D01*
X237500Y355532D02*
Y359469D01*
X213032Y357500D02*
X216968D01*
X215000Y355532D02*
Y359469D01*
X190532Y357500D02*
X194468D01*
X192500Y355532D02*
Y359469D01*
X438031Y357500D02*
X441968D01*
X440000Y355532D02*
Y359469D01*
X415531Y357500D02*
X419468D01*
X417500Y355532D02*
Y359469D01*
X393032Y357500D02*
X396969D01*
X395000Y355532D02*
Y359469D01*
X370532Y357500D02*
X374468D01*
X372500Y355532D02*
Y359469D01*
X348031Y357500D02*
X351969D01*
X350000Y355532D02*
Y359469D01*
X325532Y357500D02*
X329468D01*
X327500Y355532D02*
Y359469D01*
X573032Y357500D02*
X576968D01*
X575000Y355532D02*
Y359469D01*
X550453Y357500D02*
X554389D01*
X552421Y355532D02*
Y359469D01*
X528031Y357500D02*
X531968D01*
X530000Y355532D02*
Y359469D01*
X483032Y357500D02*
X486969D01*
X485000Y355532D02*
Y359469D01*
X460532Y357500D02*
X464468D01*
X462500Y355532D02*
Y359469D01*
X78228Y328750D02*
X81772D01*
X80000Y326978D02*
Y330522D01*
X74282Y363750D02*
X78219D01*
X76250Y361782D02*
Y365719D01*
X45000Y346978D02*
Y350522D01*
X43228Y348750D02*
X46772D01*
X45000Y340728D02*
Y344272D01*
X43228Y342500D02*
X46772D01*
X232603Y64375D02*
X236147D01*
X234375Y62603D02*
Y66147D01*
X348228Y61250D02*
X351772D01*
X350000Y59478D02*
Y63022D01*
X26156Y295000D02*
X30094D01*
X28125Y293032D02*
Y296969D01*
X61782Y333750D02*
X65719D01*
X63750Y331782D02*
Y335718D01*
X24921Y66782D02*
Y70718D01*
X22952Y68750D02*
X26890D01*
X163750Y356782D02*
Y360718D01*
X161782Y358750D02*
X165718D01*
X60532Y363750D02*
X64468D01*
X62500Y361782D02*
Y365719D01*
X206250Y185728D02*
Y189272D01*
X204478Y187500D02*
X208022D01*
X421250Y185728D02*
Y189272D01*
X419478Y187500D02*
X423022D01*
X351478Y218316D02*
X355022D01*
X353250Y216544D02*
Y220088D01*
X295000Y220728D02*
Y224272D01*
X293228Y222500D02*
X296772D01*
X295000Y215228D02*
Y218772D01*
X293228Y217000D02*
X296772D01*
X295000Y209728D02*
Y213272D01*
X293228Y211500D02*
X296772D01*
X600125Y211609D02*
Y215153D01*
X598353Y213381D02*
X601897D01*
X600125Y205570D02*
Y209113D01*
X598353Y207341D02*
X601897D01*
X607228Y201750D02*
X610772D01*
X609000Y199978D02*
Y203522D01*
X607228Y188500D02*
X610772D01*
X609000Y186728D02*
Y190272D01*
X432500Y178228D02*
Y181772D01*
X430728Y180000D02*
X434272D01*
X198750Y178228D02*
Y181772D01*
X196978Y180000D02*
X200522D01*
X215728D02*
X219272D01*
X217500Y178228D02*
Y181772D01*
X413750Y179478D02*
Y183022D01*
X411978Y181250D02*
X415522D01*
X188228Y172500D02*
X191772D01*
X190000Y170728D02*
Y174272D01*
X183219Y172500D02*
X186762D01*
X184990Y170728D02*
Y174272D01*
X192500Y161978D02*
Y165522D01*
X190728Y163750D02*
X194272D01*
X210728Y172500D02*
X214272D01*
X212500Y170728D02*
Y174272D01*
X196781Y172500D02*
X200718D01*
X198750Y170531D02*
Y174468D01*
X205728Y172500D02*
X209272D01*
X207500Y170728D02*
Y174272D01*
X403228Y173750D02*
X406772D01*
X405000Y171978D02*
Y175522D01*
X398228Y173750D02*
X401772D01*
X400000Y171978D02*
Y175522D01*
X410000Y164478D02*
Y168022D01*
X408228Y166250D02*
X411772D01*
X425728Y173750D02*
X429272D01*
X427500Y171978D02*
Y175522D01*
X411781Y173749D02*
X415718D01*
X413750Y171781D02*
Y175718D01*
X420728Y173750D02*
X424272D01*
X422500Y171978D02*
Y175522D01*
X43031Y336250D02*
X46968D01*
X45000Y334281D02*
Y338218D01*
X227500Y200532D02*
Y204468D01*
X225532Y202500D02*
X229468D01*
X442500Y200532D02*
Y204468D01*
X440531Y202500D02*
X444468D01*
X216875Y69907D02*
Y73843D01*
X214907Y71875D02*
X218844D01*
X222264Y56353D02*
Y59897D01*
X220493Y58125D02*
X224036D01*
X337500Y53228D02*
Y56772D01*
X335728Y55000D02*
X339272D01*
X332500Y66782D02*
Y70718D01*
X330532Y68750D02*
X334469D01*
X41781D02*
X45719D01*
X43750Y66782D02*
Y70718D01*
X158750Y294282D02*
Y298218D01*
X156781Y296250D02*
X160719D01*
X69478Y348750D02*
X73022D01*
X71250Y346978D02*
Y350522D01*
X80000Y338228D02*
Y341772D01*
X78228Y340000D02*
X81772D01*
X54478Y348750D02*
X58022D01*
X56250Y346978D02*
Y350522D01*
X303013Y312500D02*
X306950D01*
X304982Y310531D02*
Y314469D01*
X280532Y312500D02*
X284469D01*
X282500Y310531D02*
Y314469D01*
X258032Y312500D02*
X261968D01*
X260000Y310531D02*
Y314469D01*
X235531Y312500D02*
X239469D01*
X237500Y310531D02*
Y314469D01*
X213032Y312500D02*
X216968D01*
X215000Y310531D02*
Y314469D01*
X190532Y312500D02*
X194468D01*
X192500Y310531D02*
Y314469D01*
X438031Y312500D02*
X441968D01*
X440000Y310531D02*
Y314469D01*
X415531Y312500D02*
X419468D01*
X417500Y310531D02*
Y314469D01*
X393032Y312500D02*
X396969D01*
X395000Y310531D02*
Y314469D01*
X370532Y312500D02*
X374468D01*
X372500Y310531D02*
Y314469D01*
X348031Y312500D02*
X351969D01*
X350000Y310531D02*
Y314469D01*
X325532Y312500D02*
X329468D01*
X327500Y310531D02*
Y314469D01*
X505532Y357500D02*
X509469D01*
X507500Y355532D02*
Y359469D01*
X573032Y312500D02*
X576968D01*
X575000Y310531D02*
Y314469D01*
X550531Y312500D02*
X554468D01*
X552500Y310531D02*
Y314469D01*
X528031Y312500D02*
X531968D01*
X530000Y310531D02*
Y314469D01*
X505532Y312500D02*
X509469D01*
X507500Y310531D02*
Y314469D01*
X483032Y312500D02*
X486969D01*
X485000Y310531D02*
Y314469D01*
X460650Y312500D02*
X464587D01*
X462618Y310531D02*
Y314469D01*
X602500Y46978D02*
Y50522D01*
X600728Y48750D02*
X604272D01*
X442579Y47027D02*
Y50571D01*
X440807Y48799D02*
X444351D01*
D130*
X19070Y286142D02*
X37180D01*
X19070Y303858D02*
X37180D01*
X19070Y286142D02*
Y303858D01*
X37180Y286142D02*
Y303858D01*
D133*
X51068Y295438D02*
Y303312D01*
X37682Y295438D02*
Y303312D01*
Y295438D02*
X51068D01*
X37682Y303312D02*
X51068D01*
X27761Y303755D02*
X50989D01*
X27761Y332495D02*
X50989D01*
X27761Y303755D02*
Y332495D01*
X50989Y303755D02*
Y332495D01*
X148755Y304011D02*
Y327239D01*
X177495Y304011D02*
Y327239D01*
X148755D02*
X177495D01*
X148755Y304011D02*
X177495D01*
X148755Y327136D02*
Y350364D01*
X177495Y327136D02*
Y350364D01*
X148755D02*
X177495D01*
X148755Y327136D02*
X177495D01*
X290369Y51132D02*
Y61368D01*
X295881Y51132D02*
Y61368D01*
X290369Y51132D02*
X295881D01*
X290369Y61368D02*
X295881D01*
X284119Y51132D02*
Y61368D01*
X289631Y51132D02*
Y61368D01*
X284119Y51132D02*
X289631D01*
X284119Y61368D02*
X289631D01*
X277869Y51132D02*
Y61368D01*
X283381Y51132D02*
Y61368D01*
X277869Y51132D02*
X283381D01*
X277869Y61368D02*
X283381D01*
X271619Y51132D02*
Y61368D01*
X277131Y51132D02*
Y61368D01*
X271619Y51132D02*
X277131D01*
X271619Y61368D02*
X277131D01*
X265369Y51132D02*
Y61368D01*
X270881Y51132D02*
Y61368D01*
X265369Y51132D02*
X270881D01*
X265369Y61368D02*
X270881D01*
X259119Y51132D02*
Y61368D01*
X264631Y51132D02*
Y61368D01*
X259119Y51132D02*
X264631D01*
X259119Y61368D02*
X264631D01*
X252869Y51132D02*
Y61368D01*
X258381Y51132D02*
Y61368D01*
X252869Y51132D02*
X258381D01*
X252869Y61368D02*
X258381D01*
X246619Y51132D02*
Y61368D01*
X252131Y51132D02*
Y61368D01*
X246619Y51132D02*
X252131D01*
X246619Y61368D02*
X252131D01*
X246422Y61560D02*
Y72190D01*
X252328Y61560D02*
Y72190D01*
X246422Y61560D02*
X252328D01*
X246422Y72190D02*
X252328D01*
X252672Y61560D02*
Y72190D01*
X258578Y61560D02*
Y72190D01*
X252672Y61560D02*
X258578D01*
X252672Y72190D02*
X258578D01*
X258922Y61560D02*
Y72190D01*
X264828Y61560D02*
Y72190D01*
X258922Y61560D02*
X264828D01*
X258922Y72190D02*
X264828D01*
X265172Y61560D02*
Y72190D01*
X271078Y61560D02*
Y72190D01*
X265172Y61560D02*
X271078D01*
X265172Y72190D02*
X271078D01*
X271422Y61560D02*
Y72190D01*
X277328Y61560D02*
Y72190D01*
X271422Y61560D02*
X277328D01*
X271422Y72190D02*
X277328D01*
X277672Y61560D02*
Y72190D01*
X283578Y61560D02*
Y72190D01*
X277672Y61560D02*
X283578D01*
X277672Y72190D02*
X283578D01*
X283922Y61560D02*
Y72190D01*
X289828Y61560D02*
Y72190D01*
X283922Y61560D02*
X289828D01*
X283922Y72190D02*
X289828D01*
X290172Y61560D02*
Y72190D01*
X296078Y61560D02*
Y72190D01*
X290172Y61560D02*
X296078D01*
X290172Y72190D02*
X296078D01*
X402869Y51132D02*
Y61368D01*
X408381Y51132D02*
Y61368D01*
X402869Y51132D02*
X408381D01*
X402869Y61368D02*
X408381D01*
X396619Y51132D02*
Y61368D01*
X402131Y51132D02*
Y61368D01*
X396619Y51132D02*
X402131D01*
X396619Y61368D02*
X402131D01*
X390369Y51132D02*
Y61368D01*
X395881Y51132D02*
Y61368D01*
X390369Y51132D02*
X395881D01*
X390369Y61368D02*
X395881D01*
X384119Y51132D02*
Y61368D01*
X389631Y51132D02*
Y61368D01*
X384119Y51132D02*
X389631D01*
X384119Y61368D02*
X389631D01*
X377869Y51132D02*
Y61368D01*
X383381Y51132D02*
Y61368D01*
X377869Y51132D02*
X383381D01*
X377869Y61368D02*
X383381D01*
X371619Y51132D02*
Y61368D01*
X377131Y51132D02*
Y61368D01*
X371619Y51132D02*
X377131D01*
X371619Y61368D02*
X377131D01*
X365369Y51132D02*
Y61368D01*
X370881Y51132D02*
Y61368D01*
X365369Y51132D02*
X370881D01*
X365369Y61368D02*
X370881D01*
X359119Y51132D02*
Y61368D01*
X364631Y51132D02*
Y61368D01*
X359119Y51132D02*
X364631D01*
X359119Y61368D02*
X364631D01*
X358922Y61560D02*
Y72190D01*
X364828Y61560D02*
Y72190D01*
X358922Y61560D02*
X364828D01*
X358922Y72190D02*
X364828D01*
X365172Y61560D02*
Y72190D01*
X371078Y61560D02*
Y72190D01*
X365172Y61560D02*
X371078D01*
X365172Y72190D02*
X371078D01*
X371422Y61560D02*
Y72190D01*
X377328Y61560D02*
Y72190D01*
X371422Y61560D02*
X377328D01*
X371422Y72190D02*
X377328D01*
X377672Y61560D02*
Y72190D01*
X383578Y61560D02*
Y72190D01*
X377672Y61560D02*
X383578D01*
X377672Y72190D02*
X383578D01*
X383922Y61560D02*
Y72190D01*
X389828Y61560D02*
Y72190D01*
X383922Y61560D02*
X389828D01*
X383922Y72190D02*
X389828D01*
X390172Y61560D02*
Y72190D01*
X396078Y61560D02*
Y72190D01*
X390172Y61560D02*
X396078D01*
X390172Y72190D02*
X396078D01*
X396422Y61560D02*
Y72190D01*
X402328Y61560D02*
Y72190D01*
X396422Y61560D02*
X402328D01*
X396422Y72190D02*
X402328D01*
X402672Y61560D02*
Y72190D01*
X408578Y61560D02*
Y72190D01*
X402672Y61560D02*
X408578D01*
X402672Y72190D02*
X408578D01*
X489724Y49892D02*
Y67608D01*
X480276Y49892D02*
Y67608D01*
X489724D01*
X480276Y49892D02*
X489724D01*
X474724D02*
Y67608D01*
X465276Y49892D02*
Y67608D01*
X474724D01*
X465276Y49892D02*
X474724D01*
X564724D02*
Y67608D01*
X555276Y49892D02*
Y67608D01*
X564724D01*
X555276Y49892D02*
X564724D01*
X549724D02*
Y67608D01*
X540276Y49892D02*
Y67608D01*
X549724D01*
X540276Y49892D02*
X549724D01*
X534724D02*
Y67608D01*
X525276Y49892D02*
Y67608D01*
X534724D01*
X525276Y49892D02*
X534724D01*
X519724D02*
Y67608D01*
X510276Y49892D02*
Y67608D01*
X519724D01*
X510276Y49892D02*
X519724D01*
X504724D02*
Y67608D01*
X495276Y49892D02*
Y67608D01*
X504724D01*
X495276Y49892D02*
X504724D01*
X459724D02*
Y67608D01*
X450276Y49892D02*
Y67608D01*
X459724D01*
X450276Y49892D02*
X459724D01*
X449705Y53937D02*
Y83465D01*
X435138Y53937D02*
Y83465D01*
X449705D01*
X435138Y53937D02*
X449705D01*
X540994Y282618D02*
X546506D01*
X540994Y272382D02*
X546506D01*
Y282618D01*
X540994Y272382D02*
Y282618D01*
X563850D02*
X569362D01*
X563850Y272382D02*
X569362D01*
Y282618D01*
X563850Y272382D02*
Y282618D01*
X450994D02*
X456506D01*
X450994Y272382D02*
X456506D01*
Y282618D01*
X450994Y272382D02*
Y282618D01*
X428494D02*
X434006D01*
X428494Y272382D02*
X434006D01*
Y282618D01*
X428494Y272382D02*
Y282618D01*
X419188Y75182D02*
Y88568D01*
X427062Y75182D02*
Y88568D01*
X419188Y75182D02*
X427062D01*
X419188Y88568D02*
X427062D01*
X419483Y69475D02*
Y74987D01*
X409247Y69475D02*
Y74987D01*
Y69475D02*
X419483D01*
X409247Y74987D02*
X419483D01*
X578868Y215119D02*
Y220631D01*
X568632Y215119D02*
Y220631D01*
Y215119D02*
X578868D01*
X568632Y220631D02*
X578868D01*
X517244Y236757D02*
X522756D01*
X517244Y246993D02*
X522756D01*
X517244Y236757D02*
Y246993D01*
X522756Y236757D02*
Y246993D01*
X467057Y221821D02*
Y255679D01*
X480443Y221821D02*
Y255679D01*
X467057Y221821D02*
X480443D01*
X467057Y255679D02*
X480443D01*
X442057Y221821D02*
Y255679D01*
X455443Y221821D02*
Y255679D01*
X442057Y221821D02*
X455443D01*
X442057Y255679D02*
X455443D01*
X257057Y221821D02*
Y255679D01*
X270443Y221821D02*
Y255679D01*
X257057Y221821D02*
X270443D01*
X257057Y255679D02*
X270443D01*
X405994Y282618D02*
X411506D01*
X405994Y272382D02*
X411506D01*
Y282618D01*
X405994Y272382D02*
Y282618D01*
X383494D02*
X389006D01*
X383494Y272382D02*
X389006D01*
Y282618D01*
X383494Y272382D02*
Y282618D01*
X578868Y219744D02*
Y225256D01*
X568632Y219744D02*
Y225256D01*
Y219744D02*
X578868D01*
X568632Y225256D02*
X578868D01*
Y175994D02*
Y181506D01*
X568632Y175994D02*
Y181506D01*
Y175994D02*
X578868D01*
X568632Y181506D02*
X578868D01*
X417057Y221821D02*
Y255679D01*
X430443Y221821D02*
Y255679D01*
X417057Y221821D02*
X430443D01*
X417057Y255679D02*
X430443D01*
X578868Y237869D02*
Y243381D01*
X568632Y237869D02*
Y243381D01*
Y237869D02*
X578868D01*
X568632Y243381D02*
X578868D01*
Y188494D02*
Y194006D01*
X568632Y188494D02*
Y194006D01*
Y188494D02*
X578868D01*
X568632Y194006D02*
X578868D01*
Y194119D02*
Y199631D01*
X568632Y194119D02*
Y199631D01*
Y194119D02*
X578868D01*
X568632Y199631D02*
X578868D01*
X514528Y225945D02*
Y244055D01*
X505472Y225945D02*
Y244055D01*
X514528D01*
X505472Y225945D02*
X514528D01*
X480266Y233632D02*
X485778D01*
X480266Y243868D02*
X485778D01*
X480266Y233632D02*
Y243868D01*
X485778Y233632D02*
Y243868D01*
X392057Y221821D02*
Y255679D01*
X405443Y221821D02*
Y255679D01*
X392057Y221821D02*
X405443D01*
X392057Y255679D02*
X405443D01*
X318007Y248494D02*
Y254006D01*
X328243Y248494D02*
Y254006D01*
X318007D02*
X328243D01*
X318007Y248494D02*
X328243D01*
X232057Y221821D02*
Y255679D01*
X245443Y221821D02*
Y255679D01*
X232057Y221821D02*
X245443D01*
X232057Y255679D02*
X245443D01*
X564665Y112333D02*
X570177D01*
X564665Y122569D02*
X570177D01*
X564665Y112333D02*
Y122569D01*
X570177Y112333D02*
Y122569D01*
X368319Y44727D02*
Y50239D01*
X358083Y44727D02*
Y50239D01*
Y44727D02*
X368319D01*
X358083Y50239D02*
X368319D01*
X584665Y112333D02*
X590177D01*
X584665Y122569D02*
X590177D01*
X584665Y112333D02*
Y122569D01*
X590177Y112333D02*
Y122569D01*
X541313Y225807D02*
Y239193D01*
X549187Y225807D02*
Y239193D01*
X541313Y225807D02*
X549187D01*
X541313Y239193D02*
X549187D01*
X270994Y282618D02*
X276506D01*
X270994Y272382D02*
X276506D01*
Y282618D01*
X270994Y272382D02*
Y282618D01*
X248494D02*
X254006D01*
X248494Y272382D02*
X254006D01*
Y282618D01*
X248494Y272382D02*
Y282618D01*
X514665Y112333D02*
X520177D01*
X514665Y122569D02*
X520177D01*
X514665Y112333D02*
Y122569D01*
X520177Y112333D02*
Y122569D01*
X494665Y112333D02*
X500177D01*
X494665Y122569D02*
X500177D01*
X494665Y112333D02*
Y122569D01*
X500177Y112333D02*
Y122569D01*
X315797Y33435D02*
X321703D01*
X315797Y44065D02*
X321703D01*
X315797Y33435D02*
Y44065D01*
X321703Y33435D02*
Y44065D01*
X582106Y161998D02*
Y167904D01*
X592736Y161998D02*
Y167904D01*
X582106D02*
X592736D01*
X582106Y161998D02*
X592736D01*
X590935Y170172D02*
X601565D01*
X590935Y176078D02*
X601565D01*
Y170172D02*
Y176078D01*
X590935Y170172D02*
Y176078D01*
X589468Y135266D02*
X595374D01*
X589468Y124636D02*
X595374D01*
Y135266D01*
X589468Y124636D02*
Y135266D01*
X562106Y161998D02*
Y167904D01*
X572736Y161998D02*
Y167904D01*
X562106D02*
X572736D01*
X562106Y161998D02*
X572736D01*
X542106D02*
Y167904D01*
X552736Y161998D02*
Y167904D01*
X542106D02*
X552736D01*
X542106Y161998D02*
X552736D01*
X480069Y220242D02*
X485974D01*
X480069Y230872D02*
X485974D01*
X480069Y220242D02*
Y230872D01*
X485974Y220242D02*
Y230872D01*
X368868Y214119D02*
Y219631D01*
X358632Y214119D02*
Y219631D01*
Y214119D02*
X368868D01*
X358632Y219631D02*
X368868D01*
X325994Y226329D02*
X331506D01*
X325994Y236565D02*
X331506D01*
X325994Y226329D02*
Y236565D01*
X331506Y226329D02*
Y236565D01*
X368868Y226619D02*
Y232131D01*
X358632Y226619D02*
Y232131D01*
Y226619D02*
X368868D01*
X358632Y232131D02*
X368868D01*
X157057Y221821D02*
Y255679D01*
X170443Y221821D02*
Y255679D01*
X157057Y221821D02*
X170443D01*
X157057Y255679D02*
X170443D01*
X225994Y282618D02*
X231506D01*
X225994Y272382D02*
X231506D01*
Y282618D01*
X225994Y272382D02*
Y282618D01*
X203494D02*
X209006D01*
X203494Y272382D02*
X209006D01*
Y282618D01*
X203494Y272382D02*
Y282618D01*
X588799Y143494D02*
X606043D01*
Y136408D02*
Y143494D01*
X588799Y136408D02*
Y143494D01*
Y136408D02*
X606043D01*
X474665Y112333D02*
X480177D01*
X474665Y122569D02*
X480177D01*
X474665Y112333D02*
Y122569D01*
X480177Y112333D02*
Y122569D01*
X454744Y112382D02*
X460256D01*
X454744Y122618D02*
X460256D01*
X454744Y112382D02*
Y122618D01*
X460256Y112382D02*
Y122618D01*
X359409Y84885D02*
X364921D01*
X359409Y95121D02*
X364921D01*
X359409Y84885D02*
Y95121D01*
X364921Y84885D02*
Y95121D01*
X346909Y84885D02*
X352421D01*
X346909Y95121D02*
X352421D01*
X346909Y84885D02*
Y95121D01*
X352421Y84885D02*
Y95121D01*
X302880Y44626D02*
Y50138D01*
X292644Y44626D02*
Y50138D01*
Y44626D02*
X302880D01*
X292644Y50138D02*
X302880D01*
X522106Y161998D02*
Y167904D01*
X532736Y161998D02*
Y167904D01*
X522106D02*
X532736D01*
X522106Y161998D02*
X532736D01*
X482106D02*
Y167904D01*
X492736Y161998D02*
Y167904D01*
X482106D02*
X492736D01*
X482106Y161998D02*
X492736D01*
X502106D02*
Y167904D01*
X512736Y161998D02*
Y167904D01*
X502106D02*
X512736D01*
X502106Y161998D02*
X512736D01*
X475935Y182047D02*
Y187953D01*
X486565Y182047D02*
Y187953D01*
X475935D02*
X486565D01*
X475935Y182047D02*
X486565D01*
X475118Y188494D02*
Y194006D01*
X464882Y188494D02*
Y194006D01*
Y188494D02*
X475118D01*
X464882Y194006D02*
X475118D01*
X302028Y225945D02*
Y244055D01*
X292972Y225945D02*
Y244055D01*
X302028D01*
X292972Y225945D02*
X302028D01*
X332313Y225807D02*
Y239193D01*
X340187Y225807D02*
Y239193D01*
X332313Y225807D02*
X340187D01*
X332313Y239193D02*
X340187D01*
X368789Y176791D02*
Y182303D01*
X358553Y176791D02*
Y182303D01*
Y176791D02*
X368789D01*
X358553Y182303D02*
X368789D01*
X528799Y143494D02*
X546043D01*
Y136408D02*
Y143494D01*
X528799Y136408D02*
Y143494D01*
Y136408D02*
X546043D01*
X459547Y135315D02*
X465453D01*
X459547Y124685D02*
X465453D01*
Y135315D01*
X459547Y124685D02*
Y135315D01*
X306983Y69119D02*
Y74631D01*
X296747Y69119D02*
Y74631D01*
Y69119D02*
X306983D01*
X296747Y74631D02*
X306983D01*
X334409Y84885D02*
X339921D01*
X334409Y95121D02*
X339921D01*
X334409Y84885D02*
Y95121D01*
X339921Y84885D02*
Y95121D01*
X321909Y84885D02*
X327421D01*
X321909Y95121D02*
X327421D01*
X321909Y84885D02*
Y95121D01*
X327421Y84885D02*
Y95121D01*
X279258Y44626D02*
Y50138D01*
X269022Y44626D02*
Y50138D01*
Y44626D02*
X279258D01*
X269022Y50138D02*
X279258D01*
X508799Y143494D02*
X526043D01*
Y136408D02*
Y143494D01*
X508799Y136408D02*
Y143494D01*
Y136408D02*
X526043D01*
X439547Y135315D02*
X445453D01*
X439547Y124685D02*
X445453D01*
Y135315D01*
X439547Y124685D02*
Y135315D01*
X502687Y180807D02*
Y194193D01*
X494813Y180807D02*
Y194193D01*
X502687D01*
X494813Y180807D02*
X502687D01*
X458297Y212815D02*
X464203D01*
X458297Y202185D02*
X464203D01*
Y212815D01*
X458297Y202185D02*
Y212815D01*
X466350Y194114D02*
Y220886D01*
X497650Y194114D02*
Y220886D01*
X466350D02*
X497650D01*
X466350Y194114D02*
X497650D01*
X427382Y184744D02*
Y190256D01*
X437618Y184744D02*
Y190256D01*
X427382D02*
X437618D01*
X427382Y184744D02*
X437618D01*
X380010Y206445D02*
X385522D01*
X380010Y216681D02*
X385522D01*
X380010Y206445D02*
Y216681D01*
X385522Y206445D02*
Y216681D01*
X21520Y208142D02*
X34906D01*
X21520Y216016D02*
X34906D01*
Y208142D02*
Y216016D01*
X21520Y208142D02*
Y216016D01*
X488799Y143494D02*
X506043D01*
Y136408D02*
Y143494D01*
X488799Y136408D02*
Y143494D01*
Y136408D02*
X506043D01*
X419547Y135315D02*
X425453D01*
X419547Y124685D02*
X425453D01*
Y135315D01*
X419547Y124685D02*
Y135315D01*
X364665Y112333D02*
X370177D01*
X364665Y122569D02*
X370177D01*
X364665Y112333D02*
Y122569D01*
X370177Y112333D02*
Y122569D01*
X358435Y232047D02*
Y237953D01*
X369065Y232047D02*
Y237953D01*
X358435D02*
X369065D01*
X358435Y232047D02*
X369065D01*
X255635Y44626D02*
Y50138D01*
X245399Y44626D02*
Y50138D01*
Y44626D02*
X255635D01*
X245399Y50138D02*
X255635D01*
X232013Y44626D02*
Y50138D01*
X221777Y44626D02*
Y50138D01*
Y44626D02*
X232013D01*
X221777Y50138D02*
X232013D01*
X458799Y153543D02*
X476043D01*
Y146457D02*
Y153543D01*
X458799Y146457D02*
Y153543D01*
Y146457D02*
X476043D01*
X403376Y196939D02*
Y220561D01*
X419124Y196939D02*
Y220561D01*
X403376Y196939D02*
X419124D01*
X403376Y220561D02*
X419124D01*
X98228Y234514D02*
X111614D01*
X98228Y242388D02*
X111614D01*
Y234514D02*
Y242388D01*
X98228Y234514D02*
Y242388D01*
X96132Y257244D02*
Y262756D01*
X106368Y257244D02*
Y262756D01*
X96132D02*
X106368D01*
X96132Y257244D02*
X106368D01*
X300069Y170069D02*
X352431D01*
X300069Y222431D02*
X352431D01*
Y170069D02*
Y222431D01*
X300069Y170069D02*
Y222431D01*
X96053Y228445D02*
Y233957D01*
X106289Y228445D02*
Y233957D01*
X96053D02*
X106289D01*
X96053Y228445D02*
X106289D01*
X344665Y112333D02*
X350177D01*
X344665Y122569D02*
X350177D01*
X344665Y112333D02*
Y122569D01*
X350177Y112333D02*
Y122569D01*
X369468Y135266D02*
X375374D01*
X369468Y124636D02*
X375374D01*
Y135266D01*
X369468Y124636D02*
Y135266D01*
X324665Y112333D02*
X330177D01*
X324665Y122569D02*
X330177D01*
X324665Y112333D02*
Y122569D01*
X330177Y112333D02*
Y122569D01*
X438878Y153543D02*
X456122D01*
Y146457D02*
Y153543D01*
X438878Y146457D02*
Y153543D01*
Y146457D02*
X456122D01*
X386053Y164744D02*
Y170256D01*
X396289Y164744D02*
Y170256D01*
X386053D02*
X396289D01*
X386053Y164744D02*
X396289D01*
X418878Y153543D02*
X436122D01*
Y146457D02*
Y153543D01*
X418878Y146457D02*
Y153543D01*
Y146457D02*
X436122D01*
X52126Y214242D02*
Y238258D01*
X17874Y214242D02*
Y238258D01*
Y214242D02*
X52126D01*
X17874Y238258D02*
X52126D01*
X349468Y135266D02*
X355374D01*
X349468Y124636D02*
X355374D01*
Y135266D01*
X349468Y124636D02*
Y135266D01*
X121437Y213307D02*
Y226693D01*
X113563Y213307D02*
Y226693D01*
X121437D01*
X113563Y213307D02*
X121437D01*
X280187Y180807D02*
Y194193D01*
X272313Y180807D02*
Y194193D01*
X280187D01*
X272313Y180807D02*
X280187D01*
X272845Y224961D02*
Y245039D01*
X284655Y224961D02*
Y245039D01*
X272845Y224961D02*
X284655D01*
X272845Y245039D02*
X284655D01*
X308799Y153494D02*
X326043D01*
Y146408D02*
Y153494D01*
X308799Y146408D02*
Y153494D01*
Y146408D02*
X326043D01*
X288799Y153494D02*
X306043D01*
Y146408D02*
Y153494D01*
X288799Y146408D02*
Y153494D01*
Y146408D02*
X306043D01*
X268799Y153494D02*
X286043D01*
Y146408D02*
Y153494D01*
X268799Y146408D02*
Y153494D01*
Y146408D02*
X286043D01*
X250437Y188557D02*
Y201943D01*
X242563Y188557D02*
Y201943D01*
X250437D01*
X242563Y188557D02*
X250437D01*
X113297Y192185D02*
X119203D01*
X113297Y202815D02*
X119203D01*
X113297Y192185D02*
Y202815D01*
X119203Y192185D02*
Y202815D01*
X19000Y186476D02*
Y208524D01*
X111000Y186476D02*
Y208524D01*
X19000D02*
X111000D01*
X19000Y186476D02*
X111000D01*
X212382Y184744D02*
Y190256D01*
X222618Y184744D02*
Y190256D01*
X212382D02*
X222618D01*
X212382Y184744D02*
X222618D01*
X260118Y188494D02*
Y194006D01*
X249882Y188494D02*
Y194006D01*
Y188494D02*
X260118D01*
X249882Y194006D02*
X260118D01*
X19000Y156476D02*
Y178524D01*
X111000Y156476D02*
Y178524D01*
X19000D02*
X111000D01*
X19000Y156476D02*
X111000D01*
X212185Y162047D02*
Y167953D01*
X222815Y162047D02*
Y167953D01*
X212185D02*
X222815D01*
X212185Y162047D02*
X222815D01*
X204222Y199695D02*
Y217805D01*
X213278Y199695D02*
Y217805D01*
X204222Y199695D02*
X213278D01*
X204222Y217805D02*
X213278D01*
X259547Y135315D02*
X265453D01*
X259547Y124685D02*
X265453D01*
Y135315D01*
X259547Y124685D02*
Y135315D01*
X239547D02*
X245453D01*
X239547Y124685D02*
X245453D01*
Y135315D01*
X239547Y124685D02*
Y135315D01*
X219547D02*
X225453D01*
X219547Y124685D02*
X225453D01*
Y135315D01*
X219547Y124685D02*
Y135315D01*
X248878Y153543D02*
X266122D01*
Y146457D02*
Y153543D01*
X248878Y146457D02*
Y153543D01*
Y146457D02*
X266122D01*
X208878Y153543D02*
X226122D01*
Y146457D02*
Y153543D01*
X208878Y146457D02*
Y153543D01*
Y146457D02*
X226122D01*
X228878Y153543D02*
X246122D01*
Y146457D02*
Y153543D01*
X228878Y146457D02*
Y153543D01*
Y146457D02*
X246122D01*
X95935Y148297D02*
Y154203D01*
X106565Y148297D02*
Y154203D01*
X95935D02*
X106565D01*
X95935Y148297D02*
X106565D01*
X119016Y186476D02*
Y208524D01*
X170984Y186476D02*
Y208524D01*
X119016D02*
X170984D01*
X119016Y186476D02*
X170984D01*
X182057Y221821D02*
Y255679D01*
X195443Y221821D02*
Y255679D01*
X182057Y221821D02*
X195443D01*
X182057Y255679D02*
X195443D01*
X207057Y221821D02*
Y255679D01*
X220443Y221821D02*
Y255679D01*
X207057Y221821D02*
X220443D01*
X207057Y255679D02*
X220443D01*
X132382Y112244D02*
Y117756D01*
X142618Y112244D02*
Y117756D01*
X132382D02*
X142618D01*
X132382Y112244D02*
X142618D01*
X59244Y116382D02*
X64756D01*
X59244Y126618D02*
X64756D01*
X59244Y116382D02*
Y126618D01*
X64756Y116382D02*
Y126618D01*
X53744Y116382D02*
X59256D01*
X53744Y126618D02*
X59256D01*
X53744Y116382D02*
Y126618D01*
X59256Y116382D02*
Y126618D01*
X594724Y49892D02*
Y67608D01*
X585276Y49892D02*
Y67608D01*
X594724D01*
X585276Y49892D02*
X594724D01*
X579724D02*
Y67608D01*
X570276Y49892D02*
Y67608D01*
X579724D01*
X570276Y49892D02*
X579724D01*
X529744Y272362D02*
X535256D01*
X529744Y262126D02*
X535256D01*
Y272362D01*
X529744Y262126D02*
Y272362D01*
X495994Y282618D02*
X501506D01*
X495994Y272382D02*
X501506D01*
Y282618D01*
X495994Y272382D02*
Y282618D01*
X473494D02*
X479006D01*
X473494Y272382D02*
X479006D01*
Y282618D01*
X473494Y272382D02*
Y282618D01*
X428922Y33435D02*
X434828D01*
X428922Y44065D02*
X434828D01*
X428922Y33435D02*
Y44065D01*
X434828Y33435D02*
Y44065D01*
X516890Y272520D02*
Y287480D01*
X503110Y272520D02*
Y287480D01*
X516890D01*
X503110Y272520D02*
X516890D01*
X578868Y207244D02*
Y212756D01*
X568632Y207244D02*
Y212756D01*
Y207244D02*
X578868D01*
X568632Y212756D02*
X578868D01*
X529449Y248494D02*
Y254006D01*
X539685Y248494D02*
Y254006D01*
X529449D02*
X539685D01*
X529449Y248494D02*
X539685D01*
X539882Y248494D02*
X550118D01*
X539882Y254006D02*
X550118D01*
Y248494D02*
Y254006D01*
X539882Y248494D02*
Y254006D01*
X486594Y224961D02*
Y245039D01*
X498406Y224961D02*
Y245039D01*
X486594Y224961D02*
X498406D01*
X486594Y245039D02*
X498406D01*
X539439Y272520D02*
Y287480D01*
X525659Y272520D02*
Y287480D01*
X539439D01*
X525659Y272520D02*
X539439D01*
X574744Y272362D02*
X580256D01*
X574744Y262126D02*
X580256D01*
Y272362D01*
X574744Y262126D02*
Y272362D01*
X589119Y205507D02*
X594631D01*
X589119Y215743D02*
X594631D01*
X589119Y205507D02*
Y215743D01*
X594631Y205507D02*
Y215743D01*
X578868Y201619D02*
Y207131D01*
X568632Y201619D02*
Y207131D01*
Y201619D02*
X578868D01*
X568632Y207131D02*
X578868D01*
X387933Y272362D02*
X393445D01*
X387933Y262126D02*
X393445D01*
Y272362D01*
X387933Y262126D02*
Y272362D01*
X349744D02*
X355256D01*
X349744Y262126D02*
X355256D01*
Y272362D01*
X349744Y262126D02*
Y272362D01*
X381890Y272520D02*
Y287480D01*
X368110Y272520D02*
Y287480D01*
X381890D01*
X368110Y272520D02*
X381890D01*
X415563Y44727D02*
Y50239D01*
X405327Y44727D02*
Y50239D01*
Y44727D02*
X415563D01*
X405327Y50239D02*
X415563D01*
X423494Y266319D02*
X429006D01*
X423494Y256083D02*
X429006D01*
Y266319D01*
X423494Y256083D02*
Y266319D01*
X403494D02*
X409006D01*
X403494Y256083D02*
X409006D01*
Y266319D01*
X403494Y256083D02*
Y266319D01*
X359390Y272520D02*
Y287480D01*
X345610Y272520D02*
Y287480D01*
X359390D01*
X345610Y272520D02*
X359390D01*
X336890D02*
Y287480D01*
X323110Y272520D02*
Y287480D01*
X336890D01*
X323110Y272520D02*
X336890D01*
X391941Y44727D02*
Y50239D01*
X381705Y44727D02*
Y50239D01*
Y44727D02*
X391941D01*
X381705Y50239D02*
X391941D01*
X328632Y248494D02*
X338868D01*
X328632Y254006D02*
X338868D01*
Y248494D02*
Y254006D01*
X328632Y248494D02*
Y254006D01*
X293494Y282618D02*
X299006D01*
X293494Y272382D02*
X299006D01*
Y282618D01*
X293494Y272382D02*
Y282618D01*
X376432Y107687D02*
X389818D01*
X376432Y99813D02*
X389818D01*
X376432D02*
Y107687D01*
X389818Y99813D02*
Y107687D01*
X344697Y44727D02*
Y50239D01*
X334461Y44727D02*
Y50239D01*
Y44727D02*
X344697D01*
X334461Y50239D02*
X344697D01*
X595507Y164619D02*
Y170131D01*
X605743Y164619D02*
Y170131D01*
X595507D02*
X605743D01*
X595507Y164619D02*
X605743D01*
X544665Y112333D02*
X550177D01*
X544665Y122569D02*
X550177D01*
X544665Y112333D02*
Y122569D01*
X550177Y112333D02*
Y122569D01*
X530693Y236762D02*
X536205D01*
X530693Y226526D02*
X536205D01*
Y236762D01*
X530693Y226526D02*
Y236762D01*
X517244Y226132D02*
X522756D01*
X517244Y236368D02*
X522756D01*
X517244Y226132D02*
Y236368D01*
X522756Y226132D02*
Y236368D01*
X213494Y266368D02*
X219006D01*
X213494Y256132D02*
X219006D01*
Y266368D01*
X213494Y256132D02*
Y266368D01*
X331565Y52047D02*
Y57953D01*
X320935Y52047D02*
Y57953D01*
Y52047D02*
X331565D01*
X320935Y57953D02*
X331565D01*
X579468Y135266D02*
X585374D01*
X579468Y124636D02*
X585374D01*
Y135266D01*
X579468Y124636D02*
Y135266D01*
X559468D02*
X565374D01*
X559468Y124636D02*
X565374D01*
Y135266D01*
X559468Y124636D02*
Y135266D01*
X532185Y155797D02*
Y161703D01*
X542815Y155797D02*
Y161703D01*
X532185D02*
X542815D01*
X532185Y155797D02*
X542815D01*
X286457Y228504D02*
Y241496D01*
X293543Y228504D02*
Y241496D01*
X286457Y228504D02*
X293543D01*
X286457Y241496D02*
X293543D01*
X305994Y236757D02*
X311506D01*
X305994Y246993D02*
X311506D01*
X305994Y236757D02*
Y246993D01*
X311506Y236757D02*
Y246993D01*
X313494Y226329D02*
X319006D01*
X313494Y236565D02*
X319006D01*
X313494Y226329D02*
Y236565D01*
X319006Y226329D02*
Y236565D01*
X368868Y219744D02*
Y225256D01*
X358632Y219744D02*
Y225256D01*
Y219744D02*
X368868D01*
X358632Y225256D02*
X368868D01*
X194557Y221821D02*
Y255679D01*
X207943Y221821D02*
Y255679D01*
X194557Y221821D02*
X207943D01*
X194557Y255679D02*
X207943D01*
X188494Y266368D02*
X194006D01*
X188494Y256132D02*
X194006D01*
Y266368D01*
X188494Y256132D02*
Y266368D01*
X201889Y272520D02*
Y287480D01*
X188109Y272520D02*
Y287480D01*
X201889D01*
X188109Y272520D02*
X201889D01*
X539468Y135266D02*
X545374D01*
X539468Y124636D02*
X545374D01*
Y135266D01*
X539468Y124636D02*
Y135266D01*
X519468D02*
X525374D01*
X519468Y124636D02*
X525374D01*
Y135266D01*
X519468Y124636D02*
Y135266D01*
X434744Y112382D02*
X440256D01*
X434744Y122618D02*
X440256D01*
X434744Y112382D02*
Y122618D01*
X440256Y112382D02*
Y122618D01*
X408007Y94119D02*
Y99631D01*
X418243Y94119D02*
Y99631D01*
X408007D02*
X418243D01*
X408007Y94119D02*
X418243D01*
X568799Y143494D02*
X586043D01*
Y136408D02*
Y143494D01*
X568799Y136408D02*
Y143494D01*
Y136408D02*
X586043D01*
X499468Y135266D02*
X505374D01*
X499468Y124636D02*
X505374D01*
Y135266D01*
X499468Y124636D02*
Y135266D01*
X494937Y180807D02*
Y194193D01*
X487063Y180807D02*
Y194193D01*
X494937D01*
X487063Y180807D02*
X494937D01*
X497457Y194504D02*
Y207496D01*
X504543Y194504D02*
Y207496D01*
X497457Y194504D02*
X504543D01*
X497457Y207496D02*
X504543D01*
X169557Y221821D02*
Y255679D01*
X182943Y221821D02*
Y255679D01*
X169557Y221821D02*
X182943D01*
X169557Y255679D02*
X182943D01*
X163494Y266368D02*
X169006D01*
X163494Y256132D02*
X169006D01*
Y266368D01*
X163494Y256132D02*
Y266368D01*
X104439Y297126D02*
Y312874D01*
X128061Y297126D02*
Y312874D01*
X104439D02*
X128061D01*
X104439Y297126D02*
X128061D01*
X548799Y143494D02*
X566043D01*
Y136408D02*
Y143494D01*
X548799Y136408D02*
Y143494D01*
Y136408D02*
X566043D01*
X479547Y135315D02*
X485453D01*
X479547Y124685D02*
X485453D01*
Y135315D01*
X479547Y124685D02*
Y135315D01*
X414744Y112382D02*
X420256D01*
X414744Y122618D02*
X420256D01*
X414744Y112382D02*
Y122618D01*
X420256Y112382D02*
Y122618D01*
X315659Y84885D02*
X321171D01*
X315659Y95121D02*
X321171D01*
X315659Y84885D02*
Y95121D01*
X321171Y84885D02*
Y95121D01*
X442185Y162047D02*
Y167953D01*
X452815Y162047D02*
Y167953D01*
X442185D02*
X452815D01*
X442185Y162047D02*
X452815D01*
X462185D02*
Y167953D01*
X472815Y162047D02*
Y167953D01*
X462185D02*
X472815D01*
X462185Y162047D02*
X472815D01*
X486368Y188494D02*
Y194006D01*
X476132Y188494D02*
Y194006D01*
Y188494D02*
X486368D01*
X476132Y194006D02*
X486368D01*
X465187Y188807D02*
Y202193D01*
X457313Y188807D02*
Y202193D01*
X465187D01*
X457313Y188807D02*
X465187D01*
X368868Y194744D02*
Y200256D01*
X358632Y194744D02*
Y200256D01*
Y194744D02*
X368868D01*
X358632Y200256D02*
X368868D01*
X418972Y199695D02*
Y217805D01*
X428028Y199695D02*
Y217805D01*
X418972Y199695D02*
X428028D01*
X418972Y217805D02*
X428028D01*
X422185Y162047D02*
Y167953D01*
X432815Y162047D02*
Y167953D01*
X422185D02*
X432815D01*
X422185Y162047D02*
X432815D01*
X393632Y195994D02*
Y201506D01*
X403868Y195994D02*
Y201506D01*
X393632D02*
X403868D01*
X393632Y195994D02*
X403868D01*
X368868Y189119D02*
Y194631D01*
X358632Y189119D02*
Y194631D01*
Y189119D02*
X368868D01*
X358632Y194631D02*
X368868D01*
X374665Y112333D02*
X380177D01*
X374665Y122569D02*
X380177D01*
X374665Y112333D02*
Y122569D01*
X380177Y112333D02*
Y122569D01*
X287751Y75492D02*
Y99508D01*
X253499Y75492D02*
Y99508D01*
Y75492D02*
X287751D01*
X253499Y99508D02*
X287751D01*
X202775Y84784D02*
X208287D01*
X202775Y95020D02*
X208287D01*
X202775Y84784D02*
Y95020D01*
X208287Y84784D02*
Y95020D01*
X267447Y44626D02*
Y50138D01*
X257211Y44626D02*
Y50138D01*
Y44626D02*
X267447D01*
X257211Y50138D02*
X267447D01*
X215275Y84784D02*
X220787D01*
X215275Y95020D02*
X220787D01*
X215275Y84784D02*
Y95020D01*
X220787Y84784D02*
Y95020D01*
X408297Y196565D02*
X414203D01*
X408297Y185935D02*
X414203D01*
Y196565D01*
X408297Y185935D02*
Y196565D01*
X382520Y170856D02*
Y176762D01*
X393149Y170856D02*
Y176762D01*
X382520D02*
X393149D01*
X382520Y170856D02*
X393149D01*
X419744Y191132D02*
X425256D01*
X419744Y201368D02*
X425256D01*
X419744Y191132D02*
Y201368D01*
X425256Y191132D02*
Y201368D01*
X382185Y155797D02*
Y161703D01*
X392815Y155797D02*
Y161703D01*
X382185D02*
X392815D01*
X382185Y155797D02*
X392815D01*
X60258Y216901D02*
Y230287D01*
X52384Y216901D02*
Y230287D01*
X60258D01*
X52384Y216901D02*
X60258D01*
X114744Y252904D02*
X120256D01*
X114744Y242667D02*
X120256D01*
Y252904D01*
X114744Y242667D02*
Y252904D01*
X240275Y84784D02*
X245787D01*
X240275Y95020D02*
X245787D01*
X240275Y84784D02*
Y95020D01*
X245787Y84784D02*
Y95020D01*
X227775Y84784D02*
X233287D01*
X227775Y95020D02*
X233287D01*
X227775Y84784D02*
Y95020D01*
X233287Y84784D02*
Y95020D01*
X362185Y155797D02*
Y161703D01*
X372815Y155797D02*
Y161703D01*
X362185D02*
X372815D01*
X362185Y155797D02*
X372815D01*
X342185D02*
Y161703D01*
X352815Y155797D02*
Y161703D01*
X342185D02*
X352815D01*
X342185Y155797D02*
X352815D01*
X322185D02*
Y161703D01*
X332815Y155797D02*
Y161703D01*
X322185D02*
X332815D01*
X322185Y155797D02*
X332815D01*
X92126Y244242D02*
Y268258D01*
X57874Y244242D02*
Y268258D01*
Y244242D02*
X92126D01*
X57874Y268258D02*
X92126D01*
X339468Y135266D02*
X345374D01*
X339468Y124636D02*
X345374D01*
Y135266D01*
X339468Y124636D02*
Y135266D01*
X304665Y112333D02*
X310177D01*
X304665Y122569D02*
X310177D01*
X304665Y112333D02*
Y122569D01*
X310177Y112333D02*
Y122569D01*
X319468Y135266D02*
X325374D01*
X319468Y124636D02*
X325374D01*
Y135266D01*
X319468Y124636D02*
Y135266D01*
X284665Y112333D02*
X290177D01*
X284665Y122569D02*
X290177D01*
X284665Y112333D02*
Y122569D01*
X290177Y112333D02*
Y122569D01*
X264665Y112333D02*
X270177D01*
X264665Y122569D02*
X270177D01*
X264665Y112333D02*
Y122569D01*
X270177Y112333D02*
Y122569D01*
X254744Y112382D02*
X260256D01*
X254744Y122618D02*
X260256D01*
X254744Y112382D02*
Y122618D01*
X260256Y112382D02*
Y122618D01*
X234744Y112382D02*
X240256D01*
X234744Y122618D02*
X240256D01*
X234744Y112382D02*
Y122618D01*
X240256Y112382D02*
Y122618D01*
X214744Y112382D02*
X220256D01*
X214744Y122618D02*
X220256D01*
X214744Y112382D02*
Y122618D01*
X220256Y112382D02*
Y122618D01*
X368799Y153494D02*
X386043D01*
Y146408D02*
Y153494D01*
X368799Y146408D02*
Y153494D01*
Y146408D02*
X386043D01*
X328799Y153494D02*
X346043D01*
Y146408D02*
Y153494D01*
X328799Y146408D02*
Y153494D01*
Y146408D02*
X346043D01*
X348799Y153494D02*
X366043D01*
Y146408D02*
Y153494D01*
X348799Y146408D02*
Y153494D01*
Y146408D02*
X366043D01*
X302185Y155797D02*
Y161703D01*
X312815Y155797D02*
Y161703D01*
X302185D02*
X312815D01*
X302185Y155797D02*
X312815D01*
X282185D02*
Y161703D01*
X292815Y155797D02*
Y161703D01*
X282185D02*
X292815D01*
X282185Y155797D02*
X292815D01*
X299468Y135266D02*
X305374D01*
X299468Y124636D02*
X305374D01*
Y135266D01*
X299468Y124636D02*
Y135266D01*
X279468D02*
X285374D01*
X279468Y124636D02*
X285374D01*
Y135266D01*
X279468Y124636D02*
Y135266D01*
X262185Y155797D02*
Y161703D01*
X272815Y155797D02*
Y161703D01*
X262185D02*
X272815D01*
X262185Y155797D02*
X272815D01*
X242185D02*
Y161703D01*
X252815Y155797D02*
Y161703D01*
X242185D02*
X252815D01*
X242185Y155797D02*
X252815D01*
X251350Y194114D02*
Y220886D01*
X282650Y194114D02*
Y220886D01*
X251350D02*
X282650D01*
X251350Y194114D02*
X282650D01*
X222185Y155797D02*
Y161703D01*
X232815Y155797D02*
Y161703D01*
X222185D02*
X232815D01*
X222185Y155797D02*
X232815D01*
X188691Y195669D02*
X194597D01*
X188691Y185039D02*
X194597D01*
Y195669D01*
X188691Y185039D02*
Y195669D01*
X129134Y126476D02*
Y148524D01*
X170866Y126476D02*
Y148524D01*
X129134D02*
X170866D01*
X129134Y126476D02*
X170866D01*
X199852Y136535D02*
X207648D01*
Y153465D01*
X199852D02*
X207648D01*
X199852Y136535D02*
Y153465D01*
X143297Y122815D02*
X149203D01*
X143297Y112185D02*
X149203D01*
Y122815D01*
X143297Y112185D02*
Y122815D01*
X120797Y136565D02*
X126703D01*
X120797Y125935D02*
X126703D01*
Y136565D01*
X120797Y125935D02*
Y136565D01*
X32244Y116382D02*
X37756D01*
X32244Y126618D02*
X37756D01*
X32244Y116382D02*
Y126618D01*
X37756Y116382D02*
Y126618D01*
X26744Y116382D02*
X32256D01*
X26744Y126618D02*
X32256D01*
X26744Y116382D02*
Y126618D01*
X32256Y116382D02*
Y126618D01*
X87047Y122815D02*
X92953D01*
X87047Y112185D02*
X92953D01*
Y122815D01*
X87047Y112185D02*
Y122815D01*
X21102Y79035D02*
X28898D01*
Y95965D01*
X21102D02*
X28898D01*
X21102Y79035D02*
Y95965D01*
X609784Y53986D02*
Y83514D01*
X595217Y53986D02*
Y83514D01*
X609784D01*
X595217Y53986D02*
X609784D01*
X572224Y69892D02*
Y87608D01*
X562776Y69892D02*
Y87608D01*
X572224D01*
X562776Y69892D02*
X572224D01*
X557224D02*
Y87608D01*
X547776Y69892D02*
Y87608D01*
X557224D01*
X547776Y69892D02*
X557224D01*
X542224D02*
Y87608D01*
X532776Y69892D02*
Y87608D01*
X542224D01*
X532776Y69892D02*
X542224D01*
X527224D02*
Y87608D01*
X517776Y69892D02*
Y87608D01*
X527224D01*
X517776Y69892D02*
X527224D01*
X512224D02*
Y87608D01*
X502776Y69892D02*
Y87608D01*
X512224D01*
X502776Y69892D02*
X512224D01*
X497224D02*
Y87608D01*
X487776Y69892D02*
Y87608D01*
X497224D01*
X487776Y69892D02*
X497224D01*
X482224D02*
Y87608D01*
X472776Y69892D02*
Y87608D01*
X482224D01*
X472776Y69892D02*
X482224D01*
X467224D02*
Y87608D01*
X457776Y69892D02*
Y87608D01*
X467224D01*
X457776Y69892D02*
X467224D01*
X471890Y272520D02*
Y287480D01*
X458110Y272520D02*
Y287480D01*
X471890D01*
X458110Y272520D02*
X471890D01*
X454557Y221821D02*
Y255679D01*
X467943Y221821D02*
Y255679D01*
X454557Y221821D02*
X467943D01*
X454557Y255679D02*
X467943D01*
X449390Y272520D02*
Y287480D01*
X435610Y272520D02*
Y287480D01*
X449390D01*
X435610Y272520D02*
X449390D01*
X426811D02*
Y287480D01*
X413031Y272520D02*
Y287480D01*
X426811D01*
X413031Y272520D02*
X426811D01*
X427374Y44727D02*
Y50239D01*
X417138Y44727D02*
Y50239D01*
Y44727D02*
X427374D01*
X417138Y50239D02*
X427374D01*
X561890Y272520D02*
Y287480D01*
X548110Y272520D02*
Y287480D01*
X561890D01*
X548110Y272520D02*
X561890D01*
X584390D02*
Y287480D01*
X570610Y272520D02*
Y287480D01*
X584390D01*
X570610Y272520D02*
X584390D01*
X580994Y205507D02*
X586506D01*
X580994Y215743D02*
X586506D01*
X580994Y205507D02*
Y215743D01*
X586506Y205507D02*
Y215743D01*
X404449Y272520D02*
Y287480D01*
X390669Y272520D02*
Y287480D01*
X404449D01*
X390669Y272520D02*
X404449D01*
X578868Y181949D02*
Y187461D01*
X568632Y181949D02*
Y187461D01*
Y181949D02*
X578868D01*
X568632Y187461D02*
X578868D01*
X429557Y221821D02*
Y255679D01*
X442943Y221821D02*
Y255679D01*
X429557Y221821D02*
X442943D01*
X429557Y255679D02*
X442943D01*
X327244Y272362D02*
X332756D01*
X327244Y262126D02*
X332756D01*
Y272362D01*
X327244Y262126D02*
Y272362D01*
X244557Y221821D02*
Y255679D01*
X257943Y221821D02*
Y255679D01*
X244557Y221821D02*
X257943D01*
X244557Y255679D02*
X257943D01*
X555629Y225807D02*
Y239193D01*
X563503Y225807D02*
Y239193D01*
X555629Y225807D02*
X563503D01*
X555629Y239193D02*
X563503D01*
X578868Y226619D02*
Y232131D01*
X568632Y226619D02*
Y232131D01*
Y226619D02*
X578868D01*
X568632Y232131D02*
X578868D01*
X548313Y225807D02*
Y239193D01*
X556187Y225807D02*
Y239193D01*
X548313Y225807D02*
X556187D01*
X548313Y239193D02*
X556187D01*
X580620Y205094D02*
X601880D01*
X580620Y176156D02*
X601880D01*
Y205094D01*
X580620Y176156D02*
Y205094D01*
X524744Y226526D02*
X530256D01*
X524744Y236762D02*
X530256D01*
X524744Y226526D02*
Y236762D01*
X530256Y226526D02*
Y236762D01*
X404557Y221821D02*
Y255679D01*
X417943Y221821D02*
Y255679D01*
X404557Y221821D02*
X417943D01*
X404557Y255679D02*
X417943D01*
X379557Y221821D02*
Y255679D01*
X392943Y221821D02*
Y255679D01*
X379557Y221821D02*
X392943D01*
X379557Y255679D02*
X392943D01*
X219557Y221821D02*
Y255679D01*
X232943Y221821D02*
Y255679D01*
X219557Y221821D02*
X232943D01*
X219557Y255679D02*
X232943D01*
X291890Y272520D02*
Y287480D01*
X278110Y272520D02*
Y287480D01*
X291890D01*
X278110Y272520D02*
X291890D01*
X554665Y112333D02*
X560177D01*
X554665Y122569D02*
X560177D01*
X554665Y112333D02*
Y122569D01*
X560177Y112333D02*
Y122569D01*
X380130Y44727D02*
Y50239D01*
X369894Y44727D02*
Y50239D01*
Y44727D02*
X380130D01*
X369894Y50239D02*
X380130D01*
X574665Y112333D02*
X580177D01*
X574665Y122569D02*
X580177D01*
X574665Y112333D02*
Y122569D01*
X580177Y112333D02*
Y122569D01*
X510069Y170069D02*
X562431D01*
X510069Y222431D02*
X562431D01*
Y170069D02*
Y222431D01*
X510069Y170069D02*
Y222431D01*
X269390Y272520D02*
Y287480D01*
X255610Y272520D02*
Y287480D01*
X269390D01*
X255610Y272520D02*
X269390D01*
X246890D02*
Y287480D01*
X233110Y272520D02*
Y287480D01*
X246890D01*
X233110Y272520D02*
X246890D01*
X524665Y112333D02*
X530177D01*
X524665Y122569D02*
X530177D01*
X524665Y112333D02*
Y122569D01*
X530177Y112333D02*
Y122569D01*
X504665Y112333D02*
X510177D01*
X504665Y122569D02*
X510177D01*
X504665Y112333D02*
Y122569D01*
X510177Y112333D02*
Y122569D01*
X314691Y44626D02*
Y50138D01*
X304455Y44626D02*
Y50138D01*
Y44626D02*
X314691D01*
X304455Y50138D02*
X314691D01*
X572185Y155797D02*
Y161703D01*
X582815Y155797D02*
Y161703D01*
X572185D02*
X582815D01*
X572185Y155797D02*
X582815D01*
X592185D02*
Y161703D01*
X602815Y155797D02*
Y161703D01*
X592185D02*
X602815D01*
X592185Y155797D02*
X602815D01*
X594665Y112333D02*
X600177D01*
X594665Y122569D02*
X600177D01*
X594665Y112333D02*
Y122569D01*
X600177Y112333D02*
Y122569D01*
X552234Y155797D02*
Y161703D01*
X562864Y155797D02*
Y161703D01*
X552234D02*
X562864D01*
X552234Y155797D02*
X562864D01*
X224390Y272520D02*
Y287480D01*
X210610Y272520D02*
Y287480D01*
X224390D01*
X210610Y272520D02*
X224390D01*
X484665Y112333D02*
X490177D01*
X484665Y122569D02*
X490177D01*
X484665Y112333D02*
Y122569D01*
X490177Y112333D02*
Y122569D01*
X464744Y112382D02*
X470256D01*
X464744Y122618D02*
X470256D01*
X464744Y112382D02*
Y122618D01*
X470256Y112382D02*
Y122618D01*
X444744Y112382D02*
X450256D01*
X444744Y122618D02*
X450256D01*
X444744Y112382D02*
Y122618D01*
X450256Y112382D02*
Y122618D01*
X353159Y84885D02*
X358671D01*
X353159Y95121D02*
X358671D01*
X353159Y84885D02*
Y95121D01*
X358671Y84885D02*
Y95121D01*
X578799Y153494D02*
X596043D01*
Y146408D02*
Y153494D01*
X578799Y146408D02*
Y153494D01*
Y146408D02*
X596043D01*
X512185Y155797D02*
Y161703D01*
X522815Y155797D02*
Y161703D01*
X512185D02*
X522815D01*
X512185Y155797D02*
X522815D01*
X492185D02*
Y161703D01*
X502815Y155797D02*
Y161703D01*
X492185D02*
X502815D01*
X492185Y155797D02*
X502815D01*
X368868Y237869D02*
Y243381D01*
X358632Y237869D02*
Y243381D01*
Y237869D02*
X368868D01*
X358632Y243381D02*
X368868D01*
X347313Y225807D02*
Y239193D01*
X355187Y225807D02*
Y239193D01*
X347313Y225807D02*
X355187D01*
X347313Y239193D02*
X355187D01*
X339813Y225807D02*
Y239193D01*
X347687Y225807D02*
Y239193D01*
X339813Y225807D02*
X347687D01*
X339813Y239193D02*
X347687D01*
X368789Y182165D02*
Y187677D01*
X358553Y182165D02*
Y187677D01*
Y182165D02*
X368789D01*
X358553Y187677D02*
X368789D01*
X368868Y207244D02*
Y212756D01*
X358632Y207244D02*
Y212756D01*
Y207244D02*
X368868D01*
X358632Y212756D02*
X368868D01*
X469547Y135315D02*
X475453D01*
X469547Y124685D02*
X475453D01*
Y135315D01*
X469547Y124685D02*
Y135315D01*
X306688Y75182D02*
Y88568D01*
X314562Y75182D02*
Y88568D01*
X306688Y75182D02*
X314562D01*
X306688Y88568D02*
X314562D01*
X340659Y84885D02*
X346171D01*
X340659Y95121D02*
X346171D01*
X340659Y84885D02*
Y95121D01*
X346171Y84885D02*
Y95121D01*
X328159Y84885D02*
X333671D01*
X328159Y95121D02*
X333671D01*
X328159Y84885D02*
Y95121D01*
X333671Y84885D02*
Y95121D01*
X291069Y44626D02*
Y50138D01*
X280833Y44626D02*
Y50138D01*
Y44626D02*
X291069D01*
X280833Y50138D02*
X291069D01*
X498799Y153494D02*
X516043D01*
Y146408D02*
Y153494D01*
X498799Y146408D02*
Y153494D01*
Y146408D02*
X516043D01*
X518799Y153494D02*
X536043D01*
Y146408D02*
Y153494D01*
X518799Y146408D02*
Y153494D01*
Y146408D02*
X536043D01*
X449547Y135315D02*
X455453D01*
X449547Y124685D02*
X455453D01*
Y135315D01*
X449547Y124685D02*
Y135315D01*
X144557Y221821D02*
Y255679D01*
X157943Y221821D02*
Y255679D01*
X144557Y221821D02*
X157943D01*
X144557Y255679D02*
X157943D01*
X429547Y135315D02*
X435453D01*
X429547Y124685D02*
X435453D01*
Y135315D01*
X429547Y124685D02*
Y135315D01*
X295507Y94119D02*
Y99631D01*
X305743Y94119D02*
Y99631D01*
X295507D02*
X305743D01*
X295507Y94119D02*
X305743D01*
X252687Y71432D02*
Y84818D01*
X244813Y71432D02*
Y84818D01*
X252687D01*
X244813Y71432D02*
X252687D01*
X243824Y44626D02*
Y50138D01*
X233588Y44626D02*
Y50138D01*
Y44626D02*
X243824D01*
X233588Y50138D02*
X243824D01*
X478799Y153494D02*
X496043D01*
Y146408D02*
Y153494D01*
X478799Y146408D02*
Y153494D01*
Y146408D02*
X496043D01*
X390069Y209242D02*
X402273D01*
X390069D02*
Y220660D01*
X402273Y209242D02*
Y220660D01*
X390069D02*
X402273D01*
X117815Y257047D02*
Y262953D01*
X107185Y257047D02*
Y262953D01*
Y257047D02*
X117815D01*
X107185Y262953D02*
X117815D01*
X31565Y180797D02*
Y186703D01*
X20935Y180797D02*
Y186703D01*
Y180797D02*
X31565D01*
X20935Y186703D02*
X31565D01*
X118986Y228248D02*
Y234154D01*
X108356Y228248D02*
Y234154D01*
Y228248D02*
X118986D01*
X108356Y234154D02*
X118986D01*
X354665Y112333D02*
X360177D01*
X354665Y122569D02*
X360177D01*
X354665Y112333D02*
Y122569D01*
X360177Y112333D02*
Y122569D01*
X379468Y135266D02*
X385374D01*
X379468Y124636D02*
X385374D01*
Y135266D01*
X379468Y124636D02*
Y135266D01*
X334665Y112333D02*
X340177D01*
X334665Y122569D02*
X340177D01*
X334665Y112333D02*
Y122569D01*
X340177Y112333D02*
Y122569D01*
X359468Y135266D02*
X365374D01*
X359468Y124636D02*
X365374D01*
Y135266D01*
X359468Y124636D02*
Y135266D01*
X31565Y150797D02*
Y156703D01*
X20935Y150797D02*
Y156703D01*
Y150797D02*
X31565D01*
X20935Y156703D02*
X31565D01*
X59937Y248102D02*
Y261488D01*
X52063Y248102D02*
Y261488D01*
X59937D01*
X52063Y248102D02*
X59937D01*
X101368Y208494D02*
Y214006D01*
X91132Y208494D02*
Y214006D01*
Y208494D02*
X101368D01*
X91132Y214006D02*
X101368D01*
X92126Y214242D02*
Y238258D01*
X57874Y214242D02*
Y238258D01*
Y214242D02*
X92126D01*
X57874Y238258D02*
X92126D01*
X287937Y180807D02*
Y194193D01*
X280063Y180807D02*
Y194193D01*
X287937D01*
X280063Y180807D02*
X287937D01*
X282457Y194754D02*
Y207746D01*
X289543Y194754D02*
Y207746D01*
X282457Y194754D02*
X289543D01*
X282457Y207746D02*
X289543D01*
X318799Y143494D02*
X336043D01*
Y136408D02*
Y143494D01*
X318799Y136408D02*
Y143494D01*
Y136408D02*
X336043D01*
X298799Y143494D02*
X316043D01*
Y136408D02*
Y143494D01*
X298799Y136408D02*
Y143494D01*
Y136408D02*
X316043D01*
X278799Y143494D02*
X296043D01*
Y136408D02*
Y143494D01*
X278799Y136408D02*
Y143494D01*
Y136408D02*
X296043D01*
X271368Y188494D02*
Y194006D01*
X261132Y188494D02*
Y194006D01*
Y188494D02*
X271368D01*
X261132Y194006D02*
X271368D01*
X113218Y162136D02*
X119124D01*
X113218Y172766D02*
X119124D01*
X113218Y162136D02*
Y172766D01*
X119124Y162136D02*
Y172766D01*
X260935Y182047D02*
Y187953D01*
X271565Y182047D02*
Y187953D01*
X260935D02*
X271565D01*
X260935Y182047D02*
X271565D01*
X243297Y212815D02*
X249203D01*
X243297Y202185D02*
X249203D01*
Y212815D01*
X243297Y202185D02*
Y212815D01*
X258878Y143543D02*
X276122D01*
Y136457D02*
Y143543D01*
X258878Y136457D02*
Y143543D01*
Y136457D02*
X276122D01*
X249547Y135315D02*
X255453D01*
X249547Y124685D02*
X255453D01*
Y135315D01*
X249547Y124685D02*
Y135315D01*
X229547D02*
X235453D01*
X229547Y124685D02*
X235453D01*
Y135315D01*
X229547Y124685D02*
Y135315D01*
X209547D02*
X215453D01*
X209547Y124685D02*
X215453D01*
Y135315D01*
X209547Y124685D02*
Y135315D01*
X238878Y143543D02*
X256122D01*
Y136457D02*
Y143543D01*
X238878Y136457D02*
Y143543D01*
Y136457D02*
X256122D01*
X218878Y143543D02*
X236122D01*
Y136457D02*
Y143543D01*
X218878Y136457D02*
Y143543D01*
Y136457D02*
X236122D01*
X119016Y156476D02*
X170984D01*
X119016Y178524D02*
X170984D01*
Y156476D02*
Y178524D01*
X119016Y156476D02*
Y178524D01*
X204744Y191132D02*
X210256D01*
X204744Y201368D02*
X210256D01*
X204744Y191132D02*
Y201368D01*
X210256Y191132D02*
Y201368D01*
X120797Y138435D02*
X126703D01*
X120797Y149065D02*
X126703D01*
X120797Y138435D02*
Y149065D01*
X126703Y138435D02*
Y149065D01*
X37744Y116382D02*
X43256D01*
X37744Y126618D02*
X43256D01*
X37744Y116382D02*
Y126618D01*
X43256Y116382D02*
Y126618D01*
X69882Y112244D02*
Y117756D01*
X80118Y112244D02*
Y117756D01*
X69882D02*
X80118D01*
X69882Y112244D02*
X80118D01*
X587224Y69892D02*
Y87608D01*
X577776Y69892D02*
Y87608D01*
X587224D01*
X577776Y69892D02*
X587224D01*
X507244Y272362D02*
X512756D01*
X507244Y262126D02*
X512756D01*
Y272362D01*
X507244Y262126D02*
Y272362D01*
X494390Y272520D02*
Y287480D01*
X480610Y272520D02*
Y287480D01*
X494390D01*
X480610Y272520D02*
X494390D01*
X518494Y282618D02*
X524006D01*
X518494Y272382D02*
X524006D01*
Y282618D01*
X518494Y272382D02*
Y282618D01*
X552244Y272362D02*
X557756D01*
X552244Y262126D02*
X557756D01*
Y272362D01*
X552244Y262126D02*
Y272362D01*
X372244Y272362D02*
X377756D01*
X372244Y262126D02*
X377756D01*
Y272362D01*
X372244Y262126D02*
Y272362D01*
X400251Y75492D02*
Y99508D01*
X365999Y75492D02*
Y99508D01*
Y75492D02*
X400251D01*
X365999Y99508D02*
X400251D01*
X413494Y266319D02*
X419006D01*
X413494Y256083D02*
X419006D01*
Y266319D01*
X413494Y256083D02*
Y266319D01*
X393473Y266368D02*
X398985D01*
X393473Y256132D02*
X398985D01*
Y266368D01*
X393473Y256132D02*
Y266368D01*
X360994Y282618D02*
X366506D01*
X360994Y272382D02*
X366506D01*
Y282618D01*
X360994Y272382D02*
Y282618D01*
X338494D02*
X344006D01*
X338494Y272382D02*
X344006D01*
Y282618D01*
X338494Y272382D02*
Y282618D01*
X403752Y44727D02*
Y50239D01*
X393516Y44727D02*
Y50239D01*
Y44727D02*
X403752D01*
X393516Y50239D02*
X403752D01*
X498957Y228504D02*
Y241496D01*
X506043Y228504D02*
Y241496D01*
X498957Y228504D02*
X506043D01*
X498957Y241496D02*
X506043D01*
X315994Y282618D02*
X321506D01*
X315994Y272382D02*
X321506D01*
Y282618D01*
X315994Y272382D02*
Y282618D01*
X314390Y272520D02*
Y287480D01*
X300610Y272520D02*
Y287480D01*
X314390D01*
X300610Y272520D02*
X314390D01*
X356508Y44727D02*
Y50239D01*
X346272Y44727D02*
Y50239D01*
Y44727D02*
X356508D01*
X346272Y50239D02*
X356508D01*
X534665Y112333D02*
X540177D01*
X534665Y122569D02*
X540177D01*
X534665Y112333D02*
Y122569D01*
X540177Y112333D02*
Y122569D01*
X536338Y226526D02*
X541850D01*
X536338Y236762D02*
X541850D01*
X536338Y226526D02*
Y236762D01*
X541850Y226526D02*
Y236762D01*
X200994Y266368D02*
X206506D01*
X200994Y256132D02*
X206506D01*
Y266368D01*
X200994Y256132D02*
Y266368D01*
X569468Y135266D02*
X575374D01*
X569468Y124636D02*
X575374D01*
Y135266D01*
X569468Y124636D02*
Y135266D01*
X305994Y226329D02*
X311506D01*
X305994Y236565D02*
X311506D01*
X305994Y226329D02*
Y236565D01*
X311506Y226329D02*
Y236565D01*
X175994Y266319D02*
X181506D01*
X175994Y256083D02*
X181506D01*
Y266319D01*
X175994Y256083D02*
Y266319D01*
X180994Y282618D02*
X186506D01*
X180994Y272382D02*
X186506D01*
Y282618D01*
X180994Y272382D02*
Y282618D01*
X549468Y135266D02*
X555374D01*
X549468Y124636D02*
X555374D01*
Y135266D01*
X549468Y124636D02*
Y135266D01*
X529468D02*
X535374D01*
X529468Y124636D02*
X535374D01*
Y135266D01*
X529468Y124636D02*
Y135266D01*
X424744Y112382D02*
X430256D01*
X424744Y122618D02*
X430256D01*
X424744Y112382D02*
Y122618D01*
X430256Y112382D02*
Y122618D01*
X568435Y232047D02*
Y237953D01*
X579065Y232047D02*
Y237953D01*
X568435D02*
X579065D01*
X568435Y232047D02*
X579065D01*
X509468Y135266D02*
X515374D01*
X509468Y124636D02*
X515374D01*
Y135266D01*
X509468Y124636D02*
Y135266D01*
X558799Y153494D02*
X576043D01*
Y146408D02*
Y153494D01*
X558799Y146408D02*
Y153494D01*
Y146408D02*
X576043D01*
X319744Y236565D02*
X325256D01*
X319744Y226329D02*
X325256D01*
Y236565D01*
X319744Y226329D02*
Y236565D01*
X368868Y201619D02*
Y207131D01*
X358632Y201619D02*
Y207131D01*
Y201619D02*
X368868D01*
X358632Y207131D02*
X368868D01*
X489468Y135266D02*
X495374D01*
X489468Y124636D02*
X495374D01*
Y135266D01*
X489468Y124636D02*
Y135266D01*
X538799Y153494D02*
X556043D01*
Y146408D02*
Y153494D01*
X538799Y146408D02*
Y153494D01*
Y146408D02*
X556043D01*
X452185Y155797D02*
Y161703D01*
X462815Y155797D02*
Y161703D01*
X452185D02*
X462815D01*
X452185Y155797D02*
X462815D01*
X472185D02*
Y161703D01*
X482815Y155797D02*
Y161703D01*
X472185D02*
X482815D01*
X472185Y155797D02*
X482815D01*
X371791Y206432D02*
X377303D01*
X371791Y216668D02*
X377303D01*
X371791Y206432D02*
Y216668D01*
X377303Y206432D02*
Y216668D01*
X19508Y238392D02*
X32894D01*
X19508Y246266D02*
X32894D01*
Y238392D02*
Y246266D01*
X19508Y238392D02*
Y246266D01*
X150994Y266368D02*
X156506D01*
X150994Y256132D02*
X156506D01*
Y266368D01*
X150994Y256132D02*
Y266368D01*
X384665Y112333D02*
X390177D01*
X384665Y122569D02*
X390177D01*
X384665Y112333D02*
Y122569D01*
X390177Y112333D02*
Y122569D01*
X468878Y143543D02*
X486122D01*
Y136457D02*
Y143543D01*
X468878Y136457D02*
Y143543D01*
Y136457D02*
X486122D01*
X209025Y84784D02*
X214537D01*
X209025Y95020D02*
X214537D01*
X209025Y84784D02*
Y95020D01*
X214537Y84784D02*
Y95020D01*
X246525Y84784D02*
X252037D01*
X246525Y95020D02*
X252037D01*
X246525Y84784D02*
Y95020D01*
X252037Y84784D02*
Y95020D01*
X432185Y155797D02*
Y161703D01*
X442815Y155797D02*
Y161703D01*
X432185D02*
X442815D01*
X432185Y155797D02*
X442815D01*
X448878Y143543D02*
X466122D01*
Y136457D02*
Y143543D01*
X448878Y136457D02*
Y143543D01*
Y136457D02*
X466122D01*
X371791Y206122D02*
X393051D01*
X371791Y177185D02*
X393051D01*
Y206122D01*
X371791Y177185D02*
Y206122D01*
X393504Y180610D02*
Y194390D01*
X406496Y180610D02*
Y194390D01*
X393504Y180610D02*
X406496D01*
X393504Y194390D02*
X406496D01*
X372106Y161998D02*
Y167904D01*
X382736Y161998D02*
Y167904D01*
X372106D02*
X382736D01*
X372106Y161998D02*
X382736D01*
X428878Y143543D02*
X446122D01*
Y136457D02*
Y143543D01*
X428878Y136457D02*
Y143543D01*
Y136457D02*
X446122D01*
X221525Y84784D02*
X227037D01*
X221525Y95020D02*
X227037D01*
X221525Y84784D02*
Y95020D01*
X227037Y84784D02*
Y95020D01*
X215940Y55172D02*
Y61078D01*
X205310Y55172D02*
Y61078D01*
Y55172D02*
X215940D01*
X205310Y61078D02*
X215940D01*
X234025Y84784D02*
X239537D01*
X234025Y95020D02*
X239537D01*
X234025Y84784D02*
Y95020D01*
X239537Y84784D02*
Y95020D01*
X409852Y136535D02*
X417648D01*
Y153465D01*
X409852D02*
X417648D01*
X409852Y136535D02*
Y153465D01*
X352106Y161998D02*
Y167904D01*
X362736Y161998D02*
Y167904D01*
X352106D02*
X362736D01*
X352106Y161998D02*
X362736D01*
X332106D02*
Y167904D01*
X342736Y161998D02*
Y167904D01*
X332106D02*
X342736D01*
X332106Y161998D02*
X342736D01*
X312106D02*
Y167904D01*
X322736Y161998D02*
Y167904D01*
X312106D02*
X322736D01*
X312106Y161998D02*
X322736D01*
X52126Y244242D02*
Y268258D01*
X17874Y244242D02*
Y268258D01*
Y244242D02*
X52126D01*
X17874Y268258D02*
X52126D01*
X314665Y112333D02*
X320177D01*
X314665Y122569D02*
X320177D01*
X314665Y112333D02*
Y122569D01*
X320177Y112333D02*
Y122569D01*
X378799Y143494D02*
X396043D01*
Y136408D02*
Y143494D01*
X378799Y136408D02*
Y143494D01*
Y136408D02*
X396043D01*
X329468Y135266D02*
X335374D01*
X329468Y124636D02*
X335374D01*
Y135266D01*
X329468Y124636D02*
Y135266D01*
X294665Y112333D02*
X300177D01*
X294665Y122569D02*
X300177D01*
X294665Y112333D02*
Y122569D01*
X300177Y112333D02*
Y122569D01*
X274665Y112333D02*
X280177D01*
X274665Y122569D02*
X280177D01*
X274665Y112333D02*
Y122569D01*
X280177Y112333D02*
Y122569D01*
X224744Y112382D02*
X230256D01*
X224744Y122618D02*
X230256D01*
X224744Y112382D02*
Y122618D01*
X230256Y112382D02*
Y122618D01*
X244744Y112382D02*
X250256D01*
X244744Y122618D02*
X250256D01*
X244744Y112382D02*
Y122618D01*
X250256Y112382D02*
Y122618D01*
X204744Y112382D02*
X210256D01*
X204744Y122618D02*
X210256D01*
X204744Y112382D02*
Y122618D01*
X210256Y112382D02*
Y122618D01*
X358799Y143494D02*
X376043D01*
Y136408D02*
Y143494D01*
X358799Y136408D02*
Y143494D01*
Y136408D02*
X376043D01*
X338799Y143494D02*
X356043D01*
Y136408D02*
Y143494D01*
X338799Y136408D02*
Y143494D01*
Y136408D02*
X356043D01*
X292106Y161998D02*
Y167904D01*
X302736Y161998D02*
Y167904D01*
X292106D02*
X302736D01*
X292106Y161998D02*
X302736D01*
X272106D02*
Y167904D01*
X282736Y161998D02*
Y167904D01*
X272106D02*
X282736D01*
X272106Y161998D02*
X282736D01*
X309468Y135266D02*
X315374D01*
X309468Y124636D02*
X315374D01*
Y135266D01*
X309468Y124636D02*
Y135266D01*
X289468D02*
X295374D01*
X289468Y124636D02*
X295374D01*
Y135266D01*
X289468Y124636D02*
Y135266D01*
X176132Y195994D02*
Y201506D01*
X186368Y195994D02*
Y201506D01*
X176132D02*
X186368D01*
X176132Y195994D02*
X186368D01*
X232185Y162047D02*
Y167953D01*
X242815Y162047D02*
Y167953D01*
X232185D02*
X242815D01*
X232185Y162047D02*
X242815D01*
X252185D02*
Y167953D01*
X262815Y162047D02*
Y167953D01*
X252185D02*
X262815D01*
X252185Y162047D02*
X262815D01*
X269468Y135266D02*
X275374D01*
X269468Y124636D02*
X275374D01*
Y135266D01*
X269468Y124636D02*
Y135266D01*
X174754Y180610D02*
Y194390D01*
X187746Y180610D02*
Y194390D01*
X174754Y180610D02*
X187746D01*
X174754Y194390D02*
X187746D01*
X188376Y196939D02*
Y220561D01*
X204124Y196939D02*
Y220561D01*
X188376Y196939D02*
X204124D01*
X188376Y220561D02*
X204124D01*
X149547Y122815D02*
X155453D01*
X149547Y112185D02*
X155453D01*
Y122815D01*
X149547Y112185D02*
Y122815D01*
X156132Y112244D02*
Y117756D01*
X166368Y112244D02*
Y117756D01*
X156132D02*
X166368D01*
X156132Y112244D02*
X166368D01*
X19000Y126476D02*
X121000D01*
X19000D02*
Y148524D01*
X121000D01*
Y126476D02*
Y148524D01*
X96752Y120797D02*
Y126703D01*
X107382Y120797D02*
Y126703D01*
X96752D02*
X107382D01*
X96752Y120797D02*
X107382D01*
X93632Y112244D02*
Y117756D01*
X103868Y112244D02*
Y117756D01*
X93632D02*
X103868D01*
X93632Y112244D02*
X103868D01*
X48244Y116382D02*
X53756D01*
X48244Y126618D02*
X53756D01*
X48244Y116382D02*
Y126618D01*
X53756Y116382D02*
Y126618D01*
X80797Y122815D02*
X86703D01*
X80797Y112185D02*
X86703D01*
Y122815D01*
X80797Y112185D02*
Y122815D01*
X95748Y212126D02*
Y227874D01*
X114252Y212126D02*
Y227874D01*
X95748D02*
X114252D01*
X95748Y212126D02*
X114252D01*
X95748Y240876D02*
Y256624D01*
X114252Y240876D02*
Y256624D01*
X95748D02*
X114252D01*
X95748Y240876D02*
X114252D01*
X290251Y93627D02*
X305999D01*
X290251Y75123D02*
X305999D01*
Y93627D01*
X290251Y75123D02*
Y93627D01*
X402751D02*
X418499D01*
X402751Y75123D02*
X418499D01*
Y93627D01*
X402751Y75123D02*
Y93627D01*
X83671Y313888D02*
Y368612D01*
X148829Y313888D02*
Y368612D01*
X83671D02*
X148829D01*
X83671Y313888D02*
X148829D01*
X311220Y344902D02*
Y370098D01*
X298622Y344902D02*
Y370098D01*
X311220D01*
X298622Y344902D02*
X311220D01*
X288799D02*
Y370098D01*
X276201Y344902D02*
Y370098D01*
X288799D01*
X276201Y344902D02*
X288799D01*
X266299D02*
Y370098D01*
X253701Y344902D02*
Y370098D01*
X266299D01*
X253701Y344902D02*
X266299D01*
X243799D02*
Y370098D01*
X231201Y344902D02*
Y370098D01*
X243799D01*
X231201Y344902D02*
X243799D01*
X221299D02*
Y370098D01*
X208701Y344902D02*
Y370098D01*
X221299D01*
X208701Y344902D02*
X221299D01*
X198799D02*
Y370098D01*
X186201Y344902D02*
Y370098D01*
X198799D01*
X186201Y344902D02*
X198799D01*
X446299D02*
Y370098D01*
X433701Y344902D02*
Y370098D01*
X446299D01*
X433701Y344902D02*
X446299D01*
X423799D02*
Y370098D01*
X411201Y344902D02*
Y370098D01*
X423799D01*
X411201Y344902D02*
X423799D01*
X401299D02*
Y370098D01*
X388701Y344902D02*
Y370098D01*
X401299D01*
X388701Y344902D02*
X401299D01*
X378799D02*
Y370098D01*
X366201Y344902D02*
Y370098D01*
X378799D01*
X366201Y344902D02*
X378799D01*
X356299D02*
Y370098D01*
X343701Y344902D02*
Y370098D01*
X356299D01*
X343701Y344902D02*
X356299D01*
X333799D02*
Y370098D01*
X321201Y344902D02*
Y370098D01*
X333799D01*
X321201Y344902D02*
X333799D01*
X581299D02*
Y370098D01*
X568701Y344902D02*
Y370098D01*
X581299D01*
X568701Y344902D02*
X581299D01*
X558720D02*
Y370098D01*
X546122Y344902D02*
Y370098D01*
X558720D01*
X546122Y344902D02*
X558720D01*
X536299D02*
Y370098D01*
X523701Y344902D02*
Y370098D01*
X536299D01*
X523701Y344902D02*
X536299D01*
X491299D02*
Y370098D01*
X478701Y344902D02*
Y370098D01*
X491299D01*
X478701Y344902D02*
X491299D01*
X468799D02*
Y370098D01*
X456201Y344902D02*
Y370098D01*
X468799D01*
X456201Y344902D02*
X468799D01*
X77244Y323632D02*
Y333868D01*
X82756Y323632D02*
Y333868D01*
X77244Y323632D02*
X82756D01*
X77244Y333868D02*
X82756D01*
X82746Y360207D02*
Y367293D01*
X69754Y360207D02*
Y367293D01*
Y360207D02*
X82746D01*
X69754Y367293D02*
X82746D01*
X39882Y345994D02*
X50118D01*
X39882Y351506D02*
X50118D01*
Y345994D02*
Y351506D01*
X39882Y345994D02*
Y351506D01*
Y345256D02*
X50118D01*
X39882Y339744D02*
X50118D01*
X39882D02*
Y345256D01*
X50118Y339744D02*
Y345256D01*
X237131Y59257D02*
Y69493D01*
X231619Y59257D02*
Y69493D01*
X237131D01*
X231619Y59257D02*
X237131D01*
X352756Y56132D02*
Y66368D01*
X347244Y56132D02*
Y66368D01*
X352756D01*
X347244Y56132D02*
X352756D01*
X50864Y323317D02*
Y344183D01*
X76636Y323317D02*
Y344183D01*
X50864D02*
X76636D01*
X50864Y323317D02*
X76636D01*
X20197Y59892D02*
X29645D01*
X20197Y77608D02*
X29645D01*
X20197Y59892D02*
Y77608D01*
X29645Y59892D02*
Y77608D01*
X149282Y350089D02*
X178218D01*
X149282Y367411D02*
X178218D01*
Y350089D02*
Y367411D01*
X149282Y350089D02*
Y367411D01*
X69193Y359813D02*
Y367687D01*
X55807Y359813D02*
Y367687D01*
Y359813D02*
X69193D01*
X55807Y367687D02*
X69193D01*
X200935Y190453D02*
X211565D01*
X200935Y184547D02*
X211565D01*
X200935D02*
Y190453D01*
X211565Y184547D02*
Y190453D01*
X415935D02*
X426565D01*
X415935Y184547D02*
X426565D01*
X415935D02*
Y190453D01*
X426565Y184547D02*
Y190453D01*
X356006Y213198D02*
Y223434D01*
X350494Y213198D02*
Y223434D01*
X356006D01*
X350494Y213198D02*
X356006D01*
X289882Y225256D02*
X300118D01*
X289882Y219744D02*
X300118D01*
X289882D02*
Y225256D01*
X300118Y219744D02*
Y225256D01*
X289882Y219756D02*
X300118D01*
X289882Y214244D02*
X300118D01*
X289882D02*
Y219756D01*
X300118Y214244D02*
Y219756D01*
X289882Y214256D02*
X300118D01*
X289882Y208744D02*
X300118D01*
X289882D02*
Y214256D01*
X300118Y208744D02*
Y214256D01*
X595007Y216137D02*
X605243D01*
X595007Y210625D02*
X605243D01*
X595007D02*
Y216137D01*
X605243Y210625D02*
Y216137D01*
X595007Y210097D02*
X605243D01*
X595007Y204585D02*
X605243D01*
X595007D02*
Y210097D01*
X605243Y204585D02*
Y210097D01*
X611756Y196632D02*
Y206868D01*
X606244Y196632D02*
Y206868D01*
X611756D01*
X606244Y196632D02*
X611756D01*
Y183382D02*
Y193618D01*
X606244Y183382D02*
Y193618D01*
X611756D01*
X606244Y183382D02*
X611756D01*
X429744Y185118D02*
X435256D01*
X429744Y174882D02*
X435256D01*
Y185118D01*
X429744Y174882D02*
Y185118D01*
X193632Y182756D02*
X203868D01*
X193632Y177244D02*
X203868D01*
X193632D02*
Y182756D01*
X203868Y177244D02*
Y182756D01*
X214744Y174882D02*
Y185118D01*
X220256Y174882D02*
Y185118D01*
X214744Y174882D02*
X220256D01*
X214744Y185118D02*
X220256D01*
X408632Y184006D02*
X418868D01*
X408632Y178494D02*
X418868D01*
X408632D02*
Y184006D01*
X418868Y178494D02*
Y184006D01*
X187047Y167185D02*
Y177815D01*
X192953Y167185D02*
Y177815D01*
X187047Y167185D02*
X192953D01*
X187047Y177815D02*
X192953D01*
X187746Y167382D02*
Y177618D01*
X182234Y167382D02*
Y177618D01*
X187746D01*
X182234Y167382D02*
X187746D01*
X187382Y166506D02*
X197618D01*
X187382Y160994D02*
X197618D01*
X187382D02*
Y166506D01*
X197618Y160994D02*
Y166506D01*
X215256Y167382D02*
Y177618D01*
X209744Y167382D02*
Y177618D01*
X215256D01*
X209744Y167382D02*
X215256D01*
X205069Y167381D02*
Y177618D01*
X192431Y167381D02*
Y177618D01*
Y167381D02*
X205069D01*
X192431Y177618D02*
X205069D01*
X210256Y167382D02*
Y177618D01*
X204744Y167382D02*
Y177618D01*
X210256D01*
X204744Y167382D02*
X210256D01*
X402047Y168435D02*
Y179065D01*
X407953Y168435D02*
Y179065D01*
X402047Y168435D02*
X407953D01*
X402047Y179065D02*
X407953D01*
X402756Y168632D02*
Y178868D01*
X397244Y168632D02*
Y178868D01*
X402756D01*
X397244Y168632D02*
X402756D01*
X404882Y169006D02*
X415118D01*
X404882Y163494D02*
X415118D01*
X404882D02*
Y169006D01*
X415118Y163494D02*
Y169006D01*
X430256Y168632D02*
Y178868D01*
X424744Y168632D02*
Y178868D01*
X430256D01*
X424744Y168632D02*
X430256D01*
X420069Y168631D02*
Y178868D01*
X407431Y168631D02*
Y178868D01*
Y168631D02*
X420069D01*
X407431Y178868D02*
X420069D01*
X425256Y168632D02*
Y178868D01*
X419744Y168632D02*
Y178868D01*
X425256D01*
X419744Y168632D02*
X425256D01*
X38307Y332313D02*
Y340187D01*
X51693Y332313D02*
Y340187D01*
X38307D02*
X51693D01*
X38307Y332313D02*
X51693D01*
X212244Y191476D02*
X242756D01*
X212244Y213524D02*
X242756D01*
Y191476D02*
Y213524D01*
X212244Y191476D02*
Y213524D01*
X427244Y191476D02*
X457756D01*
X427244Y213524D02*
X457756D01*
Y191476D02*
Y213524D01*
X427244Y191476D02*
Y213524D01*
X202899Y82308D02*
X230851D01*
X202899Y61442D02*
X230851D01*
X202899D02*
Y82308D01*
X230851Y61442D02*
Y82308D01*
X216949Y55172D02*
X227579D01*
X216949Y61078D02*
X227579D01*
Y55172D02*
Y61078D01*
X216949Y55172D02*
Y61078D01*
X332185Y52047D02*
X342815D01*
X332185Y57953D02*
X342815D01*
Y52047D02*
Y57953D01*
X332185Y52047D02*
Y57953D01*
X318524Y79183D02*
X346476D01*
X318524Y58317D02*
X346476D01*
X318524D02*
Y79183D01*
X346476Y58317D02*
Y79183D01*
X54774Y57726D02*
Y79774D01*
X32726Y57726D02*
X54774D01*
X32726Y79774D02*
X54774D01*
X32726Y57726D02*
Y79774D01*
X147845Y302155D02*
X169656D01*
X147845Y290345D02*
X169656D01*
Y302155D01*
X147845Y290345D02*
Y302155D01*
X66132Y345994D02*
Y351506D01*
X76368Y345994D02*
Y351506D01*
X66132D02*
X76368D01*
X66132Y345994D02*
X76368D01*
X77244Y345118D02*
X82756D01*
X77244Y334882D02*
X82756D01*
Y345118D01*
X77244Y334882D02*
Y345118D01*
X61565Y345797D02*
Y351703D01*
X50935Y345797D02*
Y351703D01*
Y345797D02*
X61565D01*
X50935Y351703D02*
X61565D01*
X298682Y299902D02*
Y325098D01*
X311281Y299902D02*
Y325098D01*
X298682Y299902D02*
X311281D01*
X298682Y325098D02*
X311281D01*
X276201Y299902D02*
Y325098D01*
X288799Y299902D02*
Y325098D01*
X276201Y299902D02*
X288799D01*
X276201Y325098D02*
X288799D01*
X253701Y299902D02*
Y325098D01*
X266299Y299902D02*
Y325098D01*
X253701Y299902D02*
X266299D01*
X253701Y325098D02*
X266299D01*
X231201Y299902D02*
Y325098D01*
X243799Y299902D02*
Y325098D01*
X231201Y299902D02*
X243799D01*
X231201Y325098D02*
X243799D01*
X208701Y299902D02*
Y325098D01*
X221299Y299902D02*
Y325098D01*
X208701Y299902D02*
X221299D01*
X208701Y325098D02*
X221299D01*
X186201Y299902D02*
Y325098D01*
X198799Y299902D02*
Y325098D01*
X186201Y299902D02*
X198799D01*
X186201Y325098D02*
X198799D01*
X433701Y299902D02*
Y325098D01*
X446299Y299902D02*
Y325098D01*
X433701Y299902D02*
X446299D01*
X433701Y325098D02*
X446299D01*
X411201Y299902D02*
Y325098D01*
X423799Y299902D02*
Y325098D01*
X411201Y299902D02*
X423799D01*
X411201Y325098D02*
X423799D01*
X388701Y299902D02*
Y325098D01*
X401299Y299902D02*
Y325098D01*
X388701Y299902D02*
X401299D01*
X388701Y325098D02*
X401299D01*
X366201Y299902D02*
Y325098D01*
X378799Y299902D02*
Y325098D01*
X366201Y299902D02*
X378799D01*
X366201Y325098D02*
X378799D01*
X343701Y299902D02*
Y325098D01*
X356299Y299902D02*
Y325098D01*
X343701Y299902D02*
X356299D01*
X343701Y325098D02*
X356299D01*
X321201Y299902D02*
Y325098D01*
X333799Y299902D02*
Y325098D01*
X321201Y299902D02*
X333799D01*
X321201Y325098D02*
X333799D01*
X513799Y344902D02*
Y370098D01*
X501201Y344902D02*
Y370098D01*
X513799D01*
X501201Y344902D02*
X513799D01*
X568701Y299902D02*
Y325098D01*
X581299Y299902D02*
Y325098D01*
X568701Y299902D02*
X581299D01*
X568701Y325098D02*
X581299D01*
X546201Y299902D02*
Y325098D01*
X558799Y299902D02*
Y325098D01*
X546201Y299902D02*
X558799D01*
X546201Y325098D02*
X558799D01*
X523701Y299902D02*
Y325098D01*
X536299Y299902D02*
Y325098D01*
X523701Y299902D02*
X536299D01*
X523701Y325098D02*
X536299D01*
X501201Y299902D02*
Y325098D01*
X513799Y299902D02*
Y325098D01*
X501201Y299902D02*
X513799D01*
X501201Y325098D02*
X513799D01*
X478701Y299902D02*
Y325098D01*
X491299Y299902D02*
Y325098D01*
X478701Y299902D02*
X491299D01*
X478701Y325098D02*
X491299D01*
X456319Y299902D02*
Y325098D01*
X468917Y299902D02*
Y325098D01*
X456319Y299902D02*
X468917D01*
X456319Y325098D02*
X468917D01*
X597382Y45994D02*
X607618D01*
X597382Y51506D02*
X607618D01*
Y45994D02*
Y51506D01*
X597382Y45994D02*
Y51506D01*
X437461Y46043D02*
X447697D01*
X437461Y51555D02*
X447697D01*
Y46043D02*
Y51555D01*
X437461Y46043D02*
Y51555D01*
M02*
