G04*
G04 #@! TF.GenerationSoftware,Altium Limited,Altium Designer,21.4.1 (30)*
G04*
G04 Layer_Color=16711935*
%FSLAX25Y25*%
%MOIN*%
G70*
G04*
G04 #@! TF.SameCoordinates,3F7B9525-E0B4-4A28-A4E6-3C1D8492A5F8*
G04*
G04*
G04 #@! TF.FilePolarity,Positive*
G04*
G01*
G75*
%ADD119C,0.00600*%
%ADD128C,0.00700*%
D119*
X629921Y389764D02*
G03*
X625984Y393701I-3937J0D01*
G01*
X3937D02*
G03*
X0Y389764I0J-3937D01*
G01*
Y3937D02*
G03*
X3937Y0I3937J0D01*
G01*
X625984D02*
G03*
X629921Y3937I0J3937D01*
G01*
X0D02*
Y389764D01*
X3937Y0D02*
X625984D01*
X629921Y3937D02*
Y389764D01*
X3937Y393701D02*
X625984D01*
D128*
X222875Y69876D02*
Y73209D01*
X222209Y73875D01*
X220876D01*
X220209Y73209D01*
Y69876D01*
X218876D02*
X216211D01*
Y70543D01*
X218876Y73209D01*
Y73875D01*
X214878Y70543D02*
X214211Y69876D01*
X212878D01*
X212212Y70543D01*
Y73209D01*
X212878Y73875D01*
X214211D01*
X214878Y73209D01*
Y70543D01*
X210879D02*
X210212Y69876D01*
X208879D01*
X208213Y70543D01*
Y73209D01*
X208879Y73875D01*
X210212D01*
X210879Y73209D01*
Y70543D01*
X206880Y74541D02*
X204214D01*
X200216Y73875D02*
X202881D01*
X200216Y71209D01*
Y70543D01*
X200882Y69876D01*
X202215D01*
X202881Y70543D01*
X338500Y66751D02*
Y70084D01*
X337834Y70750D01*
X336501D01*
X335834Y70084D01*
Y66751D01*
X334501D02*
X331836D01*
Y67418D01*
X334501Y70084D01*
Y70750D01*
X330503Y67418D02*
X329836Y66751D01*
X328503D01*
X327837Y67418D01*
Y70084D01*
X328503Y70750D01*
X329836D01*
X330503Y70084D01*
Y67418D01*
X326504D02*
X325837Y66751D01*
X324504D01*
X323838Y67418D01*
Y70084D01*
X324504Y70750D01*
X325837D01*
X326504Y70084D01*
Y67418D01*
X322505Y71416D02*
X319839D01*
X318506Y70750D02*
X317174D01*
X317840D01*
Y66751D01*
X318506Y67418D01*
M02*
