G04*
G04 #@! TF.GenerationSoftware,Altium Limited,Altium Designer,21.4.1 (30)*
G04*
G04 Layer_Physical_Order=3*
G04 Layer_Color=6736896*
%FSLAX25Y25*%
%MOIN*%
G70*
G04*
G04 #@! TF.SameCoordinates,3F7B9525-E0B4-4A28-A4E6-3C1D8492A5F8*
G04*
G04*
G04 #@! TF.FilePolarity,Positive*
G04*
G01*
G75*
%ADD14C,0.01000*%
%ADD17C,0.00800*%
%ADD119C,0.00600*%
%ADD120C,0.03200*%
%ADD121C,0.01600*%
%ADD123C,0.06890*%
%ADD125C,0.02165*%
%ADD126C,0.02953*%
D14*
X396250Y73750D02*
X401250Y78750D01*
X396250Y63750D02*
Y73750D01*
X390000Y57500D02*
X396250Y63750D01*
X390000Y75595D02*
X400625Y86221D01*
X390000Y65000D02*
Y75595D01*
X388125Y63125D02*
X390000Y65000D01*
X401250Y78750D02*
Y79130D01*
X404375Y82255D01*
Y108750D01*
X316875Y210920D02*
Y212500D01*
X310300Y204345D02*
X316875Y210920D01*
X400625Y107938D02*
X407500Y114813D01*
X400625Y86221D02*
Y107938D01*
X288125Y85000D02*
X291875D01*
X158117Y112451D02*
X201171D01*
X157365Y111700D02*
X158117Y112451D01*
X201171D02*
X205271Y108351D01*
X213125Y69375D02*
X239375D01*
X211250Y66250D02*
X239375D01*
X241875Y66875D02*
X286250D01*
X239375Y69375D02*
X241875Y66875D01*
X240625Y65000D02*
X293125D01*
X239375Y66250D02*
X240625Y65000D01*
X296250Y68125D02*
Y80625D01*
X291875Y85000D02*
X296250Y80625D01*
X293125Y65000D02*
X296250Y68125D01*
X286250Y66875D02*
X290000Y70625D01*
Y77500D01*
X289375Y78125D02*
X290000Y77500D01*
X330625Y57500D02*
X390000D01*
X326875Y61250D02*
Y65625D01*
Y61250D02*
X330625Y57500D01*
X330000Y63125D02*
X388125D01*
X404375Y108750D02*
X410000Y114375D01*
Y157500D01*
X72821Y119951D02*
X75252Y122383D01*
X72244Y119951D02*
X72821D01*
X75252Y122383D02*
X81507D01*
X85625Y126501D02*
X188221Y126501D01*
X81507Y122383D02*
X85625Y126501D01*
X188221Y126501D02*
X189471Y127751D01*
X188500Y123500D02*
X191071Y126071D01*
X96799Y123500D02*
X188500Y123500D01*
X93299Y120000D02*
X96799Y123500D01*
X191071Y126071D02*
Y166660D01*
X102662Y120101D02*
X115625D01*
X101506Y118945D02*
X102662Y120101D01*
X115625D02*
X194621Y120101D01*
X195871Y121351D01*
X77756Y120000D02*
X93299D01*
X98750Y121701D02*
X193021D01*
X194271Y122951D01*
X560030Y175000D02*
X562500Y177470D01*
X533750Y175000D02*
X560030D01*
X531250Y177500D02*
X533750Y175000D01*
X531250Y177500D02*
Y180000D01*
X189471Y127751D02*
Y167040D01*
X195681Y173250D01*
X191071Y166660D02*
X196261Y171850D01*
X197421Y169050D02*
X305300D01*
X195871Y167500D02*
X197421Y169050D01*
X195871Y121351D02*
Y167500D01*
X305300Y169050D02*
X311700Y175450D01*
X196841Y170450D02*
X303751D01*
X194271Y167880D02*
X196841Y170450D01*
X202590Y166250D02*
X307500D01*
X200670Y164330D02*
X202590Y166250D01*
X194271Y122951D02*
Y167880D01*
X198750Y166250D02*
X200150Y167650D01*
X202590D01*
X200670Y158750D02*
Y164330D01*
X517800Y169050D02*
X526250Y177500D01*
X413180Y169050D02*
X517800D01*
X515450Y170450D02*
X524665Y179665D01*
X412601Y170450D02*
X515450D01*
X508100Y171850D02*
X516043Y179793D01*
X412021Y171850D02*
X508100D01*
X507500Y173750D02*
X513858Y180108D01*
X411941Y173750D02*
X507500D01*
X416400Y167650D02*
X420000D01*
X407500Y158750D02*
X416400Y167650D01*
X416250Y163750D02*
X418750Y166250D01*
X410000Y157500D02*
X416250Y163750D01*
X407500Y114813D02*
Y158750D01*
X404221Y160091D02*
X413180Y169050D01*
X404221Y115471D02*
Y160091D01*
X402621Y160470D02*
X412601Y170450D01*
X402621Y116824D02*
Y160470D01*
X399421Y159250D02*
X412021Y171850D01*
X399421Y116551D02*
Y159250D01*
X397821Y159630D02*
X411941Y173750D01*
X397821Y118151D02*
Y159630D01*
X394148Y108351D02*
X402621Y116824D01*
X395501Y106751D02*
X404221Y115471D01*
X143227Y117619D02*
X143945Y116901D01*
X574016Y174375D02*
Y174720D01*
X205271Y108351D02*
X394148D01*
X204499Y106751D02*
X395501D01*
X202899Y108351D02*
X204499Y106751D01*
X531250Y209130D02*
Y213750D01*
X173125Y108351D02*
X202899D01*
X522255Y210000D02*
X525000D01*
X524665Y205915D02*
X528750Y210000D01*
X526250Y177500D02*
Y204130D01*
X524665Y179665D02*
Y205915D01*
X526250Y204130D02*
X531250Y209130D01*
X311700Y202950D02*
X320000Y211250D01*
X311700Y175450D02*
Y202950D01*
X310300Y176999D02*
Y204345D01*
X308900Y206832D02*
X313455Y211387D01*
X418750Y166250D02*
X420000D01*
X558900Y167650D02*
X571245Y179995D01*
X420000Y167650D02*
X558900Y167650D01*
X521486Y212736D02*
Y213750D01*
X516043Y203788D02*
X522255Y210000D01*
X516043Y179793D02*
Y203788D01*
X513858Y205108D02*
X521486Y212736D01*
X513858Y180108D02*
Y205108D01*
X571245Y179995D02*
X580615D01*
X565891Y166250D02*
X574016Y174375D01*
X420000Y166250D02*
X565891Y166250D01*
X202590Y167650D02*
X306400Y167650D01*
X196261Y171850D02*
X301850D01*
X195681Y173250D02*
X300750D01*
X307500Y180000D02*
Y210710D01*
X300750Y173250D02*
X307500Y180000D01*
X309850Y168600D02*
X360849D01*
X307500Y166250D02*
X309850Y168600D01*
X308750Y170000D02*
X357500D01*
X306400Y167650D02*
X308750Y170000D01*
X301850Y171850D02*
X308900Y178900D01*
X303751Y170450D02*
X310300Y176999D01*
X357500Y170000D02*
X368524Y181024D01*
X360849Y168600D02*
X366624Y174375D01*
X308900Y178900D02*
Y206832D01*
X307500Y210710D02*
X310085Y213295D01*
X368524Y181024D02*
X370915D01*
X157365Y108125D02*
Y111700D01*
X141750Y108250D02*
X147093D01*
X141674D02*
X141750D01*
X147093D02*
X148022Y109178D01*
Y114375D01*
X148948Y115301D01*
X149203D01*
X143227Y117438D02*
Y117619D01*
X143945Y116901D02*
X145000D01*
X95994Y118945D02*
X98750Y121701D01*
X149203Y115301D02*
X398171Y115301D01*
X399421Y116551D01*
X145000Y116901D02*
X396571Y116901D01*
X397821Y118151D01*
D17*
X60463Y128255D02*
X90755D01*
X47708Y115500D02*
X60463Y128255D01*
X90755D02*
X95000Y132500D01*
X40436Y115500D02*
X47708D01*
D119*
X51851Y267817D02*
X90933D01*
X565107Y267683D02*
X583671Y249119D01*
Y211201D02*
Y249119D01*
X579921Y207451D02*
X583671Y211201D01*
X367500Y238750D02*
X370000Y236250D01*
Y240625D02*
Y251837D01*
X368154Y253683D02*
X370000Y251837D01*
X363750Y202500D02*
Y247500D01*
X358067Y250683D02*
X362500Y246250D01*
Y208416D02*
Y246250D01*
X356567Y249683D02*
X361250Y245000D01*
Y211846D02*
Y245000D01*
X358317Y243750D02*
X360000Y242067D01*
Y213750D02*
Y242067D01*
X367500Y238750D02*
Y248163D01*
X362981Y252683D02*
X367500Y248163D01*
X565000Y241875D02*
Y243750D01*
X560750Y237625D02*
X565000Y241875D01*
X560750Y221498D02*
Y237625D01*
X561875Y229051D02*
X563471Y230647D01*
X561875Y221209D02*
Y229051D01*
X560375Y219709D02*
X561875Y221209D01*
X563471Y230647D02*
X566853D01*
X566875Y230625D01*
X581558Y242183D02*
Y248404D01*
X580000Y240625D02*
X581558Y242183D01*
X577738Y217269D02*
Y239283D01*
X553339Y263683D02*
X577738Y239283D01*
X576738Y215830D02*
Y238869D01*
X552925Y262683D02*
X576738Y238869D01*
X575738Y215416D02*
Y238455D01*
X552511Y261683D02*
X575738Y238455D01*
X577738Y217269D02*
X582104Y212904D01*
X576738Y215830D02*
X577183Y215386D01*
X575738Y215416D02*
X576183Y214971D01*
X558750Y222326D02*
Y243125D01*
X556250Y230271D02*
Y240000D01*
X540000Y183750D02*
X550250D01*
X535000Y178750D02*
X540000Y183750D01*
X550250D02*
X556250Y189750D01*
X542538Y182500D02*
X550414D01*
X538788Y178750D02*
X542538Y182500D01*
X542500Y178750D02*
X545141Y181391D01*
X115250Y149000D02*
X117500Y151250D01*
X108733Y149000D02*
X115250D01*
X576183Y213163D02*
Y214971D01*
X570205Y207185D02*
X576183Y213163D01*
X564242Y207185D02*
X570205D01*
X569303Y209371D02*
X574000Y214067D01*
X566250Y209371D02*
X569303D01*
X577183Y209683D02*
Y215386D01*
X572500Y205000D02*
X577183Y209683D01*
X572495Y202500D02*
X579812Y209817D01*
X580825D01*
X552096Y260683D02*
X574000Y238779D01*
X582104Y211096D02*
Y212904D01*
X580825Y209817D02*
X582104Y211096D01*
X574000Y214067D02*
Y238779D01*
X584671Y208172D02*
Y249533D01*
X585671Y207758D02*
Y249948D01*
X585317Y207404D02*
X585671Y207758D01*
X584317Y207818D02*
X584671Y208172D01*
X579921Y206500D02*
Y207451D01*
X564133Y207077D02*
Y208401D01*
X574143Y198778D02*
X581671Y191250D01*
X573596Y198778D02*
X574143D01*
X569874Y202500D02*
X573596Y198778D01*
X560375Y188218D02*
Y219709D01*
X553750Y181593D02*
X560375Y188218D01*
X553750Y178209D02*
Y181593D01*
X559375Y188633D02*
Y220123D01*
X551134Y180391D02*
X559375Y188633D01*
X547291Y180391D02*
X551134D01*
X550720Y181391D02*
X558375Y189047D01*
X545141Y181391D02*
X550720D01*
X558375Y189047D02*
Y220538D01*
X557375Y189461D02*
Y220952D01*
X550414Y182500D02*
X557375Y189461D01*
X556250Y189750D02*
Y214239D01*
X562192Y264683D02*
X579375Y247500D01*
X160939Y264683D02*
X562192D01*
X144353Y271683D02*
X566764D01*
X142671Y270000D02*
X144353Y271683D01*
X93750Y270000D02*
X142671D01*
X144767Y270683D02*
X566350D01*
X141585Y267500D02*
X144767Y270683D01*
X91250Y267500D02*
X141585D01*
X566350Y270683D02*
X586671Y250362D01*
X126250Y250751D02*
X145182Y269683D01*
X126250Y246250D02*
Y250751D01*
X145182Y269683D02*
X565936D01*
X152854Y267683D02*
X565107D01*
X136422Y251250D02*
X152854Y267683D01*
X564693Y266683D02*
X582558Y248818D01*
X153269Y266683D02*
X564693D01*
X135250Y248664D02*
X153269Y266683D01*
X564279Y265683D02*
X581558Y248404D01*
X153683Y265683D02*
X564279D01*
X136250Y248250D02*
X153683Y265683D01*
X143131Y246875D02*
X160939Y264683D01*
X161353Y263683D02*
X553339D01*
X141250Y243579D02*
X161353Y263683D01*
X161767Y262683D02*
X552925D01*
X143750Y244665D02*
X161767Y262683D01*
X162182Y261683D02*
X552511D01*
X145567Y245068D02*
X162182Y261683D01*
X162596Y260683D02*
X552096D01*
X146567Y244654D02*
X162596Y260683D01*
X372224Y259683D02*
X377817Y254089D01*
X172119Y259683D02*
X372224D01*
X156186Y243750D02*
X172119Y259683D01*
X371810Y258683D02*
X376817Y253675D01*
X172533Y258683D02*
X371810D01*
X153850Y240000D02*
X172533Y258683D01*
X371396Y257683D02*
X375817Y253261D01*
X172947Y257683D02*
X371396D01*
X155000Y239735D02*
X172947Y257683D01*
X370982Y256683D02*
X374817Y252847D01*
X173362Y256683D02*
X370982D01*
X156250Y239571D02*
X173362Y256683D01*
X370567Y255683D02*
X373750Y252500D01*
X173776Y255683D02*
X370567D01*
X157500Y239407D02*
X173776Y255683D01*
X369067Y254683D02*
X372500Y251250D01*
X174190Y254683D02*
X369067D01*
X158750Y239243D02*
X174190Y254683D01*
X174604Y253683D02*
X368154D01*
X160000Y239078D02*
X174604Y253683D01*
X175019Y252683D02*
X362981D01*
X161250Y238914D02*
X175019Y252683D01*
X359567Y251683D02*
X363750Y247500D01*
X175433Y251683D02*
X359567D01*
X171500Y247750D02*
X175433Y251683D01*
X176933Y250683D02*
X358067D01*
X172500Y246250D02*
X176933Y250683D01*
X178433Y249683D02*
X356567D01*
X173750Y245000D02*
X178433Y249683D01*
X565522Y268683D02*
X584671Y249533D01*
X565936Y269683D02*
X585671Y249948D01*
X566764Y271683D02*
X587671Y250776D01*
X145596Y268683D02*
X565522D01*
X128750Y248750D02*
Y251837D01*
X145596Y268683D01*
X131250Y251250D02*
X136422D01*
X136250Y243750D02*
Y248250D01*
X373750Y211250D02*
Y252500D01*
X372500Y210000D02*
X373750Y211250D01*
X370000Y210000D02*
X372500D01*
Y223750D02*
Y251250D01*
X371250Y222500D02*
X372500Y223750D01*
X370000Y222500D02*
X371250D01*
X587671Y233245D02*
Y250776D01*
X586671Y231104D02*
Y250362D01*
X172500Y162500D02*
Y246250D01*
X360792Y206708D02*
X362500Y208416D01*
X356889Y206708D02*
X360792D01*
X172500Y162500D02*
X173750Y161250D01*
X171500Y162086D02*
Y247750D01*
X362500Y201250D02*
X363750Y202500D01*
X357500Y201250D02*
X362500D01*
X355000Y203750D02*
X357500Y201250D01*
X171500Y162086D02*
X171567Y162019D01*
Y160346D02*
Y162019D01*
X135250Y247740D02*
Y248664D01*
X133760Y246250D02*
X135250Y247740D01*
X138749Y246875D02*
X143131D01*
X141250Y232500D02*
Y243579D01*
X143750Y221250D02*
Y244665D01*
X145567Y234932D02*
Y245068D01*
X146567Y235346D02*
Y244654D01*
X157500Y233087D02*
Y239407D01*
X158750Y233251D02*
Y239243D01*
X160000Y233415D02*
Y239078D01*
X161250Y233579D02*
Y238914D01*
X148750Y243750D02*
X156186D01*
X148750Y240000D02*
X153850D01*
X155000Y234501D02*
Y239735D01*
X156250Y234337D02*
Y239571D01*
X160000Y233415D02*
X160433Y232982D01*
X158750Y233251D02*
X159433Y232568D01*
X157500Y233087D02*
X158433Y232154D01*
X161250Y233579D02*
X161433Y233397D01*
Y208933D02*
Y233397D01*
X160433Y210433D02*
Y232982D01*
X159433Y211933D02*
Y232568D01*
X158433Y213433D02*
Y232154D01*
X153067Y232568D02*
X155000Y234501D01*
X153067Y216817D02*
Y232568D01*
X154067Y232154D02*
X156250Y234337D01*
X154067Y230346D02*
Y232154D01*
Y230346D02*
X156250Y228163D01*
Y213750D02*
Y228163D01*
X582558Y223838D02*
Y248818D01*
X581171Y222451D02*
X582558Y223838D01*
X587671Y233245D02*
X592458Y228458D01*
X586671Y231104D02*
X590275Y227500D01*
X584317Y205597D02*
Y207818D01*
X579921Y201201D02*
X584317Y205597D01*
X585317Y205596D02*
Y207404D01*
Y205596D02*
X586171Y204742D01*
Y194166D02*
Y204742D01*
Y194166D02*
X590183Y190154D01*
Y188096D02*
Y189904D01*
X588904Y186817D02*
X590183Y188096D01*
X587096Y186817D02*
X588904D01*
X585788Y188125D02*
X587096Y186817D01*
X589933Y190154D02*
X590183D01*
X589933D02*
X590183Y189904D01*
X581671Y191250D02*
X586000D01*
X579375Y188125D02*
X585788D01*
X569874Y202500D02*
X572495D01*
X563750D02*
X569874D01*
X564133Y210341D02*
Y211617D01*
X564067Y208467D02*
X564133Y208401D01*
X564067Y208467D02*
Y210275D01*
X564133Y210341D01*
X555193Y217355D02*
X556375Y216172D01*
Y214364D02*
Y216172D01*
X556250Y214239D02*
X556375Y214364D01*
X559375Y220123D02*
X560750Y221498D01*
X559750Y221912D02*
Y239750D01*
X558375Y220538D02*
X559750Y221912D01*
X557375Y220952D02*
X558750Y222326D01*
X559750Y239750D02*
X561250Y241250D01*
X553083Y227104D02*
X556250Y230271D01*
X551346Y227104D02*
X553083D01*
X550067Y225825D02*
X551346Y227104D01*
X550067Y222480D02*
Y225825D01*
Y222480D02*
X552798Y219750D01*
X552914D01*
X555193Y217355D02*
Y217472D01*
X552914Y219750D02*
X555193Y217472D01*
X512500Y218750D02*
X552500D01*
X592458Y224958D02*
Y228458D01*
X591250Y223750D02*
X592458Y224958D01*
X221250Y176250D02*
X222500Y175000D01*
X228500D01*
X90933Y267817D02*
X91250Y267500D01*
X51250Y268418D02*
X51851Y267817D01*
X273486Y243870D02*
X276798Y247183D01*
X298404D02*
X300587Y245000D01*
X301913D01*
X276798Y247183D02*
X298404D01*
X301913Y245000D02*
X303163Y243750D01*
X146567Y235346D02*
X148433Y233481D01*
Y216567D02*
Y233481D01*
Y216567D02*
X148750Y216250D01*
X145567Y234932D02*
X146250Y234249D01*
Y218750D02*
Y234249D01*
X377817Y250346D02*
Y254089D01*
X376817Y249932D02*
Y253675D01*
X375854Y194932D02*
Y249481D01*
X369671Y188750D02*
X375854Y194932D01*
X369375Y188750D02*
X369671D01*
X375817Y249517D02*
Y253261D01*
Y249517D02*
X375854Y249481D01*
X374817Y206067D02*
Y252847D01*
X370000Y201250D02*
X374817Y206067D01*
X376817Y249932D02*
X377500Y249249D01*
Y219655D02*
Y249249D01*
X377817Y250346D02*
X378750Y249413D01*
Y225625D02*
Y249413D01*
X483022Y232500D02*
X498750D01*
X512500Y218750D01*
X378750Y225625D02*
X379921Y224454D01*
Y221877D02*
Y224454D01*
X150000Y213750D02*
X153067Y216817D01*
X112500Y213750D02*
X150000D01*
X566250Y205000D02*
X572500D01*
X554193Y215268D02*
Y217057D01*
X552500Y218750D02*
X554193Y217057D01*
X579921Y222451D02*
X581171D01*
X271514Y243870D02*
X273486D01*
X270385Y245000D02*
X271514Y243870D01*
X176250Y245000D02*
X270385D01*
X545649Y178750D02*
X547291Y180391D01*
X303163Y243750D02*
X358317D01*
X175000D02*
X176250Y245000D01*
X160000Y207500D02*
X161433Y208933D01*
X158750Y208750D02*
X160433Y210433D01*
X157500Y210000D02*
X159433Y211933D01*
X156250Y211250D02*
X158433Y213433D01*
X228500Y175000D02*
X300000Y175000D01*
X306300Y181300D01*
X307500Y212407D02*
Y216250D01*
X306300Y211207D02*
X307500Y212407D01*
X306300Y181300D02*
Y211207D01*
X359077Y209673D02*
X361250Y211846D01*
X357617Y209673D02*
X359077D01*
X358750Y212500D02*
X360000Y213750D01*
X356250Y212500D02*
X358750D01*
X377500Y219655D02*
X378937Y218218D01*
X379272D01*
X118750Y237500D02*
X123750D01*
X172808Y134058D02*
Y159106D01*
X171250Y132500D02*
X172808Y134058D01*
X165000Y132500D02*
X171250D01*
X171567Y160346D02*
X172808Y159106D01*
X90881Y132500D02*
X95000D01*
X90000Y133381D02*
X90881Y132500D01*
X90000Y133381D02*
Y150000D01*
X80807Y132500D02*
X85000D01*
X80000Y133307D02*
X80807Y132500D01*
X80000Y133307D02*
Y151250D01*
X70979Y132500D02*
X75000D01*
X70000Y133479D02*
X70979Y132500D01*
X70000Y133479D02*
Y152500D01*
X60728Y132500D02*
X65000D01*
X60000Y133228D02*
X60728Y132500D01*
X60000Y133228D02*
Y153750D01*
X50965Y132500D02*
X55000D01*
X50000Y133466D02*
X50965Y132500D01*
X50000Y133466D02*
Y155000D01*
X175000Y168750D02*
X178750Y165000D01*
Y161250D02*
Y165000D01*
X175000Y168750D02*
Y243750D01*
X173750Y166250D02*
X176250Y163750D01*
X173750Y166250D02*
Y245000D01*
X70000Y152500D02*
X71250Y153750D01*
X112500D01*
X113750Y155000D01*
Y210000D01*
X115000Y211250D01*
X156250D01*
X80000Y151250D02*
X81250Y152500D01*
X113750D01*
X115000Y153750D01*
Y208750D01*
X116250Y210000D01*
X157500D01*
X117500Y236250D02*
X118750Y237500D01*
X117500Y216250D02*
Y236250D01*
X116250Y215000D02*
X117500Y216250D01*
X111250Y215000D02*
X116250D01*
X35000Y142500D02*
Y156250D01*
X36250Y157500D01*
X108750D01*
X110000Y158750D01*
Y213750D01*
X111250Y215000D01*
X90000Y150000D02*
X91250Y151250D01*
X115000D01*
X116250Y152500D01*
Y207500D01*
X117500Y208750D01*
X158750D01*
X60000Y153750D02*
X61250Y155000D01*
X111250D01*
X112500Y156250D01*
Y211250D01*
X113750Y212500D01*
X155000D01*
X156250Y213750D01*
X56250Y270000D02*
X93750D01*
X50000Y155000D02*
X51250Y156250D01*
X110000D01*
X111250Y157500D01*
Y212500D01*
X112500Y213750D01*
X118750Y207500D02*
X160000D01*
X117500Y206250D02*
X118750Y207500D01*
X117500Y151250D02*
Y206250D01*
D120*
X2400Y291150D02*
X5000Y293750D01*
X45000D01*
X2400Y83850D02*
Y291150D01*
X46250Y80625D02*
X48750Y78125D01*
X5625Y80625D02*
X46250D01*
X48750Y73750D02*
Y78125D01*
X2400Y83850D02*
X5625Y80625D01*
D121*
X473125Y105000D02*
X605000D01*
X455000Y86875D02*
X473125Y105000D01*
X476875Y102500D02*
X607500D01*
X462500Y88125D02*
X476875Y102500D01*
X481250Y100000D02*
X610000D01*
X470000Y88750D02*
X481250Y100000D01*
X486250Y97500D02*
X612500D01*
X477500Y88750D02*
X486250Y97500D01*
X491250Y95000D02*
X615000D01*
X485000Y88750D02*
X491250Y95000D01*
X237500Y186250D02*
Y191250D01*
Y186250D02*
X238750Y185000D01*
X257500D01*
X452500Y186250D02*
Y191250D01*
X453750Y185000D02*
X472500D01*
X452500Y186250D02*
X453750Y185000D01*
X203444Y282184D02*
Y299694D01*
X201516Y280256D02*
X203444Y282184D01*
X198769Y280256D02*
X201516D01*
X205000Y301250D02*
X586072D01*
X203444Y299694D02*
X205000Y301250D01*
X591250Y313750D02*
X620000Y285000D01*
Y272500D02*
Y285000D01*
X590214Y311250D02*
X617500Y283965D01*
Y272500D02*
Y283965D01*
X615000Y272500D02*
Y282929D01*
X612500Y272500D02*
Y281893D01*
X610000Y272500D02*
Y280858D01*
X586072Y301250D02*
X607500Y279822D01*
Y272500D02*
Y279822D01*
X589179Y308750D02*
X615000Y282929D01*
X587108Y303750D02*
X610000Y280858D01*
X588143Y306250D02*
X612500Y281893D01*
X276294Y311250D02*
X590214D01*
X193750Y303750D02*
X587108D01*
X216250Y306250D02*
X588143D01*
X192500Y305000D02*
X193750Y303750D01*
X260000Y312500D02*
X261433Y311067D01*
X276111D01*
X276294Y311250D01*
X238750Y308750D02*
X589179D01*
X237500Y310000D02*
X238750Y308750D01*
X215000Y307500D02*
X216250Y306250D01*
X283750Y313750D02*
X591250D01*
X282500Y315000D02*
X283750Y313750D01*
X282500Y315000D02*
Y317500D01*
X260000Y312500D02*
Y317500D01*
X237500Y317500D02*
X237500Y317500D01*
X237500Y310000D02*
Y317500D01*
X215000Y317500D02*
X215000Y317500D01*
X215000Y307500D02*
Y317500D01*
X192500Y305000D02*
Y317500D01*
X607500Y272500D02*
X607500Y107500D01*
X605000Y105000D02*
X607500Y107500D01*
X610000Y272500D02*
X610000Y105000D01*
X607500Y102500D02*
X610000Y105000D01*
X612500Y272500D02*
X612500Y102500D01*
X610000Y100000D02*
X612500Y102500D01*
X615000Y272500D02*
X615000Y100000D01*
X612500Y97500D02*
X615000Y100000D01*
X617500Y272500D02*
X617500Y97500D01*
X615000Y95000D02*
X617500Y97500D01*
X620000Y272500D02*
X620000Y95000D01*
X617500Y92500D02*
X620000Y95000D01*
X496250Y92500D02*
X617500D01*
X492500Y88750D02*
X496250Y92500D01*
D123*
X165000Y132500D02*
D03*
X85000D02*
D03*
X95000D02*
D03*
X75000D02*
D03*
X65000D02*
D03*
X55000D02*
D03*
X35000Y142500D02*
D03*
X48750Y73750D02*
D03*
D125*
X316875Y212500D02*
D03*
X401250Y78750D02*
D03*
X400625Y86221D02*
D03*
X288125Y85000D02*
D03*
X370000Y236250D02*
D03*
Y240625D02*
D03*
X565000Y243750D02*
D03*
X566875Y230625D02*
D03*
X580000Y240625D02*
D03*
X558750Y243125D02*
D03*
X556250Y240000D02*
D03*
X538788Y178750D02*
D03*
X542500D02*
D03*
X213125Y69375D02*
D03*
X211250Y66250D02*
D03*
X289375Y78125D02*
D03*
X326875Y65625D02*
D03*
X330000Y63125D02*
D03*
X108733Y149000D02*
D03*
X40436Y115500D02*
D03*
X574000Y214067D02*
D03*
X579921Y206500D02*
D03*
X586000Y191250D02*
D03*
X564133Y211617D02*
D03*
X591250Y223750D02*
D03*
X237500Y191250D02*
D03*
X198750Y166250D02*
D03*
X200670Y158750D02*
D03*
X221250Y176250D02*
D03*
X416250Y163750D02*
D03*
X407500Y158750D02*
D03*
X51250Y268418D02*
D03*
X148750Y240000D02*
D03*
Y243750D02*
D03*
X483022Y232500D02*
D03*
X452500Y191250D02*
D03*
X561250Y241250D02*
D03*
X564242Y207185D02*
D03*
X566250Y209371D02*
D03*
Y205000D02*
D03*
X563750Y202500D02*
D03*
X562500Y177470D02*
D03*
X574016Y174720D02*
D03*
X553750Y178209D02*
D03*
X554193Y215268D02*
D03*
X355000Y203750D02*
D03*
X579921Y222451D02*
D03*
X531250Y213750D02*
D03*
Y180000D02*
D03*
X525000Y210000D02*
D03*
X528750D02*
D03*
X545649Y178750D02*
D03*
X535000D02*
D03*
X313455Y211387D02*
D03*
X472500Y185000D02*
D03*
X521486Y213750D02*
D03*
X307500Y216250D02*
D03*
X320000Y211250D02*
D03*
X310085Y213295D02*
D03*
X257500Y185000D02*
D03*
X356889Y206708D02*
D03*
X357617Y209673D02*
D03*
X356250Y212500D02*
D03*
X579375Y247500D02*
D03*
X282500Y317500D02*
D03*
X260000Y317500D02*
D03*
X237500Y317500D02*
D03*
X215000Y317500D02*
D03*
X192500Y317500D02*
D03*
X198769Y280256D02*
D03*
X131250Y251250D02*
D03*
X580615Y179995D02*
D03*
X579375Y188125D02*
D03*
X590275Y227500D02*
D03*
X366624Y174375D02*
D03*
X370915Y181024D02*
D03*
X379272Y218218D02*
D03*
X369375Y188750D02*
D03*
X379921Y221877D02*
D03*
X128750Y248750D02*
D03*
X126250Y246250D02*
D03*
X123750Y237500D02*
D03*
X173125Y108351D02*
D03*
X157365Y108125D02*
D03*
X141750Y108250D02*
D03*
X143227Y117438D02*
D03*
X72244Y119951D02*
D03*
X77756Y120000D02*
D03*
X101506Y118945D02*
D03*
X95994D02*
D03*
X133760Y246250D02*
D03*
X136250Y243750D02*
D03*
X138749Y246875D02*
D03*
X141250Y232500D02*
D03*
X178750Y161250D02*
D03*
X176250Y163750D02*
D03*
X173750Y161250D02*
D03*
X148750Y216250D02*
D03*
X146250Y218750D02*
D03*
X143750Y221250D02*
D03*
X370000Y210000D02*
D03*
Y222500D02*
D03*
X579921Y201201D02*
D03*
X370000Y201250D02*
D03*
X91250Y267500D02*
D03*
X93750Y270000D02*
D03*
X56250D02*
D03*
D126*
X45000Y293750D02*
D03*
X462500Y88125D02*
D03*
X455000Y86875D02*
D03*
X470000Y88750D02*
D03*
X477500D02*
D03*
X485000D02*
D03*
X492500D02*
D03*
M02*
