G04*
G04 #@! TF.GenerationSoftware,Altium Limited,Altium Designer,21.4.1 (30)*
G04*
G04 Layer_Color=255*
%FSLAX25Y25*%
%MOIN*%
G70*
G04*
G04 #@! TF.SameCoordinates,3F7B9525-E0B4-4A28-A4E6-3C1D8492A5F8*
G04*
G04*
G04 #@! TF.FilePolarity,Positive*
G04*
G01*
G75*
%ADD118C,0.03937*%
%ADD122C,0.06000*%
%ADD123C,0.06890*%
%ADD124C,0.27559*%
D118*
X234866Y9843D02*
D03*
X300567D02*
D03*
X459248Y9843D02*
D03*
X572248D02*
D03*
X196850Y9843D02*
D03*
X137795D02*
D03*
X347071D02*
D03*
X412772D02*
D03*
X167323D02*
D03*
X108268D02*
D03*
X78740D02*
D03*
X49213D02*
D03*
D122*
X309016Y26842D02*
D03*
X297217D02*
D03*
X285417D02*
D03*
X250016D02*
D03*
X261815D02*
D03*
X226417D02*
D03*
X309016Y38642D02*
D03*
X297217D02*
D03*
X285417D02*
D03*
X250016D02*
D03*
X261815D02*
D03*
X226417D02*
D03*
X273618Y26842D02*
D03*
X238216D02*
D03*
X273618Y38642D02*
D03*
X238216D02*
D03*
X568847Y26843D02*
D03*
X462650D02*
D03*
X568847Y38642D02*
D03*
X462650D02*
D03*
X580697Y26843D02*
D03*
X557047D02*
D03*
X545248D02*
D03*
X533449D02*
D03*
X498047D02*
D03*
X509846D02*
D03*
X474449D02*
D03*
X450799D02*
D03*
X580697Y38642D02*
D03*
X557047D02*
D03*
X545248D02*
D03*
X533449D02*
D03*
X498047D02*
D03*
X509846D02*
D03*
X474449D02*
D03*
X450799D02*
D03*
X521650Y26843D02*
D03*
X486248D02*
D03*
X521650Y38642D02*
D03*
X486248D02*
D03*
X196850Y26842D02*
D03*
Y38642D02*
D03*
X137795Y26842D02*
D03*
Y38642D02*
D03*
X421220Y26842D02*
D03*
X409421D02*
D03*
X397622D02*
D03*
X362221D02*
D03*
X374020D02*
D03*
X338622D02*
D03*
X421220Y38642D02*
D03*
X409421D02*
D03*
X397622D02*
D03*
X362221D02*
D03*
X374020D02*
D03*
X338622D02*
D03*
X385823Y26842D02*
D03*
X350421D02*
D03*
X385823Y38642D02*
D03*
X350421D02*
D03*
X167323Y26842D02*
D03*
Y38642D02*
D03*
X108268Y26842D02*
D03*
Y38642D02*
D03*
X78740Y26842D02*
D03*
Y38642D02*
D03*
X49213Y26842D02*
D03*
Y38642D02*
D03*
D123*
X45000Y202500D02*
D03*
Y192500D02*
D03*
X55000D02*
D03*
Y202500D02*
D03*
X65000D02*
D03*
Y192500D02*
D03*
X95000D02*
D03*
Y202500D02*
D03*
X85000Y192500D02*
D03*
Y202500D02*
D03*
X75000D02*
D03*
Y192500D02*
D03*
X35000D02*
D03*
Y202500D02*
D03*
X104999D02*
D03*
Y192500D02*
D03*
X25000Y202500D02*
D03*
Y192500D02*
D03*
X45000Y172500D02*
D03*
Y162500D02*
D03*
X55000D02*
D03*
Y172500D02*
D03*
X65000D02*
D03*
Y162500D02*
D03*
X95000D02*
D03*
Y172500D02*
D03*
X85000Y162500D02*
D03*
Y172500D02*
D03*
X75000D02*
D03*
Y162500D02*
D03*
X35000D02*
D03*
Y172500D02*
D03*
X104999D02*
D03*
Y162500D02*
D03*
X25000Y172500D02*
D03*
Y162500D02*
D03*
X125000Y192500D02*
D03*
Y202500D02*
D03*
X135000D02*
D03*
Y192500D02*
D03*
X165000D02*
D03*
Y202500D02*
D03*
X155000Y192500D02*
D03*
Y202500D02*
D03*
X145000D02*
D03*
Y192500D02*
D03*
X135000Y142500D02*
D03*
Y132500D02*
D03*
X165000D02*
D03*
Y142500D02*
D03*
X155000Y132500D02*
D03*
Y142500D02*
D03*
X145000D02*
D03*
Y132500D02*
D03*
Y162500D02*
D03*
Y172500D02*
D03*
X155000D02*
D03*
Y162500D02*
D03*
X165000Y172500D02*
D03*
Y162500D02*
D03*
X135000D02*
D03*
Y172500D02*
D03*
X125000D02*
D03*
Y162500D02*
D03*
X45000Y142500D02*
D03*
Y132500D02*
D03*
X85000D02*
D03*
Y142500D02*
D03*
X95000D02*
D03*
Y132500D02*
D03*
X105000Y142500D02*
D03*
Y132500D02*
D03*
X75000D02*
D03*
Y142500D02*
D03*
X65000D02*
D03*
Y132500D02*
D03*
X55000D02*
D03*
Y142500D02*
D03*
X35000Y132500D02*
D03*
Y142500D02*
D03*
X115000Y132500D02*
D03*
Y142500D02*
D03*
X25000D02*
D03*
Y132500D02*
D03*
X48750Y63750D02*
D03*
Y73750D02*
D03*
X38750D02*
D03*
Y63750D02*
D03*
X153750Y296250D02*
D03*
X163750D02*
D03*
D124*
X610236Y19685D02*
D03*
X19685D02*
D03*
X610236Y374016D02*
D03*
X19685D02*
D03*
M02*
