G04*
G04 #@! TF.GenerationSoftware,Altium Limited,Altium Designer,21.4.1 (30)*
G04*
G04 Layer_Color=16711935*
%FSLAX25Y25*%
%MOIN*%
G70*
G04*
G04 #@! TF.SameCoordinates,3F7B9525-E0B4-4A28-A4E6-3C1D8492A5F8*
G04*
G04*
G04 #@! TF.FilePolarity,Positive*
G04*
G01*
G75*
%ADD12C,0.00394*%
%ADD130C,0.00500*%
%ADD131R,0.03336X0.24803*%
%ADD132R,0.10984X0.02383*%
D12*
X477884Y244262D02*
G03*
X477884Y244262I-1969J0D01*
G01*
X452884D02*
G03*
X452884Y244262I-1969J0D01*
G01*
X267884D02*
G03*
X267884Y244262I-1969J0D01*
G01*
X427884D02*
G03*
X427884Y244262I-1969J0D01*
G01*
X402884D02*
G03*
X402884Y244262I-1969J0D01*
G01*
X242884D02*
G03*
X242884Y244262I-1969J0D01*
G01*
X167884D02*
G03*
X167884Y244262I-1969J0D01*
G01*
X312077Y212392D02*
G03*
X312077Y212392I-1969J0D01*
G01*
X42283Y219754D02*
G03*
X42283Y219754I-1969J0D01*
G01*
X192884Y244262D02*
G03*
X192884Y244262I-1969J0D01*
G01*
X217884D02*
G03*
X217884Y244262I-1969J0D01*
G01*
X205384D02*
G03*
X205384Y244262I-1969J0D01*
G01*
X180384D02*
G03*
X180384Y244262I-1969J0D01*
G01*
X277908Y81004D02*
G03*
X277908Y81004I-1969J0D01*
G01*
X82284Y249754D02*
G03*
X82284Y249754I-1969J0D01*
G01*
X465384Y244262D02*
G03*
X465384Y244262I-1969J0D01*
G01*
X440384D02*
G03*
X440384Y244262I-1969J0D01*
G01*
X255384D02*
G03*
X255384Y244262I-1969J0D01*
G01*
X599321Y194759D02*
G03*
X599321Y194759I-1969J0D01*
G01*
X415384Y244262D02*
G03*
X415384Y244262I-1969J0D01*
G01*
X390384D02*
G03*
X390384Y244262I-1969J0D01*
G01*
X230384D02*
G03*
X230384Y244262I-1969J0D01*
G01*
X522077Y212392D02*
G03*
X522077Y212392I-1969J0D01*
G01*
X155384Y244262D02*
G03*
X155384Y244262I-1969J0D01*
G01*
X82284Y219754D02*
G03*
X82284Y219754I-1969J0D01*
G01*
X390408Y81004D02*
G03*
X390408Y81004I-1969J0D01*
G01*
X390492Y195787D02*
G03*
X390492Y195787I-1969J0D01*
G01*
X42283Y249754D02*
G03*
X42283Y249754I-1969J0D01*
G01*
X101218Y318250D02*
G03*
X101218Y318250I-1969J0D01*
G01*
X61587Y339858D02*
G03*
X61587Y339858I-1969J0D01*
G01*
X201309Y171515D02*
G03*
X201309Y171515I-1575J0D01*
G01*
X416309Y172765D02*
G03*
X416309Y172765I-1575J0D01*
G01*
X224153Y208996D02*
G03*
X224153Y208996I-1969J0D01*
G01*
X439153D02*
G03*
X439153Y208996I-1969J0D01*
G01*
X224159Y65379D02*
G03*
X224159Y65379I-1969J0D01*
G01*
X339784Y62254D02*
G03*
X339784Y62254I-1969J0D01*
G01*
X48706Y296521D02*
Y302229D01*
X40044Y296521D02*
Y302229D01*
Y296521D02*
X48706D01*
X40044Y302229D02*
X48706D01*
X28745Y306117D02*
X50005D01*
X28745Y330133D02*
X50005D01*
X28745Y306117D02*
Y330133D01*
X50005Y306117D02*
Y330133D01*
X151117Y304995D02*
Y326255D01*
X175133Y304995D02*
Y326255D01*
X151117D02*
X175133D01*
X151117Y304995D02*
X175133D01*
X151117Y328120D02*
Y349380D01*
X175133Y328120D02*
Y349380D01*
X151117D02*
X175133D01*
X151117Y328120D02*
X175133D01*
X291353Y52903D02*
Y59597D01*
X294897Y52903D02*
Y59597D01*
X291353Y52903D02*
X294897D01*
X291353Y59597D02*
X294897D01*
X285103Y52903D02*
Y59597D01*
X288647Y52903D02*
Y59597D01*
X285103Y52903D02*
X288647D01*
X285103Y59597D02*
X288647D01*
X278853Y52903D02*
Y59597D01*
X282397Y52903D02*
Y59597D01*
X278853Y52903D02*
X282397D01*
X278853Y59597D02*
X282397D01*
X272603Y52903D02*
Y59597D01*
X276147Y52903D02*
Y59597D01*
X272603Y52903D02*
X276147D01*
X272603Y59597D02*
X276147D01*
X266353Y52903D02*
Y59597D01*
X269897Y52903D02*
Y59597D01*
X266353Y52903D02*
X269897D01*
X266353Y59597D02*
X269897D01*
X260103Y52903D02*
Y59597D01*
X263647Y52903D02*
Y59597D01*
X260103Y52903D02*
X263647D01*
X260103Y59597D02*
X263647D01*
X253853Y52903D02*
Y59597D01*
X257397Y52903D02*
Y59597D01*
X253853Y52903D02*
X257397D01*
X253853Y59597D02*
X257397D01*
X247603Y52903D02*
Y59597D01*
X251147Y52903D02*
Y59597D01*
X247603Y52903D02*
X251147D01*
X247603Y59597D02*
X251147D01*
X247603Y63529D02*
Y70222D01*
X251147Y63529D02*
Y70222D01*
X247603Y63529D02*
X251147D01*
X247603Y70222D02*
X251147D01*
X253853Y63529D02*
Y70222D01*
X257397Y63529D02*
Y70222D01*
X253853Y63529D02*
X257397D01*
X253853Y70222D02*
X257397D01*
X260103Y63529D02*
Y70222D01*
X263647Y63529D02*
Y70222D01*
X260103Y63529D02*
X263647D01*
X260103Y70222D02*
X263647D01*
X266353Y63529D02*
Y70222D01*
X269897Y63529D02*
Y70222D01*
X266353Y63529D02*
X269897D01*
X266353Y70222D02*
X269897D01*
X272603Y63529D02*
Y70222D01*
X276147Y63529D02*
Y70222D01*
X272603Y63529D02*
X276147D01*
X272603Y70222D02*
X276147D01*
X278853Y63529D02*
Y70222D01*
X282397Y63529D02*
Y70222D01*
X278853Y63529D02*
X282397D01*
X278853Y70222D02*
X282397D01*
X285103Y63529D02*
Y70222D01*
X288647Y63529D02*
Y70222D01*
X285103Y63529D02*
X288647D01*
X285103Y70222D02*
X288647D01*
X291353Y63529D02*
Y70222D01*
X294897Y63529D02*
Y70222D01*
X291353Y63529D02*
X294897D01*
X291353Y70222D02*
X294897D01*
X403853Y52903D02*
Y59597D01*
X407397Y52903D02*
Y59597D01*
X403853Y52903D02*
X407397D01*
X403853Y59597D02*
X407397D01*
X397603Y52903D02*
Y59597D01*
X401147Y52903D02*
Y59597D01*
X397603Y52903D02*
X401147D01*
X397603Y59597D02*
X401147D01*
X391353Y52903D02*
Y59597D01*
X394897Y52903D02*
Y59597D01*
X391353Y52903D02*
X394897D01*
X391353Y59597D02*
X394897D01*
X385103Y52903D02*
Y59597D01*
X388647Y52903D02*
Y59597D01*
X385103Y52903D02*
X388647D01*
X385103Y59597D02*
X388647D01*
X378853Y52903D02*
Y59597D01*
X382397Y52903D02*
Y59597D01*
X378853Y52903D02*
X382397D01*
X378853Y59597D02*
X382397D01*
X372603Y52903D02*
Y59597D01*
X376147Y52903D02*
Y59597D01*
X372603Y52903D02*
X376147D01*
X372603Y59597D02*
X376147D01*
X366353Y52903D02*
Y59597D01*
X369897Y52903D02*
Y59597D01*
X366353Y52903D02*
X369897D01*
X366353Y59597D02*
X369897D01*
X360103Y52903D02*
Y59597D01*
X363647Y52903D02*
Y59597D01*
X360103Y52903D02*
X363647D01*
X360103Y59597D02*
X363647D01*
X360103Y63529D02*
Y70222D01*
X363647Y63529D02*
Y70222D01*
X360103Y63529D02*
X363647D01*
X360103Y70222D02*
X363647D01*
X366353Y63529D02*
Y70222D01*
X369897Y63529D02*
Y70222D01*
X366353Y63529D02*
X369897D01*
X366353Y70222D02*
X369897D01*
X372603Y63529D02*
Y70222D01*
X376147Y63529D02*
Y70222D01*
X372603Y63529D02*
X376147D01*
X372603Y70222D02*
X376147D01*
X378853Y63529D02*
Y70222D01*
X382397Y63529D02*
Y70222D01*
X378853Y63529D02*
X382397D01*
X378853Y70222D02*
X382397D01*
X385103Y63529D02*
Y70222D01*
X388647Y63529D02*
Y70222D01*
X385103Y63529D02*
X388647D01*
X385103Y70222D02*
X388647D01*
X391353Y63529D02*
Y70222D01*
X394897Y63529D02*
Y70222D01*
X391353Y63529D02*
X394897D01*
X391353Y70222D02*
X394897D01*
X397603Y63529D02*
Y70222D01*
X401147Y63529D02*
Y70222D01*
X397603Y63529D02*
X401147D01*
X397603Y70222D02*
X401147D01*
X403853Y63529D02*
Y70222D01*
X407397Y63529D02*
Y70222D01*
X403853Y63529D02*
X407397D01*
X403853Y70222D02*
X407397D01*
X488248Y52254D02*
Y65246D01*
X481752Y52254D02*
Y65246D01*
X488248D01*
X481752Y52254D02*
X488248D01*
X473248D02*
Y65246D01*
X466752Y52254D02*
Y65246D01*
X473248D01*
X466752Y52254D02*
X473248D01*
X563248D02*
Y65246D01*
X556752Y52254D02*
Y65246D01*
X563248D01*
X556752Y52254D02*
X563248D01*
X548248D02*
Y65246D01*
X541752Y52254D02*
Y65246D01*
X548248D01*
X541752Y52254D02*
X548248D01*
X533248D02*
Y65246D01*
X526752Y52254D02*
Y65246D01*
X533248D01*
X526752Y52254D02*
X533248D01*
X518248D02*
Y65246D01*
X511752Y52254D02*
Y65246D01*
X518248D01*
X511752Y52254D02*
X518248D01*
X503248D02*
Y65246D01*
X496752Y52254D02*
Y65246D01*
X503248D01*
X496752Y52254D02*
X503248D01*
X458248D02*
Y65246D01*
X451752Y52254D02*
Y65246D01*
X458248D01*
X451752Y52254D02*
X458248D01*
X448208Y56299D02*
Y81103D01*
X436634Y56299D02*
Y81103D01*
X448208D01*
X436634Y56299D02*
X448208D01*
X541978Y280847D02*
X545522D01*
X541978Y274153D02*
X545522D01*
Y280847D01*
X541978Y274153D02*
Y280847D01*
X564835D02*
X568378D01*
X564835Y274153D02*
X568378D01*
Y280847D01*
X564835Y274153D02*
Y280847D01*
X451978D02*
X455522D01*
X451978Y274153D02*
X455522D01*
Y280847D01*
X451978Y274153D02*
Y280847D01*
X429478D02*
X433022D01*
X429478Y274153D02*
X433022D01*
Y280847D01*
X429478Y274153D02*
Y280847D01*
X420271Y77544D02*
Y86206D01*
X425979Y77544D02*
Y86206D01*
X420271Y77544D02*
X425979D01*
X420271Y86206D02*
X425979D01*
X417712Y70459D02*
Y74002D01*
X411019Y70459D02*
Y74002D01*
Y70459D02*
X417712D01*
X411019Y74002D02*
X417712D01*
X577097Y216103D02*
Y219647D01*
X570403Y216103D02*
Y219647D01*
Y216103D02*
X577097D01*
X570403Y219647D02*
X577097D01*
X518228Y238528D02*
X521772D01*
X518228Y245221D02*
X521772D01*
X518228Y238528D02*
Y245221D01*
X521772Y238528D02*
Y245221D01*
X468041Y229695D02*
Y247805D01*
X479459Y229695D02*
Y247805D01*
X468041Y229695D02*
X479459D01*
X468041Y247805D02*
X479459D01*
X443041Y229695D02*
Y247805D01*
X454459Y229695D02*
Y247805D01*
X443041Y229695D02*
X454459D01*
X443041Y247805D02*
X454459D01*
X258041Y229695D02*
Y247805D01*
X269459Y229695D02*
Y247805D01*
X258041Y229695D02*
X269459D01*
X258041Y247805D02*
X269459D01*
X406978Y280847D02*
X410522D01*
X406978Y274153D02*
X410522D01*
Y280847D01*
X406978Y274153D02*
Y280847D01*
X384478D02*
X388022D01*
X384478Y274153D02*
X388022D01*
Y280847D01*
X384478Y274153D02*
Y280847D01*
X577097Y220728D02*
Y224272D01*
X570403Y220728D02*
Y224272D01*
Y220728D02*
X577097D01*
X570403Y224272D02*
X577097D01*
Y176978D02*
Y180522D01*
X570403Y176978D02*
Y180522D01*
Y176978D02*
X577097D01*
X570403Y180522D02*
X577097D01*
X418041Y229695D02*
Y247805D01*
X429459Y229695D02*
Y247805D01*
X418041Y229695D02*
X429459D01*
X418041Y247805D02*
X429459D01*
X577097Y238853D02*
Y242397D01*
X570403Y238853D02*
Y242397D01*
Y238853D02*
X577097D01*
X570403Y242397D02*
X577097D01*
Y189478D02*
Y193022D01*
X570403Y189478D02*
Y193022D01*
Y189478D02*
X577097D01*
X570403Y193022D02*
X577097D01*
Y195103D02*
Y198647D01*
X570403Y195103D02*
Y198647D01*
Y195103D02*
X577097D01*
X570403Y198647D02*
X577097D01*
X513543Y228307D02*
Y241693D01*
X506457Y228307D02*
Y241693D01*
X513543D01*
X506457Y228307D02*
X513543D01*
X481250Y235403D02*
X484793D01*
X481250Y242096D02*
X484793D01*
X481250Y235403D02*
Y242096D01*
X484793Y235403D02*
Y242096D01*
X393041Y229695D02*
Y247805D01*
X404459Y229695D02*
Y247805D01*
X393041Y229695D02*
X404459D01*
X393041Y247805D02*
X404459D01*
X319778Y249478D02*
Y253022D01*
X326471Y249478D02*
Y253022D01*
X319778D02*
X326471D01*
X319778Y249478D02*
X326471D01*
X233041Y229695D02*
Y247805D01*
X244459Y229695D02*
Y247805D01*
X233041Y229695D02*
X244459D01*
X233041Y247805D02*
X244459D01*
X565649Y114104D02*
X569193D01*
X565649Y120798D02*
X569193D01*
X565649Y114104D02*
Y120798D01*
X569193Y114104D02*
Y120798D01*
X366548Y45711D02*
Y49255D01*
X359855Y45711D02*
Y49255D01*
Y45711D02*
X366548D01*
X359855Y49255D02*
X366548D01*
X585649Y114104D02*
X589193D01*
X585649Y120798D02*
X589193D01*
X585649Y114104D02*
Y120798D01*
X589193Y114104D02*
Y120798D01*
X542396Y228169D02*
Y236831D01*
X548104Y228169D02*
Y236831D01*
X542396Y228169D02*
X548104D01*
X542396Y236831D02*
X548104D01*
X271978Y280847D02*
X275522D01*
X271978Y274153D02*
X275522D01*
Y280847D01*
X271978Y274153D02*
Y280847D01*
X249478D02*
X253022D01*
X249478Y274153D02*
X253022D01*
Y280847D01*
X249478Y274153D02*
Y280847D01*
X515649Y114104D02*
X519193D01*
X515649Y120798D02*
X519193D01*
X515649Y114104D02*
Y120798D01*
X519193Y114104D02*
Y120798D01*
X495649Y114104D02*
X499193D01*
X495649Y120798D02*
X499193D01*
X495649Y114104D02*
Y120798D01*
X499193Y114104D02*
Y120798D01*
X316978Y35403D02*
X320522D01*
X316978Y42096D02*
X320522D01*
X316978Y35403D02*
Y42096D01*
X320522Y35403D02*
Y42096D01*
X584074Y163179D02*
Y166723D01*
X590767Y163179D02*
Y166723D01*
X584074D02*
X590767D01*
X584074Y163179D02*
X590767D01*
X592904Y171353D02*
X599597D01*
X592904Y174897D02*
X599597D01*
Y171353D02*
Y174897D01*
X592904Y171353D02*
Y174897D01*
X590649Y133298D02*
X594193D01*
X590649Y126604D02*
X594193D01*
Y133298D01*
X590649Y126604D02*
Y133298D01*
X564075Y163179D02*
Y166723D01*
X570767Y163179D02*
Y166723D01*
X564075D02*
X570767D01*
X564075Y163179D02*
X570767D01*
X544074D02*
Y166723D01*
X550768Y163179D02*
Y166723D01*
X544074D02*
X550768D01*
X544074Y163179D02*
X550768D01*
X481250Y222210D02*
X484793D01*
X481250Y228903D02*
X484793D01*
X481250Y222210D02*
Y228903D01*
X484793Y222210D02*
Y228903D01*
X367096Y215103D02*
Y218647D01*
X360403Y215103D02*
Y218647D01*
Y215103D02*
X367096D01*
X360403Y218647D02*
X367096D01*
X326978Y228101D02*
X330522D01*
X326978Y234793D02*
X330522D01*
X326978Y228101D02*
Y234793D01*
X330522Y228101D02*
Y234793D01*
X367096Y227603D02*
Y231147D01*
X360403Y227603D02*
Y231147D01*
Y227603D02*
X367096D01*
X360403Y231147D02*
X367096D01*
X158041Y229695D02*
Y247805D01*
X169459Y229695D02*
Y247805D01*
X158041Y229695D02*
X169459D01*
X158041Y247805D02*
X169459D01*
X226978Y280847D02*
X230522D01*
X226978Y274153D02*
X230522D01*
Y280847D01*
X226978Y274153D02*
Y280847D01*
X204478D02*
X208022D01*
X204478Y274153D02*
X208022D01*
Y280847D01*
X204478Y274153D02*
Y280847D01*
X592126Y143101D02*
X602716D01*
Y136801D02*
Y143101D01*
X592126Y136801D02*
Y143101D01*
Y136801D02*
X602716D01*
X475649Y114104D02*
X479193D01*
X475649Y120798D02*
X479193D01*
X475649Y114104D02*
Y120798D01*
X479193Y114104D02*
Y120798D01*
X455728Y114154D02*
X459272D01*
X455728Y120846D02*
X459272D01*
X455728Y114154D02*
Y120846D01*
X459272Y114154D02*
Y120846D01*
X360393Y86657D02*
X363937D01*
X360393Y93349D02*
X363937D01*
X360393Y86657D02*
Y93349D01*
X363937Y86657D02*
Y93349D01*
X347893Y86657D02*
X351437D01*
X347893Y93349D02*
X351437D01*
X347893Y86657D02*
Y93349D01*
X351437Y86657D02*
Y93349D01*
X301109Y45610D02*
Y49154D01*
X294416Y45610D02*
Y49154D01*
Y45610D02*
X301109D01*
X294416Y49154D02*
X301109D01*
X524075Y163179D02*
Y166723D01*
X530767Y163179D02*
Y166723D01*
X524075D02*
X530767D01*
X524075Y163179D02*
X530767D01*
X484074D02*
Y166723D01*
X490767Y163179D02*
Y166723D01*
X484074D02*
X490767D01*
X484074Y163179D02*
X490767D01*
X504074D02*
Y166723D01*
X510768Y163179D02*
Y166723D01*
X504074D02*
X510768D01*
X504074Y163179D02*
X510768D01*
X477904Y183228D02*
Y186772D01*
X484596Y183228D02*
Y186772D01*
X477904D02*
X484596D01*
X477904Y183228D02*
X484596D01*
X473347Y189478D02*
Y193022D01*
X466653Y189478D02*
Y193022D01*
Y189478D02*
X473347D01*
X466653Y193022D02*
X473347D01*
X301043Y228307D02*
Y241693D01*
X293957Y228307D02*
Y241693D01*
X301043D01*
X293957Y228307D02*
X301043D01*
X333396Y228169D02*
Y236831D01*
X339104Y228169D02*
Y236831D01*
X333396Y228169D02*
X339104D01*
X333396Y236831D02*
X339104D01*
X367018Y177775D02*
Y181319D01*
X360325Y177775D02*
Y181319D01*
Y177775D02*
X367018D01*
X360325Y181319D02*
X367018D01*
X532126Y143101D02*
X542716D01*
Y136801D02*
Y143101D01*
X532126Y136801D02*
Y143101D01*
Y136801D02*
X542716D01*
X460728Y133346D02*
X464272D01*
X460728Y126654D02*
X464272D01*
Y133346D01*
X460728Y126654D02*
Y133346D01*
X305212Y70103D02*
Y73647D01*
X298519Y70103D02*
Y73647D01*
Y70103D02*
X305212D01*
X298519Y73647D02*
X305212D01*
X335393Y86657D02*
X338937D01*
X335393Y93349D02*
X338937D01*
X335393Y86657D02*
Y93349D01*
X338937Y86657D02*
Y93349D01*
X322893Y86657D02*
X326437D01*
X322893Y93349D02*
X326437D01*
X322893Y86657D02*
Y93349D01*
X326437Y86657D02*
Y93349D01*
X277487Y45610D02*
Y49154D01*
X270794Y45610D02*
Y49154D01*
Y45610D02*
X277487D01*
X270794Y49154D02*
X277487D01*
X512126Y143101D02*
X522716D01*
Y136801D02*
Y143101D01*
X512126Y136801D02*
Y143101D01*
Y136801D02*
X522716D01*
X440728Y133346D02*
X444272D01*
X440728Y126654D02*
X444272D01*
Y133346D01*
X440728Y126654D02*
Y133346D01*
X501604Y183169D02*
Y191831D01*
X495896Y183169D02*
Y191831D01*
X501604D01*
X495896Y183169D02*
X501604D01*
X459478Y210846D02*
X463022D01*
X459478Y204153D02*
X463022D01*
Y210846D01*
X459478Y204153D02*
Y210846D01*
X469598Y195098D02*
Y219902D01*
X494402Y195098D02*
Y219902D01*
X469598D02*
X494402D01*
X469598Y195098D02*
X494402D01*
X429153Y185728D02*
Y189272D01*
X435847Y185728D02*
Y189272D01*
X429153D02*
X435847D01*
X429153Y185728D02*
X435847D01*
X380994Y208217D02*
X384538D01*
X380994Y214910D02*
X384538D01*
X380994Y208217D02*
Y214910D01*
X384538Y208217D02*
Y214910D01*
X23883Y209225D02*
X32544D01*
X23883Y214933D02*
X32544D01*
Y209225D02*
Y214933D01*
X23883Y209225D02*
Y214933D01*
X492126Y143101D02*
X502716D01*
Y136801D02*
Y143101D01*
X492126Y136801D02*
Y143101D01*
Y136801D02*
X502716D01*
X420728Y133346D02*
X424272D01*
X420728Y126654D02*
X424272D01*
Y133346D01*
X420728Y126654D02*
Y133346D01*
X365649Y114104D02*
X369193D01*
X365649Y120798D02*
X369193D01*
X365649Y114104D02*
Y120798D01*
X369193Y114104D02*
Y120798D01*
X360403Y233228D02*
Y236772D01*
X367096Y233228D02*
Y236772D01*
X360403D02*
X367096D01*
X360403Y233228D02*
X367096D01*
X253864Y45610D02*
Y49154D01*
X247171Y45610D02*
Y49154D01*
Y45610D02*
X253864D01*
X247171Y49154D02*
X253864D01*
X230242Y45610D02*
Y49154D01*
X223549Y45610D02*
Y49154D01*
Y45610D02*
X230242D01*
X223549Y49154D02*
X230242D01*
X462126Y153150D02*
X472716D01*
Y146850D02*
Y153150D01*
X462126Y146850D02*
Y153150D01*
Y146850D02*
X472716D01*
X404360Y199301D02*
Y218199D01*
X418140Y199301D02*
Y218199D01*
X404360Y199301D02*
X418140D01*
X404360Y218199D02*
X418140D01*
X100590Y235597D02*
X109252D01*
X100590Y241305D02*
X109252D01*
Y235597D02*
Y241305D01*
X100590Y235597D02*
Y241305D01*
X97904Y258228D02*
Y261772D01*
X104596Y258228D02*
Y261772D01*
X97904D02*
X104596D01*
X97904Y258228D02*
X104596D01*
X306565Y176565D02*
X345935D01*
X306565Y215935D02*
X345935D01*
Y176565D02*
Y215935D01*
X306565Y176565D02*
Y215935D01*
X97825Y229429D02*
Y232973D01*
X104517Y229429D02*
Y232973D01*
X97825D02*
X104517D01*
X97825Y229429D02*
X104517D01*
X345649Y114104D02*
X349193D01*
X345649Y120798D02*
X349193D01*
X345649Y114104D02*
Y120798D01*
X349193Y114104D02*
Y120798D01*
X370649Y133298D02*
X374193D01*
X370649Y126604D02*
X374193D01*
Y133298D01*
X370649Y126604D02*
Y133298D01*
X325649Y114104D02*
X329193D01*
X325649Y120798D02*
X329193D01*
X325649Y114104D02*
Y120798D01*
X329193Y114104D02*
Y120798D01*
X442205Y153150D02*
X452795D01*
Y146850D02*
Y153150D01*
X442205Y146850D02*
Y153150D01*
Y146850D02*
X452795D01*
X387825Y165728D02*
Y169272D01*
X394517Y165728D02*
Y169272D01*
X387825D02*
X394517D01*
X387825Y165728D02*
X394517D01*
X422205Y153150D02*
X432795D01*
Y146850D02*
Y153150D01*
X422205Y146850D02*
Y153150D01*
Y146850D02*
X432795D01*
X43858Y216211D02*
Y236289D01*
X26142Y216211D02*
Y236289D01*
Y216211D02*
X43858D01*
X26142Y236289D02*
X43858D01*
X350649Y133298D02*
X354193D01*
X350649Y126604D02*
X354193D01*
Y133298D01*
X350649Y126604D02*
Y133298D01*
X120354Y215669D02*
Y224331D01*
X114646Y215669D02*
Y224331D01*
X120354D01*
X114646Y215669D02*
X120354D01*
X279104Y183169D02*
Y191831D01*
X273396Y183169D02*
Y191831D01*
X279104D01*
X273396Y183169D02*
X279104D01*
X273258Y226142D02*
Y243858D01*
X284242Y226142D02*
Y243858D01*
X273258Y226142D02*
X284242D01*
X273258Y243858D02*
X284242D01*
X312126Y153101D02*
X322716D01*
Y146801D02*
Y153101D01*
X312126Y146801D02*
Y153101D01*
Y146801D02*
X322716D01*
X292126Y153101D02*
X302716D01*
Y146801D02*
Y153101D01*
X292126Y146801D02*
Y153101D01*
Y146801D02*
X302716D01*
X272126Y153101D02*
X282716D01*
Y146801D02*
Y153101D01*
X272126Y146801D02*
Y153101D01*
Y146801D02*
X282716D01*
X249354Y190919D02*
Y199581D01*
X243646Y190919D02*
Y199581D01*
X249354D01*
X243646Y190919D02*
X249354D01*
X114478Y194153D02*
X118022D01*
X114478Y200847D02*
X118022D01*
X114478Y194153D02*
Y200847D01*
X118022Y194153D02*
Y200847D01*
X31063Y207224D02*
X98937D01*
X31063Y187776D02*
X98937D01*
X20000Y188563D02*
X20787Y187776D01*
X20000Y206437D02*
X20787Y207224D01*
X20000Y188563D02*
Y206437D01*
X110000Y188563D02*
Y206437D01*
X109213Y207224D02*
X110000Y206437D01*
X109213Y187776D02*
X110000Y188563D01*
X98937Y207224D02*
X109213D01*
X98937Y187776D02*
X109213D01*
X20787D02*
X31063D01*
X20787Y207224D02*
X31063D01*
X214154Y185728D02*
Y189272D01*
X220847Y185728D02*
Y189272D01*
X214154D02*
X220847D01*
X214154Y185728D02*
X220847D01*
X258347Y189478D02*
Y193022D01*
X251654Y189478D02*
Y193022D01*
Y189478D02*
X258347D01*
X251654Y193022D02*
X258347D01*
X31063Y177224D02*
X98937D01*
X31063Y157776D02*
X98937D01*
X20000Y158563D02*
X20787Y157776D01*
X20000Y176437D02*
X20787Y177224D01*
X20000Y158563D02*
Y176437D01*
X110000Y158563D02*
Y176437D01*
X109213Y177224D02*
X110000Y176437D01*
X109213Y157776D02*
X110000Y158563D01*
X98937Y177224D02*
X109213D01*
X98937Y157776D02*
X109213D01*
X20787D02*
X31063D01*
X20787Y177224D02*
X31063D01*
X214154Y163228D02*
Y166772D01*
X220847Y163228D02*
Y166772D01*
X214154D02*
X220847D01*
X214154Y163228D02*
X220847D01*
X205207Y202057D02*
Y215443D01*
X212293Y202057D02*
Y215443D01*
X205207Y202057D02*
X212293D01*
X205207Y215443D02*
X212293D01*
X260728Y133346D02*
X264272D01*
X260728Y126654D02*
X264272D01*
Y133346D01*
X260728Y126654D02*
Y133346D01*
X240728D02*
X244272D01*
X240728Y126654D02*
X244272D01*
Y133346D01*
X240728Y126654D02*
Y133346D01*
X220728D02*
X224272D01*
X220728Y126654D02*
X224272D01*
Y133346D01*
X220728Y126654D02*
Y133346D01*
X252205Y153150D02*
X262795D01*
Y146850D02*
Y153150D01*
X252205Y146850D02*
Y153150D01*
Y146850D02*
X262795D01*
X212205Y153150D02*
X222795D01*
Y146850D02*
Y153150D01*
X212205Y146850D02*
Y153150D01*
Y146850D02*
X222795D01*
X232205Y153150D02*
X242795D01*
Y146850D02*
Y153150D01*
X232205Y146850D02*
Y153150D01*
Y146850D02*
X242795D01*
X97904Y149478D02*
Y153022D01*
X104596Y149478D02*
Y153022D01*
X97904D02*
X104596D01*
X97904Y149478D02*
X104596D01*
X121063Y207224D02*
X168937D01*
X121063Y187776D02*
X168937D01*
X120276Y188563D02*
X121063Y187776D01*
X120276Y206437D02*
X121063Y207224D01*
X120276Y188563D02*
Y206437D01*
X169724Y188563D02*
Y206437D01*
X168937Y207224D02*
X169724Y206437D01*
X168937Y187776D02*
X169724Y188563D01*
X183041Y229695D02*
Y247805D01*
X194459Y229695D02*
Y247805D01*
X183041Y229695D02*
X194459D01*
X183041Y247805D02*
X194459D01*
X208041Y229695D02*
Y247805D01*
X219459Y229695D02*
Y247805D01*
X208041Y229695D02*
X219459D01*
X208041Y247805D02*
X219459D01*
X134153Y113228D02*
Y116772D01*
X140847Y113228D02*
Y116772D01*
X134153D02*
X140847D01*
X134153Y113228D02*
X140847D01*
X60228Y118154D02*
X63772D01*
X60228Y124846D02*
X63772D01*
X60228Y118154D02*
Y124846D01*
X63772Y118154D02*
Y124846D01*
X54728Y118154D02*
X58272D01*
X54728Y124846D02*
X58272D01*
X54728Y118154D02*
Y124846D01*
X58272Y118154D02*
Y124846D01*
X593248Y52254D02*
Y65246D01*
X586752Y52254D02*
Y65246D01*
X593248D01*
X586752Y52254D02*
X593248D01*
X578248D02*
Y65246D01*
X571752Y52254D02*
Y65246D01*
X578248D01*
X571752Y52254D02*
X578248D01*
X530728Y270590D02*
X534272D01*
X530728Y263898D02*
X534272D01*
Y270590D01*
X530728Y263898D02*
Y270590D01*
X496978Y280847D02*
X500522D01*
X496978Y274153D02*
X500522D01*
Y280847D01*
X496978Y274153D02*
Y280847D01*
X474478D02*
X478022D01*
X474478Y274153D02*
X478022D01*
Y280847D01*
X474478Y274153D02*
Y280847D01*
X430103Y35403D02*
X433647D01*
X430103Y42096D02*
X433647D01*
X430103Y35403D02*
Y42096D01*
X433647Y35403D02*
Y42096D01*
X515906Y277244D02*
Y282756D01*
X504095Y277244D02*
Y282756D01*
X515906D01*
X504095Y277244D02*
X515906D01*
X577097Y208228D02*
Y211772D01*
X570403Y208228D02*
Y211772D01*
Y208228D02*
X577097D01*
X570403Y211772D02*
X577097D01*
X531220Y249479D02*
Y253022D01*
X537913Y249479D02*
Y253022D01*
X531220D02*
X537913D01*
X531220Y249479D02*
X537913D01*
X541653Y249478D02*
X548347D01*
X541653Y253022D02*
X548347D01*
Y249478D02*
Y253022D01*
X541653Y249478D02*
Y253022D01*
X487008Y226142D02*
Y243858D01*
X497992Y226142D02*
Y243858D01*
X487008Y226142D02*
X497992D01*
X487008Y243858D02*
X497992D01*
X538454Y277244D02*
Y282756D01*
X526644Y277244D02*
Y282756D01*
X538454D01*
X526644Y277244D02*
X538454D01*
X575728Y270590D02*
X579272D01*
X575728Y263898D02*
X579272D01*
Y270590D01*
X575728Y263898D02*
Y270590D01*
X590103Y207278D02*
X593647D01*
X590103Y213971D02*
X593647D01*
X590103Y207278D02*
Y213971D01*
X593647Y207278D02*
Y213971D01*
X577097Y202603D02*
Y206147D01*
X570403Y202603D02*
Y206147D01*
Y202603D02*
X577097D01*
X570403Y206147D02*
X577097D01*
X388917Y270591D02*
X392460D01*
X388917Y263898D02*
X392460D01*
Y270591D01*
X388917Y263898D02*
Y270591D01*
X350728D02*
X354272D01*
X350728Y263898D02*
X354272D01*
Y270591D01*
X350728Y263898D02*
Y270591D01*
X380906Y277244D02*
Y282756D01*
X369094Y277244D02*
Y282756D01*
X380906D01*
X369094Y277244D02*
X380906D01*
X413792Y45711D02*
Y49255D01*
X407099Y45711D02*
Y49255D01*
Y45711D02*
X413792D01*
X407099Y49255D02*
X413792D01*
X424478Y264547D02*
X428022D01*
X424478Y257855D02*
X428022D01*
Y264547D01*
X424478Y257855D02*
Y264547D01*
X404478D02*
X408022D01*
X404478Y257855D02*
X408022D01*
Y264547D01*
X404478Y257855D02*
Y264547D01*
X358405Y277244D02*
Y282756D01*
X346595Y277244D02*
Y282756D01*
X358405D01*
X346595Y277244D02*
X358405D01*
X335906D02*
Y282756D01*
X324095Y277244D02*
Y282756D01*
X335906D01*
X324095Y277244D02*
X335906D01*
X390170Y45711D02*
Y49255D01*
X383477Y45711D02*
Y49255D01*
Y45711D02*
X390170D01*
X383477Y49255D02*
X390170D01*
X330403Y249478D02*
X337097D01*
X330403Y253022D02*
X337097D01*
Y249478D02*
Y253022D01*
X330403Y249478D02*
Y253022D01*
X294478Y280847D02*
X298022D01*
X294478Y274153D02*
X298022D01*
Y280847D01*
X294478Y274153D02*
Y280847D01*
X378794Y106604D02*
X387456D01*
X378794Y100896D02*
X387456D01*
X378794D02*
Y106604D01*
X387456Y100896D02*
Y106604D01*
X342926Y45711D02*
Y49255D01*
X336233Y45711D02*
Y49255D01*
Y45711D02*
X342926D01*
X336233Y49255D02*
X342926D01*
X597278Y165603D02*
Y169147D01*
X603971Y165603D02*
Y169147D01*
X597278D02*
X603971D01*
X597278Y165603D02*
X603971D01*
X545649Y114104D02*
X549193D01*
X545649Y120798D02*
X549193D01*
X545649Y114104D02*
Y120798D01*
X549193Y114104D02*
Y120798D01*
X531677Y234990D02*
X535220D01*
X531677Y228297D02*
X535220D01*
Y234990D01*
X531677Y228297D02*
Y234990D01*
X518228Y227904D02*
X521772D01*
X518228Y234596D02*
X521772D01*
X518228Y227904D02*
Y234596D01*
X521772Y227904D02*
Y234596D01*
X214478Y264597D02*
X218022D01*
X214478Y257904D02*
X218022D01*
Y264597D01*
X214478Y257904D02*
Y264597D01*
X329596Y53228D02*
Y56772D01*
X322903Y53228D02*
Y56772D01*
Y53228D02*
X329596D01*
X322903Y56772D02*
X329596D01*
X580649Y133298D02*
X584193D01*
X580649Y126604D02*
X584193D01*
Y133298D01*
X580649Y126604D02*
Y133298D01*
X560649D02*
X564193D01*
X560649Y126604D02*
X564193D01*
Y133298D01*
X560649Y126604D02*
Y133298D01*
X534154Y156978D02*
Y160522D01*
X540846Y156978D02*
Y160522D01*
X534154D02*
X540846D01*
X534154Y156978D02*
X540846D01*
X287441Y230866D02*
Y239134D01*
X292559Y230866D02*
Y239134D01*
X287441Y230866D02*
X292559D01*
X287441Y239134D02*
X292559D01*
X306978Y238528D02*
X310522D01*
X306978Y245221D02*
X310522D01*
X306978Y238528D02*
Y245221D01*
X310522Y238528D02*
Y245221D01*
X314478Y228101D02*
X318022D01*
X314478Y234793D02*
X318022D01*
X314478Y228101D02*
Y234793D01*
X318022Y228101D02*
Y234793D01*
X367096Y220728D02*
Y224272D01*
X360403Y220728D02*
Y224272D01*
Y220728D02*
X367096D01*
X360403Y224272D02*
X367096D01*
X195541Y229695D02*
Y247805D01*
X206959Y229695D02*
Y247805D01*
X195541Y229695D02*
X206959D01*
X195541Y247805D02*
X206959D01*
X189478Y264597D02*
X193022D01*
X189478Y257904D02*
X193022D01*
Y264597D01*
X189478Y257904D02*
Y264597D01*
X200904Y277244D02*
Y282756D01*
X189093Y277244D02*
Y282756D01*
X200904D01*
X189093Y277244D02*
X200904D01*
X540649Y133298D02*
X544193D01*
X540649Y126604D02*
X544193D01*
Y133298D01*
X540649Y126604D02*
Y133298D01*
X520649D02*
X524193D01*
X520649Y126604D02*
X524193D01*
Y133298D01*
X520649Y126604D02*
Y133298D01*
X435728Y114154D02*
X439272D01*
X435728Y120846D02*
X439272D01*
X435728Y114154D02*
Y120846D01*
X439272Y114154D02*
Y120846D01*
X409778Y95103D02*
Y98647D01*
X416471Y95103D02*
Y98647D01*
X409778D02*
X416471D01*
X409778Y95103D02*
X416471D01*
X572126Y143101D02*
X582716D01*
Y136801D02*
Y143101D01*
X572126Y136801D02*
Y143101D01*
Y136801D02*
X582716D01*
X500649Y133298D02*
X504193D01*
X500649Y126604D02*
X504193D01*
Y133298D01*
X500649Y126604D02*
Y133298D01*
X493854Y183169D02*
Y191831D01*
X488146Y183169D02*
Y191831D01*
X493854D01*
X488146Y183169D02*
X493854D01*
X498441Y196866D02*
Y205134D01*
X503559Y196866D02*
Y205134D01*
X498441Y196866D02*
X503559D01*
X498441Y205134D02*
X503559D01*
X170541Y229695D02*
Y247805D01*
X181959Y229695D02*
Y247805D01*
X170541Y229695D02*
X181959D01*
X170541Y247805D02*
X181959D01*
X164478Y264597D02*
X168022D01*
X164478Y257904D02*
X168022D01*
Y264597D01*
X164478Y257904D02*
Y264597D01*
X106801Y298110D02*
Y311890D01*
X125699Y298110D02*
Y311890D01*
X106801D02*
X125699D01*
X106801Y298110D02*
X125699D01*
X552126Y143101D02*
X562716D01*
Y136801D02*
Y143101D01*
X552126Y136801D02*
Y143101D01*
Y136801D02*
X562716D01*
X480728Y133346D02*
X484272D01*
X480728Y126654D02*
X484272D01*
Y133346D01*
X480728Y126654D02*
Y133346D01*
X415728Y114154D02*
X419272D01*
X415728Y120846D02*
X419272D01*
X415728Y114154D02*
Y120846D01*
X419272Y114154D02*
Y120846D01*
X316643Y86657D02*
X320187D01*
X316643Y93349D02*
X320187D01*
X316643Y86657D02*
Y93349D01*
X320187Y86657D02*
Y93349D01*
X444153Y163228D02*
Y166772D01*
X450846Y163228D02*
Y166772D01*
X444153D02*
X450846D01*
X444153Y163228D02*
X450846D01*
X464153D02*
Y166772D01*
X470847Y163228D02*
Y166772D01*
X464153D02*
X470847D01*
X464153Y163228D02*
X470847D01*
X484596Y189478D02*
Y193022D01*
X477904Y189478D02*
Y193022D01*
Y189478D02*
X484596D01*
X477904Y193022D02*
X484596D01*
X464104Y191169D02*
Y199831D01*
X458396Y191169D02*
Y199831D01*
X464104D01*
X458396Y191169D02*
X464104D01*
X367096Y195728D02*
Y199272D01*
X360403Y195728D02*
Y199272D01*
Y195728D02*
X367096D01*
X360403Y199272D02*
X367096D01*
X419957Y202057D02*
Y215443D01*
X427043Y202057D02*
Y215443D01*
X419957Y202057D02*
X427043D01*
X419957Y215443D02*
X427043D01*
X424154Y163228D02*
Y166772D01*
X430847Y163228D02*
Y166772D01*
X424154D02*
X430847D01*
X424154Y163228D02*
X430847D01*
X395404Y196978D02*
Y200522D01*
X402097Y196978D02*
Y200522D01*
X395404D02*
X402097D01*
X395404Y196978D02*
X402097D01*
X367096Y190103D02*
Y193647D01*
X360403Y190103D02*
Y193647D01*
Y190103D02*
X367096D01*
X360403Y193647D02*
X367096D01*
X375649Y114104D02*
X379193D01*
X375649Y120798D02*
X379193D01*
X375649Y114104D02*
Y120798D01*
X379193Y114104D02*
Y120798D01*
X279483Y77461D02*
Y97539D01*
X261767Y77461D02*
Y97539D01*
Y77461D02*
X279483D01*
X261767Y97539D02*
X279483D01*
X203760Y86555D02*
X207303D01*
X203760Y93248D02*
X207303D01*
X203760Y86555D02*
Y93248D01*
X207303Y86555D02*
Y93248D01*
X265676Y45610D02*
Y49154D01*
X258983Y45610D02*
Y49154D01*
Y45610D02*
X265676D01*
X258983Y49154D02*
X265676D01*
X216260Y86555D02*
X219803D01*
X216260Y93248D02*
X219803D01*
X216260Y86555D02*
Y93248D01*
X219803Y86555D02*
Y93248D01*
X409478Y194597D02*
X413022D01*
X409478Y187903D02*
X413022D01*
Y194597D01*
X409478Y187903D02*
Y194597D01*
X384488Y172037D02*
Y175581D01*
X391181Y172037D02*
Y175581D01*
X384488D02*
X391181D01*
X384488Y172037D02*
X391181D01*
X420728Y192903D02*
X424272D01*
X420728Y199597D02*
X424272D01*
X420728Y192903D02*
Y199597D01*
X424272Y192903D02*
Y199597D01*
X384154Y156978D02*
Y160522D01*
X390846Y156978D02*
Y160522D01*
X384154D02*
X390846D01*
X384154Y156978D02*
X390846D01*
X59175Y219263D02*
Y227925D01*
X53467Y219263D02*
Y227925D01*
X59175D01*
X53467Y219263D02*
X59175D01*
X115728Y251132D02*
X119272D01*
X115728Y244439D02*
X119272D01*
Y251132D01*
X115728Y244439D02*
Y251132D01*
X241260Y86555D02*
X244803D01*
X241260Y93248D02*
X244803D01*
X241260Y86555D02*
Y93248D01*
X244803Y86555D02*
Y93248D01*
X228760Y86555D02*
X232303D01*
X228760Y93248D02*
X232303D01*
X228760Y86555D02*
Y93248D01*
X232303Y86555D02*
Y93248D01*
X364154Y156978D02*
Y160522D01*
X370847Y156978D02*
Y160522D01*
X364154D02*
X370847D01*
X364154Y156978D02*
X370847D01*
X344153D02*
Y160522D01*
X350847Y156978D02*
Y160522D01*
X344153D02*
X350847D01*
X344153Y156978D02*
X350847D01*
X324153D02*
Y160522D01*
X330847Y156978D02*
Y160522D01*
X324153D02*
X330847D01*
X324153Y156978D02*
X330847D01*
X83858Y246211D02*
Y266289D01*
X66142Y246211D02*
Y266289D01*
Y246211D02*
X83858D01*
X66142Y266289D02*
X83858D01*
X340649Y133298D02*
X344193D01*
X340649Y126604D02*
X344193D01*
Y133298D01*
X340649Y126604D02*
Y133298D01*
X305649Y114104D02*
X309193D01*
X305649Y120798D02*
X309193D01*
X305649Y114104D02*
Y120798D01*
X309193Y114104D02*
Y120798D01*
X320649Y133298D02*
X324193D01*
X320649Y126604D02*
X324193D01*
Y133298D01*
X320649Y126604D02*
Y133298D01*
X285649Y114104D02*
X289193D01*
X285649Y120798D02*
X289193D01*
X285649Y114104D02*
Y120798D01*
X289193Y114104D02*
Y120798D01*
X265649Y114104D02*
X269193D01*
X265649Y120798D02*
X269193D01*
X265649Y114104D02*
Y120798D01*
X269193Y114104D02*
Y120798D01*
X255728Y114154D02*
X259272D01*
X255728Y120846D02*
X259272D01*
X255728Y114154D02*
Y120846D01*
X259272Y114154D02*
Y120846D01*
X235728Y114154D02*
X239272D01*
X235728Y120846D02*
X239272D01*
X235728Y114154D02*
Y120846D01*
X239272Y114154D02*
Y120846D01*
X215728Y114154D02*
X219272D01*
X215728Y120846D02*
X219272D01*
X215728Y114154D02*
Y120846D01*
X219272Y114154D02*
Y120846D01*
X372126Y153101D02*
X382716D01*
Y146801D02*
Y153101D01*
X372126Y146801D02*
Y153101D01*
Y146801D02*
X382716D01*
X332126Y153101D02*
X342716D01*
Y146801D02*
Y153101D01*
X332126Y146801D02*
Y153101D01*
Y146801D02*
X342716D01*
X352126Y153101D02*
X362716D01*
Y146801D02*
Y153101D01*
X352126Y146801D02*
Y153101D01*
Y146801D02*
X362716D01*
X304153Y156978D02*
Y160522D01*
X310846Y156978D02*
Y160522D01*
X304153D02*
X310846D01*
X304153Y156978D02*
X310846D01*
X284154D02*
Y160522D01*
X290846Y156978D02*
Y160522D01*
X284154D02*
X290846D01*
X284154Y156978D02*
X290846D01*
X300649Y133298D02*
X304193D01*
X300649Y126604D02*
X304193D01*
Y133298D01*
X300649Y126604D02*
Y133298D01*
X280649D02*
X284193D01*
X280649Y126604D02*
X284193D01*
Y133298D01*
X280649Y126604D02*
Y133298D01*
X264154Y156978D02*
Y160522D01*
X270847Y156978D02*
Y160522D01*
X264154D02*
X270847D01*
X264154Y156978D02*
X270847D01*
X244153D02*
Y160522D01*
X250847Y156978D02*
Y160522D01*
X244153D02*
X250847D01*
X244153Y156978D02*
X250847D01*
X254598Y195098D02*
Y219902D01*
X279402Y195098D02*
Y219902D01*
X254598D02*
X279402D01*
X254598Y195098D02*
X279402D01*
X224153Y156978D02*
Y160522D01*
X230847Y156978D02*
Y160522D01*
X224153D02*
X230847D01*
X224153Y156978D02*
X230847D01*
X189872Y193701D02*
X193415D01*
X189872Y187008D02*
X193415D01*
Y193701D01*
X189872Y187008D02*
Y193701D01*
X131063Y147224D02*
X168937D01*
X131063Y127776D02*
X168937D01*
X130276Y128563D02*
X131063Y127776D01*
X130276Y146437D02*
X131063Y147224D01*
X130276Y128563D02*
Y146437D01*
X169724Y128563D02*
Y146437D01*
X168937Y147224D02*
X169724Y146437D01*
X168937Y127776D02*
X169724Y128563D01*
X200246Y139488D02*
X207254D01*
Y150512D01*
X200246D02*
X207254D01*
X200246Y139488D02*
Y150512D01*
X144478Y120846D02*
X148022D01*
X144478Y114154D02*
X148022D01*
Y120846D01*
X144478Y114154D02*
Y120846D01*
X121978Y134597D02*
X125522D01*
X121978Y127903D02*
X125522D01*
Y134597D01*
X121978Y127903D02*
Y134597D01*
X33228Y118154D02*
X36772D01*
X33228Y124846D02*
X36772D01*
X33228Y118154D02*
Y124846D01*
X36772Y118154D02*
Y124846D01*
X27728Y118154D02*
X31272D01*
X27728Y124846D02*
X31272D01*
X27728Y118154D02*
Y124846D01*
X31272Y118154D02*
Y124846D01*
X88228Y120846D02*
X91772D01*
X88228Y114154D02*
X91772D01*
Y120846D01*
X88228Y114154D02*
Y120846D01*
X21496Y81988D02*
X28504D01*
Y93012D01*
X21496D02*
X28504D01*
X21496Y81988D02*
Y93012D01*
X608287Y56348D02*
Y81152D01*
X596713Y56348D02*
Y81152D01*
X608287D01*
X596713Y56348D02*
X608287D01*
X570748Y72254D02*
Y85246D01*
X564252Y72254D02*
Y85246D01*
X570748D01*
X564252Y72254D02*
X570748D01*
X555748D02*
Y85246D01*
X549252Y72254D02*
Y85246D01*
X555748D01*
X549252Y72254D02*
X555748D01*
X540748D02*
Y85246D01*
X534252Y72254D02*
Y85246D01*
X540748D01*
X534252Y72254D02*
X540748D01*
X525748D02*
Y85246D01*
X519252Y72254D02*
Y85246D01*
X525748D01*
X519252Y72254D02*
X525748D01*
X510748D02*
Y85246D01*
X504252Y72254D02*
Y85246D01*
X510748D01*
X504252Y72254D02*
X510748D01*
X495748D02*
Y85246D01*
X489252Y72254D02*
Y85246D01*
X495748D01*
X489252Y72254D02*
X495748D01*
X480748D02*
Y85246D01*
X474252Y72254D02*
Y85246D01*
X480748D01*
X474252Y72254D02*
X480748D01*
X465748D02*
Y85246D01*
X459252Y72254D02*
Y85246D01*
X465748D01*
X459252Y72254D02*
X465748D01*
X470905Y277244D02*
Y282756D01*
X459094Y277244D02*
Y282756D01*
X470905D01*
X459094Y277244D02*
X470905D01*
X455541Y229695D02*
Y247805D01*
X466959Y229695D02*
Y247805D01*
X455541Y229695D02*
X466959D01*
X455541Y247805D02*
X466959D01*
X448406Y277244D02*
Y282756D01*
X436594Y277244D02*
Y282756D01*
X448406D01*
X436594Y277244D02*
X448406D01*
X425827D02*
Y282756D01*
X414015Y277244D02*
Y282756D01*
X425827D01*
X414015Y277244D02*
X425827D01*
X425602Y45711D02*
Y49255D01*
X418910Y45711D02*
Y49255D01*
Y45711D02*
X425602D01*
X418910Y49255D02*
X425602D01*
X560906Y277244D02*
Y282756D01*
X549094Y277244D02*
Y282756D01*
X560906D01*
X549094Y277244D02*
X560906D01*
X583405D02*
Y282756D01*
X571594Y277244D02*
Y282756D01*
X583405D01*
X571594Y277244D02*
X583405D01*
X581978Y207278D02*
X585522D01*
X581978Y213971D02*
X585522D01*
X581978Y207278D02*
Y213971D01*
X585522Y207278D02*
Y213971D01*
X403464Y277244D02*
Y282756D01*
X391653Y277244D02*
Y282756D01*
X403464D01*
X391653Y277244D02*
X403464D01*
X577097Y182933D02*
Y186477D01*
X570403Y182933D02*
Y186477D01*
Y182933D02*
X577097D01*
X570403Y186477D02*
X577097D01*
X430541Y229695D02*
Y247805D01*
X441959Y229695D02*
Y247805D01*
X430541Y229695D02*
X441959D01*
X430541Y247805D02*
X441959D01*
X328228Y270591D02*
X331772D01*
X328228Y263898D02*
X331772D01*
Y270591D01*
X328228Y263898D02*
Y270591D01*
X245541Y229695D02*
Y247805D01*
X256959Y229695D02*
Y247805D01*
X245541Y229695D02*
X256959D01*
X245541Y247805D02*
X256959D01*
X556712Y228169D02*
Y236831D01*
X562420Y228169D02*
Y236831D01*
X556712Y228169D02*
X562420D01*
X556712Y236831D02*
X562420D01*
X577097Y227603D02*
Y231147D01*
X570403Y227603D02*
Y231147D01*
Y227603D02*
X577097D01*
X570403Y231147D02*
X577097D01*
X549396Y228169D02*
Y236831D01*
X555104Y228169D02*
Y236831D01*
X549396Y228169D02*
X555104D01*
X549396Y236831D02*
X555104D01*
X581604Y198302D02*
X600896D01*
X581604Y182948D02*
X600896D01*
Y198302D01*
X581604Y182948D02*
Y198302D01*
X525728Y228297D02*
X529272D01*
X525728Y234990D02*
X529272D01*
X525728Y228297D02*
Y234990D01*
X529272Y228297D02*
Y234990D01*
X405541Y229695D02*
Y247805D01*
X416959Y229695D02*
Y247805D01*
X405541Y229695D02*
X416959D01*
X405541Y247805D02*
X416959D01*
X380541Y229695D02*
Y247805D01*
X391959Y229695D02*
Y247805D01*
X380541Y229695D02*
X391959D01*
X380541Y247805D02*
X391959D01*
X220541Y229695D02*
Y247805D01*
X231959Y229695D02*
Y247805D01*
X220541Y229695D02*
X231959D01*
X220541Y247805D02*
X231959D01*
X290905Y277244D02*
Y282756D01*
X279095Y277244D02*
Y282756D01*
X290905D01*
X279095Y277244D02*
X290905D01*
X555649Y114104D02*
X559193D01*
X555649Y120798D02*
X559193D01*
X555649Y114104D02*
Y120798D01*
X559193Y114104D02*
Y120798D01*
X378359Y45711D02*
Y49255D01*
X371666Y45711D02*
Y49255D01*
Y45711D02*
X378359D01*
X371666Y49255D02*
X378359D01*
X575649Y114104D02*
X579193D01*
X575649Y120798D02*
X579193D01*
X575649Y114104D02*
Y120798D01*
X579193Y114104D02*
Y120798D01*
X516565Y176565D02*
X555935D01*
X516565Y215935D02*
X555935D01*
Y176565D02*
Y215935D01*
X516565Y176565D02*
Y215935D01*
X268406Y277244D02*
Y282756D01*
X256594Y277244D02*
Y282756D01*
X268406D01*
X256594Y277244D02*
X268406D01*
X245905D02*
Y282756D01*
X234095Y277244D02*
Y282756D01*
X245905D01*
X234095Y277244D02*
X245905D01*
X525649Y114104D02*
X529193D01*
X525649Y120798D02*
X529193D01*
X525649Y114104D02*
Y120798D01*
X529193Y114104D02*
Y120798D01*
X505649Y114104D02*
X509193D01*
X505649Y120798D02*
X509193D01*
X505649Y114104D02*
Y120798D01*
X509193Y114104D02*
Y120798D01*
X312920Y45610D02*
Y49154D01*
X306227Y45610D02*
Y49154D01*
Y45610D02*
X312920D01*
X306227Y49154D02*
X312920D01*
X574154Y156978D02*
Y160522D01*
X580847Y156978D02*
Y160522D01*
X574154D02*
X580847D01*
X574154Y156978D02*
X580847D01*
X594153D02*
Y160522D01*
X600846Y156978D02*
Y160522D01*
X594153D02*
X600846D01*
X594153Y156978D02*
X600846D01*
X595649Y114104D02*
X599193D01*
X595649Y120798D02*
X599193D01*
X595649Y114104D02*
Y120798D01*
X599193Y114104D02*
Y120798D01*
X554203Y156978D02*
Y160522D01*
X560895Y156978D02*
Y160522D01*
X554203D02*
X560895D01*
X554203Y156978D02*
X560895D01*
X223406Y277244D02*
Y282756D01*
X211595Y277244D02*
Y282756D01*
X223406D01*
X211595Y277244D02*
X223406D01*
X485649Y114104D02*
X489193D01*
X485649Y120798D02*
X489193D01*
X485649Y114104D02*
Y120798D01*
X489193Y114104D02*
Y120798D01*
X465728Y114154D02*
X469272D01*
X465728Y120846D02*
X469272D01*
X465728Y114154D02*
Y120846D01*
X469272Y114154D02*
Y120846D01*
X445728Y114154D02*
X449272D01*
X445728Y120846D02*
X449272D01*
X445728Y114154D02*
Y120846D01*
X449272Y114154D02*
Y120846D01*
X354143Y86657D02*
X357687D01*
X354143Y93349D02*
X357687D01*
X354143Y86657D02*
Y93349D01*
X357687Y86657D02*
Y93349D01*
X582126Y153101D02*
X592716D01*
Y146801D02*
Y153101D01*
X582126Y146801D02*
Y153101D01*
Y146801D02*
X592716D01*
X514153Y156978D02*
Y160522D01*
X520847Y156978D02*
Y160522D01*
X514153D02*
X520847D01*
X514153Y156978D02*
X520847D01*
X494153D02*
Y160522D01*
X500846Y156978D02*
Y160522D01*
X494153D02*
X500846D01*
X494153Y156978D02*
X500846D01*
X367096Y238853D02*
Y242397D01*
X360403Y238853D02*
Y242397D01*
Y238853D02*
X367096D01*
X360403Y242397D02*
X367096D01*
X348396Y228169D02*
Y236831D01*
X354104Y228169D02*
Y236831D01*
X348396Y228169D02*
X354104D01*
X348396Y236831D02*
X354104D01*
X340896Y228169D02*
Y236831D01*
X346604Y228169D02*
Y236831D01*
X340896Y228169D02*
X346604D01*
X340896Y236831D02*
X346604D01*
X367018Y183149D02*
Y186693D01*
X360325Y183149D02*
Y186693D01*
Y183149D02*
X367018D01*
X360325Y186693D02*
X367018D01*
X367096Y208228D02*
Y211772D01*
X360403Y208228D02*
Y211772D01*
Y208228D02*
X367096D01*
X360403Y211772D02*
X367096D01*
X470728Y133346D02*
X474272D01*
X470728Y126654D02*
X474272D01*
Y133346D01*
X470728Y126654D02*
Y133346D01*
X307771Y77544D02*
Y86206D01*
X313479Y77544D02*
Y86206D01*
X307771Y77544D02*
X313479D01*
X307771Y86206D02*
X313479D01*
X341643Y86657D02*
X345187D01*
X341643Y93349D02*
X345187D01*
X341643Y86657D02*
Y93349D01*
X345187Y86657D02*
Y93349D01*
X329143Y86657D02*
X332687D01*
X329143Y93349D02*
X332687D01*
X329143Y86657D02*
Y93349D01*
X332687Y86657D02*
Y93349D01*
X289298Y45610D02*
Y49154D01*
X282605Y45610D02*
Y49154D01*
Y45610D02*
X289298D01*
X282605Y49154D02*
X289298D01*
X502126Y153101D02*
X512716D01*
Y146801D02*
Y153101D01*
X502126Y146801D02*
Y153101D01*
Y146801D02*
X512716D01*
X522126Y153101D02*
X532716D01*
Y146801D02*
Y153101D01*
X522126Y146801D02*
Y153101D01*
Y146801D02*
X532716D01*
X450728Y133346D02*
X454272D01*
X450728Y126654D02*
X454272D01*
Y133346D01*
X450728Y126654D02*
Y133346D01*
X145541Y229695D02*
Y247805D01*
X156959Y229695D02*
Y247805D01*
X145541Y229695D02*
X156959D01*
X145541Y247805D02*
X156959D01*
X430728Y133346D02*
X434272D01*
X430728Y126654D02*
X434272D01*
Y133346D01*
X430728Y126654D02*
Y133346D01*
X297278Y95103D02*
Y98647D01*
X303972Y95103D02*
Y98647D01*
X297278D02*
X303972D01*
X297278Y95103D02*
X303972D01*
X251604Y73794D02*
Y82456D01*
X245896Y73794D02*
Y82456D01*
X251604D01*
X245896Y73794D02*
X251604D01*
X242053Y45610D02*
Y49154D01*
X235360Y45610D02*
Y49154D01*
Y45610D02*
X242053D01*
X235360Y49154D02*
X242053D01*
X482126Y153101D02*
X492716D01*
Y146801D02*
Y153101D01*
X482126Y146801D02*
Y153101D01*
Y146801D02*
X492716D01*
X390462Y217510D02*
X401880D01*
Y212392D02*
Y217510D01*
X390462Y212392D02*
Y217510D01*
Y212392D02*
X401880D01*
X115847Y258228D02*
Y261772D01*
X109153Y258228D02*
Y261772D01*
Y258228D02*
X115847D01*
X109153Y261772D02*
X115847D01*
X29596Y181978D02*
Y185522D01*
X22904Y181978D02*
Y185522D01*
Y181978D02*
X29596D01*
X22904Y185522D02*
X29596D01*
X117017Y229429D02*
Y232973D01*
X110325Y229429D02*
Y232973D01*
Y229429D02*
X117017D01*
X110325Y232973D02*
X117017D01*
X355649Y114104D02*
X359193D01*
X355649Y120798D02*
X359193D01*
X355649Y114104D02*
Y120798D01*
X359193Y114104D02*
Y120798D01*
X380649Y133298D02*
X384193D01*
X380649Y126604D02*
X384193D01*
Y133298D01*
X380649Y126604D02*
Y133298D01*
X335649Y114104D02*
X339193D01*
X335649Y120798D02*
X339193D01*
X335649Y114104D02*
Y120798D01*
X339193Y114104D02*
Y120798D01*
X360649Y133298D02*
X364193D01*
X360649Y126604D02*
X364193D01*
Y133298D01*
X360649Y126604D02*
Y133298D01*
X29596Y151978D02*
Y155522D01*
X22904Y151978D02*
Y155522D01*
Y151978D02*
X29596D01*
X22904Y155522D02*
X29596D01*
X58854Y250465D02*
Y259126D01*
X53146Y250465D02*
Y259126D01*
X58854D01*
X53146Y250465D02*
X58854D01*
X99597Y209478D02*
Y213022D01*
X92904Y209478D02*
Y213022D01*
Y209478D02*
X99597D01*
X92904Y213022D02*
X99597D01*
X83858Y216211D02*
Y236289D01*
X66142Y216211D02*
Y236289D01*
Y216211D02*
X83858D01*
X66142Y236289D02*
X83858D01*
X286854Y183169D02*
Y191831D01*
X281146Y183169D02*
Y191831D01*
X286854D01*
X281146Y183169D02*
X286854D01*
X283441Y197116D02*
Y205384D01*
X288559Y197116D02*
Y205384D01*
X283441Y197116D02*
X288559D01*
X283441Y205384D02*
X288559D01*
X322126Y143101D02*
X332716D01*
Y136801D02*
Y143101D01*
X322126Y136801D02*
Y143101D01*
Y136801D02*
X332716D01*
X302126Y143101D02*
X312716D01*
Y136801D02*
Y143101D01*
X302126Y136801D02*
Y143101D01*
Y136801D02*
X312716D01*
X282126Y143101D02*
X292716D01*
Y136801D02*
Y143101D01*
X282126Y136801D02*
Y143101D01*
Y136801D02*
X292716D01*
X269597Y189478D02*
Y193022D01*
X262903Y189478D02*
Y193022D01*
Y189478D02*
X269597D01*
X262903Y193022D02*
X269597D01*
X114399Y164104D02*
X117943D01*
X114399Y170798D02*
X117943D01*
X114399Y164104D02*
Y170798D01*
X117943Y164104D02*
Y170798D01*
X262903Y183228D02*
Y186772D01*
X269597Y183228D02*
Y186772D01*
X262903D02*
X269597D01*
X262903Y183228D02*
X269597D01*
X244478Y210846D02*
X248022D01*
X244478Y204153D02*
X248022D01*
Y210846D01*
X244478Y204153D02*
Y210846D01*
X262205Y143150D02*
X272795D01*
Y136850D02*
Y143150D01*
X262205Y136850D02*
Y143150D01*
Y136850D02*
X272795D01*
X250728Y133346D02*
X254272D01*
X250728Y126654D02*
X254272D01*
Y133346D01*
X250728Y126654D02*
Y133346D01*
X230728D02*
X234272D01*
X230728Y126654D02*
X234272D01*
Y133346D01*
X230728Y126654D02*
Y133346D01*
X210728D02*
X214272D01*
X210728Y126654D02*
X214272D01*
Y133346D01*
X210728Y126654D02*
Y133346D01*
X242205Y143150D02*
X252795D01*
Y136850D02*
Y143150D01*
X242205Y136850D02*
Y143150D01*
Y136850D02*
X252795D01*
X222205Y143150D02*
X232795D01*
Y136850D02*
Y143150D01*
X222205Y136850D02*
Y143150D01*
Y136850D02*
X232795D01*
X168937Y157776D02*
X169724Y158563D01*
X168937Y177224D02*
X169724Y176437D01*
Y158563D02*
Y176437D01*
X120276Y158563D02*
Y176437D01*
X121063Y177224D01*
X120276Y158563D02*
X121063Y157776D01*
X168937D01*
X121063Y177224D02*
X168937D01*
X205728Y192903D02*
X209272D01*
X205728Y199597D02*
X209272D01*
X205728Y192903D02*
Y199597D01*
X209272Y192903D02*
Y199597D01*
X121978Y140403D02*
X125522D01*
X121978Y147097D02*
X125522D01*
X121978Y140403D02*
Y147097D01*
X125522Y140403D02*
Y147097D01*
X38728Y118154D02*
X42272D01*
X38728Y124846D02*
X42272D01*
X38728Y118154D02*
Y124846D01*
X42272Y118154D02*
Y124846D01*
X71653Y113228D02*
Y116772D01*
X78347Y113228D02*
Y116772D01*
X71653D02*
X78347D01*
X71653Y113228D02*
X78347D01*
X585748Y72254D02*
Y85246D01*
X579252Y72254D02*
Y85246D01*
X585748D01*
X579252Y72254D02*
X585748D01*
X508228Y270590D02*
X511772D01*
X508228Y263898D02*
X511772D01*
Y270590D01*
X508228Y263898D02*
Y270590D01*
X493405Y277244D02*
Y282756D01*
X481595Y277244D02*
Y282756D01*
X493405D01*
X481595Y277244D02*
X493405D01*
X519478Y280847D02*
X523022D01*
X519478Y274153D02*
X523022D01*
Y280847D01*
X519478Y274153D02*
Y280847D01*
X553228Y270590D02*
X556772D01*
X553228Y263898D02*
X556772D01*
Y270590D01*
X553228Y263898D02*
Y270590D01*
X373228Y270591D02*
X376772D01*
X373228Y263898D02*
X376772D01*
Y270591D01*
X373228Y263898D02*
Y270591D01*
X391983Y77461D02*
Y97539D01*
X374267Y77461D02*
Y97539D01*
Y77461D02*
X391983D01*
X374267Y97539D02*
X391983D01*
X414478Y264547D02*
X418022D01*
X414478Y257855D02*
X418022D01*
Y264547D01*
X414478Y257855D02*
Y264547D01*
X394457Y264597D02*
X398001D01*
X394457Y257904D02*
X398001D01*
Y264597D01*
X394457Y257904D02*
Y264597D01*
X361978Y280847D02*
X365522D01*
X361978Y274153D02*
X365522D01*
Y280847D01*
X361978Y274153D02*
Y280847D01*
X339478D02*
X343022D01*
X339478Y274153D02*
X343022D01*
Y280847D01*
X339478Y274153D02*
Y280847D01*
X401980Y45711D02*
Y49255D01*
X395288Y45711D02*
Y49255D01*
Y45711D02*
X401980D01*
X395288Y49255D02*
X401980D01*
X499941Y230866D02*
Y239134D01*
X505059Y230866D02*
Y239134D01*
X499941Y230866D02*
X505059D01*
X499941Y239134D02*
X505059D01*
X316978Y280847D02*
X320522D01*
X316978Y274153D02*
X320522D01*
Y280847D01*
X316978Y274153D02*
Y280847D01*
X313405Y277244D02*
Y282756D01*
X301594Y277244D02*
Y282756D01*
X313405D01*
X301594Y277244D02*
X313405D01*
X354736Y45711D02*
Y49255D01*
X348044Y45711D02*
Y49255D01*
Y45711D02*
X354736D01*
X348044Y49255D02*
X354736D01*
X535649Y114104D02*
X539193D01*
X535649Y120798D02*
X539193D01*
X535649Y114104D02*
Y120798D01*
X539193Y114104D02*
Y120798D01*
X537322Y228297D02*
X540866D01*
X537322Y234990D02*
X540866D01*
X537322Y228297D02*
Y234990D01*
X540866Y228297D02*
Y234990D01*
X201978Y264597D02*
X205522D01*
X201978Y257904D02*
X205522D01*
Y264597D01*
X201978Y257904D02*
Y264597D01*
X570649Y133298D02*
X574193D01*
X570649Y126604D02*
X574193D01*
Y133298D01*
X570649Y126604D02*
Y133298D01*
X306978Y228101D02*
X310522D01*
X306978Y234793D02*
X310522D01*
X306978Y228101D02*
Y234793D01*
X310522Y228101D02*
Y234793D01*
X176978Y264547D02*
X180522D01*
X176978Y257855D02*
X180522D01*
Y264547D01*
X176978Y257855D02*
Y264547D01*
X181978Y280847D02*
X185522D01*
X181978Y274153D02*
X185522D01*
Y280847D01*
X181978Y274153D02*
Y280847D01*
X550649Y133298D02*
X554193D01*
X550649Y126604D02*
X554193D01*
Y133298D01*
X550649Y126604D02*
Y133298D01*
X530649D02*
X534193D01*
X530649Y126604D02*
X534193D01*
Y133298D01*
X530649Y126604D02*
Y133298D01*
X425728Y114154D02*
X429272D01*
X425728Y120846D02*
X429272D01*
X425728Y114154D02*
Y120846D01*
X429272Y114154D02*
Y120846D01*
X570403Y233228D02*
Y236772D01*
X577097Y233228D02*
Y236772D01*
X570403D02*
X577097D01*
X570403Y233228D02*
X577097D01*
X510649Y133298D02*
X514193D01*
X510649Y126604D02*
X514193D01*
Y133298D01*
X510649Y126604D02*
Y133298D01*
X562126Y153101D02*
X572716D01*
Y146801D02*
Y153101D01*
X562126Y146801D02*
Y153101D01*
Y146801D02*
X572716D01*
X320728Y234794D02*
X324272D01*
X320728Y228101D02*
X324272D01*
Y234794D01*
X320728Y228101D02*
Y234794D01*
X367096Y202603D02*
Y206147D01*
X360403Y202603D02*
Y206147D01*
Y202603D02*
X367096D01*
X360403Y206147D02*
X367096D01*
X490649Y133298D02*
X494193D01*
X490649Y126604D02*
X494193D01*
Y133298D01*
X490649Y126604D02*
Y133298D01*
X542126Y153101D02*
X552716D01*
Y146801D02*
Y153101D01*
X542126Y146801D02*
Y153101D01*
Y146801D02*
X552716D01*
X454153Y156978D02*
Y160522D01*
X460847Y156978D02*
Y160522D01*
X454153D02*
X460847D01*
X454153Y156978D02*
X460847D01*
X474154D02*
Y160522D01*
X480847Y156978D02*
Y160522D01*
X474154D02*
X480847D01*
X474154Y156978D02*
X480847D01*
X372775Y208204D02*
X376319D01*
X372775Y214896D02*
X376319D01*
X372775Y208204D02*
Y214896D01*
X376319Y208204D02*
Y214896D01*
X21870Y239475D02*
X30532D01*
X21870Y245183D02*
X30532D01*
Y239475D02*
Y245183D01*
X21870Y239475D02*
Y245183D01*
X151978Y264597D02*
X155522D01*
X151978Y257904D02*
X155522D01*
Y264597D01*
X151978Y257904D02*
Y264597D01*
X385649Y114104D02*
X389193D01*
X385649Y120798D02*
X389193D01*
X385649Y114104D02*
Y120798D01*
X389193Y114104D02*
Y120798D01*
X472205Y143150D02*
X482795D01*
Y136850D02*
Y143150D01*
X472205Y136850D02*
Y143150D01*
Y136850D02*
X482795D01*
X210010Y86555D02*
X213553D01*
X210010Y93248D02*
X213553D01*
X210010Y86555D02*
Y93248D01*
X213553Y86555D02*
Y93248D01*
X247510Y86555D02*
X251053D01*
X247510Y93248D02*
X251053D01*
X247510Y86555D02*
Y93248D01*
X251053Y86555D02*
Y93248D01*
X434154Y156978D02*
Y160522D01*
X440846Y156978D02*
Y160522D01*
X434154D02*
X440846D01*
X434154Y156978D02*
X440846D01*
X452205Y143150D02*
X462795D01*
Y136850D02*
Y143150D01*
X452205Y136850D02*
Y143150D01*
Y136850D02*
X462795D01*
X372775Y199331D02*
X392067D01*
X372775Y183976D02*
X392067D01*
Y199331D01*
X372775Y183976D02*
Y199331D01*
X393898Y183957D02*
Y191043D01*
X406102Y183957D02*
Y191043D01*
X393898Y183957D02*
X406102D01*
X393898Y191043D02*
X406102D01*
X374075Y163179D02*
Y166723D01*
X380767Y163179D02*
Y166723D01*
X374075D02*
X380767D01*
X374075Y163179D02*
X380767D01*
X432205Y143150D02*
X442795D01*
Y136850D02*
Y143150D01*
X432205Y136850D02*
Y143150D01*
Y136850D02*
X442795D01*
X222510Y86555D02*
X226053D01*
X222510Y93248D02*
X226053D01*
X222510Y86555D02*
Y93248D01*
X226053Y86555D02*
Y93248D01*
X213971Y56353D02*
Y59897D01*
X207278Y56353D02*
Y59897D01*
Y56353D02*
X213971D01*
X207278Y59897D02*
X213971D01*
X235010Y86555D02*
X238553D01*
X235010Y93248D02*
X238553D01*
X235010Y86555D02*
Y93248D01*
X238553Y86555D02*
Y93248D01*
X410246Y139488D02*
X417254D01*
Y150512D01*
X410246D02*
X417254D01*
X410246Y139488D02*
Y150512D01*
X354075Y163179D02*
Y166723D01*
X360768Y163179D02*
Y166723D01*
X354075D02*
X360768D01*
X354075Y163179D02*
X360768D01*
X334074D02*
Y166723D01*
X340768Y163179D02*
Y166723D01*
X334074D02*
X340768D01*
X334074Y163179D02*
X340768D01*
X314074D02*
Y166723D01*
X320767Y163179D02*
Y166723D01*
X314074D02*
X320767D01*
X314074Y163179D02*
X320767D01*
X43858Y246211D02*
Y266289D01*
X26142Y246211D02*
Y266289D01*
Y246211D02*
X43858D01*
X26142Y266289D02*
X43858D01*
X315649Y114104D02*
X319193D01*
X315649Y120798D02*
X319193D01*
X315649Y114104D02*
Y120798D01*
X319193Y114104D02*
Y120798D01*
X382126Y143101D02*
X392716D01*
Y136801D02*
Y143101D01*
X382126Y136801D02*
Y143101D01*
Y136801D02*
X392716D01*
X330649Y133298D02*
X334193D01*
X330649Y126604D02*
X334193D01*
Y133298D01*
X330649Y126604D02*
Y133298D01*
X295649Y114104D02*
X299193D01*
X295649Y120798D02*
X299193D01*
X295649Y114104D02*
Y120798D01*
X299193Y114104D02*
Y120798D01*
X275649Y114104D02*
X279193D01*
X275649Y120798D02*
X279193D01*
X275649Y114104D02*
Y120798D01*
X279193Y114104D02*
Y120798D01*
X225728Y114154D02*
X229272D01*
X225728Y120846D02*
X229272D01*
X225728Y114154D02*
Y120846D01*
X229272Y114154D02*
Y120846D01*
X245728Y114154D02*
X249272D01*
X245728Y120846D02*
X249272D01*
X245728Y114154D02*
Y120846D01*
X249272Y114154D02*
Y120846D01*
X205728Y114154D02*
X209272D01*
X205728Y120846D02*
X209272D01*
X205728Y114154D02*
Y120846D01*
X209272Y114154D02*
Y120846D01*
X362126Y143101D02*
X372716D01*
Y136801D02*
Y143101D01*
X362126Y136801D02*
Y143101D01*
Y136801D02*
X372716D01*
X342126Y143101D02*
X352716D01*
Y136801D02*
Y143101D01*
X342126Y136801D02*
Y143101D01*
Y136801D02*
X352716D01*
X294075Y163179D02*
Y166723D01*
X300767Y163179D02*
Y166723D01*
X294075D02*
X300767D01*
X294075Y163179D02*
X300767D01*
X274075D02*
Y166723D01*
X280767Y163179D02*
Y166723D01*
X274075D02*
X280767D01*
X274075Y163179D02*
X280767D01*
X310649Y133298D02*
X314193D01*
X310649Y126604D02*
X314193D01*
Y133298D01*
X310649Y126604D02*
Y133298D01*
X290649D02*
X294193D01*
X290649Y126604D02*
X294193D01*
Y133298D01*
X290649Y126604D02*
Y133298D01*
X177903Y196978D02*
Y200522D01*
X184597Y196978D02*
Y200522D01*
X177903D02*
X184597D01*
X177903Y196978D02*
X184597D01*
X234154Y163228D02*
Y166772D01*
X240846Y163228D02*
Y166772D01*
X234154D02*
X240846D01*
X234154Y163228D02*
X240846D01*
X254153D02*
Y166772D01*
X260846Y163228D02*
Y166772D01*
X254153D02*
X260846D01*
X254153Y163228D02*
X260846D01*
X270649Y133298D02*
X274193D01*
X270649Y126604D02*
X274193D01*
Y133298D01*
X270649Y126604D02*
Y133298D01*
X175148Y183957D02*
Y191043D01*
X187352Y183957D02*
Y191043D01*
X175148Y183957D02*
X187352D01*
X175148Y191043D02*
X187352D01*
X189360Y199301D02*
Y218199D01*
X203140Y199301D02*
Y218199D01*
X189360Y199301D02*
X203140D01*
X189360Y218199D02*
X203140D01*
X150728Y120846D02*
X154272D01*
X150728Y114154D02*
X154272D01*
Y120846D01*
X150728Y114154D02*
Y120846D01*
X157904Y113228D02*
Y116772D01*
X164596Y113228D02*
Y116772D01*
X157904D02*
X164596D01*
X157904Y113228D02*
X164596D01*
X20787Y147224D02*
X31063D01*
X20787Y127776D02*
X31063D01*
X108937D02*
X119213D01*
X108937Y147224D02*
X119213D01*
X31063D02*
X108937D01*
X31063Y127776D02*
X108937D01*
X119213D02*
X120000Y128563D01*
X119213Y147224D02*
X120000Y146437D01*
Y128563D02*
Y146437D01*
X20000Y128563D02*
Y146437D01*
X20787Y147224D01*
X20000Y128563D02*
X20787Y127776D01*
X98720Y121978D02*
Y125522D01*
X105413Y121978D02*
Y125522D01*
X98720D02*
X105413D01*
X98720Y121978D02*
X105413D01*
X95403Y113228D02*
Y116772D01*
X102096Y113228D02*
Y116772D01*
X95403D02*
X102096D01*
X95403Y113228D02*
X102096D01*
X49228Y118154D02*
X52772D01*
X49228Y124846D02*
X52772D01*
X49228Y118154D02*
Y124846D01*
X52772Y118154D02*
Y124846D01*
X81978Y120846D02*
X85522D01*
X81978Y114154D02*
X85522D01*
Y120846D01*
X81978Y114154D02*
Y120846D01*
X101654Y214094D02*
Y225905D01*
X108346Y214094D02*
Y225905D01*
X101654D02*
X108346D01*
X101654Y214094D02*
X108346D01*
X101654Y242845D02*
Y254656D01*
X108346Y242845D02*
Y254656D01*
X101654D02*
X108346D01*
X101654Y242845D02*
X108346D01*
X292219Y87722D02*
X304030D01*
X292219Y81028D02*
X304030D01*
Y87722D01*
X292219Y81028D02*
Y87722D01*
X404719D02*
X416531D01*
X404719Y81028D02*
X416531D01*
Y87722D01*
X404719Y81028D02*
Y87722D01*
X94596Y315069D02*
Y367431D01*
X137903Y315069D02*
Y367431D01*
X94596D02*
X137903D01*
X94596Y315069D02*
X137903D01*
X310236Y347264D02*
Y367736D01*
X299606Y347264D02*
Y367736D01*
X310236D01*
X299606Y347264D02*
X310236D01*
X287815D02*
Y367736D01*
X277185Y347264D02*
Y367736D01*
X287815D01*
X277185Y347264D02*
X287815D01*
X265315D02*
Y367736D01*
X254685Y347264D02*
Y367736D01*
X265315D01*
X254685Y347264D02*
X265315D01*
X242815D02*
Y367736D01*
X232185Y347264D02*
Y367736D01*
X242815D01*
X232185Y347264D02*
X242815D01*
X220315D02*
Y367736D01*
X209685Y347264D02*
Y367736D01*
X220315D01*
X209685Y347264D02*
X220315D01*
X197815D02*
Y367736D01*
X187185Y347264D02*
Y367736D01*
X197815D01*
X187185Y347264D02*
X197815D01*
X445315D02*
Y367736D01*
X434685Y347264D02*
Y367736D01*
X445315D01*
X434685Y347264D02*
X445315D01*
X422815D02*
Y367736D01*
X412185Y347264D02*
Y367736D01*
X422815D01*
X412185Y347264D02*
X422815D01*
X400315D02*
Y367736D01*
X389685Y347264D02*
Y367736D01*
X400315D01*
X389685Y347264D02*
X400315D01*
X377815D02*
Y367736D01*
X367185Y347264D02*
Y367736D01*
X377815D01*
X367185Y347264D02*
X377815D01*
X355315D02*
Y367736D01*
X344685Y347264D02*
Y367736D01*
X355315D01*
X344685Y347264D02*
X355315D01*
X332815D02*
Y367736D01*
X322185Y347264D02*
Y367736D01*
X332815D01*
X322185Y347264D02*
X332815D01*
X580315D02*
Y367736D01*
X569685Y347264D02*
Y367736D01*
X580315D01*
X569685Y347264D02*
X580315D01*
X557736D02*
Y367736D01*
X547106Y347264D02*
Y367736D01*
X557736D01*
X547106Y347264D02*
X557736D01*
X535315D02*
Y367736D01*
X524685Y347264D02*
Y367736D01*
X535315D01*
X524685Y347264D02*
X535315D01*
X490315D02*
Y367736D01*
X479685Y347264D02*
Y367736D01*
X490315D01*
X479685Y347264D02*
X490315D01*
X467815D02*
Y367736D01*
X457185Y347264D02*
Y367736D01*
X467815D01*
X457185Y347264D02*
X467815D01*
X78228Y325403D02*
Y332097D01*
X81772Y325403D02*
Y332097D01*
X78228Y325403D02*
X81772D01*
X78228Y332097D02*
X81772D01*
X80384Y361191D02*
Y366309D01*
X72116Y361191D02*
Y366309D01*
Y361191D02*
X80384D01*
X72116Y366309D02*
X80384D01*
X41653Y346978D02*
X48346D01*
X41653Y350522D02*
X48346D01*
Y346978D02*
Y350522D01*
X41653Y346978D02*
Y350522D01*
X41654Y344272D02*
X48346D01*
X41654Y340728D02*
X48346D01*
X41654D02*
Y344272D01*
X48346Y340728D02*
Y344272D01*
X236147Y61028D02*
Y67721D01*
X232603Y61028D02*
Y67721D01*
X236147D01*
X232603Y61028D02*
X236147D01*
X351772Y57903D02*
Y64596D01*
X348228Y57903D02*
Y64596D01*
X351772D01*
X348228Y57903D02*
X351772D01*
X56075Y324098D02*
Y343402D01*
X71427Y324098D02*
Y343402D01*
X56075D02*
X71427D01*
X56075Y324098D02*
X71427D01*
X21673Y62254D02*
X28169D01*
X21673Y75246D02*
X28169D01*
X21673Y62254D02*
Y75246D01*
X28169Y62254D02*
Y75246D01*
X153022Y350778D02*
X174478D01*
X153022Y366722D02*
X174478D01*
X153022Y350778D02*
Y366722D01*
X174478Y350778D02*
Y366722D01*
X66831Y360896D02*
Y366604D01*
X58169Y360896D02*
Y366604D01*
Y360896D02*
X66831D01*
X58169Y366604D02*
X66831D01*
X202904Y189272D02*
X209596D01*
X202904Y185728D02*
X209596D01*
X202904D02*
Y189272D01*
X209596Y185728D02*
Y189272D01*
X417904D02*
X424597D01*
X417904Y185728D02*
X424597D01*
X417904D02*
Y189272D01*
X424597Y185728D02*
Y189272D01*
X355022Y214969D02*
Y221662D01*
X351478Y214969D02*
Y221662D01*
X355022D01*
X351478Y214969D02*
X355022D01*
X291653Y224272D02*
X298346D01*
X291653Y220728D02*
X298346D01*
X291653D02*
Y224272D01*
X298346Y220728D02*
Y224272D01*
X291653Y218772D02*
X298346D01*
X291653Y215228D02*
X298346D01*
X291653D02*
Y218772D01*
X298346Y215228D02*
Y218772D01*
X291653Y213272D02*
X298346D01*
X291653Y209728D02*
X298346D01*
X291653D02*
Y213272D01*
X298346Y209728D02*
Y213272D01*
X596778Y215153D02*
X603472D01*
X596778Y211609D02*
X603472D01*
X596778D02*
Y215153D01*
X603472Y211609D02*
Y215153D01*
X596778Y209113D02*
X603472D01*
X596778Y205570D02*
X603472D01*
X596778D02*
Y209113D01*
X603472Y205570D02*
Y209113D01*
X610772Y198404D02*
Y205097D01*
X607228Y198404D02*
Y205097D01*
X610772D01*
X607228Y198404D02*
X610772D01*
Y185153D02*
Y191847D01*
X607228Y185153D02*
Y191847D01*
X610772D01*
X607228Y185153D02*
X610772D01*
X430728Y183346D02*
X434272D01*
X430728Y176654D02*
X434272D01*
Y183346D01*
X430728Y176654D02*
Y183346D01*
X195404Y181772D02*
X202097D01*
X195404Y178228D02*
X202097D01*
X195404D02*
Y181772D01*
X202097Y178228D02*
Y181772D01*
X215728Y176654D02*
Y183346D01*
X219272Y176654D02*
Y183346D01*
X215728Y176654D02*
X219272D01*
X215728Y183346D02*
X219272D01*
X410403Y183022D02*
X417097D01*
X410403Y179478D02*
X417097D01*
X410403D02*
Y183022D01*
X417097Y179478D02*
Y183022D01*
X188228Y169153D02*
Y175847D01*
X191772Y169153D02*
Y175847D01*
X188228Y169153D02*
X191772D01*
X188228Y175847D02*
X191772D01*
X186762Y169153D02*
Y175847D01*
X183219Y169153D02*
Y175847D01*
X186762D01*
X183219Y169153D02*
X186762D01*
X189154Y165522D02*
X195846D01*
X189154Y161978D02*
X195846D01*
X189154D02*
Y165522D01*
X195846Y161978D02*
Y165522D01*
X214272Y169153D02*
Y175847D01*
X210728Y169153D02*
Y175847D01*
X214272D01*
X210728Y169153D02*
X214272D01*
X202884Y168366D02*
Y176633D01*
X194616Y168366D02*
Y176633D01*
Y168366D02*
X202884D01*
X194616Y176633D02*
X202884D01*
X209272Y169153D02*
Y175847D01*
X205728Y169153D02*
Y175847D01*
X209272D01*
X205728Y169153D02*
X209272D01*
X403228Y170404D02*
Y177096D01*
X406772Y170404D02*
Y177096D01*
X403228Y170404D02*
X406772D01*
X403228Y177096D02*
X406772D01*
X401772Y170404D02*
Y177096D01*
X398228Y170404D02*
Y177096D01*
X401772D01*
X398228Y170404D02*
X401772D01*
X406653Y168022D02*
X413346D01*
X406653Y164478D02*
X413346D01*
X406653D02*
Y168022D01*
X413346Y164478D02*
Y168022D01*
X429272Y170404D02*
Y177096D01*
X425728Y170404D02*
Y177096D01*
X429272D01*
X425728Y170404D02*
X429272D01*
X417883Y169616D02*
Y177883D01*
X409616Y169616D02*
Y177883D01*
Y169616D02*
X417883D01*
X409616Y177883D02*
X417883D01*
X424272Y170404D02*
Y177096D01*
X420728Y170404D02*
Y177096D01*
X424272D01*
X420728Y170404D02*
X424272D01*
X40669Y333396D02*
Y339104D01*
X49331Y333396D02*
Y339104D01*
X40669D02*
X49331D01*
X40669Y333396D02*
X49331D01*
X218642Y192461D02*
X236358D01*
X218642Y212539D02*
X236358D01*
Y192461D02*
Y212539D01*
X218642Y192461D02*
Y212539D01*
X433642Y192461D02*
X451358D01*
X433642Y212539D02*
X451358D01*
Y192461D02*
Y212539D01*
X433642Y192461D02*
Y212539D01*
X208017Y81914D02*
X225733D01*
X208017Y61836D02*
X225733D01*
X208017D02*
Y81914D01*
X225733Y61836D02*
Y81914D01*
X218918Y56353D02*
X225611D01*
X218918Y59897D02*
X225611D01*
Y56353D02*
Y59897D01*
X218918Y56353D02*
Y59897D01*
X334154Y53228D02*
X340846D01*
X334154Y56772D02*
X340846D01*
Y53228D02*
Y56772D01*
X334154Y53228D02*
Y56772D01*
X323642Y78789D02*
X341358D01*
X323642Y58711D02*
X341358D01*
X323642D02*
Y78789D01*
X341358Y58711D02*
Y78789D01*
X52687Y78474D02*
X53474Y77687D01*
X52687Y59026D02*
X53474Y59813D01*
Y77687D01*
X34026Y59813D02*
Y77687D01*
Y59813D02*
X34813Y59026D01*
X52687D01*
X34026Y77687D02*
X34813Y78474D01*
X52687D01*
X149026Y300187D02*
X149813Y300974D01*
X167687D02*
X168474Y300187D01*
X149813Y300974D02*
X167687D01*
X149813Y291526D02*
X167687D01*
X168474Y292313D01*
Y300187D01*
X149026Y292313D02*
X149813Y291526D01*
X149026Y292313D02*
Y300187D01*
X67904Y346978D02*
Y350522D01*
X74597Y346978D02*
Y350522D01*
X67904D02*
X74597D01*
X67904Y346978D02*
X74597D01*
X78228Y343347D02*
X81772D01*
X78228Y336653D02*
X81772D01*
Y343347D01*
X78228Y336653D02*
Y343347D01*
X59597Y346978D02*
Y350522D01*
X52903Y346978D02*
Y350522D01*
Y346978D02*
X59597D01*
X52903Y350522D02*
X59597D01*
X299667Y302264D02*
Y322736D01*
X310297Y302264D02*
Y322736D01*
X299667Y302264D02*
X310297D01*
X299667Y322736D02*
X310297D01*
X277185Y302264D02*
Y322736D01*
X287815Y302264D02*
Y322736D01*
X277185Y302264D02*
X287815D01*
X277185Y322736D02*
X287815D01*
X254685Y302264D02*
Y322736D01*
X265315Y302264D02*
Y322736D01*
X254685Y302264D02*
X265315D01*
X254685Y322736D02*
X265315D01*
X232185Y302264D02*
Y322736D01*
X242815Y302264D02*
Y322736D01*
X232185Y302264D02*
X242815D01*
X232185Y322736D02*
X242815D01*
X209685Y302264D02*
Y322736D01*
X220315Y302264D02*
Y322736D01*
X209685Y302264D02*
X220315D01*
X209685Y322736D02*
X220315D01*
X187185Y302264D02*
Y322736D01*
X197815Y302264D02*
Y322736D01*
X187185Y302264D02*
X197815D01*
X187185Y322736D02*
X197815D01*
X434685Y302264D02*
Y322736D01*
X445315Y302264D02*
Y322736D01*
X434685Y302264D02*
X445315D01*
X434685Y322736D02*
X445315D01*
X412185Y302264D02*
Y322736D01*
X422815Y302264D02*
Y322736D01*
X412185Y302264D02*
X422815D01*
X412185Y322736D02*
X422815D01*
X389685Y302264D02*
Y322736D01*
X400315Y302264D02*
Y322736D01*
X389685Y302264D02*
X400315D01*
X389685Y322736D02*
X400315D01*
X367185Y302264D02*
Y322736D01*
X377815Y302264D02*
Y322736D01*
X367185Y302264D02*
X377815D01*
X367185Y322736D02*
X377815D01*
X344685Y302264D02*
Y322736D01*
X355315Y302264D02*
Y322736D01*
X344685Y302264D02*
X355315D01*
X344685Y322736D02*
X355315D01*
X322185Y302264D02*
Y322736D01*
X332815Y302264D02*
Y322736D01*
X322185Y302264D02*
X332815D01*
X322185Y322736D02*
X332815D01*
X512815Y347264D02*
Y367736D01*
X502185Y347264D02*
Y367736D01*
X512815D01*
X502185Y347264D02*
X512815D01*
X569685Y302264D02*
Y322736D01*
X580315Y302264D02*
Y322736D01*
X569685Y302264D02*
X580315D01*
X569685Y322736D02*
X580315D01*
X547185Y302264D02*
Y322736D01*
X557815Y302264D02*
Y322736D01*
X547185Y302264D02*
X557815D01*
X547185Y322736D02*
X557815D01*
X524685Y302264D02*
Y322736D01*
X535315Y302264D02*
Y322736D01*
X524685Y302264D02*
X535315D01*
X524685Y322736D02*
X535315D01*
X502185Y302264D02*
Y322736D01*
X512815Y302264D02*
Y322736D01*
X502185Y302264D02*
X512815D01*
X502185Y322736D02*
X512815D01*
X479685Y302264D02*
Y322736D01*
X490315Y302264D02*
Y322736D01*
X479685Y302264D02*
X490315D01*
X479685Y322736D02*
X490315D01*
X457303Y302264D02*
Y322736D01*
X467933Y302264D02*
Y322736D01*
X457303Y302264D02*
X467933D01*
X457303Y322736D02*
X467933D01*
X599154Y46978D02*
X605847D01*
X599154Y50522D02*
X605847D01*
Y46978D02*
Y50522D01*
X599154Y46978D02*
Y50522D01*
X439232Y47027D02*
X445926D01*
X439232Y50571D02*
X445926D01*
Y47027D02*
Y50571D01*
X439232Y47027D02*
Y50571D01*
D130*
X20251Y302874D02*
X35999D01*
X20251Y287126D02*
X35999D01*
X20251D02*
Y302874D01*
X35999Y287126D02*
Y302874D01*
D131*
X471266Y207500D02*
D03*
X256266D02*
D03*
D132*
X278750Y242667D02*
D03*
X492500D02*
D03*
M02*
