M48
;Layer_Color=9474304
;FILE_FORMAT=2:5
INCH,LZ
;TYPE=PLATED
T1F00S00C0.01181
T2F00S00C0.01575
T3F00S00C0.01968
T4F00S00C0.03937
T5F00S00C0.04000
T6F00S00C0.12598
;TYPE=NON_PLATED
T7F00S00C0.11799
%
T01
X0225625Y004375
X0236875
X024875
X026
X0271875
X028375
X0295625
X03075
X0315
X031875Y0045625
X032375Y005
X033
X033375Y0051106
X0337165Y0043753
X0348415
X0359665
X035Y0055
X0345
X031875Y0031875
X0370915Y0043753
X0383415
X0395915
X0407165
X0418415
X0428125Y004375
X0431875Y0045625
Y0031875
X0532549Y0120625
X0542421
X0552421
X05625
X0572766
X0582077
X0591875Y0121875
X05975Y00875
X06025
X06075
X0589Y017
X059Y0173125
X058875Y0184375
X0588Y0189
X0586Y019125
X058375Y0196358
X059125Y0196875
X0592421Y0193
X0579375Y0188125
X0580615Y0179995
X0574016Y017472
X05625Y017747
X0565Y018375
X056625Y0189375
X05675Y019625
X056405Y0196247
X056375Y02025
X056625Y0205
X0564242Y0207185
X056625Y0209371
X0564133Y0211617
X0579921Y0212
Y02065
Y0201201
X05745Y0200961
X05875Y02065
X0554019Y019875
X055375Y0190981
X0545Y019
X05425
X054
X05375
X0535
X05325
X053
X053125Y01925
X053375
X053625
X053875
X054125
X054375
X0545Y0195
X05425
X054
X05375
X0535
X05325
X053
X053125Y01975
X053375
X053625
X053875
X054125
X054375
X0545Y02
X05425
X054
X05375
X0535
X05325
X053
X053125Y02025
X053375
X053625
X053875
X054125
X054375
X0545Y0205
X05425
X054
X05375
X0535
X05325
X052875Y02025
Y01975
Y01925
Y01875
X053125
X053375
X053625
X053875
X054125
X054375
X05425Y017875
X0545649
X0538788
X0535
X053125Y018
X052875Y01825
Y021
X0525
X0539203Y02124
X0549045Y0209705
X055375Y0178209
X051875Y0183455
Y018875
Y01925
Y019625
Y02
Y0203125
X0508Y0205723
X05Y0209
X05015Y0212
X04985
X0491Y0179
X0488
X0485
X0482
X0479
X0476
X0473
X047
X0467
X0464
X0461
X0458
X0455
X0452
X0449
X0446
X0443
X044
X04415Y0182
X04445
X04475
X04505
X04535
X04565
X04595
X04625
X04655
X04685
X04725Y0185
X04655Y0188
X04625
X04595
X04565
X04525Y019125
X0446Y0191
X0443
X044
X04415Y0194
X04445
Y0188
X04475
X0449Y0185
X0446
X0443
X044
X04415Y0188
X04385
Y0194
X0438169Y0198169
Y02025
X04425
Y0198169
X0446831
Y02025
Y0206831
X04425
X0438169
X04385Y0212
X04415
X04445
X04475
X04355
X043625Y018375
X04385Y0182
X04375Y017625
X042Y01625
X041625Y016375
X04075Y015875
X039402Y0173809
X0380994
X03775Y0186535
X0369375Y018875
X0370915Y0181024
X0373671Y0195836
X037Y020125
Y0205
Y021
X0382421Y0193622
X03975Y018625
X04025
X0415Y0188396
X04175Y019125
X041625Y0195
X04Y020125
X039125Y01125
X0382421
X03775Y0111875
X0372421Y01125
Y0119951
X0382421
X0378125Y008875
X03825Y0084375
X037875Y0079375
X0380625Y00725
X0386875
X0393125
X0399375
X0405
X040375Y0076875
X040125Y007875
X0400625Y0081875
Y0086221
X0418125Y0085625
X0430625Y0085
X042875Y0081875
X0423125Y007375
X04225Y012
X04325
X04425
X04525
X04625
X04725
X04825
X0492421Y0119951
X0502421Y0120625
X05125
X0522421
X0374375Y00725
X03675
X0361875
X0362244Y0090677
X0355994
X0349744
X0343494
X0337244
X0330994
X0324665
X0318415
X031Y009125
X0305625Y0088125
X0310625Y0081875
Y0074375
X0293125Y00725
X0286875
X0280625
X0274375
X0268125
X0267471Y00775
Y0081875
X02675Y0085
X0261875Y00725
X0255625
X025Y0078125
X0244375Y0073125
X0245625Y0069729
X0234375Y0058125
X0229375
X0220271Y0061875
X0213125
Y0069375
X021811Y0090576
X022436
X0230531Y0090724
X0236781Y0090576
X024311
X024936
X02475Y0111875
X02575
X0267421
X02775
X02875
X02975
X03075
X03175
X03275
X03375
X03475
X0357421
X03675
X0362421Y0119951
X0352421
X0342421
X0332421
X0322421
X0312421
X0302421
X0292421
X0282421
X0272421
X02625Y012
X02525
X02425
X02325
X02225
X02125
X02175Y0111875
X02275
X02375
X0239Y0179
X0242
X0245
X0248
X0251
X0254
X0257
X026
X0263
X0266
X0269
X0272
X0275
X0278
X0281
X0284
X02845Y0211
X02875
X0313455Y0211387
X032Y021125
Y0205
X03225
X0325
X03275
X033
X03325
X0335
X033375Y02025
X033125
X032875
X032625
X032375
X032125
X031875
X032Y02
X03225
X0325
X03275
X033
X03325
X0335
X033375Y01975
X033125
X032875
X032625
X032375
X032125
X031875
X032Y0195
X03175
X031875Y01925
X032125
X032375
X032625
X032875
X033125
X033375
X03325Y019
X033
X03275
X0325
X03225
X032
X03175
X031875Y01875
X032125
X032375
X032625
X032875
X033125
X033375
X0335Y019
Y0195
X03325
X033
X03275
X0325
X03225
X03175Y02
Y0205
X0355Y020375
X0358125
X0356889Y0206708
X0357617Y0209673
X0356875Y0196875
X035375Y01975
X03575Y019375
X0366624Y0174375
X02575Y0185
X02525Y0182
X02495
X02465
X02435
X02405
X02375
X02345
X02315
X02285
X02255
X02225
X022125Y0184334
X0224Y0185
X0227
X023
X0233
X02315Y0188
X02285
X02255
X0227Y0191
X023
X02315Y0194
X02285
X02255
X02225
X0224Y0191
X0223169Y0198169
Y02025
X02275
Y0198169
X0231831
Y02025
Y0206831
X02275
X0223169
X02225Y0212
X02255
X02285
X02315
X02195
X022125Y017625
X0224Y0179
X0227
X023
X0233
X0236
X02345Y0188
X02405
X02435
X02465
X02495
X02375Y019125
X0288125Y0085
Y0081875
X029125Y0080625
X0289375Y0078125
X0326875Y0065625
X033Y0063125
X033625Y006
X021Y0061875
X021125Y006625
X021186Y0090576
X0205531
X02075Y0111875
X0173125Y0108351
X0157365Y0108125
X014175Y010825
X0143227Y0117438
X0129375
X012375Y011625
X0126483Y013125
X01375Y01475
X01425
X01475
X01525
X01575
X0162483Y0147517
X0170625Y01475
X017375Y016125
X017875
X017625Y016375
X019875Y016625
X020067Y015875
X02075Y016375
X02Y018875
X0197278Y0190222
X019625Y0193209
X0203396Y0195072
X0185Y01875
X01775
X0108733Y0149
X0101506Y0118945
X0095994
X0077756Y012
X0072244Y0119951
X0074Y01245
X0065936Y0124256
X0061936Y01155
X0056436
X007125Y021125
X0028213Y0212079
X0021Y0209
X0025121Y0124256
X0029436Y01155
X0034936
X0040436
X0050936
X0051Y0214
X005125Y023875
Y0245
X0056Y024625
X004375Y0244242
X0045Y0238258
X002725Y023875
X0026Y0243
X0031Y0227129
X00335Y0260079
X0031242Y026265
X0028765Y026525
X003875
X004125Y0260802
X0041875Y02575
X003625
X00475Y02675
X005125Y0268418
X0056Y0263
Y0299
X0053
X00545Y0302
X0056Y0305
X0053
X00545Y0308
X0056Y0311
X0053
X00545Y0314
X00515
X00485
X00455
X00425
X00395
X00365
X00335
X00305
X0032Y0317
X0035
X0038
X0041
X0044
X0047
X005
X0053
X0056
X00545Y032
X0056Y0323
X0053
X00375Y033625
Y034875
X00635Y035
X0065Y0347
X00665Y0344
X00635
X00605
X0061585Y0338081
X0065915
Y033375
X0061585
Y0329419
X0065915
X00665Y0326
X00635
X00605
X00575
X0059Y0323
X0062
X0065
X00665Y032
X00635
X00605
X00575
X0059Y0317
X0062
X0065
X00665Y0314
X00635
X00605
X00575
X0059Y0311
X0062
X0065
X0068
X0071
X0074
X0077
X008
X0083
X0086
X0089
X0092
X0095
X0098
X0101
X01025Y0308
X00995
X00965
X00935
X00905
X00875
X00845
X00815
X00785
X00755
X00725
X00695
X00665
X00635
X00605
X00575
X0059Y0305
X0062
X0065
X0068
X0071
X0074
X0077
X008
X0083
X0086
X0089
X0092
X0095
X0098
X0101
X01025Y0302
X00995
X00965
X00935
X00905
X00875
X00845
X00815
X00785
X00755
X00725
X00695
X00665
X00635
X00605
X00575
X0059Y0299
X0062
X0065
X0068
X0071
X0074
X0077
X008
X0083
X0086
X0089
X0092
X0095
X0098
X0101
X01235Y0296
X01265
X01295
X01325
X01355
X01385
X01415
X01445
X01475
X0149Y0299
X0146
X0143
X014
X0137
X0134
X0131
X01325Y0302
X01355
X01385
X01415
X01445
X01475
X01505
X01535
X01625
X01655
X01685
X01715
X01745
X01775
X0176Y0299
X0173
X017
X01715Y0296
X01745
X01775
X0176Y0293
X0173
X017
X0167Y0305
X0164
X01655Y0308
X01685
X0167Y0311
X0164
X01655Y0314
X01685
X0167Y0317
X0164
X01655Y032
X01685
X0167Y0323
X0164
X01655Y0326
X01685
X0167Y0329
X0164
X01655Y0332
X01685
X0167Y0335
X0164
X01655Y0338
X01685
X0167Y0341
X0164
X01655Y0344
X01685
X0167Y0347
X0164
X01655Y035
X01685
X01625
Y0344
Y0338
Y0332
Y0326
Y032
Y0314
Y0308
X01475
X01445
X01415
X01385
X01355
X01325
X01295
X0131Y0311
X0134
X0137
X014
X0143
X0146
X01475Y0314
X01445
X01415
X0143Y0317
X0146
X01475Y032
X01445
X01415
X014Y0317
X0146Y0323
Y0305
X0143
X014
X0137
X0134
X0131
X01295Y0302
X0131Y0293
X0134
X0137
X014
X0143
X0146
X0149
X0128
X0125
X0122
X012Y026
X011125Y0265
X01125Y024875
X0115Y023625
X012375Y02375
X0123671Y0229951
X01225Y0224035
X0123671Y0219951
X01225Y0215965
X009625Y021625
X009125Y022
Y023875
Y024375
X009375Y024125
X0097549Y0237451
X0105Y0238451
X0085625Y0237689
X008375Y0244242
X009125Y025
X0081825Y025688
X0081339Y0260089
X008154Y0263054
X007725Y026525
X006875Y0265
X007125Y02625
X007365Y026005
X0076162Y025755
X0069375Y0248386
X0069621Y022125
X0070625Y0218125
X0056321Y021625
Y023175
X005625Y027
X009125Y02675
X009375Y027
X013125Y025125
X012875Y024875
X012625Y024625
X013376
X013625Y024375
X0138749Y0246875
X014875Y024375
Y024
Y023625
X014125Y02325
X014375Y022125
X014625Y021875
X014875Y021625
X01775Y0215
Y023375
X018625
X019875
X021125
X02105Y0218
X02075
X020625Y0276928
X0209Y0284
X0212
X02105Y0287
X0212Y029
X0209
X02105Y0293
X0212Y0296
X0209
X02
X0197
X0194
X0191
X0188
X0185
X01865Y0299
X01895
X01925
X01955
X01985
Y0293
X01955
X01925
X01895
X01865
X0188Y029
X0191
X0194
X0197
X02
X01985Y0287
X02Y0284
X0198769Y0280256
X0191Y0284
X0188
X0185
X01865Y0287
X01895
X0185Y029
Y0302
Y0308
X0188
X0185Y03125
Y0317
X0188
X01925Y03175
X0197Y0317
X02
Y032125
X01985Y0326
X01955
X01925
X01895
X01865
X0188Y0329
X0191
X0194
X0197
X02
X01985Y0332
X01955
X01925
X01895
X01865
X0188Y0335
X0191
X0194
X0197
X02
X01985Y0338
X01955
X01925
X01895
X01865
X0188Y0341
X0191
X0194
X0197
X02
X01985Y0344
X01955
X01925
X01895
X01865
X0185Y0347
Y0353
X0188
X0191
X0194
X0197
X02
Y0347
X02105Y0344
X0212Y0341
X0209
X02105Y0338
X0212Y0335
X0209
X02105Y0332
X0212Y0329
X0209
X02105Y0326
X0212Y0317
X0209
X02075Y03125
X0209Y0308
X0212
X02
X0197
X0185Y0323
Y0329
Y0335
Y0341
Y0362
X0188
X0191
X0194
X0197
X02
Y0368
X020625Y036625
X0209Y0362
X0212
Y0353
X0209
X018375Y036625
X0146Y0365
X0143
X014
X01415Y0362
X01445
X01475
X0143Y0341
X014
X018Y02775
X0165Y023625
X022375Y023375
X023625
X024875
X026125
X026625Y02375
X027375Y023
X02845Y02185
Y0216
Y02135
X02875
Y0216
Y02185
X03005Y0219
Y0222315
X0301Y02155
X03075Y021625
X0310085Y0213295
X0316875Y02125
X031625Y0225625
X0305Y0228125
Y0231447
Y024625
X02975Y0245
X0325319Y0236792
X0328285Y0237784
X033125
X0333003Y0224878
X033625Y0224738
X033Y022375
X034375Y0224738
X035125
X0356Y0226
X03575Y022875
Y0235625
Y0221
Y021625
X035625Y02125
X03375
X03375Y02775
X033375Y028125
X0335Y0284
X03335Y0287
X0335Y029
X0332
X0329
X0326
X0323
X032
X03215Y0293
X03245
X03275
X03305
X03335
X0335Y0296
X0332
X0329
X0326
X0323
X032Y02975
X0311Y0296
X0308
X0305
X0302
X0299
X03005Y0293
X03035
X03065
X03095
X03125
X0311Y029
X0308
X0305
X0302
X0299
X03005Y0287
X03035
X0302Y0284
X0299
X029
X028874Y028124
X02885Y0287
X029Y029
X0287
X0284
X0281
X0278
X0275
X02765Y0293
X02795
X02825
X02855
X02885
X029Y0296
X0287
X0284
X0281
X0278
X0275
X0266
X0263
X026
X0257
X0254
X02555Y0293
X02585
X02615
X02645
X02675
X0266Y029
X0263
X026
X0257
X0254
X02555Y0287
X02585
X0257Y0284
X0254
X0245
X024374Y028124
X02435Y0287
X0245Y029
X0242
X0239
X0236
X0233
X023
X02315Y0293
X02345
X02375
X02405
X02435
X0245Y0296
X0242
X0239
X0236
X0233
X023
X0221
X0218
X0215
X02165Y0293
X02195
X02225
X0221Y029
X0218
X0215
X02135Y0293
Y0287
X02225
X022124Y028124
X02255Y0274
X023Y0284
X0233
X0236
X02345Y0287
X02315
X02475Y02775
X026624Y028124
X02675Y0287
X02765
X02795
X0281Y0284
X0278
X0275
X027Y02775
X02925
X031124Y028124
X03125Y0287
X03215
X03245
X0326Y0284
X0323
X032
X0315Y02775
X0344Y0284
X0347
X03485Y0287
X03455
X0347Y029
X035
X0353
X0356
X03575Y0293
X03545
X03515
X03485
X03455
X0347Y0296
X035
X0353
X0356
X03575Y0287
X035625Y028125
X036Y02775
X0365Y0284
X0368
X03665Y0287
X0368Y029
X0365
X03665Y0293
X0368Y0296
X0365Y02975
Y0317
X0368
X0365Y0323
X03665Y0326
X0368Y0329
X0365
X03665Y0332
X0368Y0335
X0365
X03665Y0338
X0368Y0341
X0365
X03665Y0344
X0365Y0347
Y0353
X0368
Y0362
X0365
Y036625
X03575Y0365
X0356Y0362
X0353
X035
X0347
X0344
X03425Y036625
X0335Y0368
Y0362
X0332
X0329
X0326
X0323
X032
Y036625
X03125Y0365
X0311Y0362
X0308
X0305
X0302
X0299
X02975Y036625
X029Y0368
Y0362
X0287
X0284
X0281
X0278
X0275
Y036625
X02675Y0365
X0266Y0362
X0263
X026
X0257
X0254
X02525Y036625
X0245Y0368
Y0362
X0242
X0239
X0236
X0233
X023
X022875Y036625
X02225Y0365
X0221Y0362
X0218
X0215
Y0353
X0218
X0221
X02225Y035
Y0344
X02195
X02165
X02135
X0215Y0341
X0218
X0221
X02225Y0338
X02195
X02165
X02135
X0215Y0335
X0218
X0221
X02225Y0332
X02195
X02165
X02135
X0215Y0329
X0218
X0221
X02225Y0326
X02195
X02165
X02135
X0215Y03175
X0218Y0317
X0221
X02225Y032125
X023Y0323
X02315Y0326
X02345
X02375
X02405
X02435
X0245Y0329
X0242
X0239
X0236
X0233
X023
X02315Y0332
X02345
X02375
X02405
X02435
X0245Y0335
X0242
X0239
X0236
X0233
X023
X02315Y0338
X02345
X02375
X02405
X02435
X0245Y0341
X0242
X0239
X0236
X0233
X023
X02315Y0344
X02345
X02375
X02405
X02435
X0245Y0347
Y0353
X0242
X0239
X0236
X0233
X023
Y0347
X02555Y0344
X02585
X02615
X02645
X02675
X0266Y0341
X0263
X026
X0257
X0254
X02555Y0338
X02585
X02615
X02645
X02675
X0266Y0335
X0263
X026
X0257
X0254
X02555Y0332
X02585
X02615
X02645
X02675
X0266Y0329
X0263
X026
X0257
X0254
X02555Y0326
X02585
X02615
X02645
X02675
Y032125
X0266Y0317
X0263
X026Y03175
X0257Y0317
X0254
X02525Y03125
X0245Y0317
X0242
X02375Y03175
X0233Y0317
X023
Y03125
X0245Y032125
X0275Y0323
X02765Y0326
X02795
X02825
X02855
X02885
X029Y0329
X0287
X0284
X0281
X0278
X0275
X02765Y0332
X02795
X02825
X02855
X02885
X029Y0335
X0287
X0284
X0281
X0278
X0275
X02765Y0338
X02795
X02825
X02855
X02885
X029Y0341
X0287
X0284
X0281
X0278
X0275
X02765Y0344
X02795
X02825
X02855
X02885
X029Y0347
Y0353
X0287
X0284
X0281
X0278
X0275
Y0347
X02675Y035
X0266Y0353
X0263
X026
X0257
X0254
X0299
X0302
X0305
X0308
X0311
X03125Y035
Y0344
X03095
X03065
X03035
X03005
X0302Y0341
X0305
X0308
X0311
X03125Y0338
X03095
X03065
X03035
X03005
X0302Y0335
X0305
X0308
X0311
X03125Y0332
X03095
X03065
X03035
X03005
X0302Y0329
X0305
X0308
X0311
X03125Y0326
X03095
X03065
X03035
X03005
X0299Y0329
Y0335
Y0341
X032
X0323
X0326
X0329
X0332
X0335
X03335Y0344
X03305
X03275
X03245
X03215
X032Y0347
Y0353
X0323
X0326
X0329
X0332
X0335
Y0347
X03335Y0338
X03305
X03275
X03245
X03215
X0323Y0335
X0326
X0329
X0332
X0335
X03335Y0332
X03305
X03275
X03245
X03215
X0323Y0329
X0326
X0329
X0332
X0335
X03335Y0326
X03305
X03275
X03245
X03215
X032Y0329
Y0335
Y0323
Y0317
X0323
X03275Y03175
X0332Y0317
X0335Y032125
X0344Y0317
X0347
X035Y03175
X0353Y0317
X0356
X03575Y032125
Y0326
X03545
X03515
X03485
X03455
X0347Y0329
X035
X0353
X0356
X03575Y0332
X03545
X03515
X03485
X03455
X0347Y0335
X035
X0353
X0356
X03575Y0338
X03545
X03515
X03485
X03455
X0347Y0341
X035
X0353
X0356
X03575Y0344
X03545
X03515
X03485
X03455
X0344Y0341
Y0335
Y0329
Y0353
X0347
X035
X0353
X0356
X03575Y035
X03425Y0297541
X0344Y029
X0311Y0317
X0308
X0304921Y03175
X0302Y0317
X0299
X029375Y031875
X029Y0317
X0287
X02825Y03175
X0278Y0317
X0275
Y031375
X029Y032125
X03125
X03675Y025125
X02315Y0218
X02285
X02255
X02225
X02195
X02165
X02135
X0215Y0215
X0218
X0221
X0224
X0227
X023
X0370098Y0213563
X037Y02175
Y02225
X0369421Y0229451
X037Y023625
Y0240625
X038Y025125
X0385Y0258
X03825Y02775
X037874Y028125
X038Y0284
X03785Y0287
X038Y029
X0377
X0374
X0371
X03725Y0293
X03755
X03785
X038Y0296
X0377
X0374
X0371
X03695Y0293
Y0287
X0371Y0284
X0389
X0392
X03935Y0287
X03905
X0392Y029
X0395
X0398
X0401
X04025Y0293
X03995
X03965
X03935
X03905
X0392Y0296
X0395
X0398
X0401
X04025Y0287
X040125Y028125
X0405Y02775
X041Y0284
X0413
X0416
X04145Y0287
X04115
X0413Y029
X0416
X0419
X0422
X0425
X04235Y0293
X04205
X04175
X04145
X04115
X0413Y0296
X0416
X0419
X0422
X0425
X0432451Y0297541
X0437Y0296
X044
X0443
X0446
X04475Y0293
X04445
X04415
X04385
X04355
X0437Y029
X044
X0443
X0446
X04475Y0287
X044625Y028125
X0450012Y02775
X0455Y0284
X0458
X0461
X04595Y0287
X04565
X0458Y029
X0461
X0464
X0467
X047
X04685Y0293
X04655
X04625
X04595
X04565
X0458Y0296
X0461
X0464
X0467
X047
X04775Y029762
X0482Y0296
X0485
X0488
X0491
X04925Y0293
X04895
X04865
X04835
X04805
X0482Y029
X0485
X0488
X0491
X04925Y0287
X049125Y028125
X0495Y02775
X05Y0284
X0503
X0506
X05045Y0287
X05015
X0503Y029
X0506
X0509
X0512
X0515
X05135Y0293
X05105
X05075
X05045
X05015
X0503Y0296
X0506
X0509
X0512
X0515
X05225Y02975
X0524Y029
Y0284
X0515
X051375Y028125
X05135Y0287
X05175Y02775
Y0248125
X052375Y024625
X050625Y024875
X050125
X049875Y025125
X050375
X050875
X0517244Y023125
Y022791
X051875Y022125
X0515607Y0221306
X05125Y02225
X05015Y0218
X04985
X05Y0215
X048875Y02225
X0483022Y02325
Y0245
X0482Y0284
X0479
X04805Y0287
X04835
X0479Y029
X04685Y0287
X047Y0284
X046874Y028125
X04725Y02775
X0455Y029
Y0297541
Y0323
X04565Y0326
X04595
X04625
X04655
X04685
X047Y0329
X0467
X0464
X0461
X0458
X0455
X04565Y0332
X04595
X04625
X04655
X04685
X047Y0335
X0467
X0464
X0461
X0458
X0455
X04565Y0338
X04595
X04625
X04655
X04685
X047Y0341
X0467
X0464
X0461
X0458
X0455
X04565Y0344
X04595
X04625Y034375
X04655Y0344
X04685
X047Y0353
X0467
X0464
X0461
X0458
X0455
Y0347
X04475Y035
X0446Y0353
X0443
X044
X0437
X0434
X0425
X0422
X0419
X0416
X0413
X041
Y0347
X04115Y0344
X04145
X04175
X04205
X04235
X0425Y0347
Y0341
X0422
X0419
X0416
X0413
X041
X04115Y0338
X04145
X04175
X04205
X04235
X0425Y0335
X0422
X0419
X0416
X0413
X041
X04115Y0332
X04145
X04175
X04205
X04235
X0425Y0329
X0422
X0419
X0416
X0413
X041
X04115Y0326
X04145
X04175
X04205
X04235
X0425Y032125
X0422Y0317
X04175Y0317481
X0413Y0317
X041
Y0323
X04025Y032125
Y0326
X03995
X03965
X03935
X03905
X0392Y0329
X0395
X0398
X0401
X04025Y0332
X03995
X03965
X03935
X03905
X0392Y0335
X0395
X0398
X0401
X04025Y0338
X03995
X03965
X03935
X03905
X0392Y0341
X0395
X0398
X0401
X04025Y0344
X03995
X03965
X03935
X03905
X0389Y0341
Y0335
Y0329
X038
X0377
X0374
X0371
X03725Y0332
X03755
X03785
X038Y0335
X0377
X0374
X0371
X03725Y0338
X03755
X03785
X038Y0341
X0377
X0374
X0371
X03725Y0344
X03755
X03785
X038Y0347
Y0353
X0377
X0374
X0371
Y0362
X0374
X0377
X038
Y0368
X03875Y036625
X0389Y0362
X0392
X0395
X0398
X0401
X04025Y0365
X041Y036625
Y0362
X0413
X0416
X0419
X0422
X0425
Y0368
X04325Y036625
X0434Y0362
X0437
X044
X0443
X0446
X04475Y0365
X0455Y036625
Y0362
X0458
X0461
X0464
X0467
X047
Y0368
X04775Y036625
X0479Y0362
X0482
X0485
X0488
X0491
X04925Y0365
X05Y036625
Y0362
X0503
X0506
X0509
X0512
X0515
Y0368
X05225Y036625
X0524Y0362
X0515Y0353
X0512
X05075Y03525
X0503Y0353
X05
X0491
X0488
X0485Y03525
X0482Y0353
X0479
X04805Y0344
X04835
X04865
X04895
X04925
X0491Y0341
X0488
X0485
X0482
X0479
X04805Y0338
X04835
X04865
X04895
X04925
X0491Y0335
X0488
X0485
X0482
X0479
X04805Y0332
X04835
X04865
X04895
X04925
X0491Y0329
X0488
X0485
X0482
X0479
X04805Y0326
X04835
X04865
X04895
X04925
Y032125
X05Y0323
X05015Y0326
X05045
X05075
X05105
X05135
X0515Y0329
X0512
X0509
X0506
X0503
X05
X05015Y0332
X05045
X05075
X05105
X05135
X0515Y0335
X0512
X0509
X0506
X0503
X05
X05015Y0338
X05045
X05075
X05105
X05135
X0515Y0341
X0512
X0509
X0506
X0503
X05
X05015Y0344
X05045
X05075
X05105
X05135
X0524Y0341
Y0335
Y0329
X0515Y032125
X0499928Y029762
X05Y029
X047Y032125
X04475
Y0326
X04445
X04415
X04385
X04355
X0437Y0329
X044
X0443
X0446
X04475Y0332
X04445
X04415
X04385
X04355
X0437Y0335
X044
X0443
X0446
X04475Y0338
X04445
X04415
X04385
X04355
X0437Y0341
X044
X0443
X0446
X04475Y0344
X04445
X04415
X04385
X04355
X0434Y0341
Y0335
Y0329
X0440012Y0317481
X04385Y0287
X04355
X0437Y0284
X0434
Y029
X04235Y0287
X0425Y0284
X0423661Y0281161
X04275Y02775
X041Y029
Y0297541
X0387421
X0389Y029
Y0317
X0392
X0395019Y03175
X0398Y0317
X0401
X0377
X03725Y03175
Y0326
X03755
X03785
X038Y032125
X03695Y0326
Y0332
Y0338
Y0344
X0389Y0353
X0392
X0395
X0398
X0401
X04025Y035
X038875Y02375
X0387736Y021875
X0384619Y0217752
X0379272Y0218218
X0379921Y0221877
X038625Y02125
X0399911Y0214911
Y0218888
X0405Y0225
X04205Y0218
X04235
X04265
X04295
X04325
X04355
X04385
X04415
X04445
X04475
X0446Y0215
X0443
X044
X0437
X0434
X0431
X0428
X0521486Y021375
X053125
X05275Y0225625
X05422Y02243
X0547077Y0224173
X055225Y0224921
X05565Y0223163
X0565Y02225
X0566Y02185
X0563Y0218
Y0215
X0554193Y0215268
X0574Y0214067
X058Y0219
X0579921Y0222451
X058Y023
Y0240625
X0579375Y02475
X057Y025125
X0565Y024375
X056125Y024125
X055875Y0243125
X055625Y024
X054875Y024125
X0539094Y0238
X0535
X05275Y025125
X0527Y0284
X05285Y0287
X05255
X0527Y029
X053
X0533
X0536
X05375Y0293
X05345
X05315
X05285
X05255
X0527Y0296
X053
X0533
X0536
X05375Y0287
X0536289Y0281211
X054Y02775
X0545Y0284
X0548
X0551
X05495Y0287
X05465
X0548Y029
X0551
X0554
X0557
X056
X05585Y0293
X05555
X05525
X05495
X05465
X0548Y0296
X0551
X0554
X0557
X056
X05675Y02975
X0572Y0296
X0575
X0578
X0581
X05825Y0293
X05795
X05765
X05735
X05705
X0572Y029
X0575
X0578
X0581
X05825Y0287
X058125Y028125
X0572Y0284
X0569
X05705Y0287
X05735
X0569Y029
X05585Y0287
X056Y0284
X055875Y028125
X05625Y0277
X0545Y029
Y02975
Y0323
X05465Y0326
X05495
X05525
X05555
X05585
X056Y0329
X0557
X0554
X0551
X0548
X0545
X05465Y0332
X05495
X05525
X05555
X05585
X056Y0335
X0557
X0554
X0551
X0548
X0545
X05465Y0338
X05495
X05525
X05555
X05585
X056Y0341
X0557
X0554
X0551
X0548
X0545
X05465Y0344
X05495
X05525
X05555
X05585
X05705
X05735
X05765
X05795
X05825
X0581Y0341
X0578
X0575
X0572
X0569
X05705Y0338
X05735
X05765
X05795
X05825
X0581Y0335
X0578
X0575
X0572
X0569
X05705Y0332
X05735
X05765
X05795
X05825
X0581Y0329
X0578
X0575
X0572
X0569
X05705Y0326
X05735
X05765
X05795
X05825
X056Y032125
X05375
Y0326
X05345
X05315
X05285
X05255
X0527Y0329
X053
X0533
X0536
X05375Y0332
X05345
X05315
X05285
X05255
X0527Y0335
X053
X0533
X0536
X05375Y0338
X05345
X05315
X05285
X05255
X0527Y0341
X053
X0533
X0536
X05375Y0344
X05345
X05315
X05285
X05255
X053Y035625
Y0362
X0533
X0536
X05375Y0365
X0545Y036625
Y0362
X0548
X0551
X0554
X0557
X056
Y0368
X05675Y036625
X0569Y0362
X0572
X0575Y036125
X05825Y0365
X05525Y035875
X0527Y0362
X056625Y0235625
X0566875Y0230625
X0564375Y0228465
X0590275Y02275
X059125Y022375
X05915Y02205
X0591875Y0217234
X05825Y0371
X05795
X05765
X05735
X05705
X0572Y0374
X0575
X0578
X0581
X05825Y0377
X05795
X05765
X05735
X05705
X0572Y038
X0575
X0578
X0581
X05825Y0383
X05795
X05765
X05735
X05705
X0572Y0386
X0575
X0578
X0581
X0569
Y038
Y0374
X056
X0557
X0554
X0551
X0548
X0545
X05465Y0377
X05495
X05525
X05555
X05585
X056Y038
X0557
X0554
X0551
X0548
X0545
X05465Y0383
X05495
X05525
X05555
X05585
X056Y0386
X0557
X0554
X0551
X0548
X0545
X0536
X0533
X053
X0527
X05285Y0383
X05315
X05345
X05375
X0536Y038
X0533
X053
X0527
X05285Y0377
X05315
X05345
X05375
X0536Y0374
X0533
X053
X0527
X05285Y0371
X05315
X05345
X05375
X05465
X05495
X05525
X05555
X05585
X05255
Y0377
Y0383
X0524Y0386
Y038
Y0374
X0515
X0512
X0509
X0506
X0503
X05
X05015Y0377
X05045
X05075
X05105
X05135
X0515Y038
X0512
X0509
X0506
X0503
X05
X05015Y0383
X05045
X05075
X05105
X05135
X0515Y0386
X0512
X0509
X0506
X0503
X05
X0491
X0488
X0485
X0482
X0479
X04805Y0383
X04835
X04865
X04895
X04925
X0491Y038
X0488
X0485
X0482
X0479
X04805Y0377
X04835
X04865
X04895
X04925
X0491Y0374
X0488
X0485
X0482
X0479
X04805Y0371
X04835
X04865
X04895
X04925
X05015
X05045
X05075
X05105
X05135
X04685
X04655
X04625
X04595
X04565
X0458Y0374
X0461
X0464
X0467
X047
X04685Y0377
X04655
X04625
X04595
X04565
X0458Y038
X0461
X0464
X0467
X047
X04685Y0383
X04655
X04625
X04595
X04565
X0458Y0386
X0461
X0464
X0467
X047
X0455
Y038
Y0374
X0446
X0443
X044
X0437
X0434
X04355Y0377
X04385
X04415
X04445
X04475
X0446Y038
X0443
X044
X0437
X0434
X04355Y0383
X04385
X04415
X04445
X04475
X0446Y0386
X0443
X044
X0437
X0434
X0425
X0422
X0419
X0416
X0413
X041
X04115Y0383
X04145
X04175
X04205
X04235
X0425Y038
X0422
X0419
X0416
X0413
X041
X04115Y0377
X04145
X04175
X04205
X04235
X0425Y0374
X0422
X0419
X0416
X0413
X041
X04115Y0371
X04145
X04175
X04205
X04235
X04355
X04385
X04415
X04445
X04475
X04025
X03995
X03965
X03935
X03905
X0392Y0374
X0395
X0398
X0401
X04025Y0377
X03995
X03965
X03935
X03905
X0392Y038
X0395
X0398
X0401
X04025Y0383
X03995
X03965
X03935
X03905
X0392Y0386
X0395
X0398
X0401
X0389
Y038
Y0374
X038
X0377
X0374
X0371
X03725Y0377
X03755
X03785
X038Y038
X0377
X0374
X0371
X03725Y0383
X03755
X03785
X038Y0386
X0377
X0374
X0371
X03695Y0383
Y0377
Y0371
X03725
X03755
X03785
X03665
X0368Y0374
X0365
X03665Y0377
X0368Y038
X0365
X03665Y0383
X0368Y0386
X0365
X0356
X0353
X035
X0347
X0344
X03455Y0383
X03485
X03515
X03545
X03575
X0356Y038
X0353
X035
X0347
X0344
X03455Y0377
X03485
X03515
X03545
X03575
X0356Y0374
X0353
X035
X0347
X0344
X03455Y0371
X03485
X03515
X03545
X03575
X03335
X03305
X03275
X03245
X03215
X0323Y0374
X0326
X0329
X0332
X0335
X03335Y0377
X03305
X03275
X03245
X03215
X0323Y038
X0326
X0329
X0332
X0335
X03335Y0383
X03305
X03275
X03245
X03215
X0323Y0386
X0326
X0329
X0332
X0335
X032
Y038
Y0374
X0311
X0308
X0305
X0302
X0299
X03005Y0377
X03035
X03065
X03095
X03125
X0311Y038
X0308
X0305
X0302
X0299
X03005Y0383
X03035
X03065
X03095
X03125
X0311Y0386
X0308
X0305
X0302
X0299
X029
X0287
X0284
X0281
X0278
X0275
X02765Y0383
X02795
X02825
X02855
X02885
X029Y038
X0287
X0284
X0281
X0278
X0275
X02765Y0377
X02795
X02825
X02855
X02885
X029Y0374
X0287
X0284
X0281
X0278
X0275
X02765Y0371
X02795
X02825
X02855
X02885
X03005
X03035
X03065
X03095
X03125
X02675
X02645
X02615
X02585
X02555
X0257Y0374
X026
X0263
X0266
X02675Y0377
X02645
X02615
X02585
X02555
X0257Y038
X026
X0263
X0266
X02675Y0383
X02645
X02615
X02585
X02555
X0257Y0386
X026
X0263
X0266
X0254
Y038
Y0374
X0245
X0242
X0239
X0236
X0233
X023
X02315Y0377
X02345
X02375
X02405
X02435
X0245Y038
X0242
X0239
X0236
X0233
X023
X02315Y0383
X02345
X02375
X02405
X02435
X0245Y0386
X0242
X0239
X0236
X0233
X023
X0221
X0218
X0215
X02165Y0383
X02195
X02225
X0221Y038
X0218
X0215
X02165Y0377
X02195
X02225
X0221Y0374
X0218
X0215
X02165Y0371
X02195
X02225
X02315
X02345
X02375
X02405
X02435
X02135
Y0377
Y0383
X02105
X0212Y0386
X0209
Y038
X0212
X02105Y0377
X0212Y0374
X0209
X02105Y0371
X01985
X01955
X01925
X01895
X01865
X0188Y0374
X0191
X0194
X0197
X02
X01985Y0377
X01955
X01925
X01895
X01865
X0188Y038
X0191
X0194
X0197
X02
X01985Y0383
X01955
X01925
X01895
X01865
X0188Y0386
X0191
X0194
X0197
X02
X0185
Y038
Y0374
T02
X0395Y012
Y0178176
X042125Y018125
X041125Y020625
X019625
X01975Y0185
X02075Y018
X020375Y01625
X018Y017375
X0165Y018375
X0203125Y0120101
X0185Y024125
X02725
Y024625
X0485Y024875
X04925Y02225
T03
X053Y008875
X05375
X0545
X05525
X056
X05675
X0575
X05825Y0089375
X059Y008625
X05225Y008875
X0515
X05075
X05
X04925
X0485
X04775
X047
X04625Y0088125
X0455Y0086875
X0025Y01
X004Y028875
X0045Y029375
T04
X0065Y01325
X0075
X0085
Y01425
X0095
Y01325
X0105
Y01425
X0115
Y01325
X0135
Y01425
X0145
X0155
X0165
Y01325
X0155
X0145
Y01625
Y01725
X0155
Y01625
X0165
Y01725
Y01925
Y02025
X0155
Y01925
X0145
X0135
X0125
Y02025
X0135
X0145
X0135Y01725
Y01625
X0125
Y01725
X0104999
X0095
Y01625
X0104999
X0085
Y01725
X0075
X0065
Y01625
X0075
Y01425
X0065
Y01925
Y02025
X0075
X0085
X0095
X0104999
Y01925
X0095
X0085
X0075
X0055
X0045
Y02025
X0055
X0035
Y01925
X0025
Y02025
Y01725
X0035
X0045
Y01625
X0055
Y01725
X0035Y01625
X0025
Y01425
X0035
X0045
Y01325
X0055
Y01425
X0035Y01325
X0025
X003875Y007375
X004875
Y006375
X003875
X015375Y029625
X016375
T05
X0049213Y0026842
Y0038642
X007874
Y0026842
X0108268
Y0038642
X0137795
Y0026842
X0167323
Y0038642
X019685
Y0026842
X0226417
Y0038642
X0238216
X0250016
Y0026842
X0238216
X0261815
Y0038642
X0273618
Y0026842
X0285417
X0297217
X0309016
Y0038642
X0297217
X0285417
X0338622
Y0026842
X0350421
X0362221
Y0038642
X0350421
X037402
Y0026842
X0385823
Y0038642
X0397622
Y0026842
X0409421
X042122
Y0038642
X0409421
X0450799Y0038642
Y0026843
X046265
Y0038642
X0474449
Y0026843
X0486248
X0498047
Y0038642
X0486248
X0509846
Y0026843
X052165
Y0038642
X0533449
Y0026843
X0545248
X0557047
Y0038642
X0545248
X0568847
Y0026843
X0580697
Y0038642
T06
X0019685Y0019685
X0610236
Y0374016
X0019685
T07
X0049213Y0009843
X007874
X0108268
X0137795
X0167323
X019685
X0234866
X0300567
X0347071
X0412772
X0459248Y0009843
X0572248
M30
