G04*
G04 #@! TF.GenerationSoftware,Altium Limited,Altium Designer,21.4.1 (30)*
G04*
G04 Layer_Physical_Order=6*
G04 Layer_Color=16711680*
%FSLAX25Y25*%
%MOIN*%
G70*
G04*
G04 #@! TF.SameCoordinates,3F7B9525-E0B4-4A28-A4E6-3C1D8492A5F8*
G04*
G04*
G04 #@! TF.FilePolarity,Positive*
G04*
G01*
G75*
%ADD14C,0.01000*%
%ADD118C,0.03937*%
%ADD119C,0.00600*%
%ADD121C,0.01600*%
%ADD122C,0.06000*%
%ADD123C,0.06890*%
%ADD124C,0.27559*%
%ADD125C,0.02165*%
%ADD126C,0.02953*%
%ADD127C,0.02559*%
G36*
X360000Y360000D02*
X340000D01*
Y387500D01*
X360000D01*
Y360000D01*
D02*
G37*
G36*
X337500D02*
X317500D01*
Y387500D01*
X337500D01*
Y360000D01*
D02*
G37*
G36*
X315000D02*
X295000D01*
Y387500D01*
X315000D01*
Y360000D01*
D02*
G37*
G36*
X292500D02*
X272500D01*
Y387500D01*
X292500D01*
Y360000D01*
D02*
G37*
G36*
X270000D02*
X250000D01*
Y387500D01*
X270000D01*
Y360000D01*
D02*
G37*
G36*
X247500D02*
X227500D01*
Y387500D01*
X247500D01*
Y360000D01*
D02*
G37*
G36*
X225000D02*
X205000D01*
Y387500D01*
X225000D01*
Y360000D01*
D02*
G37*
G36*
X202500D02*
X182500D01*
Y387500D01*
X202500D01*
Y360000D01*
D02*
G37*
G36*
X103750Y296250D02*
X18750D01*
Y343750D01*
X25000D01*
Y358750D01*
X56250Y358750D01*
Y367500D01*
X103750D01*
Y296250D01*
D02*
G37*
G36*
X156250Y351250D02*
X137500Y351250D01*
Y368750D01*
X156250Y368750D01*
Y351250D01*
D02*
G37*
G36*
X147500Y332500D02*
X137500Y332500D01*
X137500Y350000D01*
X147500Y350000D01*
X147500Y332500D01*
D02*
G37*
G36*
X360000Y315000D02*
X340000D01*
Y355000D01*
X360000D01*
Y315000D01*
D02*
G37*
G36*
X337500D02*
X317500D01*
Y355000D01*
X337500D01*
Y315000D01*
D02*
G37*
G36*
X315000D02*
X295000D01*
Y317952D01*
X295147Y318172D01*
X295262Y318750D01*
X295147Y319328D01*
X295000Y319548D01*
Y355000D01*
X315000D01*
Y315000D01*
D02*
G37*
G36*
X292500Y319548D02*
X292353Y319328D01*
X292238Y318750D01*
X292353Y318172D01*
X292500Y317952D01*
Y315000D01*
X275798D01*
X275578Y315147D01*
X275000Y315262D01*
X274422Y315147D01*
X274202Y315000D01*
X272500D01*
Y355000D01*
X292500D01*
Y319548D01*
D02*
G37*
G36*
X270000Y315000D02*
X250000D01*
Y355000D01*
X270000D01*
Y315000D01*
D02*
G37*
G36*
X247500D02*
X227500D01*
Y355000D01*
X247500D01*
Y315000D01*
D02*
G37*
G36*
X225000D02*
X205000D01*
Y355000D01*
X225000D01*
Y315000D01*
D02*
G37*
G36*
X202500D02*
X182500D01*
Y355000D01*
X202500D01*
Y315000D01*
D02*
G37*
G36*
X178750Y368750D02*
X178750Y290000D01*
X161250D01*
X161250Y351250D01*
X157500Y351250D01*
Y368750D01*
X178750Y368750D01*
D02*
G37*
G36*
X156250Y350000D02*
X156250Y290000D01*
X120000Y290000D01*
X120000Y312500D01*
X137500D01*
Y330000D01*
X149169D01*
Y350000D01*
X156250Y350000D01*
D02*
G37*
G36*
X202500Y310001D02*
X202500Y282501D01*
X182500Y282501D01*
X182500Y310001D01*
X202500Y310001D01*
D02*
G37*
G36*
X225000Y310001D02*
X225000Y282501D01*
X222023Y282501D01*
X221819Y282637D01*
X221240Y282752D01*
X220662Y282637D01*
X220458Y282501D01*
X205000Y282501D01*
X205000Y310001D01*
X225000Y310001D01*
D02*
G37*
G36*
X337500Y310000D02*
X337500Y282501D01*
X334547Y282501D01*
X334329Y282647D01*
X333750Y282762D01*
X333172Y282647D01*
X332953Y282501D01*
X317500Y282501D01*
X317500Y310001D01*
X337500Y310000D01*
D02*
G37*
G36*
X360000Y310000D02*
X360000Y282501D01*
X357047Y282501D01*
X356828Y282647D01*
X356250Y282762D01*
X355672Y282647D01*
X355453Y282501D01*
X340000Y282501D01*
X340000Y310000D01*
X360000Y310000D01*
D02*
G37*
G36*
X270000Y310000D02*
X270000Y282500D01*
X267023Y282500D01*
X266819Y282637D01*
X266240Y282752D01*
X265662Y282637D01*
X265457Y282500D01*
X250000Y282500D01*
X250000Y310000D01*
X270000Y310000D01*
D02*
G37*
G36*
X247500D02*
X247500Y282500D01*
X244523Y282500D01*
X244319Y282637D01*
X243740Y282752D01*
X243162Y282637D01*
X242957Y282500D01*
X227500Y282500D01*
X227500Y310000D01*
X247500Y310000D01*
D02*
G37*
G36*
X315000Y310000D02*
X315000Y282500D01*
X312023Y282500D01*
X311819Y282637D01*
X311240Y282752D01*
X310662Y282637D01*
X310457Y282500D01*
X295000Y282500D01*
X295000Y310000D01*
X315000Y310000D01*
D02*
G37*
G36*
X292500D02*
X292500Y282500D01*
X289523Y282500D01*
X289319Y282637D01*
X288740Y282752D01*
X288162Y282637D01*
X287957Y282500D01*
X272500Y282500D01*
X272500Y310000D01*
X292500Y310000D01*
D02*
G37*
G36*
X330591Y225977D02*
X330745Y225745D01*
X331073Y225417D01*
X330754Y225029D01*
X330578Y225147D01*
X330000Y225262D01*
X329421Y225147D01*
X328931Y224819D01*
X328603Y224328D01*
X328488Y223750D01*
X328603Y223171D01*
X328873Y222769D01*
X328773Y222448D01*
X328651Y222269D01*
X302050D01*
X302012Y222315D01*
X301897Y222893D01*
X301569Y223384D01*
X301079Y223711D01*
X300500Y223827D01*
X299921Y223711D01*
X299431Y223384D01*
X299103Y222893D01*
X298988Y222315D01*
X299103Y221736D01*
X299431Y221246D01*
X299921Y220918D01*
X299951Y220912D01*
Y220403D01*
X299921Y220397D01*
X299431Y220069D01*
X299103Y219579D01*
X298988Y219000D01*
X299103Y218422D01*
X299431Y217931D01*
X299921Y217603D01*
X300500Y217488D01*
X301079Y217603D01*
X301569Y217931D01*
X301897Y218422D01*
X302012Y219000D01*
X301928Y219419D01*
X302296Y219786D01*
X303624D01*
X303815Y219324D01*
X301419Y216928D01*
X301000Y217012D01*
X300422Y216897D01*
X299931Y216569D01*
X299603Y216078D01*
X299488Y215500D01*
X299603Y214921D01*
X299931Y214431D01*
X300422Y214103D01*
X301000Y213988D01*
X301578Y214103D01*
X302069Y214431D01*
X302397Y214921D01*
X302512Y215500D01*
X302428Y215919D01*
X305296Y218786D01*
X338954D01*
X353572Y204169D01*
X353488Y203750D01*
X353603Y203171D01*
X353931Y202681D01*
X354421Y202353D01*
X355000Y202238D01*
X355578Y202353D01*
X355750Y202468D01*
X356250Y202201D01*
Y201009D01*
X354169Y198928D01*
X353750Y199012D01*
X353171Y198897D01*
X352681Y198569D01*
X352353Y198079D01*
X352238Y197500D01*
X352353Y196922D01*
X352681Y196431D01*
X353171Y196103D01*
X353750Y195988D01*
X354328Y196103D01*
X354819Y196431D01*
X354914Y196573D01*
X355444Y196467D01*
X355478Y196297D01*
X355806Y195806D01*
X356250Y195509D01*
Y194548D01*
X356103Y194328D01*
X355988Y193750D01*
X356103Y193172D01*
X356250Y192952D01*
Y166250D01*
X296250D01*
Y226250D01*
X330536D01*
X330591Y225977D01*
D02*
G37*
G36*
X585000Y360000D02*
X576549D01*
X576282Y360500D01*
X576397Y360671D01*
X576512Y361250D01*
X576397Y361828D01*
X576069Y362319D01*
X575578Y362647D01*
X575000Y362762D01*
X574422Y362647D01*
X573931Y362319D01*
X573603Y361828D01*
X573488Y361250D01*
X573603Y360671D01*
X573718Y360500D01*
X573451Y360000D01*
X565000D01*
Y387500D01*
X585000D01*
Y360000D01*
D02*
G37*
G36*
X562500D02*
X553298D01*
X553079Y360147D01*
X552500Y360262D01*
X551922Y360147D01*
X551702Y360000D01*
X542500D01*
Y387500D01*
X562500D01*
Y360000D01*
D02*
G37*
G36*
X540000D02*
X520000D01*
Y387500D01*
X540000D01*
Y360000D01*
D02*
G37*
G36*
X517500D02*
X497500D01*
Y387500D01*
X517500D01*
Y360000D01*
D02*
G37*
G36*
X495000D02*
X475000D01*
Y387500D01*
X495000D01*
Y360000D01*
D02*
G37*
G36*
X472500D02*
X452500D01*
Y387500D01*
X472500D01*
Y360000D01*
D02*
G37*
G36*
X450000D02*
X430000D01*
Y387500D01*
X450000D01*
Y360000D01*
D02*
G37*
G36*
X427500D02*
X407500D01*
Y387500D01*
X427500D01*
Y360000D01*
D02*
G37*
G36*
X405000D02*
X385000D01*
Y387500D01*
X405000D01*
Y360000D01*
D02*
G37*
G36*
X382500D02*
X362500D01*
Y387500D01*
X382500D01*
Y360000D01*
D02*
G37*
G36*
X585000Y315000D02*
X565000D01*
Y355000D01*
X585000D01*
Y315000D01*
D02*
G37*
G36*
X562500D02*
X542500D01*
Y355000D01*
X562500D01*
Y315000D01*
D02*
G37*
G36*
X540000D02*
X520000D01*
Y355000D01*
X540000D01*
Y315000D01*
D02*
G37*
G36*
X517500D02*
X497500D01*
Y355000D01*
X517500D01*
Y315000D01*
D02*
G37*
G36*
X495000D02*
X475000D01*
Y355000D01*
X495000D01*
Y315000D01*
D02*
G37*
G36*
X472500D02*
X452500D01*
Y355000D01*
X472500D01*
Y315000D01*
D02*
G37*
G36*
X450012D02*
X430012D01*
Y355000D01*
X450012D01*
Y315000D01*
D02*
G37*
G36*
X427500D02*
X407500D01*
Y355000D01*
X427500D01*
Y315000D01*
D02*
G37*
G36*
X405000D02*
X385000D01*
Y355000D01*
X405000D01*
Y315000D01*
D02*
G37*
G36*
X382500D02*
X362500D01*
Y355000D01*
X382500D01*
Y315000D01*
D02*
G37*
G36*
X382500Y310000D02*
X382500Y282500D01*
X379538Y282500D01*
X379319Y282647D01*
X378740Y282762D01*
X378162Y282647D01*
X377943Y282500D01*
X362500Y282501D01*
X362500Y310000D01*
X382500Y310000D01*
D02*
G37*
G36*
X405010Y310000D02*
X405010Y282500D01*
X402047Y282500D01*
X401828Y282647D01*
X401250Y282762D01*
X400671Y282647D01*
X400453Y282500D01*
X385010Y282500D01*
X385010Y310000D01*
X405010Y310000D01*
D02*
G37*
G36*
X427500Y310000D02*
X427500Y282500D01*
X424326Y282500D01*
X424240Y282558D01*
X423661Y282673D01*
X423083Y282558D01*
X422997Y282500D01*
X407500Y282500D01*
X407500Y310000D01*
X427500Y310000D01*
D02*
G37*
G36*
X450012Y310000D02*
X450012Y282500D01*
X447048Y282500D01*
X446829Y282647D01*
X446250Y282762D01*
X445672Y282647D01*
X445452Y282500D01*
X430012Y282500D01*
X430012Y310000D01*
X450012Y310000D01*
D02*
G37*
G36*
X472500Y310000D02*
X472500Y282500D01*
X469538Y282500D01*
X469319Y282647D01*
X468740Y282762D01*
X468162Y282647D01*
X467942Y282500D01*
X452500Y282500D01*
X452500Y310000D01*
X472500Y310000D01*
D02*
G37*
G36*
X517500Y310000D02*
X517500Y282500D01*
X514548Y282500D01*
X514328Y282647D01*
X513750Y282762D01*
X513171Y282647D01*
X512952Y282500D01*
X497500Y282500D01*
X497500Y310000D01*
X517500Y310000D01*
D02*
G37*
G36*
X540000Y310000D02*
X540000Y282500D01*
X537028Y282500D01*
X536868Y282608D01*
X536289Y282723D01*
X535711Y282608D01*
X535550Y282500D01*
X520000Y282500D01*
X520000Y310000D01*
X540000Y310000D01*
D02*
G37*
G36*
X562500Y310000D02*
X562500Y282500D01*
X559548Y282500D01*
X559329Y282647D01*
X558750Y282762D01*
X558172Y282647D01*
X557952Y282500D01*
X542500Y282500D01*
X542500Y310000D01*
X562500Y310000D01*
D02*
G37*
G36*
X495000D02*
X495000Y282500D01*
X492048Y282500D01*
X491828Y282647D01*
X491250Y282762D01*
X490671Y282647D01*
X490452Y282500D01*
X475000Y282500D01*
X475000Y310000D01*
X495000Y310000D01*
D02*
G37*
G36*
X585000Y310000D02*
X585000Y282500D01*
X582048Y282500D01*
X581828Y282647D01*
X581250Y282762D01*
X580672Y282647D01*
X580452Y282500D01*
X565000Y282500D01*
X565000Y310000D01*
X585000Y310000D01*
D02*
G37*
G36*
X566250Y224049D02*
X565750Y223782D01*
X565579Y223897D01*
X565000Y224012D01*
X564422Y223897D01*
X563931Y223569D01*
X563603Y223078D01*
X563488Y222500D01*
X563603Y221921D01*
X563931Y221431D01*
X564422Y221103D01*
X565000Y220988D01*
X565579Y221103D01*
X565750Y221218D01*
X566250Y220951D01*
Y220217D01*
X566000Y220012D01*
X565421Y219897D01*
X564931Y219569D01*
X564634Y219124D01*
X564385Y219063D01*
X564086Y219043D01*
X564069Y219069D01*
X563579Y219397D01*
X563000Y219512D01*
X562422Y219397D01*
X561931Y219069D01*
X561694Y218714D01*
X556924D01*
X556651Y218659D01*
X556420Y218505D01*
X554612Y216697D01*
X554193Y216780D01*
X553614Y216665D01*
X553124Y216337D01*
X552796Y215847D01*
X552681Y215268D01*
X552796Y214690D01*
X553124Y214199D01*
X553614Y213872D01*
X554193Y213757D01*
X554771Y213872D01*
X555262Y214199D01*
X555589Y214690D01*
X555704Y215268D01*
X555621Y215687D01*
X557220Y217286D01*
X561694D01*
X561931Y216931D01*
X562126Y216801D01*
Y216199D01*
X561931Y216069D01*
X561603Y215579D01*
X561488Y215000D01*
X561572Y214581D01*
X553515Y206524D01*
X553360Y206292D01*
X553306Y206019D01*
Y200056D01*
X552950Y199819D01*
X552623Y199328D01*
X552508Y198750D01*
X552623Y198171D01*
X552950Y197681D01*
X553441Y197353D01*
X554019Y197238D01*
X554598Y197353D01*
X555088Y197681D01*
X555416Y198171D01*
X555531Y198750D01*
X555416Y199328D01*
X555088Y199819D01*
X554733Y200056D01*
Y205724D01*
X562581Y213572D01*
X563000Y213488D01*
X563579Y213603D01*
X564069Y213931D01*
X564397Y214422D01*
X564512Y215000D01*
X564397Y215579D01*
X564069Y216069D01*
X563874Y216199D01*
Y216801D01*
X564069Y216931D01*
X564366Y217376D01*
X564615Y217437D01*
X564895Y217456D01*
X565286Y217127D01*
Y216500D01*
X565341Y216227D01*
X565495Y215995D01*
X566250Y215241D01*
Y211230D01*
X566065Y211162D01*
X565629Y211536D01*
X565645Y211617D01*
X565530Y212195D01*
X565202Y212686D01*
X564712Y213013D01*
X564133Y213128D01*
X563555Y213013D01*
X563064Y212686D01*
X562737Y212195D01*
X562622Y211617D01*
X562737Y211038D01*
X563064Y210548D01*
X563555Y210220D01*
X564133Y210105D01*
X564425Y210163D01*
X564461Y210145D01*
X564810Y209730D01*
X564738Y209371D01*
X564793Y209097D01*
X564380Y208670D01*
X564242Y208697D01*
X563663Y208582D01*
X563173Y208254D01*
X562845Y207764D01*
X562730Y207185D01*
X562845Y206607D01*
X563173Y206116D01*
X563663Y205789D01*
X564242Y205674D01*
X564380Y205701D01*
X564793Y205273D01*
X564738Y205000D01*
X564853Y204421D01*
X565181Y203931D01*
X565671Y203603D01*
X566250Y203488D01*
Y199456D01*
X564469Y197675D01*
X564050Y197758D01*
X563472Y197643D01*
X562981Y197316D01*
X562653Y196825D01*
X562538Y196247D01*
X562653Y195668D01*
X562981Y195178D01*
X563301Y194964D01*
X563149Y194464D01*
X556519D01*
X556246Y194409D01*
X556015Y194255D01*
X554169Y192409D01*
X553750Y192492D01*
X553171Y192377D01*
X552681Y192050D01*
X552353Y191559D01*
X552238Y190981D01*
X552353Y190402D01*
X552681Y189912D01*
X553171Y189584D01*
X553750Y189469D01*
X554328Y189584D01*
X554819Y189912D01*
X555147Y190402D01*
X555262Y190981D01*
X555178Y191400D01*
X556815Y193036D01*
X562570D01*
X562777Y192536D01*
X561995Y191755D01*
X561841Y191523D01*
X561786Y191250D01*
Y188125D01*
X561841Y187852D01*
X561995Y187620D01*
X564121Y185494D01*
X564077Y184916D01*
X563931Y184819D01*
X563603Y184328D01*
X563488Y183750D01*
X563603Y183171D01*
X563931Y182681D01*
X564422Y182353D01*
X565000Y182238D01*
X565579Y182353D01*
X565750Y182468D01*
X566250Y182201D01*
Y166250D01*
X506250D01*
Y183337D01*
X506712Y183529D01*
X507290Y182950D01*
X507522Y182796D01*
X507795Y182741D01*
X517444D01*
X517681Y182386D01*
X518172Y182058D01*
X518750Y181943D01*
X519328Y182058D01*
X519819Y182386D01*
X520147Y182877D01*
X520262Y183455D01*
X520147Y184034D01*
X519819Y184524D01*
X519328Y184852D01*
X518750Y184967D01*
X518172Y184852D01*
X517681Y184524D01*
X517444Y184169D01*
X508091D01*
X506964Y185296D01*
Y199607D01*
X510687Y203330D01*
X510842Y203562D01*
X510896Y203835D01*
Y208817D01*
X510842Y209090D01*
X510687Y209322D01*
X506964Y213046D01*
Y223454D01*
X509759Y226250D01*
X511786D01*
Y223806D01*
X511431Y223569D01*
X511103Y223078D01*
X510988Y222500D01*
X511103Y221921D01*
X511431Y221431D01*
X511922Y221103D01*
X512500Y220988D01*
X513078Y221103D01*
X513569Y221431D01*
X513628Y221519D01*
X514099Y221324D01*
X514095Y221306D01*
X514210Y220728D01*
X514538Y220237D01*
X515028Y219910D01*
X515607Y219795D01*
X516185Y219910D01*
X516676Y220237D01*
X516882Y220546D01*
X516976Y220571D01*
X517438Y220545D01*
X517681Y220181D01*
X518172Y219853D01*
X518750Y219738D01*
X519328Y219853D01*
X519819Y220181D01*
X520147Y220672D01*
X520262Y221250D01*
X520147Y221829D01*
X519819Y222319D01*
X519520Y222519D01*
Y223694D01*
X519466Y223967D01*
X519311Y224198D01*
X518005Y225505D01*
X517773Y225659D01*
X517500Y225714D01*
X516982D01*
X516957Y225750D01*
X517225Y226250D01*
X539241D01*
X540772Y224719D01*
X540688Y224300D01*
X540803Y223722D01*
X541131Y223231D01*
X541621Y222903D01*
X542200Y222788D01*
X542778Y222903D01*
X543269Y223231D01*
X543597Y223722D01*
X543712Y224300D01*
X543597Y224879D01*
X543269Y225369D01*
X542778Y225697D01*
X542510Y225750D01*
X542560Y226250D01*
X550753D01*
X551021Y225750D01*
X550853Y225499D01*
X550738Y224921D01*
X550853Y224342D01*
X551181Y223852D01*
X551672Y223524D01*
X552250Y223409D01*
X552829Y223524D01*
X553319Y223852D01*
X553647Y224342D01*
X553762Y224921D01*
X553647Y225499D01*
X553479Y225750D01*
X553747Y226250D01*
X566250D01*
Y224049D01*
D02*
G37*
%LPC*%
G36*
X307500Y217762D02*
X306922Y217647D01*
X306431Y217319D01*
X306103Y216828D01*
X305988Y216250D01*
X306103Y215671D01*
X306431Y215181D01*
X306922Y214853D01*
X307500Y214738D01*
X308079Y214853D01*
X308569Y215181D01*
X308897Y215671D01*
X309012Y216250D01*
X308897Y216828D01*
X308569Y217319D01*
X308079Y217647D01*
X307500Y217762D01*
D02*
G37*
G36*
X310085Y214807D02*
X309507Y214692D01*
X309016Y214364D01*
X308689Y213874D01*
X308574Y213295D01*
X308689Y212717D01*
X309016Y212226D01*
X309507Y211899D01*
X310085Y211784D01*
X310664Y211899D01*
X311154Y212226D01*
X311482Y212717D01*
X311597Y213295D01*
X311482Y213874D01*
X311154Y214364D01*
X310664Y214692D01*
X310085Y214807D01*
D02*
G37*
G36*
X337500Y214012D02*
X336922Y213897D01*
X336431Y213569D01*
X336103Y213078D01*
X335988Y212500D01*
X336103Y211922D01*
X336431Y211431D01*
X336922Y211103D01*
X337500Y210988D01*
X338078Y211103D01*
X338569Y211431D01*
X338897Y211922D01*
X339012Y212500D01*
X338897Y213078D01*
X338569Y213569D01*
X338078Y213897D01*
X337500Y214012D01*
D02*
G37*
G36*
X313455Y212898D02*
X312877Y212783D01*
X312386Y212456D01*
X312058Y211965D01*
X311943Y211387D01*
X312058Y210808D01*
X312386Y210318D01*
X312877Y209990D01*
X313455Y209875D01*
X314034Y209990D01*
X314524Y210318D01*
X314852Y210808D01*
X314967Y211387D01*
X314852Y211965D01*
X314524Y212456D01*
X314034Y212783D01*
X313455Y212898D01*
D02*
G37*
G36*
X316875Y214012D02*
X316297Y213897D01*
X315806Y213569D01*
X315478Y213078D01*
X315363Y212500D01*
X315478Y211922D01*
X315806Y211431D01*
X316297Y211103D01*
X316875Y210988D01*
X317454Y211103D01*
X317944Y211431D01*
X318044Y211581D01*
X318515Y211386D01*
X318488Y211250D01*
X318603Y210671D01*
X318931Y210181D01*
X319422Y209853D01*
X320000Y209738D01*
X320579Y209853D01*
X321069Y210181D01*
X321397Y210671D01*
X321512Y211250D01*
X321397Y211828D01*
X321069Y212319D01*
X320579Y212647D01*
X320000Y212762D01*
X319422Y212647D01*
X318931Y212319D01*
X318831Y212169D01*
X318360Y212364D01*
X318387Y212500D01*
X318272Y213078D01*
X317944Y213569D01*
X317454Y213897D01*
X316875Y214012D01*
D02*
G37*
G36*
X547077Y225685D02*
X546498Y225570D01*
X546008Y225242D01*
X545680Y224751D01*
X545565Y224173D01*
X545680Y223594D01*
X546008Y223104D01*
X546498Y222776D01*
X547077Y222661D01*
X547655Y222776D01*
X548146Y223104D01*
X548474Y223594D01*
X548589Y224173D01*
X548474Y224751D01*
X548146Y225242D01*
X547655Y225570D01*
X547077Y225685D01*
D02*
G37*
G36*
X556500Y224675D02*
X555922Y224560D01*
X555431Y224232D01*
X555103Y223742D01*
X554988Y223163D01*
X555103Y222585D01*
X555431Y222094D01*
X555922Y221767D01*
X556500Y221652D01*
X557079Y221767D01*
X557569Y222094D01*
X557897Y222585D01*
X558012Y223163D01*
X557897Y223742D01*
X557569Y224232D01*
X557079Y224560D01*
X556500Y224675D01*
D02*
G37*
G36*
X531250Y215262D02*
X530672Y215147D01*
X530181Y214819D01*
X529853Y214329D01*
X529738Y213750D01*
X529853Y213172D01*
X530181Y212681D01*
X530672Y212353D01*
X531250Y212238D01*
X531828Y212353D01*
X532319Y212681D01*
X532647Y213172D01*
X532762Y213750D01*
X532647Y214329D01*
X532319Y214819D01*
X531828Y215147D01*
X531250Y215262D01*
D02*
G37*
G36*
X521486D02*
X520908Y215147D01*
X520417Y214819D01*
X520090Y214329D01*
X519975Y213750D01*
X520090Y213172D01*
X520417Y212681D01*
X520908Y212353D01*
X521486Y212238D01*
X522065Y212353D01*
X522555Y212681D01*
X522883Y213172D01*
X522998Y213750D01*
X522883Y214329D01*
X522555Y214819D01*
X522065Y215147D01*
X521486Y215262D01*
D02*
G37*
G36*
X539203Y213912D02*
X538624Y213797D01*
X538134Y213469D01*
X537806Y212979D01*
X537691Y212400D01*
X537806Y211822D01*
X538134Y211331D01*
X538624Y211003D01*
X539203Y210888D01*
X539781Y211003D01*
X540272Y211331D01*
X540599Y211822D01*
X540715Y212400D01*
X540599Y212979D01*
X540272Y213469D01*
X539781Y213797D01*
X539203Y213912D01*
D02*
G37*
G36*
X528750Y211512D02*
X528171Y211397D01*
X527681Y211069D01*
X527353Y210578D01*
X527238Y210000D01*
X527353Y209421D01*
X527681Y208931D01*
X528171Y208603D01*
X528750Y208488D01*
X529328Y208603D01*
X529819Y208931D01*
X530147Y209421D01*
X530262Y210000D01*
X530147Y210578D01*
X529819Y211069D01*
X529328Y211397D01*
X528750Y211512D01*
D02*
G37*
G36*
X525000D02*
X524422Y211397D01*
X523931Y211069D01*
X523603Y210578D01*
X523488Y210000D01*
X523603Y209421D01*
X523931Y208931D01*
X524422Y208603D01*
X525000Y208488D01*
X525578Y208603D01*
X526069Y208931D01*
X526397Y209421D01*
X526512Y210000D01*
X526397Y210578D01*
X526069Y211069D01*
X525578Y211397D01*
X525000Y211512D01*
D02*
G37*
G36*
X549045Y211217D02*
X548466Y211102D01*
X547976Y210774D01*
X547648Y210283D01*
X547533Y209705D01*
X547648Y209126D01*
X547976Y208636D01*
X548466Y208308D01*
X549045Y208193D01*
X549623Y208308D01*
X550114Y208636D01*
X550442Y209126D01*
X550557Y209705D01*
X550442Y210283D01*
X550114Y210774D01*
X549623Y211102D01*
X549045Y211217D01*
D02*
G37*
G36*
X563750Y204012D02*
X563171Y203897D01*
X562681Y203569D01*
X562353Y203079D01*
X562238Y202500D01*
X562353Y201922D01*
X562681Y201431D01*
X563171Y201103D01*
X563750Y200988D01*
X564328Y201103D01*
X564819Y201431D01*
X565147Y201922D01*
X565262Y202500D01*
X565147Y203079D01*
X564819Y203569D01*
X564328Y203897D01*
X563750Y204012D01*
D02*
G37*
G36*
X518750Y204637D02*
X518172Y204522D01*
X517681Y204194D01*
X517353Y203703D01*
X517238Y203125D01*
X517353Y202547D01*
X517681Y202056D01*
X518004Y201840D01*
X518011Y201822D01*
Y201303D01*
X518004Y201285D01*
X517681Y201069D01*
X517353Y200578D01*
X517238Y200000D01*
X517353Y199422D01*
X517681Y198931D01*
X518172Y198603D01*
X518750Y198488D01*
X519328Y198603D01*
X519819Y198931D01*
X520147Y199422D01*
X520262Y200000D01*
X520147Y200578D01*
X519819Y201069D01*
X519496Y201285D01*
X519489Y201303D01*
Y201822D01*
X519496Y201840D01*
X519819Y202056D01*
X520147Y202547D01*
X520262Y203125D01*
X520147Y203703D01*
X519819Y204194D01*
X519328Y204522D01*
X518750Y204637D01*
D02*
G37*
G36*
Y197762D02*
X518172Y197647D01*
X517681Y197319D01*
X517353Y196828D01*
X517238Y196250D01*
X517353Y195671D01*
X517681Y195181D01*
X518172Y194853D01*
X518750Y194738D01*
X519328Y194853D01*
X519819Y195181D01*
X520147Y195671D01*
X520262Y196250D01*
X520147Y196828D01*
X519819Y197319D01*
X519328Y197647D01*
X518750Y197762D01*
D02*
G37*
G36*
Y194012D02*
X518172Y193897D01*
X517681Y193569D01*
X517353Y193078D01*
X517238Y192500D01*
X517353Y191921D01*
X517681Y191431D01*
X518172Y191103D01*
X518750Y190988D01*
X519328Y191103D01*
X519819Y191431D01*
X520147Y191921D01*
X520262Y192500D01*
X520147Y193078D01*
X519819Y193569D01*
X519328Y193897D01*
X518750Y194012D01*
D02*
G37*
G36*
Y190262D02*
X518172Y190147D01*
X517681Y189819D01*
X517353Y189329D01*
X517238Y188750D01*
X517353Y188172D01*
X517681Y187681D01*
X518172Y187353D01*
X518750Y187238D01*
X519328Y187353D01*
X519819Y187681D01*
X520147Y188172D01*
X520262Y188750D01*
X520147Y189329D01*
X519819Y189819D01*
X519328Y190147D01*
X518750Y190262D01*
D02*
G37*
G36*
X528750Y184012D02*
X528171Y183897D01*
X527681Y183569D01*
X527353Y183079D01*
X527238Y182500D01*
X527353Y181922D01*
X527681Y181431D01*
X528171Y181103D01*
X528750Y180988D01*
X529328Y181103D01*
X529819Y181431D01*
X530147Y181922D01*
X530262Y182500D01*
X530147Y183079D01*
X529819Y183569D01*
X529328Y183897D01*
X528750Y184012D01*
D02*
G37*
G36*
X545649Y180262D02*
X545071Y180147D01*
X544580Y179819D01*
X544352Y179478D01*
X544301Y179461D01*
X543848D01*
X543797Y179478D01*
X543569Y179819D01*
X543079Y180147D01*
X542500Y180262D01*
X541922Y180147D01*
X541431Y179819D01*
X541103Y179329D01*
X540988Y178750D01*
X541103Y178172D01*
X541431Y177681D01*
X541922Y177353D01*
X542500Y177238D01*
X543079Y177353D01*
X543569Y177681D01*
X543797Y178022D01*
X543848Y178039D01*
X544301D01*
X544352Y178022D01*
X544580Y177681D01*
X545071Y177353D01*
X545649Y177238D01*
X546228Y177353D01*
X546718Y177681D01*
X547046Y178172D01*
X547161Y178750D01*
X547046Y179329D01*
X546718Y179819D01*
X546228Y180147D01*
X545649Y180262D01*
D02*
G37*
G36*
X531250Y181512D02*
X530672Y181397D01*
X530181Y181069D01*
X529853Y180578D01*
X529738Y180000D01*
X529853Y179421D01*
X530181Y178931D01*
X530672Y178603D01*
X531250Y178488D01*
X531828Y178603D01*
X532319Y178931D01*
X532647Y179421D01*
X532762Y180000D01*
X532647Y180578D01*
X532319Y181069D01*
X531828Y181397D01*
X531250Y181512D01*
D02*
G37*
G36*
X538788Y180262D02*
X538210Y180147D01*
X537719Y179819D01*
X537392Y179329D01*
X537277Y178750D01*
X537392Y178172D01*
X537719Y177681D01*
X538210Y177353D01*
X538788Y177238D01*
X539367Y177353D01*
X539857Y177681D01*
X540185Y178172D01*
X540300Y178750D01*
X540185Y179329D01*
X539857Y179819D01*
X539367Y180147D01*
X538788Y180262D01*
D02*
G37*
G36*
X535000D02*
X534421Y180147D01*
X533931Y179819D01*
X533603Y179329D01*
X533488Y178750D01*
X533603Y178172D01*
X533931Y177681D01*
X534421Y177353D01*
X535000Y177238D01*
X535578Y177353D01*
X536069Y177681D01*
X536397Y178172D01*
X536512Y178750D01*
X536397Y179329D01*
X536069Y179819D01*
X535578Y180147D01*
X535000Y180262D01*
D02*
G37*
G36*
X553750Y179720D02*
X553171Y179605D01*
X552681Y179278D01*
X552353Y178787D01*
X552238Y178209D01*
X552353Y177630D01*
X552681Y177140D01*
X553171Y176812D01*
X553750Y176697D01*
X554328Y176812D01*
X554819Y177140D01*
X555147Y177630D01*
X555262Y178209D01*
X555147Y178787D01*
X554819Y179278D01*
X554328Y179605D01*
X553750Y179720D01*
D02*
G37*
G36*
X562500Y178982D02*
X561922Y178867D01*
X561431Y178539D01*
X561103Y178049D01*
X560988Y177470D01*
X561103Y176892D01*
X561431Y176401D01*
X561922Y176073D01*
X562500Y175958D01*
X563078Y176073D01*
X563569Y176401D01*
X563897Y176892D01*
X564012Y177470D01*
X563897Y178049D01*
X563569Y178539D01*
X563078Y178867D01*
X562500Y178982D01*
D02*
G37*
%LPD*%
D14*
X370625Y83750D02*
X376758Y77617D01*
Y72998D02*
Y77617D01*
Y72998D02*
X382568Y67188D01*
X418415Y43753D02*
X428747D01*
X382568Y67188D02*
X413682D01*
X431875Y48995D01*
X295625Y93125D02*
X318750Y70000D01*
Y45625D02*
Y70000D01*
X207456Y93125D02*
X295625D01*
X312736Y84767D02*
Y93750D01*
Y84767D02*
X313753Y83750D01*
X311436Y95050D02*
X312736Y93750D01*
X431875Y45625D02*
Y48995D01*
X363125Y83750D02*
X370625D01*
X337165Y43753D02*
X348415D01*
X428125Y43750D02*
X428744D01*
X428747Y43753D01*
X307500Y43750D02*
X315000D01*
X295625D02*
X307500D01*
X283750D02*
X295625D01*
X271875D02*
X283750D01*
X260000D02*
X271875D01*
X248750D02*
X260000D01*
X236875D02*
X248750D01*
X225625D02*
X236875D01*
X197416Y103165D02*
X207456Y93125D01*
X208253Y95050D02*
X311436D01*
X176250Y186250D02*
X177500Y187500D01*
X176250Y167500D02*
Y186250D01*
Y167500D02*
X185000Y158750D01*
Y168750D02*
Y187500D01*
Y168750D02*
X187500Y166250D01*
X198750D01*
X185000Y158750D02*
X200670D01*
X408750Y156250D02*
X416250Y163750D01*
X397500Y186250D02*
X401250Y182500D01*
Y157500D02*
Y182500D01*
Y157500D02*
X402500Y156250D01*
X408750D01*
X402500Y186250D02*
X403750Y185000D01*
Y160000D02*
Y185000D01*
Y160000D02*
X405000Y158750D01*
X407500D01*
X136835Y103165D02*
X197416D01*
X198303Y105000D02*
X208253Y95050D01*
X137500Y105000D02*
X198303D01*
X126483Y116017D02*
X137500Y105000D01*
X123750Y116250D02*
X136835Y103165D01*
X126483Y116017D02*
Y131250D01*
X370915Y43753D02*
X383415D01*
X395915D01*
X313753Y83750D02*
X314567D01*
X363125Y83750D01*
X348415Y43753D02*
X359665D01*
X370915D01*
X395915D02*
X407165D01*
X418415D01*
D118*
X234866Y9843D02*
D03*
X300567D02*
D03*
X459248Y9843D02*
D03*
X572248D02*
D03*
X196850Y9843D02*
D03*
X137795D02*
D03*
X347071D02*
D03*
X412772D02*
D03*
X167323D02*
D03*
X108268D02*
D03*
X78740D02*
D03*
X49213D02*
D03*
D119*
X80696Y263054D02*
X81540D01*
X387736Y218750D02*
Y234764D01*
X386567Y235933D02*
X387736Y234764D01*
X386567Y235933D02*
Y244683D01*
X344108Y221555D02*
X355990Y209673D01*
X301260Y221555D02*
X344108D01*
X353817Y224683D02*
X357500Y221000D01*
X353817Y224683D02*
Y225257D01*
X352154Y226920D02*
X353817Y225257D01*
X350346Y226920D02*
X352154D01*
X540000Y272500D02*
X568683Y243817D01*
Y232433D02*
Y243817D01*
X566875Y230625D02*
X568683Y232433D01*
X565000Y243750D02*
Y244971D01*
X515000Y226250D02*
Y257500D01*
X513750Y225300D02*
Y257336D01*
X515000Y226250D02*
X516250Y225000D01*
X513750Y225300D02*
X515607Y223443D01*
X558750Y243125D02*
Y246250D01*
X536299Y268701D02*
X558750Y246250D01*
X534080Y267451D02*
X556250Y245281D01*
Y240000D02*
Y245281D01*
X561250Y241250D02*
Y246837D01*
X538087Y270000D02*
X561250Y246837D01*
X538721Y271250D02*
X565000Y244971D01*
X517508Y270000D02*
X538087D01*
X489799Y271250D02*
X538721D01*
X208750Y96250D02*
X312500D01*
X207500Y97500D02*
X208750Y96250D01*
X312500D02*
X313750Y95000D01*
X370625Y91250D02*
X468750Y91250D01*
X366869Y87494D02*
X370625Y91250D01*
X468750Y91250D02*
X470000Y90000D01*
X462500Y88125D02*
Y88750D01*
X378125D02*
X382500Y84375D01*
X251875Y85000D02*
X267500D01*
X250000Y83125D02*
X251875Y85000D01*
X250000Y78125D02*
Y83125D01*
X170000Y148607D02*
X170866Y147741D01*
X377500Y111875D02*
X379424Y109951D01*
X581250D01*
X376500Y109750D02*
X377549Y108701D01*
X369625Y109750D02*
X376500D01*
X367500Y111875D02*
X369625Y109750D01*
X362500Y103750D02*
X370000D01*
X361250Y105000D02*
X362500Y103750D01*
X370000D02*
X371299Y102451D01*
X363750Y95000D02*
X491250D01*
X365049Y96201D02*
X498750D01*
X366299Y97451D02*
X506250D01*
X367549Y98701D02*
X513750D01*
X368799Y99951D02*
X521250D01*
X370049Y101201D02*
X528750D01*
X371299Y102451D02*
X536250D01*
X372549Y103701D02*
X543750D01*
X373799Y104951D02*
X551250D01*
X362500Y93750D02*
X483750D01*
X380375Y80875D02*
X384625D01*
X375929Y85321D02*
X380375Y80875D01*
X381250Y81875D02*
X383750D01*
X376631Y86494D02*
X381250Y81875D01*
X392500Y88750D02*
X395000D01*
X384625Y80875D02*
X392500Y88750D01*
X393750Y90000D02*
X461250Y90000D01*
X391875Y90000D02*
X393750D01*
X383750Y81875D02*
X391875Y90000D01*
X341625Y86494D02*
X376631D01*
X335255Y85321D02*
X375929D01*
X395000Y88750D02*
X453750Y88750D01*
X218750Y97500D02*
X313750D01*
X228750Y98750D02*
X315000D01*
X227500Y100000D02*
X228750Y98750D01*
X217500D02*
X218750Y97500D01*
X315000Y98750D02*
X316250Y97500D01*
X313750D02*
X315000Y96250D01*
X238750Y100000D02*
X316250D01*
X237500Y101250D02*
X238750Y100000D01*
X248750Y101250D02*
X317500D01*
X247500Y102500D02*
X248750Y101250D01*
X316250Y100000D02*
X317500Y98750D01*
Y101250D02*
X318750Y100000D01*
X339250Y219500D02*
X355000Y203750D01*
X305000Y219500D02*
X339250D01*
X343097Y220500D02*
X356889Y206708D01*
X302000Y220500D02*
X343097D01*
X301000Y215500D02*
X305000Y219500D01*
X300500Y219000D02*
X302000Y220500D01*
X355990Y209673D02*
X357617D01*
X300500Y222315D02*
X301260Y221555D01*
X342846Y222555D02*
X345981D01*
X340663Y224738D02*
X342846Y222555D01*
X345981D02*
X350346Y226920D01*
X336250Y224738D02*
X340663D01*
X354080Y227920D02*
X356000Y226000D01*
X346933Y227920D02*
X354080D01*
X343750Y224738D02*
X346933Y227920D01*
X111272Y152201D02*
X117171Y158100D01*
X103421Y152201D02*
X111272D01*
X99921Y148701D02*
X103421Y152201D01*
X117171Y205951D02*
X118671Y207451D01*
X117171Y158100D02*
Y205951D01*
X110858Y153201D02*
X116171Y158514D01*
X98171Y153201D02*
X110858D01*
X94921Y149951D02*
X98171Y153201D01*
X116171Y158514D02*
Y207451D01*
X110444Y154201D02*
X114921Y158678D01*
X87921Y154201D02*
X110444D01*
X84921Y151201D02*
X87921Y154201D01*
X114921Y158678D02*
Y208701D01*
X110029Y155201D02*
X113671Y158843D01*
X77671Y155201D02*
X110029D01*
X74921Y152451D02*
X77671Y155201D01*
X113671Y158843D02*
Y209951D01*
X112421Y159007D02*
Y211201D01*
X109615Y156201D02*
X112421Y159007D01*
X67421Y156201D02*
X109615D01*
X111171Y159171D02*
Y212451D01*
X109451Y157451D02*
X111171Y159171D01*
X57421Y157451D02*
X109451D01*
X64921Y153701D02*
X67421Y156201D01*
X54921Y154951D02*
X57421Y157451D01*
X569683Y195346D02*
Y245317D01*
X541250Y273750D02*
X569683Y245317D01*
X570683Y194932D02*
Y248846D01*
X571817Y213163D02*
Y248566D01*
X570683Y248846D02*
X572183Y250346D01*
X571817Y248566D02*
X573183Y249932D01*
X571817Y213163D02*
X571995Y212985D01*
X568404Y194067D02*
X569683Y195346D01*
X568087Y194067D02*
X568404D01*
X566000Y216500D02*
X568433Y214067D01*
Y200629D02*
Y214067D01*
X564050Y196247D02*
X568433Y200629D01*
X568501Y192750D02*
X570683Y194932D01*
X566540Y189375D02*
X571995Y194830D01*
Y212985D01*
X556519Y193750D02*
X568087D01*
X563750Y192500D02*
X568251D01*
X568087Y193750D02*
Y194067D01*
X568251Y192750D02*
X568501D01*
X568251Y192500D02*
Y192750D01*
X566000Y216500D02*
Y218500D01*
X562500Y277000D02*
X573183Y266317D01*
Y249932D02*
Y266317D01*
X571317Y253019D02*
Y254293D01*
Y253019D02*
X572183Y252154D01*
Y250346D02*
Y252154D01*
X551250Y274360D02*
X571317Y254293D01*
X566250Y189375D02*
X566540D01*
X565000Y183750D02*
Y185625D01*
X562500Y188125D02*
X565000Y185625D01*
X234567Y262933D02*
X479504D01*
X225500Y272000D02*
X234567Y262933D01*
X225500Y272000D02*
Y274000D01*
X590183Y188096D02*
Y195808D01*
X588750Y186663D02*
X590183Y188096D01*
X588750Y184375D02*
Y186663D01*
X590183Y195808D02*
X591250Y196875D01*
X556924Y218000D02*
X563000D01*
X554019Y206019D02*
X563000Y215000D01*
X554019Y198750D02*
Y206019D01*
X554193Y215268D02*
X556924Y218000D01*
X503750Y209973D02*
X508000Y205723D01*
X503750Y209973D02*
Y233163D01*
X506250Y212750D02*
X510183Y208817D01*
X506250Y199902D02*
X510183Y203835D01*
Y208817D01*
X506250Y212750D02*
Y223750D01*
Y185000D02*
Y199902D01*
X535250Y231250D02*
X542200Y224300D01*
X517244Y231250D02*
X535250D01*
X33750Y211089D02*
Y251250D01*
X29145Y206484D02*
X33750Y211089D01*
X35000Y210000D02*
Y252500D01*
X30145Y205145D02*
X35000Y210000D01*
X33750Y253750D02*
X35000Y252500D01*
X29145Y168355D02*
Y206484D01*
X48163Y213750D02*
X50096Y211817D01*
X43750Y213750D02*
X48163D01*
X50625Y174316D02*
Y204151D01*
X43526Y211250D02*
X50625Y204151D01*
X41250Y211250D02*
X43526D01*
X42268Y208817D02*
X44544D01*
X38692Y212393D02*
X42268Y208817D01*
X38692Y212393D02*
Y265192D01*
X49375Y168054D02*
Y203987D01*
X44544Y208817D02*
X49375Y203987D01*
X49682Y210817D02*
X52544D01*
X50096Y211817D02*
X52959D01*
X47999Y212500D02*
X49682Y210817D01*
X42500Y212500D02*
X47999D01*
X60625Y174316D02*
Y204151D01*
X52959Y211817D02*
X60625Y204151D01*
X59375Y168054D02*
Y203987D01*
X52544Y210817D02*
X59375Y203987D01*
X148750Y236250D02*
X165000D01*
X167500Y233750D01*
X177500D01*
X186250D01*
X198750D01*
X211250D01*
X223750D01*
X236250D01*
X248750D01*
X261250D01*
X265000Y237500D01*
X266250D01*
X380000Y251250D02*
X386567Y244683D01*
X405000Y223977D02*
Y225000D01*
X399911Y218888D02*
X405000Y223977D01*
X478675Y260933D02*
X482108Y257500D01*
X196567Y260933D02*
X478675D01*
X180000Y277500D02*
X196567Y260933D01*
X479089Y261933D02*
X482522Y258500D01*
X221245Y261933D02*
X479089D01*
X206250Y276928D02*
X221245Y261933D01*
X479504Y262933D02*
X482936Y259500D01*
X479918Y263933D02*
X483351Y260500D01*
X261067Y263933D02*
X479918D01*
X247500Y277500D02*
X261067Y263933D01*
X480332Y264933D02*
X483765Y261500D01*
X282567Y264933D02*
X480332D01*
X270000Y277500D02*
X282567Y264933D01*
X480746Y265933D02*
X484179Y262500D01*
X304067Y265933D02*
X480746D01*
X292500Y277500D02*
X304067Y265933D01*
X481160Y266933D02*
X484593Y263500D01*
X325567Y266933D02*
X481160D01*
X315000Y277500D02*
X325567Y266933D01*
X481575Y267933D02*
X485007Y264500D01*
X347067Y267933D02*
X481575D01*
X337500Y277500D02*
X347067Y267933D01*
X481989Y268933D02*
X485422Y265500D01*
X368567Y268933D02*
X481989D01*
X360000Y277500D02*
X368567Y268933D01*
X482108Y257500D02*
X490000D01*
X482522Y258500D02*
X497500D01*
X389919Y207449D02*
Y219654D01*
X388671Y206201D02*
X389919Y207449D01*
X388750Y220823D02*
X389919Y219654D01*
X340625Y87494D02*
X341625Y86494D01*
X334375Y86201D02*
X335255Y85321D01*
X140625Y149375D02*
X142500Y147500D01*
X147500D02*
X149375Y149375D01*
X543140Y274360D02*
X551250D01*
X540000Y277500D02*
X543140Y274360D01*
X521250Y273750D02*
X541250D01*
X517500Y277500D02*
X521250Y273750D01*
X500000Y272500D02*
X540000D01*
X495000Y277500D02*
X500000Y272500D01*
X472500Y277500D02*
X475996Y274004D01*
X450012Y277500D02*
X454508Y273004D01*
X432996Y272004D02*
X484000D01*
X427500Y277500D02*
X432996Y272004D01*
X405000Y277500D02*
X411496Y271004D01*
X382500Y277500D02*
X389996Y270004D01*
X515098Y267451D02*
X534080D01*
X511250Y228750D02*
Y257007D01*
X506250Y223750D02*
X511250Y228750D01*
X507795Y183455D02*
X518750D01*
X506250Y185000D02*
X507795Y183455D01*
X496567Y240346D02*
X503750Y233163D01*
X562500Y188125D02*
Y191250D01*
X563750Y192500D01*
X553750Y190981D02*
X556519Y193750D01*
X353750Y197500D02*
X358125Y201875D01*
X137500Y147500D02*
X139375Y149375D01*
X150375Y149625D02*
X152500Y147500D01*
X157500D02*
X159375Y149375D01*
X162483Y147517D02*
Y147517D01*
X49375Y168054D02*
X55000Y162500D01*
X99375Y168054D02*
X105000Y162500D01*
X99375Y168054D02*
Y211874D01*
X89375Y168054D02*
Y173863D01*
X89174Y174064D02*
X89375Y173863D01*
X89174Y174064D02*
Y175059D01*
X89375Y175260D01*
Y209372D01*
Y168054D02*
X95000Y162500D01*
X79375Y168054D02*
X85000Y162500D01*
X79375Y168054D02*
Y206875D01*
X69375Y168054D02*
X75000Y162500D01*
X69375Y168054D02*
Y206875D01*
X59375Y168054D02*
X65000Y162500D01*
X39692Y212808D02*
X41250Y211250D01*
X39692Y258442D02*
X41250Y260000D01*
X39692Y212808D02*
Y258442D01*
X38692Y265192D02*
X38750Y265250D01*
X41250Y260000D02*
Y260802D01*
X30145Y177355D02*
X35000Y172500D01*
X30145Y177355D02*
Y205145D01*
X29145Y168355D02*
X35000Y162500D01*
X39855Y174789D02*
Y206395D01*
X40855Y174090D02*
Y206809D01*
X70625Y174316D02*
Y205625D01*
X80625Y174316D02*
Y208125D01*
X90375Y174562D02*
Y208674D01*
X100625Y174316D02*
Y213123D01*
X36250Y210000D02*
X39855Y206395D01*
X37500Y210164D02*
X40855Y206809D01*
X70625Y205625D02*
X72500Y207500D01*
X78750D02*
X79375Y206875D01*
X80000Y208750D02*
X80625Y208125D01*
X39855Y167580D02*
X45000Y162500D01*
X39855Y167580D02*
Y173392D01*
X39654Y174588D02*
X39855Y174789D01*
X39654Y173593D02*
Y174588D01*
Y173593D02*
X39855Y173392D01*
X36250Y210000D02*
Y254413D01*
X37500Y210164D02*
Y256250D01*
X40855Y174090D02*
X42524Y172453D01*
X357459Y108750D02*
X365000D01*
X355238Y110971D02*
X357459Y108750D01*
X355238Y110971D02*
Y111012D01*
X354375Y111875D02*
X355238Y111012D01*
X356250Y107500D02*
X363750D01*
X355000Y108750D02*
X356250Y107500D01*
X347500Y108750D02*
X355000D01*
Y106250D02*
X362500D01*
X353750Y105000D02*
X361250D01*
X353750Y107500D02*
X355000Y106250D01*
X352500D02*
X353750Y105000D01*
X356875Y196875D02*
X357593D01*
X358125Y201875D02*
Y203750D01*
X360308Y199590D02*
Y213442D01*
X357593Y196875D02*
X360308Y199590D01*
X80625Y263125D02*
X80696Y263054D01*
X78642Y261142D02*
X80625Y263125D01*
X81250Y256306D02*
X81825Y256880D01*
X78642Y211358D02*
Y261142D01*
X73650Y255675D02*
Y260050D01*
X71250Y256250D02*
Y262500D01*
X76162Y257550D02*
X76200D01*
X83750Y213750D02*
X99997D01*
X82500Y212500D02*
X98747D01*
X160625Y149375D02*
X162483Y147517D01*
X498750Y251250D02*
Y257250D01*
X496567Y240346D02*
Y250933D01*
X490000Y257500D02*
X496567Y250933D01*
X500000Y259500D02*
X501250Y258250D01*
Y248750D02*
Y258250D01*
X506250Y248750D02*
Y259179D01*
X508750Y251250D02*
Y258093D01*
X503750Y251250D02*
Y259250D01*
X497500Y258500D02*
X498750Y257250D01*
X482936Y259500D02*
X500000D01*
X512500Y222500D02*
Y257172D01*
X502500Y260500D02*
X503750Y259250D01*
X504343Y262500D02*
X508750Y258093D01*
X504757Y263500D02*
X511250Y257007D01*
X505172Y264500D02*
X512500Y257172D01*
X505586Y265500D02*
X513750Y257336D01*
X506000Y266500D02*
X515000Y257500D01*
X483351Y260500D02*
X502500D01*
X483765Y261500D02*
X503929D01*
X506250Y259179D01*
X484179Y262500D02*
X504343D01*
X484593Y263500D02*
X504757D01*
X485007Y264500D02*
X505172D01*
X485422Y265500D02*
X505586D01*
X485836Y266500D02*
X506000D01*
X515607Y221306D02*
Y223443D01*
X516250Y225000D02*
X517500D01*
X482332Y270004D02*
X485836Y266500D01*
X389996Y270004D02*
X482332D01*
X517500Y225000D02*
X518806Y223694D01*
Y221306D02*
Y223694D01*
X518750Y221250D02*
X518806Y221306D01*
X388750Y220823D02*
Y237500D01*
X305000Y231447D02*
X329803D01*
X331250Y230000D01*
X476250Y92500D02*
X477500Y91250D01*
X368799Y92500D02*
X476250Y92500D01*
X477500Y88750D02*
Y91250D01*
X470000Y88750D02*
Y90000D01*
X411496Y271004D02*
X482746D01*
X487045Y274004D02*
X489799Y271250D01*
X475996Y274004D02*
X487045D01*
X488549Y270004D02*
X517504D01*
X485549Y273004D02*
X488549Y270004D01*
X454508Y273004D02*
X485549D01*
X517504Y270004D02*
X517508Y270000D01*
X487303Y268701D02*
X536299D01*
X484000Y272004D02*
X487303Y268701D01*
X486250Y267500D02*
X515049D01*
X482746Y271004D02*
X486250Y267500D01*
X515049D02*
X515098Y267451D01*
X131250Y212525D02*
Y251250D01*
X131171Y212446D02*
X131250Y212525D01*
X382372Y193622D02*
X382421D01*
X377500Y188750D02*
X382372Y193622D01*
X377500Y186535D02*
Y188750D01*
X357500Y216250D02*
X360308Y213442D01*
X332622Y224878D02*
X333003D01*
X331250Y226250D02*
X332622Y224878D01*
X267421Y111875D02*
Y112333D01*
Y105079D02*
Y111875D01*
X81250Y211250D02*
X89196D01*
X90576Y209870D01*
Y208875D02*
Y209870D01*
X90375Y208674D02*
X90576Y208875D01*
X99997Y213750D02*
X100625Y213123D01*
X128750Y213776D02*
Y248750D01*
X128671Y213697D02*
X128750Y213776D01*
X126171Y214948D02*
X126250Y246250D01*
X78642Y211358D02*
X80000Y210000D01*
X79642Y258392D02*
X81339Y260089D01*
X79642Y212858D02*
X81250Y211250D01*
X79642Y212858D02*
Y258392D01*
X73650Y255675D02*
X76250Y253075D01*
X71250Y256250D02*
X75000Y252500D01*
X68750Y256825D02*
X73750Y251825D01*
X75000Y208750D02*
Y252500D01*
X73750Y210000D02*
Y251825D01*
X68750Y256825D02*
Y265000D01*
X76250Y208750D02*
Y253075D01*
X76200Y257550D02*
X77500Y256250D01*
X28765Y256235D02*
X33750Y251250D01*
X28765Y256235D02*
Y265250D01*
X31242Y256242D02*
X33735Y253750D01*
X31242Y256242D02*
Y262650D01*
X33735Y253750D02*
X33750D01*
X33500Y257163D02*
Y260079D01*
Y257163D02*
X36250Y254413D01*
Y257500D02*
X37500Y256250D01*
X41250Y256875D02*
X41875Y257500D01*
X170000Y148607D02*
Y200185D01*
X170625Y147500D02*
X170866Y147741D01*
X334375Y86201D02*
Y90625D01*
X331250Y93750D02*
X334375Y90625D01*
X333125Y93750D02*
X339915D01*
X331875Y95000D02*
X333125Y93750D01*
X307500Y110000D02*
Y111875D01*
X227500Y100000D02*
Y111875D01*
X337500D02*
X344375D01*
X327500D02*
X334375D01*
X317500D02*
X324375D01*
X297500Y108750D02*
Y111875D01*
X287500Y107500D02*
Y111875D01*
X277500Y106250D02*
Y111875D01*
X257500Y103750D02*
Y111875D01*
X247500Y102500D02*
Y111875D01*
X237500Y101250D02*
Y111875D01*
X217500Y98750D02*
Y111875D01*
X277500Y106250D02*
X278750Y105000D01*
X267421Y105079D02*
X268750Y103750D01*
X461250Y90000D02*
X462500Y88750D01*
X455000Y86875D02*
Y87500D01*
X453750Y88750D02*
X455000Y87500D01*
X322500Y93750D02*
X331250D01*
X323750Y95000D02*
X331875D01*
X339915Y93750D02*
X340625Y93040D01*
Y87494D02*
Y93040D01*
X333750Y95000D02*
X341875D01*
X343125Y93750D01*
X345625D01*
X346875Y92500D01*
Y88494D02*
Y92500D01*
Y88494D02*
X347875Y87494D01*
X366869D01*
X342500Y96250D02*
X343750Y95000D01*
X351875D01*
X353125Y93750D01*
Y89375D02*
Y93750D01*
Y89375D02*
X354006Y88494D01*
X364793D01*
X368799Y92500D01*
X361250Y95000D02*
X362500Y93750D01*
X483750D02*
X485000Y92500D01*
X353750Y95000D02*
X361250D01*
X352500Y96250D02*
X353750Y95000D01*
X167734Y202451D02*
X170000Y200185D01*
X160625Y190625D02*
X162500Y192500D01*
X160625Y149375D02*
Y190625D01*
X157500Y202500D02*
X159375Y200625D01*
Y149375D02*
Y200625D01*
X150375Y190375D02*
X152500Y192500D01*
X150375Y149625D02*
Y190375D01*
X147500Y202500D02*
X149375Y200625D01*
Y149375D02*
Y200625D01*
X140625Y190625D02*
X142500Y192500D01*
X140625Y149375D02*
Y190625D01*
X137500Y202500D02*
X139375Y200625D01*
Y149375D02*
Y200625D01*
X100625Y174316D02*
X102524Y172453D01*
X98747Y212500D02*
X99375Y211874D01*
X90375Y174562D02*
X90375D01*
X92524Y172453D01*
X88744Y210000D02*
X89375Y209372D01*
X80625Y174316D02*
X82524Y172453D01*
X70625Y174316D02*
X72524Y172453D01*
X69375Y206875D02*
X71250Y208750D01*
X60625Y174316D02*
X62524Y172453D01*
X50625Y174316D02*
X52524Y172453D01*
X41250Y213750D02*
Y256875D01*
X73750Y207500D02*
X75000Y208750D01*
X82992Y244242D02*
X83750D01*
X82500Y243750D02*
X82992Y244242D01*
X42992D02*
X43750D01*
X42500Y243750D02*
X42992Y244242D01*
X133760Y211288D02*
Y246250D01*
X133671Y211199D02*
X133760Y211288D01*
X136250Y210030D02*
Y243750D01*
X138749Y208778D02*
Y246875D01*
X136171Y209951D02*
X136250Y210030D01*
X138671Y208700D02*
X138749Y208778D01*
X207500Y97500D02*
Y111875D01*
X321250Y95000D02*
X322500Y93750D01*
X313750Y95000D02*
X321250D01*
X322500Y96250D02*
X323750Y95000D01*
X315000Y96250D02*
X322500D01*
X332500D02*
X333750Y95000D01*
X325000Y96250D02*
X332500D01*
X323750Y97500D02*
X325000Y96250D01*
X316250Y97500D02*
X323750D01*
X335000Y96250D02*
X342500D01*
X333750Y97500D02*
X335000Y96250D01*
X326250Y97500D02*
X333750D01*
X325000Y98750D02*
X326250Y97500D01*
X317500Y98750D02*
X325000D01*
X485000Y88750D02*
Y92500D01*
X345000Y96250D02*
X352500D01*
X343750Y97500D02*
X345000Y96250D01*
X336250Y97500D02*
X343750D01*
X335000Y98750D02*
X336250Y97500D01*
X327500Y98750D02*
X335000D01*
X326250Y100000D02*
X327500Y98750D01*
X318750Y100000D02*
X326250D01*
X257500Y103750D02*
X258750Y102500D01*
X318750D01*
X492500Y88750D02*
Y93750D01*
X491250Y95000D02*
X492500Y93750D01*
X362500Y96250D02*
X363750Y95000D01*
X355000Y96250D02*
X362500D01*
X353750Y97500D02*
X355000Y96250D01*
X346250Y97500D02*
X353750D01*
X345000Y98750D02*
X346250Y97500D01*
X337500Y98750D02*
X345000D01*
X336250Y100000D02*
X337500Y98750D01*
X328750Y100000D02*
X336250D01*
X327500Y101250D02*
X328750Y100000D01*
X320000Y101250D02*
X327500D01*
X318750Y102500D02*
X320000Y101250D01*
X129921Y211199D02*
X131171Y212446D01*
X113671Y209951D02*
X114921Y211201D01*
X129921Y211199D01*
X74921Y152451D02*
X75000Y142500D01*
X370000Y205000D02*
X387418Y204951D01*
X388671Y206201D01*
X135000Y202500D02*
X137500D01*
X142500Y192500D02*
X145000D01*
Y202500D02*
X147500D01*
X152500Y192500D02*
X155000D01*
Y202500D02*
X157500D01*
X162500Y192500D02*
X165000D01*
Y202500D02*
X167734Y202451D01*
X42524Y172453D02*
X45000Y172500D01*
X52524Y172453D02*
X55000Y172500D01*
X41250Y213750D02*
X42500Y212500D01*
Y215000D02*
Y243750D01*
Y215000D02*
X43750Y213750D01*
X62524Y172453D02*
X65000Y172500D01*
X72500Y208750D02*
X73750Y210000D01*
X71250Y208750D02*
X72500D01*
Y207500D02*
X73750D01*
X72524Y172453D02*
X75000Y172500D01*
X76250Y208750D02*
X77500Y207500D01*
X78750D01*
X77500Y210000D02*
Y256250D01*
Y210000D02*
X78750Y208750D01*
X80000D01*
X82524Y172453D02*
X85000Y172500D01*
X80000Y210000D02*
X88744D01*
X92524Y172453D02*
X95000Y172500D01*
X81250Y213750D02*
Y256306D01*
Y213750D02*
X82500Y212500D01*
Y215000D02*
Y243750D01*
Y215000D02*
X83750Y213750D01*
X102524Y172453D02*
X105000Y172500D01*
X132421Y209951D02*
X133671Y211199D01*
X116171Y209951D02*
X132421D01*
X114921Y208701D02*
X116171Y209951D01*
X84921Y151201D02*
X85000Y142500D01*
X331250Y226250D02*
Y230000D01*
X134921Y208703D02*
X136171Y209951D01*
X116171Y207451D02*
X117421Y208701D01*
X134921Y208703D01*
X94921Y149951D02*
X95000Y142500D01*
X127421Y212451D02*
X128671Y213697D01*
X113671Y212451D02*
X127421D01*
X112421Y211201D02*
X113671Y212451D01*
X64921Y153701D02*
X65000Y142500D01*
X268750Y103750D02*
X320000D01*
X321250Y102500D01*
X328750D01*
X330000Y101250D01*
X337500D01*
X338750Y100000D01*
X346250D01*
X347500Y98750D01*
X355000D01*
X356250Y97500D01*
X363750D01*
X365049Y96201D01*
X500000Y88750D02*
Y94951D01*
X498750Y96201D02*
X500000Y94951D01*
X278750Y105000D02*
X321250D01*
X322500Y103750D01*
X330000D01*
X331250Y102500D01*
X338750D01*
X340000Y101250D01*
X347500D01*
X348750Y100000D01*
X356250D01*
X357500Y98750D01*
X365000D01*
X366299Y97451D01*
X507500Y88750D02*
Y96201D01*
X506250Y97451D02*
X507500Y96201D01*
X288750Y106250D02*
X322500D01*
X287500Y107500D02*
X288750Y106250D01*
X322500D02*
X323750Y105000D01*
X331250D01*
X332500Y103750D01*
X340000D01*
X341250Y102500D01*
X348750D01*
X350000Y101250D01*
X357500D01*
X358750Y100000D01*
X366250D01*
X367549Y98701D01*
X515000Y88750D02*
Y97451D01*
X513750Y98701D02*
X515000Y97451D01*
X297500Y108750D02*
X298750Y107500D01*
X323750D01*
X325000Y106250D01*
X332500D01*
X333750Y105000D01*
X341250D01*
X342500Y103750D01*
X350000D01*
X351250Y102500D01*
X358750D01*
X360000Y101250D01*
X367500D01*
X368799Y99951D01*
X522500Y88750D02*
Y98701D01*
X521250Y99951D02*
X522500Y98701D01*
X308750Y108750D02*
X325000D01*
X307500Y110000D02*
X308750Y108750D01*
X325000D02*
X326250Y107500D01*
X333750D01*
X335000Y106250D01*
X342500D01*
X343750Y105000D01*
X351250D01*
X352500Y103750D01*
X360000D01*
X361250Y102500D01*
X368750D01*
X370049Y101201D01*
X530000Y88750D02*
Y99951D01*
X528750Y101201D02*
X530000Y99951D01*
X324375Y111875D02*
X327500Y108750D01*
X335000D01*
X336250Y107500D01*
X343750D01*
X345000Y106250D01*
X352500D01*
X537500Y88750D02*
Y101201D01*
X536250Y102451D02*
X537500Y101201D01*
X334375Y111875D02*
X337500Y108750D01*
X345000D01*
X346250Y107500D01*
X353750D01*
X362500Y106250D02*
X363750Y105000D01*
X371250D01*
X372549Y103701D01*
X545000Y88750D02*
Y102451D01*
X543750Y103701D02*
X545000Y102451D01*
X344375Y111875D02*
X347500Y108750D01*
X363750Y107500D02*
X365000Y106250D01*
X372500D01*
X373799Y104951D01*
X552500Y88750D02*
Y103701D01*
X551250Y104951D02*
X552500Y103701D01*
X347500Y111875D02*
X354375D01*
X365000Y108750D02*
X366250Y107500D01*
X373750D01*
X375049Y106201D01*
X560000Y88750D02*
Y104951D01*
X558750Y106201D02*
X560000Y104951D01*
X375049Y106201D02*
X558750D01*
X357500Y111875D02*
X364375D01*
X367500Y108750D01*
X375000D01*
X376299Y107451D01*
X567500Y88750D02*
Y106201D01*
X566250Y107451D02*
X567500Y106201D01*
X376299Y107451D02*
X566250D01*
X575000Y88750D02*
Y107451D01*
X573750Y108701D02*
X575000Y107451D01*
X377549Y108701D02*
X573750D01*
X582500Y89375D02*
Y108701D01*
X581250Y109951D02*
X582500Y108701D01*
X391250Y112500D02*
X392549Y111201D01*
X590000Y86250D02*
Y109951D01*
X588750Y111201D02*
X590000Y109951D01*
X392549Y111201D02*
X588750D01*
X124921Y213701D02*
X126171Y214948D01*
X112421Y213701D02*
X124921D01*
X111171Y212451D02*
X112421Y213701D01*
X54921Y154951D02*
X55000Y142500D01*
X137421Y207451D02*
X138671Y208700D01*
X118671Y207451D02*
X137421D01*
X99921Y139326D02*
Y148701D01*
X98671Y138076D02*
X99921Y139326D01*
X46171Y138076D02*
X98671D01*
X44921Y139326D02*
X46171Y138076D01*
X44921Y139326D02*
X45000Y142500D01*
D121*
X163750Y296250D02*
X164000Y296000D01*
Y262250D02*
Y296000D01*
Y262250D02*
X185000Y241250D01*
X196250Y206250D02*
X197500Y207500D01*
X206250D01*
X207500Y206250D01*
Y180000D02*
Y206250D01*
X411250D02*
X412500Y207500D01*
X420000D01*
X421250Y206250D01*
Y181250D02*
Y206250D01*
X204955Y116551D02*
X391551D01*
X203125Y118381D02*
X204955Y116551D01*
X203125Y118381D02*
Y120101D01*
X391551Y116551D02*
X395000Y120000D01*
D122*
X309016Y26842D02*
D03*
X297217D02*
D03*
X285417D02*
D03*
X250016D02*
D03*
X261815D02*
D03*
X226417D02*
D03*
X309016Y38642D02*
D03*
X297217D02*
D03*
X285417D02*
D03*
X250016D02*
D03*
X261815D02*
D03*
X226417D02*
D03*
X273618Y26842D02*
D03*
X238216D02*
D03*
X273618Y38642D02*
D03*
X238216D02*
D03*
X568847Y26843D02*
D03*
X462650D02*
D03*
X568847Y38642D02*
D03*
X462650D02*
D03*
X580697Y26843D02*
D03*
X557047D02*
D03*
X545248D02*
D03*
X533449D02*
D03*
X498047D02*
D03*
X509846D02*
D03*
X474449D02*
D03*
X450799D02*
D03*
X580697Y38642D02*
D03*
X557047D02*
D03*
X545248D02*
D03*
X533449D02*
D03*
X498047D02*
D03*
X509846D02*
D03*
X474449D02*
D03*
X450799D02*
D03*
X521650Y26843D02*
D03*
X486248D02*
D03*
X521650Y38642D02*
D03*
X486248D02*
D03*
X196850Y26842D02*
D03*
Y38642D02*
D03*
X137795Y26842D02*
D03*
Y38642D02*
D03*
X421220Y26842D02*
D03*
X409421D02*
D03*
X397622D02*
D03*
X362221D02*
D03*
X374020D02*
D03*
X338622D02*
D03*
X421220Y38642D02*
D03*
X409421D02*
D03*
X397622D02*
D03*
X362221D02*
D03*
X374020D02*
D03*
X338622D02*
D03*
X385823Y26842D02*
D03*
X350421D02*
D03*
X385823Y38642D02*
D03*
X350421D02*
D03*
X167323Y26842D02*
D03*
Y38642D02*
D03*
X108268Y26842D02*
D03*
Y38642D02*
D03*
X78740Y26842D02*
D03*
Y38642D02*
D03*
X49213Y26842D02*
D03*
Y38642D02*
D03*
D123*
X45000Y202500D02*
D03*
Y192500D02*
D03*
X55000D02*
D03*
Y202500D02*
D03*
X65000D02*
D03*
Y192500D02*
D03*
X95000D02*
D03*
Y202500D02*
D03*
X85000Y192500D02*
D03*
Y202500D02*
D03*
X75000D02*
D03*
Y192500D02*
D03*
X35000D02*
D03*
Y202500D02*
D03*
X104999D02*
D03*
Y192500D02*
D03*
X25000Y202500D02*
D03*
Y192500D02*
D03*
X45000Y172500D02*
D03*
Y162500D02*
D03*
X55000D02*
D03*
Y172500D02*
D03*
X65000D02*
D03*
Y162500D02*
D03*
X95000D02*
D03*
Y172500D02*
D03*
X85000Y162500D02*
D03*
Y172500D02*
D03*
X75000D02*
D03*
Y162500D02*
D03*
X35000D02*
D03*
Y172500D02*
D03*
X104999D02*
D03*
Y162500D02*
D03*
X25000Y172500D02*
D03*
Y162500D02*
D03*
X125000Y192500D02*
D03*
Y202500D02*
D03*
X135000D02*
D03*
Y192500D02*
D03*
X165000D02*
D03*
Y202500D02*
D03*
X155000Y192500D02*
D03*
Y202500D02*
D03*
X145000D02*
D03*
Y192500D02*
D03*
X135000Y142500D02*
D03*
Y132500D02*
D03*
X165000D02*
D03*
Y142500D02*
D03*
X155000Y132500D02*
D03*
Y142500D02*
D03*
X145000D02*
D03*
Y132500D02*
D03*
Y162500D02*
D03*
Y172500D02*
D03*
X155000D02*
D03*
Y162500D02*
D03*
X165000Y172500D02*
D03*
Y162500D02*
D03*
X135000D02*
D03*
Y172500D02*
D03*
X125000D02*
D03*
Y162500D02*
D03*
X45000Y142500D02*
D03*
Y132500D02*
D03*
X85000D02*
D03*
Y142500D02*
D03*
X95000D02*
D03*
Y132500D02*
D03*
X105000Y142500D02*
D03*
Y132500D02*
D03*
X75000D02*
D03*
Y142500D02*
D03*
X65000D02*
D03*
Y132500D02*
D03*
X55000D02*
D03*
Y142500D02*
D03*
X35000Y132500D02*
D03*
Y142500D02*
D03*
X115000Y132500D02*
D03*
Y142500D02*
D03*
X25000D02*
D03*
Y132500D02*
D03*
X48750Y63750D02*
D03*
Y73750D02*
D03*
X38750D02*
D03*
Y63750D02*
D03*
X153750Y296250D02*
D03*
X163750D02*
D03*
D124*
X610236Y19685D02*
D03*
X19685D02*
D03*
X610236Y374016D02*
D03*
X19685D02*
D03*
D125*
X177500Y302000D02*
D03*
X176000Y299000D02*
D03*
X177500Y296000D02*
D03*
X176000Y293000D02*
D03*
X174500Y302000D02*
D03*
X173000Y299000D02*
D03*
X174500Y296000D02*
D03*
X173000Y293000D02*
D03*
X171500Y302000D02*
D03*
X170000Y299000D02*
D03*
X171500Y296000D02*
D03*
X170000Y293000D02*
D03*
X168500Y350000D02*
D03*
X167000Y347000D02*
D03*
X168500Y344000D02*
D03*
X167000Y341000D02*
D03*
X168500Y338000D02*
D03*
X167000Y335000D02*
D03*
X168500Y332000D02*
D03*
X167000Y329000D02*
D03*
X168500Y326000D02*
D03*
X167000Y323000D02*
D03*
X168500Y320000D02*
D03*
X167000Y317000D02*
D03*
X168500Y314000D02*
D03*
X167000Y311000D02*
D03*
X168500Y308000D02*
D03*
X167000Y305000D02*
D03*
X168500Y302000D02*
D03*
X165500Y350000D02*
D03*
X164000Y347000D02*
D03*
X165500Y344000D02*
D03*
X164000Y341000D02*
D03*
X165500Y338000D02*
D03*
X164000Y335000D02*
D03*
X165500Y332000D02*
D03*
X164000Y329000D02*
D03*
X165500Y326000D02*
D03*
X164000Y323000D02*
D03*
X165500Y320000D02*
D03*
X164000Y317000D02*
D03*
X165500Y314000D02*
D03*
X164000Y311000D02*
D03*
X165500Y308000D02*
D03*
X164000Y305000D02*
D03*
X165500Y302000D02*
D03*
X162500Y350000D02*
D03*
Y344000D02*
D03*
Y338000D02*
D03*
Y332000D02*
D03*
Y326000D02*
D03*
Y320000D02*
D03*
Y314000D02*
D03*
Y308000D02*
D03*
Y302000D02*
D03*
X153500D02*
D03*
X150500D02*
D03*
X149000Y299000D02*
D03*
Y293000D02*
D03*
X146000Y323000D02*
D03*
X147500Y320000D02*
D03*
X146000Y317000D02*
D03*
X147500Y314000D02*
D03*
X146000Y311000D02*
D03*
X147500Y308000D02*
D03*
X146000Y305000D02*
D03*
X147500Y302000D02*
D03*
X146000Y299000D02*
D03*
X147500Y296000D02*
D03*
X146000Y293000D02*
D03*
X144500Y320000D02*
D03*
X143000Y317000D02*
D03*
X144500Y314000D02*
D03*
X143000Y311000D02*
D03*
X144500Y308000D02*
D03*
X143000Y305000D02*
D03*
X144500Y302000D02*
D03*
X143000Y299000D02*
D03*
X144500Y296000D02*
D03*
X143000Y293000D02*
D03*
X141500Y320000D02*
D03*
X140000Y317000D02*
D03*
X141500Y314000D02*
D03*
X140000Y311000D02*
D03*
X141500Y308000D02*
D03*
X140000Y305000D02*
D03*
X141500Y302000D02*
D03*
X140000Y299000D02*
D03*
X141500Y296000D02*
D03*
X140000Y293000D02*
D03*
X137000Y311000D02*
D03*
X138500Y308000D02*
D03*
X137000Y305000D02*
D03*
X138500Y302000D02*
D03*
X137000Y299000D02*
D03*
X138500Y296000D02*
D03*
X137000Y293000D02*
D03*
X134000Y311000D02*
D03*
X135500Y308000D02*
D03*
X134000Y305000D02*
D03*
X135500Y302000D02*
D03*
X134000Y299000D02*
D03*
X135500Y296000D02*
D03*
X134000Y293000D02*
D03*
X131000Y311000D02*
D03*
X132500Y308000D02*
D03*
X131000Y305000D02*
D03*
X132500Y302000D02*
D03*
X131000Y299000D02*
D03*
X132500Y296000D02*
D03*
X131000Y293000D02*
D03*
X129500Y308000D02*
D03*
Y302000D02*
D03*
Y296000D02*
D03*
X128000Y293000D02*
D03*
X126500Y296000D02*
D03*
X125000Y293000D02*
D03*
X123500Y296000D02*
D03*
X122000Y293000D02*
D03*
X101000Y311000D02*
D03*
X102500Y308000D02*
D03*
X101000Y305000D02*
D03*
X102500Y302000D02*
D03*
X101000Y299000D02*
D03*
X98000Y311000D02*
D03*
X99500Y308000D02*
D03*
X98000Y305000D02*
D03*
X99500Y302000D02*
D03*
X98000Y299000D02*
D03*
X95000Y311000D02*
D03*
X96500Y308000D02*
D03*
X95000Y305000D02*
D03*
X96500Y302000D02*
D03*
X95000Y299000D02*
D03*
X92000Y311000D02*
D03*
X93500Y308000D02*
D03*
X92000Y305000D02*
D03*
X93500Y302000D02*
D03*
X92000Y299000D02*
D03*
X89000Y311000D02*
D03*
X90500Y308000D02*
D03*
X89000Y305000D02*
D03*
X90500Y302000D02*
D03*
X89000Y299000D02*
D03*
X86000Y311000D02*
D03*
X87500Y308000D02*
D03*
X86000Y305000D02*
D03*
X87500Y302000D02*
D03*
X86000Y299000D02*
D03*
X83000Y311000D02*
D03*
X84500Y308000D02*
D03*
X83000Y305000D02*
D03*
X84500Y302000D02*
D03*
X83000Y299000D02*
D03*
X80000Y311000D02*
D03*
X81500Y308000D02*
D03*
X80000Y305000D02*
D03*
X81500Y302000D02*
D03*
X80000Y299000D02*
D03*
X77000Y311000D02*
D03*
X78500Y308000D02*
D03*
X77000Y305000D02*
D03*
X78500Y302000D02*
D03*
X77000Y299000D02*
D03*
X74000Y311000D02*
D03*
X75500Y308000D02*
D03*
X74000Y305000D02*
D03*
X75500Y302000D02*
D03*
X74000Y299000D02*
D03*
X71000Y311000D02*
D03*
X72500Y308000D02*
D03*
X71000Y305000D02*
D03*
X72500Y302000D02*
D03*
X71000Y299000D02*
D03*
X68000Y311000D02*
D03*
X69500Y308000D02*
D03*
X68000Y305000D02*
D03*
X69500Y302000D02*
D03*
X68000Y299000D02*
D03*
X65000Y347000D02*
D03*
X66500Y344000D02*
D03*
Y326000D02*
D03*
X65000Y323000D02*
D03*
X66500Y320000D02*
D03*
X65000Y317000D02*
D03*
X66500Y314000D02*
D03*
X65000Y311000D02*
D03*
X66500Y308000D02*
D03*
X65000Y305000D02*
D03*
X66500Y302000D02*
D03*
X65000Y299000D02*
D03*
X63500Y350000D02*
D03*
Y344000D02*
D03*
Y326000D02*
D03*
X62000Y323000D02*
D03*
X63500Y320000D02*
D03*
X62000Y317000D02*
D03*
X63500Y314000D02*
D03*
X62000Y311000D02*
D03*
X63500Y308000D02*
D03*
X62000Y305000D02*
D03*
X63500Y302000D02*
D03*
X62000Y299000D02*
D03*
X60500Y344000D02*
D03*
Y326000D02*
D03*
X59000Y323000D02*
D03*
X60500Y320000D02*
D03*
X59000Y317000D02*
D03*
X60500Y314000D02*
D03*
X59000Y311000D02*
D03*
X60500Y308000D02*
D03*
X59000Y305000D02*
D03*
X60500Y302000D02*
D03*
X59000Y299000D02*
D03*
X57500Y326000D02*
D03*
X56000Y323000D02*
D03*
X57500Y320000D02*
D03*
X56000Y317000D02*
D03*
X57500Y314000D02*
D03*
X56000Y311000D02*
D03*
X57500Y308000D02*
D03*
X56000Y305000D02*
D03*
X57500Y302000D02*
D03*
X56000Y299000D02*
D03*
X53000Y323000D02*
D03*
X54500Y320000D02*
D03*
X53000Y317000D02*
D03*
X54500Y314000D02*
D03*
X53000Y311000D02*
D03*
X54500Y308000D02*
D03*
X53000Y305000D02*
D03*
X54500Y302000D02*
D03*
X53000Y299000D02*
D03*
X50000Y317000D02*
D03*
X51500Y314000D02*
D03*
X47000Y317000D02*
D03*
X48500Y314000D02*
D03*
X44000Y317000D02*
D03*
X45500Y314000D02*
D03*
X41000Y317000D02*
D03*
X42500Y314000D02*
D03*
X38000Y317000D02*
D03*
X39500Y314000D02*
D03*
X35000Y317000D02*
D03*
X36500Y314000D02*
D03*
X32000Y317000D02*
D03*
X33500Y314000D02*
D03*
X30500D02*
D03*
X403750Y76875D02*
D03*
X418125Y85625D02*
D03*
X316875Y212500D02*
D03*
X77250Y265250D02*
D03*
X81540Y263054D02*
D03*
X401250Y78750D02*
D03*
X400625Y86221D02*
D03*
Y81875D02*
D03*
X291250Y80625D02*
D03*
X288125Y81875D02*
D03*
Y85000D02*
D03*
X305625Y88125D02*
D03*
X85625Y237689D02*
D03*
X370000Y236250D02*
D03*
X357500Y235625D02*
D03*
X370000Y240625D02*
D03*
X305000Y228125D02*
D03*
X566250Y235625D02*
D03*
X565000Y243750D02*
D03*
X566875Y230625D02*
D03*
X564375Y228465D02*
D03*
X580000Y240625D02*
D03*
X548750Y241250D02*
D03*
X517500Y248125D02*
D03*
X558750Y243125D02*
D03*
X556250Y240000D02*
D03*
X310000Y91250D02*
D03*
X538788Y178750D02*
D03*
X542500D02*
D03*
X378125Y88750D02*
D03*
X430625Y85000D02*
D03*
X318750Y45625D02*
D03*
X267471Y77500D02*
D03*
Y81875D02*
D03*
X267500Y85000D02*
D03*
X250000Y78125D02*
D03*
X213125Y69375D02*
D03*
X211250Y66250D02*
D03*
X289375Y78125D02*
D03*
X280625Y72500D02*
D03*
X244375Y73125D02*
D03*
X245625Y69729D02*
D03*
X293125Y72500D02*
D03*
X286875D02*
D03*
X274375D02*
D03*
X268125D02*
D03*
X261875D02*
D03*
X255625D02*
D03*
X310625Y81875D02*
D03*
Y74375D02*
D03*
X423125Y73750D02*
D03*
X428750Y81875D02*
D03*
X326875Y65625D02*
D03*
X330000Y63125D02*
D03*
X372421Y112500D02*
D03*
X382421D02*
D03*
X431875Y45625D02*
D03*
X378750Y79375D02*
D03*
X382500Y84375D02*
D03*
X405000Y72500D02*
D03*
X399375D02*
D03*
X393125D02*
D03*
X386875D02*
D03*
X380625D02*
D03*
X374375D02*
D03*
X367500D02*
D03*
X361875D02*
D03*
X337165Y43753D02*
D03*
X428125Y43750D02*
D03*
X431875Y31875D02*
D03*
X315000Y43750D02*
D03*
X307500D02*
D03*
X295625D02*
D03*
X283750D02*
D03*
X271875D02*
D03*
X260000D02*
D03*
X248750D02*
D03*
X236875D02*
D03*
X225625D02*
D03*
X318750Y31875D02*
D03*
X210000Y61875D02*
D03*
X243110Y90576D02*
D03*
X236781D02*
D03*
X211860D02*
D03*
X249360D02*
D03*
X224360D02*
D03*
X218110D02*
D03*
X230531Y90724D02*
D03*
X301000Y215500D02*
D03*
X284500Y213500D02*
D03*
X287500D02*
D03*
X284500Y211000D02*
D03*
X287500D02*
D03*
Y216000D02*
D03*
X284500D02*
D03*
X287500Y218500D02*
D03*
X284500D02*
D03*
X300500Y219000D02*
D03*
Y222315D02*
D03*
X357500Y221000D02*
D03*
X356000Y226000D02*
D03*
X74000Y124500D02*
D03*
X108733Y149000D02*
D03*
X29436Y115500D02*
D03*
X34936D02*
D03*
X40436D02*
D03*
X50936D02*
D03*
X56436D02*
D03*
X61936D02*
D03*
X65936Y124256D02*
D03*
X25121D02*
D03*
X567500Y196250D02*
D03*
X574000Y214067D02*
D03*
X580000Y219000D02*
D03*
X579921Y212000D02*
D03*
Y206500D02*
D03*
X566000Y218500D02*
D03*
X565000Y222500D02*
D03*
X570000Y251250D02*
D03*
X574500Y200961D02*
D03*
X591500Y220500D02*
D03*
X566250Y189375D02*
D03*
X225500Y274000D02*
D03*
X385000Y258000D02*
D03*
X589000Y170000D02*
D03*
X590000Y173125D02*
D03*
X587500Y206500D02*
D03*
X588000Y189000D02*
D03*
X586000Y191250D02*
D03*
X591250Y196875D02*
D03*
X592421Y193000D02*
D03*
X564133Y211617D02*
D03*
X563000Y218000D02*
D03*
Y215000D02*
D03*
X556500Y223163D02*
D03*
X591250Y223750D02*
D03*
X112500Y248750D02*
D03*
X96250Y216250D02*
D03*
X61585Y338081D02*
D03*
X65915D02*
D03*
X61585Y333750D02*
D03*
X65915D02*
D03*
X61585Y329419D02*
D03*
X65915D02*
D03*
X221250Y184334D02*
D03*
X207500Y163750D02*
D03*
X230000Y185000D02*
D03*
X224000D02*
D03*
X225500Y188000D02*
D03*
X227000Y185000D02*
D03*
X222500Y182000D02*
D03*
X225500D02*
D03*
X233000Y185000D02*
D03*
X228500Y188000D02*
D03*
X227000Y191000D02*
D03*
X231500Y188000D02*
D03*
X234500D02*
D03*
X231831Y198169D02*
D03*
X231500Y194000D02*
D03*
X237500Y191250D02*
D03*
X228500Y194000D02*
D03*
X225500D02*
D03*
X230000Y191000D02*
D03*
X231831Y202500D02*
D03*
X227500Y198169D02*
D03*
X223169D02*
D03*
X222500Y194000D02*
D03*
X224000Y191000D02*
D03*
X200000Y188750D02*
D03*
X240500Y188000D02*
D03*
X320000Y195000D02*
D03*
X317500D02*
D03*
X322500D02*
D03*
X320000Y190000D02*
D03*
X318750Y187500D02*
D03*
X317500Y190000D02*
D03*
X322500D02*
D03*
X318750Y192500D02*
D03*
X321250Y187500D02*
D03*
X325000Y190000D02*
D03*
X323750Y192500D02*
D03*
X321250D02*
D03*
X331250Y187500D02*
D03*
X323750D02*
D03*
X327500Y190000D02*
D03*
X326250Y187500D02*
D03*
X332500Y190000D02*
D03*
X333750Y187500D02*
D03*
X330000Y190000D02*
D03*
X331250Y192500D02*
D03*
X326250D02*
D03*
X328750Y187500D02*
D03*
X231500Y212000D02*
D03*
X228500D02*
D03*
X227500Y206831D02*
D03*
X231831D02*
D03*
X227500Y202500D02*
D03*
X222500Y212000D02*
D03*
X225500D02*
D03*
X185000Y187500D02*
D03*
X198750Y166250D02*
D03*
X200670Y158750D02*
D03*
X177500Y187500D02*
D03*
X197278Y190222D02*
D03*
X196250Y193209D02*
D03*
X203396Y195072D02*
D03*
X221250Y176250D02*
D03*
X420000Y162500D02*
D03*
X437500Y176250D02*
D03*
X416250Y163750D02*
D03*
X415000Y188396D02*
D03*
X416250Y195000D02*
D03*
X397500Y186250D02*
D03*
X402500D02*
D03*
X407500Y158750D02*
D03*
X508000Y205723D02*
D03*
X501500Y218000D02*
D03*
X500000Y215000D02*
D03*
X501500Y212000D02*
D03*
X500000Y209000D02*
D03*
X498500Y218000D02*
D03*
Y212000D02*
D03*
X562500Y277000D02*
D03*
X542200Y224300D02*
D03*
X539203Y212400D02*
D03*
X547077Y224173D02*
D03*
X552250Y224921D02*
D03*
X535000Y238000D02*
D03*
X31000Y227129D02*
D03*
X28213Y212079D02*
D03*
X21000Y209000D02*
D03*
X56321Y231750D02*
D03*
X51000Y214000D02*
D03*
X97549Y237451D02*
D03*
X105000Y238451D02*
D03*
X56000Y263000D02*
D03*
X51250Y245000D02*
D03*
Y268418D02*
D03*
X26000Y243000D02*
D03*
X27250Y238750D02*
D03*
X351250Y224738D02*
D03*
X336250D02*
D03*
X343750D02*
D03*
X297500Y245000D02*
D03*
X148750Y236250D02*
D03*
Y240000D02*
D03*
Y243750D02*
D03*
X266250Y237500D02*
D03*
X380000Y251250D02*
D03*
X405000Y225000D02*
D03*
X399911Y218888D02*
D03*
X483022Y232500D02*
D03*
Y245000D02*
D03*
X488750Y222500D02*
D03*
X367500Y251250D02*
D03*
X387736Y218750D02*
D03*
X165000Y236250D02*
D03*
X186250Y233750D02*
D03*
X177500D02*
D03*
X198750D02*
D03*
X211250D02*
D03*
X223750D02*
D03*
X236250D02*
D03*
X248750D02*
D03*
X261250D02*
D03*
X284000Y179000D02*
D03*
X281000D02*
D03*
X278000D02*
D03*
X275000D02*
D03*
X272000D02*
D03*
X269000D02*
D03*
X266000D02*
D03*
X263000D02*
D03*
X260000D02*
D03*
X257000D02*
D03*
X254000D02*
D03*
X252500Y182000D02*
D03*
X251000Y179000D02*
D03*
X249500Y188000D02*
D03*
Y182000D02*
D03*
X248000Y179000D02*
D03*
X246500Y188000D02*
D03*
Y182000D02*
D03*
X245000Y179000D02*
D03*
X243500Y188000D02*
D03*
Y182000D02*
D03*
X242000Y179000D02*
D03*
X240500Y182000D02*
D03*
X239000Y179000D02*
D03*
X237500Y182000D02*
D03*
X236000Y179000D02*
D03*
X234500Y182000D02*
D03*
X233000Y179000D02*
D03*
X231500Y218000D02*
D03*
X230000Y215000D02*
D03*
X231500Y182000D02*
D03*
X230000Y179000D02*
D03*
X228500Y218000D02*
D03*
X227000Y215000D02*
D03*
X228500Y182000D02*
D03*
X227000Y179000D02*
D03*
X225500Y218000D02*
D03*
X224000Y215000D02*
D03*
Y179000D02*
D03*
X222500Y218000D02*
D03*
X221000Y215000D02*
D03*
X219500Y218000D02*
D03*
X218000Y215000D02*
D03*
X219500Y212000D02*
D03*
X216500Y218000D02*
D03*
X215000Y215000D02*
D03*
X213500Y218000D02*
D03*
X210500D02*
D03*
X207500D02*
D03*
X491000Y179000D02*
D03*
X488000D02*
D03*
X485000D02*
D03*
X482000D02*
D03*
X479000D02*
D03*
X476000D02*
D03*
X473000D02*
D03*
X470000D02*
D03*
X468500Y182000D02*
D03*
X467000Y179000D02*
D03*
X465500Y188000D02*
D03*
Y182000D02*
D03*
X464000Y179000D02*
D03*
X462500Y188000D02*
D03*
Y182000D02*
D03*
X461000Y179000D02*
D03*
X459500Y188000D02*
D03*
Y182000D02*
D03*
X458000Y179000D02*
D03*
X456500Y188000D02*
D03*
Y182000D02*
D03*
X455000Y179000D02*
D03*
X453500Y182000D02*
D03*
X452000Y179000D02*
D03*
X449000Y185000D02*
D03*
X450500Y182000D02*
D03*
X449000Y179000D02*
D03*
X447500Y218000D02*
D03*
X446000Y215000D02*
D03*
X447500Y212000D02*
D03*
X446000Y191000D02*
D03*
X447500Y188000D02*
D03*
X446000Y185000D02*
D03*
X447500Y182000D02*
D03*
X446000Y179000D02*
D03*
X444500Y218000D02*
D03*
X443000Y215000D02*
D03*
X444500Y212000D02*
D03*
Y194000D02*
D03*
X443000Y191000D02*
D03*
X444500Y188000D02*
D03*
X443000Y185000D02*
D03*
X444500Y182000D02*
D03*
X443000Y179000D02*
D03*
X441500Y218000D02*
D03*
X440000Y215000D02*
D03*
X441500Y212000D02*
D03*
Y194000D02*
D03*
X440000Y191000D02*
D03*
X441500Y188000D02*
D03*
X440000Y185000D02*
D03*
X441500Y182000D02*
D03*
X440000Y179000D02*
D03*
X438500Y218000D02*
D03*
X437000Y215000D02*
D03*
X438500Y212000D02*
D03*
Y194000D02*
D03*
Y188000D02*
D03*
Y182000D02*
D03*
X435500Y218000D02*
D03*
X434000Y215000D02*
D03*
X435500Y212000D02*
D03*
X432500Y218000D02*
D03*
X431000Y215000D02*
D03*
X429500Y218000D02*
D03*
X428000Y215000D02*
D03*
X426500Y218000D02*
D03*
X423500D02*
D03*
X420500D02*
D03*
X223169Y202500D02*
D03*
Y206831D02*
D03*
X446831Y198169D02*
D03*
X442500D02*
D03*
X438169D02*
D03*
X446831Y202500D02*
D03*
X442500D02*
D03*
X438169D02*
D03*
X446831Y206831D02*
D03*
X442500D02*
D03*
X438169D02*
D03*
X436250Y183750D02*
D03*
X417500Y191250D02*
D03*
X452500D02*
D03*
X336250Y60000D02*
D03*
X350000Y55000D02*
D03*
X345000D02*
D03*
X333750Y51106D02*
D03*
X330000Y50000D02*
D03*
X323750D02*
D03*
X229375Y58125D02*
D03*
X220271Y61875D02*
D03*
X213125D02*
D03*
X234375Y58125D02*
D03*
X122500Y224035D02*
D03*
Y215965D02*
D03*
X111250Y265000D02*
D03*
X120000Y260000D02*
D03*
X142500Y147500D02*
D03*
X147500D02*
D03*
X560000Y386000D02*
D03*
Y380000D02*
D03*
Y374000D02*
D03*
Y368000D02*
D03*
Y362000D02*
D03*
Y296000D02*
D03*
Y290000D02*
D03*
Y284000D02*
D03*
X557000Y386000D02*
D03*
X558500Y383000D02*
D03*
X557000Y380000D02*
D03*
X558500Y377000D02*
D03*
X557000Y374000D02*
D03*
X558500Y371000D02*
D03*
X557000Y362000D02*
D03*
Y296000D02*
D03*
X558500Y293000D02*
D03*
X557000Y290000D02*
D03*
X558500Y287000D02*
D03*
X554000Y386000D02*
D03*
X555500Y383000D02*
D03*
X554000Y380000D02*
D03*
X555500Y377000D02*
D03*
X554000Y374000D02*
D03*
X555500Y371000D02*
D03*
X554000Y362000D02*
D03*
Y296000D02*
D03*
X555500Y293000D02*
D03*
X554000Y290000D02*
D03*
X551000Y386000D02*
D03*
X552500Y383000D02*
D03*
X551000Y380000D02*
D03*
X552500Y377000D02*
D03*
X551000Y374000D02*
D03*
X552500Y371000D02*
D03*
X551000Y362000D02*
D03*
Y296000D02*
D03*
X552500Y293000D02*
D03*
X551000Y290000D02*
D03*
Y284000D02*
D03*
X548000Y386000D02*
D03*
X549500Y383000D02*
D03*
X548000Y380000D02*
D03*
X549500Y377000D02*
D03*
X548000Y374000D02*
D03*
X549500Y371000D02*
D03*
X548000Y362000D02*
D03*
Y296000D02*
D03*
X549500Y293000D02*
D03*
X548000Y290000D02*
D03*
X549500Y287000D02*
D03*
X548000Y284000D02*
D03*
X545000Y386000D02*
D03*
X546500Y383000D02*
D03*
X545000Y380000D02*
D03*
X546500Y377000D02*
D03*
X545000Y374000D02*
D03*
X546500Y371000D02*
D03*
X545000Y362000D02*
D03*
X546500Y293000D02*
D03*
X545000Y290000D02*
D03*
X546500Y287000D02*
D03*
X545000Y284000D02*
D03*
X540000Y277500D02*
D03*
X517500D02*
D03*
X495000D02*
D03*
X472500D02*
D03*
X450012D02*
D03*
X427500D02*
D03*
X405000D02*
D03*
X382500D02*
D03*
X360000D02*
D03*
X337500D02*
D03*
X315000D02*
D03*
X292500D02*
D03*
X270000D02*
D03*
X247500D02*
D03*
X206250Y276928D02*
D03*
X180000Y277500D02*
D03*
X561250Y241250D02*
D03*
X523750Y246250D02*
D03*
X123750Y116250D02*
D03*
X177500Y215000D02*
D03*
X545000Y205000D02*
D03*
Y200000D02*
D03*
Y195000D02*
D03*
X542500Y205000D02*
D03*
X540000D02*
D03*
X537500D02*
D03*
X535000D02*
D03*
X532500D02*
D03*
X531250Y202500D02*
D03*
X533750D02*
D03*
X536250D02*
D03*
X538750D02*
D03*
X541250D02*
D03*
X530000Y200000D02*
D03*
X532500D02*
D03*
X535000D02*
D03*
X537500D02*
D03*
X540000D02*
D03*
X542500D02*
D03*
X530000Y195000D02*
D03*
X532500D02*
D03*
X535000D02*
D03*
X537500D02*
D03*
X540000D02*
D03*
X542500D02*
D03*
X541250Y197500D02*
D03*
X538750D02*
D03*
X536250D02*
D03*
X533750D02*
D03*
X531250D02*
D03*
X541250Y192500D02*
D03*
X538750D02*
D03*
X536250D02*
D03*
X533750D02*
D03*
X531250D02*
D03*
X528750Y202500D02*
D03*
X543750D02*
D03*
Y197500D02*
D03*
X528750D02*
D03*
X543750Y192500D02*
D03*
X528750D02*
D03*
Y187500D02*
D03*
X543750D02*
D03*
X531250D02*
D03*
X533750D02*
D03*
X536250D02*
D03*
X538750D02*
D03*
X541250D02*
D03*
X542500Y190000D02*
D03*
X540000D02*
D03*
X537500D02*
D03*
X535000D02*
D03*
X532500D02*
D03*
X530000D02*
D03*
X545000D02*
D03*
X335000D02*
D03*
X333750Y192500D02*
D03*
X318750Y197500D02*
D03*
X333750D02*
D03*
Y202500D02*
D03*
X318750D02*
D03*
X328750Y192500D02*
D03*
X321250Y197500D02*
D03*
X323750D02*
D03*
X326250D02*
D03*
X328750D02*
D03*
X331250D02*
D03*
X332500Y195000D02*
D03*
X330000D02*
D03*
X327500D02*
D03*
X325000D02*
D03*
X332500Y200000D02*
D03*
X330000D02*
D03*
X327500D02*
D03*
X325000D02*
D03*
X322500D02*
D03*
X320000D02*
D03*
X331250Y202500D02*
D03*
X328750D02*
D03*
X326250D02*
D03*
X323750D02*
D03*
X321250D02*
D03*
X317500Y200000D02*
D03*
X320000Y205000D02*
D03*
X322500D02*
D03*
X325000D02*
D03*
X327500D02*
D03*
X330000D02*
D03*
X332500D02*
D03*
X335000Y195000D02*
D03*
Y200000D02*
D03*
Y205000D02*
D03*
X317500D02*
D03*
X564242Y207185D02*
D03*
X566250Y209371D02*
D03*
X565000Y183750D02*
D03*
X564050Y196247D02*
D03*
X553750Y190981D02*
D03*
X566250Y205000D02*
D03*
X563750Y202500D02*
D03*
X562500Y177470D02*
D03*
X574016Y174720D02*
D03*
X554019Y198750D02*
D03*
X553750Y178209D02*
D03*
X554193Y215268D02*
D03*
X549045Y209705D02*
D03*
X353750Y197500D02*
D03*
X357500Y193750D02*
D03*
X355000Y203750D02*
D03*
X137500Y147500D02*
D03*
X152500D02*
D03*
X157500D02*
D03*
X162483Y147517D02*
D03*
X579921Y222451D02*
D03*
X41250Y260802D02*
D03*
X38750Y265250D02*
D03*
X357421Y111875D02*
D03*
X531250Y213750D02*
D03*
X356875Y196875D02*
D03*
X358125Y203750D02*
D03*
X69375Y248386D02*
D03*
X81825Y256880D02*
D03*
X73650Y260050D02*
D03*
X76162Y257550D02*
D03*
X91250Y220000D02*
D03*
X502421Y120625D02*
D03*
X518750Y192500D02*
D03*
X528750Y182500D02*
D03*
X531250Y180000D02*
D03*
X525000Y210000D02*
D03*
X528750D02*
D03*
X545649Y178750D02*
D03*
X535000D02*
D03*
X313455Y211387D02*
D03*
X337500Y212500D02*
D03*
X472500Y185000D02*
D03*
X399911Y214911D02*
D03*
X400000Y201250D02*
D03*
X384619Y217752D02*
D03*
X386250Y212500D02*
D03*
X498750Y251250D02*
D03*
X501250Y248750D02*
D03*
X506250D02*
D03*
X508750Y251250D02*
D03*
X503750D02*
D03*
X517244Y231250D02*
D03*
X527500Y251250D02*
D03*
X512500Y222500D02*
D03*
X515607Y221306D02*
D03*
X518750Y221250D02*
D03*
X521486Y213750D02*
D03*
X517244Y227910D02*
D03*
X305000Y246250D02*
D03*
X388750Y237500D02*
D03*
X518750Y203125D02*
D03*
Y200000D02*
D03*
Y196250D02*
D03*
X307500Y216250D02*
D03*
X320000Y211250D02*
D03*
X310085Y213295D02*
D03*
X257500Y185000D02*
D03*
X356889Y206708D02*
D03*
X357617Y209673D02*
D03*
X356250Y212500D02*
D03*
X273750Y230000D02*
D03*
X328285Y237784D02*
D03*
X325319Y236792D02*
D03*
X305000Y231447D02*
D03*
X607500Y87500D02*
D03*
X597500D02*
D03*
X602500D02*
D03*
X221000Y353000D02*
D03*
X222500Y350000D02*
D03*
Y344000D02*
D03*
X221000Y341000D02*
D03*
X222500Y338000D02*
D03*
X221000Y335000D02*
D03*
X222500Y332000D02*
D03*
X221000Y329000D02*
D03*
X222500Y326000D02*
D03*
X221000Y317000D02*
D03*
X218000Y353000D02*
D03*
X219500Y344000D02*
D03*
X218000Y341000D02*
D03*
X219500Y338000D02*
D03*
X218000Y335000D02*
D03*
X219500Y332000D02*
D03*
X218000Y329000D02*
D03*
X219500Y326000D02*
D03*
X218000Y317000D02*
D03*
X215000Y353000D02*
D03*
X216500Y344000D02*
D03*
X215000Y341000D02*
D03*
X216500Y338000D02*
D03*
X215000Y335000D02*
D03*
X216500Y332000D02*
D03*
X215000Y329000D02*
D03*
X216500Y326000D02*
D03*
X212000Y353000D02*
D03*
X213500Y344000D02*
D03*
X212000Y341000D02*
D03*
X213500Y338000D02*
D03*
X212000Y335000D02*
D03*
X213500Y332000D02*
D03*
X212000Y329000D02*
D03*
X213500Y326000D02*
D03*
X212000Y317000D02*
D03*
X209000Y353000D02*
D03*
X210500Y344000D02*
D03*
X209000Y341000D02*
D03*
X210500Y338000D02*
D03*
X209000Y335000D02*
D03*
X210500Y332000D02*
D03*
X209000Y329000D02*
D03*
X210500Y326000D02*
D03*
X209000Y317000D02*
D03*
X245000Y353000D02*
D03*
Y347000D02*
D03*
Y341000D02*
D03*
Y335000D02*
D03*
Y329000D02*
D03*
Y317000D02*
D03*
X242000Y353000D02*
D03*
X243500Y344000D02*
D03*
X242000Y341000D02*
D03*
X243500Y338000D02*
D03*
X242000Y335000D02*
D03*
X243500Y332000D02*
D03*
X242000Y329000D02*
D03*
X243500Y326000D02*
D03*
X242000Y317000D02*
D03*
X239000Y353000D02*
D03*
X240500Y344000D02*
D03*
X239000Y341000D02*
D03*
X240500Y338000D02*
D03*
X239000Y335000D02*
D03*
X240500Y332000D02*
D03*
X239000Y329000D02*
D03*
X240500Y326000D02*
D03*
X236000Y353000D02*
D03*
X237500Y344000D02*
D03*
X236000Y341000D02*
D03*
X237500Y338000D02*
D03*
X236000Y335000D02*
D03*
X237500Y332000D02*
D03*
X236000Y329000D02*
D03*
X237500Y326000D02*
D03*
X233000Y353000D02*
D03*
X234500Y344000D02*
D03*
X233000Y341000D02*
D03*
X234500Y338000D02*
D03*
X233000Y335000D02*
D03*
X234500Y332000D02*
D03*
X233000Y329000D02*
D03*
X234500Y326000D02*
D03*
X233000Y317000D02*
D03*
X230000Y353000D02*
D03*
Y347000D02*
D03*
X231500Y344000D02*
D03*
X230000Y341000D02*
D03*
X231500Y338000D02*
D03*
X230000Y335000D02*
D03*
X231500Y332000D02*
D03*
X230000Y329000D02*
D03*
X231500Y326000D02*
D03*
X230000Y323000D02*
D03*
Y317000D02*
D03*
X266000Y353000D02*
D03*
X267500Y350000D02*
D03*
Y344000D02*
D03*
X266000Y341000D02*
D03*
X267500Y338000D02*
D03*
X266000Y335000D02*
D03*
X267500Y332000D02*
D03*
X266000Y329000D02*
D03*
X267500Y326000D02*
D03*
X266000Y317000D02*
D03*
X263000Y353000D02*
D03*
X264500Y344000D02*
D03*
X263000Y341000D02*
D03*
X264500Y338000D02*
D03*
X263000Y335000D02*
D03*
X264500Y332000D02*
D03*
X263000Y329000D02*
D03*
X264500Y326000D02*
D03*
X263000Y317000D02*
D03*
X260000Y353000D02*
D03*
X261500Y344000D02*
D03*
X260000Y341000D02*
D03*
X261500Y338000D02*
D03*
X260000Y335000D02*
D03*
X261500Y332000D02*
D03*
X260000Y329000D02*
D03*
X261500Y326000D02*
D03*
X257000Y353000D02*
D03*
X258500Y344000D02*
D03*
X257000Y341000D02*
D03*
X258500Y338000D02*
D03*
X257000Y335000D02*
D03*
X258500Y332000D02*
D03*
X257000Y329000D02*
D03*
X258500Y326000D02*
D03*
X257000Y317000D02*
D03*
X254000Y353000D02*
D03*
X255500Y344000D02*
D03*
X254000Y341000D02*
D03*
X255500Y338000D02*
D03*
X254000Y335000D02*
D03*
X255500Y332000D02*
D03*
X254000Y329000D02*
D03*
X255500Y326000D02*
D03*
X254000Y317000D02*
D03*
X290000Y353000D02*
D03*
Y347000D02*
D03*
Y341000D02*
D03*
Y335000D02*
D03*
Y329000D02*
D03*
Y317000D02*
D03*
X287000Y353000D02*
D03*
X288500Y344000D02*
D03*
X287000Y341000D02*
D03*
X288500Y338000D02*
D03*
X287000Y335000D02*
D03*
X288500Y332000D02*
D03*
X287000Y329000D02*
D03*
X288500Y326000D02*
D03*
X287000Y317000D02*
D03*
X284000Y353000D02*
D03*
X285500Y344000D02*
D03*
X284000Y341000D02*
D03*
X285500Y338000D02*
D03*
X284000Y335000D02*
D03*
X285500Y332000D02*
D03*
X284000Y329000D02*
D03*
X285500Y326000D02*
D03*
X281000Y353000D02*
D03*
X282500Y344000D02*
D03*
X281000Y341000D02*
D03*
X282500Y338000D02*
D03*
X281000Y335000D02*
D03*
X282500Y332000D02*
D03*
X281000Y329000D02*
D03*
X282500Y326000D02*
D03*
X278000Y353000D02*
D03*
X279500Y344000D02*
D03*
X278000Y341000D02*
D03*
X279500Y338000D02*
D03*
X278000Y335000D02*
D03*
X279500Y332000D02*
D03*
X278000Y329000D02*
D03*
X279500Y326000D02*
D03*
X278000Y317000D02*
D03*
X275000Y353000D02*
D03*
Y347000D02*
D03*
X276500Y344000D02*
D03*
X275000Y341000D02*
D03*
X276500Y338000D02*
D03*
X275000Y335000D02*
D03*
X276500Y332000D02*
D03*
X275000Y329000D02*
D03*
X276500Y326000D02*
D03*
X275000Y323000D02*
D03*
Y317000D02*
D03*
X311000Y353000D02*
D03*
X312500Y350000D02*
D03*
Y344000D02*
D03*
X311000Y341000D02*
D03*
X312500Y338000D02*
D03*
X311000Y335000D02*
D03*
X312500Y332000D02*
D03*
X311000Y329000D02*
D03*
X312500Y326000D02*
D03*
X311000Y317000D02*
D03*
X308000Y353000D02*
D03*
X309500Y344000D02*
D03*
X308000Y341000D02*
D03*
X309500Y338000D02*
D03*
X308000Y335000D02*
D03*
X309500Y332000D02*
D03*
X308000Y329000D02*
D03*
X309500Y326000D02*
D03*
X308000Y317000D02*
D03*
X305000Y353000D02*
D03*
X306500Y344000D02*
D03*
X305000Y341000D02*
D03*
X306500Y338000D02*
D03*
X305000Y335000D02*
D03*
X306500Y332000D02*
D03*
X305000Y329000D02*
D03*
X306500Y326000D02*
D03*
X302000Y353000D02*
D03*
X303500Y344000D02*
D03*
X302000Y341000D02*
D03*
X303500Y338000D02*
D03*
X302000Y335000D02*
D03*
X303500Y332000D02*
D03*
X302000Y329000D02*
D03*
X303500Y326000D02*
D03*
X302000Y317000D02*
D03*
X299000Y353000D02*
D03*
X300500Y344000D02*
D03*
X299000Y341000D02*
D03*
X300500Y338000D02*
D03*
X299000Y335000D02*
D03*
X300500Y332000D02*
D03*
X299000Y329000D02*
D03*
X300500Y326000D02*
D03*
X299000Y317000D02*
D03*
X335000Y353000D02*
D03*
Y347000D02*
D03*
Y341000D02*
D03*
Y335000D02*
D03*
Y329000D02*
D03*
X332000Y353000D02*
D03*
X333500Y344000D02*
D03*
X332000Y341000D02*
D03*
X333500Y338000D02*
D03*
X332000Y335000D02*
D03*
X333500Y332000D02*
D03*
X332000Y329000D02*
D03*
X333500Y326000D02*
D03*
X332000Y317000D02*
D03*
X329000Y353000D02*
D03*
X330500Y344000D02*
D03*
X329000Y341000D02*
D03*
X330500Y338000D02*
D03*
X329000Y335000D02*
D03*
X330500Y332000D02*
D03*
X329000Y329000D02*
D03*
X330500Y326000D02*
D03*
X326000Y353000D02*
D03*
X327500Y344000D02*
D03*
X326000Y341000D02*
D03*
X327500Y338000D02*
D03*
X326000Y335000D02*
D03*
X327500Y332000D02*
D03*
X326000Y329000D02*
D03*
X327500Y326000D02*
D03*
X323000Y353000D02*
D03*
X324500Y344000D02*
D03*
X323000Y341000D02*
D03*
X324500Y338000D02*
D03*
X323000Y335000D02*
D03*
X324500Y332000D02*
D03*
X323000Y329000D02*
D03*
X324500Y326000D02*
D03*
X323000Y317000D02*
D03*
X320000Y353000D02*
D03*
Y347000D02*
D03*
X321500Y344000D02*
D03*
X320000Y341000D02*
D03*
X321500Y338000D02*
D03*
X320000Y335000D02*
D03*
X321500Y332000D02*
D03*
X320000Y329000D02*
D03*
X321500Y326000D02*
D03*
X320000Y323000D02*
D03*
Y317000D02*
D03*
X356000Y353000D02*
D03*
X357500Y350000D02*
D03*
Y344000D02*
D03*
X356000Y341000D02*
D03*
X357500Y338000D02*
D03*
X356000Y335000D02*
D03*
X357500Y332000D02*
D03*
X356000Y329000D02*
D03*
X357500Y326000D02*
D03*
X356000Y317000D02*
D03*
X353000Y353000D02*
D03*
X354500Y344000D02*
D03*
X353000Y341000D02*
D03*
X354500Y338000D02*
D03*
X353000Y335000D02*
D03*
X354500Y332000D02*
D03*
X353000Y329000D02*
D03*
X354500Y326000D02*
D03*
X353000Y317000D02*
D03*
X350000Y353000D02*
D03*
X351500Y344000D02*
D03*
X350000Y341000D02*
D03*
X351500Y338000D02*
D03*
X350000Y335000D02*
D03*
X351500Y332000D02*
D03*
X350000Y329000D02*
D03*
X351500Y326000D02*
D03*
X347000Y353000D02*
D03*
X348500Y344000D02*
D03*
X347000Y341000D02*
D03*
X348500Y338000D02*
D03*
X347000Y335000D02*
D03*
X348500Y332000D02*
D03*
X347000Y329000D02*
D03*
X348500Y326000D02*
D03*
X347000Y317000D02*
D03*
X344000Y353000D02*
D03*
X345500Y344000D02*
D03*
X344000Y341000D02*
D03*
X345500Y338000D02*
D03*
X344000Y335000D02*
D03*
X345500Y332000D02*
D03*
X344000Y329000D02*
D03*
X345500Y326000D02*
D03*
X344000Y317000D02*
D03*
X380000Y353000D02*
D03*
Y347000D02*
D03*
Y341000D02*
D03*
Y335000D02*
D03*
Y329000D02*
D03*
X377000Y353000D02*
D03*
X378500Y344000D02*
D03*
X377000Y341000D02*
D03*
X378500Y338000D02*
D03*
X377000Y335000D02*
D03*
X378500Y332000D02*
D03*
X377000Y329000D02*
D03*
X378500Y326000D02*
D03*
X377000Y317000D02*
D03*
X374000Y353000D02*
D03*
X375500Y344000D02*
D03*
X374000Y341000D02*
D03*
X375500Y338000D02*
D03*
X374000Y335000D02*
D03*
X375500Y332000D02*
D03*
X374000Y329000D02*
D03*
X375500Y326000D02*
D03*
X371000Y353000D02*
D03*
X372500Y344000D02*
D03*
X371000Y341000D02*
D03*
X372500Y338000D02*
D03*
X371000Y335000D02*
D03*
X372500Y332000D02*
D03*
X371000Y329000D02*
D03*
X372500Y326000D02*
D03*
X368000Y353000D02*
D03*
X369500Y344000D02*
D03*
X368000Y341000D02*
D03*
X369500Y338000D02*
D03*
X368000Y335000D02*
D03*
X369500Y332000D02*
D03*
X368000Y329000D02*
D03*
X369500Y326000D02*
D03*
X368000Y317000D02*
D03*
X365000Y353000D02*
D03*
Y347000D02*
D03*
X366500Y344000D02*
D03*
X365000Y341000D02*
D03*
X366500Y338000D02*
D03*
X365000Y335000D02*
D03*
X366500Y332000D02*
D03*
X365000Y329000D02*
D03*
X366500Y326000D02*
D03*
X365000Y323000D02*
D03*
Y317000D02*
D03*
X401000Y353000D02*
D03*
X402500Y350000D02*
D03*
Y344000D02*
D03*
X401000Y341000D02*
D03*
X402500Y338000D02*
D03*
X401000Y335000D02*
D03*
X402500Y332000D02*
D03*
X401000Y329000D02*
D03*
X402500Y326000D02*
D03*
X401000Y317000D02*
D03*
X398000Y353000D02*
D03*
X399500Y344000D02*
D03*
X398000Y341000D02*
D03*
X399500Y338000D02*
D03*
X398000Y335000D02*
D03*
X399500Y332000D02*
D03*
X398000Y329000D02*
D03*
X399500Y326000D02*
D03*
X398000Y317000D02*
D03*
X395000Y353000D02*
D03*
X396500Y344000D02*
D03*
X395000Y341000D02*
D03*
X396500Y338000D02*
D03*
X395000Y335000D02*
D03*
X396500Y332000D02*
D03*
X395000Y329000D02*
D03*
X396500Y326000D02*
D03*
X392000Y353000D02*
D03*
X393500Y344000D02*
D03*
X392000Y341000D02*
D03*
X393500Y338000D02*
D03*
X392000Y335000D02*
D03*
X393500Y332000D02*
D03*
X392000Y329000D02*
D03*
X393500Y326000D02*
D03*
X392000Y317000D02*
D03*
X389000Y353000D02*
D03*
X390500Y344000D02*
D03*
X389000Y341000D02*
D03*
X390500Y338000D02*
D03*
X389000Y335000D02*
D03*
X390500Y332000D02*
D03*
X389000Y329000D02*
D03*
X390500Y326000D02*
D03*
X389000Y317000D02*
D03*
X425000Y353000D02*
D03*
Y347000D02*
D03*
Y341000D02*
D03*
Y335000D02*
D03*
Y329000D02*
D03*
X422000Y353000D02*
D03*
X423500Y344000D02*
D03*
X422000Y341000D02*
D03*
X423500Y338000D02*
D03*
X422000Y335000D02*
D03*
X423500Y332000D02*
D03*
X422000Y329000D02*
D03*
X423500Y326000D02*
D03*
X422000Y317000D02*
D03*
X419000Y353000D02*
D03*
X420500Y344000D02*
D03*
X419000Y341000D02*
D03*
X420500Y338000D02*
D03*
X419000Y335000D02*
D03*
X420500Y332000D02*
D03*
X419000Y329000D02*
D03*
X420500Y326000D02*
D03*
X416000Y353000D02*
D03*
X417500Y344000D02*
D03*
X416000Y341000D02*
D03*
X417500Y338000D02*
D03*
X416000Y335000D02*
D03*
X417500Y332000D02*
D03*
X416000Y329000D02*
D03*
X417500Y326000D02*
D03*
X413000Y353000D02*
D03*
X414500Y344000D02*
D03*
X413000Y341000D02*
D03*
X414500Y338000D02*
D03*
X413000Y335000D02*
D03*
X414500Y332000D02*
D03*
X413000Y329000D02*
D03*
X414500Y326000D02*
D03*
X413000Y317000D02*
D03*
X410000Y353000D02*
D03*
Y347000D02*
D03*
X411500Y344000D02*
D03*
X410000Y341000D02*
D03*
X411500Y338000D02*
D03*
X410000Y335000D02*
D03*
X411500Y332000D02*
D03*
X410000Y329000D02*
D03*
X411500Y326000D02*
D03*
X410000Y323000D02*
D03*
Y317000D02*
D03*
X446000Y353000D02*
D03*
X447500Y350000D02*
D03*
Y344000D02*
D03*
X446000Y341000D02*
D03*
X447500Y338000D02*
D03*
X446000Y335000D02*
D03*
X447500Y332000D02*
D03*
X446000Y329000D02*
D03*
X447500Y326000D02*
D03*
X443000Y353000D02*
D03*
X444500Y344000D02*
D03*
X443000Y341000D02*
D03*
X444500Y338000D02*
D03*
X443000Y335000D02*
D03*
X444500Y332000D02*
D03*
X443000Y329000D02*
D03*
X444500Y326000D02*
D03*
X440000Y353000D02*
D03*
X441500Y344000D02*
D03*
X440000Y341000D02*
D03*
X441500Y338000D02*
D03*
X440000Y335000D02*
D03*
X441500Y332000D02*
D03*
X440000Y329000D02*
D03*
X441500Y326000D02*
D03*
X437000Y353000D02*
D03*
X438500Y344000D02*
D03*
X437000Y341000D02*
D03*
X438500Y338000D02*
D03*
X437000Y335000D02*
D03*
X438500Y332000D02*
D03*
X437000Y329000D02*
D03*
X438500Y326000D02*
D03*
X434000Y353000D02*
D03*
X435500Y344000D02*
D03*
X434000Y341000D02*
D03*
X435500Y338000D02*
D03*
X434000Y335000D02*
D03*
X435500Y332000D02*
D03*
X434000Y329000D02*
D03*
X435500Y326000D02*
D03*
X470000Y353000D02*
D03*
Y341000D02*
D03*
Y335000D02*
D03*
Y329000D02*
D03*
X467000Y353000D02*
D03*
X468500Y344000D02*
D03*
X467000Y341000D02*
D03*
X468500Y338000D02*
D03*
X467000Y335000D02*
D03*
X468500Y332000D02*
D03*
X467000Y329000D02*
D03*
X468500Y326000D02*
D03*
X464000Y353000D02*
D03*
X465500Y344000D02*
D03*
X464000Y341000D02*
D03*
X465500Y338000D02*
D03*
X464000Y335000D02*
D03*
X465500Y332000D02*
D03*
X464000Y329000D02*
D03*
X465500Y326000D02*
D03*
X461000Y353000D02*
D03*
Y341000D02*
D03*
X462500Y338000D02*
D03*
X461000Y335000D02*
D03*
X462500Y332000D02*
D03*
X461000Y329000D02*
D03*
X462500Y326000D02*
D03*
X458000Y353000D02*
D03*
X459500Y344000D02*
D03*
X458000Y341000D02*
D03*
X459500Y338000D02*
D03*
X458000Y335000D02*
D03*
X459500Y332000D02*
D03*
X458000Y329000D02*
D03*
X459500Y326000D02*
D03*
X455000Y353000D02*
D03*
Y347000D02*
D03*
X456500Y344000D02*
D03*
X455000Y341000D02*
D03*
X456500Y338000D02*
D03*
X455000Y335000D02*
D03*
X456500Y332000D02*
D03*
X455000Y329000D02*
D03*
X456500Y326000D02*
D03*
X455000Y323000D02*
D03*
X491000Y353000D02*
D03*
X492500Y344000D02*
D03*
X491000Y341000D02*
D03*
X492500Y338000D02*
D03*
X491000Y335000D02*
D03*
X492500Y332000D02*
D03*
X491000Y329000D02*
D03*
X492500Y326000D02*
D03*
X488000Y353000D02*
D03*
X489500Y344000D02*
D03*
X488000Y341000D02*
D03*
X489500Y338000D02*
D03*
X488000Y335000D02*
D03*
X489500Y332000D02*
D03*
X488000Y329000D02*
D03*
X489500Y326000D02*
D03*
X486500Y344000D02*
D03*
X485000Y341000D02*
D03*
X486500Y338000D02*
D03*
X485000Y335000D02*
D03*
X486500Y332000D02*
D03*
X485000Y329000D02*
D03*
X486500Y326000D02*
D03*
X482000Y353000D02*
D03*
X483500Y344000D02*
D03*
X482000Y341000D02*
D03*
X483500Y338000D02*
D03*
X482000Y335000D02*
D03*
X483500Y332000D02*
D03*
X482000Y329000D02*
D03*
X483500Y326000D02*
D03*
X479000Y353000D02*
D03*
X480500Y344000D02*
D03*
X479000Y341000D02*
D03*
X480500Y338000D02*
D03*
X479000Y335000D02*
D03*
X480500Y332000D02*
D03*
X479000Y329000D02*
D03*
X480500Y326000D02*
D03*
X515000Y353000D02*
D03*
Y341000D02*
D03*
Y335000D02*
D03*
Y329000D02*
D03*
X512000Y353000D02*
D03*
X513500Y344000D02*
D03*
X512000Y341000D02*
D03*
X513500Y338000D02*
D03*
X512000Y335000D02*
D03*
X513500Y332000D02*
D03*
X512000Y329000D02*
D03*
X513500Y326000D02*
D03*
X510500Y344000D02*
D03*
X509000Y341000D02*
D03*
X510500Y338000D02*
D03*
X509000Y335000D02*
D03*
X510500Y332000D02*
D03*
X509000Y329000D02*
D03*
X510500Y326000D02*
D03*
X507500Y344000D02*
D03*
X506000Y341000D02*
D03*
X507500Y338000D02*
D03*
X506000Y335000D02*
D03*
X507500Y332000D02*
D03*
X506000Y329000D02*
D03*
X507500Y326000D02*
D03*
X503000Y353000D02*
D03*
X504500Y344000D02*
D03*
X503000Y341000D02*
D03*
X504500Y338000D02*
D03*
X503000Y335000D02*
D03*
X504500Y332000D02*
D03*
X503000Y329000D02*
D03*
X504500Y326000D02*
D03*
X500000Y353000D02*
D03*
X501500Y344000D02*
D03*
X500000Y341000D02*
D03*
X501500Y338000D02*
D03*
X500000Y335000D02*
D03*
X501500Y332000D02*
D03*
X500000Y329000D02*
D03*
X501500Y326000D02*
D03*
X500000Y323000D02*
D03*
X537500Y344000D02*
D03*
X536000Y341000D02*
D03*
X537500Y338000D02*
D03*
X536000Y335000D02*
D03*
X537500Y332000D02*
D03*
X536000Y329000D02*
D03*
X537500Y326000D02*
D03*
X534500Y344000D02*
D03*
X533000Y341000D02*
D03*
X534500Y338000D02*
D03*
X533000Y335000D02*
D03*
X534500Y332000D02*
D03*
X533000Y329000D02*
D03*
X534500Y326000D02*
D03*
X531500Y344000D02*
D03*
X530000Y341000D02*
D03*
X531500Y338000D02*
D03*
X530000Y335000D02*
D03*
X531500Y332000D02*
D03*
X530000Y329000D02*
D03*
X531500Y326000D02*
D03*
X528500Y344000D02*
D03*
X527000Y341000D02*
D03*
X528500Y338000D02*
D03*
X527000Y335000D02*
D03*
X528500Y332000D02*
D03*
X527000Y329000D02*
D03*
X528500Y326000D02*
D03*
X525500Y344000D02*
D03*
X524000Y341000D02*
D03*
X525500Y338000D02*
D03*
X524000Y335000D02*
D03*
X525500Y332000D02*
D03*
X524000Y329000D02*
D03*
X525500Y326000D02*
D03*
X560000Y341000D02*
D03*
Y335000D02*
D03*
Y329000D02*
D03*
X558500Y344000D02*
D03*
X557000Y341000D02*
D03*
X558500Y338000D02*
D03*
X557000Y335000D02*
D03*
X558500Y332000D02*
D03*
X557000Y329000D02*
D03*
X558500Y326000D02*
D03*
X555500Y344000D02*
D03*
X554000Y341000D02*
D03*
X555500Y338000D02*
D03*
X554000Y335000D02*
D03*
X555500Y332000D02*
D03*
X554000Y329000D02*
D03*
X555500Y326000D02*
D03*
X552500Y344000D02*
D03*
X551000Y341000D02*
D03*
X552500Y338000D02*
D03*
X551000Y335000D02*
D03*
X552500Y332000D02*
D03*
X551000Y329000D02*
D03*
X552500Y326000D02*
D03*
X549500Y344000D02*
D03*
X548000Y341000D02*
D03*
X549500Y338000D02*
D03*
X548000Y335000D02*
D03*
X549500Y332000D02*
D03*
X548000Y329000D02*
D03*
X549500Y326000D02*
D03*
X546500Y344000D02*
D03*
X545000Y341000D02*
D03*
X546500Y338000D02*
D03*
X545000Y335000D02*
D03*
X546500Y332000D02*
D03*
X545000Y329000D02*
D03*
X546500Y326000D02*
D03*
X545000Y323000D02*
D03*
X582500Y344000D02*
D03*
X581000Y341000D02*
D03*
X582500Y338000D02*
D03*
X581000Y335000D02*
D03*
X582500Y332000D02*
D03*
X581000Y329000D02*
D03*
X582500Y326000D02*
D03*
X579500Y344000D02*
D03*
X578000Y341000D02*
D03*
X579500Y338000D02*
D03*
X578000Y335000D02*
D03*
X579500Y332000D02*
D03*
X578000Y329000D02*
D03*
X579500Y326000D02*
D03*
X576500Y344000D02*
D03*
X575000Y341000D02*
D03*
X576500Y338000D02*
D03*
X575000Y335000D02*
D03*
X576500Y332000D02*
D03*
X575000Y329000D02*
D03*
X576500Y326000D02*
D03*
X573500Y344000D02*
D03*
X572000Y341000D02*
D03*
X573500Y338000D02*
D03*
X572000Y335000D02*
D03*
X573500Y332000D02*
D03*
X572000Y329000D02*
D03*
X573500Y326000D02*
D03*
X570500Y344000D02*
D03*
X569000Y341000D02*
D03*
X570500Y338000D02*
D03*
X569000Y335000D02*
D03*
X570500Y332000D02*
D03*
X569000Y329000D02*
D03*
X570500Y326000D02*
D03*
X200000Y353000D02*
D03*
Y347000D02*
D03*
Y341000D02*
D03*
Y335000D02*
D03*
Y329000D02*
D03*
Y317000D02*
D03*
X197000Y353000D02*
D03*
X198500Y344000D02*
D03*
X197000Y341000D02*
D03*
X198500Y338000D02*
D03*
X197000Y335000D02*
D03*
X198500Y332000D02*
D03*
X197000Y329000D02*
D03*
X198500Y326000D02*
D03*
X197000Y317000D02*
D03*
X194000Y353000D02*
D03*
X195500Y344000D02*
D03*
X194000Y341000D02*
D03*
X195500Y338000D02*
D03*
X194000Y335000D02*
D03*
X195500Y332000D02*
D03*
X194000Y329000D02*
D03*
X195500Y326000D02*
D03*
X191000Y353000D02*
D03*
X192500Y344000D02*
D03*
X191000Y341000D02*
D03*
X192500Y338000D02*
D03*
X191000Y335000D02*
D03*
X192500Y332000D02*
D03*
X191000Y329000D02*
D03*
X192500Y326000D02*
D03*
X188000Y353000D02*
D03*
X189500Y344000D02*
D03*
X188000Y341000D02*
D03*
X189500Y338000D02*
D03*
X188000Y335000D02*
D03*
X189500Y332000D02*
D03*
X188000Y329000D02*
D03*
X189500Y326000D02*
D03*
X188000Y317000D02*
D03*
X185000Y353000D02*
D03*
Y347000D02*
D03*
X186500Y344000D02*
D03*
X185000Y341000D02*
D03*
X186500Y338000D02*
D03*
X185000Y335000D02*
D03*
X186500Y332000D02*
D03*
X185000Y329000D02*
D03*
X186500Y326000D02*
D03*
X185000Y323000D02*
D03*
Y317000D02*
D03*
X581000Y386000D02*
D03*
X582500Y383000D02*
D03*
X581000Y380000D02*
D03*
X582500Y377000D02*
D03*
X581000Y374000D02*
D03*
X582500Y371000D02*
D03*
Y365000D02*
D03*
X581000Y296000D02*
D03*
X582500Y293000D02*
D03*
X581000Y290000D02*
D03*
X582500Y287000D02*
D03*
X578000Y386000D02*
D03*
X579500Y383000D02*
D03*
X578000Y380000D02*
D03*
X579500Y377000D02*
D03*
X578000Y374000D02*
D03*
X579500Y371000D02*
D03*
X578000Y296000D02*
D03*
X579500Y293000D02*
D03*
X578000Y290000D02*
D03*
X575000Y386000D02*
D03*
X576500Y383000D02*
D03*
X575000Y380000D02*
D03*
X576500Y377000D02*
D03*
X575000Y374000D02*
D03*
X576500Y371000D02*
D03*
X575000Y296000D02*
D03*
X576500Y293000D02*
D03*
X575000Y290000D02*
D03*
X572000Y386000D02*
D03*
X573500Y383000D02*
D03*
X572000Y380000D02*
D03*
X573500Y377000D02*
D03*
X572000Y374000D02*
D03*
X573500Y371000D02*
D03*
X572000Y362000D02*
D03*
Y296000D02*
D03*
X573500Y293000D02*
D03*
X572000Y290000D02*
D03*
X573500Y287000D02*
D03*
X572000Y284000D02*
D03*
X569000Y386000D02*
D03*
X570500Y383000D02*
D03*
X569000Y380000D02*
D03*
X570500Y377000D02*
D03*
X569000Y374000D02*
D03*
X570500Y371000D02*
D03*
X569000Y362000D02*
D03*
X570500Y293000D02*
D03*
X569000Y290000D02*
D03*
X570500Y287000D02*
D03*
X569000Y284000D02*
D03*
X536000Y386000D02*
D03*
X537500Y383000D02*
D03*
X536000Y380000D02*
D03*
X537500Y377000D02*
D03*
X536000Y374000D02*
D03*
X537500Y371000D02*
D03*
Y365000D02*
D03*
X536000Y362000D02*
D03*
Y296000D02*
D03*
X537500Y293000D02*
D03*
X536000Y290000D02*
D03*
X537500Y287000D02*
D03*
X533000Y386000D02*
D03*
X534500Y383000D02*
D03*
X533000Y380000D02*
D03*
X534500Y377000D02*
D03*
X533000Y374000D02*
D03*
X534500Y371000D02*
D03*
X533000Y362000D02*
D03*
Y296000D02*
D03*
X534500Y293000D02*
D03*
X533000Y290000D02*
D03*
X530000Y386000D02*
D03*
X531500Y383000D02*
D03*
X530000Y380000D02*
D03*
X531500Y377000D02*
D03*
X530000Y374000D02*
D03*
X531500Y371000D02*
D03*
X530000Y362000D02*
D03*
Y296000D02*
D03*
X531500Y293000D02*
D03*
X530000Y290000D02*
D03*
X527000Y386000D02*
D03*
X528500Y383000D02*
D03*
X527000Y380000D02*
D03*
X528500Y377000D02*
D03*
X527000Y374000D02*
D03*
X528500Y371000D02*
D03*
X527000Y362000D02*
D03*
Y296000D02*
D03*
X528500Y293000D02*
D03*
X527000Y290000D02*
D03*
X528500Y287000D02*
D03*
X527000Y284000D02*
D03*
X524000Y386000D02*
D03*
X525500Y383000D02*
D03*
X524000Y380000D02*
D03*
X525500Y377000D02*
D03*
X524000Y374000D02*
D03*
X525500Y371000D02*
D03*
X524000Y362000D02*
D03*
X525500Y293000D02*
D03*
X524000Y290000D02*
D03*
X525500Y287000D02*
D03*
X524000Y284000D02*
D03*
X515000Y386000D02*
D03*
Y380000D02*
D03*
Y374000D02*
D03*
Y368000D02*
D03*
Y362000D02*
D03*
Y296000D02*
D03*
Y290000D02*
D03*
Y284000D02*
D03*
X512000Y386000D02*
D03*
X513500Y383000D02*
D03*
X512000Y380000D02*
D03*
X513500Y377000D02*
D03*
X512000Y374000D02*
D03*
X513500Y371000D02*
D03*
X512000Y362000D02*
D03*
Y296000D02*
D03*
X513500Y293000D02*
D03*
X512000Y290000D02*
D03*
X513500Y287000D02*
D03*
X509000Y386000D02*
D03*
X510500Y383000D02*
D03*
X509000Y380000D02*
D03*
X510500Y377000D02*
D03*
X509000Y374000D02*
D03*
X510500Y371000D02*
D03*
X509000Y362000D02*
D03*
Y296000D02*
D03*
X510500Y293000D02*
D03*
X509000Y290000D02*
D03*
X506000Y386000D02*
D03*
X507500Y383000D02*
D03*
X506000Y380000D02*
D03*
X507500Y377000D02*
D03*
X506000Y374000D02*
D03*
X507500Y371000D02*
D03*
X506000Y362000D02*
D03*
Y296000D02*
D03*
X507500Y293000D02*
D03*
X506000Y290000D02*
D03*
Y284000D02*
D03*
X503000Y386000D02*
D03*
X504500Y383000D02*
D03*
X503000Y380000D02*
D03*
X504500Y377000D02*
D03*
X503000Y374000D02*
D03*
X504500Y371000D02*
D03*
X503000Y362000D02*
D03*
Y296000D02*
D03*
X504500Y293000D02*
D03*
X503000Y290000D02*
D03*
X504500Y287000D02*
D03*
X503000Y284000D02*
D03*
X500000Y386000D02*
D03*
X501500Y383000D02*
D03*
X500000Y380000D02*
D03*
X501500Y377000D02*
D03*
X500000Y374000D02*
D03*
X501500Y371000D02*
D03*
X500000Y362000D02*
D03*
X501500Y293000D02*
D03*
X500000Y290000D02*
D03*
X501500Y287000D02*
D03*
X500000Y284000D02*
D03*
X491000Y386000D02*
D03*
X492500Y383000D02*
D03*
X491000Y380000D02*
D03*
X492500Y377000D02*
D03*
X491000Y374000D02*
D03*
X492500Y371000D02*
D03*
Y365000D02*
D03*
X491000Y362000D02*
D03*
Y296000D02*
D03*
X492500Y293000D02*
D03*
X491000Y290000D02*
D03*
X492500Y287000D02*
D03*
X488000Y386000D02*
D03*
X489500Y383000D02*
D03*
X488000Y380000D02*
D03*
X489500Y377000D02*
D03*
X488000Y374000D02*
D03*
X489500Y371000D02*
D03*
X488000Y362000D02*
D03*
Y296000D02*
D03*
X489500Y293000D02*
D03*
X488000Y290000D02*
D03*
X485000Y386000D02*
D03*
X486500Y383000D02*
D03*
X485000Y380000D02*
D03*
X486500Y377000D02*
D03*
X485000Y374000D02*
D03*
X486500Y371000D02*
D03*
X485000Y362000D02*
D03*
Y296000D02*
D03*
X486500Y293000D02*
D03*
X485000Y290000D02*
D03*
X482000Y386000D02*
D03*
X483500Y383000D02*
D03*
X482000Y380000D02*
D03*
X483500Y377000D02*
D03*
X482000Y374000D02*
D03*
X483500Y371000D02*
D03*
X482000Y362000D02*
D03*
Y296000D02*
D03*
X483500Y293000D02*
D03*
X482000Y290000D02*
D03*
X483500Y287000D02*
D03*
X482000Y284000D02*
D03*
X479000Y386000D02*
D03*
X480500Y383000D02*
D03*
X479000Y380000D02*
D03*
X480500Y377000D02*
D03*
X479000Y374000D02*
D03*
X480500Y371000D02*
D03*
X479000Y362000D02*
D03*
X480500Y293000D02*
D03*
X479000Y290000D02*
D03*
X480500Y287000D02*
D03*
X479000Y284000D02*
D03*
X470000Y386000D02*
D03*
Y380000D02*
D03*
Y374000D02*
D03*
Y368000D02*
D03*
Y362000D02*
D03*
Y296000D02*
D03*
Y290000D02*
D03*
Y284000D02*
D03*
X467000Y386000D02*
D03*
X468500Y383000D02*
D03*
X467000Y380000D02*
D03*
X468500Y377000D02*
D03*
X467000Y374000D02*
D03*
X468500Y371000D02*
D03*
X467000Y362000D02*
D03*
Y296000D02*
D03*
X468500Y293000D02*
D03*
X467000Y290000D02*
D03*
X468500Y287000D02*
D03*
X464000Y386000D02*
D03*
X465500Y383000D02*
D03*
X464000Y380000D02*
D03*
X465500Y377000D02*
D03*
X464000Y374000D02*
D03*
X465500Y371000D02*
D03*
X464000Y362000D02*
D03*
Y296000D02*
D03*
X465500Y293000D02*
D03*
X464000Y290000D02*
D03*
X461000Y386000D02*
D03*
X462500Y383000D02*
D03*
X461000Y380000D02*
D03*
X462500Y377000D02*
D03*
X461000Y374000D02*
D03*
X462500Y371000D02*
D03*
X461000Y362000D02*
D03*
Y296000D02*
D03*
X462500Y293000D02*
D03*
X461000Y290000D02*
D03*
Y284000D02*
D03*
X458000Y386000D02*
D03*
X459500Y383000D02*
D03*
X458000Y380000D02*
D03*
X459500Y377000D02*
D03*
X458000Y374000D02*
D03*
X459500Y371000D02*
D03*
X458000Y362000D02*
D03*
Y296000D02*
D03*
X459500Y293000D02*
D03*
X458000Y290000D02*
D03*
X459500Y287000D02*
D03*
X458000Y284000D02*
D03*
X455000Y386000D02*
D03*
X456500Y383000D02*
D03*
X455000Y380000D02*
D03*
X456500Y377000D02*
D03*
X455000Y374000D02*
D03*
X456500Y371000D02*
D03*
X455000Y362000D02*
D03*
X456500Y293000D02*
D03*
X455000Y290000D02*
D03*
X456500Y287000D02*
D03*
X455000Y284000D02*
D03*
X446000Y386000D02*
D03*
X447500Y383000D02*
D03*
X446000Y380000D02*
D03*
X447500Y377000D02*
D03*
X446000Y374000D02*
D03*
X447500Y371000D02*
D03*
Y365000D02*
D03*
X446000Y362000D02*
D03*
Y296000D02*
D03*
X447500Y293000D02*
D03*
X446000Y290000D02*
D03*
X447500Y287000D02*
D03*
X443000Y386000D02*
D03*
X444500Y383000D02*
D03*
X443000Y380000D02*
D03*
X444500Y377000D02*
D03*
X443000Y374000D02*
D03*
X444500Y371000D02*
D03*
X443000Y362000D02*
D03*
Y296000D02*
D03*
X444500Y293000D02*
D03*
X443000Y290000D02*
D03*
X440000Y386000D02*
D03*
X441500Y383000D02*
D03*
X440000Y380000D02*
D03*
X441500Y377000D02*
D03*
X440000Y374000D02*
D03*
X441500Y371000D02*
D03*
X440000Y362000D02*
D03*
Y296000D02*
D03*
X441500Y293000D02*
D03*
X440000Y290000D02*
D03*
X437000Y386000D02*
D03*
X438500Y383000D02*
D03*
X437000Y380000D02*
D03*
X438500Y377000D02*
D03*
X437000Y374000D02*
D03*
X438500Y371000D02*
D03*
X437000Y362000D02*
D03*
Y296000D02*
D03*
X438500Y293000D02*
D03*
X437000Y290000D02*
D03*
X438500Y287000D02*
D03*
X437000Y284000D02*
D03*
X434000Y386000D02*
D03*
X435500Y383000D02*
D03*
X434000Y380000D02*
D03*
X435500Y377000D02*
D03*
X434000Y374000D02*
D03*
X435500Y371000D02*
D03*
X434000Y362000D02*
D03*
X435500Y293000D02*
D03*
X434000Y290000D02*
D03*
X435500Y287000D02*
D03*
X434000Y284000D02*
D03*
X425000Y386000D02*
D03*
Y380000D02*
D03*
Y374000D02*
D03*
Y368000D02*
D03*
Y362000D02*
D03*
Y296000D02*
D03*
Y290000D02*
D03*
Y284000D02*
D03*
X422000Y386000D02*
D03*
X423500Y383000D02*
D03*
X422000Y380000D02*
D03*
X423500Y377000D02*
D03*
X422000Y374000D02*
D03*
X423500Y371000D02*
D03*
X422000Y362000D02*
D03*
Y296000D02*
D03*
X423500Y293000D02*
D03*
X422000Y290000D02*
D03*
X423500Y287000D02*
D03*
X419000Y386000D02*
D03*
X420500Y383000D02*
D03*
X419000Y380000D02*
D03*
X420500Y377000D02*
D03*
X419000Y374000D02*
D03*
X420500Y371000D02*
D03*
X419000Y362000D02*
D03*
Y296000D02*
D03*
X420500Y293000D02*
D03*
X419000Y290000D02*
D03*
X416000Y386000D02*
D03*
X417500Y383000D02*
D03*
X416000Y380000D02*
D03*
X417500Y377000D02*
D03*
X416000Y374000D02*
D03*
X417500Y371000D02*
D03*
X416000Y362000D02*
D03*
Y296000D02*
D03*
X417500Y293000D02*
D03*
X416000Y290000D02*
D03*
Y284000D02*
D03*
X413000Y386000D02*
D03*
X414500Y383000D02*
D03*
X413000Y380000D02*
D03*
X414500Y377000D02*
D03*
X413000Y374000D02*
D03*
X414500Y371000D02*
D03*
X413000Y362000D02*
D03*
Y296000D02*
D03*
X414500Y293000D02*
D03*
X413000Y290000D02*
D03*
X414500Y287000D02*
D03*
X413000Y284000D02*
D03*
X410000Y386000D02*
D03*
X411500Y383000D02*
D03*
X410000Y380000D02*
D03*
X411500Y377000D02*
D03*
X410000Y374000D02*
D03*
X411500Y371000D02*
D03*
X410000Y362000D02*
D03*
X411500Y293000D02*
D03*
X410000Y290000D02*
D03*
X411500Y287000D02*
D03*
X410000Y284000D02*
D03*
X401000Y386000D02*
D03*
X402500Y383000D02*
D03*
X401000Y380000D02*
D03*
X402500Y377000D02*
D03*
X401000Y374000D02*
D03*
X402500Y371000D02*
D03*
Y365000D02*
D03*
X401000Y362000D02*
D03*
Y296000D02*
D03*
X402500Y293000D02*
D03*
X401000Y290000D02*
D03*
X402500Y287000D02*
D03*
X398000Y386000D02*
D03*
X399500Y383000D02*
D03*
X398000Y380000D02*
D03*
X399500Y377000D02*
D03*
X398000Y374000D02*
D03*
X399500Y371000D02*
D03*
X398000Y362000D02*
D03*
Y296000D02*
D03*
X399500Y293000D02*
D03*
X398000Y290000D02*
D03*
X395000Y386000D02*
D03*
X396500Y383000D02*
D03*
X395000Y380000D02*
D03*
X396500Y377000D02*
D03*
X395000Y374000D02*
D03*
X396500Y371000D02*
D03*
X395000Y362000D02*
D03*
Y296000D02*
D03*
X396500Y293000D02*
D03*
X395000Y290000D02*
D03*
X392000Y386000D02*
D03*
X393500Y383000D02*
D03*
X392000Y380000D02*
D03*
X393500Y377000D02*
D03*
X392000Y374000D02*
D03*
X393500Y371000D02*
D03*
X392000Y362000D02*
D03*
Y296000D02*
D03*
X393500Y293000D02*
D03*
X392000Y290000D02*
D03*
X393500Y287000D02*
D03*
X392000Y284000D02*
D03*
X389000Y386000D02*
D03*
X390500Y383000D02*
D03*
X389000Y380000D02*
D03*
X390500Y377000D02*
D03*
X389000Y374000D02*
D03*
X390500Y371000D02*
D03*
X389000Y362000D02*
D03*
X390500Y293000D02*
D03*
X389000Y290000D02*
D03*
X390500Y287000D02*
D03*
X389000Y284000D02*
D03*
X380000Y386000D02*
D03*
Y380000D02*
D03*
Y374000D02*
D03*
Y368000D02*
D03*
Y362000D02*
D03*
Y296000D02*
D03*
Y290000D02*
D03*
Y284000D02*
D03*
X377000Y386000D02*
D03*
X378500Y383000D02*
D03*
X377000Y380000D02*
D03*
X378500Y377000D02*
D03*
X377000Y374000D02*
D03*
X378500Y371000D02*
D03*
X377000Y362000D02*
D03*
Y296000D02*
D03*
X378500Y293000D02*
D03*
X377000Y290000D02*
D03*
X378500Y287000D02*
D03*
X374000Y386000D02*
D03*
X375500Y383000D02*
D03*
X374000Y380000D02*
D03*
X375500Y377000D02*
D03*
X374000Y374000D02*
D03*
X375500Y371000D02*
D03*
X374000Y362000D02*
D03*
Y296000D02*
D03*
X375500Y293000D02*
D03*
X374000Y290000D02*
D03*
X371000Y386000D02*
D03*
X372500Y383000D02*
D03*
X371000Y380000D02*
D03*
X372500Y377000D02*
D03*
X371000Y374000D02*
D03*
X372500Y371000D02*
D03*
X371000Y362000D02*
D03*
Y296000D02*
D03*
X372500Y293000D02*
D03*
X371000Y290000D02*
D03*
Y284000D02*
D03*
X368000Y386000D02*
D03*
X369500Y383000D02*
D03*
X368000Y380000D02*
D03*
X369500Y377000D02*
D03*
X368000Y374000D02*
D03*
X369500Y371000D02*
D03*
X368000Y362000D02*
D03*
Y296000D02*
D03*
X369500Y293000D02*
D03*
X368000Y290000D02*
D03*
X369500Y287000D02*
D03*
X368000Y284000D02*
D03*
X365000Y386000D02*
D03*
X366500Y383000D02*
D03*
X365000Y380000D02*
D03*
X366500Y377000D02*
D03*
X365000Y374000D02*
D03*
X366500Y371000D02*
D03*
X365000Y362000D02*
D03*
X366500Y293000D02*
D03*
X365000Y290000D02*
D03*
X366500Y287000D02*
D03*
X365000Y284000D02*
D03*
X356000Y386000D02*
D03*
X357500Y383000D02*
D03*
X356000Y380000D02*
D03*
X357500Y377000D02*
D03*
X356000Y374000D02*
D03*
X357500Y371000D02*
D03*
Y365000D02*
D03*
X356000Y362000D02*
D03*
Y296000D02*
D03*
X357500Y293000D02*
D03*
X356000Y290000D02*
D03*
X357500Y287000D02*
D03*
X353000Y386000D02*
D03*
X354500Y383000D02*
D03*
X353000Y380000D02*
D03*
X354500Y377000D02*
D03*
X353000Y374000D02*
D03*
X354500Y371000D02*
D03*
X353000Y362000D02*
D03*
Y296000D02*
D03*
X354500Y293000D02*
D03*
X353000Y290000D02*
D03*
X350000Y386000D02*
D03*
X351500Y383000D02*
D03*
X350000Y380000D02*
D03*
X351500Y377000D02*
D03*
X350000Y374000D02*
D03*
X351500Y371000D02*
D03*
X350000Y362000D02*
D03*
Y296000D02*
D03*
X351500Y293000D02*
D03*
X350000Y290000D02*
D03*
X347000Y386000D02*
D03*
X348500Y383000D02*
D03*
X347000Y380000D02*
D03*
X348500Y377000D02*
D03*
X347000Y374000D02*
D03*
X348500Y371000D02*
D03*
X347000Y362000D02*
D03*
Y296000D02*
D03*
X348500Y293000D02*
D03*
X347000Y290000D02*
D03*
X348500Y287000D02*
D03*
X347000Y284000D02*
D03*
X344000Y386000D02*
D03*
X345500Y383000D02*
D03*
X344000Y380000D02*
D03*
X345500Y377000D02*
D03*
X344000Y374000D02*
D03*
X345500Y371000D02*
D03*
X344000Y362000D02*
D03*
X345500Y293000D02*
D03*
X344000Y290000D02*
D03*
X345500Y287000D02*
D03*
X344000Y284000D02*
D03*
X335000Y386000D02*
D03*
Y380000D02*
D03*
Y374000D02*
D03*
Y368000D02*
D03*
Y362000D02*
D03*
Y296000D02*
D03*
Y290000D02*
D03*
Y284000D02*
D03*
X332000Y386000D02*
D03*
X333500Y383000D02*
D03*
X332000Y380000D02*
D03*
X333500Y377000D02*
D03*
X332000Y374000D02*
D03*
X333500Y371000D02*
D03*
X332000Y362000D02*
D03*
Y296000D02*
D03*
X333500Y293000D02*
D03*
X332000Y290000D02*
D03*
X333500Y287000D02*
D03*
X329000Y386000D02*
D03*
X330500Y383000D02*
D03*
X329000Y380000D02*
D03*
X330500Y377000D02*
D03*
X329000Y374000D02*
D03*
X330500Y371000D02*
D03*
X329000Y362000D02*
D03*
Y296000D02*
D03*
X330500Y293000D02*
D03*
X329000Y290000D02*
D03*
X326000Y386000D02*
D03*
X327500Y383000D02*
D03*
X326000Y380000D02*
D03*
X327500Y377000D02*
D03*
X326000Y374000D02*
D03*
X327500Y371000D02*
D03*
X326000Y362000D02*
D03*
Y296000D02*
D03*
X327500Y293000D02*
D03*
X326000Y290000D02*
D03*
Y284000D02*
D03*
X323000Y386000D02*
D03*
X324500Y383000D02*
D03*
X323000Y380000D02*
D03*
X324500Y377000D02*
D03*
X323000Y374000D02*
D03*
X324500Y371000D02*
D03*
X323000Y362000D02*
D03*
Y296000D02*
D03*
X324500Y293000D02*
D03*
X323000Y290000D02*
D03*
X324500Y287000D02*
D03*
X323000Y284000D02*
D03*
X320000Y386000D02*
D03*
X321500Y383000D02*
D03*
X320000Y380000D02*
D03*
X321500Y377000D02*
D03*
X320000Y374000D02*
D03*
X321500Y371000D02*
D03*
X320000Y362000D02*
D03*
X321500Y293000D02*
D03*
X320000Y290000D02*
D03*
X321500Y287000D02*
D03*
X320000Y284000D02*
D03*
X311000Y386000D02*
D03*
X312500Y383000D02*
D03*
X311000Y380000D02*
D03*
X312500Y377000D02*
D03*
X311000Y374000D02*
D03*
X312500Y371000D02*
D03*
Y365000D02*
D03*
X311000Y362000D02*
D03*
Y296000D02*
D03*
X312500Y293000D02*
D03*
X311000Y290000D02*
D03*
X312500Y287000D02*
D03*
X308000Y386000D02*
D03*
X309500Y383000D02*
D03*
X308000Y380000D02*
D03*
X309500Y377000D02*
D03*
X308000Y374000D02*
D03*
X309500Y371000D02*
D03*
X308000Y362000D02*
D03*
Y296000D02*
D03*
X309500Y293000D02*
D03*
X308000Y290000D02*
D03*
X305000Y386000D02*
D03*
X306500Y383000D02*
D03*
X305000Y380000D02*
D03*
X306500Y377000D02*
D03*
X305000Y374000D02*
D03*
X306500Y371000D02*
D03*
X305000Y362000D02*
D03*
Y296000D02*
D03*
X306500Y293000D02*
D03*
X305000Y290000D02*
D03*
X302000Y386000D02*
D03*
X303500Y383000D02*
D03*
X302000Y380000D02*
D03*
X303500Y377000D02*
D03*
X302000Y374000D02*
D03*
X303500Y371000D02*
D03*
X302000Y362000D02*
D03*
Y296000D02*
D03*
X303500Y293000D02*
D03*
X302000Y290000D02*
D03*
X303500Y287000D02*
D03*
X302000Y284000D02*
D03*
X299000Y386000D02*
D03*
X300500Y383000D02*
D03*
X299000Y380000D02*
D03*
X300500Y377000D02*
D03*
X299000Y374000D02*
D03*
X300500Y371000D02*
D03*
X299000Y362000D02*
D03*
Y296000D02*
D03*
X300500Y293000D02*
D03*
X299000Y290000D02*
D03*
X300500Y287000D02*
D03*
X299000Y284000D02*
D03*
X290000Y386000D02*
D03*
Y380000D02*
D03*
Y374000D02*
D03*
Y368000D02*
D03*
Y362000D02*
D03*
Y296000D02*
D03*
Y290000D02*
D03*
Y284000D02*
D03*
X287000Y386000D02*
D03*
X288500Y383000D02*
D03*
X287000Y380000D02*
D03*
X288500Y377000D02*
D03*
X287000Y374000D02*
D03*
X288500Y371000D02*
D03*
X287000Y362000D02*
D03*
Y296000D02*
D03*
X288500Y293000D02*
D03*
X287000Y290000D02*
D03*
X288500Y287000D02*
D03*
X284000Y386000D02*
D03*
X285500Y383000D02*
D03*
X284000Y380000D02*
D03*
X285500Y377000D02*
D03*
X284000Y374000D02*
D03*
X285500Y371000D02*
D03*
X284000Y362000D02*
D03*
Y296000D02*
D03*
X285500Y293000D02*
D03*
X284000Y290000D02*
D03*
X281000Y386000D02*
D03*
X282500Y383000D02*
D03*
X281000Y380000D02*
D03*
X282500Y377000D02*
D03*
X281000Y374000D02*
D03*
X282500Y371000D02*
D03*
X281000Y362000D02*
D03*
Y296000D02*
D03*
X282500Y293000D02*
D03*
X281000Y290000D02*
D03*
Y284000D02*
D03*
X278000Y386000D02*
D03*
X279500Y383000D02*
D03*
X278000Y380000D02*
D03*
X279500Y377000D02*
D03*
X278000Y374000D02*
D03*
X279500Y371000D02*
D03*
X278000Y362000D02*
D03*
Y296000D02*
D03*
X279500Y293000D02*
D03*
X278000Y290000D02*
D03*
X279500Y287000D02*
D03*
X278000Y284000D02*
D03*
X275000Y386000D02*
D03*
X276500Y383000D02*
D03*
X275000Y380000D02*
D03*
X276500Y377000D02*
D03*
X275000Y374000D02*
D03*
X276500Y371000D02*
D03*
X275000Y362000D02*
D03*
Y296000D02*
D03*
X276500Y293000D02*
D03*
X275000Y290000D02*
D03*
X276500Y287000D02*
D03*
X275000Y284000D02*
D03*
X266000Y386000D02*
D03*
X267500Y383000D02*
D03*
X266000Y380000D02*
D03*
X267500Y377000D02*
D03*
X266000Y374000D02*
D03*
X267500Y371000D02*
D03*
Y365000D02*
D03*
X266000Y362000D02*
D03*
Y296000D02*
D03*
X267500Y293000D02*
D03*
X266000Y290000D02*
D03*
X267500Y287000D02*
D03*
X263000Y386000D02*
D03*
X264500Y383000D02*
D03*
X263000Y380000D02*
D03*
X264500Y377000D02*
D03*
X263000Y374000D02*
D03*
X264500Y371000D02*
D03*
X263000Y362000D02*
D03*
Y296000D02*
D03*
X264500Y293000D02*
D03*
X263000Y290000D02*
D03*
X260000Y386000D02*
D03*
X261500Y383000D02*
D03*
X260000Y380000D02*
D03*
X261500Y377000D02*
D03*
X260000Y374000D02*
D03*
X261500Y371000D02*
D03*
X260000Y362000D02*
D03*
Y296000D02*
D03*
X261500Y293000D02*
D03*
X260000Y290000D02*
D03*
X257000Y386000D02*
D03*
X258500Y383000D02*
D03*
X257000Y380000D02*
D03*
X258500Y377000D02*
D03*
X257000Y374000D02*
D03*
X258500Y371000D02*
D03*
X257000Y362000D02*
D03*
Y296000D02*
D03*
X258500Y293000D02*
D03*
X257000Y290000D02*
D03*
X258500Y287000D02*
D03*
X257000Y284000D02*
D03*
X254000Y386000D02*
D03*
X255500Y383000D02*
D03*
X254000Y380000D02*
D03*
X255500Y377000D02*
D03*
X254000Y374000D02*
D03*
X255500Y371000D02*
D03*
X254000Y362000D02*
D03*
Y296000D02*
D03*
X255500Y293000D02*
D03*
X254000Y290000D02*
D03*
X255500Y287000D02*
D03*
X254000Y284000D02*
D03*
X245000Y386000D02*
D03*
Y380000D02*
D03*
Y374000D02*
D03*
Y368000D02*
D03*
Y362000D02*
D03*
Y296000D02*
D03*
Y290000D02*
D03*
Y284000D02*
D03*
X242000Y386000D02*
D03*
X243500Y383000D02*
D03*
X242000Y380000D02*
D03*
X243500Y377000D02*
D03*
X242000Y374000D02*
D03*
X243500Y371000D02*
D03*
X242000Y362000D02*
D03*
Y296000D02*
D03*
X243500Y293000D02*
D03*
X242000Y290000D02*
D03*
X243500Y287000D02*
D03*
X239000Y386000D02*
D03*
X240500Y383000D02*
D03*
X239000Y380000D02*
D03*
X240500Y377000D02*
D03*
X239000Y374000D02*
D03*
X240500Y371000D02*
D03*
X239000Y362000D02*
D03*
Y296000D02*
D03*
X240500Y293000D02*
D03*
X239000Y290000D02*
D03*
X236000Y386000D02*
D03*
X237500Y383000D02*
D03*
X236000Y380000D02*
D03*
X237500Y377000D02*
D03*
X236000Y374000D02*
D03*
X237500Y371000D02*
D03*
X236000Y362000D02*
D03*
Y296000D02*
D03*
X237500Y293000D02*
D03*
X236000Y290000D02*
D03*
Y284000D02*
D03*
X233000Y386000D02*
D03*
X234500Y383000D02*
D03*
X233000Y380000D02*
D03*
X234500Y377000D02*
D03*
X233000Y374000D02*
D03*
X234500Y371000D02*
D03*
X233000Y362000D02*
D03*
Y296000D02*
D03*
X234500Y293000D02*
D03*
X233000Y290000D02*
D03*
X234500Y287000D02*
D03*
X233000Y284000D02*
D03*
X230000Y386000D02*
D03*
X231500Y383000D02*
D03*
X230000Y380000D02*
D03*
X231500Y377000D02*
D03*
X230000Y374000D02*
D03*
X231500Y371000D02*
D03*
X230000Y362000D02*
D03*
Y296000D02*
D03*
X231500Y293000D02*
D03*
X230000Y290000D02*
D03*
X231500Y287000D02*
D03*
X230000Y284000D02*
D03*
X221000Y386000D02*
D03*
X222500Y383000D02*
D03*
X221000Y380000D02*
D03*
X222500Y377000D02*
D03*
X221000Y374000D02*
D03*
X222500Y371000D02*
D03*
Y365000D02*
D03*
X221000Y362000D02*
D03*
Y296000D02*
D03*
X222500Y293000D02*
D03*
X221000Y290000D02*
D03*
X222500Y287000D02*
D03*
X218000Y386000D02*
D03*
X219500Y383000D02*
D03*
X218000Y380000D02*
D03*
X219500Y377000D02*
D03*
X218000Y374000D02*
D03*
X219500Y371000D02*
D03*
X218000Y362000D02*
D03*
Y296000D02*
D03*
X219500Y293000D02*
D03*
X218000Y290000D02*
D03*
X215000Y386000D02*
D03*
X216500Y383000D02*
D03*
X215000Y380000D02*
D03*
X216500Y377000D02*
D03*
X215000Y374000D02*
D03*
X216500Y371000D02*
D03*
X215000Y362000D02*
D03*
Y296000D02*
D03*
X216500Y293000D02*
D03*
X215000Y290000D02*
D03*
X212000Y386000D02*
D03*
X213500Y383000D02*
D03*
X212000Y380000D02*
D03*
X213500Y377000D02*
D03*
X212000Y374000D02*
D03*
X213500Y371000D02*
D03*
X212000Y362000D02*
D03*
Y308000D02*
D03*
Y296000D02*
D03*
X213500Y293000D02*
D03*
X212000Y290000D02*
D03*
X213500Y287000D02*
D03*
X212000Y284000D02*
D03*
X209000Y386000D02*
D03*
X210500Y383000D02*
D03*
X209000Y380000D02*
D03*
X210500Y377000D02*
D03*
X209000Y374000D02*
D03*
X210500Y371000D02*
D03*
X209000Y362000D02*
D03*
Y308000D02*
D03*
Y296000D02*
D03*
X210500Y293000D02*
D03*
X209000Y290000D02*
D03*
X210500Y287000D02*
D03*
X209000Y284000D02*
D03*
X200000Y386000D02*
D03*
Y380000D02*
D03*
Y374000D02*
D03*
Y368000D02*
D03*
Y362000D02*
D03*
Y308000D02*
D03*
Y296000D02*
D03*
Y290000D02*
D03*
Y284000D02*
D03*
X197000Y386000D02*
D03*
X198500Y383000D02*
D03*
X197000Y380000D02*
D03*
X198500Y377000D02*
D03*
X197000Y374000D02*
D03*
X198500Y371000D02*
D03*
X197000Y362000D02*
D03*
Y308000D02*
D03*
X198500Y299000D02*
D03*
X197000Y296000D02*
D03*
X198500Y293000D02*
D03*
X197000Y290000D02*
D03*
X198500Y287000D02*
D03*
X194000Y386000D02*
D03*
X195500Y383000D02*
D03*
X194000Y380000D02*
D03*
X195500Y377000D02*
D03*
X194000Y374000D02*
D03*
X195500Y371000D02*
D03*
X194000Y362000D02*
D03*
X195500Y299000D02*
D03*
X194000Y296000D02*
D03*
X195500Y293000D02*
D03*
X194000Y290000D02*
D03*
X191000Y386000D02*
D03*
X192500Y383000D02*
D03*
X191000Y380000D02*
D03*
X192500Y377000D02*
D03*
X191000Y374000D02*
D03*
X192500Y371000D02*
D03*
X191000Y362000D02*
D03*
X192500Y299000D02*
D03*
X191000Y296000D02*
D03*
X192500Y293000D02*
D03*
X191000Y290000D02*
D03*
Y284000D02*
D03*
X188000Y386000D02*
D03*
X189500Y383000D02*
D03*
X188000Y380000D02*
D03*
X189500Y377000D02*
D03*
X188000Y374000D02*
D03*
X189500Y371000D02*
D03*
X188000Y362000D02*
D03*
Y308000D02*
D03*
X189500Y299000D02*
D03*
X188000Y296000D02*
D03*
X189500Y293000D02*
D03*
X188000Y290000D02*
D03*
X189500Y287000D02*
D03*
X188000Y284000D02*
D03*
X185000Y386000D02*
D03*
X186500Y383000D02*
D03*
X185000Y380000D02*
D03*
X186500Y377000D02*
D03*
X185000Y374000D02*
D03*
X186500Y371000D02*
D03*
X185000Y362000D02*
D03*
Y308000D02*
D03*
Y302000D02*
D03*
X186500Y299000D02*
D03*
X185000Y296000D02*
D03*
X186500Y293000D02*
D03*
X185000Y290000D02*
D03*
X186500Y287000D02*
D03*
X185000Y284000D02*
D03*
X143000Y341000D02*
D03*
X140000D02*
D03*
X146000Y365000D02*
D03*
X147500Y362000D02*
D03*
X143000Y365000D02*
D03*
X144500Y362000D02*
D03*
X140000Y365000D02*
D03*
X141500Y362000D02*
D03*
X37500Y336250D02*
D03*
Y348750D02*
D03*
X579375Y247500D02*
D03*
X588750Y184375D02*
D03*
X591875Y217234D02*
D03*
X365000Y297500D02*
D03*
X342500Y366250D02*
D03*
X320000Y297500D02*
D03*
X560000Y321250D02*
D03*
X537500D02*
D03*
X515000D02*
D03*
X492500D02*
D03*
X470000D02*
D03*
X447500D02*
D03*
X425000D02*
D03*
X402500D02*
D03*
X380000D02*
D03*
X357500D02*
D03*
X335000D02*
D03*
X312500D02*
D03*
X293750Y318750D02*
D03*
X290000Y321250D02*
D03*
X267500D02*
D03*
X245000D02*
D03*
X275000Y313750D02*
D03*
X252500Y312500D02*
D03*
X297500Y366250D02*
D03*
X275000D02*
D03*
X252500D02*
D03*
X230000Y312500D02*
D03*
X222500Y321250D02*
D03*
X185000Y312500D02*
D03*
X207500D02*
D03*
X200000Y321250D02*
D03*
X228750Y366250D02*
D03*
X206250D02*
D03*
X183750D02*
D03*
X575000Y361250D02*
D03*
X567500Y366250D02*
D03*
Y297500D02*
D03*
X545000Y366250D02*
D03*
Y297500D02*
D03*
X522500Y366250D02*
D03*
Y297500D02*
D03*
X500000Y366250D02*
D03*
X499928Y297620D02*
D03*
X477500Y366250D02*
D03*
Y297620D02*
D03*
X455000Y366250D02*
D03*
Y297541D02*
D03*
X432500Y366250D02*
D03*
X432451Y297541D02*
D03*
X410000Y366250D02*
D03*
Y297541D02*
D03*
X387500Y366250D02*
D03*
X387421Y297541D02*
D03*
X365000Y366250D02*
D03*
X342500Y297541D02*
D03*
X320000Y366250D02*
D03*
X221240Y281240D02*
D03*
X243740D02*
D03*
X266240D02*
D03*
X288740D02*
D03*
X304921Y317500D02*
D03*
X311240Y281240D02*
D03*
X356250Y281250D02*
D03*
X333750D02*
D03*
X378740D02*
D03*
X401250D02*
D03*
X423661Y281161D02*
D03*
X446250Y281250D02*
D03*
X468740D02*
D03*
X491250D02*
D03*
X513750D02*
D03*
X558750D02*
D03*
X581250D02*
D03*
X536289Y281211D02*
D03*
X552500Y358750D02*
D03*
X530000Y356250D02*
D03*
X507500Y352500D02*
D03*
X485000Y352500D02*
D03*
X462500Y343750D02*
D03*
X440012Y317481D02*
D03*
X417500Y317481D02*
D03*
X395019Y317500D02*
D03*
X372500Y317500D02*
D03*
X350000Y317500D02*
D03*
X327500Y317500D02*
D03*
X282500Y317500D02*
D03*
X260000Y317500D02*
D03*
X237500Y317500D02*
D03*
X215000Y317500D02*
D03*
X192500Y317500D02*
D03*
X198769Y280256D02*
D03*
X131250Y251250D02*
D03*
X518750Y188750D02*
D03*
Y183455D02*
D03*
X369421Y229451D02*
D03*
X580615Y179995D02*
D03*
X583750Y196358D02*
D03*
X579375Y188125D02*
D03*
X590275Y227500D02*
D03*
X539094Y238000D02*
D03*
X366624Y174375D02*
D03*
X370915Y181024D02*
D03*
X380994Y173809D02*
D03*
X382421Y193622D02*
D03*
X377500Y186535D02*
D03*
X394020Y173809D02*
D03*
X373671Y195836D02*
D03*
X379272Y218218D02*
D03*
X370098Y213563D02*
D03*
X369375Y188750D02*
D03*
X379921Y221877D02*
D03*
X333003Y224878D02*
D03*
X582077Y120625D02*
D03*
X591875Y121875D02*
D03*
X552421Y120625D02*
D03*
X562500D02*
D03*
X572766D02*
D03*
X542421D02*
D03*
X522421D02*
D03*
X532549D02*
D03*
X512500D02*
D03*
X128750Y248750D02*
D03*
X126250Y246250D02*
D03*
X123671Y219951D02*
D03*
X123750Y237500D02*
D03*
X123671Y229951D02*
D03*
X81339Y260089D02*
D03*
X68750Y265000D02*
D03*
X71250Y262500D02*
D03*
X28765Y265250D02*
D03*
X31242Y262650D02*
D03*
X36250Y257500D02*
D03*
X41875D02*
D03*
X33500Y260079D02*
D03*
X170625Y147500D02*
D03*
X126483Y131250D02*
D03*
X173125Y108351D02*
D03*
X157365Y108125D02*
D03*
X141750Y108250D02*
D03*
X129375Y117438D02*
D03*
X143227D02*
D03*
X72244Y119951D02*
D03*
X77756Y120000D02*
D03*
X101506Y118945D02*
D03*
X95994D02*
D03*
X337244Y90677D02*
D03*
X343494D02*
D03*
X330994D02*
D03*
X307500Y111875D02*
D03*
X267421D02*
D03*
X227500D02*
D03*
X337500D02*
D03*
X327500D02*
D03*
X317500D02*
D03*
X297500D02*
D03*
X287500D02*
D03*
X277500D02*
D03*
X257500D02*
D03*
X247500D02*
D03*
X237500D02*
D03*
X217500D02*
D03*
X383415Y43753D02*
D03*
X45000Y238258D02*
D03*
X69621Y221250D02*
D03*
X70625Y218125D02*
D03*
X83750Y244242D02*
D03*
X43750D02*
D03*
X205531Y90576D02*
D03*
X362244Y90677D02*
D03*
X355994D02*
D03*
X349744D02*
D03*
X324665D02*
D03*
X318415D02*
D03*
X133760Y246250D02*
D03*
X136250Y243750D02*
D03*
X138749Y246875D02*
D03*
X141250Y232500D02*
D03*
X178750Y161250D02*
D03*
X176250Y163750D02*
D03*
X173750Y161250D02*
D03*
X148750Y216250D02*
D03*
X146250Y218750D02*
D03*
X143750Y221250D02*
D03*
X207500Y111875D02*
D03*
X56000Y246250D02*
D03*
X56321Y216250D02*
D03*
X316250Y225625D02*
D03*
X331250Y237784D02*
D03*
X527500Y225625D02*
D03*
X212500Y120000D02*
D03*
X222500D02*
D03*
X232500D02*
D03*
X242500D02*
D03*
X252500D02*
D03*
X262500D02*
D03*
X422500D02*
D03*
X432500D02*
D03*
X442500D02*
D03*
X452500D02*
D03*
X462500D02*
D03*
X472500D02*
D03*
X272421Y119951D02*
D03*
X282421D02*
D03*
X292421D02*
D03*
X302421D02*
D03*
X312421D02*
D03*
X322421D02*
D03*
X332421D02*
D03*
X342421D02*
D03*
X352421D02*
D03*
X362421D02*
D03*
X372421D02*
D03*
X382421D02*
D03*
X482500Y120000D02*
D03*
X492421Y119951D02*
D03*
X370000Y210000D02*
D03*
Y222500D02*
D03*
X357500Y216250D02*
D03*
X370000Y205000D02*
D03*
X71250Y211250D02*
D03*
X115000Y236250D02*
D03*
X370000Y217500D02*
D03*
X580000Y230000D02*
D03*
X91250Y243750D02*
D03*
X47500Y267500D02*
D03*
X357500Y228750D02*
D03*
X579921Y201201D02*
D03*
X370000Y201250D02*
D03*
X347500Y111875D02*
D03*
X367500D02*
D03*
X377500D02*
D03*
X391250Y112500D02*
D03*
X91250Y267500D02*
D03*
X93750Y270000D02*
D03*
X56250D02*
D03*
X91250Y238750D02*
D03*
X51250D02*
D03*
X93750Y241250D02*
D03*
X359665Y43753D02*
D03*
X348415D02*
D03*
X370915D02*
D03*
X395915D02*
D03*
X407165D02*
D03*
X418415D02*
D03*
X330000Y223750D02*
D03*
X91250Y250000D02*
D03*
D126*
X45000Y293750D02*
D03*
X40000Y288750D02*
D03*
X25000Y100000D02*
D03*
X462500Y88125D02*
D03*
X455000Y86875D02*
D03*
X470000Y88750D02*
D03*
X477500D02*
D03*
X485000D02*
D03*
X492500D02*
D03*
X500000D02*
D03*
X507500D02*
D03*
X515000D02*
D03*
X522500D02*
D03*
X530000D02*
D03*
X537500D02*
D03*
X545000D02*
D03*
X552500D02*
D03*
X560000D02*
D03*
X567500D02*
D03*
X575000D02*
D03*
X582500Y89375D02*
D03*
X590000Y86250D02*
D03*
D127*
X180000Y173750D02*
D03*
X197500Y185000D02*
D03*
X196250Y206250D02*
D03*
X207500Y180000D02*
D03*
X411250Y206250D02*
D03*
X421250Y181250D02*
D03*
X395000Y178176D02*
D03*
X185000Y241250D02*
D03*
X492500Y222500D02*
D03*
X485000Y248750D02*
D03*
X165000Y183750D02*
D03*
X272500Y246250D02*
D03*
Y241250D02*
D03*
X203750Y162500D02*
D03*
X203125Y120101D02*
D03*
X395000Y120000D02*
D03*
M02*
